<svg width="93" height="92" viewBox="0 0 93 92" fill="none" xmlns="http://www.w3.org/2000/svg">
<circle opacity="0.3" cx="46.3193" cy="46" r="46" fill="white"/>
<g clip-path="url(#clip0_1608_2049)">
<path opacity="0.27" d="M0.596436 72.5528C0.596436 81.9523 21.1809 90.5569 46.4305 90.0643C75.1269 89.504 92.0104 81.2525 92.0104 71.8531C92.0104 62.4536 71.6045 56.4452 46.3591 56.4452C21.1137 56.4452 0.596436 63.1512 0.596436 72.5528Z" fill="black"/>
<path d="M0 71.5528C0 80.9523 20.5845 89.5569 45.8341 89.0643C74.5305 88.504 91.414 80.2525 91.414 70.8531C91.414 61.4536 70.9954 55.4452 45.7521 55.4452C20.5089 55.4452 0 62.1534 0 71.5528Z" fill="#B22F5D"/>
<path d="M0.0397949 70.5021C0.0397949 79.9037 19.5341 87.2525 44.7753 87.2525C70.0165 87.2525 91.4643 79.9143 91.4643 70.5127C91.4643 61.1111 70.9974 53.4938 45.752 53.4938C20.5066 53.4938 0.0397949 61.1026 0.0397949 70.5021Z" fill="url(#paint0_linear_1608_2049)"/>
<path d="M1.59009 70.4937C1.59009 79.1913 20.3745 85.984 44.6936 85.984C69.0126 85.984 89.6895 79.1913 89.6895 70.4937C89.6895 61.7961 69.9705 54.7454 45.6451 54.7454C21.3197 54.7454 1.59009 61.7961 1.59009 70.4937Z" fill="#B22F5D"/>
<path d="M3.29761 70.889C3.29761 79.1024 21.4014 85.5167 44.853 85.5167C68.3046 85.5167 88.2191 79.1024 88.2191 70.889C88.2191 62.6756 69.2078 56.0181 45.7541 56.0181C22.3004 56.0181 3.29761 62.6756 3.29761 70.889Z" fill="url(#paint1_linear_1608_2049)"/>
<path d="M13.7769 72.4176L15.6967 77.0835L27.4214 80.6839L40.3371 81.9502L49.6106 81.3498L55.6369 79.6839L62.8561 76.8826L13.9092 67.5508L13.7769 72.4176Z" fill="#914004"/>
<path d="M8.01526 72.4175C8.01526 72.4175 7.7485 72.2843 10.1346 71.7495C12.5207 71.2146 9.86786 70.018 10.5316 67.6163C11.1953 65.2146 16.228 64.4197 19.6707 64.9504C23.1133 65.481 20.2021 71.4831 20.2021 71.4831L15.829 74.5507L8.01526 72.4175Z" fill="#914004"/>
<path d="M14.3735 66.8172C14.3735 66.8172 13.8421 68.4176 14.5058 71.6163C15.1696 74.815 19.4062 77.483 22.9833 78.0179C26.5603 78.5528 36.0985 80.1511 41.1312 80.1511C46.1639 80.1511 53.0534 79.483 56.7628 78.6838C60.4722 77.8847 70.5397 75.2166 72.7914 74.8171C75.0431 74.4175 79.2839 72.0179 80.2102 71.223C81.1365 70.4281 81.4033 67.0899 80.6072 66.2907C79.8111 65.4916 73.4215 66.7897 73.4215 66.7897L14.3735 66.8172Z" fill="#FFEDC4"/>
<path d="M22.288 63.0498C22.288 63.0498 17.3876 63.183 15.0015 65.5867C12.6154 67.9905 15.2661 73.3858 22.5631 75.2526C29.8601 77.1194 47.401 77.6521 53.4944 76.6521C59.5879 75.6522 70.1196 72.8467 72.7031 72.1194C75.2867 71.3922 82.5753 67.8531 80.2543 64.7855C77.9333 61.7179 22.288 63.0498 22.288 63.0498Z" fill="url(#paint2_linear_1608_2049)"/>
<path d="M19.7715 62.7284C19.7715 62.7284 19.4733 63.5276 21.162 65.0286C22.8508 66.5297 24.7328 66.8278 26.4279 67.0286C28.123 67.2295 30.7989 69.8277 35.567 70.2273C40.335 70.6269 45.9999 71.3267 55.7314 71.8277C65.4628 72.3288 73.5159 67.8172 75.8054 67.4176C78.0949 67.018 81.4767 65.1174 81.7665 63.6122C82.0564 62.1069 81.567 60.4135 81.567 60.4135L19.7715 62.7284Z" fill="#FFEDC4"/>
<path d="M42.1582 68.1829C42.1582 68.1829 47.3254 68.517 52.1606 68.9842C56.9959 69.4514 64.3433 69.9842 73.4214 66.7834C82.4996 63.5826 83.8859 59.2507 78.3218 57.8511C72.7577 56.4516 34.939 67.0498 34.939 67.0498C34.939 67.0498 37.1255 68.1829 42.1582 68.1829Z" fill="#E2952C"/>
<path opacity="0.18" d="M18.5786 50.7497C17.7942 51.5942 16.9654 52.3959 16.0958 53.1514C14.7032 54.3501 17.2868 54.4833 17.9863 57.183C18.6857 59.8828 18.1564 60.9885 19.8242 62.6164C22.3447 65.0836 25.9155 65.4345 29.5619 66.7664C33.036 68.0349 38.3607 69.3901 43.2148 69.1174C50.9298 68.684 55.5004 69.5846 58.481 69.0835C61.4615 68.5825 64.4064 66.9694 67.158 66.0667C71.132 64.7665 72.8901 63.2696 75.3056 61.6502C80.9769 57.8448 78.8764 56.0499 78.8764 54.9505C78.8764 53.8511 77.0889 54.7391 74.3079 53.0478C71.5269 51.3565 18.5786 50.7497 18.5786 50.7497Z" fill="black"/>
<path d="M18.5785 50.4178C17.7937 51.2613 16.965 52.0623 16.0958 52.8173C14.7032 54.0182 13.6109 54.9167 14.3062 57.6164C15.0014 60.3162 17.3875 61.2105 19.175 62.7179C20.9625 64.2253 26.8249 68.018 30.5007 68.4261C34.1765 68.8341 37.4553 69.3246 42.3242 69.426C47.193 69.5275 54.6433 68.8256 57.6239 68.3246C60.6044 67.8235 65.007 66.1259 67.7586 65.2252C71.7326 63.925 72.8942 62.9462 75.3202 61.3246C80.9915 57.5192 78.891 55.7264 78.891 54.6249C78.891 53.5235 77.1035 54.4262 74.3225 52.7222C71.5415 51.0182 18.5785 50.4178 18.5785 50.4178Z" fill="#FFEDC4"/>
<path d="M19.1751 49.9844C19.1751 49.9844 14.9364 51.5848 14.2831 54.718C13.6299 57.8511 18.4567 61.1175 21.7019 61.9166C24.9472 62.7158 28.06 65.7221 33.3595 66.7178C38.6589 67.7136 46.0105 67.3161 52.6333 66.9842C59.256 66.6523 66.5425 64.4472 70.6489 62.3162C74.7553 60.1851 79.3931 59.2507 79.0612 55.3839C78.7293 51.5172 74.4255 51.4495 74.4255 51.4495L19.1751 49.9844Z" fill="url(#paint3_linear_1608_2049)"/>
<path opacity="0.18" d="M16.8247 51.2846C16.8247 51.2846 17.2868 54.4833 23.1828 56.2169C29.0788 57.9505 35.0378 58.2507 37.7537 58.1196C40.4695 57.9886 44.807 58.386 48.9806 58.3184C53.1542 58.2507 61.598 55.8194 63.2532 55.8194C64.9084 55.8194 71.4681 54.2867 73.7198 54.0203C75.9715 53.7539 77.2905 52.2867 76.7003 51.9527C76.1101 51.6186 67.494 53.3522 67.494 53.3522L51.1987 55.7518L30.5344 55.5531L20.3997 53.4854L16.8289 51.2867" fill="black"/>
<path d="M16.0957 48.1662C16.0957 48.1662 15.8962 50.8681 17.8181 52.4178C18.6247 53.0689 23.5125 56.8173 32.2567 56.6841C41.0009 56.5509 47.3568 57.6165 54.908 56.2846C62.4591 54.9526 68.6849 54.0182 72.659 53.2148C76.633 52.4114 80.7394 50.0161 80.0778 46.4157C79.4161 42.8153 16.0957 48.1662 16.0957 48.1662Z" fill="#FFEDC4"/>
<path d="M19.7044 43.3164C19.7044 43.3164 16.1336 43.8513 15.995 47.3164C15.8564 50.7814 22.6199 53.8491 30.0366 54.3839C37.4533 54.9188 44.0802 55.0499 52.0283 54.2508C59.9765 53.4516 67.5255 52.9167 73.4866 50.7836C79.4477 48.6504 82.3632 45.1832 77.593 44.9168C72.8229 44.6504 19.7044 43.3164 19.7044 43.3164Z" fill="#E2802C"/>
<path d="M16.7909 40.384C16.7909 40.384 15.8961 41.4834 17.2866 44.4834C18.6771 47.4833 23.8443 48.9844 26.0308 49.6842C28.2174 50.3839 34.9725 51.4833 38.747 52.7835C42.5215 54.0837 46.1994 53.4833 49.3774 52.9843C52.5554 52.4854 58.2203 51.293 61.0013 50.9844C63.7824 50.6757 71.0373 50.2846 76.2024 46.5848C81.3674 42.8851 81.1699 39.6843 80.8675 38.2847C80.565 36.8851 16.7909 40.384 16.7909 40.384Z" fill="#FFEDC4"/>
<path d="M18.7782 35.1833C18.7782 35.1833 15.2074 38.7773 17.3205 43.4496C19.4335 48.1218 26.1949 47.718 32.4228 49.9844C38.6506 52.2507 48.9807 51.312 54.9418 50.255C60.9029 49.1979 66.467 50.5214 74.6861 45.7223C82.9051 40.9232 81.5734 35.9972 78.5278 35.9972C75.4821 35.9972 18.7782 35.1833 18.7782 35.1833Z" fill="url(#paint4_radial_1608_2049)"/>
<path d="M15.8962 34.585C15.8962 34.585 15.201 36.585 16.6902 37.9845C18.1794 39.3841 24.6383 41.883 27.6126 43.4813C30.5868 45.0796 39.9339 47.4812 50.0665 46.0817C60.1991 44.6821 65.6645 44.0817 68.5505 43.7815C71.4365 43.4813 75.6038 42.8809 78.4856 40.6822C79.5593 39.8687 80.4508 38.8369 81.1021 37.6538C81.7535 36.4708 82.1502 35.163 82.2665 33.8154C82.3652 32.215 72.827 32.9148 72.827 32.9148L15.9046 34.5829" fill="#FFEDC4"/>
<path d="M22.7522 27.3166C22.7522 27.3166 16.1274 27.9846 15.8627 33.1833C15.5981 38.382 21.9541 38.9169 26.4616 40.9168C30.9692 42.9168 42.8872 44.7836 49.2453 44.2508C55.6034 43.7181 62.2282 41.9845 68.9896 41.7139C75.751 41.4433 78.1308 37.5807 80.2501 36.2467C82.3695 34.9127 83.2958 33.1791 80.3825 31.0459C77.4691 28.9127 22.7522 27.3166 22.7522 27.3166Z" fill="url(#paint5_radial_1608_2049)"/>
<path d="M16.2282 69.4937C16.2282 69.4937 15.2998 67.2273 18.0829 66.9567C20.866 66.6861 22.7186 68.0138 24.9703 68.2907C27.222 68.5677 32.3891 69.889 35.5671 70.2231C38.7451 70.5571 47.357 71.3562 47.357 71.3562C47.357 71.3562 48.947 72.5571 45.2376 72.9566C41.5282 73.3562 30.1374 73.889 29.3413 75.7558C28.5453 77.6225 30.0051 79.0898 30.9314 79.4893C31.8577 79.8889 37.4218 80.4893 39.5433 80.6225C41.6647 80.7557 50.2745 80.4238 54.6455 79.354C59.0166 78.2843 65.11 76.5549 67.0971 76.2885C67.0971 76.2885 60.8713 78.2885 57.958 79.4872C55.0446 80.6859 47.4914 83.354 41.1333 82.9544C34.7752 82.5548 30.6667 81.7557 27.096 81.483C23.5252 81.2102 15.9362 79.5232 11.8613 77.8889C7.88727 76.2906 6.167 74.4239 7.22563 72.815C8.28426 71.2061 11.9958 72.815 12.1281 71.6142C12.2604 70.4133 14.1508 70.7114 14.5121 73.0158C14.7096 74.2843 16.8961 77.4809 27.2283 79.0813C27.2283 79.0813 28.1567 78.5485 27.892 77.0813C27.6274 75.6141 26.5666 76.149 22.7249 74.815C18.8832 73.4809 17.0138 72.2843 16.2282 69.4937Z" fill="#914004"/>
<path d="M41.795 17.4837C44.3923 17.4837 46.4979 17.1259 46.4979 16.6845C46.4979 16.2432 44.3923 15.8854 41.795 15.8854C39.1976 15.8854 37.092 16.2432 37.092 16.6845C37.092 17.1259 39.1976 17.4837 41.795 17.4837Z" fill="#6C3200"/>
<path opacity="0.18" d="M30.4021 39.8344C30.7004 39.9168 38.1507 42.8174 47.3906 41.9168C56.6305 41.0162 61.4006 38.4179 63.3877 38.2171C65.3747 38.0162 73.619 35.2171 75.8056 34.7182C77.9922 34.2192 80.9727 32.3165 79.2839 30.6167C77.5952 28.917 30.4021 39.8344 30.4021 39.8344Z" fill="black"/>
<path d="M16.3438 31.418C16.3438 31.418 16.4929 33.0332 17.0894 33.4835C17.6859 33.9338 17.0894 34.2847 18.0325 34.9338C18.9756 35.5828 25.1867 38.5278 30.4021 39.8344C35.6175 41.1409 41.5786 41.9845 49.0794 40.6335C56.5801 39.2826 59.5123 37.8344 63.436 36.7837C67.3596 35.7329 72.5772 33.9845 75.459 33.2848C78.3408 32.585 78.7357 31.733 79.0844 31.1347C79.4331 30.5364 79.5318 29.1833 78.9857 28.8831C78.4395 28.5829 71.5837 30.9846 71.5837 30.9846L45.1053 32.5342L16.3438 31.418Z" fill="#FFEDC4"/>
<path d="M18.274 25.7838C18.274 25.7838 16.7848 26.4836 16.3836 29.1834C15.9824 31.8831 16.4824 32.9888 19.1646 33.8831C21.8469 34.7774 26.8145 37.6885 33.4709 38.7837C40.1272 39.8788 45.9896 39.1832 55.1308 37.2847C64.2719 35.3862 71.2245 32.2848 74.4046 31.6844C77.5846 31.084 79.5696 29.5829 78.8743 28.5829C78.1791 27.5829 72.9132 27.5829 72.9132 27.5829L18.274 25.7838Z" fill="url(#paint6_radial_1608_2049)"/>
<path d="M20.616 27.9677C20.616 27.9677 15.9635 29.2172 16.3605 31.2277C16.7574 33.2383 22.3216 35.0945 23.3802 35.4941C24.4388 35.8936 24.7056 37.8936 23.7793 37.8936C22.853 37.8936 20.0699 36.5617 19.9375 37.7604C19.8052 38.9591 24.506 39.828 26.4616 40.9316C28.4171 42.0352 29.8727 44.2995 28.2827 44.1663C26.6926 44.0331 20.847 43.365 21.5087 45.6314C22.1703 47.8977 25.3672 47.2318 29.3413 49.0986C33.3153 50.9653 30.005 51.6355 27.6189 51.0985C23.7961 50.2529 21.2608 52.8321 26.6926 53.7645C32.1244 54.6968 33.1872 55.2169 32.6537 56.8088C32.1202 58.4008 26.8249 58.0097 25.2349 58.6756C23.6448 59.3416 23.7793 61.7411 27.6189 62.942C31.4585 64.1428 32.9184 62.4092 35.4347 63.4747C37.9511 64.5403 41.3958 64.8088 42.5889 62.942C43.7819 61.0752 39.2764 59.0752 37.4217 58.1429C35.567 57.2105 32.9184 56.5425 34.6407 55.3416C36.3631 54.1408 39.0118 55.3416 38.8795 53.8744C38.7471 52.4072 34.6407 52.5425 33.58 51.4749C32.5193 50.4072 32.9184 49.0753 36.4954 49.3417C40.0725 49.6081 40.7489 47.7328 38.4993 46.661C36.2497 45.5891 32.2567 45.7434 31.3283 44.6779C30.3999 43.6124 29.3413 41.2107 30.9313 41.2107C32.5214 41.2107 34.8235 43.42 35.6679 42.1599C36.3253 41.1811 32.1244 40.3101 30.402 39.8344C28.6796 39.3587 25.8062 38.3925 25.8062 38.3925C25.8062 38.3925 24.3086 37.6167 25.4995 35.4835C26.6905 33.3503 30.1374 35.6167 34.1114 34.1516C38.0855 32.6865 34.2374 29.843 29.6164 29.4413C26.5865 29.1566 23.5794 28.6642 20.616 27.9677V27.9677Z" fill="#914004"/>
<path opacity="0.18" d="M17.3875 26.4181L16.6902 27.8176C16.6902 27.8176 20.471 30.8176 30.1037 30.7182C39.7364 30.6189 42.3242 31.2172 44.9077 30.2172C47.4913 29.2172 55.7356 30.0058 57.5252 30.0058C59.3148 30.0058 68.4475 29.4075 71.3357 28.4075C74.2238 27.4075 17.3875 26.4181 17.3875 26.4181Z" fill="black"/>
<path d="M13.8104 18.9847C13.8114 19.3765 13.8782 19.7654 14.0078 20.1348C14.2179 20.583 13.6108 21.2849 13.6108 22.435C13.6108 23.5851 14.7031 25.1834 18.5784 27.1347C22.4538 29.0861 28.2153 29.4835 35.4682 29.733C42.7211 29.9825 40.9294 29.1833 50.8687 28.8345C60.8081 28.4857 58.1699 29.9846 68.7016 28.7838C79.2333 27.5829 79.4329 26.0354 79.6807 25.6337C79.9286 25.232 80.2373 23.6844 80.0273 23.194C79.8172 22.7035 75.9041 21.9952 75.9041 21.9952L13.8104 18.9847Z" fill="#FFEDC4"/>
<path d="M14.6045 20.657C14.6045 20.657 14.9363 20.2574 14.1403 19.5999C13.3442 18.9424 14.0079 17.2004 16.3941 15.4013C18.7802 13.6021 28.5767 9.53452 45.4035 10.2681C62.2302 11.0017 74.0831 16.7184 76.2025 18.2511C78.3218 19.7839 79.9119 20.9847 79.8468 22.6507C79.8468 22.6507 80.6407 23.8515 78.389 24.1179C76.1374 24.3843 72.1633 25.0502 68.4539 25.583C64.7445 26.1157 54.3451 26.64 48.3189 26.1178C42.2927 25.5957 37.5226 27.1178 29.2426 26.3842C20.9626 25.6506 16.2449 24.6549 14.6045 22.6507C13.6782 21.5175 14.6045 20.657 14.6045 20.657Z" fill="url(#paint7_linear_1608_2049)"/>
<path d="M40.3287 14.6169C40.3287 14.6169 30.6918 14.5176 31.4858 16.3928C32.2797 18.268 35.3611 16.8854 36.5521 19.2532C37.743 21.6211 28.7047 20.7331 25.4196 20.6338C22.1345 20.5344 19.8702 22.7183 20.6894 24.8176C21.7837 27.6189 23.4809 27.1643 22.3215 28.4117C22.2059 28.5364 23.2478 28.6781 23.2478 28.6781C23.2478 28.6781 23.7939 28.3356 23.149 26.6422C22.3971 24.6739 26.7198 23.8811 30.5994 24.473C34.4789 25.065 46.3969 25.1644 49.974 25.361C53.551 25.5576 58.6173 25.9529 59.7096 24.6697C60.8018 23.3864 57.0273 24.2828 57.4264 22.4075C57.8255 20.5323 62.2931 21.9149 67.6577 21.2257C73.0223 20.5365 70.7391 17.674 67.6577 16.8854C64.5763 16.0968 71.6318 16.1941 75.0093 17.7733C78.3868 19.3526 76.3011 16.5894 72.327 15.3061C68.353 14.0228 59.2118 14.7163 53.2507 15.1095C47.2896 15.5027 45.6029 14.7163 40.3287 14.6169Z" fill="#914004"/>
<path opacity="0.18" d="M78.4878 40.6843C75.6059 42.883 71.4344 43.4834 68.5526 43.7836C65.6708 44.0838 60.2075 44.6842 50.0686 46.0838C39.9297 47.4833 30.5953 45.0838 27.6147 43.4834C24.9093 42.031 19.3347 39.8365 17.2175 38.3968L16.9843 38.4179C16.9843 38.4179 16.7869 38.9507 16.7869 40.3841C16.7869 41.8174 21.5549 42.4179 24.3485 43.6166C27.1421 44.8153 33.7859 46.9506 38.7534 47.4833C43.721 48.0161 50.9739 47.6165 55.2462 46.9168C59.5185 46.217 67.2671 44.8174 69.355 45.014C71.4428 45.2106 80.8781 43.957 80.8781 38.2826C80.8774 38.2175 80.8682 38.1529 80.8508 38.0902C80.2274 39.0931 79.4265 39.9723 78.4878 40.6843V40.6843Z" fill="black"/>
<path opacity="0.18" d="M26.0309 49.6842C23.8443 48.9844 18.6793 47.4834 17.2867 44.4834C17.2867 44.4834 16.4927 44.9168 16.0957 46.217C16.0957 46.217 19.2737 49.0182 22.5525 49.811C25.8313 50.6038 28.6123 51.7138 30.8976 51.0119C30.942 51.0033 30.9839 50.9847 31.0203 50.9577C31.0566 50.9306 31.0865 50.8956 31.1077 50.8554C28.9484 50.4009 27.0202 50.0013 26.0309 49.6842Z" fill="black"/>
<path d="M27.5161 20.5682C27.516 20.6977 27.4776 20.8243 27.4057 20.9317C27.3339 21.0391 27.2318 21.1225 27.1126 21.1713C26.9934 21.22 26.8625 21.2319 26.7366 21.2053C26.6107 21.1788 26.4954 21.1151 26.4057 21.0223C26.3159 20.9296 26.2557 20.812 26.2326 20.6846C26.2096 20.5572 26.2248 20.4257 26.2764 20.3071C26.3279 20.1884 26.4135 20.088 26.522 20.0185C26.6306 19.949 26.7573 19.9137 26.8859 19.9171C27.0547 19.9209 27.2153 19.9913 27.3331 20.1131C27.451 20.2348 27.5166 20.3982 27.5161 20.5682V20.5682Z" fill="#D72F5D"/>
<path d="M32.2903 22.8663C32.6465 22.8663 32.9352 22.5757 32.9352 22.2172C32.9352 21.8588 32.6465 21.5682 32.2903 21.5682C31.9342 21.5682 31.6455 21.8588 31.6455 22.2172C31.6455 22.5757 31.9342 22.8663 32.2903 22.8663Z" fill="#F6605D"/>
<path d="M34.4264 21.0164C34.4269 21.1453 34.3893 21.2714 34.3184 21.3787C34.2476 21.4861 34.1467 21.5699 34.0285 21.6195C33.9104 21.6691 33.7802 21.6823 33.6546 21.6574C33.529 21.6325 33.4135 21.5707 33.3228 21.4797C33.2321 21.3887 33.1703 21.2727 33.1452 21.1463C33.12 21.02 33.1327 20.8889 33.1816 20.7698C33.2305 20.6507 33.3134 20.5489 33.4199 20.4773C33.5263 20.4056 33.6515 20.3674 33.7795 20.3674C33.9507 20.3674 34.115 20.4357 34.2362 20.5573C34.3575 20.679 34.4259 20.8441 34.4264 21.0164V21.0164Z" fill="#D72F5D"/>
<path d="M68.3048 20.2173C68.6609 20.2173 68.9496 19.9267 68.9496 19.5682C68.9496 19.2098 68.6609 18.9192 68.3048 18.9192C67.9486 18.9192 67.6599 19.2098 67.6599 19.5682C67.6599 19.9267 67.9486 20.2173 68.3048 20.2173Z" fill="#D72F5D"/>
<path d="M72.6758 16.1835C73.032 16.1835 73.3207 15.8929 73.3207 15.5344C73.3207 15.176 73.032 14.8854 72.6758 14.8854C72.3197 14.8854 72.031 15.176 72.031 15.5344C72.031 15.8929 72.3197 16.1835 72.6758 16.1835Z" fill="#D72F5D"/>
<path d="M31.5931 33.6653C31.9492 33.6653 32.2379 33.3747 32.2379 33.0163C32.2379 32.6578 31.9492 32.3672 31.5931 32.3672C31.2369 32.3672 30.9482 32.6578 30.9482 33.0163C30.9482 33.3747 31.2369 33.6653 31.5931 33.6653Z" fill="#D72F5D"/>
<path d="M24.8884 71.3668C24.8888 71.4957 24.8512 71.6218 24.7804 71.7292C24.7095 71.8365 24.6086 71.9203 24.4905 71.9699C24.3723 72.0195 24.2421 72.0327 24.1165 72.0078C23.9909 71.9829 23.8754 71.9211 23.7847 71.8301C23.694 71.7391 23.6322 71.6231 23.6071 71.4967C23.5819 71.3704 23.5946 71.2393 23.6435 71.1202C23.6924 71.0011 23.7753 70.8993 23.8818 70.8277C23.9882 70.756 24.1134 70.7178 24.2414 70.7178C24.4126 70.7178 24.5769 70.7861 24.6981 70.9077C24.8194 71.0294 24.8878 71.1945 24.8884 71.3668V71.3668Z" fill="#D72F5D"/>
<path d="M41.7276 23.0671C42.0837 23.0671 42.3724 22.7765 42.3724 22.4181C42.3724 22.0596 42.0837 21.769 41.7276 21.769C41.3715 21.769 41.0828 22.0596 41.0828 22.4181C41.0828 22.7765 41.3715 23.0671 41.7276 23.0671Z" fill="#F6605D"/>
<path d="M34.2375 71.8678C34.2375 71.9966 34.1995 72.1225 34.1285 72.2296C34.0574 72.3367 33.9563 72.4201 33.8381 72.4694C33.7199 72.5187 33.5898 72.5316 33.4643 72.5065C33.3388 72.4814 33.2236 72.4193 33.1331 72.3283C33.0426 72.2372 32.981 72.1212 32.956 71.9949C32.9311 71.8686 32.9439 71.7376 32.9928 71.6186C33.0418 71.4997 33.1247 71.398 33.2311 71.3264C33.3375 71.2549 33.4626 71.2167 33.5905 71.2167C33.7621 71.2167 33.9267 71.2853 34.048 71.4074C34.1693 71.5295 34.2375 71.6951 34.2375 71.8678V71.8678Z" fill="#F6605D"/>
<path d="M35.17 61.4663C35.5261 61.4663 35.8148 61.1757 35.8148 60.8173C35.8148 60.4588 35.5261 60.1682 35.17 60.1682C34.8139 60.1682 34.5251 60.4588 34.5251 60.8173C34.5251 61.1757 34.8139 61.4663 35.17 61.4663Z" fill="#F6605D"/>
<path d="M28.2154 47.5172C28.5715 47.5172 28.8602 47.2266 28.8602 46.8682C28.8602 46.5097 28.5715 46.2191 28.2154 46.2191C27.8593 46.2191 27.5706 46.5097 27.5706 46.8682C27.5706 47.2266 27.8593 47.5172 28.2154 47.5172Z" fill="#F6605D"/>
<path d="M58.7667 24.3166C59.1228 24.3166 59.4115 24.026 59.4115 23.6675C59.4115 23.3091 59.1228 23.0185 58.7667 23.0185C58.4105 23.0185 58.1218 23.3091 58.1218 23.6675C58.1218 24.026 58.4105 24.3166 58.7667 24.3166Z" fill="#F6605D"/>
<path d="M18.8768 31.8662C19.2329 31.8662 19.5216 31.5756 19.5216 31.2172C19.5216 30.8587 19.2329 30.5681 18.8768 30.5681C18.5206 30.5681 18.2319 30.8587 18.2319 31.2172C18.2319 31.5756 18.5206 31.8662 18.8768 31.8662Z" fill="#F6605D"/>
<path d="M35.2204 14.9171C35.2208 15.046 35.1832 15.1721 35.1124 15.2794C35.0415 15.3868 34.9407 15.4706 34.8225 15.5202C34.7043 15.5698 34.5742 15.583 34.4485 15.5581C34.3229 15.5332 34.2074 15.4714 34.1167 15.3804C34.0261 15.2894 33.9642 15.1734 33.9391 15.047C33.914 14.9207 33.9267 14.7896 33.9756 14.6705C34.0245 14.5514 34.1074 14.4496 34.2138 14.378C34.3202 14.3063 34.4454 14.2681 34.5734 14.2681C34.7447 14.2681 34.9089 14.3364 35.0302 14.458C35.1514 14.5797 35.2198 14.7448 35.2204 14.9171V14.9171Z" fill="#F6605D"/>
<path d="M66.4752 18.2638C66.5451 18.3346 66.5927 18.4246 66.6118 18.5225C66.6309 18.6205 66.6208 18.7219 66.5827 18.8141C66.5446 18.9062 66.4803 18.9849 66.3978 19.0403C66.3153 19.0957 66.2184 19.1253 66.1192 19.1253C66.02 19.1253 65.9231 19.0957 65.8406 19.0403C65.7581 18.9849 65.6938 18.9062 65.6557 18.8141C65.6176 18.7219 65.6075 18.6205 65.6266 18.5225C65.6457 18.4246 65.6933 18.3346 65.7632 18.2638C65.8577 18.1689 65.9857 18.1156 66.1192 18.1156C66.2527 18.1156 66.3807 18.1689 66.4752 18.2638V18.2638Z" fill="#F6605D"/>
<path d="M69.231 15.2596C69.5083 15.2596 69.733 15.0334 69.733 14.7543C69.733 14.4752 69.5083 14.249 69.231 14.249C68.9538 14.249 68.729 14.4752 68.729 14.7543C68.729 15.0334 68.9538 15.2596 69.231 15.2596Z" fill="#F6605D"/>
<path d="M37.008 21.0925C37.008 21.1665 36.9862 21.2389 36.9453 21.3004C36.9045 21.362 36.8464 21.4099 36.7785 21.4382C36.7105 21.4666 36.6358 21.474 36.5637 21.4595C36.4915 21.4451 36.4253 21.4095 36.3733 21.3571C36.3213 21.3048 36.2859 21.2381 36.2715 21.1655C36.2572 21.0929 36.2646 21.0177 36.2927 20.9493C36.3208 20.8809 36.3685 20.8225 36.4296 20.7814C36.4908 20.7403 36.5627 20.7183 36.6362 20.7183C36.7348 20.7183 36.8294 20.7577 36.8991 20.8279C36.9688 20.8981 37.008 20.9933 37.008 21.0925Z" fill="#F6605D"/>
<path d="M39.518 24.342C39.5184 24.4165 39.4969 24.4895 39.456 24.5516C39.4152 24.6138 39.357 24.6623 39.2887 24.6911C39.2204 24.72 39.1452 24.7277 39.0725 24.7134C38.9998 24.6992 38.933 24.6635 38.8805 24.6109C38.828 24.5584 38.7922 24.4913 38.7776 24.4183C38.763 24.3452 38.7703 24.2695 38.7985 24.2006C38.8268 24.1317 38.8747 24.0728 38.9362 24.0313C38.9977 23.9899 39.0701 23.9678 39.1441 23.9678C39.2429 23.9678 39.3377 24.0071 39.4078 24.0772C39.4778 24.1474 39.5175 24.2425 39.518 24.342V24.342Z" fill="#F6605D"/>
<path d="M22.4538 33.0163C22.4542 33.0908 22.4327 33.1637 22.3918 33.2259C22.351 33.2881 22.2928 33.3366 22.2245 33.3654C22.1562 33.3942 22.0809 33.402 22.0083 33.3877C21.9356 33.3734 21.8688 33.3378 21.8163 33.2852C21.7638 33.2327 21.728 33.1656 21.7134 33.0926C21.6988 33.0195 21.7061 32.9437 21.7343 32.8749C21.7625 32.806 21.8105 32.7471 21.872 32.7056C21.9335 32.6642 22.0059 32.6421 22.0799 32.6421C22.1787 32.6421 22.2735 32.6814 22.3436 32.7515C22.4136 32.8216 22.4533 32.9168 22.4538 33.0163V33.0163Z" fill="#F6605D"/>
<path d="M25.8061 45.8428C25.8061 45.9173 25.7841 45.9901 25.743 46.0521C25.7018 46.114 25.6433 46.1622 25.5748 46.1907C25.5064 46.2191 25.4311 46.2264 25.3585 46.2117C25.2859 46.197 25.2193 46.161 25.1671 46.1081C25.1149 46.0553 25.0795 45.988 25.0653 45.9149C25.0511 45.8418 25.0588 45.766 25.0874 45.6973C25.116 45.6286 25.1643 45.57 25.226 45.5289C25.2878 45.4878 25.3603 45.466 25.4343 45.4665C25.4833 45.4665 25.5318 45.4762 25.5771 45.4952C25.6223 45.5141 25.6634 45.5418 25.698 45.5768C25.7325 45.6118 25.7599 45.6533 25.7784 45.6989C25.797 45.7446 25.8064 45.7935 25.8061 45.8428V45.8428Z" fill="#F6605D"/>
<path d="M34.2522 32.5174C34.2526 32.5919 34.231 32.6648 34.1902 32.727C34.1493 32.7892 34.0911 32.8377 34.0228 32.8665C33.9545 32.8953 33.8793 32.9031 33.8066 32.8888C33.734 32.8745 33.6671 32.8389 33.6146 32.7863C33.5621 32.7338 33.5263 32.6667 33.5117 32.5937C33.4971 32.5206 33.5044 32.4448 33.5327 32.376C33.5609 32.3071 33.6088 32.2482 33.6703 32.2067C33.7319 32.1653 33.8042 32.1432 33.8783 32.1432C33.9771 32.1432 34.0718 32.1825 34.1419 32.2526C34.212 32.3227 34.2516 32.4179 34.2522 32.5174Z" fill="#F6605D"/>
<path d="M56.7543 23.4181C56.7539 23.492 56.7317 23.5642 56.6906 23.6254C56.6495 23.6867 56.5913 23.7343 56.5233 23.7623C56.4554 23.7903 56.3807 23.7974 56.3087 23.7827C56.2367 23.7681 56.1707 23.7323 56.1189 23.6798C56.0671 23.6274 56.0319 23.5607 56.0177 23.4882C56.0036 23.4157 56.011 23.3405 56.0392 23.2723C56.0674 23.204 56.1151 23.1457 56.1762 23.1047C56.2373 23.0637 56.3091 23.0418 56.3825 23.0418C56.4315 23.0418 56.48 23.0515 56.5253 23.0705C56.5705 23.0894 56.6116 23.1172 56.6461 23.1521C56.6807 23.1871 56.708 23.2286 56.7266 23.2742C56.7452 23.3199 56.7546 23.3688 56.7543 23.4181Z" fill="#F6605D"/>
<path d="M24.4157 22.0418C24.4161 22.1164 24.3945 22.1894 24.3536 22.2516C24.3127 22.3139 24.2543 22.3624 24.1859 22.3912C24.1175 22.4199 24.0421 22.4275 23.9694 22.4131C23.8967 22.3986 23.8299 22.3627 23.7775 22.31C23.7251 22.2572 23.6894 22.19 23.6751 22.1168C23.6607 22.0436 23.6683 21.9678 23.6968 21.8989C23.7254 21.8301 23.7736 21.7713 23.8354 21.7301C23.8972 21.6889 23.9698 21.6672 24.0439 21.6676C24.1424 21.6681 24.2366 21.7077 24.3062 21.7778C24.3758 21.8479 24.4152 21.9427 24.4157 22.0418V22.0418Z" fill="#F6605D"/>
<path d="M33.8552 16.0418C33.8556 16.1164 33.834 16.1893 33.7932 16.2515C33.7524 16.3136 33.6941 16.3622 33.6258 16.391C33.5576 16.4198 33.4823 16.4276 33.4097 16.4133C33.337 16.399 33.2702 16.3633 33.2177 16.3108C33.1652 16.2583 33.1294 16.1912 33.1148 16.1181C33.1002 16.0451 33.1074 15.9693 33.1357 15.9004C33.1639 15.8315 33.2118 15.7726 33.2734 15.7312C33.3349 15.6898 33.4073 15.6676 33.4813 15.6676C33.5801 15.6676 33.6749 15.707 33.7449 15.7771C33.815 15.8472 33.8546 15.9424 33.8552 16.0418V16.0418Z" fill="#F6605D"/>
<path d="M39.791 19.2173C39.7914 19.2918 39.7698 19.3648 39.729 19.4269C39.6882 19.4891 39.6299 19.5377 39.5616 19.5665C39.4933 19.5953 39.4181 19.603 39.3454 19.5887C39.2728 19.5745 39.206 19.5388 39.1535 19.4862C39.101 19.4337 39.0651 19.3666 39.0506 19.2936C39.036 19.2205 39.0432 19.1448 39.0715 19.0759C39.0997 19.007 39.1476 18.9481 39.2092 18.9066C39.2707 18.8652 39.3431 18.8431 39.4171 18.8431C39.5159 18.8431 39.6107 18.8824 39.6807 18.9526C39.7508 19.0227 39.7904 19.1178 39.791 19.2173V19.2173Z" fill="#F6605D"/>
<path d="M29.3833 73.2421C29.3837 73.3167 29.362 73.3897 29.3211 73.4519C29.2802 73.5141 29.2218 73.5627 29.1534 73.5915C29.085 73.6202 29.0097 73.6278 28.937 73.6134C28.8642 73.5989 28.7974 73.563 28.745 73.5103C28.6926 73.4575 28.6569 73.3903 28.6426 73.3171C28.6282 73.2439 28.6358 73.168 28.6644 73.0992C28.6929 73.0303 28.7412 72.9716 28.803 72.9304C28.8648 72.8892 28.9374 72.8674 29.0115 72.8679C29.1101 72.8679 29.2046 72.9073 29.2744 72.9775C29.3441 73.0476 29.3833 73.1428 29.3833 73.2421Z" fill="#F6605D"/>
<path d="M71.3442 14.9488C71.3446 15.0233 71.323 15.0963 71.2822 15.1585C71.2414 15.2206 71.1831 15.2692 71.1149 15.298C71.0466 15.3268 70.9713 15.3346 70.8987 15.3203C70.826 15.306 70.7592 15.2703 70.7067 15.2178C70.6542 15.1652 70.6184 15.0982 70.6038 15.0251C70.5892 14.9521 70.5965 14.8763 70.6247 14.8074C70.6529 14.7385 70.7008 14.6796 70.7624 14.6382C70.8239 14.5967 70.8963 14.5746 70.9703 14.5746C71.0691 14.5746 71.1639 14.614 71.2339 14.6841C71.304 14.7542 71.3436 14.8494 71.3442 14.9488V14.9488Z" fill="#F6605D"/>
<path d="M65.82 20.5175C65.82 20.5915 65.7982 20.6638 65.7573 20.7254C65.7165 20.7869 65.6584 20.8349 65.5905 20.8632C65.5225 20.8915 65.4478 20.8989 65.3757 20.8845C65.3035 20.8701 65.2373 20.8344 65.1853 20.7821C65.1333 20.7297 65.0979 20.6631 65.0836 20.5905C65.0692 20.5179 65.0766 20.4427 65.1047 20.3743C65.1329 20.3059 65.1805 20.2475 65.2416 20.2063C65.3028 20.1652 65.3747 20.1433 65.4482 20.1433C65.5468 20.1433 65.6414 20.1827 65.7111 20.2529C65.7808 20.3231 65.82 20.4182 65.82 20.5175Z" fill="#F6605D"/>
<path opacity="0.19" d="M78.7524 78.5169C78.7524 78.9946 76.6519 79.3836 74.0495 79.3836C71.447 79.3836 69.3486 78.9946 69.3486 78.5169C69.3486 78.0391 71.4491 77.6501 74.0495 77.6501C76.6498 77.6501 78.7524 78.0391 78.7524 78.5169Z" fill="black"/>
<path opacity="0.19" d="M57.292 83.5168C57.292 83.9946 55.1916 84.3836 52.5912 84.3836C49.9908 84.3836 47.8904 83.9946 47.8904 83.5168C47.8904 83.039 49.9908 82.65 52.5933 82.65C55.1958 82.65 57.292 83.039 57.292 83.5168Z" fill="black"/>
<path opacity="0.19" d="M47.1595 83.7176C47.1595 84.1954 45.0591 84.5844 42.4566 84.5844C39.8541 84.5844 37.7537 84.1954 37.7537 83.7176C37.7537 83.2398 39.8541 82.8508 42.4566 82.8508C45.0591 82.8508 47.1595 83.2356 47.1595 83.7176Z" fill="black"/>
<path d="M25.2853 61.7665C25.7078 62.2046 26.1936 62.5759 26.7262 62.868C27.5664 63.3162 27.4215 64.9673 27.1736 65.9673C26.9258 66.9673 25.8314 67.0667 24.4913 67.0244C23.1512 66.9821 18.19 66.424 16.9402 67.2738C15.6904 68.1237 26.5267 71.574 26.5267 71.574L33.433 69.9165C33.433 69.9165 29.7068 69.1174 29.1607 67.517C28.6145 65.9166 28.6628 65.166 29.0115 64.517C29.3602 63.868 30.402 63.3162 31.3955 63.3162C32.3891 63.3162 25.2853 61.7665 25.2853 61.7665Z" fill="#914004"/>
<path d="M72.3943 71.3161C72.3943 71.3161 73.1567 70.851 73.4214 70.8171C73.6861 70.7833 74.1167 71.5169 74.1167 71.5169C74.1907 71.2843 74.2908 71.0609 74.4149 70.851C74.6124 70.5169 75.3412 71.3837 75.3412 71.3837C75.3412 71.3837 75.4084 70.7495 75.5072 70.7178C75.6059 70.6861 76.4356 71.5169 76.4356 71.5169L75.6395 72.5507C75.6395 72.5507 73.0895 72.7495 72.9572 72.6501C72.8249 72.5507 72.3943 71.3161 72.3943 71.3161Z" fill="#343057"/>
<path d="M72.6212 70.9863C72.6212 70.9863 68.3194 71.6205 69.5314 75.7389C70.7434 79.8572 76.883 79.2695 78.3869 77.5042C79.8908 75.7389 80.7667 72.6691 76.173 71.1131C76.0405 71.2018 75.9301 71.32 75.8503 71.4586C75.7705 71.5972 75.7235 71.7524 75.713 71.9123C75.4841 71.6398 75.1969 71.4229 74.8729 71.278C74.5929 71.49 74.3645 71.7633 74.2049 72.0772C74.2049 72.0772 74.3309 71.6142 73.537 71.2315C73.537 71.2315 72.9509 71.4429 72.785 71.8658L72.6212 70.9863Z" fill="#605A8F"/>
<path opacity="0.45" d="M77.1624 75.6839C75.9484 78.5464 72.2999 78.2737 70.4683 77.3752C72.6107 79.6268 77.1267 78.9756 78.387 77.4957C79.8573 75.7579 80.7353 72.76 76.3831 71.1808L76.3684 71.2421L76.1731 71.1047C76.1731 71.1047 78.4227 72.7178 77.1624 75.6839Z" fill="#343057"/>
<path opacity="0.16" d="M70.3421 73.722C70.3421 73.722 70.59 72.8213 71.2853 72.5211C71.45 72.4404 71.6321 72.4022 71.8152 72.4098C71.9983 72.4174 72.1767 72.4706 72.3343 72.5647C72.4919 72.6588 72.6238 72.7908 72.7183 72.9489C72.8127 73.1069 72.8667 73.2861 72.8753 73.4704C72.974 74.371 72.7745 75.2209 72.0792 75.872C71.384 76.5232 69.6952 75.7663 70.3421 73.722Z" fill="#E0E6FF"/>
<path opacity="0.19" d="M41.7278 17.9171C43.5386 17.9171 45.0066 17.6265 45.0066 17.268C45.0066 16.9096 43.5386 16.619 41.7278 16.619C39.9169 16.619 38.449 16.9096 38.449 17.268C38.449 17.6265 39.9169 17.9171 41.7278 17.9171Z" fill="black"/>
<path opacity="0.19" d="M66.3745 15.9678C66.3745 16.3272 64.9042 16.6169 63.0957 16.6169C61.2872 16.6169 59.8169 16.3272 59.8169 15.9678C59.8169 15.6084 61.2872 15.3167 63.0957 15.3167C64.9042 15.3167 66.3745 15.6084 66.3745 15.9678Z" fill="black"/>
<path opacity="0.19" d="M50.7198 24.8155C52.9424 24.8155 54.7443 24.4577 54.7443 24.0164C54.7443 23.575 52.9424 23.2172 50.7198 23.2172C48.4971 23.2172 46.6953 23.575 46.6953 24.0164C46.6953 24.4577 48.4971 24.8155 50.7198 24.8155Z" fill="black"/>
<path opacity="0.19" d="M26.0792 15.7162C28.3018 15.7162 30.1036 15.3585 30.1036 14.9171C30.1036 14.4757 28.3018 14.118 26.0792 14.118C23.8565 14.118 22.0547 14.4757 22.0547 14.9171C22.0547 15.3585 23.8565 15.7162 26.0792 15.7162Z" fill="black"/>
<path opacity="0.19" d="M54.0468 15.6169C55.7474 15.6169 57.1261 15.4825 57.1261 15.3167C57.1261 15.1509 55.7474 15.0165 54.0468 15.0165C52.3462 15.0165 50.9675 15.1509 50.9675 15.3167C50.9675 15.4825 52.3462 15.6169 54.0468 15.6169Z" fill="black"/>
<path d="M40.5389 9.18356C40.5389 9.18356 39.8289 9.1011 39.663 9.1011C39.497 9.1011 39.5958 10.0165 39.5958 10.0165C39.2849 9.95288 38.9696 9.914 38.6527 9.90025C38.5203 9.93408 38.4699 10.9002 38.4699 10.9002C38.1194 10.8118 37.806 10.6134 37.5751 10.3336C37.5713 10.7575 37.5938 11.1811 37.6423 11.6021C37.7075 11.9193 38.9677 12.0355 39.0496 11.97C39.1316 11.9045 41.1501 10.2787 41.1501 10.2364C41.1501 10.1941 40.5389 9.18356 40.5389 9.18356Z" fill="#343057"/>
<path d="M37.5708 10.3337C37.5708 10.3337 37.6212 11.0842 36.8755 12.3336C36.1298 13.5831 36.279 15.7332 38.0182 16.934C39.7573 18.1348 43.3344 17.5831 45.1723 15.5345C47.0102 13.4858 46.2225 10.5831 44.6262 9.58314C43.0298 8.58315 41.1478 9.33367 40.4526 8.88336C40.3575 9.16393 40.2962 9.45493 40.2698 9.75016C40.2698 10.0673 39.7405 9.8009 39.3267 9.8009C39.2225 10.1157 39.1452 10.439 39.0957 10.7671C39.0789 11.0673 38.3836 10.6339 38.1841 10.6C37.9845 10.5662 38.1505 10.8516 37.9362 11.2512C37.722 11.6508 37.5708 10.3337 37.5708 10.3337Z" fill="#605A8F"/>
<path opacity="0.45" d="M44.6264 9.58315C43.5656 8.9172 42.3747 9.02713 41.4904 9.04193L41.4295 9.08421C45.7018 9.58315 45.2103 15.6169 41.0997 16.5831C38.4804 17.1983 37.2895 16.118 36.7581 15.4182C37.0291 16.0321 37.4657 16.5572 38.0183 16.934C39.7575 18.1349 43.3346 17.5831 45.1725 15.5345C47.0104 13.4859 46.2101 10.5831 44.6264 9.58315Z" fill="#343057"/>
<path d="M50.8689 7.81782C50.8689 7.81782 51.6293 7.3506 51.8939 7.31677C52.1586 7.28295 52.5913 8.01655 52.5913 8.01655C52.6655 7.78435 52.7648 7.56103 52.8874 7.3506C53.0975 7.01656 53.8158 7.88336 53.8158 7.88336C53.8158 7.88336 53.8809 7.24912 53.9818 7.21741C54.0826 7.1857 54.9081 8.01655 54.9081 8.01655L54.1141 9.05037C54.1141 9.05037 51.5641 9.26178 51.4318 9.14973C51.2995 9.03768 50.8689 7.81782 50.8689 7.81782Z" fill="#343057"/>
<path d="M51.0956 7.48801C51.0956 7.48801 46.7918 8.12225 48.0037 12.2385C49.2157 16.3547 55.3553 15.7712 56.8592 14.0038C58.3632 12.2364 59.2328 9.16875 54.6454 7.61486C54.5142 7.70388 54.405 7.82204 54.3264 7.96023C54.2477 8.09842 54.2016 8.25294 54.1917 8.41189C53.9615 8.1407 53.6746 7.92412 53.3515 7.77764C53.0715 7.98961 52.8431 8.26288 52.6835 8.57679C52.6835 8.57679 52.8075 8.11379 52.0135 7.73113C52.0135 7.73113 51.4296 7.94255 51.2615 8.36538L51.0956 7.48801Z" fill="#605A8F"/>
<path opacity="0.45" d="M55.6369 12.1835C54.4229 15.0461 50.7723 14.7733 48.9407 13.8917C51.0852 16.1433 55.5991 15.4921 56.8594 14.0123C58.3402 12.2744 59.2098 9.27657 54.8577 7.69942L54.843 7.76073L54.6455 7.62543C54.6455 7.62543 56.8951 9.21738 55.6369 12.1835Z" fill="#343057"/>
<path d="M26.7745 52.367C27.1306 52.367 27.4193 52.0764 27.4193 51.718C27.4193 51.3595 27.1306 51.0689 26.7745 51.0689C26.4183 51.0689 26.1296 51.3595 26.1296 51.718C26.1296 52.0764 26.4183 52.367 26.7745 52.367Z" fill="#D72F5D"/>
<path d="M31.742 53.1662C32.0981 53.1662 32.3868 52.8756 32.3868 52.5171C32.3868 52.1587 32.0981 51.8681 31.742 51.8681C31.3859 51.8681 31.0972 52.1587 31.0972 52.5171C31.0972 52.8756 31.3859 53.1662 31.742 53.1662Z" fill="#F6605D"/>
<path d="M19.6224 69.8658C19.9785 69.8658 20.2672 69.5752 20.2672 69.2167C20.2672 68.8583 19.9785 68.5677 19.6224 68.5677C19.2662 68.5677 18.9775 68.8583 18.9775 69.2167C18.9775 69.5752 19.2662 69.8658 19.6224 69.8658Z" fill="#F6605D"/>
<path d="M33.4811 52.2169C33.4816 52.2915 33.4599 52.3646 33.419 52.4268C33.3781 52.489 33.3197 52.5375 33.2513 52.5663C33.1829 52.595 33.1076 52.6027 33.0348 52.5882C32.9621 52.5738 32.8953 52.5379 32.8429 52.4851C32.7905 52.4324 32.7548 52.3651 32.7405 52.2919C32.7261 52.2187 32.7337 52.1429 32.7623 52.074C32.7908 52.0052 32.8391 51.9464 32.9009 51.9053C32.9627 51.8641 33.0352 51.8423 33.1094 51.8427C33.1582 51.8427 33.2065 51.8524 33.2516 51.8712C33.2967 51.89 33.3377 51.9176 33.3723 51.9523C33.4068 51.9871 33.4342 52.0283 33.4529 52.0737C33.4715 52.1191 33.4811 52.1678 33.4811 52.2169V52.2169Z" fill="#F6605D"/>
<path d="M27.3962 71.0412C27.3966 71.1158 27.375 71.1889 27.3341 71.2511C27.2931 71.3133 27.2348 71.3618 27.1664 71.3906C27.098 71.4193 27.0226 71.427 26.9499 71.4125C26.8772 71.3981 26.8104 71.3622 26.7579 71.3094C26.7055 71.2567 26.6699 71.1894 26.6555 71.1162C26.6412 71.043 26.6487 70.9672 26.6773 70.8983C26.7059 70.8295 26.7541 70.7707 26.8159 70.7295C26.8777 70.6884 26.9503 70.6666 27.0244 70.667C27.1228 70.6676 27.2171 70.7072 27.2867 70.7772C27.3563 70.8473 27.3956 70.9421 27.3962 71.0412Z" fill="#F6605D"/>
<path d="M39.3186 60.4431C39.3186 60.5176 39.2966 60.5904 39.2554 60.6523C39.2142 60.7143 39.1557 60.7625 39.0873 60.7909C39.0188 60.8194 38.9435 60.8267 38.871 60.812C38.7984 60.7973 38.7318 60.7612 38.6796 60.7084C38.6274 60.6556 38.5919 60.5883 38.5777 60.5152C38.5635 60.442 38.5712 60.3663 38.5999 60.2976C38.6285 60.2289 38.6767 60.1702 38.7385 60.1291C38.8003 60.088 38.8727 60.0663 38.9468 60.0667C38.9958 60.0667 39.0443 60.0765 39.0895 60.0954C39.1348 60.1144 39.1759 60.1421 39.2104 60.1771C39.245 60.2121 39.2723 60.2536 39.2909 60.2992C39.3094 60.3449 39.3188 60.3937 39.3186 60.4431Z" fill="#F6605D"/>
<path d="M29.4065 59.4177C29.4065 59.4921 29.3845 59.5649 29.3434 59.6268C29.3024 59.6887 29.244 59.7369 29.1757 59.7654C29.1073 59.7939 29.0322 59.8013 28.9596 59.7868C28.8871 59.7723 28.8205 59.7364 28.7682 59.6838C28.7159 59.6312 28.6803 59.5641 28.6659 59.4911C28.6514 59.4181 28.6589 59.3425 28.6872 59.2737C28.7155 59.2049 28.7634 59.1462 28.8249 59.1048C28.8863 59.0635 28.9586 59.0414 29.0326 59.0414C29.1317 59.0414 29.2268 59.081 29.2969 59.1516C29.3671 59.2222 29.4065 59.3179 29.4065 59.4177V59.4177Z" fill="#F6605D"/>
<path opacity="0.16" d="M39.245 14.4182C39.245 15.0799 38.7766 15.6169 38.1948 15.6169C37.6129 15.6169 37.1445 15.0799 37.1445 14.4182C37.1445 13.7565 37.6129 13.2173 38.1948 13.2173C38.7766 13.2173 39.245 13.7543 39.245 14.4182Z" fill="#E0E6FF"/>
<path opacity="0.16" d="M38.4656 12.3675C38.466 12.4404 38.4448 12.5118 38.4048 12.5726C38.3649 12.6334 38.3078 12.6809 38.2409 12.709C38.1741 12.7371 38.1004 12.7446 38.0293 12.7305C37.9582 12.7163 37.8929 12.6813 37.8417 12.6297C37.7904 12.5781 37.7556 12.5124 37.7415 12.4408C37.7275 12.3693 37.7349 12.2951 37.7628 12.2278C37.7908 12.1605 37.8379 12.1031 37.8984 12.0628C37.9588 12.0226 38.0297 12.0013 38.1022 12.0017C38.1499 12.0017 38.1972 12.0112 38.2412 12.0296C38.2853 12.0479 38.3254 12.0749 38.3591 12.1088C38.3929 12.1428 38.4196 12.1831 38.4379 12.2275C38.4562 12.2719 38.4656 12.3194 38.4656 12.3675V12.3675Z" fill="#E0E6FF"/>
<path opacity="0.16" d="M48.3105 10.4668C48.3105 10.4668 48.5206 9.31675 49.1507 8.83472C49.7808 8.3527 50.7723 8.26813 50.7575 9.43302C50.7428 10.5979 50.3921 11.2343 50.6231 12.2343C50.8542 13.2343 49.6632 13.5175 49.1339 13.0334C48.6046 12.5493 48.1005 11.8009 48.3105 10.4668Z" fill="#E0E6FF"/>
<path d="M60.1738 8.61699C60.1738 8.61699 60.8691 8.11805 61.0686 8.14977C61.3945 8.25116 61.6751 8.46342 61.8626 8.75018C61.8626 8.75018 62.4255 7.98486 62.6251 7.98486C62.8246 7.98486 63.2867 8.68464 63.2867 8.68464L63.3875 8.14977C63.6604 8.31407 63.8615 8.57612 63.9504 8.88337C64.0828 9.38443 63.2531 10.0504 63.2531 10.0504C63.2531 10.0504 61.432 10.784 61.2997 10.7184C61.1673 10.6529 60.1738 8.61699 60.1738 8.61699Z" fill="#343057"/>
<path d="M60.3084 8.3252C60.3084 8.3252 56.0067 8.95944 57.2187 13.0757C58.4306 17.1919 64.5702 16.6063 66.0742 14.841C67.5781 13.0757 68.454 10.0059 63.854 8.44993C63.7237 8.53843 63.6151 8.65561 63.5365 8.79261C63.4579 8.9296 63.4113 9.08281 63.4003 9.24062C63.1713 8.96813 62.8841 8.7513 62.5601 8.60638C62.2809 8.81914 62.0527 9.09223 61.8922 9.40552C61.8922 9.40552 62.0182 8.94252 61.2242 8.55987C61.2242 8.55987 60.6382 8.77128 60.4723 9.19411L60.3084 8.3252Z" fill="#605A8F"/>
<path opacity="0.45" d="M66.2231 9.73535C66.66 11.2385 66.0593 13.822 63.3371 14.8664C61.1106 15.712 58.7875 14.8854 58.002 14.5471C60.0751 17.0038 64.7822 16.3568 66.074 14.841C67.2314 13.4837 68.0127 11.3548 66.2231 9.73535Z" fill="#343057"/>
<path opacity="0.16" d="M58.3025 9.75647C58.5711 9.57227 58.8989 9.49678 59.2204 9.54506C59.693 9.64865 60.1236 10.192 59.6594 10.9235C59.1951 11.655 58.4621 12.9361 57.8467 12.4689C57.2312 12.0017 57.2795 11.5028 57.5589 10.748C57.7265 10.3636 57.9811 10.024 58.3025 9.75647V9.75647Z" fill="#E0E6FF"/>
<path d="M57.9726 13.5176C57.9726 13.5176 55.4395 13.2681 54.3451 15.3167C53.2508 17.3653 53.799 19.8663 55.786 20.8663C57.7731 21.8663 60.407 22.0164 61.995 20.0207C63.5829 18.0249 64.1311 13.9679 57.9726 13.5176Z" fill="#605A8F"/>
<path d="M57.3928 13.5345C57.3928 13.5345 58.0041 13.9573 58.0881 14.3505C58.0881 14.3505 58.6006 14.0334 58.9829 14.101C59.3652 14.1687 59.5605 14.767 59.5605 14.767C59.5605 14.767 60.2074 14.1328 60.5057 14.3442C60.804 14.5556 61.0182 14.9277 60.9699 14.9108C60.9216 14.8938 61.035 14.3103 61.2829 14.378C61.2829 14.378 61.0728 13.5112 60.6884 13.5619C60.4446 13.5996 60.2154 13.7026 60.0247 13.86C59.9745 13.6104 59.8438 13.3845 59.6529 13.2173C59.3715 13.0059 58.7749 13.6 58.7749 13.6C58.651 13.372 58.4681 13.1821 58.2456 13.0503C57.9221 12.8833 57.3928 13.5345 57.3928 13.5345Z" fill="#343057"/>
<path opacity="0.45" d="M62.5473 15.4837C62.5935 15.7945 62.8918 18.3167 60.283 19.75C57.4852 21.2849 54.6118 18.9847 54.2736 18.4012C54.2323 18.3293 54.1693 18.2726 54.0938 18.2391C54.0182 18.2057 53.9341 18.1973 53.8535 18.2152C54.1161 19.3505 54.7777 20.3568 55.7922 20.8663C57.7793 21.8663 60.4132 22.0164 62.0012 20.0207C62.9359 18.8346 63.5114 16.934 62.5473 15.4837Z" fill="#343057"/>
<path d="M49.4384 15.8833C49.4384 15.8833 46.1806 15.7163 45.0947 18.4054C44.0087 21.0946 45.1787 24.2933 49.8144 24.3356C54.4501 24.3779 55.242 21.4752 55.1621 19.6676C55.0823 17.86 53.4503 15.7162 49.4384 15.8833Z" fill="#605A8F"/>
<path d="M48.6486 17.4858C48.6486 17.4858 48.6171 16.5852 49.0477 16.8516C49.2673 16.9765 49.4676 17.1332 49.6421 17.3167C49.6421 17.3167 49.808 16.9171 50.0622 16.8516C50.3163 16.786 50.4108 17.6507 50.4108 17.6507C50.4108 17.6507 51.0725 17.285 51.3056 17.4837C51.5388 17.6824 51.0074 18.1179 51.0074 18.1179C51.0074 18.1179 51.3708 18.285 51.0725 18.5175C50.7742 18.7501 51.0074 19.3167 50.3436 19.3167C50.2607 19.3235 50.1773 19.3115 50.0997 19.2815C50.022 19.2515 49.952 19.2043 49.8949 19.1434C49.8378 19.0825 49.7951 19.0094 49.7699 18.9296C49.7446 18.8498 49.7376 18.7653 49.7492 18.6824C49.7492 18.6824 49.2514 19.249 48.9195 19.0143C48.5877 18.7797 48.6885 18.3146 48.6885 18.3146C48.5614 18.3116 48.4371 18.2766 48.327 18.2127C48.2169 18.1488 48.1245 18.0581 48.0583 17.9488C47.8546 17.5831 48.6486 17.4858 48.6486 17.4858Z" fill="#343057"/>
<path opacity="0.45" d="M55.1621 19.6676C55.1489 19.3987 55.103 19.1325 55.0256 18.8748C55.076 20.1982 54.5005 22.6802 50.9675 23.4498C47.5269 24.2109 45.4622 22.3673 45.124 22.0354C45.7836 23.3462 47.2791 24.3124 49.8143 24.3356C54.4521 24.3758 55.2419 21.4752 55.1621 19.6676Z" fill="#343057"/>
<path opacity="0.16" d="M45.5042 19.2003C45.639 18.8073 45.9167 18.4802 46.2814 18.2849C46.8443 18.0333 47.6887 18.268 47.7517 19.3674C47.8147 20.4667 48.0164 22.3272 47.0397 22.3166C46.063 22.306 45.7395 21.7521 45.4664 20.7669C45.3575 20.2489 45.3704 19.7124 45.5042 19.2003V19.2003Z" fill="#E0E6FF"/>
<path opacity="0.19" d="M62.1946 62.517C64.2015 62.517 65.8284 62.1933 65.8284 61.794C65.8284 61.3947 64.2015 61.071 62.1946 61.071C60.1877 61.071 58.5608 61.3947 58.5608 61.794C58.5608 62.1933 60.1877 62.517 62.1946 62.517Z" fill="black"/>
<path d="M62.2953 54.3586C62.2953 54.3586 59.3546 54.2063 58.3716 56.6376C57.3886 59.0689 58.4473 61.9526 62.6335 61.9906C66.8197 62.0287 67.538 59.4092 67.4645 57.7771C67.391 56.145 65.9165 54.2063 62.2953 54.3586Z" fill="#605A8F"/>
<path d="M61.5813 55.8046C61.5813 55.8046 61.5519 54.9907 61.9404 55.2317C62.1394 55.3452 62.3206 55.4877 62.4782 55.6545C62.4782 55.6545 62.6294 55.293 62.8667 55.2317C63.1041 55.1704 63.1671 55.9547 63.1671 55.9547C63.1671 55.9547 63.7657 55.6228 63.9737 55.8046C64.1816 55.9864 63.7048 56.3754 63.7048 56.3754C63.7048 56.3754 64.0346 56.5255 63.7657 56.737C63.4969 56.9484 63.7048 57.46 63.1062 57.46C63.0314 57.4657 62.9562 57.4545 62.8863 57.4273C62.8163 57.4 62.7532 57.3574 62.7017 57.3025C62.6502 57.2476 62.6115 57.1818 62.5884 57.1099C62.5654 57.0381 62.5586 56.9619 62.5685 56.8871C62.5685 56.8871 62.1211 57.3987 61.8207 57.1894C61.7324 57.1124 61.6663 57.0128 61.6293 56.9013C61.5923 56.7897 61.5859 56.6701 61.6107 56.5551C61.496 56.5522 61.384 56.5203 61.2849 56.4622C61.1858 56.4042 61.1028 56.322 61.0435 56.2232C60.8629 55.8934 61.5813 55.8046 61.5813 55.8046Z" fill="#343057"/>
<path opacity="0.45" d="M67.4625 57.7771C67.4513 57.5334 67.4104 57.292 67.3407 57.0583C67.3848 58.2549 66.866 60.4874 63.6754 61.1936C60.5688 61.8785 58.7036 60.2147 58.397 59.9145C58.9935 61.0984 60.3462 61.9694 62.6336 61.9906C66.8219 62.0286 67.5382 59.4092 67.4625 57.7771Z" fill="#343057"/>
<path opacity="0.16" d="M58.7413 57.3543C58.862 56.9983 59.1129 56.702 59.4428 56.5255C59.9512 56.3014 60.7136 56.5107 60.7745 57.5044C60.8354 58.498 61.014 60.1851 60.1318 60.1682C59.2496 60.1513 58.9576 59.6587 58.7098 58.7686C58.6112 58.3011 58.622 57.8169 58.7413 57.3543V57.3543Z" fill="#E0E6FF"/>
<path opacity="0.16" d="M56.4079 16.6824C56.1495 17.2913 55.5089 17.6 54.9795 17.3716C54.4502 17.1433 54.2318 16.4647 54.4901 15.8558C54.7485 15.2469 55.3891 14.9361 55.9184 15.1645C56.4478 15.3928 56.6662 16.0714 56.4079 16.6824Z" fill="#E0E6FF"/>
<path opacity="0.16" d="M56.7922 14.6888C56.7638 14.7558 56.7163 14.8128 56.6557 14.8526C56.5951 14.8923 56.5241 14.9131 56.4518 14.9123C56.3794 14.9114 56.3089 14.889 56.2493 14.8478C56.1896 14.8065 56.1434 14.7484 56.1166 14.6808C56.0898 14.6132 56.0835 14.539 56.0986 14.4678C56.1137 14.3966 56.1494 14.3314 56.2013 14.2807C56.2532 14.2299 56.3189 14.1958 56.39 14.1826C56.4612 14.1695 56.5347 14.1779 56.6011 14.2068C56.6898 14.2454 56.7597 14.3177 56.7955 14.4081C56.8313 14.4984 56.8301 14.5993 56.7922 14.6888Z" fill="#E0E6FF"/>
<path d="M48.5332 77.4175C48.5332 77.4175 49.3293 76.1173 49.7263 76.1173C49.9866 76.1254 50.2417 76.1934 50.4719 76.316C50.4719 76.316 50.7681 75.6247 51.1672 75.6247C51.5663 75.6247 52.3098 76.075 52.3098 76.075L52.1607 77.9778L48.5332 77.4175Z" fill="#343057"/>
<path d="M48.8041 76.5126C48.8041 76.5126 44.7986 78.2166 47.0061 81.8952C49.2137 85.5739 55.0068 83.4407 56.0171 81.3498C57.0274 79.2589 57.1072 76.0644 52.2699 75.7304C52.1642 75.85 52.0873 75.9925 52.045 76.1469C52.0028 76.3012 51.9964 76.4632 52.0262 76.6205C51.7376 76.4172 51.4075 76.2814 51.06 76.223C50.8425 76.4993 50.6902 76.8217 50.6147 77.1659C50.6147 77.1659 50.6147 76.686 49.7556 76.5317C49.7556 76.5317 49.2431 76.8826 49.1864 77.3329L48.8041 76.5126Z" fill="#605A8F"/>
<path opacity="0.16" d="M47.8086 79.6035C47.8086 79.6035 48.006 78.8889 48.5585 78.6501C48.6893 78.5867 48.8337 78.557 48.9787 78.5635C49.1238 78.57 49.265 78.6125 49.3897 78.6872C49.5145 78.7619 49.619 78.8665 49.6938 78.9917C49.7687 79.117 49.8116 79.2589 49.8187 79.4048C49.8747 79.7496 49.8466 80.1029 49.7368 80.4344C49.627 80.7658 49.4389 81.0655 49.1886 81.3075C48.6383 81.8297 47.2961 81.2335 47.8086 79.6035Z" fill="#E0E6FF"/>
<path d="M43.8995 76.2188C43.8995 76.2188 43.3954 75.7072 43.2694 75.6036C43.1434 75.5 42.6498 76.278 42.6498 76.278C42.4458 76.0326 42.2232 75.8036 41.9839 75.593C41.86 75.5359 41.2215 76.259 41.2215 76.259C41.0017 75.9704 40.8802 75.6183 40.8749 75.2548C40.6092 75.5828 40.3643 75.9274 40.1418 76.2865C39.9969 76.5761 40.9064 77.4577 41.0135 77.4577C41.1206 77.4577 43.7 77.4577 43.7315 77.426C43.763 77.3943 43.8995 76.2188 43.8995 76.2188Z" fill="#343057"/>
<path d="M40.8748 75.2548C40.8748 75.2548 40.4547 75.8721 39.0915 76.3795C37.7283 76.8869 36.5163 78.6606 37.1297 80.6923C37.743 82.724 40.879 84.5401 43.5865 84.094C46.294 83.6479 47.4702 80.8826 46.8506 79.1025C46.2309 77.3224 44.288 76.722 44.0255 75.9313C43.7774 76.0911 43.5489 76.2798 43.3449 76.4936C43.1475 76.741 42.8996 76.1998 42.5761 75.9397C42.2992 76.1194 42.0385 76.3231 41.7969 76.5486C41.5868 76.7727 41.3222 75.9968 41.1877 75.8467C41.0533 75.6966 41.0071 76.0201 40.5912 76.1977C40.1753 76.3753 40.8748 75.2548 40.8748 75.2548Z" fill="#605A8F"/>
<path opacity="0.16" d="M38.2641 77.7219C38.2641 77.7219 38.8123 76.9989 39.5517 76.9799C39.7298 76.9672 39.9083 76.9991 40.0712 77.0729C40.2341 77.1467 40.3762 77.2601 40.4849 77.4027C40.5935 77.5454 40.6653 77.713 40.6938 77.8905C40.7223 78.0679 40.7066 78.2497 40.6481 78.4196C40.415 79.2653 39.9277 79.9693 39.0644 80.3033C38.2011 80.6373 36.9408 79.3435 38.2641 77.7219Z" fill="#E0E6FF"/>
<path opacity="0.45" d="M44.4099 77.5676C45.1556 78.7663 45.603 81.0179 43.5697 82.4661C41.7969 83.7346 38.7387 82.4534 37.9846 82.1025C39.2449 83.4703 41.5386 84.428 43.5907 84.094C46.2961 83.6479 47.4745 80.8826 46.8549 79.1025C46.2352 77.3224 44.2923 76.722 44.0297 75.9313C44.0255 75.9334 43.6643 76.3668 44.4099 77.5676Z" fill="#343057"/>
<path opacity="0.45" d="M47.8757 82.9185C50.4551 85.0918 55.1202 83.206 56.0171 81.3498C56.9686 79.3857 57.0946 76.4534 53.1017 75.8234C54.0931 76.0348 55.5907 76.7642 55.3891 79.168C55.095 82.6606 50.6672 83.9734 47.8757 82.9185Z" fill="#343057"/>
<path d="M25.2602 7.73539C25.2602 7.73539 21.1979 7.61489 20.4816 11.1011C19.7654 14.5873 23.5861 16.6402 28.0076 14.4668C32.429 12.2935 30.9923 6.77346 25.2602 7.73539Z" fill="#605A8F"/>
<path d="M24.9596 8.07575C24.9596 8.07575 25.1991 7.01868 24.9218 6.59585C24.6446 6.17302 25.1004 6.05675 25.2999 6.07577C25.4994 6.0948 25.5982 7.23855 25.3986 7.65927C25.1991 8.07998 25.1592 8.37596 24.9596 8.07575Z" fill="#343057"/>
<path opacity="0.45" d="M29.0766 8.26602C29.7277 9.25755 29.9504 12.0968 27.1715 13.9869C24.4913 15.8093 21.475 14.2152 21.1663 14.0419C22.4265 15.49 25.0857 15.8981 28.0074 14.4647C31.1665 12.9192 31.3325 9.66347 29.0766 8.26602Z" fill="#343057"/>
<path opacity="0.16" d="M21.3364 10.4288C21.3364 10.4288 21.6137 9.70578 22.2123 9.5155C22.3548 9.46248 22.5081 9.44587 22.6585 9.46716C22.8089 9.48846 22.9517 9.54699 23.0741 9.6375C23.1965 9.72802 23.2947 9.8477 23.3599 9.9858C23.425 10.1239 23.4551 10.2761 23.4474 10.4288C23.4474 11.1793 23.2226 11.8643 22.6072 12.3442C21.9918 12.8241 20.637 12.0673 21.3364 10.4288Z" fill="#E0E6FF"/>
<path opacity="0.18" d="M53.4523 61.4177C53.4523 61.7475 53.0511 62.0181 52.5575 62.0181C52.0639 62.0181 51.6711 61.7475 51.6711 61.4177C51.6711 61.0879 52.0723 60.8173 52.5659 60.8173C53.0595 60.8173 53.4523 61.0858 53.4523 61.4177Z" fill="#CC562A"/>
<path opacity="0.18" d="M18.2803 56.9167C18.7745 56.9167 19.1751 56.6478 19.1751 56.3162C19.1751 55.9846 18.7745 55.7158 18.2803 55.7158C17.7861 55.7158 17.3855 55.9846 17.3855 56.3162C17.3855 56.6478 17.7861 56.9167 18.2803 56.9167Z" fill="#CC562A"/>
<path opacity="0.34" d="M44.7081 74.5169C44.7081 74.8488 44.307 75.1173 43.8133 75.1173C43.3197 75.1173 42.9207 74.8488 42.9207 74.5169C42.9207 74.1849 43.3197 73.9164 43.8133 73.9164C44.307 73.9164 44.7081 74.1849 44.7081 74.5169Z" fill="#CC562A"/>
<path opacity="0.28" d="M69.6448 59.7179C70.139 59.7179 70.5396 59.4491 70.5396 59.1175C70.5396 58.7859 70.139 58.5171 69.6448 58.5171C69.1506 58.5171 68.75 58.7859 68.75 59.1175C68.75 59.4491 69.1506 59.7179 69.6448 59.7179Z" fill="#CC562A"/>
<path opacity="0.38" d="M50.0729 49.4093C50.0729 49.7391 49.6738 50.0098 49.1802 50.0098C48.6866 50.0098 48.2854 49.7391 48.2854 49.4093C48.2854 49.0795 48.6845 48.8089 49.1802 48.8089C49.6759 48.8089 50.0729 49.0859 50.0729 49.4093Z" fill="#CC562A"/>
<path opacity="0.38" d="M45.0065 33.3165C45.0065 33.6484 44.6053 33.9169 44.1117 33.9169C43.6181 33.9169 43.219 33.6484 43.219 33.3165C43.219 32.9846 43.6181 32.7182 44.1117 32.7182C44.6053 32.7182 45.0065 32.9867 45.0065 33.3165Z" fill="#CC562A"/>
<path opacity="0.38" d="M68.3553 31.5173C68.3553 31.8493 67.9541 32.1178 67.4605 32.1178C66.9669 32.1178 66.5657 31.8493 66.5657 31.5173C66.5657 31.1854 66.9669 30.9169 67.4605 30.9169C67.9541 30.9169 68.3553 31.1854 68.3553 31.5173Z" fill="#CC562A"/>
<path opacity="0.21" d="M19.1751 19.917C19.6693 19.917 20.0699 19.6482 20.0699 19.3166C20.0699 18.985 19.6693 18.7162 19.1751 18.7162C18.6809 18.7162 18.2803 18.985 18.2803 19.3166C18.2803 19.6482 18.6809 19.917 19.1751 19.917Z" fill="#CC562A"/>
<path opacity="0.21" d="M67.3616 23.7183C67.3616 24.0481 66.9604 24.3166 66.4668 24.3166C65.9732 24.3166 65.572 24.0481 65.572 23.7183C65.572 23.3885 65.9732 23.1179 66.4668 23.1179C66.9604 23.1179 67.3616 23.3864 67.3616 23.7183Z" fill="#CC562A"/>
<path opacity="0.41" d="M76.3033 22.3166C76.3033 22.6485 75.9021 22.917 75.4085 22.917C74.9149 22.917 74.5137 22.6485 74.5137 22.3166C74.5137 21.9847 74.9149 21.7141 75.4064 21.7141C75.8979 21.7141 76.3033 21.9868 76.3033 22.3166Z" fill="#CC562A"/>
<path opacity="0.21" d="M28.5661 17.767C28.5661 17.9615 28.3329 18.1179 28.0431 18.1179C27.7532 18.1179 27.5159 17.9615 27.5159 17.767C27.5159 17.5725 27.749 17.4182 28.0368 17.4182C28.3245 17.4182 28.5661 17.5746 28.5661 17.767Z" fill="#CC562A"/>
<path opacity="0.21" d="M34.5987 12.8664C34.5987 13.0609 34.3656 13.2174 34.0778 13.2174C33.79 13.2174 33.5569 13.0609 33.5569 12.8664C33.5569 12.6719 33.79 12.5176 34.0778 12.5176C34.3656 12.5176 34.5987 12.674 34.5987 12.8664Z" fill="#CC562A"/>
<path opacity="0.21" d="M20.2925 16.0165C20.2925 16.211 20.0593 16.3674 19.7715 16.3674C19.4838 16.3674 19.2485 16.211 19.2485 16.0165C19.2485 15.822 19.4838 15.6676 19.7715 15.6676C20.0593 15.6676 20.2925 15.8241 20.2925 16.0165Z" fill="#CC562A"/>
<path opacity="0.21" d="M24.168 16.9171C24.168 17.1116 23.9348 17.268 23.6449 17.268C23.3551 17.268 23.124 17.1116 23.124 16.9171C23.124 16.7226 23.3572 16.5683 23.6449 16.5683C23.9327 16.5683 24.168 16.7247 24.168 16.9171Z" fill="#CC562A"/>
<path opacity="0.21" d="M36.3884 11.7184C36.3884 11.9108 36.1553 12.0672 35.8654 12.0672C35.5755 12.0672 35.3445 11.9108 35.3445 11.7184C35.3445 11.526 35.5776 11.3675 35.8654 11.3675C36.1532 11.3675 36.3884 11.5239 36.3884 11.7184Z" fill="#CC562A"/>
<path opacity="0.38" d="M40.7341 37.8175C41.2283 37.8175 41.6289 37.5487 41.6289 37.2171C41.6289 36.8855 41.2283 36.6167 40.7341 36.6167C40.24 36.6167 39.8394 36.8855 39.8394 37.2171C39.8394 37.5487 40.24 37.8175 40.7341 37.8175Z" fill="#CC562A"/>
<path opacity="0.38" d="M72.428 39.4179C72.428 39.7477 72.0268 40.0162 71.5332 40.0162C71.0396 40.0162 70.6384 39.7477 70.6384 39.4179C70.6384 39.0881 71.0396 38.8175 71.5332 38.8175C72.0268 38.8175 72.428 39.086 72.428 39.4179Z" fill="#CC562A"/>
<path opacity="0.38" d="M48.7809 75.018C48.7809 75.3478 48.3818 75.6163 47.8882 75.6163C47.3946 75.6163 46.9934 75.3478 46.9934 75.018C46.9934 74.6882 47.3946 74.4175 47.8882 74.4175C48.3818 74.4175 48.7809 74.686 48.7809 75.018Z" fill="#CC562A"/>
<path opacity="0.16" d="M53.8494 65.4176C53.8494 65.7474 53.4482 66.018 52.9546 66.018C52.461 66.018 52.0598 65.7474 52.0598 65.4176C52.0598 65.0878 52.461 64.8172 52.9546 64.8172C53.4482 64.8172 53.8494 65.0857 53.8494 65.4176Z" fill="#CC562A"/>
<path opacity="0.38" d="M68.2544 46.6165C68.7486 46.6165 69.1492 46.3477 69.1492 46.0161C69.1492 45.6845 68.7486 45.4157 68.2544 45.4157C67.7602 45.4157 67.3596 45.6845 67.3596 46.0161C67.3596 46.3477 67.7602 46.6165 68.2544 46.6165Z" fill="#CC562A"/>
<path opacity="0.38" d="M67.4605 39.6166C67.4605 39.7836 67.2609 39.9168 67.0131 39.9168C66.7652 39.9168 66.5657 39.7836 66.5657 39.6166C66.5657 39.4496 66.7652 39.3164 67.0131 39.3164C67.2609 39.3164 67.4605 39.4517 67.4605 39.6166Z" fill="#CC562A"/>
<path opacity="0.38" d="M50.6693 74.4175C50.9164 74.4175 51.1167 74.2831 51.1167 74.1173C51.1167 73.9515 50.9164 73.8171 50.6693 73.8171C50.4222 73.8171 50.2219 73.9515 50.2219 74.1173C50.2219 74.2831 50.4222 74.4175 50.6693 74.4175Z" fill="#CC562A"/>
<path opacity="0.38" d="M44.0635 36.3164C44.0635 36.4835 43.8534 36.6167 43.6161 36.6167C43.3787 36.6167 43.1687 36.4835 43.1687 36.3164C43.1687 36.1494 43.3682 36.0162 43.6161 36.0162C43.8639 36.0162 44.0635 36.1515 44.0635 36.3164Z" fill="#CC562A"/>
<path opacity="0.38" d="M65.4733 47.718C65.7204 47.718 65.9207 47.5836 65.9207 47.4178C65.9207 47.252 65.7204 47.1176 65.4733 47.1176C65.2262 47.1176 65.0259 47.252 65.0259 47.4178C65.0259 47.5836 65.2262 47.718 65.4733 47.718Z" fill="#CC562A"/>
<path opacity="0.38" d="M63.4862 47.4178C63.7333 47.4178 63.9336 47.2834 63.9336 47.1176C63.9336 46.9518 63.7333 46.8174 63.4862 46.8174C63.2391 46.8174 63.0388 46.9518 63.0388 47.1176C63.0388 47.2834 63.2391 47.4178 63.4862 47.4178Z" fill="#CC562A"/>
<path opacity="0.18" d="M50.6693 63.6164C50.9164 63.6164 51.1167 63.4819 51.1167 63.3161C51.1167 63.1503 50.9164 63.0159 50.6693 63.0159C50.4222 63.0159 50.2219 63.1503 50.2219 63.3161C50.2219 63.4819 50.4222 63.6164 50.6693 63.6164Z" fill="#CC562A"/>
<path opacity="0.18" d="M33.0844 65.517C33.3314 65.517 33.5318 65.3826 33.5318 65.2168C33.5318 65.051 33.3314 64.9166 33.0844 64.9166C32.8373 64.9166 32.637 65.051 32.637 65.2168C32.637 65.3826 32.8373 65.517 33.0844 65.517Z" fill="#CC562A"/>
<path opacity="0.18" d="M21.9562 60.8172C22.2033 60.8172 22.4036 60.6828 22.4036 60.517C22.4036 60.3512 22.2033 60.2168 21.9562 60.2168C21.7091 60.2168 21.5088 60.3512 21.5088 60.517C21.5088 60.6828 21.7091 60.8172 21.9562 60.8172Z" fill="#CC562A"/>
<path opacity="0.18" d="M38.1505 75.2167C38.3976 75.2167 38.5979 75.0823 38.5979 74.9165C38.5979 74.7507 38.3976 74.6163 38.1505 74.6163C37.9034 74.6163 37.7031 74.7507 37.7031 74.9165C37.7031 75.0823 37.9034 75.2167 38.1505 75.2167Z" fill="#CC562A"/>
<path opacity="0.18" d="M43.7652 59.4177C43.7652 59.5826 43.5551 59.7179 43.3178 59.7179C43.0804 59.7179 42.8704 59.5826 42.8704 59.4177C42.8704 59.2528 43.0804 59.1175 43.3178 59.1175C43.5551 59.1175 43.7652 59.2507 43.7652 59.4177Z" fill="#CC562A"/>
<path opacity="0.18" d="M22.5526 57.7179C22.7997 57.7179 23 57.5835 23 57.4177C23 57.2519 22.7997 57.1175 22.5526 57.1175C22.3055 57.1175 22.1052 57.2519 22.1052 57.4177C22.1052 57.5835 22.3055 57.7179 22.5526 57.7179Z" fill="#CC562A"/>
<path opacity="0.38" d="M54.1476 48.4178C54.3947 48.4178 54.595 48.2834 54.595 48.1176C54.595 47.9518 54.3947 47.8174 54.1476 47.8174C53.9005 47.8174 53.7002 47.9518 53.7002 48.1176C53.7002 48.2834 53.9005 48.4178 54.1476 48.4178Z" fill="#CC562A"/>
<path opacity="0.38" d="M53.2025 74.316C53.2025 74.4831 53.003 74.6163 52.7551 74.6163C52.5073 74.6163 52.3098 74.4831 52.3098 74.316C52.3098 74.149 52.5199 74.0179 52.7551 74.0179C52.9904 74.0179 53.2025 74.1448 53.2025 74.316Z" fill="#CC562A"/>
<path opacity="0.22" d="M20.616 57.8173C20.616 57.9822 20.4059 58.1175 20.1686 58.1175C19.9312 58.1175 19.7212 57.9822 19.7212 57.8173C19.7212 57.6524 19.9312 57.5171 20.1686 57.5171C20.4059 57.5171 20.616 57.6545 20.616 57.8173Z" fill="#CC562A"/>
<path opacity="0.22" d="M18.381 65.6164C18.6281 65.6164 18.8284 65.4819 18.8284 65.3161C18.8284 65.1503 18.6281 65.0159 18.381 65.0159C18.1339 65.0159 17.9336 65.1503 17.9336 65.3161C17.9336 65.4819 18.1339 65.6164 18.381 65.6164Z" fill="#CC562A"/>
<path opacity="0.18" d="M48.8817 61.3183C49.1288 61.3183 49.3291 61.1839 49.3291 61.0181C49.3291 60.8523 49.1288 60.7179 48.8817 60.7179C48.6346 60.7179 48.4343 60.8523 48.4343 61.0181C48.4343 61.1839 48.6346 61.3183 48.8817 61.3183Z" fill="#CC562A"/>
<path opacity="0.18" d="M57.9725 64.7178C58.2196 64.7178 58.4199 64.5834 58.4199 64.4176C58.4199 64.2518 58.2196 64.1174 57.9725 64.1174C57.7255 64.1174 57.5251 64.2518 57.5251 64.4176C57.5251 64.5834 57.7255 64.7178 57.9725 64.7178Z" fill="#CC562A"/>
<path opacity="0.38" d="M52.2594 33.6167C52.5065 33.6167 52.7068 33.4823 52.7068 33.3165C52.7068 33.1507 52.5065 33.0163 52.2594 33.0163C52.0123 33.0163 51.812 33.1507 51.812 33.3165C51.812 33.4823 52.0123 33.6167 52.2594 33.6167Z" fill="#CC562A"/>
<path opacity="0.38" d="M71.6256 30.418C71.6256 30.5829 71.4261 30.7182 71.1803 30.7182C70.9346 30.7182 70.7329 30.5829 70.7329 30.418C70.7329 30.2531 70.943 30.1178 71.1803 30.1178C71.4177 30.1178 71.6256 30.251 71.6256 30.418Z" fill="#CC562A"/>
<path opacity="0.38" d="M65.2255 31.5173C65.4726 31.5173 65.6729 31.3829 65.6729 31.2171C65.6729 31.0513 65.4726 30.9169 65.2255 30.9169C64.9784 30.9169 64.7781 31.0513 64.7781 31.2171C64.7781 31.3829 64.9784 31.5173 65.2255 31.5173Z" fill="#CC562A"/>
<path opacity="0.21" d="M21.559 18.5175C21.8061 18.5175 22.0064 18.3831 22.0064 18.2173C22.0064 18.0515 21.8061 17.9171 21.559 17.9171C21.3119 17.9171 21.1116 18.0515 21.1116 18.2173C21.1116 18.3831 21.3119 18.5175 21.559 18.5175Z" fill="#CC562A"/>
<path opacity="0.21" d="M33.4329 11.617C33.4329 11.784 33.2228 11.9172 32.9855 11.9172C32.7481 11.9172 32.5381 11.784 32.5381 11.617C32.5381 11.4499 32.7481 11.3167 32.9855 11.3167C33.2228 11.3167 33.4329 11.452 33.4329 11.617Z" fill="#CC562A"/>
<path opacity="0.21" d="M69.0504 22.8176C69.2975 22.8176 69.4978 22.6832 69.4978 22.5174C69.4978 22.3516 69.2975 22.2172 69.0504 22.2172C68.8033 22.2172 68.603 22.3516 68.603 22.5174C68.603 22.6832 68.8033 22.8176 69.0504 22.8176Z" fill="#CC562A"/>
<path opacity="0.38" d="M74.7616 36.6167C75.0087 36.6167 75.209 36.4822 75.209 36.3164C75.209 36.1506 75.0087 36.0162 74.7616 36.0162C74.5145 36.0162 74.3142 36.1506 74.3142 36.3164C74.3142 36.4822 74.5145 36.6167 74.7616 36.6167Z" fill="#CC562A"/>
<path opacity="0.38" d="M55.2903 34.7181C55.2903 34.883 55.0803 35.0162 54.8429 35.0162C54.6056 35.0162 54.3955 34.883 54.3955 34.7181C54.3955 34.5532 54.5951 34.4179 54.8429 34.4179C55.0908 34.4179 55.2903 34.5511 55.2903 34.7181Z" fill="#CC562A"/>
<path opacity="0.38" d="M39.5914 35.3165C39.8385 35.3165 40.0388 35.1821 40.0388 35.0163C40.0388 34.8505 39.8385 34.7161 39.5914 34.7161C39.3444 34.7161 39.144 34.8505 39.144 35.0163C39.144 35.1821 39.3444 35.3165 39.5914 35.3165Z" fill="#CC562A"/>
<path opacity="0.21" d="M25.4849 19.0164C25.4849 19.1835 25.2748 19.3167 25.0375 19.3167C24.8001 19.3167 24.5901 19.1835 24.5901 19.0164C24.5901 18.8494 24.8001 18.7184 25.0375 18.7184C25.2748 18.7184 25.4849 18.8515 25.4849 19.0164Z" fill="#CC562A"/>
</g>
<defs>
<linearGradient id="paint0_linear_1608_2049" x1="91.9474" y1="66.7326" x2="3.41682" y2="73.5446" gradientUnits="userSpaceOnUse">
<stop stop-color="#D72F5D"/>
<stop offset="0.33" stop-color="#D83360"/>
<stop offset="0.64" stop-color="#DA3E68"/>
<stop offset="0.93" stop-color="#DD5077"/>
<stop offset="1" stop-color="#DE567B"/>
</linearGradient>
<linearGradient id="paint1_linear_1608_2049" x1="1336.56" y1="9083.19" x2="35672.9" y2="9083.19" gradientUnits="userSpaceOnUse">
<stop stop-color="#D72F5D"/>
<stop offset="0.33" stop-color="#D83360"/>
<stop offset="0.64" stop-color="#DA3E68"/>
<stop offset="0.93" stop-color="#DD5077"/>
<stop offset="1" stop-color="#DE567B"/>
</linearGradient>
<linearGradient id="paint2_linear_1608_2049" x1="14.1487" y1="69.9546" x2="80.6933" y2="69.9546" gradientUnits="userSpaceOnUse">
<stop stop-color="#F0A82C"/>
<stop offset="0.31" stop-color="#EFA42C"/>
<stop offset="0.59" stop-color="#EB992C"/>
<stop offset="0.86" stop-color="#E6872C"/>
<stop offset="1" stop-color="#E27A2C"/>
</linearGradient>
<linearGradient id="paint3_linear_1608_2049" x1="4337.45" y1="3807.92" x2="16300.3" y2="11864.9" gradientUnits="userSpaceOnUse">
<stop stop-color="#F0A82C"/>
<stop offset="0.31" stop-color="#EFA42C"/>
<stop offset="0.59" stop-color="#EB992C"/>
<stop offset="0.86" stop-color="#E6872C"/>
<stop offset="1" stop-color="#E27A2C"/>
</linearGradient>
<radialGradient id="paint4_radial_1608_2049" cx="0" cy="0" r="1" gradientUnits="userSpaceOnUse" gradientTransform="translate(14928.4 2885.81) scale(7158.79 1804.92)">
<stop stop-color="#F0A82C"/>
<stop offset="0.31" stop-color="#EFA42C"/>
<stop offset="0.59" stop-color="#EB992C"/>
<stop offset="0.86" stop-color="#E6872C"/>
<stop offset="1" stop-color="#E27A2C"/>
</radialGradient>
<radialGradient id="paint5_radial_1608_2049" cx="0" cy="0" r="1" gradientUnits="userSpaceOnUse" gradientTransform="translate(49.0374 35.8302) scale(24.212 24.3697)">
<stop stop-color="#E27A2C"/>
<stop offset="0.28" stop-color="#E4802C"/>
<stop offset="0.66" stop-color="#E9932C"/>
<stop offset="1" stop-color="#F0A82C"/>
</radialGradient>
<radialGradient id="paint6_radial_1608_2049" cx="0" cy="0" r="1" gradientUnits="userSpaceOnUse" gradientTransform="translate(21743.4 163.151) scale(13096.9 2821.84)">
<stop stop-color="#F0A82C"/>
<stop offset="0.31" stop-color="#EFA42C"/>
<stop offset="0.59" stop-color="#EB992C"/>
<stop offset="0.86" stop-color="#E6872C"/>
<stop offset="1" stop-color="#E27A2C"/>
</radialGradient>
<linearGradient id="paint7_linear_1608_2049" x1="4367.33" y1="965.261" x2="25207.3" y2="965.261" gradientUnits="userSpaceOnUse">
<stop stop-color="#F0A82C"/>
<stop offset="0.31" stop-color="#EFA42C"/>
<stop offset="0.59" stop-color="#EB992C"/>
<stop offset="0.86" stop-color="#E6872C"/>
<stop offset="1" stop-color="#E27A2C"/>
</linearGradient>
<clipPath id="clip0_1608_2049">
<rect width="92" height="84.0139" fill="white" transform="translate(0 6.06946)"/>
</clipPath>
</defs>
</svg>
