<svg width="42" height="42" viewBox="0 0 42 42" fill="none" xmlns="http://www.w3.org/2000/svg">
<g clip-path="url(#clip0_414_6984)">
<path d="M33.8825 23.2771H14.1856C9.70227 23.2771 6.06787 19.6427 6.06787 15.1594C6.06787 9.23699 10.869 4.43597 16.7913 4.43597H31.2768C37.1991 4.43589 42.0002 9.2369 42.0002 15.1593C42.0002 19.6426 38.3658 23.2771 33.8825 23.2771Z" fill="url(#paint0_linear_414_6984)"/>
<path d="M33.3382 17.9931C33.9371 17.9931 34.4226 17.5077 34.4226 16.9088C34.4226 16.3099 33.9371 15.8245 33.3382 15.8245C32.7394 15.8245 32.2539 16.3099 32.2539 16.9088C32.2539 17.5077 32.7394 17.9931 33.3382 17.9931Z" fill="url(#paint1_linear_414_6984)"/>
<path d="M21.0267 13.9183C20.4279 13.9183 19.9424 14.4038 19.9424 15.0027C19.9424 15.6015 20.4279 16.087 21.0267 16.087C21.6256 16.087 22.1111 15.6015 22.1111 15.0027C22.1111 14.4037 21.6256 13.9183 21.0267 13.9183Z" fill="url(#paint2_linear_414_6984)"/>
<path d="M15.1403 11.7496C14.5414 11.7496 14.0559 12.2351 14.0559 12.834C14.0559 13.4328 14.5414 13.9183 15.1403 13.9183C15.7391 13.9183 16.2246 13.4328 16.2246 12.834C16.2246 12.2351 15.7391 11.7496 15.1403 11.7496Z" fill="url(#paint3_linear_414_6984)"/>
<path d="M13.6511 20.5779C14.791 20.5779 15.715 19.6539 15.715 18.514C15.715 17.3741 14.791 16.4501 13.6511 16.4501C12.5112 16.4501 11.5872 17.3741 11.5872 18.514C11.5872 19.6539 12.5112 20.5779 13.6511 20.5779Z" fill="url(#paint4_linear_414_6984)"/>
<path d="M40.6802 10.0013C38.8577 6.68415 35.3297 4.43591 31.2771 4.43591H16.7912C13.8307 4.43591 11.1492 5.6358 9.20901 7.57685C8.49336 8.2925 7.87901 9.1078 7.38818 10.0013C7.90371 11.8814 10.0276 13.3029 12.2165 12.173C14.6287 10.9286 17.2442 9.98733 19.6407 9.98733H28.4277C30.8242 9.98733 33.4397 10.9286 35.8518 12.173C36.1153 12.3089 36.3778 12.4078 36.6367 12.4736C37.8377 12.7784 38.6954 13.841 38.7043 15.08C38.7045 15.1063 38.7046 15.1327 38.7046 15.1591C38.7046 16.3904 38.4301 17.5574 37.9395 18.6029C37.5431 18.2877 37.0342 18.1077 36.4824 18.1348C35.3897 18.1882 34.4933 19.0728 34.4266 20.1648C34.4134 20.3808 34.4318 20.5905 34.4778 20.7897C34.6678 21.6133 34.249 22.4555 33.4586 22.7547C32.5659 23.0926 31.5981 23.2775 30.5871 23.2775H33.8829C36.1245 23.2775 38.1537 22.3684 39.6229 20.8992C41.092 19.43 42.0004 17.4008 42.0004 15.1592C42.0003 13.2897 41.5218 11.5314 40.6802 10.0013Z" fill="url(#paint5_linear_414_6984)"/>
<path d="M19.6397 7.92787H28.4271C30.8236 7.92787 33.4392 8.86867 35.8509 10.1133C39.2511 11.868 42.4956 7.46587 39.7966 4.75374C36.8748 1.81745 32.8296 0 28.36 0H19.7069C15.2373 0 11.1921 1.81745 8.27012 4.75366C5.57117 7.46579 8.81571 11.8679 12.2159 10.1132C14.6276 8.86867 17.2432 7.92787 19.6397 7.92787Z" fill="url(#paint6_linear_414_6984)"/>
<path d="M39.7976 4.75367C37.3167 2.26069 34.026 0.574098 30.3533 0.121816C30.3533 0.121816 30.3518 0.121816 30.3497 0.121898C29.6978 0.0415214 29.0344 0.000427246 28.3612 0.000427246H24.4116C22.8757 0.43278 21.6552 1.02984 20.7526 1.5816C18.8041 2.77325 17.867 4.01102 17.8283 4.0629C17.624 4.33631 17.68 4.72337 17.9534 4.9276C18.0646 5.00996 18.1939 5.05031 18.3224 5.05031C18.511 5.05031 18.6963 4.96466 18.8181 4.80243C18.8492 4.76051 21.8585 0.839604 28.4655 0.627463C29.1757 0.604651 29.8854 0.716404 30.5534 0.95811L30.5636 0.961816C25.7616 1.51638 23.4143 4.28113 23.2983 4.42122C23.0813 4.68343 23.118 5.07098 23.3795 5.28881C23.4947 5.38475 23.6347 5.43152 23.774 5.43152C23.9507 5.43152 24.1264 5.35609 24.2488 5.21016C24.2564 5.2011 25.0259 4.2948 26.557 3.47119C28.0099 2.68975 29.6244 2.241 31.3765 2.12876C32.4651 2.059 33.549 2.36527 34.4365 2.99964L34.4498 3.00919C29.4147 3.19605 26.8092 5.93972 26.6829 6.07618C26.4518 6.32596 26.4669 6.71491 26.716 6.9469C26.8347 7.0575 26.9857 7.11218 27.1364 7.11218C27.3016 7.11218 27.4665 7.04646 27.5882 6.91659C27.5963 6.90803 28.4148 6.04563 29.9892 5.30816C31.6024 4.55257 33.3821 4.19549 35.2982 4.23856C35.748 4.24869 36.1792 4.43003 36.4968 4.74882C36.4984 4.75046 36.5001 4.75211 36.5017 4.75376C38.2772 6.53793 37.4804 9.05324 35.7595 10.0662C35.7902 10.0819 35.8211 10.0975 35.8517 10.1133C39.252 11.8679 42.4965 7.46581 39.7976 4.75367Z" fill="url(#paint7_linear_414_6984)"/>
<path d="M19.7072 0.000265458C19.6968 0.000265458 19.6865 0.000265458 19.6761 0.000265458C17.9959 0.00339487 16.3781 0.654971 15.1511 1.80281C13.9068 2.96678 13.3693 3.9892 13.3232 4.07912C13.1692 4.38218 13.2894 4.75277 13.5916 4.90842C13.6814 4.95454 13.7778 4.97677 13.8733 4.97677C14.0965 4.97677 14.313 4.85407 14.4226 4.64242C14.4283 4.63171 14.9826 3.58007 16.2978 2.44277C17.6187 1.30054 19.1966 0.482771 21.0059 0.000183105H19.7072V0.000265458Z" fill="url(#paint8_linear_414_6984)"/>
<path d="M27.8146 41.9997H8.11769C3.6344 41.9997 0 38.3653 0 33.882C0 27.9596 4.80109 23.1585 10.7234 23.1585H25.2089C31.1313 23.1585 35.9323 27.9596 35.9323 33.8819C35.9323 38.3653 32.2979 41.9997 27.8146 41.9997Z" fill="url(#paint9_linear_414_6984)"/>
<path d="M27.2701 36.7156C27.869 36.7156 28.3545 36.2301 28.3545 35.6313C28.3545 35.0324 27.869 34.5469 27.2701 34.5469C26.6713 34.5469 26.1858 35.0324 26.1858 35.6313C26.1858 36.2301 26.6713 36.7156 27.2701 36.7156Z" fill="url(#paint10_linear_414_6984)"/>
<path d="M14.9586 32.641C14.3597 32.641 13.8743 33.1265 13.8743 33.7253C13.8743 34.3242 14.3597 34.8097 14.9586 34.8097C15.5575 34.8097 16.0429 34.3242 16.0429 33.7253C16.0429 33.1265 15.5575 32.641 14.9586 32.641Z" fill="url(#paint11_linear_414_6984)"/>
<path d="M9.07238 30.4722C8.47351 30.4722 7.98804 30.9577 7.98804 31.5566C7.98804 32.1554 8.47351 32.6409 9.07238 32.6409C9.67125 32.6409 10.1567 32.1554 10.1567 31.5566C10.1566 30.9577 9.67117 30.4722 9.07238 30.4722Z" fill="url(#paint12_linear_414_6984)"/>
<path d="M7.58321 39.3004C8.72309 39.3004 9.64714 38.3764 9.64714 37.2365C9.64714 36.0966 8.72309 35.1725 7.58321 35.1725C6.44334 35.1725 5.51929 36.0966 5.51929 37.2365C5.51929 38.3764 6.44334 39.3004 7.58321 39.3004Z" fill="url(#paint13_linear_414_6984)"/>
<path d="M34.6123 28.7239C32.7898 25.4067 29.2618 23.1585 25.2093 23.1585H10.7234C7.76278 23.1585 5.08137 24.3584 3.14114 26.2995C2.42549 27.0151 1.81114 27.8304 1.32031 28.7239C1.83584 30.604 3.95972 32.0255 6.14867 30.8956C8.56078 29.6512 11.1763 28.7099 13.5728 28.7099H22.3598C24.7563 28.7099 27.3718 29.6512 29.784 30.8956C30.0474 31.0315 30.3099 31.1304 30.5689 31.1962C31.7698 31.501 32.6275 32.5636 32.6364 33.8026C32.6366 33.8289 32.6367 33.8553 32.6367 33.8817C32.6367 35.113 32.3622 36.28 31.8716 37.3255C31.4752 37.0103 30.9663 36.8304 30.4145 36.8574C29.3218 36.9108 28.4254 37.7954 28.3587 38.8874C28.3455 39.1034 28.3639 39.3131 28.4099 39.5123C28.5999 40.3359 28.1811 41.1781 27.3907 41.4773C26.498 41.8152 25.5302 42.0001 24.5192 42.0001H27.815C30.0566 42.0001 32.0858 41.091 33.555 39.6218C35.0242 38.1526 35.9325 36.1234 35.9325 33.8818C35.9324 32.0123 35.454 30.254 34.6123 28.7239Z" fill="url(#paint14_linear_414_6984)"/>
<path d="M13.5726 26.6504H22.36C24.7565 26.6504 27.3722 27.5912 29.7838 28.8358C33.184 30.5904 36.4285 26.1884 33.7296 23.4762C30.8076 20.54 26.7625 18.7226 22.2928 18.7226H13.6398C9.17013 18.7226 5.12495 20.54 2.20299 23.4762C-0.495967 26.1884 2.74857 30.5904 6.14876 28.8358C8.56047 27.5912 11.1761 26.6504 13.5726 26.6504Z" fill="url(#paint15_linear_414_6984)"/>
<path d="M33.7299 23.4761C31.249 20.983 27.9584 19.2965 24.2857 18.8442C24.2857 18.8442 24.2842 18.8442 24.2821 18.8443C23.6302 18.7639 22.9668 18.7228 22.2936 18.7228H18.3439C16.808 19.1552 15.5876 19.7523 14.685 20.304C12.7365 21.4957 11.7993 22.7334 11.7606 22.7853C11.5564 23.0587 11.6124 23.4458 11.8858 23.65C11.997 23.7324 12.1263 23.7727 12.2547 23.7727C12.4433 23.7727 12.6286 23.6871 12.7505 23.5249C12.7816 23.4829 15.7909 19.562 22.3979 19.3499C23.108 19.3271 23.8178 19.4388 24.4858 19.6805L24.496 19.6842C19.694 20.2388 17.3466 23.0036 17.2307 23.1436C17.0137 23.4059 17.0504 23.7934 17.3119 24.0112C17.4271 24.1072 17.5671 24.1539 17.7063 24.1539C17.8831 24.1539 18.0588 24.0785 18.1812 23.9326C18.1888 23.9235 18.9583 23.0172 20.4894 22.1936C21.9423 21.4122 23.5568 20.9634 25.3088 20.8512C26.3975 20.7814 27.4814 21.0877 28.3688 21.7221L28.3822 21.7316C23.3471 21.9185 20.7416 24.6621 20.6153 24.7986C20.3841 25.0484 20.3993 25.4373 20.6483 25.6693C20.7671 25.7799 20.918 25.8346 21.0687 25.8346C21.2339 25.8346 21.3989 25.7689 21.5205 25.639C21.5287 25.6305 22.3472 24.7681 23.9216 24.0306C25.5347 23.275 27.3145 22.9179 29.2306 22.961C29.6804 22.9711 30.1116 23.1525 30.4291 23.4712L30.4341 23.4762C32.2096 25.2604 31.4128 27.7757 29.6918 28.7886C29.7226 28.8043 29.7534 28.8199 29.7841 28.8357C33.1843 30.5903 36.4288 26.1882 33.7299 23.4761Z" fill="url(#paint16_linear_414_6984)"/>
<path d="M13.6395 18.7229C13.6292 18.7229 13.6189 18.7229 13.6085 18.7229C11.9282 18.726 10.3105 19.3776 9.08344 20.5254C7.83917 21.6894 7.30166 22.7118 7.25554 22.8017C7.10154 23.1048 7.22177 23.4753 7.52401 23.631C7.61377 23.6771 7.71013 23.6993 7.80566 23.6993C8.02883 23.6993 8.24542 23.5766 8.35495 23.365C8.36071 23.3543 8.91495 22.3026 10.2301 21.1654C11.5511 20.0231 13.1289 19.2054 14.9382 18.7228H13.6395V18.7229Z" fill="url(#paint17_linear_414_6984)"/>
</g>
<defs>
<linearGradient id="paint0_linear_414_6984" x1="7.03428" y1="13.8565" x2="41.1286" y2="13.8565" gradientUnits="userSpaceOnUse">
<stop stop-color="#F8F6F7"/>
<stop offset="0.1788" stop-color="#F8F6F7"/>
<stop offset="1" stop-color="#E7E6F5"/>
</linearGradient>
<linearGradient id="paint1_linear_414_6984" x1="2.10117" y1="16.9088" x2="41.7269" y2="16.9088" gradientUnits="userSpaceOnUse">
<stop stop-color="#F8F6F7"/>
<stop offset="1" stop-color="#D1CEEB"/>
</linearGradient>
<linearGradient id="paint2_linear_414_6984" x1="2.10138" y1="15.0026" x2="41.7271" y2="15.0026" gradientUnits="userSpaceOnUse">
<stop stop-color="#F8F6F7"/>
<stop offset="1" stop-color="#D1CEEB"/>
</linearGradient>
<linearGradient id="paint3_linear_414_6984" x1="2.10056" y1="12.834" x2="41.7264" y2="12.834" gradientUnits="userSpaceOnUse">
<stop stop-color="#F8F6F7"/>
<stop offset="1" stop-color="#D1CEEB"/>
</linearGradient>
<linearGradient id="paint4_linear_414_6984" x1="2.10074" y1="18.514" x2="41.7266" y2="18.514" gradientUnits="userSpaceOnUse">
<stop stop-color="#F8F6F7"/>
<stop offset="1" stop-color="#D1CEEB"/>
</linearGradient>
<linearGradient id="paint5_linear_414_6984" x1="2.10088" y1="13.8567" x2="41.7267" y2="13.8567" gradientUnits="userSpaceOnUse">
<stop stop-color="#F8F6F7"/>
<stop offset="1" stop-color="#D1CEEB"/>
</linearGradient>
<linearGradient id="paint6_linear_414_6984" x1="7.94697" y1="5.25741" x2="48.2598" y2="5.25741" gradientUnits="userSpaceOnUse">
<stop stop-color="#FE646F"/>
<stop offset="0.593" stop-color="#FB2B3A"/>
<stop offset="1" stop-color="#C41926"/>
</linearGradient>
<linearGradient id="paint7_linear_414_6984" x1="-1.15245" y1="5.25759" x2="38.1685" y2="5.25759" gradientUnits="userSpaceOnUse">
<stop stop-color="#FE646F"/>
<stop offset="0.593" stop-color="#FB2B3A"/>
<stop offset="1" stop-color="#C41926"/>
</linearGradient>
<linearGradient id="paint8_linear_414_6984" x1="-1.15275" y1="2.48856" x2="38.1681" y2="2.48856" gradientUnits="userSpaceOnUse">
<stop stop-color="#FE646F"/>
<stop offset="0.593" stop-color="#FB2B3A"/>
<stop offset="1" stop-color="#C41926"/>
</linearGradient>
<linearGradient id="paint9_linear_414_6984" x1="0.966412" y1="32.5791" x2="35.0609" y2="32.5791" gradientUnits="userSpaceOnUse">
<stop stop-color="#F8F6F7"/>
<stop offset="0.1788" stop-color="#F8F6F7"/>
<stop offset="1" stop-color="#E7E6F5"/>
</linearGradient>
<linearGradient id="paint10_linear_414_6984" x1="-3.96699" y1="35.6313" x2="35.6588" y2="35.6313" gradientUnits="userSpaceOnUse">
<stop stop-color="#F8F6F7"/>
<stop offset="1" stop-color="#D1CEEB"/>
</linearGradient>
<linearGradient id="paint11_linear_414_6984" x1="-3.96675" y1="33.7253" x2="35.659" y2="33.7253" gradientUnits="userSpaceOnUse">
<stop stop-color="#F8F6F7"/>
<stop offset="1" stop-color="#D1CEEB"/>
</linearGradient>
<linearGradient id="paint12_linear_414_6984" x1="-3.96739" y1="31.5566" x2="35.6584" y2="31.5566" gradientUnits="userSpaceOnUse">
<stop stop-color="#F8F6F7"/>
<stop offset="1" stop-color="#D1CEEB"/>
</linearGradient>
<linearGradient id="paint13_linear_414_6984" x1="-3.9671" y1="37.2366" x2="35.6586" y2="37.2366" gradientUnits="userSpaceOnUse">
<stop stop-color="#F8F6F7"/>
<stop offset="1" stop-color="#D1CEEB"/>
</linearGradient>
<linearGradient id="paint14_linear_414_6984" x1="-3.96708" y1="32.5793" x2="35.6587" y2="32.5793" gradientUnits="userSpaceOnUse">
<stop stop-color="#F8F6F7"/>
<stop offset="1" stop-color="#D1CEEB"/>
</linearGradient>
<linearGradient id="paint15_linear_414_6984" x1="1.87983" y1="23.98" x2="42.1927" y2="23.98" gradientUnits="userSpaceOnUse">
<stop stop-color="#FBC56D"/>
<stop offset="0.5841" stop-color="#FE9738"/>
<stop offset="0.9984" stop-color="#FB2B3A"/>
</linearGradient>
<linearGradient id="paint16_linear_414_6984" x1="0.31563" y1="23.98" x2="36.1093" y2="23.98" gradientUnits="userSpaceOnUse">
<stop stop-color="#FBC56D"/>
<stop offset="0.5841" stop-color="#FE9738"/>
<stop offset="0.9984" stop-color="#FB2B3A"/>
</linearGradient>
<linearGradient id="paint17_linear_414_6984" x1="0.315329" y1="21.2111" x2="36.109" y2="21.2111" gradientUnits="userSpaceOnUse">
<stop stop-color="#FBC56D"/>
<stop offset="0.5841" stop-color="#FE9738"/>
<stop offset="0.9984" stop-color="#FB2B3A"/>
</linearGradient>
<clipPath id="clip0_414_6984">
<rect width="42" height="42" fill="white"/>
</clipPath>
</defs>
</svg>
