<svg width="42" height="32" viewBox="0 0 42 32" fill="none" xmlns="http://www.w3.org/2000/svg">
<g clip-path="url(#clip0_678_3738)">
<path d="M1.01855 10.0762C1.19414 12.96 8.39313 15.4963 20.5788 15.4963C33.1858 15.4963 40.0336 13.5854 40.139 10.0762C40.2443 6.56692 33.4316 4.03055 20.8597 4.06529C10.3246 4.10004 1.47508 4.82968 1.01855 10.0762Z" fill="#F7D3B0"/>
<path d="M1.86133 10.0415C2.03691 12.6126 8.91986 14.871 20.5787 14.871C32.6239 14.871 39.1908 13.1686 39.2961 10.0415C39.4015 6.91448 32.8697 4.62132 20.8597 4.69081C10.7459 4.72555 2.28273 5.3857 1.86133 10.0415Z" fill="#E2BFA3"/>
<path d="M1.86133 10.0415C2.0018 12.0914 6.42655 13.9677 14.2225 14.6278C13.8011 14.3499 13.4148 14.0372 12.9934 13.7245C10.6055 11.8135 8.67404 9.31186 7.44494 6.49753C7.33959 6.25431 7.23424 6.0111 7.12889 5.76788C4.03859 6.53227 2.07203 7.85257 1.86133 10.0415Z" fill="#CEAD97"/>
<path d="M10.6053 13.0295C10.4648 12.8905 10.2892 12.7516 10.1839 12.5431C10.0785 12.3346 10.0434 12.1262 10.0083 11.9177C9.86784 11.327 9.41132 10.8406 8.81433 10.6321C8.67386 10.5626 8.49828 10.5279 8.39293 10.4237C8.28758 10.2847 8.28758 10.1457 8.28758 9.97198C8.21734 9.34658 7.76082 8.8254 7.16383 8.61693C6.98824 8.54744 6.77754 8.5127 6.63707 8.40846C6.2859 8.16525 6.35614 7.64408 6.14544 7.26188C6.04008 7.05342 5.82938 6.91444 5.6538 6.74071C5.33774 6.4975 5.02169 6.21954 4.70564 5.97633C4.38958 5.69837 4.03841 5.45515 3.61701 5.38566C3.40631 5.35092 3.16049 5.38566 2.9849 5.24668C2.80932 5.14245 2.7742 4.93398 2.66885 4.76026C2.28256 3.99587 1.1237 3.7874 0.456473 4.34332C-0.210751 4.89923 -0.210751 6.04581 0.456473 6.60173C-4.8995e-05 6.98393 -0.035166 7.71357 0.210653 8.23474C0.456473 8.75591 0.948111 9.17285 1.43975 9.5203C1.5451 9.62453 1.68557 9.69402 1.7558 9.833C1.86115 10.0415 1.82604 10.2499 1.82604 10.4584C1.82604 11.4313 2.5635 12.3694 3.54677 12.5778L11.0618 15.4617C11.413 14.6625 11.2023 13.6549 10.6053 13.0295Z" fill="#6FB56B"/>
<path d="M8.84946 7.57466C8.42806 7.05349 8.04177 6.53232 7.79595 5.94165C7.55013 5.35099 7.47989 4.62135 7.72571 4.03069C7.79595 3.89171 7.9013 3.71798 7.9013 3.579C7.93642 3.37054 7.86618 3.19681 7.83107 2.98834C7.6906 2.29345 7.97153 1.5638 8.49829 1.11212C9.02505 0.660438 9.79762 0.521458 10.4648 0.764672C10.8862 0.417224 11.5184 0.347734 12.01 0.590948C12.5016 0.834162 12.8177 1.39008 12.7826 1.91125C13.3093 1.77227 13.8361 2.11972 14.117 2.5714C14.398 3.02309 14.4331 3.579 14.4682 4.10018C15.2408 4.06543 16.0133 4.41288 16.505 5.00354C16.9615 5.59421 17.1371 6.46283 16.8913 7.19247C17.6287 7.78313 18.3311 8.47803 18.5067 9.41614C18.6822 10.3195 18.0852 11.4313 17.1371 11.4661C17.6638 11.5008 17.9097 12.1957 17.6638 12.6822C17.4531 13.1338 16.9264 13.4118 16.4699 13.6203C15.4866 14.0372 14.4682 14.3152 13.4147 14.4541C12.7826 14.5236 12.1505 14.5584 11.5535 14.3499C10.2541 13.8635 9.65715 12.4737 9.20063 11.2924C8.74411 10.25 7.44478 8.44328 8.84946 7.57466Z" fill="#81CC7A"/>
<path d="M27.1807 4.76028C27.5318 4.2391 28.2342 3.99589 28.8312 4.16962C28.9014 3.40523 29.5335 2.74508 30.271 2.64084C31.0084 2.53661 31.8161 2.98829 32.1322 3.68319C32.6238 3.30099 33.3964 3.75268 33.5369 4.34334C33.6773 4.934 33.3613 5.55941 32.975 6.04584C33.4666 6.18482 33.7124 6.81022 33.6422 7.29665C33.572 7.78308 33.2559 8.23476 32.9399 8.68645C33.6071 9.17287 33.7124 10.1805 33.3261 10.8754C32.9399 11.5703 32.0971 11.9872 31.2894 12.022C30.4465 12.0567 29.7442 11.7092 28.9716 11.3618C26.3379 14.5583 22.8613 7.08818 27.2158 6.53226C26.8997 5.97635 26.8295 5.28145 27.1807 4.76028Z" fill="#6FB56B"/>
<path d="M30.8329 7.85232C31.1841 7.26166 31.6055 6.74049 32.1322 6.32355C32.5185 6.01085 32.975 5.80238 33.4316 5.59391C34.6607 5.00325 36.1707 4.37784 37.3296 5.07274C37.5403 5.21172 37.751 5.3507 37.9617 5.48968C38.4533 5.73289 39.0503 5.6634 39.6122 5.6634C40.174 5.6634 40.771 5.73289 41.2275 6.04559C41.7192 6.3583 42.0352 6.87947 42.0001 7.43539C41.965 7.71335 41.8245 7.9913 41.8245 8.30401C41.8245 8.54722 41.9299 8.79044 41.965 9.06839C42.0704 9.6938 41.6489 10.4234 40.9817 10.5277C40.771 10.5624 40.5252 10.5277 40.2794 10.5624C39.261 10.7014 38.8396 11.987 37.9265 12.3692C37.6456 12.4734 37.3647 12.5081 37.0837 12.5776C36.8028 12.6819 36.5219 12.8208 36.2409 12.9598C34.4851 13.7589 32.2025 13.342 30.868 11.9522C29.674 10.6667 30.0252 9.17263 30.8329 7.85232Z" fill="#81CC7A"/>
<path d="M27.4964 12.543C27.6017 12.5778 27.672 12.6125 27.7773 12.5778C27.8827 12.543 27.9178 12.4041 27.9529 12.2998C28.1636 11.6744 28.9362 11.2922 29.6034 11.5007C29.7439 11.5354 29.8844 11.6049 30.0248 11.6049C30.2355 11.5702 30.376 11.3965 30.5516 11.2922C30.973 10.9795 31.6051 11.0143 31.9914 11.3617C32.0967 11.466 32.2021 11.5702 32.3074 11.6397C32.4479 11.7092 32.6235 11.6744 32.7639 11.7439C33.2907 11.8829 33.3961 12.6473 33.9228 12.7863C34.274 12.2303 35.1168 12.1261 35.6787 12.5083C36.2405 12.8905 36.4512 13.5854 36.4161 14.2455C36.3108 15.7048 34.871 16.9209 33.4312 16.8167C32.7639 16.7819 32.1318 16.4692 31.4646 16.4692C30.8325 16.4692 30.2355 16.7472 29.6385 16.9556C28.1987 17.5116 26.7589 17.3378 26.3375 15.7048C26.0566 14.7667 25.6703 12.1261 27.4964 12.543Z" fill="#6FB56B"/>
<path d="M28.7255 4.76025C28.7255 4.76025 27.1452 7.78305 31.2539 9.55504C35.3626 11.327 36.5215 7.88729 36.5215 7.88729L28.7255 4.76025Z" fill="#E24C24"/>
<path d="M36.4503 7.95577C36.8019 7.12369 35.3609 5.73498 33.2315 4.85401C31.1022 3.97304 29.091 3.9334 28.7393 4.76548C28.3876 5.59756 29.8287 6.98626 31.958 7.86724C34.0873 8.74821 36.0986 8.78785 36.4503 7.95577Z" fill="#FF5A27"/>
<path d="M36.1263 7.82154C36.4331 7.09568 35.1006 5.8531 33.1503 5.04616C31.1999 4.23922 29.3701 4.17348 29.0633 4.89934C28.7565 5.6252 30.0889 6.86778 32.0393 7.67472C33.9897 8.48166 35.8195 8.54739 36.1263 7.82154Z" fill="#FF8B78"/>
<path d="M31.4295 5.28137C31.2539 5.28137 31.0432 5.31612 31.008 5.48984C30.9729 5.55933 30.9729 5.62882 30.9378 5.69831C30.9027 5.7678 30.8325 5.7678 30.7973 5.83729C30.7622 5.87203 30.7973 5.94152 30.7973 5.97627C30.8676 6.28897 31.2188 6.42795 31.5348 6.49744C32.3074 6.74066 33.0799 7.01861 33.8525 7.26183C34.0632 7.33132 34.309 7.40081 34.4495 7.26183C34.59 7.15759 34.59 6.94912 34.5197 6.7754C34.4495 6.60168 34.309 6.49744 34.1686 6.39321C33.7472 6.0805 33.2907 5.7678 32.799 5.59408C32.3776 5.4551 31.9562 5.28137 31.4295 5.28137Z" fill="#FF5A27"/>
<path d="M29.744 5.21166C29.8845 5.24641 30.025 5.3159 30.1654 5.35064C30.2005 5.35064 30.2357 5.35064 30.2357 5.3159C30.2708 5.3159 30.2708 5.28115 30.2708 5.24641C30.2708 5.17692 30.2357 5.14217 30.1654 5.10743C30.1303 5.10743 30.0601 5.07268 30.025 5.07268H30.0601C29.9547 5.03794 29.8845 5.03794 29.7791 5.00319C29.7089 4.96845 29.6387 5.00319 29.6387 5.07268C29.6738 5.10743 29.6738 5.21166 29.744 5.21166Z" fill="#FFB164"/>
<path d="M30.2358 4.93388C30.3762 5.00337 30.4816 4.7949 30.3411 4.72541C30.2006 4.65592 30.0953 4.86439 30.2358 4.93388Z" fill="#FFB164"/>
<path d="M30.2358 4.93376C30.306 4.96851 30.3762 5.00325 30.4816 5.038C30.5167 5.038 30.5518 5.038 30.5869 5.038C30.622 5.038 30.6572 5.00325 30.6572 4.96851C30.6572 4.93376 30.6572 4.89902 30.6572 4.86428C30.6572 4.82953 30.622 4.82953 30.5869 4.79479C30.5167 4.76004 30.4465 4.7253 30.3411 4.69055C30.306 4.69055 30.2709 4.69055 30.2358 4.69055C30.2006 4.69055 30.1655 4.7253 30.1655 4.76004C30.1655 4.79479 30.1655 4.82953 30.1655 4.86428C30.2006 4.89902 30.2006 4.89902 30.2358 4.93376Z" fill="#FFB164"/>
<path d="M31.1489 4.69051C31.1489 4.72525 31.1489 4.72525 31.1489 4.76C31.1489 4.79474 31.1489 4.79474 31.184 4.82949C31.2192 4.86423 31.2192 4.89898 31.2894 4.93372C31.2894 4.93372 31.3245 4.93372 31.3245 4.96847H31.3596H31.3947C31.3947 4.96847 31.4299 4.96847 31.4299 4.93372V4.89898C31.4299 4.86423 31.4299 4.86423 31.4299 4.82949C31.4299 4.79474 31.3947 4.76 31.3947 4.76C31.3947 4.76 31.3947 4.76 31.4299 4.79474L31.3947 4.76C31.3947 4.76 31.3947 4.76 31.3947 4.79474C31.3947 4.79474 31.3947 4.76 31.3596 4.76V4.79474V4.76V4.79474V4.76C31.3596 4.76 31.3596 4.72525 31.3245 4.72525L31.2894 4.69051H31.2543C31.2192 4.69051 31.184 4.69051 31.184 4.72525C31.184 4.65577 31.1489 4.69051 31.1489 4.69051Z" fill="#FFB164"/>
<path d="M31.9565 4.89923C31.9565 4.93398 31.9214 4.96872 31.9214 5.03821V5.07296C31.9214 5.07296 31.9214 5.1077 31.9565 5.1077L31.9916 5.14245H32.0267C32.0619 5.14245 32.097 5.14245 32.097 5.1077C32.097 5.1077 32.097 5.1077 32.1321 5.07296C32.1321 5.07296 32.1672 5.03821 32.1672 5.00347C32.1672 4.96872 32.2023 4.93398 32.2023 4.86449V4.82974C32.2023 4.82974 32.2023 4.795 32.1672 4.795L32.1321 4.76025H32.097C32.0619 4.76025 32.0267 4.76025 32.0267 4.795C32.0267 4.795 32.0267 4.795 31.9916 4.82974C31.9565 4.86449 31.9565 4.86449 31.9565 4.89923Z" fill="#FFB164"/>
<path d="M33.326 5.62873C33.3611 5.59398 33.4314 5.59398 33.4665 5.55924C33.4665 5.55924 33.5016 5.55924 33.5016 5.52449L33.5367 5.48975V5.455V5.42026C33.5367 5.42026 33.5367 5.42026 33.5367 5.38551L33.5016 5.35077H33.4665C33.4314 5.35077 33.4314 5.35077 33.3963 5.35077C33.3611 5.38551 33.2909 5.38551 33.2558 5.42026C33.2558 5.42026 33.2207 5.42026 33.2207 5.455L33.1855 5.48975V5.52449V5.55924C33.1855 5.55924 33.1855 5.55924 33.1855 5.59398L33.2207 5.62873H33.2558C33.2909 5.62873 33.326 5.62873 33.326 5.62873Z" fill="#FFB164"/>
<path d="M34.2391 6.18479C34.3094 6.18479 34.3796 6.21953 34.485 6.21953C34.5201 6.21953 34.5552 6.21953 34.5552 6.18479C34.5903 6.18479 34.5903 6.15004 34.5903 6.1153C34.5903 6.08055 34.5903 6.04581 34.5552 6.04581C34.5201 6.01106 34.5201 6.01106 34.485 6.01106C34.4147 6.01106 34.3445 5.97632 34.2391 5.97632C34.204 5.97632 34.1689 5.97632 34.1689 6.01106C34.1338 6.01106 34.1338 6.04581 34.1338 6.08055C34.1338 6.1153 34.1338 6.15004 34.1689 6.15004C34.204 6.15004 34.204 6.18479 34.2391 6.18479Z" fill="#FFB164"/>
<path d="M34.8711 6.7752C34.9765 6.84469 35.1169 6.87943 35.2223 6.87943C35.2574 6.87943 35.2925 6.87944 35.2925 6.84469C35.3276 6.84469 35.3276 6.80995 35.3276 6.7752C35.3276 6.74046 35.3276 6.70571 35.2925 6.70571C35.2574 6.67097 35.2574 6.67097 35.2223 6.67097C35.1872 6.67097 35.1872 6.67097 35.1521 6.67097H35.1872C35.1169 6.63622 35.0116 6.60148 34.9414 6.56673C34.8711 6.53199 34.8009 6.56673 34.8009 6.63622C34.7658 6.67097 34.8009 6.74046 34.8711 6.7752Z" fill="#FFB164"/>
<path d="M35.0821 7.43552C35.1875 7.50501 35.2577 7.5745 35.363 7.64399C35.3982 7.67873 35.4333 7.67873 35.4333 7.67873C35.4684 7.67873 35.5035 7.64399 35.5035 7.64399C35.5386 7.60924 35.5386 7.50501 35.4684 7.47027C35.363 7.40078 35.2928 7.33129 35.1875 7.2618C35.1523 7.22705 35.1172 7.22705 35.1172 7.22705C35.0821 7.22705 35.047 7.2618 35.047 7.2618C35.0119 7.33129 35.0119 7.40078 35.0821 7.43552Z" fill="#FFB164"/>
<path d="M34.4497 7.60915C34.4848 7.67864 34.5199 7.74813 34.555 7.81762C34.555 7.81762 34.555 7.85236 34.5902 7.85236L34.6253 7.88711C34.6604 7.88711 34.6955 7.88711 34.7306 7.88711C34.7657 7.88711 34.7657 7.85236 34.8009 7.81762C34.8009 7.78287 34.8009 7.74813 34.8009 7.71338C34.7657 7.64389 34.7306 7.5744 34.6955 7.50491C34.6955 7.50491 34.6955 7.47017 34.6604 7.47017L34.6253 7.43542C34.5902 7.43542 34.555 7.43542 34.5199 7.43542C34.4848 7.43542 34.4848 7.47017 34.4497 7.50491C34.4497 7.53966 34.4146 7.5744 34.4497 7.60915Z" fill="#FFB164"/>
<path d="M33.5366 7.60915V7.64389C33.5366 7.64389 33.5366 7.64389 33.5366 7.60915C33.5366 7.64389 33.5366 7.67864 33.5366 7.67864V7.64389C33.5366 7.64389 33.5366 7.64389 33.5366 7.67864V7.71338V7.74813C33.5366 7.74813 33.5366 7.78287 33.5717 7.78287L33.6068 7.81762C33.642 7.81762 33.6771 7.81762 33.7122 7.81762C33.7473 7.81762 33.7824 7.78287 33.7824 7.74813C33.7824 7.71338 33.8175 7.67864 33.8175 7.64389C33.8175 7.60915 33.8175 7.5744 33.8175 7.53966C33.8175 7.50491 33.7824 7.47017 33.7824 7.47017C33.7824 7.47017 33.7473 7.47017 33.7473 7.43542H33.7122C33.6771 7.43542 33.642 7.47017 33.642 7.47017V7.50491C33.5366 7.5744 33.5015 7.60915 33.5366 7.60915Z" fill="#FFB164"/>
<path d="M32.3076 7.29654C32.3076 7.33129 32.3076 7.33129 32.3076 7.36603V7.33129C32.3076 7.36603 32.2725 7.40077 32.2725 7.40077V7.43552V7.47026C32.2725 7.50501 32.3076 7.53975 32.3427 7.53975C32.3778 7.53975 32.4129 7.53975 32.448 7.53975C32.448 7.53975 32.448 7.53975 32.4832 7.53975L32.5183 7.50501C32.5183 7.47027 32.5534 7.43552 32.5534 7.43552C32.5534 7.40078 32.5885 7.36603 32.5885 7.33129C32.5885 7.29654 32.5885 7.2618 32.5534 7.2618L32.5183 7.22705H32.4832C32.448 7.22705 32.4129 7.22705 32.4129 7.2618C32.3076 7.22705 32.3076 7.2618 32.3076 7.29654Z" fill="#FFB164"/>
<path d="M31.4647 6.91437V6.94912V6.91437C31.4647 6.94912 31.4296 6.94912 31.4296 6.94912C31.4296 6.94912 31.4647 6.94912 31.4647 6.91437C31.4296 6.94912 31.4296 6.98386 31.3945 6.98386C31.3945 6.98386 31.3945 6.98386 31.4296 6.98386C31.4296 6.98386 31.3945 6.98386 31.3945 7.01861C31.3945 7.01861 31.3593 7.01861 31.3593 7.05335L31.3242 7.08809C31.3242 7.12284 31.3242 7.15758 31.3242 7.19233C31.3242 7.22707 31.3593 7.22707 31.3945 7.26182H31.4296C31.4647 7.26182 31.4647 7.26182 31.4998 7.26182C31.5349 7.26182 31.5349 7.22707 31.57 7.22707L31.6052 7.19233C31.6403 7.15758 31.6403 7.15758 31.6403 7.12284C31.6403 7.0881 31.6754 7.08809 31.6754 7.05335C31.6754 7.01861 31.6754 6.98386 31.6754 6.94912C31.6754 6.91437 31.6403 6.87963 31.6052 6.87963C31.57 6.87963 31.5349 6.87963 31.4998 6.87963C31.4998 6.84488 31.4647 6.87963 31.4647 6.91437Z" fill="#FFB164"/>
<path d="M30.7276 6.18448C30.6925 6.18448 30.6574 6.21922 30.6223 6.21922H30.6574C30.5872 6.21922 30.5521 6.25397 30.4818 6.25397C30.4467 6.25397 30.4116 6.28871 30.4116 6.28871C30.3765 6.32346 30.3765 6.3582 30.3765 6.3582C30.3765 6.39295 30.4116 6.42769 30.4116 6.42769H30.4467C30.4818 6.42769 30.4818 6.42769 30.5169 6.42769C30.6223 6.42769 30.7276 6.39295 30.833 6.3582C30.8681 6.3582 30.8681 6.32346 30.9032 6.28871C30.9032 6.25397 30.9032 6.21922 30.9032 6.18448C30.9032 6.14973 30.8681 6.14974 30.833 6.11499C30.7979 6.18448 30.7628 6.18448 30.7276 6.18448Z" fill="#FFB164"/>
<path d="M29.7791 5.83703C29.8143 5.83703 29.8494 5.80228 29.8845 5.80228C29.8845 5.80228 29.9196 5.80228 29.9196 5.76754L29.9547 5.73279V5.69805V5.6633C29.9547 5.6633 29.9547 5.6633 29.9547 5.62856L29.9196 5.59381H29.8845C29.8494 5.59381 29.8494 5.59381 29.8143 5.59381C29.7791 5.59381 29.744 5.62856 29.7089 5.62856C29.7089 5.62856 29.6738 5.62856 29.6738 5.6633L29.6387 5.69805V5.73279V5.76754C29.6387 5.76754 29.6387 5.76754 29.6387 5.80228L29.6738 5.83703H29.7089C29.744 5.83703 29.744 5.83703 29.7791 5.83703Z" fill="#FFB164"/>
<path opacity="0.24" d="M29.1472 7.57437C29.3228 7.81759 29.4633 8.0608 29.7442 8.16504C29.8496 8.19978 29.9549 8.23453 30.0252 8.13029C30.0603 8.0608 30.0252 7.95657 29.99 7.88708C29.8847 7.7481 29.7793 7.57437 29.7442 7.40065C29.674 7.08795 29.6037 6.4278 29.1121 6.4278C28.5853 6.46254 29.0068 7.40065 29.1472 7.57437Z" fill="white"/>
<path d="M16.3997 10.0066C16.0485 9.277 16.0134 8.37363 16.505 7.71348C16.9264 7.15756 17.6288 6.84486 18.296 6.5669C17.4181 5.76777 17.2074 4.41272 17.8044 3.40512C18.4013 2.39752 19.7358 1.8416 20.9298 2.08481C20.6488 1.21619 21.3863 0.243337 22.3696 0.0348675C23.3177 -0.173602 24.3712 0.312826 24.898 1.07721C25.5652 0.695019 26.5485 0.833999 27.0401 1.38992C27.5318 1.98058 27.4967 2.88394 26.9348 3.40512C27.8829 4.20425 27.9883 5.69828 27.1455 6.60164C27.6722 7.01858 27.9532 7.64399 27.8478 8.26939C27.7776 8.8948 27.3562 9.45072 26.7592 9.76342C26.8997 10.1804 27.005 10.632 26.7943 11.0142C26.5485 11.4659 25.9515 11.6396 25.4248 11.6396C24.898 11.6396 24.3361 11.5354 23.8094 11.6396C24.0201 12.1261 23.5987 12.682 23.0719 12.8905C22.5452 13.0989 21.9482 13.0294 21.3863 12.9947C20.7542 12.9252 20.1221 12.8557 19.4549 12.821C19.1037 12.7862 18.7174 12.7515 18.4365 12.543C18.0853 12.2998 17.9799 11.7439 17.6639 11.4312C17.2074 10.9795 16.7157 10.632 16.3997 10.0066Z" fill="#89E269"/>
<path d="M28.3041 10.0065L28.2339 11.2573C28.2339 11.2573 28.866 13.0293 31.6051 13.3767C34.6603 13.7589 36.9078 12.786 36.9429 10.9793C36.9429 10.6666 36.5566 9.90222 36.5566 9.90222L28.269 9.97171L28.3041 10.0065Z" fill="#59B24F"/>
<path d="M36.6002 10.3522C36.6614 9.18316 34.8582 8.14045 32.5726 8.02322C30.2871 7.90599 28.3846 8.75862 28.3233 9.92763C28.2621 11.0966 30.0652 12.1393 32.3508 12.2566C34.6364 12.3738 36.5389 11.5212 36.6002 10.3522Z" fill="#84D17D"/>
<path d="M36.3463 10.2845C36.3814 11.1879 34.6958 11.987 32.5536 11.9176C30.4466 11.8481 28.5854 10.8752 28.5503 9.97185C28.5152 9.06848 30.3764 8.16511 32.4834 8.2346C34.6255 8.33884 36.3112 9.38118 36.3463 10.2845Z" fill="#B0EDA9"/>
<path d="M30.095 9.79793C30.0248 9.72844 29.9546 9.65895 29.9194 9.58946C29.9194 9.45048 30.095 9.38099 30.2355 9.38099C30.5515 9.34625 30.8325 9.41574 31.1134 9.51997C31.0081 9.41574 30.9378 9.27676 30.9027 9.17252C30.9027 9.13778 30.8676 9.10303 30.9027 9.10303C30.9378 9.03354 31.0081 9.03354 31.0783 9.06829C31.3944 9.20727 31.7104 9.38099 32.0265 9.58946C31.9562 9.45048 31.886 9.3115 31.8509 9.17252C31.8509 9.03354 31.886 8.85982 32.0265 8.79033C32.202 8.6861 32.4127 8.79033 32.5532 8.92931C32.6937 9.06829 32.7639 9.27676 32.799 9.45048C33.0449 9.24201 33.396 9.13778 33.7472 9.17252C33.8174 9.17252 33.9228 9.20727 33.9579 9.27676C34.0281 9.38099 33.9228 9.48523 33.8174 9.55472C34.2037 9.45048 34.6602 9.55472 34.9763 9.83268C35.0114 9.86742 35.0465 9.90217 35.0465 9.97166C35.0465 10.0064 35.0114 10.0411 35.0114 10.0411C34.8709 10.2149 34.6602 10.3191 34.4495 10.3538C34.2388 10.3886 33.993 10.3886 33.7823 10.3886C33.993 10.4581 34.2037 10.5623 34.4144 10.7013C34.4495 10.7013 34.4495 10.736 34.4847 10.7708C34.4847 10.8055 34.4847 10.8055 34.4495 10.8403C34.3091 11.0835 33.993 11.153 33.7121 11.0487C33.4311 10.9793 33.2204 10.8055 32.9746 10.6318C33.08 10.7708 33.1853 10.9445 33.1502 11.1182C33.1151 11.292 32.9746 11.4309 32.799 11.3962C32.7288 11.3614 32.6586 11.3267 32.6234 11.2572C32.4479 11.0835 32.3074 10.875 32.2372 10.6666C32.2372 10.9445 31.9913 11.1877 31.6753 11.2225C31.6051 11.2225 31.5348 11.2225 31.4646 11.153C31.3944 11.0835 31.3944 10.9793 31.4295 10.9098C31.4646 10.8403 31.5348 10.7708 31.6051 10.7013C31.3944 10.8403 31.1485 10.9445 30.9378 10.8055C30.8676 10.7708 30.8325 10.7013 30.8325 10.6318C30.8325 10.5971 30.9027 10.5623 30.9378 10.5276C31.0432 10.4581 31.289 10.3886 31.3241 10.2844C30.8325 10.1454 30.4462 10.0759 30.095 9.79793Z" fill="#C1FFB8"/>
<path d="M14.679 16.5385L16.0486 17.5809C16.0486 17.5809 18.8229 18.4495 22.0887 16.4343C25.776 14.1759 27.0754 11.5353 25.0035 10.076C24.6523 9.83277 23.3178 9.55481 23.3178 9.55481L14.5386 16.5038L14.679 16.5385Z" fill="#59B24F"/>
<path d="M20.6665 15.5452C23.452 13.948 25.0873 11.59 24.3191 10.2784C23.5508 8.96684 20.67 9.19833 17.8844 10.7955C15.0989 12.3926 13.4636 14.7506 14.2318 16.0622C15.0001 17.3738 17.8809 17.1423 20.6665 15.5452Z" fill="#84D17D"/>
<path d="M23.5633 10.0414C24.6168 10.7363 23.774 12.7862 21.4211 14.4887C19.0683 16.1912 15.978 16.9903 14.8893 16.2954C13.8358 15.6005 14.7489 13.3769 17.0666 11.6744C19.3843 9.97186 22.5097 9.34646 23.5633 10.0414Z" fill="#B0EDA9"/>
<path d="M16.3293 14.9055C16.1888 14.9403 16.0132 14.9403 15.9079 14.8708C15.7323 14.7665 15.8377 14.5581 15.9781 14.4191C16.2591 14.1411 16.6454 13.9327 17.0668 13.7589C16.8561 13.7589 16.6102 13.7242 16.4347 13.6547C16.3995 13.6547 16.3293 13.62 16.3293 13.5852C16.2591 13.5157 16.3995 13.4462 16.5049 13.4115C16.9965 13.2378 17.5584 13.0988 18.0852 13.0293C17.8393 12.9945 17.6286 12.9598 17.453 12.8556C17.2775 12.7513 17.1721 12.5776 17.2072 12.4039C17.2775 12.1954 17.5935 12.0564 17.9096 12.0564C18.2256 12.0564 18.5066 12.1607 18.7875 12.2649C18.8226 11.8827 19.0684 11.5005 19.4547 11.2573C19.5601 11.1878 19.6654 11.1531 19.8059 11.1531C19.9815 11.1878 20.0166 11.3615 19.9815 11.5005C20.2624 11.0836 20.8945 10.8056 21.5266 10.7709C21.5969 10.7709 21.7022 10.7709 21.7724 10.8056C21.8076 10.8404 21.8076 10.8751 21.8427 10.9099C21.9129 11.1531 21.8076 11.431 21.5969 11.6395C21.4213 11.848 21.1755 12.0564 20.9296 12.2302C21.2457 12.0912 21.5969 12.0217 21.9831 11.9522C22.0183 11.9522 22.0885 11.9522 22.1236 11.9522C22.1587 11.9522 22.1587 11.9869 22.1939 12.0217C22.2992 12.3344 22.0534 12.6471 21.6671 12.8208C21.2808 12.9945 20.8243 13.0293 20.4029 13.0988C20.6838 13.0988 20.9648 13.1683 21.1403 13.342C21.3159 13.481 21.2808 13.7589 21.0701 13.8632C20.9648 13.8979 20.8243 13.9327 20.7189 13.9327C20.3326 13.9327 19.9815 13.8979 19.6303 13.7937C19.9464 14.0369 19.9815 14.4191 19.6654 14.697C19.5952 14.7665 19.4898 14.836 19.3494 14.836C19.2089 14.836 19.0684 14.7665 19.0333 14.6623C18.9631 14.5581 18.9982 14.4538 18.9982 14.3496C18.928 14.6276 18.7875 14.9403 18.4012 15.0097C18.2959 15.0445 18.1554 15.0097 18.0852 14.9403C18.05 14.9055 18.05 14.836 18.0852 14.8013C18.1203 14.6623 18.2959 14.3843 18.2256 14.2801C17.5233 14.5233 17.0316 14.8013 16.3293 14.9055Z" fill="#C1FFB8"/>
<path d="M16.5049 2.05014L15.2407 2.60606C15.2407 2.60606 13.7658 4.10009 14.6437 6.91442C15.627 10.0762 17.5935 11.8134 19.3845 10.9448C19.6654 10.8058 20.2624 10.0067 20.2624 10.0067L16.54 1.98065L16.5049 2.05014Z" fill="#59B24F"/>
<path d="M19.7994 10.3832C20.9996 9.94282 21.2673 7.70436 20.3974 5.38343C19.5275 3.06251 17.8493 1.53801 16.6492 1.97836C15.449 2.41872 15.1813 4.65718 16.0512 6.9781C16.9211 9.29902 18.5992 10.8235 19.7994 10.3832Z" fill="#84D17D"/>
<path d="M19.806 10.0414C18.9281 10.4931 17.3829 9.24231 16.505 7.15762C15.6271 5.07293 15.7675 2.74503 16.6455 2.29334C17.5234 1.84166 19.209 3.19671 20.0869 5.2814C20.9649 7.36609 20.6839 9.58976 19.806 10.0414Z" fill="#B0EDA9"/>
<path d="M17.4879 3.68316C17.523 3.57893 17.523 3.47469 17.6284 3.4052C17.7688 3.33571 17.9093 3.47469 17.9795 3.61367C18.12 3.89163 18.2253 4.20433 18.2605 4.55178C18.3307 4.4128 18.4009 4.27382 18.5063 4.16959C18.5414 4.13484 18.5414 4.13484 18.5765 4.1001C18.6467 4.1001 18.6819 4.16959 18.6819 4.27382C18.717 4.65602 18.6819 5.03821 18.5765 5.45515C18.6467 5.31617 18.7521 5.17719 18.8926 5.1077C19.033 5.03821 19.2086 5.00346 19.3491 5.1077C19.5247 5.21193 19.5247 5.48989 19.4544 5.69836C19.3842 5.90683 19.2086 6.04581 19.0682 6.18479C19.3842 6.32377 19.6651 6.60173 19.7705 6.94918C19.8056 7.01867 19.8056 7.1229 19.7705 7.19239C19.7003 7.29662 19.5247 7.26188 19.4193 7.19239C19.7003 7.50509 19.8056 8.02627 19.6651 8.4432C19.6651 8.51269 19.63 8.54744 19.5598 8.58218C19.5247 8.58218 19.4896 8.58218 19.4544 8.58218C19.2086 8.54744 19.033 8.37371 18.8926 8.19999C18.7521 7.99152 18.6467 7.78305 18.5765 7.53984C18.6116 7.78305 18.5765 8.06101 18.5414 8.30422C18.5414 8.33897 18.5414 8.37371 18.5063 8.40846C18.4712 8.40846 18.4712 8.40846 18.436 8.40846C18.1551 8.37371 17.9444 8.09576 17.8742 7.78305C17.8391 7.47035 17.9093 7.15765 17.9795 6.84494C17.9093 7.01867 17.7688 7.19239 17.5932 7.26188C17.4176 7.33137 17.2069 7.22713 17.1718 7.05341C17.1718 6.98392 17.1718 6.87969 17.2069 6.8102C17.3123 6.56698 17.4176 6.32377 17.5932 6.15004C17.3123 6.28902 16.9611 6.15004 16.8207 5.87209C16.7855 5.8026 16.7504 5.69836 16.7855 5.62887C16.8207 5.52464 16.926 5.48989 17.0314 5.48989C17.1367 5.48989 17.2069 5.52464 17.3123 5.55938C17.1016 5.4204 16.8558 5.21193 16.8909 4.93398C16.8909 4.86449 16.9611 4.76025 17.0314 4.76025C17.0665 4.76025 17.1367 4.76025 17.1718 4.795C17.2772 4.86449 17.4879 5.07295 17.5932 5.07295C17.4879 4.58653 17.3825 4.16959 17.4879 3.68316Z" fill="#C1FFB8"/>
<path d="M10.8511 11.7439C10.8511 11.7439 11.0969 15.1489 15.5216 14.5234C19.9815 13.898 19.1387 10.3541 19.1387 10.3541L10.8511 11.7439Z" fill="#E24C24"/>
<path d="M15.2504 12.6983C17.5304 12.3444 19.2642 11.3352 19.1229 10.4442C18.9816 9.55321 17.0188 9.11786 14.7387 9.4718C12.4587 9.82574 10.7249 10.8349 10.8662 11.7259C11.0075 12.6169 12.9703 13.0522 15.2504 12.6983Z" fill="#FF5A27"/>
<path d="M15.218 12.4923C17.3064 12.1681 18.8995 11.2752 18.7763 10.498C18.653 9.72075 16.8601 9.3535 14.7717 9.6777C12.6832 10.0019 11.0902 10.8948 11.2134 11.672C11.3367 12.4492 13.1296 12.8165 15.218 12.4923Z" fill="#FF8B78"/>
<path d="M13.45 10.7712C13.3095 10.8755 13.1691 11.0144 13.2042 11.1882C13.2042 11.2576 13.2744 11.3271 13.2744 11.3966C13.2744 11.4661 13.2393 11.5356 13.2393 11.6051C13.2393 11.6398 13.2744 11.7093 13.3095 11.7441C13.5554 11.9525 13.9065 11.8831 14.2226 11.8136C15.0303 11.6398 15.8029 11.4314 16.6105 11.2576C16.8212 11.2229 17.0671 11.1187 17.1022 10.9449C17.1724 10.7712 17.0671 10.5975 16.8915 10.4933C16.751 10.389 16.5754 10.3543 16.3998 10.3543C15.8731 10.2848 15.3463 10.2848 14.8196 10.389C14.3279 10.4238 13.8714 10.4933 13.45 10.7712Z" fill="#FF5A27"/>
<path d="M11.9749 11.6051C12.1154 11.5704 12.2559 11.5356 12.3963 11.5009C12.4315 11.5009 12.4315 11.4662 12.4666 11.4314C12.4666 11.3967 12.4666 11.3619 12.4666 11.3272C12.4315 11.2577 12.3612 11.2577 12.3261 11.2577C12.291 11.2577 12.2559 11.2924 12.1856 11.2924H12.2208C12.1154 11.3272 12.0452 11.3272 11.9398 11.3619C11.8696 11.3619 11.8345 11.4314 11.8345 11.5009C11.8696 11.5704 11.9047 11.6051 11.9749 11.6051Z" fill="#FFB164"/>
<path d="M12.2555 11.0838C12.396 11.049 12.3609 10.8406 12.2204 10.8406C12.0448 10.8753 12.08 11.1185 12.2555 11.0838Z" fill="#FFB164"/>
<path d="M12.2557 11.0838C12.3611 11.0838 12.4313 11.0838 12.5367 11.049C12.5718 11.049 12.6069 11.0143 12.6069 11.0143C12.6069 10.9796 12.642 10.9448 12.642 10.9448C12.642 10.9101 12.6069 10.8753 12.6069 10.8753C12.5718 10.8406 12.5367 10.8406 12.5367 10.8406C12.4313 10.8406 12.3611 10.8406 12.2557 10.8753C12.2206 10.8753 12.1855 10.9101 12.1855 10.9101C12.1855 10.9448 12.1504 10.9796 12.1504 10.9796C12.1504 11.0143 12.1855 11.049 12.1855 11.049C12.1855 11.0838 12.2206 11.0838 12.2557 11.0838Z" fill="#FFB164"/>
<path d="M12.9228 10.4238C12.9228 10.4585 12.9579 10.4585 12.9579 10.4933C12.9579 10.528 12.9931 10.528 13.0282 10.528C13.0633 10.5628 13.1335 10.5628 13.1686 10.5975H13.2038C13.2038 10.5975 13.2389 10.5975 13.2389 10.5628L13.274 10.528V10.4933V10.4585C13.274 10.4238 13.274 10.4238 13.2389 10.389C13.2038 10.3543 13.2038 10.3543 13.1686 10.3543C13.1686 10.3543 13.1686 10.3543 13.1335 10.3543H13.1686C13.1686 10.3543 13.1335 10.3543 13.1335 10.3196C13.1335 10.3196 13.1335 10.3196 13.1686 10.3196L13.1335 10.2848C13.1335 10.2848 13.1335 10.2848 13.1686 10.3196L13.1335 10.2848C13.1335 10.2848 13.1335 10.2848 13.1335 10.3196C13.1335 10.3196 13.1335 10.2848 13.0984 10.2848L13.0633 10.2501H13.0282H12.9931C12.9579 10.2501 12.9579 10.2848 12.9228 10.3196C12.8877 10.3543 12.8877 10.389 12.9228 10.4238Z" fill="#FFB164"/>
<path d="M13.6602 10.1803C13.6602 10.2151 13.6953 10.2498 13.6953 10.3193C13.6953 10.3193 13.6953 10.354 13.7304 10.354L13.7655 10.3888H13.8006H13.8357C13.8709 10.3888 13.8709 10.354 13.906 10.3193V10.2846C13.906 10.2498 13.906 10.2498 13.906 10.2151C13.906 10.1803 13.8709 10.1456 13.8709 10.0761C13.8709 10.0761 13.8709 10.0413 13.8357 10.0413L13.8006 10.0066H13.7655H13.7304C13.6953 10.0066 13.6953 10.0413 13.6602 10.0761V10.1108C13.6602 10.1456 13.6602 10.1456 13.6602 10.1803Z" fill="#FFB164"/>
<path d="M15.2405 10.0762C15.2756 10.0414 15.3107 10.0067 15.3458 9.9372C15.3458 9.9372 15.3458 9.90245 15.381 9.90245V9.86771V9.83296C15.381 9.83296 15.381 9.79822 15.3458 9.79822C15.3458 9.79822 15.3458 9.79822 15.3107 9.79822C15.2756 9.79822 15.2756 9.79822 15.2405 9.79822H15.2054C15.1703 9.79822 15.1703 9.83296 15.1703 9.83296C15.1351 9.86771 15.1 9.90245 15.0649 9.97194C15.0649 9.97194 15.0649 10.0067 15.0298 10.0067V10.0414V10.0762C15.0298 10.0762 15.0298 10.1109 15.0649 10.1109C15.0649 10.1109 15.0649 10.1109 15.1 10.1109C15.1351 10.1109 15.1351 10.1109 15.1703 10.1109H15.2054L15.2405 10.0762Z" fill="#FFB164"/>
<path d="M16.3294 10.0763C16.3996 10.0416 16.4699 10.0068 16.5401 9.9721C16.5752 9.9721 16.5752 9.93735 16.6103 9.90261C16.6103 9.86786 16.6103 9.83312 16.6103 9.79837C16.6103 9.76363 16.5752 9.76363 16.5401 9.72888C16.505 9.72888 16.4699 9.72888 16.4347 9.72888C16.3645 9.76363 16.2943 9.79837 16.224 9.83312C16.1889 9.83312 16.1889 9.86786 16.1538 9.90261C16.1538 9.93735 16.1538 9.9721 16.1538 10.0068C16.1538 10.0416 16.1889 10.0416 16.224 10.0763C16.2592 10.0763 16.2943 10.0763 16.3294 10.0763Z" fill="#FFB164"/>
<path d="M17.1722 10.25C17.3126 10.25 17.418 10.2152 17.5233 10.1805C17.5585 10.1805 17.5585 10.1457 17.5936 10.111C17.5936 10.0762 17.5936 10.0415 17.5936 10.0067C17.5936 9.972 17.5585 9.972 17.5233 9.93726C17.4882 9.93726 17.4531 9.93726 17.418 9.93726C17.3829 9.93726 17.3829 9.93726 17.3478 9.972H17.3829C17.3126 10.0067 17.2073 10.0067 17.1019 10.0067C17.0317 10.0067 16.9966 10.0762 16.9966 10.1457C17.0317 10.25 17.1019 10.2847 17.1722 10.25Z" fill="#FFB164"/>
<path d="M17.6991 10.7363C17.8045 10.7363 17.9449 10.7363 18.0503 10.7711C18.0854 10.7711 18.1205 10.7711 18.1205 10.7363C18.1556 10.7016 18.1556 10.7016 18.1556 10.6668C18.1556 10.5973 18.1205 10.5278 18.0503 10.5278C17.9449 10.5278 17.8045 10.5278 17.6991 10.4931C17.664 10.4931 17.6289 10.4931 17.6289 10.5278C17.5938 10.5626 17.5938 10.5626 17.5938 10.5973C17.5938 10.6668 17.6289 10.7363 17.6991 10.7363Z" fill="#FFB164"/>
<path d="M17.2426 11.188C17.3129 11.2228 17.3831 11.2575 17.4533 11.2922C17.4533 11.2922 17.4885 11.2922 17.4885 11.327H17.5236C17.5587 11.327 17.5938 11.2922 17.5938 11.2922C17.5938 11.2575 17.6289 11.2228 17.6289 11.2228C17.6289 11.188 17.5938 11.1533 17.5938 11.1533C17.5236 11.1185 17.4533 11.0838 17.3831 11.049C17.3831 11.049 17.348 11.049 17.348 11.0143H17.3129C17.2778 11.0143 17.2426 11.049 17.2426 11.049C17.2426 11.0838 17.2075 11.1185 17.2075 11.1185C17.2075 11.1533 17.2075 11.188 17.2426 11.188Z" fill="#FFB164"/>
<path d="M16.4697 11.6744L16.5048 11.7092C16.4697 11.7092 16.4697 11.7092 16.4697 11.6744C16.5048 11.7092 16.5048 11.7439 16.5048 11.7439V11.7092C16.5048 11.7092 16.5048 11.7092 16.5048 11.7439V11.7787C16.5048 11.7787 16.5048 11.8134 16.5399 11.8134C16.5399 11.8134 16.575 11.8134 16.575 11.8482H16.6102C16.6453 11.8482 16.6804 11.8134 16.6804 11.8134C16.6804 11.7787 16.7155 11.7439 16.7155 11.7439C16.7155 11.7092 16.7155 11.6744 16.6804 11.6397C16.6804 11.605 16.6453 11.5702 16.6102 11.5702C16.575 11.5355 16.575 11.5355 16.5399 11.5355H16.5048C16.5048 11.5355 16.4697 11.5355 16.4697 11.5702C16.4346 11.605 16.4346 11.605 16.4346 11.6397V11.6744C16.4346 11.6397 16.4346 11.6744 16.4697 11.6744Z" fill="#FFB164"/>
<path d="M15.2407 12.0219C15.2407 12.0567 15.2758 12.0567 15.2758 12.0914V12.0567C15.2758 12.0914 15.2758 12.1261 15.2758 12.1609V12.1956C15.2758 12.1956 15.2758 12.2304 15.3109 12.2304C15.346 12.2304 15.3812 12.2651 15.3812 12.2651C15.4163 12.2651 15.4514 12.2304 15.4514 12.2304C15.4514 12.2304 15.4514 12.2304 15.4514 12.1956C15.4514 12.1609 15.4514 12.1609 15.4514 12.1261C15.4514 12.0914 15.4514 12.0567 15.4514 12.0567C15.4514 12.0219 15.4163 11.9872 15.4163 11.9524C15.4163 11.9177 15.3812 11.9177 15.346 11.8829H15.3109H15.2758C15.2407 11.8829 15.2407 11.9177 15.2056 11.9524C15.2407 11.9524 15.2407 11.9872 15.2407 12.0219Z" fill="#FFB164"/>
<path d="M14.3276 12.1263V12.161C14.3276 12.161 14.3276 12.161 14.3276 12.1263C14.3276 12.161 14.3276 12.161 14.3276 12.1958C14.3276 12.1958 14.3276 12.1958 14.3276 12.1263C14.3276 12.161 14.3276 12.1958 14.3276 12.1958C14.3276 12.1958 14.3276 12.1958 14.3276 12.161C14.3276 12.161 14.3276 12.1958 14.2924 12.1958C14.2924 12.1958 14.2924 12.2305 14.2573 12.2305V12.2653C14.2573 12.3 14.2924 12.3348 14.2924 12.3348C14.3276 12.3348 14.3627 12.3695 14.3627 12.3695H14.3978C14.4329 12.3695 14.4329 12.3348 14.4329 12.3348C14.468 12.3 14.468 12.3 14.468 12.2653C14.468 12.2653 14.468 12.2305 14.5031 12.2305C14.5031 12.1958 14.5031 12.1958 14.5031 12.161C14.5031 12.1263 14.5031 12.0915 14.5031 12.0915C14.5031 12.0568 14.468 12.022 14.468 12.022C14.4329 12.022 14.3978 11.9873 14.3978 11.9873C14.3627 11.9873 14.3276 12.022 14.3276 12.022C14.3276 12.0915 14.3276 12.1263 14.3276 12.1263Z" fill="#FFB164"/>
<path d="M13.3093 11.9178C13.2742 11.9526 13.2742 11.9873 13.2391 12.0221C13.2391 12.0221 13.2391 12.0221 13.2742 11.9873C13.2391 12.0221 13.1689 12.0568 13.1338 12.0916C13.0986 12.0916 13.0986 12.1263 13.0986 12.161C13.0986 12.1958 13.0986 12.2305 13.1338 12.2305C13.1689 12.2653 13.1689 12.2653 13.204 12.2653H13.2391C13.2742 12.2653 13.2742 12.2653 13.3093 12.2305C13.4147 12.161 13.4849 12.0916 13.5552 11.9873C13.5552 11.9526 13.5903 11.9178 13.5903 11.9178C13.5903 11.8831 13.5552 11.8483 13.5552 11.8483C13.52 11.8483 13.4849 11.8136 13.4849 11.8136C13.3796 11.8831 13.3445 11.8831 13.3093 11.9178Z" fill="#FFB164"/>
<path d="M12.3259 12.0914C12.3611 12.0567 12.3611 12.0219 12.3962 12.0219C12.3962 12.0219 12.3962 11.9872 12.4313 11.9872V11.9524V11.9177C12.4313 11.9177 12.4313 11.8829 12.3962 11.8829C12.3962 11.8829 12.3962 11.8829 12.3611 11.8829C12.3259 11.8829 12.3259 11.8829 12.2908 11.8829H12.2557C12.2206 11.8829 12.2206 11.9177 12.2206 11.9177C12.1855 11.9524 12.1855 11.9872 12.1504 11.9872C12.1504 11.9872 12.1504 12.0219 12.1152 12.0219V12.0567V12.0914C12.1152 12.0914 12.1152 12.1261 12.1504 12.1261C12.1504 12.1261 12.1504 12.1261 12.1855 12.1261C12.2206 12.1261 12.2206 12.1261 12.2557 12.1261H12.2908C12.2908 12.1261 12.2908 12.1261 12.3259 12.0914Z" fill="#FFB164"/>
<path opacity="0.24" d="M12.712 13.933C12.9579 14.0373 13.2388 14.1762 13.5197 14.1415C13.6251 14.1415 13.7304 14.072 13.7304 13.9678C13.7304 13.8983 13.6251 13.8288 13.5549 13.7941C13.3793 13.7246 13.2037 13.6551 13.0983 13.5161C12.8876 13.3076 12.4662 12.7517 12.0448 12.9949C11.6585 13.2729 12.5013 13.8288 12.712 13.933Z" fill="white"/>
<path d="M20.2275 9.31177C20.2275 9.31177 22.3697 11.9524 25.6707 8.96432C28.9717 5.97627 26.2677 3.54413 26.2677 3.54413L20.2275 9.31177Z" fill="#E24C24"/>
<path d="M24.4057 7.64272C26.0829 6.07396 26.9349 4.27092 26.3086 3.61552C25.6824 2.96012 23.8151 3.70054 22.1379 5.26931C20.4607 6.83807 19.6087 8.64111 20.235 9.29651C20.8612 9.95191 22.7285 9.21148 24.4057 7.64272Z" fill="#FF5A27"/>
<path d="M24.2609 7.49133C25.7971 6.0544 26.5997 4.42605 26.0534 3.85432C25.5071 3.28259 23.8189 3.98397 22.2826 5.42091C20.7464 6.85784 19.9438 8.48619 20.4901 9.05792C21.0364 9.62965 22.7246 8.92826 24.2609 7.49133Z" fill="#FF8B78"/>
<path d="M21.8075 7.08793C21.7373 7.22691 21.7022 7.43537 21.8427 7.57435C21.8778 7.6091 21.948 7.64384 22.0183 7.71333C22.0534 7.78282 22.0534 7.85231 22.0885 7.88706C22.1236 7.9218 22.1587 7.95655 22.229 7.95655C22.545 7.99129 22.7908 7.74808 23.0015 7.50486C23.5634 6.9142 24.0902 6.32354 24.652 5.69813C24.7925 5.55915 24.933 5.35069 24.8979 5.14222C24.8627 4.96849 24.652 4.86426 24.4764 4.86426C24.3009 4.86426 24.1253 4.93375 23.9848 5.03798C23.5283 5.2812 23.0718 5.55915 22.6855 5.94135C22.3343 6.32354 22.0183 6.63624 21.8075 7.08793Z" fill="#FF5A27"/>
<path d="M21.0701 8.58218C21.1754 8.47795 21.2808 8.37371 21.351 8.23473C21.351 8.19999 21.3861 8.16524 21.351 8.16524C21.351 8.1305 21.3159 8.09575 21.2808 8.09575C21.2106 8.06101 21.1754 8.09575 21.1052 8.1305C21.0701 8.16524 21.035 8.19999 21.035 8.23473C21.035 8.23473 21.035 8.23473 21.0701 8.19999C20.9999 8.26948 20.9647 8.33897 20.8945 8.40846C20.8594 8.4432 20.8594 8.51269 20.8945 8.58218C20.9296 8.61692 21.035 8.61692 21.0701 8.58218Z" fill="#FFB164"/>
<path d="M21.0001 8.02618C21.1054 7.92194 20.9649 7.74822 20.8245 7.85245C20.7191 7.95669 20.8947 8.13041 21.0001 8.02618Z" fill="#FFB164"/>
<path d="M20.9998 8.02598C21.07 7.95649 21.1403 7.92174 21.2105 7.85225C21.2456 7.81751 21.2456 7.78276 21.2456 7.78276C21.2456 7.74802 21.2456 7.71327 21.2105 7.71327C21.1754 7.67853 21.1754 7.67853 21.1403 7.67853C21.1052 7.67853 21.07 7.67853 21.07 7.71327C20.9998 7.78276 20.9296 7.81751 20.8593 7.887C20.8242 7.92174 20.8242 7.95649 20.8242 7.95649C20.8242 7.99123 20.8242 8.02598 20.8593 8.02598C20.8945 8.06072 20.8945 8.06072 20.9296 8.06072C20.9296 8.06072 20.9647 8.02598 20.9998 8.02598Z" fill="#FFB164"/>
<path d="M21.1755 7.08805C21.2106 7.08805 21.2106 7.12279 21.2457 7.12279C21.2808 7.12279 21.2808 7.12279 21.3159 7.12279C21.351 7.12279 21.4213 7.12279 21.4564 7.08805C21.4564 7.08805 21.4915 7.08805 21.4915 7.0533L21.5266 7.01856V6.98381V6.94907C21.5266 6.94907 21.5266 6.94907 21.4915 6.91432L21.4564 6.87958C21.4213 6.87958 21.3862 6.87958 21.3862 6.87958C21.3862 6.87958 21.3862 6.87958 21.351 6.87958H21.3862H21.351H21.3862H21.351H21.3862H21.351H21.3862H21.351H21.3159C21.3159 6.87958 21.2808 6.87958 21.2808 6.91432L21.2457 6.94907C21.2457 6.98381 21.2106 7.01856 21.2457 7.01856C21.1052 7.0533 21.1403 7.08805 21.1755 7.08805Z" fill="#FFB164"/>
<path d="M21.6318 6.4625C21.6669 6.49724 21.702 6.53199 21.7371 6.53199H21.7722H21.8074C21.8074 6.53199 21.8425 6.53199 21.8425 6.49724L21.8776 6.4625C21.8776 6.42775 21.9127 6.39301 21.8776 6.39301V6.35826C21.8776 6.32352 21.8425 6.32352 21.8425 6.32352C21.8074 6.28877 21.7722 6.25403 21.7371 6.25403H21.702H21.6669C21.6669 6.25403 21.6318 6.25403 21.6318 6.28877L21.5967 6.32352C21.5967 6.35826 21.5615 6.39301 21.5967 6.39301V6.42775C21.6318 6.42775 21.6318 6.4625 21.6318 6.4625Z" fill="#FFB164"/>
<path d="M22.8962 5.48969C22.8962 5.4202 22.8962 5.38546 22.8962 5.31597V5.28122C22.8962 5.28122 22.8962 5.24648 22.8611 5.24648L22.826 5.21173H22.7909H22.7557C22.7206 5.21173 22.7206 5.21173 22.6855 5.24648C22.6855 5.24648 22.6855 5.24648 22.6504 5.28122C22.6504 5.31597 22.6504 5.31597 22.6504 5.35071C22.6504 5.4202 22.6504 5.45495 22.6504 5.52444V5.55918C22.6504 5.55918 22.6504 5.59393 22.6855 5.59393L22.7206 5.62867H22.7557H22.7909C22.826 5.62867 22.826 5.62867 22.8611 5.59393C22.8611 5.59393 22.8611 5.59393 22.8962 5.55918C22.8962 5.55918 22.8962 5.52444 22.8962 5.48969Z" fill="#FFB164"/>
<path d="M23.7742 4.89896C23.8093 4.82947 23.8444 4.75998 23.8795 4.69049C23.8795 4.65575 23.9146 4.621 23.8795 4.621C23.8795 4.58626 23.8444 4.55151 23.8093 4.55151C23.7742 4.55151 23.739 4.51677 23.739 4.55151C23.7039 4.55151 23.6688 4.58626 23.6688 4.621C23.6337 4.69049 23.5986 4.75998 23.5635 4.82947C23.5635 4.86422 23.5283 4.89896 23.5635 4.89896C23.5635 4.93371 23.5986 4.96845 23.6337 4.96845C23.6688 4.96845 23.7039 5.0032 23.7039 4.96845C23.739 4.93371 23.7742 4.93371 23.7742 4.89896Z" fill="#FFB164"/>
<path d="M24.5818 4.58631C24.6872 4.51682 24.7574 4.41259 24.8277 4.30835C24.8277 4.27361 24.8628 4.23886 24.8277 4.23886C24.8277 4.20412 24.7925 4.16937 24.7574 4.16937C24.7223 4.16937 24.6872 4.13463 24.6872 4.16937C24.6521 4.16937 24.617 4.20412 24.617 4.23886C24.617 4.27361 24.5818 4.27361 24.5818 4.30835C24.5818 4.30835 24.5818 4.30835 24.617 4.27361C24.5467 4.3431 24.5116 4.41259 24.4414 4.44733C24.4063 4.48208 24.4063 4.58631 24.4414 4.62106C24.4765 4.62106 24.5116 4.62106 24.5818 4.58631Z" fill="#FFB164"/>
<path d="M25.284 4.65591C25.3894 4.58642 25.4947 4.55167 25.565 4.48218C25.6001 4.48218 25.6001 4.44744 25.6352 4.41269C25.6352 4.37795 25.6352 4.3432 25.6352 4.3432C25.6001 4.30846 25.5298 4.27371 25.4947 4.30846C25.3894 4.37795 25.284 4.41269 25.2138 4.48218C25.1787 4.48218 25.1787 4.51693 25.1436 4.55167C25.1436 4.58642 25.1436 4.62116 25.1436 4.62116C25.1436 4.65591 25.2489 4.69065 25.284 4.65591Z" fill="#FFB164"/>
<path d="M25.1791 5.31613C25.2493 5.31613 25.3547 5.31613 25.4249 5.31613H25.46C25.46 5.31613 25.4951 5.31613 25.4951 5.28139C25.5302 5.24664 25.5302 5.24664 25.5302 5.2119C25.5302 5.17716 25.5302 5.14241 25.4951 5.14241C25.46 5.10767 25.46 5.10767 25.4249 5.10767C25.3547 5.10767 25.2493 5.10767 25.1791 5.10767H25.144C25.144 5.10767 25.1088 5.10767 25.1088 5.14241C25.0737 5.17716 25.0737 5.17716 25.0737 5.2119C25.0737 5.24664 25.0737 5.28139 25.1088 5.28139C25.1088 5.28139 25.144 5.31613 25.1791 5.31613Z" fill="#FFB164"/>
<path d="M24.8275 6.14983H24.8626H24.8275C24.8626 6.14983 24.8977 6.18457 24.8977 6.18457C24.8977 6.18457 24.8977 6.18458 24.8626 6.14983L24.8977 6.18457H24.9328H24.9679C24.9679 6.18457 25.0031 6.18458 25.0031 6.14983C25.0382 6.11509 25.0382 6.11509 25.0382 6.08034C25.0382 6.0456 25.0382 6.01085 25.0031 6.01085C24.9679 5.97611 24.9679 5.97611 24.9328 5.94136C24.8977 5.94136 24.8626 5.90662 24.8275 5.90662C24.7924 5.90662 24.7572 5.90662 24.7572 5.90662C24.7572 5.90662 24.7221 5.90662 24.7221 5.94136L24.687 5.97611C24.687 6.01085 24.687 6.0456 24.687 6.0456C24.687 6.0456 24.687 6.0456 24.7221 6.08034C24.7572 6.11509 24.7924 6.14983 24.8275 6.14983Z" fill="#FFB164"/>
<path d="M24.0199 7.12279C24.055 7.12279 24.055 7.15754 24.0902 7.15754C24.0902 7.15754 24.0902 7.15754 24.055 7.12279C24.0902 7.15754 24.0902 7.15754 24.1253 7.19228L24.1604 7.22703H24.1955C24.2306 7.22703 24.2657 7.22703 24.2657 7.19228C24.3009 7.15754 24.3009 7.15754 24.3009 7.12279V7.08805C24.3009 7.0533 24.3009 7.0533 24.2657 7.01856C24.2306 6.98381 24.2306 6.98381 24.1955 6.94907C24.1604 6.91432 24.1253 6.91432 24.0902 6.87958C24.055 6.87958 24.0199 6.84483 24.0199 6.87958C24.0199 6.87958 23.9848 6.87958 23.9848 6.91432L23.9497 6.94907C23.9497 6.98381 23.9146 7.01856 23.9497 7.01856C23.9497 7.08805 23.9848 7.08805 24.0199 7.12279Z" fill="#FFB164"/>
<path d="M23.3179 7.71331C23.3179 7.71331 23.353 7.74805 23.3179 7.71331C23.353 7.71331 23.353 7.74805 23.3179 7.71331C23.353 7.74805 23.353 7.74805 23.353 7.74805C23.353 7.74805 23.353 7.74805 23.3179 7.71331C23.353 7.74805 23.353 7.7828 23.353 7.7828V7.74805V7.7828V7.81754C23.353 7.81754 23.353 7.85229 23.3881 7.85229C23.4232 7.88703 23.4232 7.88703 23.4583 7.88703C23.4934 7.88703 23.5286 7.88703 23.5286 7.85229C23.5286 7.85229 23.5286 7.85229 23.5637 7.81754C23.5637 7.7828 23.5637 7.7828 23.5637 7.74805C23.5637 7.71331 23.5637 7.71331 23.5637 7.67856V7.64382C23.5637 7.60907 23.5637 7.60907 23.5286 7.57433C23.5286 7.53958 23.4934 7.53958 23.4934 7.50484C23.4583 7.47009 23.4583 7.47009 23.4232 7.47009C23.3881 7.47009 23.353 7.47009 23.353 7.50484C23.3179 7.53958 23.3179 7.53958 23.3179 7.57433C23.2827 7.67856 23.3179 7.67856 23.3179 7.71331Z" fill="#FFB164"/>
<path d="M22.3696 8.09551C22.3696 8.13025 22.3696 8.165 22.3696 8.23449V8.19974C22.3696 8.26923 22.3345 8.30398 22.3345 8.37347C22.3345 8.40821 22.3345 8.44295 22.3345 8.44295C22.3345 8.4777 22.3696 8.4777 22.4047 8.51244C22.4398 8.51244 22.4749 8.51244 22.4749 8.51244C22.4749 8.51244 22.4749 8.51244 22.5101 8.4777L22.5452 8.44295C22.5803 8.33872 22.6154 8.23449 22.6154 8.13025C22.6154 8.09551 22.6154 8.06076 22.5803 8.06076C22.5452 7.99127 22.5101 7.99127 22.4749 7.99127C22.4398 7.99127 22.4047 7.99127 22.4047 8.02602C22.3696 8.02602 22.3696 8.06076 22.3696 8.09551Z" fill="#FFB164"/>
<path d="M21.632 8.82529C21.632 8.79055 21.632 8.7558 21.632 8.72106V8.68631C21.632 8.68631 21.632 8.65157 21.5969 8.65157L21.5618 8.61682H21.5267H21.4916C21.4565 8.61682 21.4565 8.61682 21.4213 8.65157C21.4213 8.65157 21.4213 8.65157 21.3862 8.68631C21.3862 8.72106 21.3862 8.72106 21.3862 8.7558C21.3862 8.79055 21.3862 8.82529 21.3862 8.86004V8.89478C21.3862 8.89478 21.3862 8.92953 21.4213 8.92953L21.4565 8.96427H21.4916H21.5267C21.5618 8.96427 21.5618 8.96427 21.5969 8.92953C21.5969 8.92953 21.5969 8.92953 21.632 8.89478C21.632 8.86004 21.632 8.82529 21.632 8.82529Z" fill="#FFB164"/>
<path opacity="0.24" d="M23.0016 10.0759C23.2826 10.0412 23.5635 9.97171 23.8093 9.79799C23.8796 9.7285 23.9498 9.62426 23.9147 9.52003C23.8796 9.45054 23.7742 9.45054 23.6689 9.48528C23.4933 9.52003 23.3177 9.55477 23.107 9.52003C22.7909 9.48528 22.1237 9.24207 21.9481 9.69375C21.7374 10.1454 22.7909 10.1107 23.0016 10.0759Z" fill="white"/>
<path d="M24.2656 13.2034C24.2656 13.2034 25.2489 16.4694 29.4629 14.9059C33.677 13.3424 32.0265 10.0764 32.0265 10.0764L24.2656 13.2034Z" fill="#E24C24"/>
<path d="M28.7666 13.1969C30.9151 12.363 32.3869 11.0064 32.054 10.1668C31.7211 9.32723 29.7095 9.32266 27.5611 10.1566C25.4126 10.9905 23.9408 12.3472 24.2737 13.1867C24.6066 14.0263 26.6181 14.0309 28.7666 13.1969Z" fill="#FF5A27"/>
<path d="M28.6896 13.003C30.6575 12.2391 32.0174 11.0262 31.727 10.2938C31.4366 9.56138 29.6059 9.58689 27.638 10.3507C25.67 11.1146 24.3101 12.3275 24.6005 13.0599C24.8909 13.7923 26.7217 13.7668 28.6896 13.003Z" fill="#FF8B78"/>
<path d="M26.5837 11.7094C26.4783 11.8136 26.3378 11.9874 26.4081 12.1611C26.4432 12.2306 26.4783 12.2653 26.5134 12.3348C26.5134 12.4043 26.4783 12.4738 26.5134 12.5433C26.5134 12.578 26.5837 12.6128 26.6188 12.6475C26.8997 12.7865 27.2158 12.6822 27.5318 12.5433C28.2693 12.1958 29.0067 11.8484 29.7442 11.5009C29.9198 11.3967 30.1656 11.2925 30.1656 11.084C30.1656 10.9103 30.0602 10.7365 29.8847 10.7018C29.7091 10.6323 29.5335 10.6323 29.3579 10.667C28.8311 10.7365 28.3044 10.806 27.8127 11.0492C27.3562 11.1882 26.9348 11.3619 26.5837 11.7094Z" fill="#FF5A27"/>
<path d="M25.3192 12.8212C25.4597 12.7517 25.6002 12.6823 25.7055 12.6128C25.7407 12.6128 25.7407 12.578 25.7407 12.5433C25.7407 12.5085 25.7407 12.4738 25.7055 12.439C25.6704 12.3695 25.6002 12.3695 25.5299 12.4043C25.4948 12.439 25.4597 12.439 25.4246 12.4738H25.4597C25.3895 12.5085 25.2841 12.578 25.2139 12.6128C25.1437 12.6475 25.1085 12.717 25.1437 12.7517C25.2139 12.8212 25.2841 12.856 25.3192 12.8212Z" fill="#FFB164"/>
<path d="M25.4598 12.2654C25.6002 12.1959 25.53 11.9874 25.3896 12.0569C25.2491 12.0916 25.3193 12.3349 25.4598 12.2654Z" fill="#FFB164"/>
<path d="M25.4598 12.265C25.53 12.2303 25.6353 12.2303 25.7056 12.1955C25.7407 12.1955 25.7758 12.1608 25.7758 12.1261C25.7758 12.0913 25.7758 12.0566 25.7758 12.0218C25.7758 11.9871 25.7407 11.9523 25.7056 11.9523C25.6705 11.9523 25.6353 11.9523 25.6002 11.9523C25.53 11.9871 25.4246 11.9871 25.3544 12.0218C25.3193 12.0218 25.2842 12.0566 25.2842 12.0913C25.2842 12.1261 25.2842 12.1608 25.2842 12.1955C25.2842 12.2303 25.3193 12.265 25.3544 12.265C25.4246 12.265 25.4246 12.265 25.4598 12.265Z" fill="#FFB164"/>
<path d="M25.9868 11.4661C25.9868 11.5009 26.0219 11.5009 26.057 11.5009C26.0921 11.5009 26.0921 11.5356 26.1273 11.5356C26.1624 11.5704 26.2326 11.5704 26.2677 11.5704H26.3028C26.3028 11.5704 26.338 11.5704 26.338 11.5356C26.338 11.5356 26.338 11.5009 26.3731 11.5009V11.4661V11.4314C26.3731 11.3967 26.338 11.3967 26.338 11.3967C26.3028 11.3619 26.2677 11.3619 26.2677 11.3619C26.2677 11.3619 26.2677 11.3619 26.2326 11.3619H26.2677H26.2326H26.2677C26.2677 11.3619 26.2326 11.3619 26.2326 11.3272C26.2326 11.3272 26.2326 11.3272 26.2677 11.3272L26.2326 11.2924C26.2326 11.2924 26.2326 11.2924 26.2677 11.3272L26.2326 11.2924H26.1975H26.1624C26.1624 11.2924 26.1273 11.2924 26.1273 11.3272C26.0921 11.3619 26.0921 11.3619 26.0921 11.3967C25.9517 11.4314 25.9517 11.4661 25.9868 11.4661Z" fill="#FFB164"/>
<path d="M26.6538 11.0838C26.6889 11.1185 26.6889 11.1533 26.724 11.188L26.7591 11.2228H26.7942H26.8294C26.8294 11.2228 26.8645 11.2228 26.8645 11.188C26.8996 11.1533 26.8996 11.1533 26.8996 11.1185V11.0838C26.8996 11.049 26.8996 11.049 26.8645 11.0143C26.8294 10.9795 26.8294 10.9448 26.7942 10.9101L26.7591 10.8753H26.724H26.6889C26.6889 10.8753 26.6538 10.8753 26.6538 10.9101C26.6187 10.9448 26.6187 10.9448 26.6187 10.9795V11.0143C26.6538 11.049 26.6538 11.049 26.6538 11.0838Z" fill="#FFB164"/>
<path d="M28.1989 10.6321C28.2341 10.5973 28.2341 10.5279 28.2692 10.4931V10.4584V10.4236C28.2692 10.4236 28.2692 10.3889 28.2341 10.3889L28.1989 10.3541H28.1638C28.1287 10.3541 28.1287 10.3541 28.0936 10.3541H28.0585L28.0234 10.3889C27.9882 10.4236 27.9882 10.4931 27.9531 10.5279V10.5626V10.5973C27.9531 10.5973 27.9531 10.6321 27.9882 10.6321L28.0234 10.6668H28.0585C28.0936 10.6668 28.0936 10.6668 28.1287 10.6668H28.1638C28.1638 10.6668 28.1638 10.6668 28.1989 10.6321Z" fill="#FFB164"/>
<path d="M29.2175 10.3888C29.2878 10.3541 29.358 10.2846 29.3931 10.2499C29.4282 10.2151 29.4282 10.2151 29.4282 10.1804C29.4282 10.1456 29.4282 10.1109 29.3931 10.0761C29.358 10.0414 29.358 10.0414 29.3229 10.0414C29.2878 10.0414 29.2527 10.0414 29.2175 10.0761C29.1473 10.1109 29.0771 10.1804 29.042 10.2151C29.0068 10.2499 29.0068 10.2499 29.0068 10.2846C29.0068 10.3193 29.0068 10.3541 29.042 10.3888C29.0771 10.4236 29.0771 10.4236 29.1122 10.4236C29.1824 10.4236 29.2175 10.4236 29.2175 10.3888Z" fill="#FFB164"/>
<path d="M30.0951 10.4238C30.2005 10.3891 30.3409 10.3196 30.4463 10.2848C30.4814 10.2848 30.4814 10.2501 30.4814 10.2153C30.4814 10.1806 30.4814 10.1458 30.4463 10.1111C30.4112 10.0764 30.4112 10.0764 30.3761 10.0764C30.3409 10.0764 30.3058 10.0764 30.2707 10.1111C30.2356 10.1111 30.2356 10.1458 30.2005 10.1458H30.2356C30.1654 10.1806 30.06 10.2153 29.9898 10.2501C29.9195 10.2848 29.8844 10.3543 29.9195 10.3891C29.9547 10.3891 30.0249 10.4238 30.0951 10.4238Z" fill="#FFB164"/>
<path d="M30.7274 10.7365C30.8327 10.7017 30.9732 10.7017 31.0786 10.667C31.1137 10.667 31.1488 10.6322 31.1488 10.6322C31.1488 10.5975 31.1839 10.5627 31.1839 10.5627C31.1839 10.4932 31.1137 10.4585 31.0434 10.4585C30.9381 10.4932 30.7976 10.4932 30.6923 10.528C30.6571 10.528 30.622 10.5627 30.622 10.5627C30.622 10.5975 30.5869 10.6322 30.5869 10.6322C30.5869 10.7017 30.6571 10.7712 30.7274 10.7365Z" fill="#FFB164"/>
<path d="M30.3764 11.2922C30.4466 11.327 30.5169 11.327 30.6222 11.3617H30.6573H30.6924C30.7276 11.3617 30.7627 11.327 30.7627 11.2922C30.7627 11.2575 30.7627 11.2227 30.7627 11.188C30.7627 11.1532 30.7276 11.1185 30.6924 11.1185C30.6222 11.0838 30.552 11.0838 30.4466 11.049H30.4115H30.3764C30.3413 11.049 30.3062 11.0838 30.3062 11.1185C30.3062 11.1532 30.3062 11.188 30.3062 11.2227C30.3413 11.2575 30.3413 11.2922 30.3764 11.2922Z" fill="#FFB164"/>
<path d="M29.709 11.9524L29.7441 11.9872C29.7441 11.9524 29.7441 11.9524 29.709 11.9524C29.7441 11.9872 29.7441 11.9872 29.7792 12.0219V11.9872C29.7792 11.9872 29.7792 11.9872 29.7792 12.0219C29.7792 12.0219 29.7792 12.0567 29.8143 12.0567L29.8495 12.0914H29.8846H29.9197C29.9548 12.0914 29.9899 12.0567 29.9899 12.0219C29.9899 11.9872 29.9899 11.9524 29.9899 11.9177C29.9899 11.8829 29.9548 11.8482 29.9548 11.8482C29.9197 11.8134 29.9197 11.8134 29.8846 11.7787C29.8495 11.744 29.8143 11.744 29.8143 11.744H29.7792C29.7792 11.744 29.7441 11.744 29.7441 11.7787C29.7441 11.8134 29.709 11.8482 29.709 11.8482V11.8829C29.709 11.9177 29.709 11.9177 29.709 11.9524Z" fill="#FFB164"/>
<path d="M28.6202 12.5432C28.6202 12.578 28.6554 12.578 28.6554 12.6127V12.578C28.6554 12.6127 28.6905 12.6475 28.6905 12.6475C28.6905 12.6475 28.6905 12.6822 28.7256 12.6822L28.7607 12.717C28.7958 12.717 28.8309 12.717 28.8661 12.717C28.9012 12.717 28.9363 12.6822 28.9363 12.6475V12.6127C28.9363 12.578 28.9363 12.578 28.9363 12.5432C28.9363 12.5085 28.9012 12.4738 28.9012 12.4738C28.8661 12.439 28.8661 12.4043 28.8309 12.3695C28.7958 12.3348 28.7958 12.3348 28.7607 12.3348H28.7256C28.7256 12.3348 28.6905 12.3348 28.6905 12.3695C28.6554 12.4043 28.6554 12.4043 28.6554 12.439C28.5851 12.4738 28.5851 12.5085 28.6202 12.5432Z" fill="#FFB164"/>
<path d="M27.7426 12.8559V12.8906C27.7426 12.8559 27.7426 12.8559 27.7426 12.8559C27.7426 12.8906 27.7426 12.8906 27.7426 12.9254C27.7778 12.8906 27.7778 12.8906 27.7426 12.8559C27.7426 12.8906 27.7426 12.9254 27.7426 12.9254V12.8906C27.7426 12.8906 27.7426 12.9254 27.7075 12.9254V12.9601V12.9949C27.7075 13.0296 27.7426 13.0644 27.7778 13.0644C27.8129 13.0644 27.848 13.0644 27.8831 13.0644H27.9182L27.9533 13.0296C27.9533 12.9949 27.9885 12.9949 27.9885 12.9601V12.9254C27.9885 12.8906 27.9885 12.8906 27.9885 12.8559C27.9885 12.8212 27.9885 12.8212 27.9533 12.7864C27.9533 12.7517 27.9182 12.7517 27.8831 12.7169C27.848 12.7169 27.8129 12.7169 27.7778 12.7169C27.7426 12.7169 27.7075 12.7517 27.7075 12.7864C27.7426 12.7864 27.7426 12.8212 27.7426 12.8559Z" fill="#FFB164"/>
<path d="M26.7239 12.8558C26.7239 12.8906 26.6888 12.9253 26.6537 12.9601C26.6537 12.9601 26.6537 12.9601 26.6537 12.9253C26.6185 12.9948 26.5834 13.0295 26.5483 13.0643C26.5132 13.099 26.5132 13.1338 26.5132 13.1338C26.5132 13.1685 26.5483 13.2033 26.5483 13.2033C26.5834 13.2033 26.6185 13.238 26.6185 13.238H26.6537C26.6888 13.238 26.6888 13.2033 26.6888 13.2033C26.759 13.1338 26.8292 13.0295 26.8644 12.9253C26.8644 12.8906 26.8644 12.8558 26.8644 12.8211C26.8644 12.7863 26.8292 12.7516 26.7941 12.7516C26.759 12.7516 26.7239 12.7516 26.6888 12.7516C26.759 12.7863 26.7239 12.8211 26.7239 12.8558Z" fill="#FFB164"/>
<path d="M25.7761 13.2378C25.7761 13.2031 25.8112 13.1684 25.8112 13.1336V13.0989V13.0641C25.8112 13.0641 25.8112 13.0294 25.7761 13.0294L25.741 12.9946H25.7059C25.6707 12.9946 25.6707 12.9946 25.6356 12.9946H25.6005L25.5654 13.0294C25.5654 13.0641 25.5303 13.0989 25.5303 13.1336V13.1684V13.2031C25.5303 13.2031 25.5303 13.2378 25.5654 13.2378L25.6005 13.2726H25.6356C25.6707 13.2726 25.6707 13.2726 25.7059 13.2726H25.741C25.741 13.2726 25.741 13.2726 25.7761 13.2378Z" fill="#FFB164"/>
<path opacity="0.24" d="M26.5484 14.9405C26.8293 15.0099 27.1103 15.0447 27.3912 14.9752C27.4966 14.9405 27.6019 14.871 27.5668 14.7667C27.5317 14.6972 27.4614 14.6625 27.3561 14.6277C27.1805 14.593 27.0049 14.5583 26.8293 14.454C26.5484 14.2803 26.0216 13.8286 25.6705 14.1761C25.3544 14.5235 26.3377 14.871 26.5484 14.9405Z" fill="white"/>
<path d="M5.1622 7.50482C5.1622 7.50482 1.93143 8.72089 3.79263 12.7513C5.65384 16.747 8.84949 14.9402 8.84949 14.9402L5.1622 7.50482Z" fill="#E24C24"/>
<path d="M8.76908 14.9542C9.59294 14.5682 9.46003 12.5822 8.47222 10.5184C7.48442 8.45453 6.01577 7.09439 5.19192 7.48039C4.36806 7.8664 4.50097 9.85238 5.48878 11.9162C6.47658 13.98 7.94523 15.3402 8.76908 14.9542Z" fill="#FF5A27"/>
<path d="M8.61887 14.6402C9.33755 14.3035 9.18668 12.498 8.28188 10.6076C7.37708 8.71724 6.06099 7.45774 5.34231 7.79447C4.62362 8.1312 4.7745 9.93664 5.6793 11.827C6.58409 13.7174 7.90019 14.9769 8.61887 14.6402Z" fill="#FF8B78"/>
<path d="M6.84795 9.69395C6.70748 9.58972 6.53189 9.48548 6.39143 9.55497C6.32119 9.58972 6.28607 9.65921 6.21584 9.65921C6.14561 9.65921 6.07537 9.65921 6.00514 9.65921C5.97002 9.69395 5.9349 9.7287 5.89979 9.76344C5.75932 10.0414 5.9349 10.3541 6.07537 10.6321C6.49678 11.327 6.88306 12.0219 7.30447 12.7168C7.40982 12.8905 7.55029 13.0989 7.76099 13.0989C7.93657 13.0989 8.07704 12.96 8.14728 12.7862C8.21751 12.6125 8.18239 12.4388 8.14728 12.2651C8.04193 11.7439 7.90146 11.2227 7.65564 10.771C7.40982 10.4236 7.19912 10.0067 6.84795 9.69395Z" fill="#FF5A27"/>
<path d="M5.61855 8.51247C5.68878 8.65145 5.75902 8.75568 5.86437 8.89466C5.86437 8.92941 5.89949 8.92941 5.9346 8.92941C5.96972 8.92941 6.00484 8.92941 6.00484 8.89466C6.03995 8.85992 6.03995 8.79043 6.00484 8.72094C5.96972 8.68619 5.96972 8.65145 5.9346 8.6167C5.9346 8.6167 5.9346 8.6167 5.9346 8.65145C5.89949 8.58196 5.82925 8.47772 5.79413 8.40824C5.75902 8.33875 5.68878 8.33875 5.65367 8.33875C5.61855 8.37349 5.58343 8.44298 5.61855 8.51247Z" fill="#FFB164"/>
<path d="M6.18064 8.61676C6.25087 8.75574 6.46158 8.65151 6.39134 8.51253C6.32111 8.37355 6.11041 8.47778 6.18064 8.61676Z" fill="#FFB164"/>
<path d="M6.18066 8.61684C6.21578 8.68633 6.2509 8.79056 6.28601 8.86005C6.28601 8.8948 6.32113 8.8948 6.35625 8.92954C6.39137 8.92954 6.42648 8.92954 6.4616 8.92954C6.49672 8.92954 6.49672 8.8948 6.53183 8.86005C6.53183 8.82531 6.53183 8.79056 6.53183 8.75582C6.49672 8.68633 6.4616 8.58209 6.42648 8.51261C6.42648 8.47786 6.39137 8.47786 6.35625 8.44312C6.32113 8.44312 6.28601 8.44312 6.2509 8.44312C6.21578 8.44312 6.21578 8.47786 6.18066 8.51261C6.18066 8.54735 6.18066 8.58209 6.18066 8.61684Z" fill="#FFB164"/>
<path d="M7.02334 9.06851C7.02334 9.06851 6.98822 9.10325 6.98822 9.138C6.98822 9.17274 6.95311 9.17275 6.95311 9.20749C6.95311 9.24224 6.91799 9.31173 6.95311 9.34647C6.95311 9.34647 6.95311 9.38122 6.98822 9.38122L7.02334 9.41596H7.05846H7.09358H7.12869C7.16381 9.41596 7.16381 9.38122 7.16381 9.38122C7.16381 9.34647 7.19893 9.31173 7.19893 9.31173C7.19893 9.31173 7.19893 9.31173 7.19893 9.27698V9.31173V9.27698V9.31173V9.27698V9.31173C7.19893 9.31173 7.19893 9.27698 7.23404 9.27698C7.23404 9.27698 7.23404 9.27698 7.19893 9.31173L7.23404 9.27698V9.24224V9.20749C7.23404 9.20749 7.23404 9.17275 7.19893 9.17275C7.16381 9.138 7.16381 9.138 7.12869 9.138C7.09358 9.03376 7.05846 9.03376 7.02334 9.06851Z" fill="#FFB164"/>
<path d="M7.47982 9.72859C7.44471 9.76334 7.40959 9.76334 7.37447 9.79808L7.33936 9.83283V9.86757V9.90232C7.33936 9.90232 7.33936 9.93706 7.37447 9.93706C7.40959 9.97181 7.40959 9.97181 7.44471 9.97181H7.47982C7.51494 9.97181 7.51494 9.97181 7.55006 9.93706C7.58517 9.90232 7.62029 9.90232 7.65541 9.86757L7.69053 9.83283V9.79808V9.76334C7.69053 9.76334 7.69053 9.72859 7.65541 9.72859C7.62029 9.69385 7.62029 9.69385 7.58517 9.69385H7.55006C7.51494 9.69385 7.47982 9.69385 7.47982 9.72859Z" fill="#FFB164"/>
<path d="M8.0068 11.1879C8.04191 11.2226 8.11215 11.2226 8.14727 11.2573H8.18238H8.2175C8.2175 11.2573 8.25262 11.2573 8.25262 11.2226L8.28773 11.1879V11.1531C8.28773 11.1184 8.28773 11.1184 8.28773 11.0836C8.28773 11.0836 8.28773 11.0836 8.28773 11.0489L8.25262 11.0141C8.2175 10.9794 8.14727 10.9794 8.11215 10.9446H8.07703H8.04191C8.04191 10.9446 8.0068 10.9446 8.0068 10.9794L7.97168 11.0141V11.0489C7.97168 11.0836 7.97168 11.0836 7.97168 11.1184C7.97168 11.1184 7.97168 11.1184 7.97168 11.1531L8.0068 11.1879Z" fill="#FFB164"/>
<path d="M8.32271 12.1953C8.35783 12.2648 8.42807 12.2996 8.46318 12.3691C8.4983 12.4038 8.4983 12.4038 8.53342 12.4038C8.56853 12.4038 8.60365 12.4038 8.60365 12.3691C8.63877 12.3343 8.63877 12.3343 8.63877 12.2996C8.63877 12.2648 8.63877 12.2301 8.60365 12.2301C8.56853 12.1606 8.4983 12.1258 8.46318 12.0564C8.42807 12.0216 8.42807 12.0216 8.39295 12.0216C8.35783 12.0216 8.32271 12.0216 8.32271 12.0564C8.2876 12.0911 8.2876 12.0911 8.2876 12.1258C8.2876 12.1606 8.32271 12.1953 8.32271 12.1953Z" fill="#FFB164"/>
<path d="M8.3927 13.064C8.42781 13.1682 8.49805 13.2725 8.56828 13.3767C8.56828 13.4114 8.6034 13.4114 8.63851 13.4114C8.67363 13.4114 8.70875 13.4114 8.70875 13.3767C8.74386 13.3419 8.74387 13.3419 8.74387 13.3072C8.74387 13.2725 8.74386 13.2377 8.70875 13.2377C8.70875 13.203 8.67363 13.203 8.67363 13.1682C8.67363 13.1682 8.67363 13.1682 8.67363 13.203C8.63851 13.1335 8.56828 13.064 8.56828 12.9597C8.53316 12.8903 8.46293 12.8903 8.42781 12.8903C8.35758 12.925 8.35758 12.9945 8.3927 13.064Z" fill="#FFB164"/>
<path d="M8.07715 13.6895C8.11227 13.7937 8.14738 13.8979 8.14738 14.0369C8.14738 14.0716 8.1825 14.1064 8.1825 14.1064C8.21762 14.1064 8.25273 14.1411 8.25273 14.1411C8.32297 14.1411 8.35808 14.0716 8.35808 14.0022C8.32297 13.8979 8.28785 13.7937 8.28785 13.6547C8.28785 13.62 8.25273 13.5852 8.25273 13.5852C8.21762 13.5852 8.1825 13.5505 8.1825 13.5505C8.11227 13.5852 8.07715 13.62 8.07715 13.6895Z" fill="#FFB164"/>
<path d="M7.4799 13.4115C7.44478 13.481 7.44479 13.5505 7.40967 13.6547V13.6895V13.7242C7.40967 13.759 7.44478 13.759 7.4799 13.7937C7.51502 13.7937 7.55014 13.7937 7.58525 13.7937C7.62037 13.7937 7.62037 13.759 7.65549 13.7242C7.6906 13.6547 7.6906 13.5853 7.72572 13.481V13.4463V13.4115C7.72572 13.3768 7.6906 13.3768 7.65549 13.342C7.62037 13.342 7.58525 13.342 7.55014 13.342C7.51502 13.342 7.51502 13.3768 7.4799 13.4115Z" fill="#FFB164"/>
<path d="M6.81283 12.786L6.77771 12.8207C6.77771 12.8207 6.77771 12.8207 6.81283 12.786C6.77771 12.8207 6.77771 12.8207 6.7426 12.8555C6.7426 12.8555 6.7426 12.8555 6.77771 12.8555C6.77771 12.8555 6.77771 12.8555 6.7426 12.8555C6.7426 12.8555 6.70748 12.8555 6.70748 12.8902L6.67236 12.9249V12.9597V12.9944C6.67236 13.0292 6.70748 13.0292 6.7426 13.0639C6.77771 13.0639 6.81283 13.0639 6.84795 13.0639C6.88307 13.0639 6.91818 13.0292 6.91818 12.9944C6.9533 12.9597 6.9533 12.9597 6.98842 12.9249C6.98842 12.8902 7.02353 12.8555 7.02353 12.8555C7.02353 12.8555 7.02353 12.8207 6.98842 12.8207L6.9533 12.786C6.91818 12.786 6.88307 12.7512 6.88307 12.7512H6.84795C6.84795 12.7512 6.81283 12.786 6.81283 12.786Z" fill="#FFB164"/>
<path d="M6.11016 11.7437C6.07504 11.7785 6.07504 11.7785 6.03992 11.7785C6.07504 11.7785 6.07504 11.7785 6.11016 11.7437C6.03992 11.7785 6.0048 11.8132 6.0048 11.8132C6.0048 11.8132 5.96969 11.8132 5.96969 11.8479L5.93457 11.8827C5.93457 11.9174 5.93457 11.9522 5.93457 11.9869C5.93457 12.0217 5.96969 12.0217 6.0048 12.0564H6.03992C6.07504 12.0564 6.07504 12.0564 6.11016 12.0564C6.14527 12.0564 6.18039 12.0217 6.18039 12.0217C6.21551 11.9869 6.25062 11.9869 6.28574 11.9522C6.32086 11.9174 6.32086 11.9174 6.32086 11.8827V11.8479C6.32086 11.8479 6.32086 11.8132 6.28574 11.8132C6.25062 11.7785 6.25062 11.7785 6.21551 11.7785C6.18039 11.709 6.14527 11.709 6.11016 11.7437Z" fill="#FFB164"/>
<path d="M5.75904 10.9097H5.72392H5.75904C5.72393 10.9097 5.72393 10.9097 5.68881 10.9097C5.72393 10.9097 5.72393 10.9097 5.75904 10.9097C5.72393 10.9097 5.68881 10.9097 5.68881 10.9097H5.72392H5.68881H5.65369H5.61857C5.58346 10.9097 5.58346 10.9445 5.54834 10.9792C5.54834 11.014 5.54834 11.0487 5.54834 11.0834C5.54834 11.0834 5.54834 11.0834 5.54834 11.1182L5.58346 11.1529C5.61857 11.1529 5.61857 11.1529 5.65369 11.1877H5.68881C5.72393 11.1877 5.72393 11.1877 5.75904 11.1877C5.79416 11.1877 5.79416 11.1877 5.82928 11.1529C5.86439 11.1529 5.86439 11.1182 5.89951 11.0834C5.89951 11.0487 5.89951 11.014 5.89951 10.9792C5.89951 10.9445 5.86439 10.9445 5.82928 10.9097C5.82928 10.875 5.79416 10.875 5.75904 10.9097Z" fill="#FFB164"/>
<path d="M5.68898 9.86749C5.65387 9.86749 5.61875 9.83275 5.58363 9.83275H5.61875C5.54852 9.798 5.5134 9.76326 5.47828 9.72852C5.44316 9.72852 5.40805 9.72852 5.37293 9.72852C5.33781 9.72852 5.3027 9.76326 5.3027 9.76326C5.3027 9.79801 5.26758 9.83275 5.26758 9.83275V9.86749C5.26758 9.90224 5.3027 9.90224 5.3027 9.90224C5.37293 9.97173 5.47828 10.0412 5.58363 10.076C5.61875 10.076 5.65387 10.076 5.68898 10.076C5.7241 10.076 5.7241 10.0412 5.75922 10.0065C5.75922 9.97173 5.75922 9.93698 5.75922 9.90224C5.75922 9.90224 5.7241 9.90224 5.68898 9.86749Z" fill="#FFB164"/>
<path d="M5.23238 8.9641C5.2675 8.9641 5.30262 8.99885 5.33773 8.99885H5.37285H5.40797C5.40797 8.99885 5.44308 8.99884 5.44308 8.9641L5.4782 8.92936V8.89461C5.4782 8.85987 5.4782 8.85987 5.4782 8.82512C5.4782 8.82512 5.4782 8.82512 5.4782 8.79038L5.44308 8.75563C5.40797 8.75563 5.37285 8.72089 5.33773 8.72089H5.30262H5.2675C5.2675 8.72089 5.23238 8.72089 5.23238 8.75563L5.19727 8.79038V8.82512C5.19727 8.85987 5.19727 8.85987 5.19727 8.89461C5.19727 8.89461 5.19727 8.89461 5.19727 8.92936C5.19727 8.9641 5.19727 8.9641 5.23238 8.9641Z" fill="#FFB164"/>
<path opacity="0.24" d="M3.58199 9.86759C3.54687 10.1455 3.51176 10.4583 3.61711 10.7015C3.65223 10.8057 3.75758 10.9099 3.82781 10.8752C3.89805 10.8404 3.93316 10.7362 3.93316 10.6667C3.96828 10.493 3.96828 10.2845 4.07363 10.1455C4.2141 9.86759 4.6355 9.31167 4.28433 8.99897C3.89805 8.68626 3.61711 9.65912 3.58199 9.86759Z" fill="white"/>
<path d="M7.44488 11.0836C7.9014 10.8056 8.60374 10.9099 8.9198 11.3268C9.30608 10.7709 10.184 10.6667 10.7459 11.0141C11.3429 11.3616 11.6589 12.0565 11.6589 12.7166C12.6071 12.4039 13.6255 13.0988 14.1874 13.9327C14.2927 14.0717 14.3629 14.2106 14.5034 14.3149C14.679 14.4191 14.8897 14.4539 15.1004 14.4539C16.786 14.6623 18.2609 16.0521 18.577 17.7199C18.6823 18.241 18.6472 18.797 18.3663 19.2139C18.1205 19.5613 17.7342 19.7698 17.383 19.9435C16.9616 20.152 16.5402 20.3952 16.0486 20.43C14.679 20.5342 13.766 19.0402 12.5369 18.4843C11.5185 18.0326 10.3245 18.2063 9.30608 17.7546C8.49839 17.4072 7.72582 16.7123 7.02348 16.1911C6.42649 15.7394 6.0402 15.2877 5.8295 14.5928C5.54856 13.7242 5.68903 12.0565 7.05859 12.4734C6.84789 11.987 6.98836 11.3616 7.44488 11.0836Z" fill="#89E269"/>
<path d="M40.1386 10.2154H39.2957C39.1553 13.3077 32.5884 15.0102 20.5784 15.0102C8.95461 15.0102 2.07167 12.7865 1.86097 10.2154H1.01816C1.01816 10.2154 0.702105 14.1763 2.9496 18.9711C6.32083 26.1633 10.9914 27.4836 10.9914 27.4836L20.5081 27.6573L30.0248 27.4836C30.0248 27.4836 34.6603 26.198 38.0315 19.0058C40.2439 14.1763 40.1386 10.2154 40.1386 10.2154Z" fill="#EDCEB9"/>
<path d="M30.1653 29.0471V27.3794L20.5783 26.1981L10.9914 27.4836V29.0471C10.9914 29.0471 10.9211 29.8115 13.8358 30.7844C17.8041 32.1394 24.3007 31.6877 27.391 30.7844C30.3057 29.9158 30.1653 29.0471 30.1653 29.0471Z" fill="#EDCEB9"/>
<path d="M27.3559 30.7842C30.3057 29.9155 30.2004 29.0469 30.2004 29.0469V27.3792L25.8108 26.8232C25.8108 26.8232 25.8108 26.8232 25.7756 26.8232C25.284 27.1359 24.7924 27.3792 24.7572 28.0046C24.7221 28.6647 25.0733 29.4639 24.7924 30.0893C24.6168 30.4715 24.1603 30.6104 23.7389 30.7147C20.5081 31.4443 17.2071 30.9926 14.0465 30.2282C13.0633 29.985 12.0449 29.7071 11.2372 29.1511C11.1669 29.1164 11.0967 29.0469 10.9914 29.0122C10.9914 29.0122 10.9211 29.7766 13.8358 30.7494C17.769 32.1392 24.2656 31.6875 27.3559 30.7842Z" fill="#EABFAC"/>
<path opacity="0.38" d="M5.72402 16.3305C5.51332 16.8516 5.6889 17.4423 5.89961 17.9982C6.46148 19.4575 7.23406 20.8125 8.11198 22.1328C8.74409 23.071 9.51666 24.0438 10.6404 24.2523C11.0267 24.3218 11.4481 24.287 11.7993 24.1133C12.1504 23.9396 12.3963 23.5574 12.4314 23.1752C12.4314 22.7582 12.2207 22.4108 12.01 22.0634C11.4832 21.2295 11.0618 20.3261 10.816 19.388C10.6755 18.7626 10.6053 18.0677 10.2892 17.5118C9.69225 16.4694 6.35613 14.628 5.72402 16.3305Z" fill="white"/>
<path opacity="0.38" d="M12.4663 28.1088C12.3609 28.1088 12.2907 28.1088 12.1854 28.1783C12.0098 28.2826 12.0098 28.5258 12.08 28.6995C12.1854 28.8732 12.3609 28.9774 12.5014 29.0469C13.2038 29.3944 13.9763 29.6028 14.784 29.7418C15.1001 29.8113 15.4161 29.8461 15.6971 29.7071C15.978 29.6028 16.1887 29.2554 16.0482 28.9774C15.9078 28.7342 15.5566 28.6647 15.2757 28.6647C14.3626 28.5605 13.3793 28.0741 12.4663 28.1088Z" fill="white"/>
<path d="M40.1033 10.2154H39.2605C39.1902 11.9526 37.0832 13.2382 33.1501 14.0721C32.9394 15.4966 32.4829 17.1644 31.5698 18.9363C28.7956 24.1133 26.1969 25.5726 23.0364 26.615C19.1033 27.9353 14.5029 27.6226 14.5029 27.6226C14.5029 27.6226 19.1384 28.6649 22.8257 28.6649C26.513 28.6649 29.9544 27.4836 29.9544 27.4836C29.9544 27.4836 34.5899 26.198 37.9611 19.0058C40.2086 14.1763 40.1033 10.2154 40.1033 10.2154Z" fill="#EABFAC"/>
<path d="M40.1394 9.93732H39.2966C39.2966 10.0416 39.2966 10.111 39.2966 10.2153C39.1913 13.3423 32.6244 15.0448 20.5792 15.0448C8.92038 15.0448 2.03744 12.7864 1.86185 10.2153C1.86185 10.111 1.89697 10.0416 1.89697 9.93732H1.05416C1.05416 10.0416 1.01904 10.1458 1.01904 10.25C1.19463 13.0991 8.39362 15.6355 20.5792 15.6355C33.1863 15.6355 40.0341 13.7245 40.1394 10.2153C40.1394 10.111 40.1394 10.0068 40.1394 9.93732Z" fill="#FFDFCA"/>
<path d="M4.53008 6.74075L4.35449 8.0958C4.35449 8.0958 4.88125 10.111 7.79596 10.8406C11.0619 11.6398 13.5552 10.9101 13.7307 8.92968C13.7659 8.61698 13.4147 7.71361 13.4147 7.71361L4.49496 6.67126L4.53008 6.74075Z" fill="#59B24F"/>
<path d="M13.4551 8.29577C13.6997 7.05259 11.9071 5.66132 9.45123 5.18828C6.99536 4.71523 4.80619 5.33954 4.56157 6.58271C4.31695 7.82589 6.10953 9.21716 8.5654 9.69021C11.0213 10.1633 13.2104 9.53894 13.4551 8.29577Z" fill="#84D17D"/>
<path d="M13.1689 8.09576C13.0987 9.06862 11.2374 9.72877 8.95484 9.38132C6.67223 9.03387 4.77591 7.71357 4.81103 6.74071C4.88126 5.76786 6.91805 5.03822 9.20066 5.38566C11.4482 5.73311 13.204 7.12291 13.1689 8.09576Z" fill="#B0EDA9"/>
<path d="M6.46127 6.74085C6.39103 6.67136 6.3208 6.60187 6.3208 6.49764C6.3208 6.32391 6.5315 6.28917 6.67197 6.28917C6.98802 6.32391 7.3392 6.3934 7.62013 6.53238C7.51478 6.3934 7.44455 6.25442 7.40943 6.11544C7.40943 6.0807 7.37431 6.04595 7.40943 6.01121C7.44455 5.94172 7.5499 5.97646 7.62013 6.01121C7.9713 6.18493 8.28736 6.42815 8.56829 6.70611C8.46294 6.56713 8.42782 6.3934 8.42782 6.25442C8.42782 6.0807 8.49806 5.94172 8.63853 5.87223C8.81411 5.80274 9.05993 5.90698 9.2004 6.0807C9.34087 6.25442 9.37598 6.46289 9.4111 6.67136C9.69204 6.46289 10.0783 6.3934 10.4295 6.49764C10.4997 6.53238 10.6051 6.56713 10.6402 6.63662C10.7104 6.7756 10.57 6.87983 10.4646 6.94932C10.886 6.87983 11.3777 7.05355 11.6937 7.401C11.7288 7.43575 11.7639 7.50524 11.7639 7.53998C11.7639 7.57473 11.7288 7.60947 11.7288 7.60947C11.5532 7.7832 11.3425 7.85269 11.0967 7.88743C10.8509 7.92218 10.6051 7.85269 10.3593 7.81794C10.6051 7.92218 10.8158 8.06116 11.0265 8.23488C11.0616 8.26962 11.0616 8.26962 11.0967 8.30437C11.0967 8.33911 11.0967 8.33911 11.0616 8.37386C10.886 8.61707 10.5348 8.65182 10.2539 8.51284C9.97297 8.4086 9.72716 8.16539 9.51645 7.95692C9.6218 8.13064 9.69204 8.30437 9.65692 8.51284C9.6218 8.68656 9.4111 8.82554 9.23552 8.75605C9.16528 8.72131 9.09505 8.65182 9.02481 8.58233C8.84923 8.37386 8.74388 8.13064 8.67364 7.88743C8.63853 8.20013 8.35759 8.44335 8.04154 8.4086C7.9713 8.4086 7.86595 8.37386 7.83083 8.30437C7.7606 8.23488 7.7606 8.0959 7.83083 8.02641C7.86595 7.95692 7.93619 7.88743 8.04154 7.81794C7.79572 7.92218 7.51478 8.02641 7.30408 7.85269C7.23384 7.7832 7.19873 7.71371 7.23384 7.64422C7.26896 7.60947 7.30408 7.57473 7.3392 7.53998C7.44455 7.47049 7.7606 7.43575 7.79572 7.33151C7.23384 7.22728 6.84756 7.05355 6.46127 6.74085Z" fill="#C1FFB8"/>
<path d="M19.9464 11.4658C20.5083 11.2226 21.2107 11.2226 21.7374 11.5006C21.8428 11.5701 22.0184 11.6396 22.0886 11.5353C22.1237 11.5006 22.1237 11.4311 22.1237 11.3616C22.0184 10.7015 21.4214 10.1803 20.719 10.1455C20.2274 10.1108 19.7357 10.354 19.2792 10.5972C18.9632 10.7709 18.6471 10.9794 18.3662 11.1879C17.9799 11.4658 17.5936 11.7785 17.418 12.2302C17.2775 12.5429 17.2073 13.2378 17.6638 13.3421C18.1204 13.4463 18.3311 12.7861 18.5769 12.5082C18.9632 12.0565 19.4197 11.6743 19.9464 11.4658Z" fill="#0A0B0C"/>
<path d="M21.2458 10.0761C20.5083 9.97188 19.7709 10.1804 19.1036 10.5278C18.4715 10.8752 17.9097 11.3617 17.3478 11.8481C16.7508 12.3693 16.7859 13.3769 17.1371 14.0023C17.4531 14.5929 18.1204 14.9751 18.7876 15.0446C19.4548 15.1141 20.0869 14.8362 20.6839 14.5582C21.316 14.2455 21.9481 13.8981 22.3695 13.3421C22.826 12.7862 23.0367 12.0566 22.826 11.3964C22.6505 10.6668 21.9832 10.1804 21.2458 10.0761ZM21.4916 11.9871C21.316 12.3345 20.9648 12.6125 20.6137 12.821C20.2625 13.0294 19.9113 13.1684 19.5602 13.3074C19.2441 13.4116 18.928 13.5159 18.612 13.4811C18.2959 13.4464 17.9448 13.3074 17.8043 13.0294C17.1371 11.9523 18.8578 11.1185 19.5953 10.8058C20.0167 10.632 20.4732 10.5625 20.8946 10.6668C21.0702 10.7015 21.2107 10.771 21.3511 10.8752C21.6672 11.1532 21.7023 11.6396 21.4916 11.9871Z" fill="#36383F"/>
<path d="M11.2726 4.44778C11.8345 4.20456 12.5368 4.20456 13.0636 4.48252C13.1689 4.55201 13.3445 4.6215 13.4148 4.51727C13.4499 4.48252 13.4499 4.41303 13.4499 4.34354C13.3445 3.68339 12.7475 3.16222 12.0452 3.12747C11.5536 3.09273 11.0619 3.33594 10.6054 3.57916C10.2893 3.75288 9.97328 3.96135 9.69235 4.16982C9.30606 4.44778 8.91977 4.76048 8.74419 5.21216C8.60372 5.52487 8.53348 6.21977 8.99 6.324C9.44653 6.42823 9.65723 5.76808 9.90305 5.49012C10.2893 5.03844 10.7459 4.65625 11.2726 4.44778Z" fill="#0A0B0C"/>
<path d="M12.5719 3.02308C11.8345 2.91884 11.097 3.12731 10.4298 3.47476C9.7977 3.82221 9.23583 4.30864 8.67395 4.79507C8.07696 5.31624 8.11208 6.32384 8.46325 6.94925C8.7793 7.53991 9.44653 7.9221 10.1138 7.99159C10.781 8.06108 11.4131 7.78312 12.0101 7.50517C12.6422 7.19246 13.2743 6.84501 13.6957 6.2891C14.1522 5.73318 14.3629 5.00354 14.1522 4.34338C13.9766 3.61374 13.3094 3.12731 12.5719 3.02308ZM12.8178 4.96879C12.6422 5.31624 12.291 5.55945 11.9398 5.76792C11.5887 5.97639 11.2375 6.11537 10.8863 6.25435C10.5703 6.35859 10.2542 6.46282 9.93817 6.42807C9.62211 6.39333 9.27094 6.25435 9.13047 5.97639C8.46325 4.8993 10.184 4.06542 10.9214 3.75272C11.3428 3.579 11.7994 3.50951 12.2208 3.61374C12.3964 3.64849 12.5368 3.71798 12.6773 3.82221C12.9933 4.10017 13.0285 4.5866 12.8178 4.96879Z" fill="#36383F"/>
<path d="M36.241 6.60137C36.6976 7.01831 37.0136 7.60897 37.0136 8.19963C37.0136 8.33861 37.0136 8.51233 37.1541 8.54708C37.2243 8.54708 37.2945 8.51233 37.3297 8.47759C37.8915 8.0954 38.1022 7.29626 37.8213 6.7056C37.6106 6.25392 37.1892 5.90647 36.7678 5.62851C36.4517 5.42004 36.1357 5.24632 35.8196 5.07259C35.3982 4.86413 34.9417 4.65566 34.4501 4.6904C34.0989 4.72515 33.4317 4.96836 33.537 5.42004C33.6424 5.87173 34.3447 5.76749 34.6959 5.87173C35.2929 5.97596 35.8196 6.21917 36.241 6.60137Z" fill="#0A0B0C"/>
<path d="M38.102 7.12263C37.8913 6.42774 37.3646 5.83707 36.7676 5.42014C36.1706 5.0032 35.4683 4.72524 34.801 4.44728C34.0987 4.16932 33.1505 4.621 32.7643 5.21167C32.378 5.76758 32.3077 6.49723 32.5536 7.12263C32.7994 7.74804 33.3261 8.19972 33.8529 8.61666C34.4148 9.0336 35.0117 9.41579 35.7141 9.58952C36.3813 9.7285 37.189 9.62426 37.6806 9.17258C38.1723 8.65141 38.3128 7.85227 38.102 7.12263ZM36.4515 8.19972C36.0301 8.19972 35.6439 7.99125 35.3278 7.78278C35.0117 7.57432 34.6957 7.3311 34.4148 7.05314C34.1689 6.84467 33.9582 6.60146 33.8529 6.28876C33.7475 5.97605 33.7124 5.6286 33.888 5.35065C34.5903 4.3083 36.1004 5.42014 36.6974 5.97605C37.0485 6.28876 37.2944 6.6362 37.3997 7.08789C37.4348 7.26161 37.4348 7.43534 37.3997 7.57432C37.2944 7.99125 36.873 8.23447 36.4515 8.19972Z" fill="#36383F"/>
<path d="M22.7207 9.10323C22.7207 9.10323 24.1956 12.7167 28.4448 11.6743C32.694 10.632 34.4147 8.02614 34.801 7.57446C35.6087 6.6016 35.5736 5.17706 35.5736 5.17706L22.7207 9.10323Z" fill="#FFECD7"/>
<path d="M24.6522 8.51254C24.617 8.51254 25.7408 10.9794 27.7425 10.5972C31.7107 9.83285 31.0786 6.56683 31.0786 6.56683L24.6522 8.51254Z" fill="#FFDC31"/>
<path opacity="0.52" d="M33.5368 7.01849C33.291 7.85237 32.4482 8.3388 31.8512 8.92946C31.7459 9.0337 31.6054 9.20742 31.6756 9.3464C31.7108 9.45063 31.8512 9.52012 31.9917 9.48538C32.097 9.48538 32.2024 9.41589 32.3078 9.3464C32.7994 8.99895 33.2208 8.58201 33.6071 8.13033C34.0285 7.6439 34.485 7.12273 34.5552 6.46258C34.5552 6.39309 34.5552 6.3236 34.5552 6.25411C34.4499 5.97615 34.0636 6.11513 33.888 6.25411C33.6773 6.46258 33.6071 6.74054 33.5368 7.01849Z" fill="white"/>
</g>
<defs>
<clipPath id="clip0_678_3738">
<rect width="42" height="32" fill="white"/>
</clipPath>
</defs>
</svg>
