<svg width="118" height="74" viewBox="0 0 118 74" fill="none" xmlns="http://www.w3.org/2000/svg">
<g clip-path="url(#clip0_430_604)">
<path fill-rule="evenodd" clip-rule="evenodd" d="M108.843 63.2942C108.843 68.4011 85.7094 74 61.1717 74C36.6341 74 16.5715 65.1252 16.5715 60.0183C16.5715 54.9115 39.887 54.052 64.4184 54.052C88.9497 54.052 108.843 58.1873 108.843 63.2942Z" fill="#E2CAB3"/>
<path fill-rule="evenodd" clip-rule="evenodd" d="M112.641 68.5071C112.71 71.2349 106.799 73.6015 99.4351 73.7884C92.0706 73.9752 86.0412 71.92 85.9723 69.1859C85.9033 66.4519 91.8137 64.0915 99.1781 63.9047C106.543 63.7178 112.572 65.773 112.641 68.5071Z" fill="#E2CAB3"/>
<path fill-rule="evenodd" clip-rule="evenodd" d="M5.41487 49.0946C1.49136 58.3368 6.26726 63.1759 12.6289 63.973C15.1359 64.2844 18.8965 62.5593 21.6793 61.4819C23.9435 60.4826 26.0931 59.2444 28.091 57.7887C29.0374 56.8234 30.1531 55.5093 30.3787 54.052C30.409 53.4888 30.2879 52.9277 30.0277 52.4265C30.0985 52.2165 30.2021 52.0189 30.3348 51.8411C30.6733 51.2183 29.7582 50.7387 30.2157 50.0412C30.9428 48.9264 29.9838 47.7244 29.5138 46.7342C29.3571 46.4166 25.3145 42.848 25.1265 42.5054C21.7545 38.9618 20.8457 37.2927 16.2077 36.564C10.3851 35.6423 4.73797 37.7535 5.41487 49.0946Z" fill="#5F825C"/>
<g style="mix-blend-mode:multiply" opacity="0.4">
<path fill-rule="evenodd" clip-rule="evenodd" d="M7.52104 45.6818C8.18541 45.7627 8.51132 47.5501 8.23555 49.6925C7.95978 51.8349 7.20766 53.4791 6.53703 53.3981C5.8664 53.3172 5.55302 51.5298 5.82253 49.3874C6.09203 47.245 6.81907 45.5946 7.52104 45.6818Z" fill="#5F825C"/>
</g>
<path fill-rule="evenodd" clip-rule="evenodd" d="M8.14782 55.7024C6.72507 56.3252 6.85669 58.1499 7.43331 59.3332C7.44747 59.3519 7.45809 59.3731 7.46465 59.3955C7.60006 59.6681 7.76844 59.9233 7.96606 60.1553C8.66452 61.0389 9.62838 61.6782 10.7175 61.9801C12.0839 62.3226 13.6508 62.0922 14.4405 61.0148C14.4598 60.9816 14.4912 60.9571 14.5282 60.9463V60.8093C14.3527 60.1117 13.2747 59.9747 12.6981 59.8875C11.4446 59.6945 11.0748 58.5984 10.6925 57.5832C10.3101 56.5681 9.40134 55.1294 8.14782 55.7024Z" fill="#8DB54F"/>
<g style="mix-blend-mode:multiply" opacity="0.4">
<path fill-rule="evenodd" clip-rule="evenodd" d="M21.0213 41.9761C19.8618 42.5989 20.9398 44.0064 21.4976 44.6728C22.7512 46.2173 24.4685 47.3258 25.5152 49.0821C26.5619 50.8384 25.1955 53.56 26.869 55.0422C26.9496 55.1138 27.0438 55.1687 27.1461 55.2038C27.2483 55.2388 27.3566 55.2533 27.4645 55.2463C27.5724 55.2394 27.6779 55.2111 27.7747 55.1632C27.8715 55.1154 27.9578 55.0488 28.0285 54.9675C28.1018 54.8497 28.1567 54.7217 28.1914 54.5876C28.3951 54.3291 28.554 54.0386 28.6615 53.7281C28.9435 52.7538 28.9062 51.7155 28.555 50.7636C28.2917 49.9104 28.8809 49.0821 28.6239 48.2289C28.5061 47.9109 28.3176 47.6235 28.0723 47.3881C27.8152 47.0917 27.5203 46.83 27.1949 46.6096C26.5882 46.1084 26.0282 45.5539 25.5214 44.953C24.9145 44.2382 24.2477 43.5757 23.5283 42.9725C22.77 42.2563 21.7859 41.5588 21.0213 41.9761Z" fill="#5F825C"/>
</g>
<path fill-rule="evenodd" clip-rule="evenodd" d="M6.4806 49.6677C5.85384 49.5618 5.45898 49.3127 3.43454 48.8145C1.41011 48.3162 0.382226 48.2041 0.0688463 48.0173C-0.244533 47.8304 0.63293 46.8527 0.63293 46.8527C0.63293 46.8527 2.14969 47.4319 3.39694 47.8927C4.64419 48.3536 6.92559 48.9639 6.92559 48.9639C6.92559 48.9639 7.28285 49.1632 7.13869 49.4871C6.99454 49.8109 6.4806 49.6677 6.4806 49.6677Z" fill="#300D33"/>
<path fill-rule="evenodd" clip-rule="evenodd" d="M112.817 31.6628C111.118 32.0552 109.683 33.0765 107.915 33.1637C106.035 33.2572 104.155 32.4787 102.318 32.1237C98.3259 31.3514 94.2394 30.9217 90.2031 30.4795C82.0552 29.5827 73.8008 29.1966 65.6216 28.2624C57.4424 27.3282 49.3259 26.2632 41.1404 26.3006C37.197 26.3104 33.2615 26.6521 29.3761 27.322C26.1734 27.8762 22.9142 28.5239 20.2317 30.4359C18.1671 31.945 16.6112 34.0404 15.7692 36.4458C14.6786 39.373 20.4385 57.2969 21.3097 58.4739C28.881 68.4386 41.5916 70.6184 62.5066 70.2011C84.8568 69.7527 93.4936 67.2802 99.8239 61.7249C103.227 58.7417 106.091 51.069 106.605 49.568C107.477 46.9212 108.442 44.3117 109.344 41.6773C109.915 40.0082 110.51 38.3578 111.225 36.7448C111.981 35.2294 112.61 33.6546 113.105 32.0365C113.119 31.9924 113.122 31.9456 113.114 31.9C113.106 31.8544 113.088 31.8114 113.059 31.7747C113.031 31.7379 112.994 31.7086 112.952 31.6891C112.909 31.6696 112.863 31.6606 112.817 31.6628Z" fill="#DA840D"/>
<path fill-rule="evenodd" clip-rule="evenodd" d="M109.432 32.8896C106.58 34.8826 102.475 34.9635 99.1343 35.6174C90.8861 37.2367 82.663 38.3515 74.2457 38.1522C66.0101 37.9654 57.7682 37 49.5639 36.3274C41.1779 35.6424 32.773 35.1504 24.3619 35.5303C22.5038 35.5978 20.6605 35.8863 18.8715 36.3897C17.9564 36.6513 16.5901 37.0125 16.1325 37.9467C16.0197 38.1891 15.9578 38.4519 15.9508 38.7189V38.7625C15.5371 40.1451 16.0197 41.3035 16.4961 42.5304C16.6089 43.0473 16.7342 43.5643 16.8533 44.0812C16.6402 44.0812 16.6089 44.405 16.8533 44.4112H16.9223C16.9481 44.4404 16.98 44.4638 17.0156 44.4798C17.0513 44.4958 17.09 44.504 17.1291 44.504C17.1682 44.504 17.2069 44.4958 17.2426 44.4798C17.2782 44.4638 17.31 44.4404 17.3359 44.4112C18.8151 44.4112 20.2817 44.1372 21.7671 44.0999C23.9984 44.0376 25.8912 45.1711 27.8404 46.1052C31.3377 47.7619 34.6407 49.6987 38.1819 51.1685C39.7619 51.8254 41.3873 52.3686 43.0456 52.794C44.699 53.1474 46.374 53.3929 48.0597 53.5289C49.8522 53.7593 51.6259 54.1517 53.4122 54.3946C55.4128 54.6301 57.4299 54.6947 59.4416 54.5877C67.4309 54.4477 75.3958 53.6667 83.2585 52.2522C90.4035 50.9194 97.5486 48.914 103.772 45.0839C106.233 43.5972 108.317 41.5687 109.864 39.1549C110.579 38.0401 111.187 36.8381 111.851 35.6922C112.34 34.839 112.929 33.8238 112.842 32.8336C112.697 30.6787 110.309 32.2855 109.432 32.8896Z" fill="#C66720"/>
<path opacity="0.4" fill-rule="evenodd" clip-rule="evenodd" d="M61.3723 66.0159C30.3477 70.3754 21.0591 57.9632 21.3412 58.3306C28.9124 68.2953 41.6294 70.4751 62.5381 70.0578C84.8883 69.6156 93.9701 66.9937 100.307 61.4384C103.516 58.6171 107.069 48.2103 107.778 46.1862C92.2527 58.8787 87.8215 62.2791 61.3723 66.0159Z" fill="#C66720"/>
<path fill-rule="evenodd" clip-rule="evenodd" d="M117.968 21.5112C117.611 19.3252 114.208 19.0201 112.528 18.3973C111.043 17.8492 110.021 16.5289 108.811 15.5387C107.506 14.4664 106.054 13.5836 104.499 12.9167C100.958 11.3971 97.4107 10.1827 94.1829 8.03403C91.2121 6.04733 87.5643 5.79199 84.1547 5.2377C82.047 4.91072 79.984 4.34443 78.0062 3.54994C76.2494 2.7295 74.3935 2.13714 72.4845 1.78744C70.5165 1.52587 68.492 1.97428 66.524 2.05524C64.3429 2.14243 62.3372 1.43245 60.2877 0.80966C58.6147 0.207567 56.8377 -0.0570861 55.0606 0.0311718C53.4059 0.168186 51.9268 1.04009 50.5354 1.89954C50.5005 1.91882 50.4712 1.94672 50.4503 1.98054C50.4294 2.01436 50.4177 2.05296 50.4163 2.09261C48.8431 2.90847 47.3326 3.81774 45.7532 4.63982C44.4352 5.36214 43.0216 5.89674 41.5539 6.22794C39.7551 6.60161 38.0628 6.30267 36.2766 6.07224C33.1428 5.66743 30.1782 5.59269 27.2074 6.7324C23.6724 8.09008 20.8583 10.8553 17.3547 12.3375C14.34 13.5831 11.7139 15.0591 9.83359 17.8181C9.05097 18.976 8.51753 20.2821 8.2667 21.6545C8.0348 23.1305 8.39205 24.4695 8.70543 25.9144C9.11909 27.7827 8.7493 29.2774 8.21029 31.0773C7.75098 32.2641 7.78479 33.5835 8.3043 34.7455C8.79317 35.6922 9.83359 36.3025 10.7424 36.7883C11.6512 37.2741 13.9702 37.7972 14.1645 38.9307C14.9918 43.7386 20.4321 41.4841 23.6348 42.6674C25.208 43.2591 26.6621 44.1559 28.2603 44.7351C30.0967 45.4015 32.0209 45.8997 33.9012 46.4042C37.6617 47.4131 41.2844 48.7583 44.9384 50.1409C46.5492 50.7637 48.0722 51.536 49.7958 51.8474C51.5194 52.1588 53.2994 51.8785 55.0042 51.729C58.5453 51.4114 69.7455 52.3518 71.231 51.5982C73.1551 50.6578 74.9414 50.745 77.0222 50.9194C78.6455 51.0564 80.0495 49.8607 81.679 49.7299C83.5522 49.5465 85.3996 49.1601 87.1883 48.5777C88.7836 47.9652 90.4089 47.4331 92.0582 46.9834C93.9385 46.5661 95.5806 45.2146 97.4797 44.9593C101.171 44.4548 103.879 42.3996 106.737 40.0143C109.332 37.8533 115.468 30.4047 116 28.9287C116.533 27.4526 116.928 25.8147 117.36 24.2889C117.599 23.4356 118.119 22.4205 117.968 21.5112Z" fill="#F0A508"/>
<g opacity="0.5">
<path opacity="0.5" fill-rule="evenodd" clip-rule="evenodd" d="M60.0622 10.5314C59.542 11.2102 58.9153 11.3971 58.9717 15.6196C59.0281 19.8421 59.4355 21.4365 57.7996 24.6376C56.1638 27.8387 52.9924 30.9465 51.8705 34.3531C50.7486 37.7598 49.3321 43.3525 50.7674 45.526C52.2027 47.6995 57.4298 48.7707 64.5561 48.9638C71.6824 49.1569 79.498 47.9985 83.8916 46.6408C88.2852 45.2831 90.8236 44.7226 91.8201 43.5268C92.8167 42.3311 87.8465 32.1173 84.368 28.1315C80.8895 24.1456 79.2223 22.8253 75.2988 19.5245C71.3752 16.2237 69.6579 14.9096 67.7212 12.2441C65.7846 9.57852 65.2831 9.43528 63.2462 9.46642C62.0958 9.46315 60.9765 9.83753 60.0622 10.5314Z" fill="#E2CAB3"/>
<path opacity="0.5" fill-rule="evenodd" clip-rule="evenodd" d="M20.4761 37.3675C23.2401 31.0337 26.8878 28.1502 27.9094 26.7178C30.7236 22.7755 32.3908 21.0504 36.12 20.4899C39.8492 19.9294 37.806 19.9481 42.0429 19.3564C46.2798 18.7647 49.8335 17.8492 52.6978 15.6197C55.5621 13.3901 57.0412 11.6525 58.5642 11.1107C60.0873 10.5688 62.4376 9.36061 60.7704 11.0671C59.1033 12.7735 61.3283 13.4212 58.1945 18.0485C55.0607 22.6759 53.569 25.0674 52.4533 28.636C51.3377 32.2046 50.1845 43.3401 47.6336 44.2182C45.0826 45.0963 38.9968 45.252 33.3434 43.1657C28.9566 41.4546 24.6618 39.5193 20.4761 37.3675Z" fill="#E2CAB3"/>
<path opacity="0.5" fill-rule="evenodd" clip-rule="evenodd" d="M96.878 40.2136C96.878 40.2136 102.118 38.5882 105.126 35.9911C108.135 33.3941 111.143 30.9714 112.096 27.4028C113.048 23.8343 114.126 22.9437 112.961 21.8849C111.795 20.8262 105.559 15.2024 100.425 12.431C95.2923 9.65954 88.7677 7.90949 82.9639 6.69505C77.1601 5.48061 74.0828 6.19059 71.0555 6.07226C68.0283 5.95393 63.2335 9.42288 63.3025 9.46024C64.9786 11.0619 66.8431 12.4567 68.8556 13.6143C71.5757 15.0342 77.9185 17.4382 81.0147 19.2194C84.1109 21.0006 86.5678 24.9366 87.2823 26.7801C87.9968 28.6235 88.9996 29.1965 90.0213 32.7277C91.0429 36.2589 93.8758 41.945 93.8758 41.945L96.878 40.2136Z" fill="#E2CAB3"/>
<path opacity="0.5" fill-rule="evenodd" clip-rule="evenodd" d="M11.9397 18.7585C11.9397 18.7585 9.52041 25.2169 10.7739 28.3246C11.6432 30.3631 12.8274 32.2542 14.2838 33.9297C14.2838 33.9297 17.4176 36.9067 19.5548 33.8238C21.6921 30.741 26.3238 23.5416 30.0029 20.7639C33.682 17.9863 38.2636 17.3884 41.6606 16.9836C45.0577 16.5788 53.0363 15.2149 55.2425 13.4274C57.4487 11.64 63.3026 9.46027 63.3026 9.46027C60.7701 8.30492 58.1319 7.39356 55.4243 6.73867C51.3253 5.80449 44.7694 8.30188 39.4482 7.0563C34.127 5.81071 28.9374 8.6195 23.0459 11.6089C19.1336 13.653 15.4163 16.0461 11.9397 18.7585Z" fill="#E2CAB3"/>
<path opacity="0.5" fill-rule="evenodd" clip-rule="evenodd" d="M47.0383 5.53671C47.0383 5.53671 52.5475 0.373776 56.2893 0.467195C61.0213 0.591753 62.5569 1.62559 64.8195 2.33557C67.3955 3.13274 68.4234 3.45036 67.759 4.47797C67.0946 5.50557 63.9608 10.0831 63.9608 10.0831C63.9608 10.0831 56.4397 6.41485 53.682 5.99135C51.4823 5.67246 49.2613 5.52048 47.0383 5.53671Z" fill="#E2CAB3"/>
</g>
<path opacity="0.4" fill-rule="evenodd" clip-rule="evenodd" d="M101.222 11.2539C99.7361 10.6311 98.2444 10.1142 96.7841 9.42287C95.0739 8.55029 93.3163 7.77269 91.5193 7.09363C89.8981 6.59936 88.2342 6.25535 86.5491 6.06603C82.7384 5.44323 79.2411 3.88003 75.5871 2.75901C73.4921 2.11853 71.3028 1.83634 69.1127 1.92447C67.2073 2.04902 65.2957 2.04902 63.3904 1.92447C61.5101 1.72517 59.8554 0.859494 58.0253 0.379945C55.8003 -0.205478 53.9514 0.379945 51.9771 1.43246C49.0626 2.93339 46.1545 4.76439 42.9956 5.72349C41.3085 6.27025 39.5429 6.53952 37.7684 6.52066C35.8882 6.45838 34.0956 6.08471 32.2467 5.96015C30.2098 5.74405 28.1534 6.11596 26.3238 7.03135C24.9352 7.76265 23.6266 8.63507 22.4191 9.63462C22.4128 9.74455 22.4128 9.85476 22.4191 9.9647C22.0546 11.0228 21.9242 12.1465 22.0368 13.2593C22.0919 14.3947 22.3912 15.5052 22.9145 16.5161C23.4377 17.527 24.1728 18.4148 25.0703 19.1197C26.374 20.2158 27.7403 21.0566 28.8309 22.3707C29.9214 23.6848 30.7111 25.0549 31.9647 26.1074C34.0079 27.8388 36.7218 27.9758 39.2915 27.9758C40.6453 27.9758 41.9928 27.9073 43.3403 27.9758C45.1899 28.1693 47.0085 28.5876 48.7555 29.2214C52.3657 30.3424 55.9069 31.8932 59.6361 32.6218C63.3653 33.3505 67.0632 32.4724 70.6858 31.507C74.3085 30.5417 77.881 29.894 81.4285 28.9598C84.6358 28.1764 87.6799 26.8399 90.4225 25.0113C93.3494 22.8985 95.9964 20.4273 98.3009 17.6562C99.1846 16.6348 100.024 15.576 100.896 14.5422C101.67 13.7631 102.189 12.7683 102.381 11.6898C101.987 11.564 101.6 11.4185 101.222 11.2539Z" fill="#E2CAB3"/>
<path fill-rule="evenodd" clip-rule="evenodd" d="M51.2122 15.5325C50.9239 15.5947 50.6356 15.6446 50.3661 15.6819H50.2783C48.3103 16.0618 46.3611 16.5352 44.3367 16.3795C42.9703 16.2798 37.6303 16.4231 38.8839 18.8706C38.8987 18.913 38.8987 18.9591 38.8839 19.0014C39.987 19.6989 42.4376 19.4125 43.2712 19.3502C43.9779 19.3022 44.6799 19.2002 45.3708 19.045C47.3366 18.2703 49.2062 17.2735 50.9427 16.0743C51.055 15.9056 51.1455 15.7236 51.2122 15.5325Z" fill="#C66720"/>
<path fill-rule="evenodd" clip-rule="evenodd" d="M58.9842 20.552C59.1138 19.248 59.0674 17.9327 58.8463 16.6409C58.009 18.6173 56.9358 20.4866 55.6499 22.2086C54.8977 23.149 53.9012 23.9649 53.2932 25.0112C52.9673 25.5717 52.5161 26.4062 52.7542 27.0913C53.1303 28.1687 53.7946 28.1625 54.5029 28.0193C55.7188 27.2719 56.8344 25.5281 57.4361 24.6313C57.9927 23.8005 58.4452 22.9054 58.7836 21.9657C58.8526 21.4986 58.9153 21.0315 58.9842 20.552Z" fill="#C66720"/>
<path fill-rule="evenodd" clip-rule="evenodd" d="M79.0217 16.8154C77.5521 16.2207 76.0521 15.703 74.5279 15.2646C73.5972 15.0242 72.6876 14.7097 71.8077 14.3242C71.1323 13.9213 70.3691 13.6863 69.5827 13.6391C69.5352 13.636 69.4877 13.6452 69.4448 13.6657C69.4019 13.6863 69.3651 13.7175 69.338 13.7564C69.3109 13.7953 69.2943 13.8405 69.29 13.8876C69.2856 13.9347 69.2936 13.9821 69.3132 14.0253C69.3755 14.2235 69.4981 14.3975 69.6642 14.5235C70.5989 15.8223 71.6341 17.0467 72.7604 18.1855C73.7695 19.319 74.6407 20.5397 75.7688 21.5922C77.2981 23.0557 80.0621 23.9463 81.629 21.9285C83.3589 19.6802 81.0023 17.6437 79.0217 16.8154Z" fill="#C66720"/>
<path fill-rule="evenodd" clip-rule="evenodd" d="M72.7039 5.77956C72.1712 4.63985 70.4413 4.67099 69.2943 4.93879C69.2012 4.95087 69.109 4.9696 69.0186 4.99484C67.4312 5.80624 66.1998 7.16955 65.5588 8.82501C67.4391 8.27072 68.8243 6.95663 70.8111 6.7262C71.1307 6.68883 73.0674 6.54559 72.7039 5.77956Z" fill="#C66720"/>
<path fill-rule="evenodd" clip-rule="evenodd" d="M46.1792 7.8471C46.431 7.92684 46.6924 7.97292 46.9564 7.98411C47.5772 7.87854 48.2073 7.8368 48.8367 7.85955C49.081 7.84733 49.3257 7.84733 49.57 7.85955C50.3907 7.89225 51.2089 7.97126 52.0206 8.09622L52.3403 8.18341C52.7866 8.23036 53.2344 8.10801 53.5938 7.84087C51.7574 7.03747 46.6994 5.13173 46.01 7.59175C46.0005 7.64769 46.0126 7.70515 46.044 7.75253C46.0754 7.79992 46.1237 7.83371 46.1792 7.8471Z" fill="#C66720"/>
<path fill-rule="evenodd" clip-rule="evenodd" d="M11.8018 34.8016C11.655 35.1256 11.5497 35.4667 11.4884 35.8167C11.3946 36.0773 11.3397 36.35 11.3254 36.6264C11.3284 36.6438 11.3354 36.6602 11.346 36.6744C11.3566 36.6886 11.3703 36.7001 11.3862 36.708C11.4021 36.7159 11.4196 36.7199 11.4374 36.7198C11.4551 36.7197 11.4726 36.7154 11.4884 36.7073C11.6764 36.6015 11.6827 36.2838 11.714 36.0845C11.7709 35.6613 11.8674 35.2443 12.0023 34.839C12.0525 34.7455 11.8582 34.6833 11.8018 34.8016Z" fill="#C66720"/>
<path fill-rule="evenodd" clip-rule="evenodd" d="M12.9799 35.7668C12.8198 36.0752 12.7038 36.4043 12.6351 36.7446C12.585 36.9252 12.4408 37.2117 12.4973 37.3674C12.5008 37.3876 12.5105 37.4062 12.5251 37.4206C12.5397 37.4351 12.5584 37.4448 12.5787 37.4483C12.8169 37.4483 12.842 37.1369 12.8796 36.9688C12.9673 36.6013 13.0425 36.2214 13.1679 35.8602C13.2118 35.7543 13.0425 35.6547 12.9799 35.7668Z" fill="#C66720"/>
<path fill-rule="evenodd" clip-rule="evenodd" d="M18.6461 40.0143C18.5897 40.6371 18.3891 41.2599 18.3954 41.92C18.3954 42.1069 18.69 42.138 18.6963 41.92C18.791 41.278 18.8516 40.6315 18.878 39.9832C18.8717 39.8586 18.6586 39.8897 18.6461 40.0143Z" fill="#C66720"/>
<path fill-rule="evenodd" clip-rule="evenodd" d="M20.2004 40.3382C19.9955 40.8291 19.8972 41.3576 19.9121 41.8889C19.9121 42.0882 20.2318 42.1256 20.238 41.8889C20.2565 41.3748 20.3131 40.8627 20.4073 40.3569C20.4323 40.2572 20.2443 40.2261 20.2004 40.3382Z" fill="#C66720"/>
<path fill-rule="evenodd" clip-rule="evenodd" d="M45.5278 48.8393C45.4334 49.0739 45.3661 49.3183 45.3273 49.568C45.2683 49.7914 45.2429 50.0223 45.2521 50.2531C45.2603 50.278 45.2763 50.2997 45.2976 50.3151C45.319 50.3305 45.3448 50.3387 45.3712 50.3387C45.3976 50.3387 45.4233 50.3305 45.4447 50.3151C45.466 50.2997 45.482 50.278 45.4902 50.2531C45.5433 50.0496 45.5706 49.8404 45.5717 49.6303C45.6093 49.3687 45.6219 49.1071 45.672 48.8456C45.6845 48.7895 45.5592 48.7708 45.5278 48.8393Z" fill="#C66720"/>
<path fill-rule="evenodd" clip-rule="evenodd" d="M47.3077 49.0572C47.2097 49.3718 47.1426 49.6951 47.1072 50.0226C47.0368 50.297 47.0156 50.5816 47.0445 50.8633C47.0542 50.8876 47.0711 50.9084 47.0929 50.9231C47.1147 50.9377 47.1404 50.9456 47.1667 50.9456C47.193 50.9456 47.2187 50.9377 47.2405 50.9231C47.2623 50.9084 47.2791 50.8876 47.2889 50.8633C47.3558 50.6179 47.3854 50.3639 47.3767 50.1098C47.3767 49.761 47.4331 49.4122 47.4644 49.0697C47.4611 49.0523 47.4521 49.0364 47.4388 49.0245C47.4255 49.0126 47.4087 49.0055 47.3908 49.004C47.373 49.0026 47.3552 49.0071 47.3402 49.0167C47.3252 49.0263 47.3138 49.0405 47.3077 49.0572Z" fill="#C66720"/>
<path fill-rule="evenodd" clip-rule="evenodd" d="M54.384 50.1222C54.384 50.0226 54.2649 49.9354 54.2147 50.0288C54.0534 50.3367 53.9675 50.6781 53.964 51.0253C53.964 51.1997 53.9202 51.6481 54.1395 51.6917C54.1535 51.6966 54.1683 51.6987 54.1832 51.698C54.198 51.6972 54.2125 51.6935 54.2259 51.6871C54.2393 51.6808 54.2513 51.6719 54.2612 51.6609C54.2711 51.6499 54.2788 51.6371 54.2837 51.6232C54.2938 51.429 54.2791 51.2344 54.2398 51.044C54.2372 50.731 54.2859 50.4197 54.384 50.1222Z" fill="#C66720"/>
<path fill-rule="evenodd" clip-rule="evenodd" d="M56.1451 50.06C56.1407 50.046 56.1319 50.0339 56.1201 50.0252C56.1083 50.0166 56.094 50.0119 56.0793 50.0119C56.0646 50.0119 56.0503 50.0166 56.0384 50.0252C56.0266 50.0339 56.0178 50.046 56.0135 50.06C55.8749 50.5923 55.8199 51.1427 55.8505 51.6917C55.8505 51.8598 56.12 51.8785 56.1137 51.6917C56.0843 51.1478 56.0947 50.6024 56.1451 50.06Z" fill="#C66720"/>
<path fill-rule="evenodd" clip-rule="evenodd" d="M58.0754 50.2531C58.0754 50.2316 58.0668 50.211 58.0515 50.1958C58.0362 50.1807 58.0155 50.1721 57.9939 50.1721C57.9723 50.1721 57.9516 50.1807 57.9363 50.1958C57.921 50.211 57.9124 50.2316 57.9124 50.2531C57.8873 50.5022 57.8685 50.7513 57.856 51.0004C57.856 51.181 57.7307 51.4177 57.856 51.5734C57.8659 51.581 57.878 51.5851 57.8905 51.5851C57.903 51.5851 57.9151 51.581 57.925 51.5734C58.1381 51.5734 58.1255 51.2309 58.1381 51.0689C58.1495 50.7955 58.1284 50.5217 58.0754 50.2531Z" fill="#C66720"/>
<path fill-rule="evenodd" clip-rule="evenodd" d="M92.4093 46.3607C92.4093 46.398 92.4093 46.2984 92.4093 46.2859C92.3715 46.1969 92.3401 46.1054 92.3153 46.0119C92.2526 45.769 92.2401 45.5074 92.1649 45.2646C92.1649 45.196 92.027 45.1587 92.0082 45.2646C91.9894 45.3704 92.0082 46.7406 92.3968 46.5101C92.4105 46.5035 92.4222 46.4935 92.4308 46.481C92.4394 46.4685 92.4446 46.454 92.4459 46.439C92.4472 46.4239 92.4445 46.4087 92.4381 46.395C92.4316 46.3813 92.4217 46.3694 92.4093 46.3607Z" fill="#C66720"/>
<path fill-rule="evenodd" clip-rule="evenodd" d="M94.6407 45.8001C94.5164 45.4186 94.3656 45.0461 94.1895 44.6853C94.1811 44.6597 94.1629 44.6384 94.1388 44.6261C94.1148 44.6139 94.0867 44.6116 94.061 44.6199C94.0352 44.6281 94.0138 44.6462 94.0015 44.6702C93.9891 44.6941 93.9869 44.722 93.9952 44.7476C94.0886 45.1499 94.2101 45.5453 94.3587 45.9309C94.4276 46.1177 94.7159 45.9869 94.6407 45.8001Z" fill="#C66720"/>
<path fill-rule="evenodd" clip-rule="evenodd" d="M96.784 44.6977C96.5662 44.386 96.4186 44.0312 96.3516 43.6576C96.3458 43.6346 96.3325 43.6143 96.3138 43.5997C96.295 43.5851 96.2719 43.5772 96.2481 43.5772C96.2243 43.5772 96.2012 43.5851 96.1825 43.5997C96.1637 43.6143 96.1504 43.6346 96.1447 43.6576C96.1159 44.1041 96.2494 44.5461 96.5208 44.9032C96.6399 45.1025 96.9094 44.8783 96.784 44.6977Z" fill="#C66720"/>
<path fill-rule="evenodd" clip-rule="evenodd" d="M99.4541 44.3926C99.2434 44.2168 99.0709 44.0003 98.947 43.7562C98.8231 43.5121 98.7504 43.2455 98.7333 42.9726C98.7347 42.9577 98.7315 42.9426 98.7241 42.9295C98.7168 42.9163 98.7056 42.9057 98.692 42.8989C98.6785 42.8922 98.6632 42.8897 98.6482 42.8917C98.6332 42.8938 98.6192 42.9003 98.608 42.9104C98.0564 43.2965 98.8837 44.293 99.1908 44.5857C99.3475 44.76 99.6108 44.5483 99.4541 44.3926Z" fill="#C66720"/>
<path fill-rule="evenodd" clip-rule="evenodd" d="M102.475 42.9726C102.144 42.4148 101.777 41.8781 101.378 41.3658C101.335 41.2911 101.19 41.316 101.222 41.4157C101.416 42.0385 101.968 42.4806 102.237 43.0847C102.306 43.2529 102.544 43.1408 102.475 42.9726Z" fill="#C66720"/>
<path fill-rule="evenodd" clip-rule="evenodd" d="M104.969 41.0482C104.913 40.9299 104.763 40.8614 104.662 40.7867L104.167 40.4255C104.042 40.332 103.91 40.2449 103.779 40.1577C103.647 40.0705 103.641 40.1203 103.584 40.0892C103.528 40.058 103.534 40.0892 103.553 40.0892C103.572 40.0892 103.584 40.1888 103.628 40.2324C103.739 40.3467 103.856 40.4548 103.979 40.5562C104.136 40.6933 104.299 40.8178 104.462 40.9424C104.625 41.0669 104.712 41.1728 104.857 41.1728C104.872 41.1729 104.888 41.1696 104.903 41.1632C104.917 41.1569 104.93 41.1475 104.941 41.1357C104.952 41.1239 104.96 41.1101 104.965 41.095C104.97 41.0799 104.971 41.064 104.969 41.0482Z" fill="#C66720"/>
<path fill-rule="evenodd" clip-rule="evenodd" d="M107.094 39.4912C107.083 39.455 107.061 39.4226 107.033 39.3973C107.004 39.3721 106.969 39.3551 106.931 39.3479C106.814 39.2941 106.707 39.2227 106.612 39.1362C106.391 38.9439 106.2 38.7192 106.048 38.4698C105.979 38.3639 105.816 38.4698 105.866 38.5881C106 38.886 106.194 39.1531 106.436 39.3729C106.587 39.5099 106.869 39.7403 107.063 39.6095C107.08 39.5954 107.092 39.5765 107.098 39.5553C107.103 39.5341 107.102 39.5117 107.094 39.4912Z" fill="#C66720"/>
<path fill-rule="evenodd" clip-rule="evenodd" d="M114.171 31.4821C114.142 31.4484 114.107 31.4211 114.067 31.4018C114.027 31.3825 113.983 31.3716 113.939 31.37C113.8 31.346 113.667 31.293 113.55 31.2143C113.301 31.043 113.114 30.7961 113.017 30.5105C113.017 30.4171 112.855 30.4732 112.861 30.5604C112.9 30.8965 113.068 31.2045 113.331 31.4198C113.513 31.5693 113.958 31.8122 114.164 31.5942C114.179 31.5792 114.187 31.5598 114.188 31.5393C114.189 31.5188 114.183 31.4985 114.171 31.4821Z" fill="#C66720"/>
<path fill-rule="evenodd" clip-rule="evenodd" d="M115.555 29.894C115.026 29.6218 114.58 29.213 114.264 28.7106C114.208 28.6172 114.045 28.7106 114.101 28.7916C114.39 29.3666 114.861 29.8307 115.443 30.1119C115.568 30.1618 115.681 29.95 115.555 29.894Z" fill="#C66720"/>
<path fill-rule="evenodd" clip-rule="evenodd" d="M116.414 27.6955C116.174 27.5399 115.943 27.3693 115.725 27.1848C115.511 26.9917 115.311 26.7986 115.098 26.6243C115.016 26.562 114.91 26.6803 114.979 26.7613C115.305 27.2654 115.759 27.6756 116.295 27.9508C116.327 27.9589 116.362 27.9555 116.392 27.9411C116.422 27.9268 116.447 27.9023 116.461 27.8721C116.475 27.8418 116.478 27.8076 116.469 27.7754C116.461 27.7432 116.441 27.7149 116.414 27.6955Z" fill="#C66720"/>
<path fill-rule="evenodd" clip-rule="evenodd" d="M10.2475 33.1574C9.7049 33.8964 9.33841 34.7482 9.17578 35.6486C9.17578 35.7233 9.28233 35.7296 9.30113 35.6486C9.51628 34.7935 9.89971 33.9891 10.4293 33.282C10.5045 33.1637 10.3228 33.0391 10.2475 33.1574Z" fill="#C66720"/>
<path fill-rule="evenodd" clip-rule="evenodd" d="M9.26973 32.5409C9.13184 32.6032 9.07543 32.7215 8.98142 32.8461C8.88741 32.9707 8.72445 33.2073 8.61163 33.4004C8.45175 33.6218 8.36622 33.8877 8.3672 34.1602C8.3672 34.2536 8.51135 34.2349 8.51762 34.1602C8.59048 33.8783 8.72295 33.615 8.90621 33.3879C9.05663 33.1575 9.35121 32.8959 9.38255 32.6219C9.38364 32.6081 9.38113 32.5942 9.37526 32.5816C9.36939 32.569 9.36035 32.5581 9.34902 32.5499C9.33769 32.5418 9.32445 32.5367 9.31056 32.5351C9.29667 32.5336 9.28261 32.5356 9.26973 32.5409Z" fill="#C66720"/>
<path fill-rule="evenodd" clip-rule="evenodd" d="M11.0813 34.5649C10.905 34.8466 10.762 35.1475 10.6551 35.4617C10.5156 35.755 10.4145 36.0647 10.3542 36.3835C10.3542 36.4644 10.4733 36.4893 10.4921 36.3835C10.5725 36.0765 10.6881 35.7798 10.8369 35.4991C11.0199 35.2161 11.1475 34.9012 11.2129 34.5711C11.2137 34.5538 11.2076 34.5368 11.1958 34.524C11.1841 34.5111 11.1677 34.5035 11.1502 34.5026C11.1328 34.5018 11.1157 34.5079 11.1028 34.5196C11.0898 34.5313 11.0821 34.5476 11.0813 34.5649Z" fill="#C66720"/>
<path fill-rule="evenodd" clip-rule="evenodd" d="M14.478 36.7447C14.0079 36.8879 13.7885 37.5045 13.6632 37.9342C13.6585 37.9563 13.662 37.9794 13.6731 37.9992C13.6842 38.0189 13.7021 38.034 13.7235 38.0416C13.745 38.0492 13.7685 38.0488 13.7896 38.0405C13.8108 38.0322 13.8282 38.0166 13.8387 37.9965C13.9138 37.7789 14.0126 37.57 14.1333 37.3737C14.2523 37.1869 14.4216 37.0312 14.5469 36.8443C14.572 36.807 14.5344 36.7447 14.478 36.7447Z" fill="#C66720"/>
<path fill-rule="evenodd" clip-rule="evenodd" d="M15.5184 38.613C15.274 38.7002 15.1423 39.0054 15.0295 39.2358C14.9015 39.5036 14.8433 39.7992 14.8603 40.0952C14.8603 40.1949 15.0107 40.2136 15.017 40.0952C15.038 39.8476 15.1016 39.6053 15.205 39.379C15.3053 39.1361 15.5497 38.9493 15.6187 38.7064C15.6235 38.6928 15.6242 38.678 15.6207 38.664C15.6172 38.65 15.6097 38.6372 15.5991 38.6273C15.5885 38.6174 15.5752 38.6108 15.5609 38.6083C15.5466 38.6057 15.5318 38.6074 15.5184 38.613Z" fill="#C66720"/>
<path fill-rule="evenodd" clip-rule="evenodd" d="M16.5274 39.267C16.3265 39.5854 16.1745 39.9317 16.0762 40.2946C15.942 40.6328 15.8412 40.9833 15.7753 41.3409C15.7703 41.3624 15.7742 41.3849 15.7859 41.4036C15.7977 41.4223 15.8164 41.4356 15.838 41.4405C15.8596 41.4455 15.8823 41.4417 15.9011 41.43C15.9199 41.4184 15.9333 41.3997 15.9383 41.3783C16.0316 41.0315 16.151 40.6921 16.2955 40.3631C16.4725 40.0326 16.5992 39.6779 16.6716 39.3106C16.6745 39.3012 16.6755 39.2913 16.6745 39.2815C16.6736 39.2717 16.6707 39.2622 16.666 39.2536C16.6613 39.2449 16.655 39.2372 16.6474 39.231C16.6397 39.2247 16.6309 39.22 16.6215 39.2172C16.612 39.2143 16.6021 39.2133 16.5922 39.2143C16.5824 39.2152 16.5728 39.2181 16.5641 39.2227C16.5553 39.2274 16.5476 39.2337 16.5413 39.2412C16.535 39.2488 16.5303 39.2576 16.5274 39.267Z" fill="#C66720"/>
<path fill-rule="evenodd" clip-rule="evenodd" d="M17.4489 40.2697C17.2304 40.7562 17.1398 41.2898 17.1857 41.8205C17.1857 41.9263 17.3486 41.9388 17.3486 41.8205C17.3486 41.3036 17.5805 40.7929 17.5492 40.2822C17.5457 40.2723 17.5396 40.2636 17.5314 40.2571C17.5232 40.2505 17.5134 40.2464 17.5029 40.2451C17.4925 40.2438 17.4819 40.2454 17.4724 40.2498C17.4628 40.2541 17.4547 40.261 17.4489 40.2697Z" fill="#C66720"/>
<path fill-rule="evenodd" clip-rule="evenodd" d="M49.1317 49.5368C48.91 50.1139 48.8263 50.7343 48.8872 51.3491C48.8872 51.4301 49.0314 51.4238 49.0377 51.3491C49.0377 51.0502 49.0815 50.7263 49.1192 50.4585C49.1915 50.1629 49.2273 49.8597 49.2257 49.5555C49.2257 49.4932 49.1505 49.4994 49.1317 49.5368Z" fill="#C66720"/>
<path fill-rule="evenodd" clip-rule="evenodd" d="M50.7674 50.7324C50.7674 50.446 50.9053 50.1906 50.9303 49.9041C50.9268 49.8946 50.9204 49.8864 50.912 49.8806C50.9035 49.8748 50.8936 49.8716 50.8833 49.8716C50.8731 49.8716 50.8631 49.8748 50.8547 49.8806C50.8463 49.8864 50.8399 49.8946 50.8363 49.9041C50.6542 50.1956 50.548 50.5276 50.5272 50.8701C50.5064 51.2125 50.5717 51.5548 50.7172 51.8659C50.7611 51.9593 50.8865 51.8659 50.8551 51.8036C50.7431 51.4581 50.7131 51.0915 50.7674 50.7324Z" fill="#C66720"/>
<path fill-rule="evenodd" clip-rule="evenodd" d="M52.2718 50.9442C52.2912 50.6597 52.2658 50.3739 52.1966 50.0972C52.1897 50.0842 52.1793 50.0733 52.1666 50.0657C52.1539 50.058 52.1393 50.054 52.1245 50.054C52.1097 50.054 52.0951 50.058 52.0824 50.0657C52.0697 50.0733 52.0593 50.0842 52.0524 50.0972C51.9991 50.3792 51.9991 50.6685 52.0524 50.9504C52.0706 51.2757 52.1274 51.5976 52.2217 51.9095C52.2217 52.0154 52.4159 51.9905 52.3909 51.9095C52.3247 51.5915 52.2849 51.2687 52.2718 50.9442Z" fill="#C66720"/>
<path fill-rule="evenodd" clip-rule="evenodd" d="M108.674 36.7446C108.674 36.6761 108.58 36.6388 108.548 36.6948C108.497 36.7758 108.469 36.8698 108.469 36.9657C108.469 37.0617 108.497 37.1557 108.548 37.2367C108.649 37.4297 108.893 37.7162 109.131 37.6851C109.15 37.6806 109.167 37.669 109.177 37.6528C109.188 37.6365 109.191 37.6168 109.188 37.5979C109.125 37.2616 108.592 37.1246 108.674 36.7446Z" fill="#C66720"/>
<path fill-rule="evenodd" clip-rule="evenodd" d="M110.936 35.7421C110.874 35.6424 110.817 35.63 110.705 35.5926C110.551 35.5446 110.413 35.4539 110.31 35.331C110.109 35.0959 109.969 34.8159 109.902 34.5152C109.9 34.5029 109.895 34.4913 109.888 34.4809C109.881 34.4705 109.872 34.4615 109.861 34.4546C109.851 34.4477 109.839 34.4428 109.827 34.4404C109.815 34.438 109.802 34.438 109.789 34.4404C109.777 34.4429 109.765 34.4477 109.755 34.4547C109.744 34.4617 109.735 34.4706 109.729 34.481C109.722 34.4914 109.717 34.5031 109.714 34.5154C109.712 34.5277 109.712 34.5403 109.714 34.5526C109.771 34.8962 109.911 35.2211 110.122 35.4992C110.278 35.6923 110.692 36.0099 110.943 35.8355C110.952 35.8212 110.956 35.8045 110.955 35.7878C110.953 35.7711 110.947 35.7551 110.936 35.7421Z" fill="#C66720"/>
<path fill-rule="evenodd" clip-rule="evenodd" d="M112.002 33.6309C111.807 33.4378 111.6 33.2447 111.419 33.0392C111.343 32.952 111.187 33.0392 111.243 33.1451C111.385 33.3957 111.558 33.6279 111.757 33.8364C111.926 34.0108 112.114 34.291 112.384 34.3097C112.397 34.3108 112.41 34.3089 112.423 34.3042C112.435 34.2994 112.446 34.292 112.455 34.2824C112.464 34.2729 112.471 34.2614 112.475 34.2488C112.479 34.2363 112.48 34.223 112.478 34.21C112.44 33.9672 112.19 33.8052 112.002 33.6309Z" fill="#C66720"/>
<path opacity="0.4" fill-rule="evenodd" clip-rule="evenodd" d="M66.1983 11.9515C66.1983 13.6642 63.5596 15.0654 60.2942 15.0654C57.0288 15.0654 54.3901 13.6766 54.3901 11.9515C54.3901 10.2263 57.0288 8.83752 60.2942 8.83752C63.5596 8.83752 66.1983 10.2388 66.1983 11.9515Z" fill="#DA840D"/>
<path fill-rule="evenodd" clip-rule="evenodd" d="M98.5263 37.9901C85.214 34.6333 79.6421 42.0009 79.8614 50.6701C79.9492 54.0581 83.0579 58.729 85.1012 62.2603C86.9136 65.0816 89.0276 67.7001 91.4063 70.0701C92.9106 71.135 94.9162 72.3619 96.9281 72.3619C97.6994 72.2864 98.4369 72.0092 99.0653 71.5585C99.3599 71.6157 99.6448 71.7143 99.9115 71.8512C100.864 72.1751 101.284 70.8548 102.324 71.3219C103.985 72.0755 105.421 70.5434 106.662 69.7089C107.063 69.441 111.049 63.3003 111.481 62.9765C115.587 57.7388 117.655 56.1943 117.699 49.8356C117.749 41.8888 113.732 34.7703 98.5263 37.9901Z" fill="#C73A54"/>
<g style="mix-blend-mode:multiply">
<path fill-rule="evenodd" clip-rule="evenodd" d="M103.572 40.0704C103.572 40.9797 101.228 41.7769 98.2884 41.8516C95.3489 41.9263 92.9484 41.2288 92.9233 40.3382C92.8982 39.4476 95.2674 38.6131 98.2069 38.557C101.146 38.501 103.547 39.1611 103.572 40.0704Z" fill="#ED6366"/>
</g>
<path fill-rule="evenodd" clip-rule="evenodd" d="M90.1405 43.0101C88.9684 41.2476 86.568 41.7645 85.0825 42.7984L85.0073 42.8544C84.6625 43.0859 84.3505 43.3624 84.0797 43.6765C83.0232 44.7905 82.3533 46.2113 82.1681 47.7309C81.9864 49.5993 82.6194 51.6732 84.2427 52.5015C84.2885 52.5247 84.3258 52.5618 84.3492 52.6073C84.4115 52.5944 84.4723 52.5756 84.531 52.5513C85.446 52.1776 85.4022 50.6829 85.4085 49.9231C85.4085 48.2353 86.8187 47.488 88.1098 46.7656C89.2944 46.0867 91.1684 44.5609 90.1405 43.0101Z" fill="#ED6366"/>
<g style="mix-blend-mode:multiply">
<path fill-rule="evenodd" clip-rule="evenodd" d="M111.35 57.3964C110.247 55.9827 108.592 57.7078 107.802 58.5797C105.966 60.6038 104.819 63.1012 102.65 64.8574C100.482 66.6137 96.5458 65.337 94.8598 67.8904C94.781 68.0134 94.7274 68.1507 94.702 68.2944C94.6767 68.438 94.6802 68.5852 94.7122 68.7275C94.7442 68.8698 94.8042 69.0045 94.8887 69.1237C94.9731 69.243 95.0805 69.3445 95.2045 69.4225C95.3797 69.4907 95.5629 69.5367 95.7498 69.5595C96.1397 69.7769 96.5633 69.9285 97.0033 70.0079C98.3782 70.1864 99.7746 69.9246 100.989 69.2605C102.093 68.7374 103.34 69.3477 104.437 68.8308C104.842 68.6112 105.191 68.3023 105.458 67.9278C105.81 67.5226 106.105 67.0723 106.336 66.5888C106.887 65.6815 107.516 64.8231 108.216 64.0229C109.066 63.0639 109.836 62.037 110.516 60.9525C111.331 59.7879 112.071 58.3306 111.35 57.3964Z" fill="#ED6366"/>
</g>
<path fill-rule="evenodd" clip-rule="evenodd" d="M110.999 26.1573C110.259 25.9082 108.899 27.0292 108.323 27.3718C107.007 28.1565 105.672 28.9474 104.406 29.8069C102.482 31.1471 100.889 32.9013 99.7425 34.9387C99.2645 35.8062 98.9442 36.7507 98.7961 37.7288C98.6014 38.2422 98.5037 38.7869 98.5077 39.3356C98.5043 39.374 98.5086 39.4128 98.5203 39.4496C98.532 39.4864 98.5509 39.5206 98.576 39.5501C98.601 39.5796 98.6317 39.604 98.6662 39.6216C98.7008 39.6393 98.7385 39.6501 98.7773 39.6532C101.986 39.6906 105.27 37.6042 107.514 35.5054C108.69 34.4755 109.621 33.1992 110.241 31.7687C110.55 30.9619 110.78 30.1277 110.93 29.2775C111.106 28.3682 110.842 27.2659 111.137 26.4251C111.153 26.3714 111.148 26.3136 111.122 26.2638C111.096 26.2139 111.052 26.1758 110.999 26.1573Z" fill="#8DB54F"/>
<path fill-rule="evenodd" clip-rule="evenodd" d="M97.9685 39.541C97.9685 38.6504 98.238 38.0961 98.495 35.2935C98.752 32.491 98.7018 31.0897 98.8899 30.6288C99.0779 30.168 100.582 31.1457 100.582 31.1457C100.582 31.1457 100.1 33.2944 99.7423 35.0569C99.385 36.8194 99.0278 39.9894 99.0278 39.9894C99.0278 39.9894 98.8335 40.5063 98.3634 40.3755C97.8933 40.2447 97.9685 39.541 97.9685 39.541Z" fill="#300D33"/>
</g>
<defs>
<clipPath id="clip0_430_604">
<rect width="118" height="74" fill="white"/>
</clipPath>
</defs>
</svg>
