<svg width="42" height="24" viewBox="0 0 42 24" fill="none" xmlns="http://www.w3.org/2000/svg">
<g clip-path="url(#clip0_678_4091)">
<path d="M23.0861 14.2211C23.1912 14.3285 25.6278 14.5076 26.0836 14.6509C26.5393 14.8121 36.268 16.6569 36.8114 16.3703C37.3549 16.0838 37.1971 15.7256 38.021 14.8838C38.8448 14.042 38.9675 13.3256 39.7038 12.7882C40.44 12.2509 41.9826 10.1375 41.93 9.56436C41.8774 8.99123 41.3165 8.41809 41.3165 8.41809L22.2622 6.48376H19.1946C19.1946 6.48376 18.5811 8.95541 18.7388 9.1166C18.8966 9.27779 19.2822 13.8808 19.3874 13.9345" fill="#C9653A"/>
<path d="M24.4008 9.60018C26.066 10.4241 28.117 9.90466 29.6069 10.245C31.0969 10.5853 33.7614 10.4778 35.7772 10.9972C37.3899 11.4091 39.1604 11.9465 40.6153 11.9285C41.2989 11.1047 41.9826 10.0121 41.9475 9.6181C41.8949 9.04496 41.334 8.47183 41.334 8.47183L22.2622 6.48376H19.1946C19.1946 6.48376 18.5811 8.95541 18.7388 9.1166C18.7564 9.13451 18.7914 9.24198 18.8089 9.38526C20.632 9.20616 23.349 9.06287 24.4008 9.60018Z" fill="#C9653A"/>
<path d="M34.0241 14.2748C32.2011 13.648 22.2971 12.6271 19.2119 12.3047C19.282 12.8957 19.3521 13.3614 19.3872 13.3793L23.1034 14.2211C23.2086 14.3286 25.6451 14.5077 26.1009 14.651C26.5567 14.8122 36.2854 16.6569 36.8288 16.3704C37.3722 16.0838 37.2144 15.7256 38.0383 14.8838C38.0733 14.848 38.0909 14.8301 38.1084 14.7942C36.8989 14.8659 35.5316 14.7942 34.0241 14.2748Z" fill="#BA5E36"/>
<path d="M19.0366 10.9794C19.0892 11.4272 19.1593 11.9108 19.2119 12.3048C22.2971 12.6093 32.2011 13.6302 34.0241 14.275C35.5491 14.7944 36.8989 14.866 38.1084 14.8302C38.7395 14.1496 38.9498 13.5406 39.4231 13.0571C35.8121 13.0033 29.3613 12.0899 27.4331 11.5347C25.6627 10.9974 21.3505 10.9615 19.0366 10.9794Z" fill="#C9653A"/>
<path d="M39.7039 12.8062C39.9493 12.6271 40.2648 12.2868 40.5978 11.8928C39.1429 11.9286 37.3725 11.3734 35.7598 10.9615C33.7439 10.4421 31.062 10.5495 29.5895 10.2092C28.117 9.86893 26.0486 10.3883 24.3833 9.56446C23.3316 9.04505 20.6145 9.18834 18.7915 9.34953C18.8616 9.68983 18.9317 10.2988 19.0194 10.9436C21.3157 10.9256 25.6454 10.9615 27.4159 11.4809C29.3441 12.054 35.7948 12.9495 39.4059 13.0033C39.511 12.9674 39.5987 12.8958 39.7039 12.8062Z" fill="#B35A34"/>
<path d="M41.9999 10.1731C41.9473 9.59997 41.3163 8.4537 41.3163 8.4537L41.176 8.43579C41.1936 8.50743 41.2111 8.56116 41.2111 8.63281C41.2637 9.20594 39.7211 11.3194 38.9849 11.8567C38.2487 12.394 38.126 13.1104 37.3021 13.9522C36.4782 14.794 36.6535 15.1522 36.0926 15.4388C35.5492 15.7253 25.8204 13.8806 25.3647 13.7194C24.9089 13.5582 22.4724 13.397 22.3672 13.2895V14.203L23.0859 14.2567C23.1911 14.3642 25.6276 14.5433 26.0834 14.6865C26.5391 14.8477 36.2679 16.6925 36.8113 16.4059C37.3547 16.1194 37.1969 15.7612 38.0208 14.9194C38.8447 14.0776 38.9674 13.3612 39.7036 12.8239C40.4398 12.2865 42.0525 10.7462 41.9999 10.1731Z" fill="#E39652"/>
<path d="M25.6101 18.0897C25.6802 18.3763 26.0308 21.5285 26.0133 21.9584C25.9782 22.3882 26.0133 23.6778 25.7328 23.839C24.6285 24.3763 15.671 23.4091 13.7428 23.0509C11.8146 22.7106 6.8363 21.1166 5.80208 20.0778C4.76785 19.0211 1.05166 14.2569 0.841309 12.2151" fill="#E39652"/>
<g opacity="0.73">
<path opacity="0.73" d="M4.90809 13.1823L0.841309 12.2151C1.03413 14.2569 4.76785 19.0211 5.80208 20.0778C6.4156 20.7046 8.41393 21.5106 10.3421 22.1375C9.90391 21.9046 9.57086 21.6897 9.37804 21.4927C8.44899 20.5614 5.60925 17.3554 4.90809 13.1823Z" fill="#D18743"/>
</g>
<path d="M41.8424 8.86576C41.8424 8.84785 41.8424 8.86576 41.8424 8.86576C41.9301 9.15232 41.9652 9.42098 41.9126 9.47471C41.7899 9.60008 40.9309 9.47471 40.4401 9.47471C39.9493 9.47471 39.7214 9.77919 39.0553 9.77919C38.3892 9.77919 37.4076 8.54337 36.5136 8.54337C35.6371 8.54337 33.6388 9.31352 32.5695 9.31352C31.5002 9.31352 30.9217 8.11352 30.1855 7.97023C29.4493 7.84486 27.8541 8.50755 26.89 8.34635C25.9259 8.18516 25.3299 7.54038 24.2957 7.54038C23.2615 7.54038 22.8583 7.79113 22.0695 7.79113C21.2807 7.79113 19.9835 7.34337 19.7907 7.54038C19.6505 7.68367 19.8433 8.00605 20.0361 8.43591C20.4919 8.45382 21.4384 8.74038 22.0695 8.74038C22.8583 8.74038 23.2615 8.48964 24.2957 8.48964C25.3299 8.48964 25.9259 9.15232 26.89 9.29561C27.8541 9.4568 29.4318 8.7762 30.1855 8.91949C30.9217 9.04486 31.5177 10.2628 32.5695 10.2628C33.6388 10.2628 35.6371 9.49262 36.5136 9.49262C37.39 9.49262 38.3717 10.7284 39.0553 10.7284C39.7214 10.7284 39.9493 10.424 40.4401 10.424C40.9309 10.424 41.7899 10.5493 41.9126 10.424C42.0002 10.3165 42.0353 9.34934 41.8424 8.86576Z" fill="#E39652"/>
<path d="M19.7729 7.52248C19.9657 7.32546 21.2629 7.77322 22.0517 7.77322C22.8405 7.77322 23.2437 7.52248 24.2779 7.52248C25.3121 7.52248 25.9081 8.18516 26.8722 8.32845C27.8363 8.48964 29.4139 7.80904 30.1677 7.95233C30.9039 8.0777 31.4999 9.29561 32.5517 9.29561C33.6209 9.29561 35.6193 8.52546 36.4957 8.52546C37.3722 8.52546 38.3538 9.76128 39.0375 9.76128C39.7036 9.76128 39.9315 9.4568 40.4223 9.4568C40.9131 9.4568 41.772 9.58218 41.8947 9.4568C42.0174 9.33143 41.5442 7.93442 41.3689 7.7374C41.1936 7.54039 40.8605 6.80606 40.545 6.00009C40.247 5.19412 38.7044 4.67472 38.2136 4.37024C37.7228 4.06576 37.7403 3.36725 36.7411 2.97322C35.9348 2.65083 35.5667 2.99113 35.0934 2.86576C34.6201 2.74039 34.55 2.09561 34.0592 1.97024C33.5684 1.84486 33.025 2.02397 32.5867 1.91651C32.1485 1.82695 32.0784 1.37919 31.3071 1.23591C30.5183 1.07472 29.9573 1.57621 29.3263 1.34337C28.6952 1.11054 28.1168 0.555312 27.5558 0.555312C26.9949 0.555312 26.0659 0.806058 25.5926 0.806058C25.1368 0.806058 24.8213 0.268745 24.1201 0.179193C23.4189 0.0896404 22.9982 0.609043 22.4023 0.609043C21.8063 0.609043 21.7887 -0.0178223 20.9298 -0.0178223C20.0709 -0.0178223 19.6151 0.48367 19.0892 0.48367C18.5634 0.48367 18.7386 -0.0178223 17.9323 -0.0178223C17.126 -0.0178223 16.863 0.46576 16.2846 0.537402C15.7061 0.609043 15.5834 0.268745 14.8121 0.358297C14.0408 0.429939 13.9006 1.14636 13.4273 1.14636C12.954 1.14636 12.5508 0.931431 11.8672 1.0568C11.1836 1.16427 11.2537 1.57621 10.7103 1.7374C10.1669 1.91651 9.7111 1.5583 9.11511 1.79113C8.51912 2.02397 8.5717 2.43591 8.20359 2.50755C7.81795 2.57919 7.7303 2.2568 6.78372 2.50755C5.83715 2.7583 6.0475 3.0986 5.7495 3.42098C5.43397 3.76128 4.03164 3.49263 3.59341 3.94039C3.13765 4.40606 3.33047 4.6568 3.15518 5.06874C2.97988 5.4986 1.52496 5.69561 1.22696 6.25083C0.928966 6.80606 1.15685 7.61203 1.01661 8.18516C0.876379 8.7583 0.245327 8.66875 0.0349764 9.74337C-0.175374 10.8538 0.771203 12.8956 1.1919 13.0389C1.61261 13.1822 2.01578 14.3643 2.59424 14.7941C3.17271 15.224 4.36469 15.224 4.99574 15.5284C5.64432 15.8329 6.10008 16.2807 6.69608 16.6031C7.29207 16.9255 9.78122 17.6956 11.2011 17.6956C12.621 17.6956 14.742 18.5374 15.4081 18.7344C16.0742 18.9135 18.651 19.1822 19.5099 19.0389C20.3513 18.8956 25.242 19.415 25.5926 19.0389C25.9607 18.6628 25.2245 16.9434 24.9265 16.3165C24.6285 15.6896 23.6644 15.3314 23.4189 14.5613C23.1735 13.7911 22.858 13.2001 22.4548 12.7881C22.0517 12.3762 21.666 12.018 21.2804 11.3553C20.8947 10.6926 20.5091 9.56427 20.2637 8.90158C20.0183 8.2568 19.58 7.71949 19.7729 7.52248Z" fill="#FFB573"/>
<path opacity="0.2" d="M40.4398 9.4568C40.9306 9.4568 41.7896 9.58218 41.9123 9.4568C42.035 9.33143 41.5617 7.93442 41.3864 7.7374C41.2111 7.5583 40.878 6.80606 40.5625 6.00009C40.247 5.19412 38.722 4.67472 38.2311 4.37024C37.7403 4.06576 37.7578 3.36725 36.7587 2.97322C35.9523 2.65083 35.5842 2.99113 35.1109 2.86576C34.6376 2.74039 34.5675 2.09561 34.0767 1.97024C33.5859 1.84486 33.0425 2.02397 32.6043 1.91651C32.166 1.82695 32.0959 1.37919 31.3246 1.23591C30.5358 1.07472 29.9749 1.57621 29.3438 1.34337C28.7128 1.11054 28.1343 0.555312 27.5734 0.555312C27.0124 0.555312 26.0834 0.806058 25.6101 0.806058C25.1543 0.806058 24.8388 0.268745 24.1376 0.179193C23.4365 0.0896404 23.0158 0.609043 22.4198 0.609043C21.8238 0.609043 21.8063 -0.0178223 20.9473 -0.0178223C20.0884 -0.0178223 19.6326 0.48367 19.1068 0.48367C18.5809 0.48367 18.7562 -0.0178223 17.9498 -0.0178223C17.1435 -0.0178223 16.8806 0.46576 16.3021 0.537402C15.7236 0.609043 15.6009 0.268745 14.8296 0.358297C14.0583 0.429939 13.9181 1.14636 13.4448 1.14636C12.9715 1.14636 12.5684 0.931431 11.8847 1.0568C11.2011 1.16427 11.2712 1.57621 10.7278 1.7374C10.1844 1.8986 9.72863 1.5583 9.13264 1.79113C8.53664 2.02397 8.58923 2.43591 8.22112 2.50755C7.83548 2.57919 7.74783 2.2568 6.80125 2.50755C5.85468 2.7583 6.06503 3.0986 5.76703 3.42098C5.43397 3.76128 4.03164 3.49263 3.59341 3.94039C3.13765 4.40606 3.33047 4.6568 3.15518 5.06874C2.97988 5.4986 1.52496 5.69561 1.22696 6.25083C0.928966 6.80606 1.15685 7.61203 1.01661 8.18516C0.876379 8.7583 0.245327 8.66875 0.0349764 9.74337C-0.175374 10.8538 0.771203 12.8956 1.1919 13.0389C1.61261 13.1822 2.01578 14.3643 2.59424 14.7941C3.17271 15.224 4.36469 15.224 4.99574 15.5284C5.64433 15.8329 6.10008 16.2807 6.69608 16.6031C7.29207 16.9255 9.78122 17.6956 11.2011 17.6956C12.621 17.6956 14.742 18.5374 15.4081 18.7344C16.0742 18.9135 18.651 19.1822 19.5099 19.0389C20.3689 18.8956 25.242 19.415 25.5926 19.0389C25.7679 18.8598 25.6977 18.3762 25.54 17.8568C25.5225 17.9105 25.5049 17.9464 25.4699 17.9822C25.1543 18.3046 20.8071 17.8568 20.0533 17.9822C19.2996 18.1076 17.0033 17.8747 16.4073 17.6956C15.8288 17.5344 13.9356 16.7822 12.6735 16.7822C11.4114 16.7822 9.20276 16.1016 8.65935 15.815C8.13347 15.5284 7.71277 15.1344 7.15184 14.8478C6.57337 14.5613 5.52162 14.5613 5.01327 14.1852C4.4874 13.809 4.13681 12.7523 3.75117 12.627C3.38306 12.5016 2.52412 10.6926 2.71695 9.72546C2.90977 8.7583 3.4707 8.84785 3.59341 8.32845C3.71611 7.80904 3.50576 7.11054 3.78623 6.60904C4.0667 6.10755 5.34633 5.92845 5.50409 5.55233C5.66185 5.17621 5.48656 4.96128 5.88973 4.54934C6.29291 4.1374 7.51995 4.38815 7.80042 4.10158C8.08089 3.81501 7.88806 3.51054 8.72947 3.29561C9.57087 3.08069 9.64099 3.36725 9.99157 3.29561C10.3246 3.22397 10.272 2.86576 10.8154 2.65083C11.3413 2.43591 11.7445 2.74039 12.2353 2.5971C12.7261 2.43591 12.656 2.0777 13.2695 1.98815C13.8831 1.8986 14.2336 2.0777 14.6543 2.0777C15.075 2.0777 15.1977 1.45083 15.8814 1.37919C16.565 1.30755 16.6702 1.61203 17.1961 1.54039C17.722 1.46874 17.9498 1.03889 18.6685 1.03889C19.3872 1.03889 19.247 1.48666 19.7028 1.48666C20.1585 1.48666 20.5792 1.03889 21.333 1.03889C22.1043 1.03889 22.1043 1.59412 22.6477 1.59412C23.1735 1.59412 23.5417 1.12845 24.1727 1.20009C24.8038 1.28964 25.0667 1.75531 25.4874 1.75531C25.8906 1.75531 26.7144 1.54039 27.2228 1.54039C27.7311 1.54039 28.2395 2.04188 28.8004 2.23889C29.3614 2.45382 29.8697 2.00606 30.5533 2.14934C31.2545 2.29263 31.3071 2.68666 31.6927 2.7583C32.0959 2.84785 32.5692 2.68666 33.0074 2.79412C33.4457 2.90158 33.5158 3.47471 33.9365 3.58218C34.3572 3.68964 34.6902 3.38516 35.4089 3.67173C36.3029 4.02994 36.2854 4.63889 36.7236 4.90755C37.1619 5.17621 38.5291 5.64188 38.7921 6.3583C39.0725 7.07471 39.353 7.7374 39.5283 7.89859C39.6861 8.05979 39.8088 9.31352 40.0717 9.42098L40.4398 9.4568Z" fill="#CF6446"/>
<path d="M2.6643 15.5463C3.24276 15.9762 4.43475 15.9762 5.0658 16.2807C5.71438 16.5851 6.17014 17.0329 6.76613 17.3553C7.36213 17.6777 9.85128 18.4478 11.2711 18.4478C12.691 18.4478 14.812 19.2896 15.4782 19.4866C16.1443 19.6657 18.7211 19.9344 19.58 19.7911C20.4214 19.6478 25.312 20.1672 25.6626 19.7911C25.8029 19.6478 25.7853 19.3075 25.6802 18.8956C25.6626 18.9493 25.6451 19.0031 25.61 19.0389C25.2419 19.415 20.3688 18.8956 19.5274 19.0389C18.686 19.1822 16.0917 18.9135 15.4256 18.7344C14.7595 18.5553 12.656 17.6956 11.2186 17.6956C9.79869 17.6956 7.30954 16.9254 6.71355 16.6031C6.11755 16.2807 5.66179 15.8329 5.01321 15.5284C4.36463 15.224 3.19018 15.224 2.61171 14.7941C2.03325 14.3643 1.63008 13.1822 1.20937 13.0389C1.15679 13.021 1.08667 12.9672 0.999023 12.8777C1.1042 13.1822 1.24443 13.5404 1.43725 13.8986C1.78784 14.221 2.15595 15.1702 2.6643 15.5463Z" fill="#D18A4C"/>
<g opacity="0.15">
<path opacity="0.15" d="M5.87207 11.069C5.87207 11.069 6.04736 10.1735 8.25604 10.6929C10.4647 11.2123 11.4288 10.9257 11.4288 11.4451C11.4288 11.9645 8.30863 12.7705 7.22182 12.4123C6.17007 12.0541 5.87207 11.4451 5.87207 11.069Z" fill="white"/>
<path opacity="0.15" d="M11.9199 14.7585C11.9199 14.7585 13.3573 13.6659 14.7946 14.257C16.232 14.848 16.6878 14.4719 17.424 14.9376C18.1603 15.4032 18.1953 16.3167 17.0033 15.9943C15.8113 15.6898 14.4616 15.654 13.2345 15.7077C12.025 15.7973 11.4641 15.2241 11.9199 14.7585Z" fill="white"/>
<path opacity="0.15" d="M29.6242 5.73171C29.6067 6.03619 29.4139 6.48395 30.7286 6.48395C32.0432 6.48395 32.6042 6.7347 33.4281 6.98544C34.2519 7.23619 35.9172 7.82723 36.5483 7.32574C37.1968 6.82425 36.0049 6.64514 35.0758 6.32275C34.1643 6.01828 31.7277 5.0332 30.8513 5.0332C29.9923 5.05111 29.6417 5.42723 29.6242 5.73171Z" fill="white"/>
<path opacity="0.15" d="M10.7274 8.27475C11.4286 8.41803 12.007 8.86579 13.1815 8.86579C14.356 8.86579 17.5287 8.68669 17.5287 8.43594C17.5287 8.16729 14.7416 7.3255 13.5671 7.3255C12.3752 7.3255 11.8493 7.39714 11.1306 7.54042C10.4119 7.6658 9.36013 7.43296 9.04461 7.48669C8.74661 7.54042 8.41356 7.73744 8.65896 7.97027C8.90437 8.20311 10.0262 8.13147 10.7274 8.27475Z" fill="white"/>
<path opacity="0.15" d="M12.9012 3.95836C13.2518 3.81508 13.7601 3.18821 14.4263 3.34941C15.0924 3.5106 15.5832 3.22403 16.2318 3.3315C16.8803 3.43896 17.4763 4.1912 16.4421 4.22702C15.4079 4.28075 15.1274 4.31657 14.4263 4.76433C13.7426 5.19418 11.9722 4.65687 11.9722 4.45985C11.9897 4.24493 12.5331 4.10164 12.9012 3.95836Z" fill="white"/>
<path opacity="0.15" d="M21.7537 3.31366C21.7537 3.31366 22.8931 2.88381 23.717 3.31366C24.5408 3.74351 25.2946 3.22411 25.5926 3.58232C25.8906 3.94053 25.873 4.2271 25.1193 4.2271C24.3655 4.2271 23.3313 3.92262 23.1034 4.2271C22.8931 4.53157 20.6493 4.51366 20.3689 4.2271C20.0884 3.94053 20.1059 3.65396 20.3689 3.49277C20.6318 3.31366 21.7537 3.31366 21.7537 3.31366Z" fill="white"/>
<path opacity="0.15" d="M15.4431 11.5166C15.4431 11.5166 16.2845 10.7464 17.5466 10.9972C18.8087 11.2479 19.615 11.23 19.615 11.23C19.615 11.23 20.6668 10.9972 20.1935 11.5166C19.7202 12.036 19.0891 12.5554 18.0724 12.2151C17.0557 11.8748 15.4781 12.6987 15.1801 12.5016C14.8646 12.3225 15.4431 11.5166 15.4431 11.5166Z" fill="white"/>
<path opacity="0.15" d="M23.6118 6.0538C23.6118 6.0538 24.1377 5.65977 25.1544 5.82096C26.1711 5.98216 26.9248 5.53439 27.0826 6.0538C27.2403 6.5732 26.9248 6.89559 26.136 6.68066C25.3472 6.46574 24.1727 7.18215 23.2437 7.00305C22.2971 6.84186 21.2278 6.17917 21.9115 6.10753C22.5951 6.0538 23.0859 6.26872 23.6118 6.0538Z" fill="white"/>
</g>
<g opacity="0.22">
<path opacity="0.22" d="M22.2268 9.60013C22.2268 9.60013 21.6483 10.2091 22.0515 10.7106C22.4547 11.1942 22.9806 11.4628 22.9806 11.4628C22.9806 11.4628 23.8745 10.6389 23.8745 10.3524C23.857 10.0658 22.63 9.18819 22.2268 9.60013Z" fill="#FFB573"/>
<path opacity="0.22" d="M24.7161 11.0868C24.7161 11.0868 24.1376 11.6958 24.5408 12.1973C24.9439 12.6809 25.1543 13.0749 25.4698 12.9495C25.7853 12.8241 26.3463 12.0003 26.3638 11.8391C26.3638 11.5525 25.1192 10.6749 24.7161 11.0868Z" fill="#FFB573"/>
<path opacity="0.22" d="M33.0424 12.197C33.0424 12.197 31.9731 12.1433 32.0608 12.7702C32.1484 13.397 32.1309 13.8448 32.4464 13.9164C32.7795 13.9881 33.691 13.5941 33.7786 13.4687C33.9189 13.2358 33.5858 12.0717 33.0424 12.197Z" fill="#FFB573"/>
<path opacity="0.22" d="M36.0751 11.0509C36.0751 11.0509 35.0058 10.9971 35.0935 11.624C35.1811 12.2509 35.1636 12.6986 35.4791 12.7703C35.8122 12.8419 36.7237 12.4479 36.8114 12.3225C36.9691 12.0718 36.6185 10.9255 36.0751 11.0509Z" fill="#FFB573"/>
<path opacity="0.22" d="M30.974 9.92262C30.974 9.92262 29.9048 9.86889 29.9924 10.4958C30.0801 11.1226 30.0625 11.5704 30.3781 11.642C30.7111 11.7137 31.6226 11.3196 31.7103 11.1943C31.8505 10.9614 31.5174 9.79725 30.974 9.92262Z" fill="#FFB573"/>
<path opacity="0.22" d="M26.6617 10.0837C26.6617 10.0837 26.3988 11.2837 26.837 11.3733C27.2753 11.4629 28.1342 11.6061 28.2744 11.4449C28.4147 11.3017 28.4322 10.2091 28.3095 10.1017C28.1868 9.9942 26.6617 10.0837 26.6617 10.0837Z" fill="#FFB573"/>
<path opacity="0.22" d="M28.555 12.806C28.4674 12.9851 28.8355 14.006 29.2737 13.8806C29.7119 13.7731 30.5358 13.4866 30.6059 13.2896C30.676 13.0925 30.2027 12.1254 30.0625 12.0716C29.9223 12.0179 28.6426 12.6269 28.555 12.806Z" fill="#FFB573"/>
<path opacity="0.22" d="M34.182 14.0776C34.1294 14.203 34.3924 14.991 34.7254 14.9015C35.0585 14.8119 35.6895 14.597 35.7421 14.4537C35.7947 14.2925 35.4441 13.5582 35.3214 13.5224C35.2162 13.4686 34.2521 13.9343 34.182 14.0776Z" fill="#FFB573"/>
<path opacity="0.22" d="M33.1123 10.5493C32.9896 10.6388 32.8844 11.4627 33.1999 11.5343C33.533 11.6239 34.1816 11.7313 34.3043 11.6239C34.427 11.5164 34.4445 10.6925 34.3744 10.603C34.3043 10.5134 33.235 10.4597 33.1123 10.5493Z" fill="#FFB573"/>
<path opacity="0.22" d="M26.6792 12.6271C26.574 12.6988 26.4689 13.451 26.7669 13.5226C27.0649 13.5943 27.6433 13.7017 27.7485 13.6122C27.8537 13.5047 27.8887 12.7704 27.8011 12.6988C27.7485 12.5913 26.7844 12.5555 26.6792 12.6271Z" fill="#FFB573"/>
<path opacity="0.22" d="M22.8931 12.018C22.7879 12.0896 22.6827 12.8419 22.9807 12.9135C23.2787 12.9852 23.8572 13.0926 23.9624 13.0031C24.0675 12.8956 24.1026 12.1613 24.0149 12.0896C23.9448 12.0001 22.9983 11.9464 22.8931 12.018Z" fill="#FFB573"/>
</g>
<path opacity="0.3" d="M3.15519 5.53433C3.33048 5.10448 3.13766 4.87164 3.57589 4.40597C4.03165 3.9403 5.41646 4.22687 5.71446 3.90448C6.01245 3.6 5.8021 3.24179 6.74868 2.99104C7.69526 2.7403 7.7829 3.06269 8.16855 2.99104C8.55419 2.9194 8.48407 2.50746 9.08006 2.27463C9.67606 2.04179 10.1143 2.38209 10.6752 2.2209C11.2186 2.04179 11.1485 1.64776 11.8322 1.5403C12.5508 1.41493 12.954 1.61194 13.4273 1.61194C13.9006 1.61194 14.0408 0.895522 14.8121 0.823881C15.5834 0.752239 15.7061 1.09254 16.2846 1.00299C16.863 0.931343 17.126 0.447761 17.9323 0.447761C18.7387 0.447761 18.5809 0.949254 19.0892 0.949254C19.6151 0.949254 20.0709 0.447761 20.9298 0.447761C21.7887 0.447761 21.8063 1.07463 22.4023 1.07463C22.9983 1.07463 23.419 0.537313 24.1201 0.644776C24.8213 0.734328 25.1368 1.27164 25.5926 1.27164C26.0483 1.27164 26.9774 1.0209 27.5559 1.0209C28.1168 1.0209 28.6953 1.57612 29.3263 1.80896C29.9574 2.04179 30.5183 1.5403 31.3071 1.70149C32.0959 1.86269 32.1485 2.29254 32.5867 2.38209C33.025 2.47164 33.5684 2.31045 34.0592 2.43582C34.55 2.56119 34.6201 3.20597 35.0934 3.33134C35.5667 3.45672 35.9348 3.11642 36.7412 3.43881C37.7403 3.83284 37.7228 4.53134 38.2136 4.83582C38.7044 5.1403 40.2295 5.6597 40.545 6.46567C40.843 7.27164 41.1761 8.00597 41.3689 8.20298C41.4916 8.32836 41.7545 9.00896 41.8597 9.49254C41.8772 9.49254 41.8772 9.47463 41.8948 9.47463C42.0175 9.34925 41.5442 7.95224 41.3689 7.75522C41.1936 7.57612 40.8605 6.82388 40.545 6.01791C40.2295 5.21194 38.7044 4.69254 38.2136 4.38806C37.7228 4.08358 37.7403 3.38507 36.7412 2.99104C35.9348 2.66866 35.5667 3.00896 35.0934 2.88358C34.6201 2.75821 34.55 2.11343 34.0592 1.98806C33.5684 1.86269 33.025 2.04179 32.5867 1.93433C32.1485 1.84478 32.0784 1.39701 31.3071 1.25373C30.5183 1.09254 29.9574 1.59403 29.3263 1.36119C28.6953 1.12836 28.1168 0.573134 27.5559 0.573134C26.9949 0.573134 26.0659 0.823881 25.5926 0.823881C25.1368 0.823881 24.8213 0.286567 24.1201 0.197015C23.419 0.107463 22.9983 0.626866 22.4023 0.626866C21.8063 0.626866 21.7887 0 20.9298 0C20.0709 0 19.6151 0.501493 19.0892 0.501493C18.5634 0.501493 18.7387 0 17.9323 0C17.126 0 16.863 0.483582 16.2846 0.555224C15.7061 0.626866 15.5834 0.286567 14.8121 0.376119C14.0408 0.447761 13.9006 1.16418 13.4273 1.16418C12.954 1.16418 12.5508 0.949254 11.8672 1.07463C11.1836 1.18209 11.2537 1.59403 10.7103 1.75522C10.1669 1.91642 9.71112 1.57612 9.11512 1.80896C8.51913 2.04179 8.57172 2.45373 8.2036 2.52537C7.81796 2.59701 7.73032 2.27463 6.78374 2.52537C5.83716 2.77612 6.04751 3.11642 5.74951 3.43881C5.43399 3.76119 4.03165 3.49254 3.59342 3.9403C3.13766 4.40597 3.33048 4.65672 3.15519 5.06866C2.9799 5.49851 1.52497 5.69552 1.22698 6.25075C1.03416 6.59104 1.05168 7.03881 1.05168 7.45075C1.06921 7.18209 1.10427 6.93134 1.22698 6.69851C1.52497 6.16119 2.99743 5.96418 3.15519 5.53433Z" fill="#CF6446"/>
<g opacity="0.35">
<path opacity="0.35" d="M10.3424 5.05077C10.3424 5.05077 10.5703 4.60301 11.9902 5.24778C13.41 5.91047 14.4618 5.24778 15.0753 5.24778C15.6888 5.24778 16.8458 5.30151 16.8107 5.53435C16.7932 5.76718 15.6538 5.65972 15.0753 5.76718C14.4968 5.87465 13.708 6.28659 13.0594 6.28659C12.4109 6.28659 9.79901 5.60599 10.3424 5.05077Z" fill="#D18743"/>
<path opacity="0.35" d="M5.34628 9.18796C5.34628 9.18796 6.22274 8.65064 7.16932 9.0805C8.1159 9.49244 9.32541 9.09841 9.88635 9.49244C10.4298 9.88647 10.605 10.2268 10.0091 10.0477C9.41306 9.86855 8.58919 9.67154 7.87049 9.79691C7.13426 9.9402 4.66265 9.4387 5.34628 9.18796Z" fill="#D18743"/>
<path opacity="0.35" d="M16.3897 13.6478C16.3897 13.6478 16.9156 12.7702 17.9674 13.1284C19.0366 13.4866 21.1927 12.9851 20.9649 13.3433C20.737 13.7015 19.878 13.9523 19.0366 13.7911C18.1952 13.6299 17.0909 14.2747 16.6001 14.0956C16.1268 13.8986 16.3897 13.6478 16.3897 13.6478Z" fill="#D18743"/>
<path opacity="0.35" d="M8.22115 13.6476C8.22115 13.6476 8.71196 13.9163 9.62348 13.6476C10.535 13.379 11.3764 13.1461 11.9899 13.3431C12.6034 13.5222 11.6393 13.773 11.6393 13.773C11.6393 13.773 10.8155 13.8805 10.2019 14.0954C9.58842 14.3103 6.74869 14.3999 7.08175 13.9342C7.43233 13.4685 8.22115 13.6476 8.22115 13.6476Z" fill="#D18743"/>
<path opacity="0.35" d="M20.842 5.17614C20.842 5.17614 21.6308 5.40898 22.3671 5.17614C23.1033 4.94331 24.716 4.5851 25.1016 4.88958C25.4873 5.19405 24.7335 5.28361 24.7335 5.28361C24.7335 5.28361 23.6116 5.33734 22.8929 5.58808C22.1567 5.83883 19.5449 5.74928 19.7377 5.37316C19.9305 4.99704 20.842 5.17614 20.842 5.17614Z" fill="#D18743"/>
<path opacity="0.35" d="M28.3971 3.77895C28.3971 3.77895 28.8002 4.2088 29.6066 4.11925C30.4129 4.0297 30.9213 4.0297 31.5348 4.31627C32.1483 4.60283 33.0073 4.42373 32.7969 4.11925C32.5866 3.81477 32.0607 3.83269 31.4822 3.77895C30.9037 3.72522 30.0974 2.8297 29.2209 2.95507C28.3445 3.08045 26.837 3.27746 27.468 3.56403C28.0991 3.8506 27.9764 3.52821 28.3971 3.77895Z" fill="#D18743"/>
<path opacity="0.35" d="M13.0591 10.6923C13.0591 10.6923 13.0591 11.355 13.9881 11.1401C14.9347 10.9073 15.4781 10.3341 16.1267 10.5132C16.7753 10.6744 18.0023 10.8177 17.9673 10.4774C17.9322 10.1371 17.3537 10.1729 16.898 10.1013C16.4422 10.0297 15.0749 9.61772 14.3387 9.9222C13.6025 10.2267 13.0591 10.3879 13.0591 10.6923Z" fill="#D18743"/>
<path opacity="0.35" d="M17.9673 2.39997C17.9673 2.6149 18.0023 2.91937 19.0366 2.72236C20.0708 2.54325 20.1409 2.43579 20.8596 2.57907C21.5783 2.72236 22.1743 2.48952 21.6835 2.39997C21.1927 2.31042 19.4923 1.84475 18.8087 2.02385C18.125 2.22087 17.9673 2.18504 17.9673 2.39997Z" fill="#D18743"/>
<path opacity="0.35" d="M30.3253 7.03874C30.448 7.46859 30.8162 6.84172 31.3771 7.52232C31.9205 8.20292 31.8679 8.0059 32.7268 8.07755C33.5858 8.1671 35.216 8.57904 35.0933 8.07755C34.9706 7.57605 34.0415 7.71934 33.3053 7.52232C32.5691 7.3074 32.3938 6.89546 31.5524 6.78799C30.7285 6.69844 30.2026 6.60889 30.3253 7.03874Z" fill="#D18743"/>
</g>
<path d="M14.5494 4.96126C14.4266 5.17619 14.8824 5.67768 15.4959 6.25081C15.8816 6.59111 16.7405 7.14633 16.8807 6.94932C16.9333 6.82395 16.6353 6.25081 15.9692 5.65977C15.6186 5.35529 14.637 4.87171 14.5494 4.96126Z" fill="#A3644B"/>
<path d="M14.5495 4.96125C14.4793 5.05081 14.9877 5.58812 15.6012 6.14334C15.9868 6.48364 16.8282 7.00304 16.8808 6.9314C16.9334 6.85976 16.688 6.14334 16.0044 5.5523C15.6713 5.24782 14.6371 4.8717 14.5495 4.96125Z" fill="#BF7352"/>
<path d="M13.6201 9.49276C13.7253 9.70769 14.3914 9.61814 15.1802 9.42112C15.671 9.29575 16.6176 8.8659 16.5124 8.63306C16.4423 8.5256 15.8112 8.45396 14.9523 8.68679C14.5316 8.81217 13.585 9.3853 13.6201 9.49276Z" fill="#A3644B"/>
<path d="M13.6201 9.49251C13.6552 9.59997 14.3739 9.4746 15.1627 9.27758C15.6535 9.15221 16.5475 8.72236 16.5125 8.63281C16.4949 8.54326 15.7587 8.34624 14.8998 8.59699C14.4791 8.72236 13.5851 9.38505 13.6201 9.49251Z" fill="#BF7352"/>
<path d="M16.5652 11.8569C16.7581 12.0001 17.319 11.624 17.9325 11.0688C18.3182 10.7285 18.9668 9.92253 18.7915 9.76134C18.6863 9.68969 18.0728 9.92253 17.4242 10.5136C17.0911 10.836 16.4951 11.7673 16.5652 11.8569Z" fill="#A3644B"/>
<path d="M16.5652 11.857C16.6353 11.9466 17.2313 11.4988 17.8448 10.9615C18.2304 10.6212 18.8439 9.83317 18.7738 9.77943C18.7212 9.70779 17.9675 9.86899 17.3189 10.4779C17.0034 10.7645 16.495 11.7675 16.5652 11.857Z" fill="#BF7352"/>
<path d="M21.8061 6.34031C21.9113 6.55524 22.5774 6.4836 23.3662 6.30449C23.857 6.19703 24.8211 5.803 24.716 5.57016C24.6458 5.4627 24.0148 5.37315 23.1559 5.57016C22.7352 5.67763 21.771 6.23285 21.8061 6.34031Z" fill="#A3644B"/>
<path d="M21.8062 6.34033C21.8237 6.44779 22.5599 6.34033 23.3487 6.16123C23.8396 6.05376 24.7511 5.65973 24.716 5.57018C24.6985 5.48063 23.9623 5.2657 23.1209 5.48063C22.6826 5.58809 21.7711 6.23287 21.8062 6.34033Z" fill="#BF7352"/>
<path d="M19.0552 6.21556C19.2831 6.30511 19.7213 5.80362 20.2122 5.12302C20.5102 4.71108 20.9659 3.76182 20.738 3.65436C20.6153 3.61854 20.0895 3.97675 19.5811 4.71108C19.3182 5.0872 18.9676 6.14391 19.0552 6.21556Z" fill="#A3644B"/>
<path d="M19.0543 6.21506C19.142 6.28671 19.6153 5.71357 20.0886 5.03298C20.3866 4.62104 20.8073 3.7076 20.7196 3.65387C20.6495 3.60014 19.9659 3.94044 19.475 4.67477C19.2296 5.05089 18.9667 6.14342 19.0543 6.21506Z" fill="#BF7352"/>
</g>
<defs>
<clipPath id="clip0_678_4091">
<rect width="42" height="24" fill="white"/>
</clipPath>
</defs>
</svg>
