<svg width="116" height="80" viewBox="0 0 116 80" fill="none" xmlns="http://www.w3.org/2000/svg">
<g clip-path="url(#clip0_430_637)">
<path fill-rule="evenodd" clip-rule="evenodd" d="M116 59.5128C116 70.8268 90.0465 79.9994 58.003 79.9994C25.9595 79.9994 0 70.8268 0 59.5128C0 48.1988 25.9535 39.0261 58.003 39.0261C90.0526 39.0261 116 48.1988 116 59.5128Z" fill="#E2CAB3"/>
<path fill-rule="evenodd" clip-rule="evenodd" d="M116 57.2531C116 68.567 90.0465 77.7397 58.003 77.7397C25.9595 77.7397 0 68.567 0 57.2531C0 45.9391 25.9535 36.7664 58.003 36.7664C90.0526 36.7664 116 45.9391 116 57.2531Z" fill="white"/>
<path fill-rule="evenodd" clip-rule="evenodd" d="M116 56.929C116 67.889 90.0465 76.7726 58.003 76.7726C25.9595 76.7726 0 67.889 0 56.929C0 45.9689 25.9535 37.0912 58.003 37.0912C90.0526 37.0912 116 45.9748 116 56.929Z" fill="#E7D8C8"/>
<path fill-rule="evenodd" clip-rule="evenodd" d="M113.428 56.9294C113.428 64.7512 91.2169 71.0866 63.8209 71.0866C36.4249 71.0866 14.2075 64.7512 14.2075 56.9294C14.2075 49.1075 36.4189 42.7722 63.8209 42.7722C91.223 42.7722 113.428 49.1134 113.428 56.9294Z" fill="#E2CAB3"/>
<path d="M109.246 57.4366C108.19 52.5995 103.047 50.5527 98.9853 50.2282C96.4805 50.0336 93.9757 50.5527 91.4769 50.6883C90.0886 50.766 88.6957 50.7107 87.3184 50.5232C85.7974 50.3167 84.3428 49.7799 82.8097 49.656C80.1479 49.4437 77.5104 50.3462 75.0297 51.29C72.1144 52.4049 69.1992 53.4195 66.2115 54.2807C60.3182 56.0354 54.2466 57.1569 48.1045 57.6254C45.6061 57.8476 43.0917 57.8338 40.5961 57.5841C38.8457 57.3717 37.1195 56.9942 35.3691 56.7936C32.303 56.4574 28.9049 56.8526 27.6676 60.3742C26.74 60.3711 25.8251 60.5856 24.9998 60.9995C23.7504 61.5245 22.0786 62.4565 21.4327 63.8073C20.0868 66.6329 24.4506 67.7418 26.0681 68.0427C27.6072 68.3258 29.1584 68.4261 30.7036 68.5854C32.8523 68.8095 34.5785 69.8064 36.3952 71.0216C40.9763 74.0831 47.0905 74.2836 52.3053 73.9297C55.1818 73.7188 58.0257 73.1986 60.7854 72.3783C63.7007 71.5289 66.7004 72.0421 69.6458 72.5317C72.1759 73.054 74.8033 72.8991 77.2508 72.0834C79.7134 71.2281 81.85 69.6649 83.9565 68.0958C86.413 66.2671 89.2075 66.1551 92.0986 65.925C94.9486 65.7521 97.7768 65.3277 100.549 64.6568C102.875 64.082 105.141 63.2919 107.315 62.2972C109.162 61.3475 109.681 59.5779 109.246 57.4366Z" fill="#EEBE30"/>
<path d="M92.7809 53.2306C92.7809 60.8519 76.225 67.9364 56.2891 67.9364C36.3532 67.9364 19.6646 60.3269 19.6646 52.7056C19.6646 45.0843 36.3532 40.3181 56.2891 40.3181C76.225 40.3181 92.7809 45.6093 92.7809 53.2306Z" fill="#E3AC8A"/>
<path d="M92.3826 51.7611C92.3826 59.3824 76.2251 65.5585 56.2892 65.5585C36.3533 65.5585 20.1897 59.3824 20.1897 51.7611C20.1897 44.1398 36.3533 37.9579 56.2892 37.9579C76.2251 37.9579 92.3826 44.1398 92.3826 51.7611Z" fill="#DA840D"/>
<path d="M82.5445 50.452C82.5445 56.109 70.5576 60.6865 55.7641 60.6865C40.9706 60.6865 28.9717 56.109 28.9717 50.452C28.9717 44.795 40.9767 40.2175 55.7641 40.2175C70.5516 40.2175 82.5445 44.8304 82.5445 50.452Z" fill="#F0A508"/>
<path d="M37.7412 54.227C37.7412 54.8169 37.0591 55.3301 36.2141 55.3301C35.3691 55.3301 34.6931 54.8346 34.6931 54.227C34.6931 53.6194 35.3752 53.1239 36.2141 53.1239C37.0531 53.1239 37.7412 53.6194 37.7412 54.227Z" fill="#DA840D"/>
<path d="M34.6934 49.5853C34.6852 49.7478 34.6283 49.9044 34.5299 50.0356C34.4315 50.1669 34.2959 50.267 34.1399 50.3237C33.9838 50.3804 33.8142 50.391 33.652 50.3544C33.4898 50.3178 33.3421 50.2355 33.2273 50.1177C33.1125 49.9999 33.0355 49.8518 33.006 49.6917C32.9764 49.5316 32.9955 49.3665 33.061 49.2169C33.1265 49.0673 33.2354 48.9398 33.3743 48.8501C33.5132 48.7604 33.6759 48.7125 33.8424 48.7123C33.9571 48.7146 34.0701 48.739 34.1751 48.7842C34.28 48.8294 34.3748 48.8945 34.4539 48.9756C34.533 49.0568 34.5949 49.1524 34.636 49.2571C34.6771 49.3617 34.6966 49.4733 34.6934 49.5853Z" fill="#DA840D"/>
<path d="M45.2676 55.5658C45.2869 55.8526 45.2176 56.1384 45.0687 56.3862C44.9198 56.634 44.698 56.8323 44.4323 56.9554C44.1666 57.0785 43.8692 57.1207 43.5786 57.0765C43.288 57.0324 43.0178 56.9038 42.8029 56.7077C42.588 56.5115 42.4384 56.2567 42.3735 55.9764C42.3087 55.6961 42.3315 55.4032 42.4391 55.1357C42.5467 54.8682 42.7341 54.6386 42.9769 54.4765C43.2198 54.3144 43.5068 54.2274 43.8009 54.2268C43.9872 54.2205 44.1729 54.2501 44.3475 54.314C44.522 54.3779 44.682 54.4748 44.8182 54.5992C44.9544 54.7235 45.0642 54.8729 45.1413 55.0388C45.2184 55.2046 45.2613 55.3837 45.2676 55.5658Z" fill="#DA840D"/>
<path d="M42.0807 50.2521C42.0807 50.6178 41.6643 50.9187 41.1573 50.9187C40.6503 50.9187 40.2278 50.6178 40.2278 50.2521C40.2278 49.8864 40.6442 49.5855 41.1573 49.5855C41.6703 49.5855 42.0807 49.8805 42.0807 50.2521Z" fill="#DA840D"/>
<path d="M51.4118 53.4141C51.4338 53.5993 51.3977 53.7868 51.3082 53.9516C51.2188 54.1163 51.0802 54.2506 50.9109 54.3367C50.7415 54.4227 50.5494 54.4565 50.36 54.4334C50.1707 54.4103 49.9929 54.3316 49.8504 54.2075C49.7078 54.0835 49.6072 53.9201 49.5619 53.7389C49.5165 53.5577 49.5286 53.3673 49.5965 53.193C49.6643 53.0186 49.7848 52.8686 49.9419 52.7627C50.099 52.6568 50.2854 52.6001 50.4762 52.6C50.7102 52.5887 50.9394 52.6677 51.1144 52.8199C51.2894 52.9722 51.3962 53.1856 51.4118 53.4141Z" fill="#DA840D"/>
<path d="M51.7685 58.3279C51.7685 58.7055 51.3219 59.0122 50.7666 59.0122C50.2113 59.0122 49.7646 58.7055 49.7646 58.3279C49.7646 57.9504 50.2173 57.6437 50.7666 57.6437C51.3158 57.6437 51.7685 57.9504 51.7685 58.3279Z" fill="#DA840D"/>
<path d="M47.7723 51.0067C47.7616 51.1437 47.71 51.2747 47.6238 51.3834C47.5376 51.492 47.4206 51.5735 47.2875 51.6178C47.1543 51.6621 47.0107 51.6671 46.8746 51.6324C46.7385 51.5977 46.6159 51.5246 46.5219 51.4224C46.4279 51.3201 46.3666 51.1931 46.3458 51.0571C46.325 50.9212 46.3455 50.7822 46.4047 50.6576C46.464 50.5329 46.5594 50.4279 46.6791 50.3558C46.7988 50.2836 46.9376 50.2474 47.0782 50.2516C47.2714 50.2652 47.4516 50.3515 47.5811 50.4923C47.7105 50.6331 47.7791 50.8175 47.7723 51.0067Z" fill="#DA840D"/>
<path d="M58.1657 52.4404C58.1657 52.818 57.7311 53.1247 57.1939 53.1247C56.6567 53.1247 56.2222 52.818 56.2222 52.4404C56.2222 52.0629 56.6567 51.7621 57.1939 51.7621C57.7311 51.7621 58.1657 52.0629 58.1657 52.4404Z" fill="#DA840D"/>
<path d="M58.1657 55.9723C58.1657 56.1965 57.7311 56.3793 57.1939 56.3793C56.6567 56.3793 56.2222 56.1965 56.2222 55.9723C56.2222 55.7482 56.6567 55.5653 57.1939 55.5653C57.7311 55.5653 58.1657 55.7482 58.1657 55.9723Z" fill="#DA840D"/>
<path d="M64.7389 53.6784C64.7389 53.9792 64.3465 54.227 63.8576 54.227C63.3687 54.227 62.9824 53.9792 62.9824 53.6784C62.9824 53.3776 63.3748 53.1239 63.8576 53.1239C64.3405 53.1239 64.7389 53.3717 64.7389 53.6784Z" fill="#DA840D"/>
<path d="M63.6882 57.6201C63.7295 57.8039 63.7113 57.9957 63.6363 58.1689C63.5613 58.3422 63.433 58.4884 63.2693 58.5874C63.1056 58.6863 62.9145 58.7332 62.7224 58.7215C62.5302 58.7097 62.3466 58.64 62.1967 58.5219C62.0469 58.4037 61.9383 58.2431 61.8859 58.062C61.8335 57.881 61.8399 57.6885 61.9043 57.5112C61.9686 57.3339 62.0877 57.1804 62.2451 57.0721C62.4025 56.9638 62.5904 56.9059 62.7829 56.9064C62.9992 56.8864 63.215 56.9499 63.3842 57.0832C63.5533 57.2166 63.6624 57.4093 63.6882 57.6201Z" fill="#DA840D"/>
<path d="M71.0039 56.4751C70.9662 56.6509 70.8783 56.8127 70.7503 56.9416C70.6223 57.0706 70.4596 57.1614 70.2809 57.2036C70.1022 57.2458 69.915 57.2375 69.7409 57.1799C69.5668 57.1222 69.413 57.0175 69.2974 56.8779C69.1818 56.7382 69.1091 56.5694 69.0877 56.391C69.0663 56.2125 69.0971 56.0319 69.1765 55.8699C69.256 55.7079 69.3808 55.5712 69.5365 55.4758C69.6923 55.3804 69.8725 55.33 70.0563 55.3307C70.3362 55.3619 70.5924 55.4993 70.7697 55.7134C70.9469 55.9274 71.031 56.201 71.0039 56.4751Z" fill="#DA840D"/>
<path d="M70.4789 51.3199C70.4789 51.5559 70.1711 51.7446 69.7909 51.7446C69.4106 51.7446 69.1089 51.5559 69.1089 51.3199C69.1089 51.084 69.4167 50.9011 69.7909 50.9011C70.1651 50.9011 70.4789 51.1076 70.4789 51.3199Z" fill="#DA840D"/>
<path d="M76.2729 52.5757C76.2729 53.49 75.8564 54.2273 75.3494 54.2273C74.8424 54.2273 74.4199 53.49 74.4199 52.5757C74.4199 51.6613 74.8364 50.9181 75.3494 50.9181C75.8624 50.9181 76.2729 51.6613 76.2729 52.5757Z" fill="#DA840D"/>
<path d="M78.5973 50.8946C78.5973 51.0119 78.5496 51.1244 78.4647 51.2074C78.3798 51.2904 78.2646 51.337 78.1446 51.337C78.0245 51.337 77.9094 51.2904 77.8245 51.2074C77.7396 51.1244 77.6919 51.0119 77.6919 50.8946C77.6919 50.7772 77.7396 50.6647 77.8245 50.5817C77.9094 50.4988 78.0245 50.4521 78.1446 50.4521C78.2641 50.4537 78.3784 50.5008 78.4629 50.5834C78.5475 50.6661 78.5957 50.7777 78.5973 50.8946Z" fill="#DA840D"/>
<path d="M63.3747 49.485C63.3747 49.9038 62.8074 50.2519 62.1133 50.2519C61.4192 50.2519 60.8518 49.9038 60.8518 49.485C60.8518 49.0662 61.4131 48.7123 62.1133 48.7123C62.8134 48.7123 63.3747 49.0603 63.3747 49.485Z" fill="#DA840D"/>
<path d="M39.7086 45.5084C39.7086 45.768 39.268 45.9803 38.7248 45.9803C38.1816 45.9803 37.741 45.768 37.741 45.5084C37.741 45.2489 38.1816 45.0365 38.7248 45.0365C39.268 45.0365 39.7086 45.2489 39.7086 45.5084Z" fill="#DA840D"/>
<path d="M45.5027 44.5596C45.5027 44.8251 45.0017 45.0374 44.3861 45.0374C43.7704 45.0374 43.2634 44.8251 43.2634 44.5596C43.2634 44.2942 43.7644 44.0877 44.3861 44.0877C45.0077 44.0877 45.5027 44.3001 45.5027 44.5596Z" fill="#DA840D"/>
<path d="M52.7946 45.7208C52.7946 46.0924 52.1186 46.3991 51.2796 46.3991C50.4406 46.3991 49.7646 46.0924 49.7646 45.7208C49.7646 45.3491 50.4467 45.0365 51.2796 45.0365C52.1125 45.0365 52.7946 45.3432 52.7946 45.7208Z" fill="#DA840D"/>
<path d="M58.1665 44.5595C58.1677 44.6545 58.1398 44.7477 58.0866 44.8272C58.0333 44.9067 57.957 44.9688 57.8675 45.0057C57.7779 45.0426 57.6791 45.0525 57.5837 45.0343C57.4883 45.0161 57.4006 44.9704 57.3319 44.9033C57.2632 44.8361 57.2165 44.7504 57.1978 44.6572C57.1792 44.5639 57.1893 44.4674 57.2271 44.3798C57.2648 44.2923 57.3284 44.2177 57.4097 44.1657C57.4911 44.1136 57.5864 44.0865 57.6836 44.0876C57.8117 44.0876 57.9345 44.1373 58.025 44.2258C58.1156 44.3143 58.1665 44.4344 58.1665 44.5595Z" fill="#DA840D"/>
<path d="M57.1944 48.2928C57.1944 48.5228 56.7357 48.7116 56.1623 48.7116C55.5889 48.7116 55.1362 48.5228 55.1362 48.2928C55.1362 48.0627 55.5949 47.874 56.1623 47.874C56.7297 47.874 57.1944 48.0627 57.1944 48.2928Z" fill="#DA840D"/>
<path d="M65.2643 44.352C65.2618 44.489 65.2177 44.6221 65.1375 44.7345C65.0574 44.8469 64.9448 44.9334 64.8142 44.9831C64.6836 45.0327 64.5408 45.0433 64.404 45.0134C64.2672 44.9834 64.1427 44.9144 64.0461 44.8151C63.9496 44.7158 63.8855 44.5906 63.862 44.4556C63.8385 44.3205 63.8567 44.1817 63.9142 44.0567C63.9717 43.9318 64.0659 43.8264 64.1849 43.754C64.3038 43.6816 64.4422 43.6454 64.5823 43.6501C64.6742 43.6524 64.7648 43.6723 64.8488 43.7089C64.9329 43.7454 65.0088 43.7977 65.0721 43.8629C65.1354 43.9281 65.185 44.0049 65.218 44.0888C65.251 44.1727 65.2667 44.2622 65.2643 44.352Z" fill="#DA840D"/>
<path d="M69.1091 47.1374C69.1091 47.2554 68.753 47.3498 68.3063 47.3498C67.8596 47.3498 67.5095 47.2554 67.5095 47.1374C67.5095 47.0195 67.8657 46.9251 68.3063 46.9251C68.7469 46.9251 69.1091 47.0195 69.1091 47.1374Z" fill="#DA840D"/>
<path d="M71.6134 45.7451C71.6285 45.8072 71.6233 45.8724 71.5987 45.9315C71.574 45.9907 71.5311 46.0408 71.4759 46.075C71.4207 46.1092 71.3559 46.1256 71.2907 46.1221C71.2254 46.1186 71.163 46.0953 71.1119 46.0554C71.0609 46.0155 71.0239 45.961 71.0061 45.8996C70.9882 45.8381 70.9905 45.7728 71.0124 45.7126C71.0344 45.6525 71.0751 45.6006 71.1287 45.5641C71.1823 45.5276 71.2463 45.5084 71.3116 45.5091C71.3834 45.5024 71.4551 45.5233 71.5114 45.5673C71.5677 45.6114 71.6043 45.6751 71.6134 45.7451Z" fill="#DA840D"/>
<path d="M69.109 47.1367C69.095 47.2646 69.0435 47.3858 68.9605 47.4857C68.8776 47.5857 68.7669 47.66 68.6417 47.6998C68.5165 47.7395 68.3822 47.7431 68.255 47.7099C68.1278 47.6767 68.0132 47.6083 67.9249 47.5129C67.8366 47.4174 67.7785 47.299 67.7575 47.172C67.7365 47.045 67.7536 46.9148 67.8067 46.7971C67.8598 46.6793 67.9466 46.5791 68.0567 46.5085C68.1667 46.438 68.2953 46.4 68.427 46.3993C68.5213 46.4038 68.6138 46.4265 68.6992 46.466C68.7846 46.5056 68.8612 46.5612 68.9245 46.6297C68.9879 46.6982 69.0368 46.7782 69.0684 46.8652C69.1001 46.9522 69.1139 47.0444 69.109 47.1367Z" fill="#DA840D"/>
<path d="M72.9832 45.9564C72.9832 46.1983 72.609 46.3988 72.1442 46.3988C71.6795 46.3988 71.3113 46.1983 71.3113 45.9564C71.3113 45.7145 71.6855 45.5081 72.1442 45.5081C72.6029 45.5081 72.9832 45.7086 72.9832 45.9564Z" fill="#DA840D"/>
<path d="M92.7809 47.568C92.7809 55.1834 76.225 62.2738 56.2891 62.2738C36.3532 62.2738 19.6646 54.6584 19.6646 47.043C19.6646 39.4276 36.3532 34.6555 56.2891 34.6555C76.225 34.6555 92.7809 39.9467 92.7809 47.568Z" fill="#E3AC8A"/>
<path d="M92.3826 46.0936C92.3826 53.7149 76.2251 59.891 56.2892 59.891C36.3533 59.891 20.1897 53.7149 20.1897 46.0936C20.1897 38.4723 36.3533 32.2962 56.2892 32.2962C76.2251 32.2962 92.3826 38.4723 92.3826 46.0936Z" fill="#DA840D"/>
<path d="M55.7635 55.0239C70.5539 55.0239 82.5439 50.4418 82.5439 44.7894C82.5439 39.1371 70.5539 34.5549 55.7635 34.5549C40.9731 34.5549 28.9832 39.1371 28.9832 44.7894C28.9832 50.4418 40.9731 55.0239 55.7635 55.0239Z" fill="#F0A508"/>
<path d="M37.7412 48.5654C37.7412 49.1553 37.0591 49.6685 36.2141 49.6685C35.3691 49.6685 34.6931 49.173 34.6931 48.5654C34.6931 47.9578 35.3752 47.4623 36.2141 47.4623C37.0531 47.4623 37.7412 47.9519 37.7412 48.5654Z" fill="#DA840D"/>
<path d="M34.6934 43.9163C34.6887 44.0797 34.6347 44.2382 34.5384 44.3718C34.442 44.5054 34.3075 44.6084 34.1517 44.6677C33.9958 44.7271 33.8255 44.7402 33.6621 44.7055C33.4986 44.6708 33.3492 44.5898 33.2326 44.4726C33.116 44.3554 33.0373 44.2072 33.0064 44.0465C32.9754 43.8858 32.9936 43.7198 33.0587 43.5692C33.1238 43.4186 33.2328 43.2901 33.3722 43.1997C33.5116 43.1093 33.6751 43.061 33.8424 43.061C34.0708 43.0656 34.2881 43.158 34.4474 43.318C34.6067 43.4781 34.695 43.693 34.6934 43.9163Z" fill="#DA840D"/>
<path d="M45.2676 49.9028C45.2869 50.1896 45.2176 50.4755 45.0687 50.7233C44.9198 50.9711 44.698 51.1694 44.4323 51.2925C44.1666 51.4156 43.8692 51.4578 43.5786 51.4136C43.288 51.3694 43.0178 51.2409 42.8029 51.0447C42.588 50.8485 42.4384 50.5937 42.3735 50.3134C42.3087 50.0331 42.3315 49.7402 42.4391 49.4727C42.5467 49.2053 42.7341 48.9756 42.9769 48.8135C43.2198 48.6514 43.5068 48.5644 43.8009 48.5638C44.1767 48.5527 44.5418 48.6872 44.8165 48.938C45.0913 49.1888 45.2534 49.5357 45.2676 49.9028Z" fill="#DA840D"/>
<path d="M42.0807 44.5884C42.0807 44.9541 41.6643 45.255 41.1573 45.255C40.6503 45.255 40.2278 44.9541 40.2278 44.5884C40.2278 44.2227 40.6442 43.916 41.1573 43.916C41.6703 43.916 42.0807 44.2404 42.0807 44.5884Z" fill="#DA840D"/>
<path d="M51.4118 47.7808C51.4338 47.966 51.3977 48.1535 51.3082 48.3183C51.2188 48.483 51.0802 48.6173 50.9109 48.7034C50.7415 48.7894 50.5494 48.8232 50.36 48.8001C50.1707 48.777 49.9929 48.6983 49.8504 48.5742C49.7078 48.4502 49.6072 48.2868 49.5619 48.1056C49.5165 47.9244 49.5286 47.734 49.5965 47.5597C49.6643 47.3853 49.7848 47.2353 49.9419 47.1294C50.099 47.0235 50.2854 46.9668 50.4762 46.9667C50.7102 46.9554 50.9394 47.0343 51.1144 47.1866C51.2894 47.3389 51.3962 47.5523 51.4118 47.7808Z" fill="#DA840D"/>
<path d="M51.7685 52.6581C51.7685 53.0356 51.3219 53.3424 50.7666 53.3424C50.2113 53.3424 49.7646 53.0356 49.7646 52.6581C49.7646 52.2806 50.2173 51.9797 50.7666 51.9797C51.3158 51.9797 51.7685 52.2806 51.7685 52.6581Z" fill="#DA840D"/>
<path d="M47.7727 45.3368C47.7632 45.4742 47.7125 45.6059 47.6269 45.7153C47.5414 45.8248 47.4248 45.9073 47.2916 45.9524C47.1585 45.9976 47.0147 46.0035 46.8781 45.9693C46.7416 45.9352 46.6183 45.8625 46.5237 45.7604C46.4291 45.6583 46.3674 45.5313 46.3461 45.3951C46.3249 45.2589 46.3451 45.1196 46.4042 44.9946C46.4634 44.8696 46.5589 44.7643 46.6788 44.692C46.7987 44.6196 46.9378 44.5833 47.0786 44.5876C47.2713 44.5998 47.4515 44.6848 47.5811 44.8247C47.7107 44.9645 47.7794 45.1482 47.7727 45.3368Z" fill="#DA840D"/>
<path d="M58.1657 46.7767C58.1657 47.1543 57.7311 47.461 57.1939 47.461C56.6567 47.461 56.2222 47.1543 56.2222 46.7767C56.2222 46.3992 56.6567 46.0925 57.1939 46.0925C57.7311 46.0925 58.1657 46.3992 58.1657 46.7767Z" fill="#DA840D"/>
<path d="M58.1657 50.3107C58.1657 50.5349 57.7311 50.7177 57.1939 50.7177C56.6567 50.7177 56.2222 50.5349 56.2222 50.3107C56.2222 50.0866 56.6567 49.9037 57.1939 49.9037C57.7311 49.9037 58.1657 50.0866 58.1657 50.3107Z" fill="#DA840D"/>
<path d="M64.7389 48.0109C64.7389 48.3176 64.3465 48.5654 63.8576 48.5654C63.3687 48.5654 62.9824 48.3176 62.9824 48.0109C62.9824 47.7041 63.3748 47.4623 63.8576 47.4623C64.3405 47.4623 64.7389 47.71 64.7389 48.0109Z" fill="#DA840D"/>
<path d="M63.6884 51.9497C63.7309 52.1334 63.714 52.3255 63.6399 52.4994C63.5659 52.6732 63.4383 52.8203 63.275 52.9203C63.1117 53.0202 62.9206 53.0681 62.7282 53.0572C62.5358 53.0463 62.3516 52.9773 62.2011 52.8596C62.0507 52.742 61.9413 52.5815 61.8882 52.4005C61.8352 52.2194 61.841 52.0267 61.9049 51.849C61.9688 51.6713 62.0876 51.5174 62.2449 51.4087C62.4023 51.2999 62.5903 51.2416 62.783 51.2418C62.9987 51.2202 63.2145 51.2823 63.3839 51.4147C63.5532 51.5471 63.6626 51.7392 63.6884 51.9497Z" fill="#DA840D"/>
<path d="M71.0037 50.8052C70.9661 50.9796 70.8788 51.14 70.7518 51.2679C70.6247 51.3958 70.4633 51.4859 70.286 51.5279C70.1088 51.5698 69.923 51.5618 69.7502 51.5049C69.5774 51.448 69.4247 51.3444 69.3096 51.2061C69.1945 51.0679 69.1218 50.9006 69.1 50.7237C69.0781 50.5468 69.108 50.3674 69.1861 50.2064C69.2642 50.0453 69.3873 49.9092 69.5413 49.8137C69.6953 49.7182 69.8737 49.6672 70.0561 49.6667C70.3349 49.698 70.5901 49.8346 70.7672 50.0473C70.9443 50.2601 71.0292 50.5321 71.0037 50.8052Z" fill="#DA840D"/>
<path d="M70.4789 45.6743C70.4789 45.9044 70.1711 46.0931 69.7909 46.0931C69.4106 46.0931 69.1089 45.9044 69.1089 45.6743C69.1089 45.4443 69.4167 45.2555 69.7909 45.2555C70.1651 45.2555 70.4789 45.4207 70.4789 45.6743Z" fill="#DA840D"/>
<path d="M76.2729 46.9072C76.2729 47.8215 75.8564 48.5647 75.3494 48.5647C74.8424 48.5647 74.4199 47.8215 74.4199 46.9072C74.4199 45.9928 74.8364 45.2555 75.3494 45.2555C75.8624 45.2555 76.2729 46.0105 76.2729 46.9072Z" fill="#DA840D"/>
<path d="M78.5973 45.2306C78.5957 45.3475 78.5475 45.4591 78.463 45.5418C78.3784 45.6244 78.2642 45.6715 78.1446 45.673C78.0551 45.673 77.9675 45.6471 77.8931 45.5985C77.8186 45.5499 77.7606 45.4808 77.7264 45.3999C77.6921 45.3191 77.6831 45.2301 77.7006 45.1443C77.7181 45.0585 77.7612 44.9797 77.8245 44.9178C77.8878 44.8559 77.9685 44.8138 78.0563 44.7967C78.1441 44.7796 78.2351 44.7884 78.3178 44.8219C78.4006 44.8554 78.4713 44.9121 78.521 44.9848C78.5707 45.0576 78.5973 45.1431 78.5973 45.2306Z" fill="#DA840D"/>
<path d="M63.3747 43.8165C63.3747 44.2412 62.8074 44.5893 62.1133 44.5893C61.4192 44.5893 60.8518 44.2412 60.8518 43.8165C60.8518 43.3918 61.4131 43.0497 62.1133 43.0497C62.8134 43.0497 63.3747 43.3918 63.3747 43.8165Z" fill="#DA840D"/>
<path d="M39.7086 39.8402C39.7086 40.1056 39.268 40.318 38.7248 40.318C38.1816 40.318 37.741 40.1056 37.741 39.8402C37.741 39.5747 38.1816 39.3683 38.7248 39.3683C39.268 39.3683 39.7086 39.5806 39.7086 39.8402Z" fill="#DA840D"/>
<path d="M45.5027 38.8957C45.5027 39.1552 45.0017 39.3676 44.3861 39.3676C43.7704 39.3676 43.2634 39.1552 43.2634 38.8957C43.2634 38.6361 43.7644 38.4238 44.3861 38.4238C45.0077 38.4238 45.5027 38.6361 45.5027 38.8957Z" fill="#DA840D"/>
<path d="M52.7946 40.0526C52.7946 40.4301 52.1186 40.7369 51.2796 40.7369C50.4406 40.7369 49.7646 40.4301 49.7646 40.0526C49.7646 39.675 50.4467 39.3683 51.2796 39.3683C52.1125 39.3683 52.7946 39.675 52.7946 40.0526Z" fill="#DA840D"/>
<path d="M58.1665 38.8956C58.1677 38.9906 58.1398 39.0838 58.0866 39.1632C58.0333 39.2427 57.957 39.3049 57.8675 39.3418C57.7779 39.3786 57.6791 39.3886 57.5837 39.3704C57.4883 39.3521 57.4006 39.3065 57.3319 39.2393C57.2632 39.1721 57.2165 39.0865 57.1978 38.9932C57.1792 38.9 57.1893 38.8034 57.2271 38.7159C57.2648 38.6284 57.3284 38.5538 57.4097 38.5017C57.4911 38.4497 57.5864 38.4225 57.6836 38.4237C57.8117 38.4237 57.9345 38.4734 58.025 38.5619C58.1156 38.6504 58.1665 38.7704 58.1665 38.8956Z" fill="#DA840D"/>
<path d="M57.1944 42.6304C57.1944 42.8604 56.7357 43.0492 56.1623 43.0492C55.5889 43.0492 55.1362 42.8604 55.1362 42.6304C55.1362 42.4003 55.5949 42.2057 56.1623 42.2057C56.7297 42.2057 57.1944 42.3944 57.1944 42.6304Z" fill="#DA840D"/>
<path d="M65.2643 38.6897C65.2655 38.8274 65.2244 38.9623 65.1464 39.0771C65.0684 39.1918 64.9571 39.2811 64.8268 39.3335C64.6964 39.3859 64.553 39.3989 64.415 39.371C64.277 39.3431 64.1507 39.2754 64.0524 39.1768C63.954 39.0781 63.8882 38.9529 63.8632 38.8174C63.8383 38.6818 63.8554 38.542 63.9124 38.4161C63.9694 38.2901 64.0636 38.1837 64.183 38.1105C64.3024 38.0373 64.4415 38.0007 64.5823 38.0054C64.7654 38.0085 64.9397 38.0822 65.0675 38.2103C65.1952 38.3385 65.266 38.5108 65.2643 38.6897Z" fill="#DA840D"/>
<path d="M69.1091 41.4735C69.1091 41.5856 68.753 41.68 68.3063 41.68C67.8596 41.68 67.5095 41.5856 67.5095 41.4735C67.5095 41.3615 67.8657 41.2612 68.3063 41.2612C68.7469 41.2612 69.1091 41.3556 69.1091 41.4735Z" fill="#DA840D"/>
<path d="M71.6137 40.1117C71.6275 40.174 71.6211 40.2388 71.5955 40.2973C71.5698 40.3559 71.5262 40.4051 71.4706 40.4383C71.4151 40.4715 71.3503 40.487 71.2853 40.4826C71.2203 40.4782 71.1584 40.4541 71.108 40.4138C71.0576 40.3734 71.0214 40.3187 71.0042 40.2573C70.9871 40.1959 70.9899 40.1308 71.0123 40.071C71.0348 40.0112 71.0756 39.9598 71.1293 39.9237C71.183 39.8877 71.2468 39.8689 71.312 39.8699C71.3847 39.8633 71.4572 39.885 71.5137 39.9302C71.5702 39.9755 71.6061 40.0407 71.6137 40.1117Z" fill="#DA840D"/>
<path d="M69.109 41.474C69.095 41.602 69.0435 41.7232 68.9605 41.8231C68.8776 41.9231 68.7669 41.9974 68.6417 42.0372C68.5165 42.0769 68.3822 42.0805 68.255 42.0473C68.1278 42.0141 68.0132 41.9457 67.9249 41.8502C67.8366 41.7548 67.7785 41.6364 67.7575 41.5094C67.7365 41.3824 67.7536 41.2522 67.8067 41.1345C67.8598 41.0167 67.9466 40.9165 68.0567 40.8459C68.1667 40.7754 68.2953 40.7374 68.427 40.7367C68.5213 40.7412 68.6138 40.7639 68.6992 40.8034C68.7846 40.843 68.8612 40.8986 68.9245 40.9671C68.9879 41.0356 69.0368 41.1156 69.0684 41.2026C69.1001 41.2896 69.1139 41.3818 69.109 41.474Z" fill="#DA840D"/>
<path d="M72.9832 40.2882C72.9832 40.5359 72.609 40.7365 72.1442 40.7365C71.6795 40.7365 71.3113 40.5359 71.3113 40.2882C71.3113 40.0404 71.6855 39.8398 72.1442 39.8398C72.6029 39.8398 72.9832 40.0404 72.9832 40.2882Z" fill="#DA840D"/>
<path d="M93.3539 37.4452C93.3539 45.0606 76.792 52.151 56.8561 52.151C36.9202 52.151 20.2375 44.5356 20.2375 36.9143C20.2375 29.293 36.9202 24.5563 56.8561 24.5563C76.792 24.5563 93.3539 29.8239 93.3539 37.4452Z" fill="#E3AC8A"/>
<path d="M92.9491 35.9826C92.9491 43.6039 76.7855 49.78 56.8496 49.78C36.9137 49.78 20.7622 43.5921 20.7622 35.9826C20.7622 28.3731 36.9198 22.1734 56.8556 22.1734C76.7915 22.1734 92.9491 28.3495 92.9491 35.9826Z" fill="#DA840D"/>
<path d="M83.1176 34.6669C83.1176 40.3179 71.1247 44.9013 56.3372 44.9013C41.5498 44.9013 29.575 40.3179 29.575 34.6669C29.575 29.0158 41.5498 24.4265 56.3372 24.4265C71.1247 24.4265 83.1176 29.0099 83.1176 34.6669Z" fill="#F0A508"/>
<path d="M38.3086 38.4426C38.3086 39.0325 37.6326 39.5457 36.7876 39.5457C35.9426 39.5457 35.2666 39.0502 35.2666 38.4426C35.2666 37.835 35.9486 37.3395 36.8178 37.3395C37.6869 37.3395 38.3086 37.8291 38.3086 38.4426Z" fill="#DA840D"/>
<path d="M35.2665 33.794C35.2594 33.9563 35.2038 34.113 35.1066 34.2448C35.0094 34.3766 34.8749 34.4777 34.7196 34.5356C34.5643 34.5935 34.395 34.6057 34.2327 34.5707C34.0704 34.5356 33.9221 34.4549 33.8062 34.3385C33.6903 34.222 33.6118 34.0749 33.5805 33.9154C33.5491 33.7559 33.5662 33.5909 33.6298 33.4407C33.6933 33.2906 33.8004 33.1619 33.9379 33.0706C34.0753 32.9793 34.2372 32.9293 34.4034 32.9269C34.5185 32.9276 34.6324 32.9508 34.7383 32.9949C34.8443 33.039 34.9402 33.1033 35.0205 33.184C35.1008 33.2647 35.1639 33.3601 35.2061 33.4649C35.2484 33.5696 35.2689 33.6815 35.2665 33.794Z" fill="#DA840D"/>
<path d="M45.8711 39.7814C45.8892 40.0668 45.8192 40.351 45.6701 40.5971C45.5211 40.8432 45.2998 41.0399 45.035 41.1616C44.7702 41.2833 44.4741 41.3245 44.1851 41.2799C43.8961 41.2352 43.6274 41.1067 43.414 40.911C43.2006 40.7154 43.0522 40.4616 42.9881 40.1825C42.924 39.9035 42.9472 39.612 43.0545 39.346C43.1619 39.08 43.3486 38.8516 43.5904 38.6905C43.8321 38.5293 44.1178 38.4429 44.4105 38.4424C44.7857 38.4312 45.1501 38.5659 45.4239 38.8169C45.6977 39.0679 45.8585 39.4147 45.8711 39.7814Z" fill="#DA840D"/>
<path d="M42.654 34.4601C42.654 34.8317 42.2375 35.1326 41.7245 35.1326C41.2115 35.1326 40.801 34.8317 40.801 34.4601C40.801 34.0885 41.2175 33.7935 41.7245 33.7935C42.2315 33.7935 42.654 34.0944 42.654 34.4601Z" fill="#DA840D"/>
<path d="M51.9857 37.6286C52.0077 37.8139 51.9716 38.0014 51.8822 38.1661C51.7927 38.3309 51.6542 38.4652 51.4848 38.5513C51.3155 38.6373 51.1234 38.671 50.934 38.648C50.7446 38.6249 50.5669 38.5461 50.4243 38.4221C50.2818 38.2981 50.1812 38.1346 50.1358 37.9535C50.0905 37.7723 50.1026 37.5819 50.1704 37.4076C50.2383 37.2332 50.3588 37.0832 50.5159 36.9773C50.673 36.8714 50.8593 36.8147 51.0502 36.8146C51.2842 36.8033 51.5134 36.8823 51.6884 37.0345C51.8634 37.1868 51.9702 37.4002 51.9857 37.6286Z" fill="#DA840D"/>
<path d="M52.3413 42.5367C52.3413 42.9142 51.8946 43.2209 51.3393 43.2209C50.784 43.2209 50.3374 42.9142 50.3374 42.5367C50.3374 42.1591 50.784 41.8819 51.3393 41.8819C51.8946 41.8819 52.3413 42.165 52.3413 42.5367Z" fill="#DA840D"/>
<path d="M48.3464 35.2153C48.3464 35.4015 48.2707 35.58 48.136 35.7117C48.0013 35.8433 47.8187 35.9173 47.6282 35.9173C47.4377 35.9173 47.255 35.8433 47.1203 35.7117C46.9856 35.58 46.9099 35.4015 46.9099 35.2153C46.9099 35.0292 46.9856 34.8506 47.1203 34.719C47.255 34.5873 47.4377 34.5134 47.6282 34.5134C47.8187 34.5134 48.0013 34.5873 48.136 34.719C48.2707 34.8506 48.3464 35.0292 48.3464 35.2153Z" fill="#DA840D"/>
<path d="M58.7394 36.6548C58.7394 37.0324 58.3048 37.3391 57.7676 37.3391C57.2305 37.3391 56.7959 37.0324 56.7959 36.6548C56.7959 36.2773 57.2305 35.9824 57.7676 35.9824C58.3048 35.9824 58.7394 36.2773 58.7394 36.6548Z" fill="#DA840D"/>
<path d="M58.7394 40.1879C58.7394 40.4121 58.3048 40.5949 57.7676 40.5949C57.2305 40.5949 56.7959 40.4121 56.7959 40.1879C56.7959 39.9637 57.2305 39.7809 57.7676 39.7809C58.3048 39.7809 58.7394 39.9637 58.7394 40.1879Z" fill="#DA840D"/>
<path d="M65.3117 37.8881C65.3117 38.1948 64.9194 38.4426 64.4305 38.4426C63.9416 38.4426 63.5493 38.1948 63.5493 37.8881C63.5493 37.5814 63.9477 37.3395 64.4305 37.3395C64.9134 37.3395 65.3117 37.5873 65.3117 37.8881Z" fill="#DA840D"/>
<path d="M64.2621 41.8276C64.3059 42.0124 64.2899 42.2059 64.2161 42.3814C64.1424 42.5569 64.0146 42.7056 63.8505 42.807C63.6864 42.9083 63.4941 42.9573 63.3003 42.947C63.1065 42.9368 62.9207 42.8679 62.7687 42.7498C62.6168 42.6318 62.5062 42.4705 62.4522 42.2883C62.3982 42.106 62.4036 41.9119 62.4675 41.7328C62.5315 41.5537 62.6508 41.3984 62.8091 41.2886C62.9674 41.1787 63.1567 41.1197 63.3508 41.1197C63.5675 41.0964 63.7848 41.1578 63.9555 41.2903C64.1262 41.4229 64.2364 41.616 64.2621 41.8276Z" fill="#DA840D"/>
<path d="M71.5774 40.7014C71.5334 40.8734 71.4411 41.0299 71.3109 41.1532C71.1806 41.2766 71.0177 41.3618 70.8404 41.3994C70.6632 41.4369 70.4787 41.4252 70.3079 41.3657C70.1371 41.3061 69.9868 41.201 69.8739 41.0622C69.7611 40.9235 69.6902 40.7566 69.6693 40.5806C69.6484 40.4045 69.6784 40.2263 69.7558 40.066C69.8331 39.9057 69.9549 39.7697 70.1072 39.6736C70.2595 39.5774 70.4364 39.5248 70.6177 39.5217C70.7608 39.5355 70.8996 39.5773 71.0259 39.6445C71.1522 39.7118 71.2634 39.8031 71.3529 39.9131C71.4424 40.0232 71.5084 40.1496 71.5469 40.285C71.5855 40.4204 71.5958 40.562 71.5774 40.7014Z" fill="#DA840D"/>
<path d="M71.0525 35.5515C71.0525 35.7816 70.7447 35.9703 70.3644 35.9703C69.9842 35.9703 69.6824 35.7816 69.6824 35.5515C69.6824 35.3215 69.9842 35.1327 70.3644 35.1327C70.7447 35.1327 71.0525 35.3215 71.0525 35.5515Z" fill="#DA840D"/>
<path d="M76.8466 36.7844C76.8466 37.6987 76.4301 38.442 75.9171 38.442C75.4041 38.442 74.9937 37.6987 74.9937 36.7844C74.9937 35.87 75.4101 35.1327 75.9171 35.1327C76.4241 35.1327 76.8466 35.87 76.8466 36.7844Z" fill="#DA840D"/>
<path d="M79.1645 35.1092C79.1633 35.1953 79.1361 35.2791 79.0863 35.3501C79.0365 35.4211 78.9663 35.4761 78.8846 35.5083C78.8029 35.5404 78.7133 35.5482 78.6271 35.5307C78.5408 35.5132 78.4618 35.4712 78.4 35.4099C78.3381 35.3486 78.2961 35.2708 78.2794 35.1863C78.2626 35.1018 78.2718 35.0144 78.3058 34.9349C78.3398 34.8555 78.397 34.7877 78.4703 34.74C78.5437 34.6923 78.6298 34.6668 78.7179 34.6668C78.8369 34.6684 78.9505 34.7157 79.0341 34.7985C79.1176 34.8813 79.1645 34.9929 79.1645 35.1092Z" fill="#DA840D"/>
<path d="M63.9421 33.6937C63.9421 34.1184 63.3808 34.4606 62.6867 34.4606C61.9926 34.4606 61.4253 34.1184 61.4253 33.6937C61.4253 33.269 61.9866 32.9269 62.6867 32.9269C63.3869 32.9269 63.9421 33.269 63.9421 33.6937Z" fill="#DA840D"/>
<path d="M40.2825 29.7233C40.2825 29.9828 39.8419 30.1952 39.2987 30.1952C38.7555 30.1952 38.3088 29.9828 38.3088 29.7233C38.3088 29.4637 38.7494 29.2455 39.2987 29.2455C39.8479 29.2455 40.2825 29.4578 40.2825 29.7233Z" fill="#DA840D"/>
<path d="M46.0764 28.7742C46.0764 29.0397 45.5754 29.2461 44.9538 29.2461C44.3321 29.2461 43.8372 29.0397 43.8372 28.7742C43.8372 28.5088 44.3381 28.3023 44.9538 28.3023C45.5694 28.3023 46.0764 28.5147 46.0764 28.7742Z" fill="#DA840D"/>
<path d="M53.3673 29.9297C53.3673 30.3073 52.6913 30.614 51.8524 30.614C51.0134 30.614 50.3374 30.3073 50.3374 29.9297C50.3374 29.5522 51.0194 29.2455 51.8524 29.2455C52.6853 29.2455 53.3673 29.5522 53.3673 29.9297Z" fill="#DA840D"/>
<path d="M58.7393 28.7731C58.726 28.8899 58.6691 28.9979 58.5794 29.0762C58.4898 29.1546 58.3737 29.1979 58.2535 29.1979C58.1332 29.1979 58.0171 29.1546 57.9275 29.0762C57.8379 28.9979 57.7809 28.8899 57.7676 28.7731C57.7809 28.6563 57.8379 28.5484 57.9275 28.47C58.0171 28.3917 58.1332 28.3483 58.2535 28.3483C58.3737 28.3483 58.4898 28.3917 58.5794 28.47C58.6691 28.5484 58.726 28.6563 58.7393 28.7731Z" fill="#DA840D"/>
<path d="M57.7676 32.5017C57.7676 32.7377 57.3089 32.9264 56.7355 32.9264C56.1621 32.9264 55.7034 32.7377 55.7034 32.5017C55.7034 32.2658 56.1681 32.0829 56.7355 32.0829C57.3028 32.0829 57.7676 32.2716 57.7676 32.5017Z" fill="#DA840D"/>
<path d="M65.8376 28.5667C65.8388 28.7035 65.7984 28.8375 65.7215 28.9518C65.6447 29.066 65.5348 29.1554 65.4059 29.2086C65.277 29.2617 65.1348 29.2762 64.9974 29.2502C64.86 29.2243 64.7336 29.159 64.6343 29.0627C64.5349 28.9665 64.4671 28.8435 64.4393 28.7095C64.4116 28.5754 64.4252 28.4364 64.4785 28.3099C64.5317 28.1835 64.6222 28.0753 64.7385 27.9992C64.8547 27.9231 64.9915 27.8825 65.1314 27.8825C65.2241 27.8809 65.3162 27.8975 65.4022 27.9312C65.4882 27.965 65.5664 28.0152 65.6322 28.079C65.698 28.1428 65.7501 28.2188 65.7854 28.3026C65.8207 28.3863 65.8384 28.4762 65.8376 28.5667Z" fill="#DA840D"/>
<path d="M69.6815 31.3521C69.6815 31.4642 69.3193 31.5586 68.8787 31.5586C68.4381 31.5586 68.082 31.4642 68.082 31.3521C68.082 31.2401 68.4381 31.1398 68.8787 31.1398C69.3193 31.1398 69.6815 31.2636 69.6815 31.3521Z" fill="#DA840D"/>
<path d="M72.1871 29.9602C72.1684 30.0243 72.1288 30.0807 72.0744 30.1208C72.0199 30.161 71.9535 30.1827 71.8853 30.1827C71.8171 30.1827 71.7507 30.161 71.6963 30.1208C71.6418 30.0807 71.6022 30.0243 71.5835 29.9602C71.6022 29.8961 71.6418 29.8397 71.6963 29.7996C71.7507 29.7594 71.8171 29.7377 71.8853 29.7377C71.9535 29.7377 72.0199 29.7594 72.0744 29.7996C72.1288 29.8397 72.1684 29.8961 72.1871 29.9602Z" fill="#DA840D"/>
<path d="M69.6825 31.3513C69.6685 31.4792 69.6169 31.6005 69.534 31.7004C69.4511 31.8003 69.3403 31.8747 69.2152 31.9144C69.09 31.9542 68.9557 31.9577 68.8285 31.9245C68.7013 31.8914 68.5866 31.823 68.4984 31.7275C68.4101 31.6321 68.3519 31.5137 68.331 31.3867C68.31 31.2597 68.3271 31.1295 68.3802 31.0117C68.4333 30.894 68.5201 30.7938 68.6301 30.7232C68.7402 30.6526 68.8688 30.6147 69.0004 30.614C69.0948 30.6185 69.1873 30.6412 69.2727 30.6807C69.3581 30.7202 69.4346 30.7758 69.498 30.8443C69.5614 30.9128 69.6103 30.9929 69.6419 31.0799C69.6736 31.1669 69.6874 31.2591 69.6825 31.3513Z" fill="#DA840D"/>
<path d="M73.5571 30.1661C73.5571 30.4139 73.1829 30.6144 72.7181 30.6144C72.2534 30.6144 71.8792 30.4139 71.8792 30.1661C71.8792 29.9184 72.2534 29.7237 72.7181 29.7237C73.1829 29.7237 73.5571 29.9184 73.5571 30.1661Z" fill="#DA840D"/>
<path d="M93.3539 30.9387C93.3539 38.56 76.792 45.6445 56.8561 45.6445C36.9202 45.6445 20.2375 38.035 20.2375 30.4137C20.2375 22.7924 36.9202 18.0261 56.8561 18.0261C76.792 18.0261 93.3539 23.3174 93.3539 30.9387Z" fill="#E3AC8A"/>
<path d="M92.9491 29.4938C92.9491 37.1092 76.7855 43.2911 56.8496 43.2911C36.9137 43.2911 20.7622 37.0856 20.7622 29.4938C20.7622 21.902 36.9198 15.6905 56.8556 15.6905C76.7915 15.6905 92.9491 21.8253 92.9491 29.4938Z" fill="#DA840D"/>
<path d="M83.1176 28.1603C83.1176 33.8114 71.1247 38.3948 56.3372 38.3948C41.5498 38.3948 29.575 33.8114 29.575 28.1603C29.575 22.5092 41.5498 17.9199 56.3372 17.9199C71.1247 17.9199 83.1176 22.5033 83.1176 28.1603Z" fill="#F0A508"/>
<path d="M38.3086 31.936C38.3086 32.5259 37.6326 33.0391 36.7876 33.0391C35.9426 33.0391 35.2666 32.5436 35.2666 31.936C35.2666 31.3284 35.9486 30.8329 36.7876 30.8329C37.6266 30.8329 38.3086 31.3284 38.3086 31.936Z" fill="#DA840D"/>
<path d="M35.2665 27.2874C35.2594 27.4498 35.2038 27.6065 35.1066 27.7383C35.0094 27.8701 34.8749 27.9711 34.7196 28.0291C34.5643 28.087 34.395 28.0992 34.2327 28.0641C34.0704 28.0291 33.9221 27.9484 33.8062 27.8319C33.6903 27.7155 33.6118 27.5684 33.5805 27.4089C33.5491 27.2493 33.5662 27.0843 33.6298 26.9342C33.6933 26.784 33.8004 26.6554 33.9379 26.5641C34.0753 26.4727 34.2372 26.4228 34.4034 26.4203C34.5185 26.4211 34.6324 26.4442 34.7383 26.4883C34.8443 26.5325 34.9402 26.5967 35.0205 26.6774C35.1008 26.7581 35.1639 26.8536 35.2061 26.9583C35.2484 27.063 35.2689 27.1749 35.2665 27.2874Z" fill="#DA840D"/>
<path d="M44.3925 34.6132C45.1992 34.6132 45.8532 34.0137 45.8532 33.2742C45.8532 32.5347 45.1992 31.9352 44.3925 31.9352C43.5858 31.9352 42.9319 32.5347 42.9319 33.2742C42.9319 34.0137 43.5858 34.6132 44.3925 34.6132Z" fill="#DA840D"/>
<path d="M42.654 27.9604C42.654 28.3261 42.2375 28.6269 41.7245 28.6269C41.2115 28.6269 40.801 28.3143 40.801 27.9604C40.801 27.6064 41.2175 27.2879 41.7245 27.2879C42.2315 27.2879 42.654 27.5887 42.654 27.9604Z" fill="#DA840D"/>
<path d="M51.9857 31.1221C52.0077 31.3074 51.9716 31.4948 51.8822 31.6596C51.7927 31.8243 51.6542 31.9587 51.4848 32.0447C51.3155 32.1308 51.1234 32.1645 50.934 32.1414C50.7446 32.1184 50.5669 32.0396 50.4243 31.9156C50.2818 31.7915 50.1812 31.6281 50.1358 31.4469C50.0905 31.2657 50.1026 31.0753 50.1704 30.901C50.2383 30.7267 50.3588 30.5766 50.5159 30.4707C50.673 30.3648 50.8593 30.3081 51.0502 30.308C51.2842 30.2967 51.5134 30.3757 51.6884 30.528C51.8634 30.6802 51.9702 30.8936 51.9857 31.1221Z" fill="#DA840D"/>
<path d="M52.3413 36.0287C52.3413 36.4062 51.8946 36.713 51.3393 36.713C50.784 36.713 50.3374 36.4062 50.3374 36.0287C50.3374 35.6512 50.784 35.3503 51.3393 35.3503C51.8946 35.3503 52.3413 35.6571 52.3413 36.0287Z" fill="#DA840D"/>
<path d="M48.346 28.7142C48.3355 28.8503 48.2846 28.9805 48.1995 29.0887C48.1144 29.197 47.9989 29.2786 47.8671 29.3237C47.7353 29.3688 47.5929 29.3753 47.4573 29.3426C47.3218 29.3098 47.1989 29.2391 47.1038 29.1391C47.0087 29.0391 46.9455 28.9143 46.9219 28.7797C46.8984 28.6452 46.9154 28.5069 46.971 28.3817C47.0266 28.2565 47.1183 28.1498 47.235 28.0748C47.3516 27.9998 47.4882 27.9596 47.6278 27.9592C47.8253 27.9669 48.0116 28.0506 48.1462 28.192C48.2807 28.3335 48.3526 28.5212 48.346 28.7142Z" fill="#DA840D"/>
<path d="M58.7394 30.1485C58.7394 30.526 58.3048 30.8327 57.7676 30.8327C57.2305 30.8327 56.7959 30.526 56.7959 30.1485C56.7959 29.771 57.2305 29.4937 57.7676 29.4937C58.3048 29.4937 58.7394 29.771 58.7394 30.1485Z" fill="#DA840D"/>
<path d="M58.7394 33.6814C58.7394 33.9055 58.3048 34.0884 57.7676 34.0884C57.2305 34.0884 56.7959 33.9055 56.7959 33.6814C56.7959 33.4572 57.2305 33.2744 57.7676 33.2744C58.3048 33.2744 58.7394 33.4572 58.7394 33.6814Z" fill="#DA840D"/>
<path d="M65.3117 31.3815C65.3117 31.6883 64.9194 31.936 64.4305 31.936C63.9416 31.936 63.5493 31.6883 63.5493 31.3815C63.5493 31.0748 63.9477 30.8329 64.4305 30.8329C64.9134 30.8329 65.3117 31.0807 65.3117 31.3815Z" fill="#DA840D"/>
<path d="M64.2621 35.322C64.3059 35.5068 64.2899 35.7004 64.2161 35.8759C64.1424 36.0513 64.0146 36.2001 63.8505 36.3014C63.6864 36.4027 63.4941 36.4517 63.3003 36.4414C63.1065 36.4312 62.9207 36.3623 62.7687 36.2443C62.6168 36.1262 62.5062 35.9649 62.4522 35.7827C62.3982 35.6005 62.4036 35.4063 62.4675 35.2272C62.5315 35.0481 62.6508 34.8929 62.8091 34.783C62.9674 34.6732 63.1567 34.6142 63.3508 34.6141C63.5675 34.5909 63.7848 34.6522 63.9555 34.7848C64.1262 34.9173 64.2364 35.1104 64.2621 35.322Z" fill="#DA840D"/>
<path d="M71.5773 34.2129C71.5334 34.3848 71.4411 34.5413 71.3108 34.6647C71.1806 34.788 71.0176 34.8733 70.8404 34.9108C70.6632 34.9484 70.4787 34.9367 70.3079 34.8771C70.1371 34.8175 69.9868 34.7124 69.8739 34.5737C69.7611 34.4349 69.6902 34.2681 69.6693 34.092C69.6484 33.916 69.6784 33.7377 69.7558 33.5774C69.8331 33.4171 69.9549 33.2812 70.1072 33.185C70.2595 33.0888 70.4363 33.0362 70.6177 33.0331C70.7611 33.0461 70.9004 33.0874 71.0271 33.1544C71.1538 33.2214 71.2653 33.3127 71.3549 33.4229C71.4446 33.5332 71.5105 33.6599 71.5487 33.7957C71.5869 33.9314 71.5967 34.0733 71.5773 34.2129Z" fill="#DA840D"/>
<path d="M71.0525 29.0459C71.0525 29.2819 70.7447 29.4706 70.3644 29.4706C69.9842 29.4706 69.6824 29.2819 69.6824 29.0459C69.6824 28.81 69.9842 28.6271 70.3644 28.6271C70.7447 28.6271 71.0525 28.8159 71.0525 29.0459Z" fill="#DA840D"/>
<path d="M76.8466 30.2788C76.8466 31.1931 76.4301 31.9364 75.9171 31.9364C75.4041 31.9364 74.9937 31.1931 74.9937 30.2788C74.9937 29.3645 75.4101 28.6271 75.9171 28.6271C76.4241 28.6271 76.8466 29.3704 76.8466 30.2788Z" fill="#DA840D"/>
<path d="M79.1646 28.6036C79.1634 28.6897 79.1362 28.7735 79.0864 28.8445C79.0366 28.9155 78.9664 28.9706 78.8847 29.0027C78.803 29.0348 78.7133 29.0426 78.6271 29.0251C78.5409 29.0076 78.4618 28.9656 78.4 28.9043C78.3381 28.843 78.2961 28.7653 78.2794 28.6807C78.2626 28.5962 78.2718 28.5088 78.3058 28.4293C78.3398 28.3499 78.397 28.2821 78.4704 28.2344C78.5437 28.1867 78.6298 28.1612 78.7179 28.1612C78.777 28.1612 78.8356 28.1727 78.8902 28.195C78.9448 28.2173 78.9943 28.25 79.0359 28.2911C79.0774 28.3323 79.1102 28.3811 79.1323 28.4348C79.1544 28.4884 79.1654 28.5458 79.1646 28.6036Z" fill="#DA840D"/>
<path d="M63.9421 27.1872C63.9421 27.6119 63.3808 27.9599 62.6867 27.9599C61.9926 27.9599 61.4253 27.6119 61.4253 27.1872C61.4253 26.7625 61.9866 26.4203 62.6867 26.4203C63.3869 26.4203 63.9421 26.7625 63.9421 27.1872Z" fill="#DA840D"/>
<path d="M40.2825 23.2175C40.2825 23.477 39.8419 23.6894 39.2987 23.6894C38.7555 23.6894 38.3088 23.477 38.3088 23.2175C38.3088 22.9579 38.7494 22.7455 39.2987 22.7455C39.8479 22.7455 40.2825 22.9579 40.2825 23.2175Z" fill="#DA840D"/>
<path d="M46.0764 22.2673C46.0764 22.5327 45.5754 22.7451 44.9538 22.7451C44.3321 22.7451 43.8372 22.5327 43.8372 22.2673C43.8372 22.0018 44.3381 21.7954 44.9538 21.7954C45.5694 21.7954 46.0764 22.0077 46.0764 22.2673Z" fill="#DA840D"/>
<path d="M53.3673 23.4239C53.3673 23.8014 52.6913 24.1082 51.8524 24.1082C51.0134 24.1082 50.3374 23.8014 50.3374 23.4239C50.3374 23.0464 51.0194 22.7455 51.8524 22.7455C52.6853 22.7455 53.3673 23.0464 53.3673 23.4239Z" fill="#DA840D"/>
<path d="M58.739 22.2676C58.7402 22.3626 58.7123 22.4558 58.6591 22.5352C58.6058 22.6147 58.5295 22.6769 58.44 22.7138C58.3504 22.7507 58.2516 22.7606 58.1562 22.7424C58.0608 22.7241 57.9732 22.6785 57.9044 22.6113C57.8357 22.5441 57.789 22.4585 57.7703 22.3652C57.7517 22.272 57.7619 22.1755 57.7996 22.0879C57.8373 22.0004 57.9009 21.9258 57.9823 21.8738C58.0636 21.8217 58.1589 21.7945 58.2561 21.7957C58.3842 21.7957 58.507 21.8454 58.5975 21.9339C58.6881 22.0224 58.739 22.1424 58.739 22.2676Z" fill="#DA840D"/>
<path d="M57.7676 26.0011C57.7676 26.2311 57.3089 26.4199 56.7355 26.4199C56.1621 26.4199 55.7034 26.2311 55.7034 26.0011C55.7034 25.771 56.1681 25.5764 56.7355 25.5764C57.3028 25.5764 57.7676 25.7651 57.7676 26.0011Z" fill="#DA840D"/>
<path d="M65.8376 22.0613C65.8388 22.1981 65.7984 22.3321 65.7215 22.4463C65.6447 22.5606 65.5348 22.65 65.4059 22.7031C65.277 22.7563 65.1348 22.7708 64.9974 22.7448C64.86 22.7189 64.7336 22.6536 64.6343 22.5573C64.5349 22.461 64.4671 22.3381 64.4393 22.204C64.4116 22.07 64.4252 21.9309 64.4785 21.8045C64.5317 21.678 64.6222 21.5699 64.7385 21.4938C64.8547 21.4177 64.9915 21.377 65.1314 21.377C65.2239 21.3763 65.3156 21.3934 65.4012 21.4274C65.4869 21.4615 65.5647 21.5117 65.6304 21.5754C65.6961 21.639 65.7482 21.7147 65.7837 21.7981C65.8193 21.8815 65.8376 21.971 65.8376 22.0613Z" fill="#DA840D"/>
<path d="M69.6815 24.8455C69.6815 24.9576 69.3193 25.052 68.8787 25.052C68.4381 25.052 68.082 24.9576 68.082 24.8455C68.082 24.7335 68.4381 24.6332 68.8787 24.6332C69.3193 24.6332 69.6815 24.7276 69.6815 24.8455Z" fill="#DA840D"/>
<path d="M72.1873 23.453C72.2024 23.5149 72.1973 23.5798 72.1729 23.6388C72.1485 23.6978 72.106 23.7479 72.0511 23.7822C71.9963 23.8165 71.9319 23.8332 71.8669 23.8302C71.8019 23.8271 71.7395 23.8044 71.6883 23.7652C71.6371 23.7259 71.5996 23.6721 71.5811 23.6111C71.5626 23.5501 71.5639 23.485 71.5849 23.4248C71.6059 23.3646 71.6456 23.3122 71.6983 23.275C71.7511 23.2378 71.8144 23.2176 71.8795 23.2171C71.952 23.2103 72.0244 23.231 72.0817 23.2749C72.139 23.3188 72.1768 23.3826 72.1873 23.453Z" fill="#DA840D"/>
<path d="M69.6825 24.8447C69.6685 24.9726 69.6169 25.0939 69.534 25.1938C69.4511 25.2937 69.3403 25.368 69.2152 25.4078C69.09 25.4476 68.9557 25.4511 68.8285 25.4179C68.7013 25.3848 68.5866 25.3163 68.4984 25.2209C68.4101 25.1255 68.3519 25.0071 68.331 24.8801C68.31 24.7531 68.3271 24.6229 68.3802 24.5051C68.4333 24.3874 68.5201 24.2872 68.6301 24.2166C68.7402 24.146 68.8688 24.1081 69.0004 24.1074C69.0948 24.1119 69.1873 24.1346 69.2727 24.1741C69.3581 24.2136 69.4346 24.2692 69.498 24.3377C69.5614 24.4062 69.6103 24.4863 69.6419 24.5733C69.6736 24.6603 69.6874 24.7525 69.6825 24.8447Z" fill="#DA840D"/>
<path d="M73.5571 23.6595C73.5571 23.9073 73.1829 24.1079 72.7181 24.1079C72.2534 24.1079 71.8792 23.9073 71.8792 23.6595C71.8792 23.4118 72.2534 23.2171 72.7181 23.2171C73.1829 23.2171 73.5571 23.4177 73.5571 23.6595Z" fill="#DA840D"/>
<path d="M91.9595 24.2383C91.1146 16.9119 75.977 11.0839 57.4233 11.0839C40.0647 11.0839 25.6997 16.1864 23.2251 22.8344C22.6534 23.7328 22.3445 24.7672 22.3318 25.8251C22.3318 33.4464 38.3264 41.0618 57.4233 41.0618C76.5202 41.0618 92.382 33.9832 92.382 26.3501C92.3808 25.6262 92.2373 24.9093 91.9595 24.2383Z" fill="#C66720"/>
<path d="M94.0908 22.9168C94.0908 30.5381 77.5288 37.6285 57.5929 37.6285C37.657 37.6285 20.9744 30.0132 20.9744 22.4154C20.9744 14.8177 37.657 10.0279 57.5929 10.0279C77.5288 10.0279 94.0908 15.2956 94.0908 22.9168Z" fill="#E3AC8A"/>
<path d="M93.7704 21.4483C93.7704 29.0696 78.0776 34.8268 58.1599 34.8268C38.2421 34.8268 22.0664 28.6508 22.0664 21.0295C22.0664 13.4082 38.224 7.23209 58.1599 7.23209C78.0957 7.23209 93.7704 13.827 93.7704 21.4483Z" fill="#DA840D"/>
<path d="M57.0736 30.3727C71.864 30.3727 83.854 25.7906 83.854 20.1383C83.854 14.4859 71.864 9.90378 57.0736 9.90378C42.2832 9.90378 30.2932 14.4859 30.2932 20.1383C30.2932 25.7906 42.2832 30.3727 57.0736 30.3727Z" fill="#F0A508"/>
<path d="M39.0449 23.9128C39.0449 24.5027 38.3629 25.0218 37.5239 25.0218C36.685 25.0218 36.0029 24.5263 36.0029 23.9128C36.0029 23.2994 36.685 22.8098 37.5239 22.8098C38.3629 22.8098 39.0449 23.3053 39.0449 23.9128Z" fill="#DA840D"/>
<path d="M36.0028 19.2702C35.9945 19.4327 35.9377 19.5893 35.8393 19.7205C35.7409 19.8517 35.6053 19.9519 35.4492 20.0086C35.2932 20.0652 35.1235 20.0759 34.9613 20.0393C34.7991 20.0027 34.6515 19.9204 34.5366 19.8026C34.4218 19.6848 34.3448 19.5367 34.3153 19.3766C34.2857 19.2165 34.3049 19.0514 34.3703 18.9018C34.4358 18.7522 34.5447 18.6247 34.6836 18.535C34.8225 18.4453 34.9853 18.3974 35.1518 18.3972C35.2664 18.3994 35.3795 18.4239 35.4845 18.4691C35.5894 18.5143 35.6842 18.5793 35.7633 18.6605C35.8424 18.7416 35.9043 18.8373 35.9454 18.9419C35.9865 19.0466 36.006 19.1581 36.0028 19.2702Z" fill="#DA840D"/>
<path d="M46.5895 25.2576C46.6064 25.5429 46.5353 25.8265 46.3854 26.0719C46.2356 26.3173 46.0138 26.513 45.7488 26.6338C45.4839 26.7547 45.1879 26.795 44.8992 26.7496C44.6106 26.7042 44.3425 26.5752 44.1297 26.3792C43.9169 26.1832 43.7691 25.9294 43.7056 25.6505C43.642 25.3715 43.6656 25.0804 43.7732 24.8147C43.8808 24.549 44.0676 24.321 44.3093 24.1602C44.5509 23.9994 44.8365 23.9131 45.1288 23.9127C45.3151 23.9071 45.5007 23.9376 45.6749 24.0022C45.8492 24.0668 46.0087 24.1644 46.1443 24.2893C46.28 24.4142 46.3891 24.564 46.4655 24.7301C46.5419 24.8963 46.584 25.0755 46.5895 25.2576Z" fill="#DA840D"/>
<path d="M43.391 19.937C43.391 20.3086 42.9746 20.6036 42.4615 20.6036C41.9485 20.6036 41.5381 20.3086 41.5381 19.937C41.5381 19.5654 41.9545 19.2704 42.4615 19.2704C42.9685 19.2704 43.391 19.5713 43.391 19.937Z" fill="#DA840D"/>
<path d="M52.7213 23.0991C52.7433 23.2844 52.7072 23.4718 52.6178 23.6366C52.5283 23.8014 52.3898 23.9357 52.2204 24.0217C52.0511 24.1078 51.859 24.1415 51.6696 24.1185C51.4802 24.0954 51.3025 24.0166 51.1599 23.8926C51.0174 23.7686 50.9168 23.6051 50.8714 23.4239C50.8261 23.2427 50.8382 23.0524 50.906 22.878C50.9739 22.7037 51.0944 22.5536 51.2515 22.4477C51.4086 22.3418 51.5949 22.2851 51.7858 22.2851C52.0202 22.2722 52.2503 22.3506 52.4256 22.5032C52.601 22.6558 52.7073 22.8701 52.7213 23.0991Z" fill="#DA840D"/>
<path d="M53.0783 28.0128C53.0783 28.3903 52.6317 28.6971 52.0764 28.6971C51.5211 28.6971 51.0745 28.3903 51.0745 28.0128C51.0745 27.6353 51.5211 27.3286 52.0764 27.3286C52.6317 27.3286 53.0783 27.6353 53.0783 28.0128Z" fill="#DA840D"/>
<path d="M49.0829 20.6924C49.0723 20.8285 49.0214 20.9587 48.9363 21.0669C48.8512 21.1752 48.7357 21.2568 48.6039 21.3019C48.4721 21.347 48.3297 21.3535 48.1941 21.3208C48.0586 21.288 47.9357 21.2173 47.8407 21.1173C47.7456 21.0173 47.6824 20.8925 47.6588 20.7579C47.6352 20.6234 47.6522 20.4851 47.7078 20.3599C47.7634 20.2347 47.8552 20.128 47.9718 20.053C48.0885 19.9779 48.225 19.9378 48.3646 19.9374C48.4626 19.9404 48.5591 19.9624 48.6484 20.0021C48.7377 20.0418 48.818 20.0983 48.8848 20.1685C48.9516 20.2388 49.0035 20.3212 49.0375 20.4111C49.0715 20.501 49.0869 20.5967 49.0829 20.6924Z" fill="#DA840D"/>
<path d="M59.476 22.1312C59.476 22.5088 59.0414 22.8096 58.5042 22.8096C57.967 22.8096 57.5325 22.5088 57.5325 22.1312C57.5325 21.7537 57.967 21.447 58.5042 21.447C59.0414 21.447 59.476 21.7537 59.476 22.1312Z" fill="#DA840D"/>
<path d="M59.476 25.6652C59.476 25.8894 59.0414 26.0722 58.5042 26.0722C57.967 26.0722 57.5325 25.8894 57.5325 25.6652C57.5325 25.441 57.967 25.2582 58.5042 25.2582C59.0414 25.2582 59.476 25.441 59.476 25.6652Z" fill="#DA840D"/>
<path d="M66.0488 23.3642C66.0488 23.671 65.6505 23.9128 65.1676 23.9128C64.6847 23.9128 64.2864 23.671 64.2864 23.3642C64.2864 23.0575 64.6847 22.8098 65.1676 22.8098C65.6505 22.8098 66.0488 23.0575 66.0488 23.3642Z" fill="#DA840D"/>
<path d="M64.9985 27.3054C65.0424 27.4903 65.0263 27.6838 64.9525 27.8593C64.8788 28.0348 64.751 28.1835 64.5869 28.2848C64.4228 28.3862 64.2305 28.4351 64.0367 28.4249C63.8428 28.4147 63.6571 28.3458 63.5051 28.2277C63.3531 28.1097 63.2425 27.9484 63.1885 27.7661C63.1345 27.5839 63.1399 27.3898 63.2038 27.2107C63.2678 27.0315 63.3872 26.8763 63.5454 26.7664C63.7037 26.6566 63.893 26.5976 64.0871 26.5976C64.3035 26.5759 64.52 26.6378 64.6904 26.7701C64.8607 26.9023 64.9713 27.0945 64.9985 27.3054Z" fill="#DA840D"/>
<path d="M72.3135 26.1607C72.2759 26.335 72.1885 26.4955 72.0615 26.6233C71.9345 26.7512 71.773 26.8413 71.5958 26.8833C71.4186 26.9252 71.2328 26.9173 71.06 26.8603C70.8872 26.8034 70.7345 26.6998 70.6194 26.5616C70.5043 26.4233 70.4317 26.2561 70.4098 26.0791C70.3879 25.9022 70.4178 25.7228 70.4959 25.5618C70.574 25.4007 70.6971 25.2646 70.8511 25.1691C71.005 25.0736 71.1835 25.0227 71.3659 25.0222C71.6447 25.0534 71.8999 25.19 72.077 25.4028C72.2541 25.6155 72.3389 25.8875 72.3135 26.1607Z" fill="#DA840D"/>
<path d="M71.7823 21.0287C71.7823 21.2587 71.4805 21.4475 71.1002 21.4475C70.72 21.4475 70.4182 21.2587 70.4182 21.0287C70.4182 20.7986 70.72 20.604 71.1002 20.604C71.4805 20.604 71.7823 20.7927 71.7823 21.0287Z" fill="#DA840D"/>
<path d="M77.5829 22.2615C77.5829 23.1759 77.1664 23.9132 76.6534 23.9132C76.1404 23.9132 75.73 23.1759 75.73 22.2615C75.73 21.3472 76.1464 20.604 76.6534 20.604C77.1604 20.604 77.5829 21.3472 77.5829 22.2615Z" fill="#DA840D"/>
<path d="M79.9007 20.5863C79.8983 20.6721 79.8701 20.7553 79.8196 20.8256C79.7691 20.8958 79.6986 20.9499 79.6168 20.9811C79.535 21.0124 79.4456 21.0193 79.3597 21.0012C79.2739 20.983 79.1955 20.9406 79.1342 20.8791C79.0729 20.8176 79.0316 20.7398 79.0153 20.6555C78.999 20.5711 79.0085 20.484 79.0427 20.4049C79.0768 20.3258 79.134 20.2583 79.2072 20.2109C79.2804 20.1634 79.3662 20.1381 79.454 20.138C79.5135 20.1388 79.5722 20.151 79.6268 20.174C79.6815 20.1969 79.7309 20.2301 79.7724 20.2718C79.8139 20.3134 79.8465 20.3626 79.8686 20.4166C79.8906 20.4706 79.9015 20.5282 79.9007 20.5863Z" fill="#DA840D"/>
<path d="M64.6783 19.1699C64.6783 19.5946 64.117 19.9367 63.4229 19.9367C62.7288 19.9367 62.1675 19.5946 62.1675 19.1699C62.1675 18.7452 62.7288 18.3972 63.4289 18.3972C64.129 18.3972 64.6783 18.7452 64.6783 19.1699Z" fill="#DA840D"/>
<path d="M41.0428 15.1957C41.0428 15.4552 40.6022 15.6676 40.0589 15.6676C39.5157 15.6676 39.0691 15.4552 39.0691 15.1957C39.0691 14.9361 39.5097 14.7238 40.0589 14.7238C40.6082 14.7238 41.0428 14.9361 41.0428 15.1957Z" fill="#DA840D"/>
<path d="M46.813 14.2511C46.813 14.5107 46.312 14.7231 45.6903 14.7231C45.0687 14.7231 44.5737 14.5107 44.5737 14.2511C44.5737 13.9916 45.0747 13.7792 45.6903 13.7792C46.306 13.7792 46.813 13.9916 46.813 14.2511Z" fill="#DA840D"/>
<path d="M54.1044 15.4071C54.1044 15.7846 53.4284 16.0913 52.5894 16.0913C51.7505 16.0913 51.0745 15.7846 51.0745 15.4071C51.0745 15.0295 51.7505 14.7464 52.5894 14.7464C53.4284 14.7464 54.1044 15.0295 54.1044 15.4071Z" fill="#DA840D"/>
<path d="M59.4753 14.2501C59.4765 14.3448 59.4488 14.4378 59.3959 14.5171C59.3429 14.5965 59.2669 14.6586 59.1777 14.6957C59.0885 14.7328 58.99 14.7431 58.8948 14.7253C58.7996 14.7075 58.7119 14.6625 58.6429 14.5959C58.5739 14.5293 58.5268 14.4442 58.5074 14.3514C58.488 14.2585 58.4974 14.1622 58.5342 14.0745C58.571 13.9869 58.6337 13.9119 58.7142 13.8591C58.7947 13.8064 58.8895 13.7782 58.9864 13.7782C59.0503 13.7774 59.1138 13.789 59.173 13.8124C59.2323 13.8358 59.2863 13.8704 59.3317 13.9143C59.3772 13.9582 59.4133 14.0105 59.438 14.0681C59.4626 14.1258 59.4753 14.1876 59.4753 14.2501Z" fill="#DA840D"/>
<path d="M58.5039 17.979C58.5039 18.215 58.0452 18.3978 57.4718 18.3978C56.8984 18.3978 56.4397 18.215 56.4397 17.979C56.4397 17.743 56.9044 17.5602 57.4718 17.5602C58.0391 17.5602 58.5039 17.7489 58.5039 17.979Z" fill="#DA840D"/>
<path d="M66.5738 14.0379C66.5762 14.1749 66.5369 14.3095 66.4607 14.4245C66.3846 14.5396 66.2752 14.6298 66.1464 14.6839C66.0176 14.738 65.8752 14.7533 65.7375 14.728C65.5997 14.7027 65.4727 14.638 65.3728 14.5419C65.2728 14.4459 65.2043 14.323 65.1761 14.1888C65.1479 14.0546 65.1611 13.9152 65.2142 13.7884C65.2673 13.6616 65.3578 13.5531 65.4741 13.4767C65.5905 13.4004 65.7275 13.3596 65.8677 13.3596C65.9596 13.3588 66.0508 13.3757 66.1361 13.4094C66.2213 13.443 66.2989 13.4928 66.3645 13.5558C66.4301 13.6188 66.4823 13.6938 66.5182 13.7765C66.5541 13.8592 66.573 13.9481 66.5738 14.0379Z" fill="#DA840D"/>
<path d="M70.4186 16.8222C70.4186 16.9401 70.0564 17.0345 69.6158 17.0345C69.1752 17.0345 68.8191 16.9401 68.8191 16.8222C68.8191 16.7042 69.1752 16.6157 69.6158 16.6157C70.0564 16.6157 70.4186 16.7101 70.4186 16.8222Z" fill="#DA840D"/>
<path d="M72.9234 15.4313C72.9384 15.4932 72.9334 15.5581 72.909 15.617C72.8846 15.676 72.842 15.7261 72.7872 15.7604C72.7324 15.7947 72.668 15.8115 72.603 15.8084C72.538 15.8054 72.4756 15.7827 72.4244 15.7434C72.3731 15.7041 72.3357 15.6503 72.3172 15.5893C72.2987 15.5283 72.3 15.4632 72.321 15.403C72.342 15.3428 72.3816 15.2905 72.4344 15.2533C72.4872 15.2161 72.5505 15.1958 72.6156 15.1953C72.6881 15.1885 72.7605 15.2092 72.8178 15.2531C72.8751 15.297 72.9129 15.3608 72.9234 15.4313Z" fill="#DA840D"/>
<path d="M70.4182 16.8229C70.4271 16.9153 70.4162 17.0085 70.3861 17.0965C70.3561 17.1846 70.3075 17.2655 70.2436 17.3342C70.1797 17.4028 70.1018 17.4577 70.0149 17.4952C69.9281 17.5327 69.8341 17.5521 69.7392 17.5521C69.6442 17.5521 69.5503 17.5327 69.4634 17.4952C69.3766 17.4577 69.2987 17.4028 69.2347 17.3342C69.1708 17.2655 69.1223 17.1846 69.0922 17.0965C69.0621 17.0085 69.0512 16.9153 69.0601 16.8229C69.0512 16.7305 69.0621 16.6373 69.0922 16.5492C69.1223 16.4612 69.1708 16.3803 69.2347 16.3116C69.2987 16.243 69.3766 16.1881 69.4634 16.1506C69.5503 16.1131 69.6442 16.0937 69.7392 16.0937C69.8341 16.0937 69.9281 16.1131 70.0149 16.1506C70.1018 16.1881 70.1797 16.243 70.2436 16.3116C70.3075 16.3803 70.3561 16.4612 70.3861 16.5492C70.4162 16.6373 70.4271 16.7305 70.4182 16.8229Z" fill="#DA840D"/>
<path d="M74.2871 15.6436C74.2871 15.8914 73.9189 16.0919 73.4542 16.0919C72.9894 16.0919 72.6152 15.8914 72.6152 15.6436C72.6152 15.3959 72.9894 15.1953 73.4542 15.1953C73.9189 15.1953 74.2871 15.3959 74.2871 15.6436Z" fill="#DA840D"/>
<path d="M93.9335 15.5673C93.9335 20.2156 87.7771 24.6633 78.452 27.4239C71.624 29.3602 64.5451 30.3199 57.4357 30.2731C50.0299 30.2731 43.9459 28.3677 37.8016 27.9135C27.553 27.1349 20.8171 19.8321 20.8171 15.0423C20.8171 7.42098 37.5058 2.65472 57.4357 2.65472C77.3656 2.65472 93.9335 7.94598 93.9335 15.5673Z" fill="#E3AC8A"/>
<path d="M93.4752 14.5578C93.4752 22.1791 77.3116 28.3552 57.3757 28.3552C37.4398 28.3552 21.2822 22.1791 21.2822 14.5578C21.2822 6.93652 37.4217 0.760437 57.3757 0.760437C77.3297 0.760437 93.4752 6.93652 93.4752 14.5578Z" fill="#DA840D"/>
<path d="M83.6369 13.2539C83.6369 18.9049 71.644 23.4883 56.8565 23.4883C42.0691 23.4883 30.0762 18.9049 30.0762 13.2539C30.0762 7.60278 42.0631 3.01349 56.8565 3.01349C71.65 3.01349 83.6369 7.59688 83.6369 13.2539Z" fill="#F0A508"/>
<path d="M38.8279 17.0295C38.8279 17.6194 38.1459 18.1326 37.3069 18.1326C36.4679 18.1326 35.7859 17.6371 35.7859 17.0295C35.7859 16.422 36.4679 15.9265 37.3069 15.9265C38.1459 15.9265 38.8279 16.4161 38.8279 17.0295Z" fill="#DA840D"/>
<path d="M35.7853 12.3876C35.7782 12.5504 35.7223 12.7076 35.6246 12.8397C35.5269 12.9717 35.3916 13.0728 35.2356 13.1304C35.0796 13.1879 34.9098 13.1994 34.7471 13.1634C34.5845 13.1275 34.4363 13.0456 34.3208 12.928C34.2054 12.8104 34.1279 12.6622 34.0979 12.5019C34.0679 12.3416 34.0867 12.1762 34.1521 12.0263C34.2174 11.8764 34.3264 11.7485 34.4654 11.6586C34.6045 11.5687 34.7675 11.5207 34.9343 11.5205C35.0484 11.5228 35.161 11.5471 35.2655 11.5919C35.3701 11.6367 35.4646 11.7012 35.5436 11.7818C35.6226 11.8623 35.6847 11.9572 35.7261 12.0612C35.7676 12.1652 35.7877 12.2761 35.7853 12.3876Z" fill="#DA840D"/>
<path d="M46.3721 18.3684C46.3902 18.6539 46.3202 18.9381 46.1712 19.1841C46.0221 19.4302 45.8008 19.6269 45.536 19.7486C45.2712 19.8704 44.9751 19.9116 44.6861 19.8669C44.397 19.8222 44.1284 19.6937 43.915 19.4981C43.7015 19.3024 43.5532 19.0486 43.4891 18.7696C43.425 18.4905 43.4481 18.1991 43.5555 17.933C43.6629 17.667 43.8496 17.4386 44.0913 17.2775C44.3331 17.1164 44.6188 17.0299 44.9115 17.0294C45.2867 17.0183 45.6511 17.1529 45.9249 17.4039C46.1987 17.6549 46.3595 18.0018 46.3721 18.3684Z" fill="#DA840D"/>
<path d="M43.1738 13.0537C43.1738 13.4194 42.7573 13.7203 42.2443 13.7203C41.7312 13.7203 41.3208 13.4194 41.3208 13.0537C41.3208 12.688 41.7373 12.3871 42.2503 12.3871C42.7633 12.3871 43.1738 12.6821 43.1738 13.0537Z" fill="#DA840D"/>
<path d="M52.5107 16.2143C52.5315 16.3983 52.4946 16.5842 52.405 16.7473C52.3153 16.9104 52.1771 17.043 52.0087 17.1277C51.8402 17.2124 51.6494 17.2451 51.4615 17.2215C51.2737 17.1979 51.0975 17.1191 50.9565 16.9955C50.8154 16.872 50.716 16.7095 50.6715 16.5295C50.627 16.3496 50.6394 16.1607 50.7071 15.9878C50.7748 15.8149 50.8946 15.6661 51.0507 15.5612C51.2068 15.4563 51.3918 15.4002 51.5812 15.4003C51.8146 15.389 52.0431 15.4682 52.2172 15.6206C52.3912 15.773 52.4967 15.9864 52.5107 16.2143Z" fill="#DA840D"/>
<path d="M52.8608 21.1223C52.8608 21.4998 52.4141 21.8065 51.8589 21.8065C51.3036 21.8065 50.8569 21.4998 50.8569 21.1223C50.8569 20.7447 51.3036 20.4439 51.8589 20.4439C52.4141 20.4439 52.8608 20.7506 52.8608 21.1223Z" fill="#DA840D"/>
<path d="M48.8895 13.8029C48.8801 13.9393 48.8301 14.0701 48.7457 14.1792C48.6612 14.2882 48.546 14.3708 48.4143 14.4168C48.2825 14.4628 48.1398 14.4701 48.0038 14.4379C47.8678 14.4057 47.7444 14.3354 47.6487 14.2356C47.553 14.1358 47.4893 14.0109 47.4653 13.8762C47.4412 13.7415 47.458 13.6028 47.5135 13.4773C47.569 13.3517 47.6608 13.2448 47.7776 13.1695C47.8945 13.0943 48.0313 13.054 48.1712 13.0537C48.2687 13.0568 48.3647 13.0786 48.4535 13.1179C48.5424 13.1572 48.6225 13.2132 48.6892 13.2828C48.7559 13.3524 48.8079 13.4341 48.8423 13.5234C48.8767 13.6126 48.8927 13.7076 48.8895 13.8029Z" fill="#DA840D"/>
<path d="M59.2587 15.2419C59.2587 15.6194 58.8241 15.9261 58.287 15.9261C57.7498 15.9261 57.3394 15.6194 57.3394 15.2419C57.3394 14.8644 57.7739 14.5576 58.3111 14.5576C58.8483 14.5576 59.2587 14.8644 59.2587 15.2419Z" fill="#DA840D"/>
<path d="M59.2587 18.7749C59.2587 18.999 58.8241 19.1819 58.287 19.1819C57.7498 19.1819 57.3394 18.999 57.3394 18.7749C57.3394 18.5507 57.7739 18.3679 58.3111 18.3679C58.8483 18.3679 59.2587 18.5507 59.2587 18.7749Z" fill="#DA840D"/>
<path d="M65.8315 16.475C65.8315 16.7818 65.4332 17.0295 64.9503 17.0295C64.4674 17.0295 64.0691 16.7818 64.0691 16.475C64.0691 16.1683 64.4674 15.9265 64.9503 15.9265C65.4332 15.9265 65.8315 16.1742 65.8315 16.475Z" fill="#DA840D"/>
<path d="M64.7814 20.4148C64.7292 20.6106 64.612 20.784 64.4482 20.9078C64.2844 21.0316 64.0831 21.0987 63.8761 21.0987C63.669 21.0987 63.4677 21.0316 63.3039 20.9078C63.1401 20.784 63.0229 20.6106 62.9707 20.4148C63.0229 20.2189 63.1401 20.0455 63.3039 19.9217C63.4677 19.798 63.669 19.7308 63.8761 19.7308C64.0831 19.7308 64.2844 19.798 64.4482 19.9217C64.612 20.0455 64.7292 20.2189 64.7814 20.4148Z" fill="#DA840D"/>
<path d="M72.0964 19.2769C72.1238 19.4136 72.12 19.5546 72.0851 19.6897C72.0502 19.8249 71.9851 19.9508 71.8945 20.0584C71.8039 20.166 71.6901 20.2527 71.5611 20.3122C71.4322 20.3717 71.2913 20.4026 71.1488 20.4026C71.0062 20.4026 70.8653 20.3717 70.7364 20.3122C70.6074 20.2527 70.4936 20.166 70.403 20.0584C70.3124 19.9508 70.2473 19.8249 70.2124 19.6897C70.1775 19.5546 70.1737 19.4136 70.2011 19.2769C70.1688 19.1378 70.169 18.9934 70.2015 18.8544C70.2341 18.7154 70.2983 18.5854 70.3893 18.474C70.4803 18.3625 70.5959 18.2725 70.7273 18.2107C70.8588 18.1489 71.0028 18.1168 71.1488 18.1168C71.2947 18.1168 71.4387 18.1489 71.5702 18.2107C71.7016 18.2725 71.8172 18.3625 71.9082 18.474C71.9992 18.5854 72.0634 18.7154 72.096 18.8544C72.1285 18.9934 72.1287 19.1378 72.0964 19.2769Z" fill="#DA840D"/>
<path d="M71.565 14.1565C71.565 14.3865 71.2632 14.5753 70.883 14.5753C70.5027 14.5753 70.2009 14.3865 70.2009 14.1565C70.2009 13.9264 70.5027 13.7377 70.883 13.7377C71.2632 13.7377 71.565 13.9087 71.565 14.1565Z" fill="#DA840D"/>
<path d="M77.3651 15.3723C77.3651 16.2866 76.9487 17.0299 76.4357 17.0299C75.9226 17.0299 75.5122 16.2866 75.5122 15.3723C75.5122 14.458 75.9226 13.7206 76.4357 13.7206C76.9487 13.7206 77.3651 14.458 77.3651 15.3723Z" fill="#DA840D"/>
<path d="M79.6711 13.6972C79.6699 13.7832 79.6427 13.8671 79.5929 13.9381C79.5431 14.0091 79.4729 14.0641 79.3912 14.0962C79.3095 14.1284 79.2199 14.1362 79.1337 14.1187C79.0474 14.1012 78.9684 14.0591 78.9065 13.9979C78.8447 13.9366 78.8027 13.8588 78.786 13.7743C78.7692 13.6898 78.7784 13.6023 78.8124 13.5229C78.8464 13.4435 78.9036 13.3756 78.9769 13.3279C79.0502 13.2802 79.1364 13.2548 79.2244 13.2548C79.3434 13.2563 79.457 13.3036 79.5406 13.3864C79.6242 13.4692 79.6711 13.5809 79.6711 13.6972Z" fill="#DA840D"/>
<path d="M64.4612 12.2807C64.4612 12.7055 63.8999 13.0535 63.1998 13.0535C62.4996 13.0535 61.9443 12.7055 61.9443 12.2807C61.9443 11.856 62.5057 11.5139 63.1998 11.5139C63.8939 11.5139 64.4612 11.856 64.4612 12.2807Z" fill="#DA840D"/>
<path d="M40.8016 8.31124C40.8016 8.57079 40.3609 8.78315 39.8117 8.78315C39.2624 8.78315 38.8279 8.57079 38.8279 8.31124C38.8279 8.05169 39.2685 7.83344 39.8117 7.83344C40.3549 7.83344 40.8016 8.04579 40.8016 8.31124Z" fill="#DA840D"/>
<path d="M46.5956 7.36082C46.5956 7.62627 46.0946 7.83273 45.473 7.83273C44.8513 7.83273 44.3503 7.62627 44.3503 7.36082C44.3503 7.09538 44.8573 6.88892 45.473 6.88892C46.0886 6.88892 46.5956 7.07768 46.5956 7.36082Z" fill="#DA840D"/>
<path d="M53.8868 8.5177C53.8868 8.89522 53.2108 9.20196 52.3719 9.20196C51.5329 9.20196 50.8569 8.89522 50.8569 8.5177C50.8569 8.14017 51.5329 7.83344 52.3719 7.83344C53.2108 7.83344 53.8868 8.14017 53.8868 8.5177Z" fill="#DA840D"/>
<path d="M59.2583 7.36113C59.2595 7.45588 59.2318 7.54883 59.1788 7.62817C59.1258 7.70752 59.0499 7.76968 58.9607 7.80675C58.8715 7.84382 58.773 7.85413 58.6777 7.83636C58.5825 7.8186 58.4948 7.77356 58.4259 7.70698C58.3569 7.6404 58.3097 7.55528 58.2904 7.46244C58.271 7.36959 58.2803 7.27322 58.3171 7.18557C58.354 7.09792 58.4166 7.02295 58.4971 6.97018C58.5777 6.91741 58.6724 6.88923 58.7694 6.88923C58.8333 6.88845 58.8967 6.90008 58.956 6.92344C59.0153 6.94681 59.0692 6.98144 59.1147 7.02534C59.1602 7.06924 59.1963 7.12153 59.2209 7.17917C59.2456 7.23681 59.2583 7.29866 59.2583 7.36113Z" fill="#DA840D"/>
<path d="M58.2864 11.0946C58.2864 11.3247 57.8216 11.5134 57.2543 11.5134C56.6869 11.5134 56.2222 11.3247 56.2222 11.0946C56.2222 10.8646 56.6869 10.6699 57.2543 10.6699C57.8216 10.6699 58.2864 10.8587 58.2864 11.0946Z" fill="#DA840D"/>
<path d="M66.3507 7.15512C66.3543 7.29115 66.3164 7.42514 66.2417 7.53997C66.1669 7.6548 66.0589 7.74526 65.9313 7.79977C65.8037 7.85428 65.6624 7.87039 65.5254 7.84602C65.3885 7.82165 65.262 7.75791 65.1623 7.66296C65.0625 7.56801 64.994 7.44614 64.9655 7.31295C64.937 7.17976 64.9498 7.04128 65.0022 6.91521C65.0546 6.78914 65.1443 6.68121 65.2598 6.60521C65.3753 6.52922 65.5114 6.4886 65.6506 6.48855C65.8337 6.48697 66.0099 6.55613 66.1411 6.68097C66.2722 6.80581 66.3476 6.97623 66.3507 7.15512Z" fill="#DA840D"/>
<path d="M70.2007 9.9391C70.2007 10.0512 69.8386 10.1456 69.398 10.1456C68.9574 10.1456 68.5952 10.0512 68.5952 9.9391C68.5952 9.82703 68.9574 9.72675 69.398 9.72675C69.8386 9.72675 70.2007 9.82113 70.2007 9.9391Z" fill="#DA840D"/>
<path d="M72.7059 8.54661C72.7209 8.6085 72.7159 8.67343 72.6915 8.7324C72.6671 8.79137 72.6245 8.84146 72.5697 8.87575C72.5149 8.91004 72.4505 8.92682 72.3855 8.92377C72.3205 8.92073 72.258 8.898 72.2068 8.85874C72.1556 8.81949 72.1182 8.76564 72.0996 8.70466C72.0811 8.64368 72.0825 8.57858 72.1035 8.51837C72.1245 8.45817 72.1641 8.40584 72.2169 8.36862C72.2697 8.33141 72.333 8.31115 72.3981 8.31066C72.4706 8.30385 72.543 8.32456 72.6003 8.36848C72.6576 8.41241 72.6954 8.47618 72.7059 8.54661Z" fill="#DA840D"/>
<path d="M70.201 9.93926C70.187 10.0672 70.1355 10.1884 70.0525 10.2883C69.9696 10.3883 69.8589 10.4626 69.7337 10.5024C69.6085 10.5422 69.4742 10.5457 69.347 10.5125C69.2198 10.4793 69.1052 10.4109 69.0169 10.3155C68.9286 10.22 68.8705 10.1017 68.8495 9.97465C68.8286 9.84763 68.8456 9.7174 68.8987 9.59967C68.9518 9.48194 69.0386 9.38174 69.1487 9.31116C69.2587 9.24058 69.3873 9.20263 69.519 9.2019C69.6133 9.20644 69.7059 9.22912 69.7912 9.26865C69.8766 9.30818 69.9532 9.36379 70.0165 9.43228C70.0799 9.50078 70.1288 9.58081 70.1604 9.66781C70.1921 9.75481 70.2059 9.84705 70.201 9.93926Z" fill="#DA840D"/>
<path d="M74.0696 8.75305C74.0696 9.0008 73.6954 9.20136 73.2367 9.20136C72.778 9.20136 72.3977 9.0008 72.3977 8.75305C72.3977 8.5053 72.7719 8.31064 73.2367 8.31064C73.7014 8.31064 74.0696 8.5053 74.0696 8.75305Z" fill="#DA840D"/>
<path d="M62.8555 45.6155C62.7188 45.106 62.4005 44.6609 61.9579 44.3603C61.5153 44.0597 60.9775 43.9233 60.4412 43.9757C56.8198 44.2293 56.518 50.1576 57.7915 52.7472C58.1707 53.0338 58.6476 53.1678 59.1245 53.1217C59.6015 53.0756 60.0423 52.853 60.3567 52.4995C61.5156 51.2312 61.8838 49.3967 62.2942 47.7804C62.4954 47.0647 62.6825 46.3431 62.8555 45.6155Z" fill="#EEBE30"/>
<path d="M89.7387 14.8113C88.4795 14.3357 87.3182 13.6423 86.3105 12.7645C85.1061 11.6231 83.9961 10.3903 82.9908 9.07768C81.488 7.27264 79.303 6.56478 77.0095 6.29933C74.4564 5.99849 71.8188 6.55298 69.2476 6.4232C67.8687 6.38651 66.5173 6.03715 65.3002 5.40271C64.0931 4.73024 63.1455 3.63306 62.1134 2.68334C60.0914 0.913692 57.5263 0.913692 54.9732 0.512572C53.282 0.220809 51.5714 0.0492924 49.8549 -0.000627072C48.0985 -0.0419189 45.0263 -0.0655142 43.8494 1.56846C42.5457 2.15835 42.087 3.72744 41.7912 5.04878C41.6246 6.13905 41.36 7.21286 41.0005 8.25774C40.4643 9.44608 39.6347 10.4858 38.5863 11.2838C36.2867 13.1538 33.4438 14.1566 30.8425 15.4602C28.73 16.5161 26.1407 18.0144 25.0059 20.1321C24.3239 21.4003 24.4024 23.5711 25.6095 24.509C27.1003 25.6298 28.235 23.518 28.5549 22.4503C28.8507 21.4829 28.9593 20.4978 29.7621 19.7723C30.8435 18.8547 32.1289 18.1963 33.5163 17.8492C34.6812 17.5307 35.9305 17.5307 37.0773 17.1827C38.4539 16.6763 39.7487 15.979 40.9221 15.1122C42.2982 14.2156 43.6381 13.3425 45.2738 12.9532C46.6318 12.6465 48.7323 12.6937 49.8006 13.7083C50.3865 14.4019 50.8906 15.1577 51.3035 15.9616C51.854 16.7114 52.5833 17.3188 53.428 17.7313C55.1301 18.681 57.0796 19.0998 58.8601 19.961C59.4555 20.2635 59.9687 20.7003 60.357 21.2352C60.4174 21.3237 60.4717 21.4121 60.526 21.5065C60.5698 21.5733 60.6101 21.6422 60.6467 21.713C62.5902 25.2169 60.1457 28.9273 60.2121 32.6258C60.2121 34.6196 61.6909 37.8817 64.1897 36.2831C64.3587 36.1769 64.5156 36.059 64.6725 35.941C64.9562 33.3573 65.1855 30.7087 66.103 28.2725C66.9661 26.0073 68.143 23.9132 68.0163 21.418C67.9439 20.0436 67.2739 18.7813 67.1109 17.4245C66.8816 15.5369 68.6199 14.6816 70.1831 14.3099C72.4135 13.7299 74.7777 13.8875 76.9069 14.7583C80.9146 16.3686 84.1497 19.6897 88.604 20.2383C90.3665 20.4565 92.9196 20.1852 93.6197 18.3035C94.3198 16.4217 90.9942 15.3363 89.7387 14.8113Z" fill="#EEBE30"/>
<path opacity="0.5" d="M65.2155 17.2719C65.0327 16.636 64.6951 16.0528 64.2315 15.5721C63.768 15.0913 63.1924 14.7274 62.5538 14.5112C61.6363 14.2753 60.1878 14.871 60.3024 15.9564C60.3041 15.9782 60.3103 15.9993 60.3207 16.0186C60.3311 16.0379 60.3454 16.0549 60.3628 16.0685C59.7592 17.325 61.5096 19.4898 62.1132 20.41C62.5552 20.9992 62.8339 21.6901 62.9219 22.4157C63.0246 23.3536 62.7167 24.2797 62.8073 25.2058C62.8435 25.6187 63.1634 27.3825 64.0144 26.6746C64.9862 25.8724 65.0888 24.0555 65.288 22.9112C65.6895 21.0492 65.6647 19.1234 65.2155 17.2719Z" fill="white"/>
<path opacity="0.5" d="M82.7673 11.1655C81.7804 9.56549 80.2071 8.39277 78.3672 7.88579C76.5082 7.36079 72.0479 6.7945 71.5771 9.45488C71.5732 9.50859 71.5869 9.56212 71.6162 9.60772C71.6455 9.65332 71.6888 9.68863 71.74 9.70853C71.8591 9.79336 71.9648 9.89471 72.0539 10.0094C72.0792 10.0575 72.1193 10.0967 72.1686 10.1214C72.2173 10.1386 72.2707 10.1386 72.3195 10.1214C72.6641 10.4301 73.0773 10.6562 73.5266 10.7821C74.6331 11.0216 75.7614 11.152 76.8945 11.1714C78.4638 11.3189 79.339 11.9796 80.4314 13.006C81.035 13.5959 82.6888 14.8346 83.5398 13.8967C84.1917 13.236 83.1234 11.7082 82.7673 11.1655Z" fill="white"/>
<path opacity="0.5" d="M29.1286 18.5754C28.864 18.5431 28.5964 18.5431 28.3318 18.5754C28.3329 18.5638 28.3313 18.5521 28.327 18.5412C28.3227 18.5302 28.316 18.5204 28.3072 18.5125C28.2985 18.5045 28.288 18.4986 28.2766 18.4952C28.2652 18.4918 28.2531 18.491 28.2413 18.4928C27.8002 18.5615 27.3814 18.7294 27.0179 18.9833C26.6545 19.2372 26.3563 19.5701 26.1469 19.9557C26.0021 20.2507 25.7184 21.2829 26.3401 21.336C26.9618 21.3891 27.4506 20.7462 27.8007 20.4099C28.3081 19.8981 28.7876 19.3606 29.2372 18.7996C29.2505 18.7786 29.2583 18.7547 29.2597 18.7301C29.2612 18.7054 29.2563 18.6808 29.2455 18.6585C29.2346 18.6362 29.2183 18.6169 29.1979 18.6024C29.1774 18.5879 29.1536 18.5786 29.1286 18.5754Z" fill="white"/>
<path opacity="0.5" d="M101.931 52.5876C101.396 52.4764 100.844 52.4712 100.307 52.5723C99.7696 52.6735 99.2589 52.8789 98.8047 53.1765C98.3505 53.4741 97.962 53.8578 97.6623 54.3048C97.3626 54.7518 97.1577 55.2531 97.0599 55.7789C97.0563 55.7978 97.057 55.8172 97.0621 55.8358C97.0671 55.8544 97.0763 55.8716 97.0891 55.8863C97.1018 55.901 97.1176 55.9127 97.1356 55.9207C97.1535 55.9286 97.173 55.9326 97.1926 55.9322C97.1955 55.9715 97.1955 56.0109 97.1926 56.0502C96.9814 56.9704 95.8648 57.3952 95.1586 57.7845C94.6335 58.0676 94.0903 58.3213 93.5471 58.5808C91.7364 59.4774 88.8875 60.6336 88.3262 63.0108C88.3172 63.0367 88.3164 63.0646 88.324 63.0909C88.3315 63.1173 88.347 63.1407 88.3684 63.1583C89.4549 63.8898 90.7043 62.7985 91.5553 62.1142C93.2727 60.7842 95.2868 59.8687 97.4341 59.442C99.8121 58.9347 104.248 59.0881 105.105 55.9027C105.625 53.9266 103.325 52.8295 101.931 52.5876Z" fill="white"/>
<path d="M63.0306 6.83592C62.8194 6.54688 62.2822 5.9275 61.92 5.88621C61.7148 5.88621 61.6364 5.48509 61.4432 5.54408C61.2501 5.60307 60.9543 5.75054 60.6887 5.54408C60.5996 5.46299 60.5049 5.38809 60.4051 5.31992C60.3496 5.28189 60.2862 5.25635 60.2194 5.24513C60.1526 5.23391 60.0841 5.23729 60.0188 5.25503C59.8498 5.31992 59.7834 5.56767 59.5782 5.4084C59.373 5.24914 58.8841 5.49099 58.7634 5.72694C58.7227 5.79166 58.6902 5.86099 58.6668 5.9334C57.9485 6.03368 57.2242 7.11317 56.9526 7.61457C56.6987 8.09709 56.5801 8.63671 56.6087 9.17858C56.6373 9.72045 56.8122 10.2453 57.1156 10.6997C57.7735 11.7968 59.1134 11.9443 60.2964 11.9797C60.7626 12.0325 61.2348 11.9924 61.6846 11.8617C62.1007 11.6834 62.461 11.4005 62.7288 11.0418C63.9239 9.60248 64.1532 8.35192 63.0306 6.83592Z" fill="#48264C"/>
<path d="M63.0308 6.83651C62.8248 6.55272 62.5813 6.29685 62.3065 6.07556C62.3317 7.05031 62.0096 8.00333 61.3952 8.77161C60.7809 9.53988 59.9125 10.0757 58.9386 10.2873C58.2518 10.4349 57.5381 10.4126 56.8623 10.2224C56.9346 10.3933 57.0193 10.5589 57.1158 10.7179C57.7737 11.8151 59.1136 11.9626 60.2966 11.998C60.7628 12.0508 61.235 12.0107 61.6848 11.88C62.1009 11.7017 62.4612 11.4187 62.729 11.0601C63.9241 9.60306 64.1534 8.35251 63.0308 6.83651Z" fill="#300D33"/>
<path d="M64.0929 65.5525C63.8989 65.0655 63.586 64.6322 63.1816 64.2902C63.1152 63.9245 63.0307 63.5646 62.9522 63.1989C62.9459 63.1632 62.9315 63.1293 62.9101 63.0997C62.8886 63.0702 62.8606 63.0457 62.8281 63.0281C62.7957 63.0106 62.7596 63.0004 62.7226 62.9983C62.6855 62.9962 62.6485 63.0023 62.6142 63.016C62.071 63.2638 61.9503 62.9453 61.5761 62.6562C61.5162 62.6202 61.4472 62.6012 61.3769 62.6012C61.3066 62.6012 61.2376 62.6202 61.1777 62.6562C60.5741 63.0573 59.9344 62.1076 59.4636 62.6562C59.1882 63.0697 58.8837 63.4639 58.5522 63.836C58.1603 64.0781 57.7997 64.3652 57.4778 64.6913C57.2465 64.8923 57.0436 65.1224 56.8743 65.3756C56.806 65.4824 56.7436 65.5927 56.6872 65.7059C56.6389 65.8121 56.5966 65.9242 56.5604 66.0303C56.5578 66.042 56.5578 66.0541 56.5604 66.0657C56.3161 66.8365 56.3309 67.6634 56.6027 68.4253C57.0614 69.7879 58.5099 70.2716 59.8076 70.5842C60.3096 70.753 60.8413 70.8212 61.3708 70.7848C61.8774 70.6832 62.3478 70.4534 62.7349 70.1182C64.4008 68.8205 64.956 67.4933 64.0929 65.5525Z" fill="#48264C"/>
<path d="M64.0931 65.5526C63.9388 65.1916 63.7358 64.8523 63.4895 64.5439C63.2765 65.6279 62.6842 66.6057 61.8143 67.3096C60.9443 68.0135 59.8508 68.3996 58.7214 68.4017C57.9223 68.4033 57.1358 68.2085 56.4338 67.8354C56.472 68.0354 56.5245 68.2325 56.5908 68.4253C57.0495 69.788 58.498 70.2717 59.7957 70.5843C60.2977 70.7531 60.8294 70.8213 61.3589 70.7849C61.8655 70.6833 62.3359 70.4534 62.723 70.1183C64.4009 68.8205 64.9562 67.4933 64.0931 65.5526Z" fill="#300D33"/>
<path d="M53.1803 5.80969C52.9932 5.44986 52.5104 4.66531 52.112 4.55324C51.9068 4.50015 51.9068 4.12852 51.7076 4.09313C51.6473 3.56223 51.3998 3.00774 50.7661 3.11982C50.6212 3.11982 50.2349 3.51504 50.084 3.29088C50.01 3.15845 49.8902 3.05602 49.746 3.00184C49.4503 2.88976 49.1908 3.14341 49.0218 3.33808C48.7381 3.66251 48.3759 3.18471 48.0078 3.33808C47.8315 3.43974 47.6879 3.58749 47.593 3.76467C47.4981 3.94185 47.4557 4.14142 47.4706 4.34088C47.4706 4.37627 47.4706 4.39987 47.4706 4.43526C47.0151 4.7729 46.6089 5.16983 46.2635 5.61503C45.8898 6.10627 45.6561 6.68554 45.5862 7.2938C45.5162 7.90206 45.6124 8.51758 45.8651 9.07765C46.3962 10.4167 47.8689 10.8473 49.1787 11.0774C49.6729 11.2133 50.1888 11.2574 50.6997 11.2071C51.1975 11.0789 51.6529 10.8269 52.0215 10.4757C53.6572 9.05405 54.14 7.70322 53.1803 5.80969Z" fill="#48264C"/>
<path d="M53.1805 5.8091C52.9992 5.457 52.7742 5.12811 52.5105 4.8299C52.3596 5.92821 51.8224 6.94096 50.9909 7.69439C50.1594 8.44783 49.0855 8.89496 47.9536 8.95908C47.1589 8.99929 46.3664 8.8452 45.6479 8.51077C45.6959 8.71149 45.7584 8.90862 45.8351 9.10065C46.3662 10.4397 47.8389 10.8703 49.1486 11.1004C49.654 11.2322 50.1806 11.2682 50.6998 11.2065C51.1976 11.0783 51.653 10.8263 52.0216 10.4751C53.6573 9.05346 54.1401 7.70263 53.1805 5.8091Z" fill="#300D33"/>
<path d="M76.6529 10.5761C76.4658 10.1218 75.9527 9.12494 75.494 8.95977C75.2345 8.87129 75.2466 8.3345 74.981 8.36989C74.6188 8.40528 74.2748 8.49966 73.9911 8.16343C73.9013 8.02937 73.8025 7.90128 73.6954 7.78C73.6367 7.71107 73.5627 7.65611 73.4791 7.61932C73.3954 7.58252 73.3042 7.56485 73.2125 7.56765C72.9711 7.60894 72.8081 7.92748 72.609 7.64433C72.3253 7.26681 71.6795 7.54995 71.4501 7.83309C71.3792 7.90915 71.3165 7.99218 71.263 8.08085C70.2973 8.00416 69.0238 9.26061 68.5228 9.8505C68.0451 10.4353 67.7279 11.1296 67.6012 11.8676C67.4744 12.6056 67.5424 13.363 67.7985 14.0682C68.3176 15.7493 70.0257 16.3569 71.5467 16.7639C72.1266 16.9667 72.7425 17.053 73.3574 17.0176C73.9593 16.8985 74.5164 16.6211 74.9689 16.2153C76.9969 14.5873 77.6729 12.9769 76.6529 10.5761Z" fill="#48264C"/>
<path d="M76.6532 10.5763C76.4706 10.1337 76.2313 9.71545 75.941 9.3317C75.7056 10.6357 75.0105 11.8181 73.9764 12.6736C72.9423 13.5291 71.6343 14.0038 70.2795 14.0154C69.3406 14.0092 68.4194 13.7653 67.6057 13.3075C67.6461 13.557 67.7046 13.8034 67.7807 14.0449C68.2998 15.726 70.0079 16.3336 71.5289 16.7406C72.1089 16.9434 72.7247 17.0297 73.3396 16.9943C73.9415 16.8752 74.4987 16.5978 74.9511 16.192C76.9972 14.5876 77.6732 12.9772 76.6532 10.5763Z" fill="#300D33"/>
<path d="M75.7661 60.5091C75.5307 59.9841 74.909 58.8398 74.3598 58.6569C74.0459 58.5566 74.0459 57.9313 73.7562 57.9667C73.3277 58.0139 72.9172 58.126 72.5491 57.7426C72.4403 57.5861 72.3192 57.4382 72.1869 57.3002C72.111 57.219 72.0172 57.1557 71.9127 57.1148C71.8082 57.074 71.6956 57.0567 71.5834 57.0642C71.2937 57.1114 71.1005 57.4771 70.841 57.1586C70.4909 56.7221 69.7244 57.0583 69.4467 57.3828C69.3637 57.4746 69.289 57.5733 69.2234 57.6777C68.0646 57.5951 66.5496 59.0698 65.9521 59.7305C65.388 60.3999 65.015 61.2031 64.8708 62.0588C64.7267 62.9144 64.8165 63.7921 65.1312 64.6029C65.777 66.5378 67.8352 67.2161 69.664 67.6644C70.3776 67.9025 71.1332 67.9968 71.8851 67.9417C72.6006 67.8011 73.265 67.4775 73.8105 67.0038C76.2007 65.1279 76.9853 63.2521 75.7661 60.5091Z" fill="#48264C"/>
<path d="M75.7664 60.5098C75.5428 59.9965 75.2505 59.5145 74.8972 59.0764C74.594 60.6103 73.7556 61.994 72.525 62.9912C71.2944 63.9884 69.7479 64.5374 68.1493 64.5446C67.0238 64.5462 65.9158 64.2725 64.9263 63.7482C64.9743 64.0387 65.047 64.3248 65.1436 64.6036C65.7894 66.5384 67.8475 67.2168 69.6764 67.6651C70.39 67.9031 71.1456 67.9974 71.8975 67.9423C72.6129 67.8017 73.2773 67.4781 73.8229 67.0044C76.2009 65.1286 76.9856 63.2527 75.7664 60.5098Z" fill="#300D33"/>
<path d="M48.473 56.2626C48.473 56.2626 50.0845 55.6728 51.0201 57.755C51.9556 59.8373 52.2936 61.8842 53.2291 62.8575C53.4863 63.0761 53.689 63.3491 53.8218 63.6557C53.9546 63.9624 54.0141 64.2947 53.9957 64.6272C53.9957 64.6272 51.3581 63.2174 50.6821 62.4682C49.679 61.4505 48.8203 60.3057 48.129 59.0646C47.3685 57.5663 46.8313 56.1624 46.8313 56.1624L48.473 56.2626Z" fill="#5F825C"/>
<path d="M47.8393 55.8963C47.8393 55.8963 48.2437 54.2623 46.0286 53.5957C43.8135 52.9292 41.6829 52.8289 40.5965 52.0325C40.3422 51.8058 40.0378 51.6394 39.707 51.5463C39.3762 51.4532 39.028 51.4359 38.6892 51.4957C38.6892 51.4957 40.4215 53.8966 41.2604 54.4452C42.4118 55.2989 43.6743 55.9991 45.0146 56.5275C46.6201 57.1173 48.1109 57.4595 48.1109 57.4595L47.8393 55.8963Z" fill="#5F825C"/>
<path d="M47.5255 56.6939C47.5255 56.6939 50.5011 58.7702 50.4166 61.5958C50.3321 64.4213 50.3321 65.8311 48.6059 67.4061C46.8797 68.9811 43.5963 69.0696 41.8942 69.8129C40.1921 70.5561 38.1581 71.2286 37.6692 71.6415C37.1803 72.0544 36.1422 72.4732 34.6151 71.6415C33.0881 70.8098 32.2009 70.8982 32.4906 68.5682C32.9237 65.5697 33.6638 62.6212 34.6996 59.7671C35.5446 57.6082 36.2931 55.9447 38.6832 55.284C40.9744 54.7085 43.3956 54.8825 45.576 55.7795C47.0789 56.5287 47.5255 56.6939 47.5255 56.6939Z" fill="#ED6366"/>
<path d="M32.8462 66.3208C34.1969 66.8168 35.6282 67.0706 37.0711 67.07C42.9861 67.07 47.7784 63.0057 47.7784 57.9976C47.78 57.5848 47.7477 57.1725 47.6819 56.7647C48.3217 57.2661 50.4643 59.1242 50.3919 61.531C50.3074 64.3506 50.3074 65.7664 48.5812 67.3413C46.855 68.9163 43.5716 69.0048 41.8695 69.7481C40.1674 70.4913 38.1334 71.1638 37.6445 71.5767C37.1556 71.9896 36.1175 72.4085 34.5905 71.5767C33.0634 70.745 32.1762 70.8276 32.4659 68.5034C32.5564 67.8899 32.6832 67.1408 32.8462 66.3208Z" fill="#C73A54"/>
<path d="M48.8466 62.8868C49.251 62.9399 49.3476 62.2615 49.3778 61.766C49.4085 61.642 49.4085 61.5125 49.3778 61.3885V61.3472C49.3778 61.3 49.3114 61.2882 49.3054 61.3472C49.2917 61.3483 49.2785 61.3526 49.2669 61.3598C49.2554 61.367 49.2458 61.3769 49.239 61.3885C49.1665 61.5478 48.2853 62.8161 48.8466 62.8868Z" fill="#E7D8C8"/>
<path d="M48.0018 60.327C48.0074 60.3344 48.0147 60.3403 48.0231 60.3444C48.0315 60.3485 48.0407 60.3506 48.0501 60.3506C48.0595 60.3506 48.0687 60.3485 48.0771 60.3444C48.0855 60.3403 48.0928 60.3344 48.0984 60.327C48.2169 60.2326 48.3129 60.1139 48.3796 59.9794C48.4463 59.8449 48.4822 59.6978 48.4847 59.5484C48.5171 59.4674 48.5355 59.3816 48.539 59.2947C48.5402 59.2823 48.538 59.2698 48.5327 59.2585C48.5273 59.2472 48.519 59.2375 48.5086 59.2303C48.4982 59.2231 48.4861 59.2188 48.4734 59.2176C48.4607 59.2165 48.4479 59.2187 48.4364 59.2239C48.4364 59.2239 48.364 59.2239 48.37 59.2239C48.1971 59.3461 48.0683 59.5187 48.0021 59.7169C47.9359 59.9151 47.9358 60.1288 48.0018 60.327Z" fill="#E7D8C8"/>
<path d="M46.2577 58.9867C46.6078 59.2581 46.7708 58.6387 46.8613 58.2317C46.913 58.1086 46.9494 57.9799 46.9699 57.8483C46.9714 57.8334 46.9679 57.8184 46.9601 57.8055C46.9523 57.7926 46.9405 57.7825 46.9264 57.7766C46.9123 57.7707 46.8966 57.7693 46.8817 57.7727C46.8667 57.776 46.8533 57.7839 46.8432 57.7952C46.6742 57.9899 45.9137 58.739 46.2577 58.9867Z" fill="#E7D8C8"/>
<path d="M46.0344 61.6185C46.0395 61.6247 46.0459 61.6297 46.0533 61.6331C46.0606 61.6365 46.0686 61.6383 46.0767 61.6383C46.0848 61.6383 46.0928 61.6365 46.1001 61.6331C46.1074 61.6297 46.1138 61.6247 46.1189 61.6185C46.2342 61.5089 46.3355 61.3862 46.4207 61.2528C46.6307 61.0226 46.7616 60.7338 46.7949 60.427C46.7949 60.3798 46.7466 60.3208 46.6923 60.3444L46.5836 60.4152C46.1974 60.6924 45.7387 61.2292 46.0344 61.6185Z" fill="#E7D8C8"/>
<path d="M46.6375 64.2562C46.8608 64.3919 46.9936 64.0793 47.066 63.7548C47.1647 63.5892 47.2226 63.4034 47.235 63.2121C47.2362 63.1997 47.234 63.1873 47.2287 63.1759C47.2234 63.1646 47.2151 63.1549 47.2047 63.1477C47.1943 63.1405 47.1821 63.1362 47.1694 63.1351C47.1567 63.1339 47.144 63.1361 47.1324 63.1413H47.06C47.06 63.1413 47.06 63.1413 47.06 63.1826C46.9012 63.342 46.7761 63.5304 46.6918 63.7371C46.6315 63.8728 46.4745 64.1677 46.6375 64.2562Z" fill="#E7D8C8"/>
<path d="M47.7785 65.7178C48.02 65.8712 48.2735 65.6529 48.3821 65.4406C48.4418 65.2959 48.4863 65.1457 48.5149 64.9923C48.5868 64.8736 48.6302 64.7405 48.6416 64.603C48.6561 64.5877 48.6641 64.5677 48.6641 64.5469C48.6641 64.5262 48.6561 64.5062 48.6416 64.4909V64.4496C48.6416 64.4024 48.5632 64.3552 48.5149 64.3965C48.3157 64.5381 47.4104 65.476 47.7785 65.7178Z" fill="#E7D8C8"/>
<path d="M45.4371 66.5317C45.6424 66.809 45.8415 66.5317 45.9804 66.2603C46.0655 66.1865 46.1332 66.0955 46.1791 65.9937C46.2249 65.8919 46.2477 65.7816 46.2459 65.6704C46.2457 65.66 46.2429 65.6498 46.2378 65.6406C46.2326 65.6315 46.2253 65.6237 46.2164 65.6179C46.2075 65.6121 46.1973 65.6085 46.1867 65.6074C46.1761 65.6062 46.1654 65.6076 46.1554 65.6114C45.8717 65.7176 45.1836 66.1896 45.4371 66.5317Z" fill="#E7D8C8"/>
<path d="M44.3012 63.1168C44.4762 62.9099 44.6793 62.7273 44.9048 62.5741C44.9171 62.5645 44.932 62.5587 44.9477 62.5575C44.9634 62.5563 44.9791 62.5597 44.9928 62.5674C45.0065 62.575 45.0175 62.5865 45.0244 62.6003C45.0313 62.6141 45.0338 62.6297 45.0315 62.6449C45.0252 62.7327 45.0027 62.8186 44.9651 62.8986V62.987C44.9345 63.2336 44.8294 63.4656 44.6633 63.6536C44.5366 63.7952 44.2409 63.866 44.1201 63.6536C43.9994 63.4413 44.1926 63.2171 44.3012 63.1168Z" fill="#E7D8C8"/>
<path d="M43.9641 61.0352C44.0124 61.2181 44.2538 61.2004 44.3745 61.106C44.4552 61.0346 44.5208 60.9485 44.5676 60.8524C44.6798 60.718 44.7472 60.5534 44.7608 60.3805C44.7613 60.3673 44.7587 60.3542 44.753 60.3423C44.7474 60.3304 44.7388 60.3199 44.7282 60.3118C44.7176 60.3037 44.7051 60.2983 44.6919 60.2958C44.6787 60.2934 44.665 60.2941 44.6521 60.2979C44.4804 60.3639 44.3273 60.4691 44.2055 60.6046C44.0969 60.7049 43.9158 60.8701 43.9641 61.0352Z" fill="#E7D8C8"/>
<path d="M45.0021 56.6289C45.0221 56.6229 45.0437 56.6244 45.0627 56.6332C45.0816 56.6419 45.0966 56.6572 45.1047 56.6761C45.1501 56.852 45.1424 57.037 45.0824 57.2087C45.0224 57.3805 44.9127 57.5315 44.7667 57.6435C44.7553 57.6516 44.7422 57.6571 44.7283 57.6594C44.7144 57.6617 44.7001 57.6609 44.6867 57.6569C44.6732 57.6528 44.6608 57.6458 44.6506 57.6363C44.6404 57.6268 44.6326 57.6152 44.6278 57.6022C44.6094 57.5609 44.5972 57.5172 44.5916 57.4724C44.5365 57.3072 44.5483 57.1276 44.6246 56.9706C44.701 56.8137 44.8361 56.6913 45.0021 56.6289Z" fill="#E7D8C8"/>
<path d="M42.9194 59.8726C43.1004 60.02 43.2513 59.8726 43.36 59.6366C43.4979 59.5023 43.5994 59.3365 43.6552 59.1542C43.7111 58.9719 43.7196 58.7788 43.6798 58.5925C43.6717 58.576 43.6587 58.5622 43.6427 58.5528C43.6266 58.5434 43.608 58.5387 43.5893 58.5394C43.3177 58.5748 43.0884 58.9465 42.9857 59.1293C42.8831 59.3122 42.69 59.6956 42.9194 59.8726Z" fill="#E7D8C8"/>
<path d="M42.8534 56.4856C42.8885 56.4435 42.9268 56.404 42.9681 56.3676C42.9817 56.3584 42.9975 56.3527 43.0139 56.3512C43.0304 56.3496 43.047 56.3522 43.0622 56.3587C43.0773 56.3652 43.0905 56.3754 43.1004 56.3884C43.1104 56.4013 43.1168 56.4165 43.119 56.4325C43.136 56.5689 43.1209 56.7073 43.0749 56.8371C43.0289 56.967 42.9531 57.0848 42.8534 57.1817C42.8545 57.1974 42.8545 57.2132 42.8534 57.2289C42.835 57.2651 42.8074 57.2961 42.7733 57.3189C42.7391 57.3417 42.6996 57.3555 42.6584 57.3591C42.6172 57.3626 42.5757 57.3558 42.538 57.3392C42.5003 57.3226 42.4676 57.2968 42.443 57.2643C42.1834 57.0047 42.5516 56.6272 42.8534 56.4856Z" fill="#E7D8C8"/>
<path d="M40.8011 58.6458C40.9217 58.4012 41.1125 58.1962 41.3503 58.0559C41.3641 58.0461 41.3805 58.0406 41.3975 58.04C41.4145 58.0395 41.4312 58.044 41.4456 58.0529C41.4599 58.0618 41.4712 58.0747 41.4779 58.09C41.4846 58.1053 41.4864 58.1222 41.4831 58.1385C41.4757 58.2482 41.4492 58.356 41.4047 58.457C41.4047 58.4924 41.4047 58.5278 41.4047 58.5573C41.3916 58.6878 41.3633 58.8165 41.3202 58.9407C41.2814 59.0609 41.1972 59.1622 41.0848 59.2239C41.0764 59.2386 41.0642 59.2509 41.0493 59.2595C41.0345 59.268 41.0175 59.2726 41.0003 59.2726C40.983 59.2726 40.9661 59.268 40.9512 59.2595C40.9364 59.2509 40.9241 59.2386 40.9158 59.2239C40.6804 59.1 40.7528 58.7932 40.8011 58.6458Z" fill="#E7D8C8"/>
<path d="M40.3722 57.2182C40.382 57.2246 40.3936 57.228 40.4054 57.228C40.4172 57.228 40.4287 57.2246 40.4386 57.2182C40.5191 57.1432 40.5937 57.0623 40.6619 56.9764C40.8143 56.8519 40.943 56.7021 41.0422 56.534C41.0834 56.4602 41.1003 56.3757 41.0904 56.2921V56.2508C41.0904 56.2096 41.0904 56.1801 41.0301 56.1978C41.0076 56.1711 40.9789 56.1501 40.9462 56.1368C40.9136 56.1234 40.8782 56.118 40.843 56.1211C40.4386 56.127 40.0161 56.9292 40.3722 57.2182Z" fill="#E7D8C8"/>
<path d="M37.9345 57.9561C38.0552 58.1803 38.3389 57.9561 38.4415 57.8323C38.6059 57.6465 38.72 57.4234 38.7734 57.1834C38.8156 57.103 38.8383 57.0142 38.8398 56.9238C38.8417 56.9108 38.8405 56.8974 38.8364 56.8849C38.8323 56.8723 38.8253 56.8608 38.8161 56.8511C38.8068 56.8415 38.7955 56.8341 38.7829 56.8293C38.7703 56.8245 38.7567 56.8226 38.7433 56.8236C38.6023 56.8431 38.4684 56.8964 38.3536 56.9787C38.2388 57.0611 38.1467 57.1699 38.0854 57.2955C37.9827 57.4665 37.8258 57.7556 37.9345 57.9561Z" fill="#E7D8C8"/>
<path d="M38.5318 60.3273C38.6042 60.5102 38.7973 60.4217 38.8698 60.3273C38.9422 60.2329 38.9362 60.2034 38.9663 60.1445C39.0858 60.0168 39.1705 59.8618 39.2127 59.6938C39.2549 59.5258 39.2532 59.3501 39.2078 59.1829C39.2036 59.1717 39.1968 59.1615 39.1879 59.1533C39.179 59.1451 39.1683 59.139 39.1565 59.1356C39.1448 59.1321 39.1324 59.1314 39.1203 59.1335C39.1083 59.1356 39.0969 59.1404 39.087 59.1475C38.9179 59.2975 38.7858 59.4831 38.7008 59.6902C38.6283 59.8436 38.4473 60.115 38.5318 60.3273Z" fill="#E7D8C8"/>
<path d="M40.9883 61.3475C41.0528 61.051 41.2215 60.786 41.4651 60.5983C41.4758 60.5871 41.4894 60.5791 41.5045 60.575C41.5196 60.571 41.5355 60.5711 41.5506 60.5754C41.5656 60.5797 41.5791 60.5879 41.5896 60.5993C41.6001 60.6106 41.6071 60.6246 41.61 60.6396C41.6201 60.7495 41.6057 60.8602 41.5677 60.9641C41.5527 61.0944 41.5014 61.2183 41.4195 61.3223C41.3376 61.4263 41.2281 61.5064 41.103 61.554H41.0426C41.0279 61.5559 41.0129 61.5545 40.9988 61.5498C40.9847 61.5452 40.9719 61.5374 40.9614 61.5272C40.9509 61.5169 40.9429 61.5044 40.9382 61.4906C40.9334 61.4768 40.932 61.4622 40.934 61.4478L40.9883 61.3475Z" fill="#E7D8C8"/>
<path d="M42.7509 62.0431C42.7635 62.0351 42.7779 62.0302 42.7928 62.029C42.8078 62.0278 42.8228 62.0302 42.8366 62.036C42.8504 62.0419 42.8624 62.051 42.8717 62.0625C42.881 62.0741 42.8872 62.0877 42.8897 62.1021C42.8897 62.1021 42.8897 62.1021 42.8897 62.1434C42.8897 62.4738 42.6543 63.0047 42.2862 63.0341C42.2762 63.0358 42.266 63.0354 42.2561 63.033C42.2463 63.0306 42.2371 63.0262 42.2292 63.02C42.2212 63.0139 42.2146 63.0062 42.2099 62.9975C42.2052 62.9888 42.2024 62.9791 42.2017 62.9693C42.212 62.7835 42.2672 62.6028 42.3626 62.4418C42.4581 62.2809 42.5911 62.1443 42.7509 62.0431Z" fill="#E7D8C8"/>
<path d="M40.6803 63.1159C40.7559 63.0423 40.8411 62.9789 40.9338 62.9272C40.9821 62.9272 41.0666 62.9272 41.0666 62.9803C41.0545 63.2164 40.956 63.4404 40.7889 63.6114C40.7198 63.7204 40.6189 63.8066 40.4992 63.8591C40.4832 63.865 40.4654 63.8646 40.4497 63.8581C40.4339 63.8515 40.4214 63.8392 40.4147 63.8238C40.4147 63.8238 40.4147 63.7825 40.4147 63.7589C40.4113 63.7433 40.4113 63.7272 40.4147 63.7117C40.3944 63.5979 40.4088 63.4808 40.456 63.3748C40.5032 63.2689 40.5812 63.1789 40.6803 63.1159Z" fill="#E7D8C8"/>
<path d="M39.0929 61.4595C39.1176 61.4578 39.142 61.4654 39.1611 61.4808C39.1801 61.4961 39.1925 61.5181 39.1955 61.542C39.2045 61.5928 39.2045 61.6447 39.1955 61.6954C39.2069 61.7814 39.1987 61.8688 39.1716 61.9514C39.1445 62.034 39.0991 62.1097 39.0386 62.1732C38.9581 62.317 38.8336 62.4325 38.6825 62.5035C38.6462 62.5035 38.604 62.5035 38.5859 62.4622C38.4531 62.1555 38.6583 61.4536 39.0929 61.4595Z" fill="#E7D8C8"/>
<path d="M36.3711 61.0883C36.3751 61.1006 36.3817 61.1119 36.3903 61.1215C36.399 61.1312 36.4096 61.139 36.4215 61.1445C36.4333 61.1501 36.4462 61.1532 36.4593 61.1536C36.4725 61.1541 36.4856 61.152 36.4978 61.1473C36.6849 61.0619 36.8361 60.9162 36.9263 60.7347C37.0164 60.5532 37.0398 60.3469 36.9927 60.1504C36.9871 60.1382 36.9788 60.1273 36.9685 60.1184C36.9582 60.1096 36.946 60.103 36.9329 60.0991C36.9197 60.0952 36.9059 60.094 36.8923 60.0958C36.8787 60.0975 36.8656 60.1021 36.8539 60.1091C36.7174 60.203 36.6023 60.3235 36.5159 60.4631C36.4436 60.549 36.3928 60.6503 36.3676 60.7589C36.3425 60.8675 36.3437 60.9803 36.3711 61.0883Z" fill="#E7D8C8"/>
<path d="M36.637 63.3651C36.6361 63.2437 36.6694 63.1245 36.7333 63.0204C36.7972 62.9164 36.8891 62.8315 36.9991 62.7752C37.0125 62.7694 37.0272 62.767 37.0418 62.768C37.0565 62.769 37.0706 62.7735 37.0831 62.781C37.0956 62.7886 37.106 62.7989 37.1134 62.8113C37.1209 62.8236 37.1251 62.8376 37.1259 62.8519C37.1423 62.9691 37.1301 63.0885 37.0903 63.2003C37.0504 63.3121 36.984 63.413 36.8965 63.4948C36.8705 63.5302 36.8377 63.5602 36.7999 63.5833C36.7885 63.5894 36.7759 63.5931 36.763 63.5944C36.75 63.5956 36.7369 63.5942 36.7245 63.5903C36.7121 63.5865 36.7007 63.5802 36.6908 63.5719C36.6809 63.5636 36.6729 63.5534 36.6672 63.542C36.6643 63.5355 36.6629 63.5285 36.6629 63.5214C36.6629 63.5143 36.6643 63.5073 36.6672 63.5007C36.6508 63.4571 36.6406 63.4114 36.637 63.3651Z" fill="#E7D8C8"/>
<path d="M42.1658 64.2204C42.1766 64.2196 42.1875 64.221 42.1977 64.2245C42.2079 64.228 42.2173 64.2335 42.2252 64.2407C42.2332 64.2479 42.2395 64.2566 42.2438 64.2664C42.2481 64.2761 42.2503 64.2865 42.2503 64.2971C42.2496 64.4544 42.2033 64.6083 42.1168 64.7409C42.0303 64.8735 41.907 64.9794 41.7614 65.0463C41.7418 65.0522 41.7207 65.0522 41.7011 65.0463H41.6166C41.6069 65.048 41.5969 65.0477 41.5874 65.0452C41.5779 65.0427 41.5691 65.0382 41.5616 65.032C41.5541 65.0258 41.5481 65.018 41.544 65.0093C41.54 65.0005 41.5379 64.991 41.5381 64.9814C41.5713 64.8141 41.6458 64.6573 41.7552 64.5247C41.8646 64.3921 42.0056 64.2876 42.1658 64.2204Z" fill="#E7D8C8"/>
<path d="M42.8056 65.8653C42.8037 65.8811 42.8059 65.8971 42.8121 65.9118C42.8182 65.9265 42.8281 65.9395 42.8407 65.9495C42.8534 65.9595 42.8684 65.9662 42.8844 65.969C42.9004 65.9718 42.9169 65.9707 42.9323 65.9656H42.9746C42.9835 65.9714 42.994 65.9745 43.0048 65.9745C43.0155 65.9745 43.026 65.9714 43.0349 65.9656L43.0772 65.9243C43.1944 65.8442 43.2938 65.7417 43.3695 65.6231C43.4452 65.5045 43.4957 65.3722 43.5178 65.2341C43.52 65.2205 43.5185 65.2066 43.5133 65.1938C43.5082 65.181 43.4996 65.1698 43.4885 65.1614C43.4774 65.1529 43.4642 65.1475 43.4502 65.1458C43.4362 65.1441 43.4221 65.146 43.4091 65.1515C43.2161 65.2393 43.0558 65.3836 42.9504 65.5645C42.8818 65.6541 42.8325 65.7565 42.8056 65.8653Z" fill="#E7D8C8"/>
<path d="M42.4486 67.9428C42.5251 67.7853 42.6364 67.6463 42.7745 67.5358C42.8332 67.4729 42.8978 67.4156 42.9677 67.3648C42.9873 67.3585 43.0084 67.3585 43.028 67.3648C43.0403 67.3551 43.0553 67.3493 43.071 67.3481C43.0867 67.3469 43.1024 67.3504 43.116 67.358C43.1297 67.3656 43.1407 67.3771 43.1476 67.3909C43.1545 67.4048 43.157 67.4203 43.1548 67.4355C43.1314 67.5753 43.0671 67.7054 42.9696 67.8101C42.8721 67.9148 42.7456 67.9896 42.6055 68.0254H42.5572C42.5446 68.0338 42.5295 68.038 42.5143 68.0375C42.499 68.0369 42.4843 68.0317 42.4723 68.0226C42.4603 68.0134 42.4515 68.0008 42.4472 67.9865C42.443 67.9722 42.4434 67.9569 42.4486 67.9428Z" fill="#E7D8C8"/>
<path d="M40.4931 66.9275C40.4985 66.842 40.5229 66.7586 40.5646 66.6832C40.6063 66.6078 40.6643 66.5422 40.7346 66.491C40.8279 66.397 40.9442 66.328 41.0726 66.2904C41.1269 66.2904 41.1993 66.2904 41.1993 66.3612C41.1898 66.5289 41.1264 66.6894 41.018 66.8197C40.9096 66.95 40.7618 67.0435 40.5957 67.0868C40.583 67.0884 40.5701 67.0876 40.5578 67.0843C40.5454 67.081 40.5338 67.0754 40.5237 67.0677C40.5136 67.06 40.5052 67.0505 40.4989 67.0395C40.4926 67.0286 40.4886 67.0166 40.4871 67.0042C40.4812 66.9994 40.4765 66.9932 40.4735 66.9863C40.4705 66.9794 40.4693 66.9718 40.4699 66.9643C40.4705 66.9568 40.4729 66.9496 40.4769 66.9432C40.481 66.9367 40.4865 66.9314 40.4931 66.9275Z" fill="#E7D8C8"/>
<path d="M39.0992 64.5096H39.1475C39.1669 64.5021 39.1879 64.4993 39.2087 64.5012C39.2294 64.5031 39.2495 64.5098 39.2671 64.5207C39.2847 64.5317 39.2995 64.5465 39.3102 64.564C39.3208 64.5816 39.3271 64.6013 39.3285 64.6217C39.2923 64.9225 39.0328 65.3118 38.725 65.3295C38.6767 65.3295 38.6103 65.2942 38.6164 65.2411C38.614 65.0862 38.6585 64.9341 38.7445 64.8039C38.8304 64.6737 38.9538 64.5713 39.0992 64.5096Z" fill="#E7D8C8"/>
<path d="M38.1214 67.2463C38.2438 67.071 38.4188 66.937 38.6223 66.8629C38.6381 66.8565 38.6552 66.8543 38.6721 66.8565C38.689 66.8587 38.705 66.8652 38.7185 66.8754C38.732 66.8855 38.7425 66.899 38.7489 66.9145C38.7554 66.9299 38.7575 66.9467 38.7551 66.9632C38.6433 67.3069 38.4015 67.5959 38.0791 67.7713C38.0655 67.7821 38.0492 67.789 38.0318 67.7914C38.0145 67.7938 37.9968 67.7915 37.9807 67.7849C37.9646 67.7782 37.9506 67.7674 37.9403 67.7536C37.93 67.7398 37.9237 67.7235 37.9222 67.7064C37.9162 67.6199 37.9311 67.5331 37.9657 67.4532C38.0003 67.3733 38.0536 67.3024 38.1214 67.2463Z" fill="#E7D8C8"/>
<path d="M36.5278 65.3585C36.5322 65.2396 36.5664 65.1237 36.6275 65.0208C36.6885 64.9179 36.7745 64.8313 36.8778 64.7686C36.9261 64.7686 37.0167 64.7686 37.0348 64.8098C37.0569 64.966 37.0329 65.125 36.9655 65.2682C36.8981 65.4114 36.7902 65.5328 36.6545 65.618C36.6374 65.6314 36.6164 65.6394 36.5945 65.641C36.5726 65.6425 36.5507 65.6376 36.5317 65.6267C36.5128 65.6158 36.4976 65.5996 36.4883 65.5801C36.479 65.5607 36.4759 65.5389 36.4795 65.5177C36.4922 65.4637 36.5084 65.4105 36.5278 65.3585Z" fill="#E7D8C8"/>
<path d="M35.0066 63.5244C35.0262 63.4542 35.0686 63.3921 35.1273 63.3474L35.1635 63.3062C35.2058 63.2531 35.3205 63.2708 35.3205 63.3474C35.3163 63.4762 35.2744 63.6011 35.1998 63.7073C35.1957 63.7849 35.1747 63.8609 35.1383 63.93C35.1019 63.9992 35.0508 64.06 34.9885 64.1084C34.9771 64.1156 34.9639 64.1197 34.9503 64.1205C34.9367 64.1212 34.9232 64.1184 34.911 64.1125C34.8988 64.1065 34.8884 64.0976 34.8808 64.0865C34.8733 64.0755 34.8688 64.0627 34.8678 64.0494C34.8523 63.8641 34.9012 63.6791 35.0066 63.5244Z" fill="#E7D8C8"/>
<path d="M36.5097 58.4278L36.5881 58.3275C36.6304 58.2862 36.727 58.3275 36.727 58.3688C36.7383 58.4864 36.7219 58.605 36.679 58.7155C36.6361 58.8259 36.5678 58.9253 36.4795 59.0059V59.0413C36.4702 59.0499 36.4588 59.0561 36.4463 59.059C36.4339 59.0619 36.4209 59.0616 36.4086 59.058C36.3963 59.0544 36.3852 59.0477 36.3765 59.0385C36.3677 59.0294 36.3616 59.0181 36.3588 59.0059C36.3528 58.9688 36.3528 58.9309 36.3588 58.8938C36.3343 58.8102 36.3356 58.7215 36.3624 58.6386C36.3892 58.5557 36.4405 58.4824 36.5097 58.4278Z" fill="#E7D8C8"/>
<path d="M35.7854 68.1491C35.7917 68.1601 35.8009 68.1694 35.812 68.1758C35.8232 68.1822 35.8359 68.1856 35.8488 68.1856C35.8617 68.1856 35.8744 68.1822 35.8856 68.1758C35.8967 68.1694 35.9059 68.1601 35.9122 68.1491L35.9605 68.096C36.0827 68.0028 36.1831 67.885 36.255 67.7507C36.3268 67.6164 36.3684 67.4687 36.3769 67.3173C36.3784 67.3009 36.3752 67.2843 36.3676 67.2695C36.36 67.2548 36.3483 67.2424 36.3338 67.2338C36.3194 67.2252 36.3027 67.2207 36.2858 67.2209C36.2689 67.2211 36.2524 67.2259 36.2381 67.2348C35.9786 67.4176 35.6707 67.8364 35.7854 68.1491Z" fill="#E7D8C8"/>
<path d="M34.3428 66.9101C34.3576 66.8328 34.3979 66.7624 34.4575 66.7096C34.4807 66.6707 34.5091 66.635 34.542 66.6034C34.5509 66.5912 34.5627 66.5813 34.5764 66.5744C34.59 66.5676 34.6051 66.564 34.6204 66.564C34.6358 66.564 34.6509 66.5676 34.6645 66.5744C34.6782 66.5813 34.69 66.5912 34.6989 66.6034C34.7468 66.733 34.7468 66.8749 34.6989 67.0045C34.667 67.1377 34.5956 67.2588 34.4937 67.3525C34.4839 67.3597 34.4725 67.3645 34.4604 67.3666C34.4484 67.3687 34.436 67.368 34.4242 67.3645C34.4125 67.3611 34.4018 67.355 34.3929 67.3468C34.384 67.3386 34.3772 67.3284 34.373 67.3171C34.3379 67.2555 34.3171 67.1872 34.3118 67.1169C34.3066 67.0466 34.3172 66.976 34.3428 66.9101Z" fill="#E7D8C8"/>
<path d="M34.5906 68.9214C34.6036 68.9118 34.6191 68.9058 34.6353 68.9041C34.6515 68.9024 34.668 68.905 34.6828 68.9116C34.6977 68.9183 34.7104 68.9287 34.7197 68.9419C34.7289 68.955 34.7344 68.9704 34.7354 68.9863C34.7507 69.1285 34.7344 69.2722 34.6875 69.4076C34.6406 69.543 34.5643 69.6669 34.4638 69.7708C34.4638 69.7708 34.4638 69.8062 34.4638 69.818C34.4579 69.832 34.4478 69.8439 34.4349 69.8523C34.422 69.8607 34.4069 69.8652 34.3914 69.8652C34.3759 69.8652 34.3608 69.8607 34.3479 69.8523C34.335 69.8439 34.3249 69.832 34.319 69.818C34.2788 69.6585 34.2828 69.4913 34.3305 69.3337C34.3782 69.1762 34.468 69.0339 34.5906 68.9214Z" fill="#E7D8C8"/>
<path d="M36.8177 69.7888C36.8379 69.7831 36.8595 69.7841 36.8791 69.7916C36.8987 69.799 36.9153 69.8125 36.9263 69.83C36.9328 69.8397 36.9363 69.851 36.9363 69.8625C36.9363 69.874 36.9328 69.8853 36.9263 69.8949C36.9283 69.9086 36.9283 69.9225 36.9263 69.9362C36.9256 70.0512 36.8974 70.1644 36.844 70.2668C36.7905 70.3693 36.7133 70.458 36.6185 70.5261C36.6075 70.5344 36.5948 70.5401 36.5812 70.5429C36.5676 70.5456 36.5536 70.5452 36.5402 70.5418C36.5268 70.5384 36.5143 70.532 36.5039 70.5231C36.4934 70.5143 36.4851 70.5032 36.4797 70.4907C36.4769 70.4791 36.4769 70.467 36.4797 70.4553C36.4686 70.4564 36.4574 70.4549 36.4469 70.4511C36.4365 70.4472 36.4271 70.441 36.4195 70.433C36.4119 70.425 36.4063 70.4154 36.4031 70.405C36.4 70.3945 36.3993 70.3835 36.4012 70.3727C36.4167 70.2496 36.4627 70.132 36.5353 70.0302C36.6079 69.9284 36.7048 69.8455 36.8177 69.7888Z" fill="#E7D8C8"/>
<path d="M39.6906 68.367C39.7032 68.359 39.7176 68.3541 39.7326 68.3529C39.7475 68.3516 39.7626 68.354 39.7763 68.3599C39.7901 68.3657 39.8022 68.3748 39.8114 68.3864C39.8207 68.3979 39.8269 68.4115 39.8294 68.426C39.8354 68.6051 39.7878 68.782 39.6923 68.935C39.5969 69.088 39.4579 69.2104 39.2923 69.2873C39.2631 69.2981 39.2309 69.2981 39.2017 69.2873L39.1293 69.3344C39.1185 69.3382 39.107 69.3394 39.0957 69.3379C39.0843 69.3364 39.0735 69.3324 39.0641 69.326C39.0547 69.3197 39.0469 69.3113 39.0415 69.3015C39.036 69.2917 39.033 69.2807 39.0327 69.2696C39.0584 69.078 39.1318 68.8955 39.2465 68.7381C39.3612 68.5807 39.5137 68.4533 39.6906 68.367Z" fill="#E7D8C8"/>
<path d="M44.5916 67.9594C44.6041 67.9318 44.6204 67.906 44.6399 67.8827C44.6302 67.8399 44.6302 67.7957 44.6399 67.7529C44.7079 67.6246 44.8186 67.5226 44.9538 67.4639C45.0021 67.4639 45.0685 67.4639 45.0866 67.4993C45.1106 67.5822 45.1106 67.67 45.0866 67.7529C45.0675 67.8488 45.0122 67.9342 44.9317 67.9921C44.8512 68.05 44.7513 68.0762 44.652 68.0655C44.6307 68.0576 44.613 68.0426 44.602 68.0232C44.591 68.0038 44.5873 67.9812 44.5916 67.9594Z" fill="#E7D8C8"/>
</g>
<defs>
<clipPath id="clip0_430_637">
<rect width="116" height="80" fill="white"/>
</clipPath>
</defs>
</svg>
