<svg width="37" height="38" viewBox="0 0 37 38" fill="none" xmlns="http://www.w3.org/2000/svg">
<g clip-path="url(#clip0_678_3973)">
<path d="M36.0994 3.81049C34.6444 1.46826 29.517 0 17.1837 0C12.9917 0 8.7305 0.48942 4.78106 1.99264C3.49922 2.51702 0.208026 3.88041 0.104093 7.20147C0.0694487 7.90064 0.485179 8.49494 0.623756 9.19411L1.10877 11.1168C1.10877 11.0469 1.10877 11.012 1.10877 10.942C3.67245 22.9328 19.1238 21.919 28.0273 18.5281C31.3532 17.2696 33.9168 15.4867 35.5105 12.2006C36.1341 10.9071 36.723 9.1242 36.9309 7.69089C37.0002 7.23643 36.8962 6.85189 36.9655 6.39742C36.8962 5.41858 36.5498 4.54462 36.0994 3.81049Z" fill="#688EAD"/>
<path d="M3.84563 6.60706C4.39994 6.46723 4.98889 6.46723 5.50855 6.3274C6.27072 6.11764 6.85967 5.55831 7.48327 5.10384C8.55724 4.36971 9.80443 3.88029 11.0863 3.74046C12.4374 3.56567 13.8578 3.74046 15.2089 3.53071C16.5947 3.32096 17.9458 2.72666 19.3662 2.79658C20.7174 2.86649 21.9645 3.49575 23.3157 3.60062C24.84 3.74046 26.4683 3.18112 27.9233 3.77542C28.6162 4.05509 29.2052 4.57947 29.9327 4.78922C30.4177 4.92905 30.9374 4.92905 31.4224 4.96401C32.531 5.10384 33.5357 5.66318 34.5404 6.18756C35.3026 6.60706 36.0994 7.06153 36.4458 7.86557C36.8615 8.87937 36.3419 10.068 35.5797 10.872C34.2286 12.3403 32.2539 13.0045 30.3138 13.4939C26.0526 14.5427 21.6181 14.7524 17.2183 14.8573C13.8232 14.9622 10.3934 14.9971 7.0329 14.3329C5.7857 14.0882 4.50387 13.7037 3.60312 12.8297C2.04413 11.2216 0.796941 7.44607 3.84563 6.60706Z" fill="#F4D09F"/>
<path d="M28.7547 5.52351C28.6854 5.76822 28.4429 5.94301 28.235 6.08284C27.8886 6.32755 27.4728 6.53731 27.0571 6.7121C26.8839 6.78202 26.7107 6.85193 26.5721 6.99177C26.4335 7.1316 26.3989 7.37631 26.5374 7.48119C26.6067 7.55111 26.676 7.55111 26.7453 7.58606C27.265 7.69094 27.7153 7.34135 28.235 7.27144C28.6161 7.20152 28.9972 7.27144 29.3783 7.3064C29.7594 7.3064 30.1751 7.27144 30.4522 7.02673C30.5562 6.95681 30.6255 6.85193 30.6255 6.7121C30.6255 6.57227 30.5562 6.46739 30.4176 6.43243C30.9026 6.64218 31.4569 6.7121 32.0112 6.67714C32.1498 6.67714 32.323 6.60722 32.3923 6.46739C32.427 6.39747 32.3923 6.32755 32.3923 6.25764C32.2884 5.83813 31.8034 5.62838 31.3876 5.55847C30.9719 5.48855 30.5215 5.48855 30.1751 5.24384C30.0019 5.13896 29.8979 4.96417 29.7247 4.85929C29.4129 4.64954 28.7547 4.50971 28.4429 4.75442C28.6507 4.92921 28.8586 5.20888 28.7547 5.52351Z" fill="#F2C194"/>
<path d="M22.2418 8.14537C22.1032 8.42503 21.7914 8.52991 21.4796 8.63479C21.0292 8.80958 20.6481 9.01933 20.3017 9.33396C20.267 9.36892 20.2324 9.40388 20.1977 9.47379C20.0938 9.68354 20.371 9.85834 20.6135 9.82338C20.8213 9.78842 21.0292 9.64859 21.2371 9.64859C21.5142 9.64859 21.7221 9.82338 21.9646 9.8933C22.1378 9.92825 22.3457 9.92825 22.5189 9.8933C23.385 9.78842 24.2165 9.68354 25.0826 9.57867C25.3944 9.54371 25.7755 9.47379 25.9487 9.19412C25.9833 9.12421 26.018 9.05429 26.018 8.98437C25.9833 8.84454 25.8448 8.77462 25.7408 8.73966C25.3597 8.63479 24.944 8.59983 24.5629 8.63479C24.4936 8.2852 25.1865 8.21528 25.2212 7.83074C24.6322 7.6909 24.0086 7.58603 23.4197 7.44619C22.7961 7.30636 22.1725 7.20148 21.5835 7.2714C21.8953 7.41123 22.4843 7.65594 22.2418 8.14537Z" fill="#F2C194"/>
<path d="M26.2953 10.6275C26.8149 10.3478 27.2307 9.85837 27.3346 9.26408C28.3046 9.26408 29.3786 9.26408 30.1408 8.63482C30.314 8.49499 30.4526 8.32019 30.6258 8.21532C30.8337 8.07548 31.1108 8.04052 31.388 8.00557C32.1155 7.90069 32.8084 7.79581 33.5359 7.65598C33.6052 7.65598 33.7091 7.62102 33.7784 7.65598C33.917 7.7259 33.9517 7.93565 33.917 8.07548C33.7784 8.59986 33.2588 8.94945 32.7391 9.08928C32.2194 9.22912 31.6651 9.26408 31.1455 9.43887C30.6605 9.61366 30.2447 9.96325 29.829 10.2429C29.24 10.6275 28.6164 10.9421 27.9236 11.1868C26.5031 11.6762 24.9788 11.7112 23.4545 11.7461C22.6576 11.7811 21.8955 11.7811 21.1333 11.6413C21.8955 11.047 22.9694 11.3266 23.8355 11.2567C24.6324 11.1518 25.5678 11.047 26.2953 10.6275Z" fill="#F2C194"/>
<path d="M12.4377 7.20137C12.6455 7.23633 12.888 7.23633 13.0959 7.16641C13.3038 7.09649 13.5116 6.9217 13.5116 6.71195C13.5116 6.53715 13.4423 6.39732 13.3038 6.25748C13.1652 6.15261 13.0266 6.08269 12.8534 6.01278C12.2298 5.80302 10.8094 5.59327 10.4976 6.39732C10.2204 7.27128 12.0219 7.16641 12.4377 7.20137Z" fill="#BF9777"/>
<path d="M11.1904 6.95667C12.0322 6.95667 12.7147 6.268 12.7147 5.41849C12.7147 4.56898 12.0322 3.88031 11.1904 3.88031C10.3485 3.88031 9.66602 4.56898 9.66602 5.41849C9.66602 6.268 10.3485 6.95667 11.1904 6.95667Z" fill="#600C4E"/>
<path d="M11.9874 3.91521L12.022 3.95017C12.022 3.95017 12.0566 3.95017 12.0913 3.95017C12.1952 3.91521 12.2992 3.88025 12.3684 3.84529C12.3684 3.91521 12.3338 3.98513 12.3338 4.05505C12.4377 4.05505 12.5763 4.05505 12.6802 4.05505C12.6456 4.12496 12.5763 4.19488 12.5417 4.2648C12.6109 4.2648 12.7149 4.2648 12.7842 4.2648C12.8188 4.2648 12.8535 4.2648 12.8535 4.29976C12.8535 4.29976 12.8535 4.33471 12.8188 4.33471C12.7149 4.43959 12.6109 4.54447 12.507 4.61438C12.4724 4.64934 12.4031 4.6843 12.3338 4.71926C12.2645 4.71926 12.2299 4.6843 12.1606 4.6843C11.9874 4.61438 11.7102 4.43959 11.6409 4.2648C11.5716 4.09 11.7448 3.88025 11.8488 3.74042C11.9527 3.84529 11.9527 3.88025 11.9874 3.91521Z" fill="#600C4E"/>
<path opacity="0.33" d="M10.7053 4.29971C10.5321 4.40459 10.3935 4.54442 10.3589 4.75417C10.3589 4.78913 10.3589 4.85905 10.3589 4.89401C10.3589 4.96392 10.4282 4.99888 10.4628 5.03384C10.4975 5.0688 10.5321 5.10376 10.5668 5.0688C10.636 5.0688 10.6707 4.99888 10.7053 4.92897C10.8439 4.71921 11.0864 4.57938 11.3289 4.6493C11.3982 4.6493 11.4675 4.68426 11.5021 4.61434C11.5021 4.61434 11.5021 4.57938 11.5021 4.54442C11.5368 4.12492 10.9825 4.19484 10.7053 4.29971Z" fill="white"/>
<path d="M8.59196 10.3128C8.79983 10.3478 9.04234 10.3478 9.25021 10.2779C9.45807 10.2079 9.66594 10.0331 9.66594 9.8234C9.66594 9.6486 9.59665 9.50877 9.45807 9.36893C9.31949 9.26406 9.18092 9.19414 9.0077 9.12423C8.3841 8.91447 6.96369 8.70472 6.65189 9.50877C6.37474 10.3827 8.14159 10.2779 8.59196 10.3128Z" fill="#BF9777"/>
<path d="M8.81422 8.88955C9.00937 8.06314 8.50366 7.23358 7.68469 7.03666C6.86571 6.83974 6.04361 7.35004 5.84846 8.17645C5.65331 9.00286 6.15903 9.83242 6.978 10.0293C7.79697 10.2263 8.61908 9.71596 8.81422 8.88955Z" fill="#600C4E"/>
<path d="M8.10698 7.02666L8.14163 7.06162C8.14163 7.06162 8.17627 7.06162 8.21091 7.06162C8.31485 7.02666 8.41878 6.9917 8.48807 6.95674C8.48807 7.02666 8.45342 7.09658 8.45342 7.16649C8.55736 7.16649 8.69593 7.16649 8.79987 7.16649C8.76522 7.23641 8.69593 7.30633 8.66129 7.37625C8.73058 7.37625 8.83451 7.37625 8.9038 7.37625C8.93844 7.37625 8.97309 7.37625 8.97309 7.41121C8.97309 7.41121 8.97309 7.44616 8.93844 7.44616C8.83451 7.55104 8.73058 7.65592 8.62664 7.72583C8.592 7.76079 8.52271 7.79575 8.45342 7.83071C8.38414 7.83071 8.34949 7.79575 8.2802 7.79575C8.10698 7.72583 7.82983 7.55104 7.76054 7.37625C7.69125 7.20145 7.86447 6.9917 7.96841 6.85187C8.07234 6.95674 8.10698 6.9917 8.10698 7.02666Z" fill="#600C4E"/>
<path opacity="0.33" d="M6.85963 7.41116C6.6864 7.51604 6.54783 7.65587 6.51318 7.86562C6.51318 7.90058 6.51318 7.9705 6.51318 8.00546C6.51318 8.07538 6.58247 8.11033 6.61712 8.14529C6.65176 8.18025 6.6864 8.21521 6.72105 8.18025C6.79034 8.18025 6.82498 8.11033 6.85963 8.04042C6.9982 7.83067 7.24071 7.69083 7.48322 7.76075C7.55251 7.76075 7.6218 7.79571 7.65644 7.72579C7.65644 7.72579 7.65644 7.69083 7.65644 7.65587C7.69109 7.23637 7.10213 7.30629 6.85963 7.41116Z" fill="white"/>
<path d="M22.4147 11.0119C22.6226 11.0469 22.8651 11.0469 23.073 10.977C23.2808 10.907 23.4887 10.7322 23.4887 10.5225C23.4887 10.3477 23.4194 10.2079 23.2808 10.068C23.1422 9.96316 23.0037 9.89324 22.8305 9.82332C22.2069 9.61357 20.7864 9.40382 20.4746 10.2079C20.1975 11.0818 21.9643 10.977 22.4147 11.0119Z" fill="#BF9777"/>
<path d="M21.6412 10.6929C22.4419 10.4305 22.8803 9.5629 22.6203 8.75493C22.3603 7.94695 21.5005 7.50462 20.6998 7.76695C19.8991 8.02928 19.4607 8.89693 19.7207 9.70491C19.9807 10.5129 20.8405 10.9552 21.6412 10.6929Z" fill="#600C4E"/>
<path d="M21.9644 7.72576L21.9991 7.76072C21.9991 7.76072 22.0337 7.76072 22.0683 7.76072C22.1723 7.72576 22.2762 7.6908 22.3455 7.65584C22.3455 7.72576 22.3109 7.79567 22.3109 7.86559C22.4148 7.86559 22.5534 7.86559 22.6573 7.86559C22.6227 7.93551 22.5534 8.00543 22.5187 8.07534C22.588 8.07534 22.6919 8.07534 22.7612 8.07534C22.7959 8.07534 22.8305 8.07534 22.8305 8.1103C22.8305 8.1103 22.8305 8.14526 22.7959 8.14526C22.6919 8.25014 22.588 8.35501 22.4841 8.42493C22.4494 8.45989 22.3801 8.49485 22.3109 8.5298C22.2416 8.5298 22.2069 8.49485 22.1376 8.49485C21.9644 8.42493 21.6873 8.25014 21.618 8.07534C21.5487 7.90055 21.7219 7.6908 21.8258 7.55096C21.8951 7.62088 21.9298 7.6908 21.9644 7.72576Z" fill="#600C4E"/>
<path opacity="0.33" d="M20.6829 8.11059C20.5096 8.21547 20.3711 8.3553 20.3364 8.56505C20.3364 8.60001 20.3364 8.66993 20.3364 8.70488C20.3364 8.7748 20.4057 8.80976 20.4404 8.84472C20.475 8.87968 20.5096 8.91464 20.5443 8.87968C20.6136 8.87968 20.6482 8.80976 20.6829 8.73984C20.8214 8.53009 21.064 8.39026 21.3065 8.46018C21.3758 8.46018 21.445 8.49513 21.4797 8.42522C21.4797 8.42522 21.4797 8.39026 21.4797 8.3553C21.5143 7.9358 20.9254 7.97076 20.6829 8.11059Z" fill="white"/>
<path d="M25.8794 7.79591C26.0873 7.83087 26.3298 7.83087 26.5377 7.76095C26.7455 7.69104 26.9534 7.51624 26.9534 7.30649C26.9534 7.1317 26.8841 6.99186 26.7455 6.85203C26.607 6.74715 26.4684 6.67724 26.2952 6.60732C25.6716 6.39757 24.2512 6.18782 23.9394 6.99186C23.6276 7.86583 25.4291 7.76095 25.8794 7.79591Z" fill="#BF9777"/>
<path d="M24.6323 7.55121C25.4741 7.55121 26.1566 6.86254 26.1566 6.01303C26.1566 5.16352 25.4741 4.47485 24.6323 4.47485C23.7904 4.47485 23.1079 5.16352 23.1079 6.01303C23.1079 6.86254 23.7904 7.55121 24.6323 7.55121Z" fill="#600C4E"/>
<path d="M25.3946 4.50975L25.4292 4.54471C25.4292 4.54471 25.4639 4.54471 25.4985 4.54471C25.6024 4.50975 25.7064 4.4748 25.7757 4.43984C25.7757 4.50975 25.741 4.57967 25.741 4.64959C25.845 4.64959 25.9835 4.64959 26.0875 4.64959C26.0528 4.71951 25.9835 4.78942 25.9489 4.85934C26.0182 4.85934 26.1221 4.85934 26.1914 4.85934C26.226 4.85934 26.2607 4.85934 26.2607 4.8943C26.2607 4.8943 26.2607 4.92926 26.226 4.92926C26.1221 5.03413 26.0182 5.13901 25.9142 5.20893C25.8796 5.24388 25.8103 5.27884 25.741 5.3138C25.6717 5.3138 25.6371 5.27884 25.5678 5.27884C25.3946 5.20893 25.1174 5.03413 25.0481 4.85934C24.9788 4.68455 25.1521 4.4748 25.256 4.33496C25.3599 4.43984 25.3946 4.4748 25.3946 4.50975Z" fill="#600C4E"/>
<path opacity="0.33" d="M24.1126 4.89422C23.9393 4.9991 23.8008 5.13893 23.7661 5.34868C23.7661 5.38364 23.7661 5.45356 23.7661 5.48852C23.7661 5.55843 23.8354 5.59339 23.87 5.62835C23.9047 5.66331 23.9393 5.69827 23.974 5.66331C24.0433 5.66331 24.0779 5.59339 24.1126 5.52348C24.2511 5.31372 24.4936 5.17389 24.7362 5.24381C24.8054 5.24381 24.8747 5.27877 24.9094 5.20885C24.9094 5.20885 24.9094 5.17389 24.9094 5.13893C24.9787 4.71943 24.3897 4.75439 24.1126 4.89422Z" fill="white"/>
<path d="M19.3317 4.75428C19.5396 4.78924 19.7821 4.78924 19.99 4.71933C20.1978 4.64941 20.4057 4.47462 20.4057 4.26486C20.4057 4.09007 20.3364 3.95024 20.1978 3.8104C20.0592 3.70553 19.9207 3.63561 19.7474 3.56569C19.1238 3.35594 17.7034 3.14619 17.3916 3.95024C17.1145 4.8242 18.8813 4.71933 19.3317 4.75428Z" fill="#BF9777"/>
<path d="M19.5661 3.33264C19.7578 2.50547 19.2487 1.67811 18.4289 1.48468C17.6092 1.29124 16.7893 1.80499 16.5976 2.63216C16.4059 3.45933 16.915 4.28669 17.7347 4.48013C18.5545 4.67356 19.3744 4.15981 19.5661 3.33264Z" fill="#600C4E"/>
<path d="M18.8814 1.46813L18.916 1.50309C18.916 1.50309 18.9507 1.50309 18.9853 1.50309C19.0893 1.46813 19.1932 1.43317 19.2625 1.39821C19.2625 1.46813 19.2278 1.53805 19.2278 1.60796C19.3318 1.60796 19.4703 1.60796 19.5743 1.60796C19.5396 1.67788 19.4703 1.7478 19.4357 1.81771C19.505 1.81771 19.6089 1.81771 19.6782 1.81771C19.7129 1.81771 19.7475 1.81771 19.7475 1.85267C19.7475 1.85267 19.7475 1.88763 19.7129 1.88763C19.6089 1.99251 19.505 2.09738 19.4011 2.1673C19.3664 2.20226 19.2971 2.23722 19.2278 2.27218C19.1586 2.27218 19.1239 2.23722 19.0546 2.23722C18.8814 2.1673 18.6042 1.99251 18.535 1.81771C18.4657 1.64292 18.6389 1.43317 18.7428 1.29333C18.8121 1.39821 18.8468 1.43317 18.8814 1.46813Z" fill="#600C4E"/>
<path opacity="0.33" d="M17.5994 1.85263C17.4262 1.9575 17.2876 2.09734 17.2529 2.30709C17.2529 2.34205 17.2529 2.41197 17.2529 2.44692C17.2529 2.51684 17.3222 2.5518 17.3569 2.58676C17.3915 2.62172 17.4262 2.65668 17.4608 2.62172C17.5301 2.62172 17.5647 2.5518 17.5994 2.48188C17.7379 2.27213 17.9805 2.1323 18.223 2.20221C18.2923 2.20221 18.3615 2.23717 18.3962 2.16726C18.3962 2.16726 18.3962 2.1323 18.3962 2.09734C18.4308 1.67784 17.8419 1.74775 17.5994 1.85263Z" fill="white"/>
<path d="M32.3229 11.7809C32.5308 11.8159 32.7733 11.8159 32.9812 11.7459C33.189 11.676 33.3969 11.5012 33.3969 11.2915C33.3969 11.1167 33.3276 10.9768 33.189 10.837C33.0505 10.7321 32.9119 10.6622 32.7387 10.5923C32.1151 10.3826 30.6946 10.1728 30.3828 10.9768C30.1057 11.8508 31.8725 11.7459 32.3229 11.7809Z" fill="#BF9777"/>
<path d="M32.5783 10.309C32.7554 9.47852 32.2317 8.66046 31.4087 8.4818C30.5857 8.30315 29.775 8.83157 29.5979 9.66205C29.4209 10.4925 29.9445 11.3106 30.7675 11.4893C31.5906 11.6679 32.4013 11.1395 32.5783 10.309Z" fill="#600C4E"/>
<path d="M31.8379 8.4948L31.8726 8.52976C31.8726 8.52976 31.9072 8.52976 31.9419 8.52976C32.0458 8.4948 32.1497 8.45984 32.219 8.42488C32.219 8.4948 32.1844 8.56472 32.1844 8.63464C32.2883 8.63464 32.4269 8.63464 32.5308 8.63464C32.4962 8.70455 32.4269 8.77447 32.3922 8.84439C32.4615 8.84439 32.5655 8.84439 32.6348 8.84439C32.6694 8.84439 32.704 8.84439 32.704 8.87935C32.704 8.87935 32.704 8.9143 32.6694 8.9143C32.5655 9.01918 32.4615 9.12406 32.3576 9.19397C32.323 9.22893 32.2537 9.26389 32.1844 9.29885C32.1151 9.29885 32.0804 9.26389 32.0112 9.26389C31.8379 9.19397 31.5608 9.01918 31.4915 8.84439C31.4222 8.66959 31.5954 8.45984 31.6994 8.32001C31.8033 8.38992 31.8379 8.45984 31.8379 8.4948Z" fill="#600C4E"/>
<path opacity="0.33" d="M30.5911 8.87921C30.4179 8.98408 30.2793 9.12392 30.2446 9.33367C30.2446 9.36863 30.2446 9.43855 30.2446 9.4735C30.2446 9.54342 30.3139 9.57838 30.3486 9.61334C30.3832 9.6483 30.4178 9.68326 30.4525 9.6483C30.5218 9.6483 30.5564 9.57838 30.5911 9.50846C30.7296 9.29871 30.9722 9.15888 31.2147 9.22879C31.284 9.22879 31.3532 9.26375 31.3879 9.19383C31.3879 9.19383 31.3879 9.15888 31.3879 9.12392C31.4225 8.70441 30.8336 8.73937 30.5911 8.87921Z" fill="white"/>
<path d="M36.9656 6.32745C36.5845 7.44613 35.7531 8.11034 35.0256 8.80951C34.0555 9.71844 33.0508 10.3827 31.8383 11.0119C28.755 12.585 25.3252 12.3753 21.9647 12.6899C17.3917 13.0745 11.4675 13.0745 7.20626 11.6412C4.26151 10.6623 2.46001 9.19406 0.104203 7.20142C0.000270143 9.92819 0.485289 12.3753 0.762442 14.0533C1.31675 17.654 2.77181 21.7792 5.37012 24.3311C5.95907 24.9254 6.58267 25.4498 7.20626 25.8693C7.65664 32.5114 19.3317 32.057 23.3505 31.9172C26.1913 31.8123 28.8242 30.379 29.6903 29.0156C30.2793 27.862 30.3486 26.8132 30.2793 25.8344C32.1847 24.471 33.7437 22.6881 34.783 20.5556C36.4113 17.2695 36.3074 13.8086 36.7578 10.2778C36.9656 9.05422 37.0349 7.58596 36.9656 6.32745Z" fill="#8FBBEF"/>
<path d="M34.8524 20.5556C36.4807 17.2695 36.3768 13.8086 36.8272 10.2778C36.9657 9.05422 37.035 7.62092 36.9657 6.32745C36.1343 7.65588 35.6839 8.21522 34.9564 8.87943C33.917 9.78836 33.0856 10.3477 31.873 10.9769C31.388 11.2217 30.9376 11.3965 30.418 11.5712C30.1755 12.5501 30.0023 13.5988 29.7597 14.5078C28.6858 18.8776 26.2607 23.3873 22.0341 25.2401C21.4105 25.5197 17.9114 25.7644 18.2232 26.6384C18.3618 27.0229 19.4704 27.1628 19.7476 27.6872C20.0247 28.2465 19.8862 29.3302 19.7822 29.9595C19.6783 30.5538 19.2972 31.3229 19.5051 31.9871C21.0641 32.022 22.4498 31.9521 23.4199 31.9172C26.2607 31.8123 28.8936 30.379 29.7597 29.0156C30.3487 27.862 30.418 26.8132 30.3487 25.8344C32.2195 24.471 33.7785 22.6881 34.8524 20.5556Z" fill="#80ABD6"/>
<path d="M0.796837 10.9769C1.10863 10.9419 1.45508 10.9419 1.73223 11.0818C1.94009 11.1866 2.11332 11.3964 2.25189 11.6061C2.63298 12.2004 2.91013 12.8297 3.49908 13.2842C4.64234 14.1232 6.13204 13.1793 7.30995 13.8784C7.62174 14.0532 7.93354 14.3329 8.21069 14.5776C8.48785 14.8223 8.765 15.067 9.04215 15.2768C9.56182 15.6963 10.1508 16.0808 10.809 16.2906C11.5712 16.5353 12.368 16.4654 13.1648 16.2556C13.8577 16.0808 14.5159 15.8012 15.2435 15.7313C15.5899 15.6963 15.9363 15.7313 16.2828 15.8711C16.6985 16.0109 17.0796 16.2906 17.4953 16.5003C18.2922 16.8849 19.1236 17.1646 20.0244 17.1995C20.9251 17.2345 21.7912 16.9548 22.588 16.5003C23.2463 16.1158 23.9045 15.7662 24.632 15.6264C25.221 15.5215 25.8099 15.6613 26.3643 15.8012C27.0571 15.976 27.7847 16.2906 28.5122 16.2207C29.6555 16.0808 30.1751 15.067 30.9026 14.298C31.2837 13.8784 31.7687 13.5638 32.3231 13.4589C32.8081 13.389 33.2584 13.4939 33.7435 13.4939C34.2285 13.4939 34.6789 13.3541 34.9907 12.9695C35.2332 12.6899 35.4064 12.3752 35.545 12.0256C35.6489 11.746 35.6835 11.4663 35.7875 11.1517C35.8568 10.907 35.9953 10.8021 36.2725 10.837C36.2725 10.6972 36.2725 10.5224 36.2725 10.3826C36.0993 10.4175 35.9607 10.4875 35.8221 10.5923C35.6143 10.8021 35.926 11.1167 36.1339 10.907C36.1686 10.872 36.2032 10.837 36.2725 10.837C36.5496 10.8021 36.5843 10.3826 36.2725 10.3826C35.9607 10.3476 35.6835 10.4525 35.4757 10.7322C35.3025 10.9769 35.2678 11.2566 35.1985 11.5362C35.0599 12.0606 34.7481 12.7248 34.2631 12.9346C33.882 13.0744 33.4317 12.9695 33.0159 12.9346C32.4616 12.8996 31.9073 12.9695 31.4223 13.2492C30.9026 13.5289 30.5216 13.9484 30.1405 14.4028C29.8287 14.7874 29.5169 15.2069 29.1011 15.4516C28.6161 15.7662 28.0272 15.7662 27.4729 15.5914C26.78 15.4166 26.0871 15.1719 25.3942 15.067C24.7706 14.9971 24.1817 15.102 23.6274 15.3467C22.7959 15.6963 22.0684 16.2556 21.2023 16.5003C20.3708 16.7451 19.5047 16.6751 18.6732 16.4304C18.2575 16.2906 17.8418 16.1158 17.426 15.906C17.045 15.6963 16.6639 15.4516 16.2135 15.3467C15.5206 15.137 14.8624 15.2768 14.1695 15.4516C13.4073 15.6613 12.6105 15.941 11.8137 15.941C10.3586 15.941 9.31931 14.8573 8.24534 13.9484C7.96818 13.7037 7.65639 13.4589 7.30995 13.2842C6.99815 13.1443 6.65171 13.0744 6.30526 13.0394C5.68167 13.0045 5.02343 13.1793 4.39983 13.0744C3.6723 12.9346 3.25657 12.3752 2.91013 11.746C2.63298 11.2566 2.32118 10.7322 1.76687 10.5224C1.45508 10.4875 1.10863 10.4875 0.796837 10.5224C0.485039 10.5224 0.485039 11.0118 0.796837 10.9769Z" fill="#E5E5B7"/>
<path d="M1.35146 13.3193C1.66326 13.2144 1.97506 13.2144 2.25221 13.3892C2.49472 13.564 2.66794 13.8437 2.80652 14.0884C3.11831 14.6127 3.36082 15.277 3.8112 15.6615C4.08835 15.8713 4.40015 15.9761 4.71195 16.0461C5.09303 16.081 5.47412 16.0111 5.82056 15.9062C6.20165 15.8013 6.54809 15.6965 6.92918 15.8363C7.24097 15.9412 7.51813 16.1509 7.72599 16.4306C8.17637 16.955 8.45352 17.5842 9.04247 17.9688C9.38892 18.1785 9.77 18.3184 10.1511 18.3184C10.4975 18.3184 10.8093 18.2135 11.0865 18.0737C11.7447 17.759 12.403 17.4094 13.1651 17.4444C13.7541 17.4794 14.2737 17.8289 14.7588 18.1086C15.3477 18.4582 16.006 18.8427 16.6988 19.0175C17.4264 19.1923 18.1539 19.0525 18.8468 18.8078C19.505 18.5631 20.1979 18.2484 20.8908 18.2484C21.5837 18.2484 22.2419 18.4932 22.8309 18.8078C23.3505 19.0525 23.8702 19.3671 24.4591 19.3671C25.2213 19.4021 25.9488 18.9826 26.6071 18.598C26.9535 18.3883 27.3 18.1436 27.6464 18.0037C28.0275 17.8639 28.4432 17.8289 28.8936 17.8639C29.3093 17.8989 29.6904 18.0037 30.1061 17.9688C30.5219 17.9338 30.903 17.759 31.2494 17.4794C31.7691 17.0249 31.9423 16.3257 32.358 15.7664C32.5659 15.5217 32.843 15.277 33.1202 15.207C33.3973 15.1371 33.7091 15.1022 33.9863 15.0672C34.4713 14.9623 34.9217 14.6827 35.3028 14.403C35.5453 14.2632 35.7532 14.0884 35.961 13.8786C36.0996 13.7388 36.2728 13.599 36.3421 13.4242C36.446 13.2494 36.4114 13.0396 36.2035 12.9347C35.961 12.7949 35.7185 13.1794 35.961 13.3193C35.9957 13.3542 35.9264 13.2843 35.9264 13.2843C35.8571 13.1794 35.961 13.3193 35.9264 13.2144V13.1794C35.8917 13.2494 35.9264 13.1794 35.9264 13.1794C35.8917 13.2494 35.8571 13.2843 35.7878 13.3542C35.6146 13.529 35.4414 13.6689 35.2335 13.8437C34.887 14.0884 34.4367 14.403 34.0556 14.5428C33.7784 14.6127 33.4666 14.6477 33.1548 14.6827C32.8777 14.7526 32.6005 14.8575 32.358 15.0323C31.7691 15.4867 31.5958 16.1509 31.1801 16.7452C31.1108 17.1298 30.8337 17.3745 30.4872 17.4794C30.1061 17.5842 29.6904 17.5493 29.2747 17.4794C28.859 17.4094 28.4432 17.3745 28.0275 17.4794C27.6464 17.5493 27.2653 17.7241 26.9535 17.9338C26.2953 18.3184 25.637 18.8427 24.8749 18.9476C24.3206 19.0175 23.8009 18.7728 23.3159 18.5281C22.7269 18.2135 22.1033 17.9338 21.4451 17.8639C20.7176 17.759 20.0593 17.9688 19.3664 18.2135C18.7082 18.4582 18.05 18.7379 17.3571 18.7029C16.6642 18.6679 15.9713 18.3184 15.3824 17.9688C14.8627 17.6541 14.343 17.3046 13.7887 17.1298C13.1305 16.955 12.4722 17.0249 11.8487 17.3046C11.2251 17.5493 10.6015 18.0387 9.87393 17.8639C9.52749 17.759 9.21569 17.5842 8.97318 17.3046C8.73067 17.0599 8.55745 16.7802 8.38423 16.5005C7.9685 15.9412 7.44884 15.4518 6.72131 15.3818C5.95914 15.3119 5.3009 15.8363 4.53873 15.6265C3.94978 15.4518 3.70727 14.8225 3.46476 14.3331C3.1876 13.8087 2.84116 13.1794 2.25221 12.9347C1.94041 12.8299 1.59397 12.8299 1.28217 12.9347C0.93573 12.9697 1.07431 13.4242 1.35146 13.3193Z" fill="#E5E5B7"/>
<path opacity="0.1" d="M10.1162 14.1234C9.42329 13.634 8.66112 13.2494 7.8643 12.8999C7.03284 12.5153 4.74632 10.9771 4.0188 11.9909C0.900818 12.9348 3.63771 18.4583 4.91954 20.3111C5.71636 21.4647 8.69576 23.9118 9.9776 21.9891C10.428 21.2899 10.2547 20.1713 10.324 19.4022C10.3933 18.4583 10.3933 17.5494 10.5319 16.6055C10.7051 15.4868 11.1209 14.8575 10.1162 14.1234Z" fill="white"/>
<path d="M14.3427 4.6845C14.1695 4.82433 14.1002 5.03409 14.2041 5.20888C14.2734 5.31376 14.3774 5.38367 14.4813 5.41863C14.8277 5.59342 15.2435 5.76822 15.382 6.1178C15.5553 6.50235 15.3128 6.95681 15.0356 7.3064C14.7238 7.65598 14.3427 7.93565 13.927 8.11044C13.4073 8.3202 12.7837 8.42507 12.3334 8.80962C12.2294 8.91449 12.1255 9.01937 12.1255 9.1592C12.1255 9.334 12.3334 9.47383 12.5066 9.54375C13.5113 9.92829 14.6892 9.71854 15.5206 9.05433C15.7285 8.87953 15.9363 8.70474 16.1789 8.56491C16.4907 8.39011 16.8717 8.39011 17.2182 8.35515C17.9111 8.25028 18.5693 8.04053 19.1929 7.7259C19.4354 7.62102 19.6433 7.44623 19.8165 7.27144C19.8511 7.20152 19.9204 7.1316 19.9204 7.06169C19.9551 6.92185 19.8165 6.78202 19.6779 6.7121C19.5393 6.64218 19.3661 6.64218 19.2275 6.64218C18.8118 6.64218 18.4307 6.60722 18.0496 6.46739C17.6686 6.32755 17.3568 6.04789 17.1835 5.6983C17.1143 5.52351 17.0796 5.34871 16.9757 5.20888C16.8371 4.96417 16.6292 4.82433 16.4214 4.6845C15.8324 4.40483 14.8624 4.265 14.3427 4.6845Z" fill="#F2DCA5"/>
<path d="M15.1743 21.5344C13.9964 21.5344 12.8185 21.6393 11.6406 21.6743C9.28477 21.7791 6.92897 21.7791 4.57316 21.7791C3.70706 21.7791 2.8756 21.7442 2.04414 21.7442C1.62841 21.7442 1.21268 21.7442 0.796945 21.7442C0.58908 21.7442 -0.103804 21.8141 0.0347727 21.8491V21.9539C0.0347727 22.6181 0.104061 23.4222 0.554436 23.9116C0.935522 27.4424 2.11342 35.9723 2.91024 36.6365C5.02354 38.3845 11.9524 38.4893 13.7885 36.5666C14.4814 35.8325 15.5554 27.9668 15.9365 24.2262C16.3522 23.9466 16.075 23.2824 16.1443 22.6881C16.3175 21.5344 16.2136 21.5694 15.1743 21.5344Z" fill="#EFE0CB"/>
<path d="M7.93366 18.8426C3.67243 18.9125 -0.10379 20.136 0.000143035 21.7441C0.104076 23.3522 2.56381 25.1002 8.00295 25.1002C14.1003 25.1002 16.0404 24.1213 16.3176 21.9189C16.6294 19.9612 12.6453 18.8076 7.93366 18.8426Z" fill="#EF6A60"/>
<path d="M13.7887 36.5667C14.4123 35.9025 15.3823 29.3303 15.8327 25.345C15.3131 25.5198 14.7934 25.7295 14.4816 25.7994C13.373 26.0441 12.2297 26.184 11.1211 26.3588C10.0471 26.5336 8.93852 26.5685 7.79526 26.5685C6.75594 26.5685 5.26624 26.4986 4.40013 25.9742L4.43478 26.1141C4.91979 26.4287 5.85519 26.6384 6.47878 26.7783C8.73066 27.2327 11.0172 27.4075 13.2344 27.862C13.3037 29.0506 13.1998 30.3091 13.0958 31.4977C12.9919 32.7912 12.6801 34.1895 12.3683 35.4131C12.0219 36.8114 10.2204 37.0911 9.04245 37.0911C7.44882 37.0911 5.75125 37.126 4.22691 36.6716C3.77654 36.5317 3.1183 36.0773 2.59863 36.1122C2.70257 36.3919 2.8065 36.6016 2.91043 36.6716C5.02373 38.4195 11.9872 38.5244 13.7887 36.5667Z" fill="#E8D2BF"/>
<path d="M16.8719 24.436C16.4562 23.7368 16.9066 22.2686 15.9019 21.9889C15.3822 21.8491 14.7933 21.9539 14.4122 22.3385C14.2043 22.5482 13.6154 24.0165 14.239 23.8766L14.3429 24.0514C14.9318 24.0165 15.3129 24.5059 15.4515 24.9953C15.5901 25.5197 15.9365 25.9742 16.4215 26.2888C16.9066 26.6034 17.3916 26.5685 17.4955 25.9392C17.5994 25.275 17.1491 24.9254 16.8719 24.436Z" fill="#EF6A60"/>
<path opacity="0.3" d="M2.94497 26.044C2.59853 25.9391 2.21744 25.8342 1.94029 25.9741C1.871 25.9741 1.83635 26.009 1.80171 26.1139C1.76707 26.2188 1.73242 26.3237 1.73242 26.4985C1.73242 26.6732 1.76707 26.883 1.80171 27.0578C1.83635 27.3724 1.871 27.6521 1.90564 27.722C2.04422 28.6659 2.28673 29.6098 2.42531 30.5187C2.56388 31.4276 2.59853 32.3016 2.70246 33.2105C2.77175 33.8048 2.97961 35.4129 3.84572 35.343C4.88504 35.2381 4.26145 33.0008 4.26145 32.3365C4.26145 31.078 4.64253 30.0293 4.91969 28.8407C5.1622 27.4773 4.15751 26.4635 2.94497 26.044Z" fill="white"/>
<path d="M13.7541 29.8197C15.0359 31.8124 14.6894 34.3643 12.9572 35.483C11.225 36.6017 8.86922 35.6578 7.20629 33.9448C5.4048 32.092 5.61266 29.0856 7.34487 27.9669C9.04244 26.8482 12.4376 27.7921 13.7541 29.8197Z" fill="white"/>
<path d="M13.7538 29.8197C13.6153 29.575 13.442 29.3652 13.2688 29.1904C13.2342 29.9595 13.1995 30.7286 13.1302 31.4627C13.0263 32.7562 12.7145 34.1546 12.4027 35.3781C12.3681 35.5529 12.2988 35.6927 12.2295 35.8326C12.472 35.7627 12.7145 35.6228 12.957 35.483C14.6546 34.3643 15.0357 31.8123 13.7538 29.8197Z" fill="#DDDDDD"/>
<path d="M9.28455 28.5612C9.31919 28.4913 9.38848 28.4913 9.45777 28.4913C9.52706 28.5263 9.59634 28.5962 9.5617 28.6661C9.5617 28.7011 9.52706 28.736 9.49241 28.771L9.18061 29.1206L9.14597 29.3303C9.11133 29.4352 9.04204 29.5051 8.93811 29.4701C8.83417 29.4352 8.79953 29.3653 8.83417 29.2604L8.86882 29.0506L8.73024 28.5962C8.73024 28.5612 8.6956 28.5263 8.73024 28.4913C8.73024 28.4214 8.83417 28.3515 8.90346 28.3864C8.97275 28.3864 9.00739 28.4564 9.04204 28.5263L9.11133 28.8059L9.28455 28.5612Z" fill="#EF6A60"/>
<path d="M10.2891 28.7361C10.5316 28.841 10.7048 29.0857 10.5662 29.4353C10.4276 29.7849 10.1505 29.8199 9.90797 29.7499C9.66546 29.6451 9.49224 29.4004 9.63082 29.0508C9.73475 28.7361 10.0119 28.6662 10.2891 28.7361ZM10.1851 28.9809C10.0465 28.9459 9.97726 29.0158 9.90797 29.1556C9.83868 29.2955 9.87333 29.4353 9.97726 29.4703C10.1158 29.5052 10.1851 29.4353 10.2544 29.2955C10.3237 29.1556 10.3237 29.0508 10.1851 28.9809Z" fill="#EF6A60"/>
<path d="M11.1552 29.9944C11.1206 29.9594 11.0859 29.9245 11.1206 29.8545C11.1552 29.7846 11.2245 29.7846 11.2591 29.8196L11.4324 29.9245C11.5017 29.9594 11.5363 30.0643 11.467 30.1342L11.3284 30.3789C11.2938 30.4488 11.2245 30.4838 11.1552 30.4488C11.0859 30.4139 11.0859 30.344 11.1206 30.309V30.274C11.0513 30.309 10.9127 30.274 10.8088 30.2391C10.6355 30.1342 10.4623 29.8895 10.6702 29.5399C10.8781 29.2253 11.1899 29.2253 11.3631 29.3651C11.6402 29.5399 11.6402 29.7147 11.5709 29.7846C11.5363 29.8545 11.467 29.8895 11.3631 29.8196C11.2591 29.7497 11.3284 29.6448 11.2245 29.5749C11.1206 29.505 11.0166 29.5399 10.9127 29.7147C10.8088 29.8545 10.8088 29.9594 10.9473 30.0643C11.0166 30.1342 11.0859 30.0993 11.1552 30.0643V29.9944Z" fill="#EF6A60"/>
<path d="M12.4717 30.344C12.5409 30.274 12.6449 30.2391 12.7142 30.309C12.7835 30.3789 12.7835 30.4488 12.7142 30.5537L12.4024 30.9033C12.1945 31.148 11.9866 31.0781 11.7788 30.9033C11.5709 30.7285 11.5016 30.4838 11.6748 30.274L11.9866 29.9244C12.0559 29.8545 12.1599 29.8196 12.2291 29.8895C12.2984 29.9594 12.2984 30.0293 12.2291 30.1342L11.9173 30.4838C11.8481 30.5537 11.8481 30.6586 11.9173 30.7285C11.9866 30.7984 12.0906 30.7984 12.1599 30.6935L12.4717 30.344Z" fill="#EF6A60"/>
<path d="M12.8873 30.7987C12.9912 30.7288 13.0605 30.7287 13.1644 30.8336L13.4069 31.1133C13.5455 31.2881 13.5455 31.4629 13.4069 31.5678C13.303 31.6377 13.1991 31.6377 13.0951 31.5678C13.1644 31.6377 13.1644 31.7425 13.0951 31.8125L13.0258 31.8824C12.9912 31.9173 12.9566 31.9523 12.9219 31.9873C12.8526 32.0222 12.7833 32.0222 12.7487 31.9523C12.6794 31.8824 12.6794 31.8125 12.7487 31.7425L12.8526 31.6377C12.9219 31.5678 12.8873 31.5328 12.8526 31.4629L12.7833 31.358L12.5755 31.4629C12.5062 31.5328 12.4022 31.5328 12.333 31.4629C12.2637 31.393 12.2637 31.2881 12.3676 31.2182L12.8873 30.7987ZM12.9912 31.323C13.0605 31.393 13.0951 31.393 13.1644 31.358C13.2337 31.323 13.1991 31.2531 13.1644 31.1832L13.0605 31.0434L12.9219 31.1832L12.9912 31.323Z" fill="#EF6A60"/>
<path d="M13.5458 31.7772C13.5111 31.7073 13.5111 31.6374 13.5804 31.6025C13.6497 31.5675 13.719 31.5675 13.7536 31.6724L14.1001 32.2667C14.1694 32.3366 14.1347 32.4065 14.0654 32.4415C13.9962 32.4764 13.9269 32.4764 13.8922 32.4065L13.7883 32.2317L13.3033 32.5463C13.1993 32.6163 13.13 32.5813 13.0608 32.5114C13.0261 32.4415 13.0261 32.3366 13.13 32.2667L13.6151 31.952L13.5458 31.7772Z" fill="#EF6A60"/>
<path d="M11.4674 31.4974C11.2596 31.0779 10.6706 30.6934 10.1856 30.9031C9.83915 31.0429 9.562 31.3226 9.28484 31.4974C9.04233 31.4625 8.69589 31.6372 8.55732 31.7771C8.24552 32.0917 8.14159 32.6161 8.24552 33.0356C8.48803 33.9445 9.35413 34.5039 10.1856 34.8185C10.4627 34.9234 10.9478 34.9933 11.2596 34.8884C11.7792 34.6786 11.7792 34.2242 11.8139 33.8396C11.8485 33.0705 11.8485 32.1616 11.4674 31.4974Z" fill="#ED4B48"/>
<path d="M8.5918 32.3016C8.5918 32.4414 8.62644 32.6162 8.66109 32.7561C8.66109 32.791 8.73037 32.8959 8.76502 32.826C8.76502 32.791 8.73037 32.7561 8.69573 32.826C8.73037 32.826 8.73037 32.826 8.73037 32.791V32.7561C8.73037 32.7211 8.69573 32.6862 8.69573 32.6512C8.69573 32.5114 8.66109 32.4065 8.66109 32.3016C8.66109 32.2667 8.5918 32.2667 8.5918 32.3016Z" fill="#EACE49"/>
<path d="M9.04225 32.1617C9.0769 32.1967 9.11154 32.2666 9.14619 32.3015C9.14619 32.3365 9.18083 32.3365 9.18083 32.3715V32.4064V32.3715H9.21547C9.18083 32.3365 9.14619 32.3715 9.18083 32.4064C9.21547 32.4414 9.25012 32.4064 9.25012 32.3715C9.25012 32.3365 9.21547 32.3015 9.21547 32.3015C9.18083 32.2316 9.11154 32.1268 9.04225 32.0918C9.04225 32.0918 9.00761 32.1617 9.04225 32.1617Z" fill="#EACE49"/>
<path d="M9.70062 31.952C9.76991 32.0219 9.83919 32.0569 9.87384 32.0918C9.90848 32.1268 9.94313 32.0569 9.90848 32.0219C9.83919 31.987 9.76991 31.952 9.73526 31.8821C9.73526 31.8821 9.66597 31.917 9.70062 31.952Z" fill="#EACE49"/>
<path d="M10.1853 31.6375C10.2893 31.7074 10.3585 31.7423 10.4625 31.8123C10.4971 31.8123 10.5318 31.7773 10.4625 31.7423C10.3585 31.7074 10.2893 31.6375 10.1853 31.6025C10.1853 31.5675 10.1507 31.6375 10.1853 31.6375Z" fill="#EACE49"/>
<path d="M10.7745 31.218C10.8092 31.218 10.8092 31.1481 10.7745 31.1481C10.7399 31.1481 10.7399 31.218 10.7745 31.218Z" fill="#EACE49"/>
<path d="M10.7743 31.218C10.8436 31.253 10.9129 31.3229 10.9822 31.3579C11.0168 31.3928 11.0515 31.3229 11.0168 31.288C10.9822 31.288 10.9476 31.253 10.9476 31.218C10.9129 31.1831 10.8783 31.1481 10.8436 31.1132C10.7743 31.1481 10.7397 31.218 10.7743 31.218Z" fill="#EACE49"/>
<path d="M8.5918 33.2806C8.62644 33.3855 8.66109 33.4904 8.73037 33.5603C8.76502 33.5952 8.79966 33.5603 8.76502 33.5253C8.69573 33.4554 8.66109 33.3505 8.66109 33.2806C8.62644 33.2107 8.5918 33.2456 8.5918 33.2806Z" fill="#EACE49"/>
<path d="M9.14648 33.1058C9.18113 33.1757 9.21577 33.2456 9.28506 33.2806C9.3197 33.3155 9.35435 33.2806 9.3197 33.2456C9.28506 33.2106 9.21577 33.1407 9.18113 33.0708C9.18113 33.0359 9.14648 33.0708 9.14648 33.1058Z" fill="#EACE49"/>
<path d="M9.83906 32.7562C9.90835 32.8261 9.97764 32.896 10.0469 32.931C10.0816 32.931 10.1162 32.861 10.0469 32.861C9.97764 32.8261 9.90835 32.7562 9.8737 32.7212C9.83906 32.6862 9.80441 32.7212 9.83906 32.7562Z" fill="#EACE49"/>
<path d="M10.4282 32.4764C10.4628 32.5463 10.4974 32.6162 10.5667 32.6512C10.6014 32.6861 10.636 32.6512 10.6014 32.6162C10.5667 32.5813 10.5321 32.5113 10.4628 32.4414C10.4628 32.4065 10.3935 32.4414 10.4282 32.4764Z" fill="#EACE49"/>
<path d="M10.9474 32.2667C10.9821 32.3017 11.0167 32.3366 11.0514 32.4066C11.086 32.4415 11.1207 32.4066 11.1207 32.3716C11.086 32.3366 11.0514 32.3017 11.0167 32.2318C10.9821 32.1968 10.9128 32.2318 10.9474 32.2667Z" fill="#EACE49"/>
<path d="M11.3634 32.0221C11.3981 32.092 11.4327 32.1619 11.4327 32.2318C11.4327 32.2668 11.502 32.2668 11.502 32.2318C11.502 32.1619 11.4674 32.092 11.4327 31.9871C11.3981 31.9871 11.3288 31.9871 11.3634 32.0221Z" fill="#EACE49"/>
<path d="M9.31953 33.9798C9.38881 34.0497 9.49275 34.1196 9.56204 34.1546C9.59668 34.1546 9.63132 34.1196 9.59668 34.0846C9.49275 34.0497 9.42346 33.9798 9.35417 33.9099C9.31953 33.9099 9.28488 33.9448 9.31953 33.9798Z" fill="#EACE49"/>
<path d="M9.90846 33.7697C9.97775 33.8047 10.0124 33.8746 10.0817 33.8746C10.1163 33.8746 10.151 33.8397 10.0817 33.8047C10.0124 33.7697 9.97775 33.7348 9.90846 33.6998C9.90846 33.6998 9.87382 33.7348 9.90846 33.7697Z" fill="#EACE49"/>
<path d="M10.5322 33.4202C10.5668 33.4901 10.6361 33.56 10.6707 33.6299C10.7054 33.6649 10.74 33.6299 10.7054 33.595C10.6707 33.5251 10.6014 33.4901 10.5668 33.4202C10.5668 33.3503 10.4975 33.3852 10.5322 33.4202Z" fill="#EACE49"/>
<path d="M11.1212 33.1756C11.1558 33.1756 11.1558 33.1057 11.1212 33.1057C11.0866 33.1057 11.0866 33.1756 11.1212 33.1756Z" fill="#EACE49"/>
<path d="M11.0861 33.1407C11.1207 33.2106 11.1554 33.2805 11.19 33.3504C11.19 33.3854 11.2593 33.3854 11.2593 33.3504C11.2593 33.2805 11.2247 33.1756 11.1554 33.1057C11.1207 33.0708 11.0515 33.1057 11.0861 33.1407Z" fill="#EACE49"/>
<path d="M11.5715 32.9307C11.6061 33.0006 11.6061 33.0706 11.5715 33.1405C11.5715 33.1754 11.6407 33.2104 11.6407 33.1405C11.6407 33.0706 11.6407 32.9657 11.6407 32.8958C11.6061 32.8608 11.5368 32.8608 11.5715 32.9307Z" fill="#EACE49"/>
<path d="M10.1164 34.5741C10.1857 34.609 10.2896 34.679 10.3936 34.679C10.4282 34.679 10.4282 34.609 10.3936 34.609C10.2896 34.609 10.2203 34.5741 10.151 34.5391C10.1164 34.4692 10.0818 34.5391 10.1164 34.5741Z" fill="#EACE49"/>
<path d="M10.5666 34.2592C10.6359 34.3291 10.7052 34.3641 10.8091 34.399C10.8437 34.399 10.8784 34.3291 10.8091 34.3291C10.7398 34.3291 10.6705 34.2592 10.6012 34.2243C10.5666 34.1893 10.532 34.2243 10.5666 34.2592Z" fill="#EACE49"/>
<path d="M11.0514 34.0495C11.0861 34.0845 11.0861 34.1544 11.1207 34.1893C11.1554 34.2243 11.19 34.1893 11.19 34.1544C11.1554 34.0845 11.1554 34.0495 11.1207 34.0145C11.0861 33.9796 11.0168 34.0145 11.0514 34.0495Z" fill="#EACE49"/>
<path d="M11.606 33.7348C11.606 33.8047 11.6406 33.8397 11.606 33.9096C11.606 33.9445 11.6752 33.9795 11.6752 33.9096C11.6752 33.8397 11.6752 33.7697 11.6752 33.6998C11.6406 33.6998 11.606 33.6998 11.606 33.7348Z" fill="#EACE49"/>
<path d="M10.9129 34.7136C10.9822 34.7486 11.0861 34.7836 11.19 34.7836C11.2247 34.7836 11.2247 34.7136 11.19 34.7136C11.1208 34.7136 11.0168 34.6787 10.9475 34.6787C10.8782 34.6437 10.8782 34.7136 10.9129 34.7136Z" fill="#EACE49"/>
<path d="M11.1557 34.5739C11.1903 34.6088 11.225 34.6438 11.2943 34.6438C11.3289 34.6438 11.3289 34.5739 11.2943 34.5739L11.2596 34.5389L11.225 34.504C11.1557 34.504 11.121 34.5389 11.1557 34.5739Z" fill="#EACE49"/>
<path d="M11.5367 34.3293C11.5714 34.3293 11.5714 34.2594 11.5367 34.2594C11.5021 34.2594 11.5021 34.3293 11.5367 34.3293Z" fill="#EACE49"/>
<path d="M11.502 34.3291C11.502 34.399 11.502 34.434 11.502 34.5039C11.502 34.5389 11.5712 34.5738 11.5712 34.5039C11.5712 34.434 11.5712 34.3641 11.5712 34.2941C11.5366 34.2592 11.502 34.2592 11.502 34.3291Z" fill="#EACE49"/>
<path d="M9.31929 31.008C9.18071 30.8681 9.11142 30.6234 9.04214 30.4486C8.90356 30.4836 8.59176 30.6234 8.48783 30.7633C8.69569 30.9031 8.9382 31.0779 9.11142 31.2876C8.66105 31.2177 8.14139 31.5324 7.82959 31.812C8.0721 31.812 8.27996 31.812 8.52247 31.812C8.69569 31.812 9.07678 31.7771 9.21536 31.6372L9.14607 31.6722C9.38858 31.5673 9.63109 31.4275 9.80431 31.2177C9.90824 31.1129 10.0468 30.973 10.1161 30.8332C10.1854 30.6933 10.1854 30.4836 10.324 30.3787C9.8736 30.3787 9.45787 30.5885 9.31929 31.008Z" fill="#53B748"/>
<g opacity="0.5">
<path opacity="0.5" d="M1.45508 22.0936C1.48972 22.9676 2.52905 23.3172 3.22193 23.5269C4.26126 23.8416 5.36987 24.0164 6.44384 24.1212C7.96819 24.2611 9.49253 24.1562 11.0169 24.0164C12.0908 23.9115 13.3034 23.7717 14.2388 23.1774C14.6545 22.8977 15.0356 22.4782 15.1742 21.9538C15.2781 21.4993 15.1049 21.0449 14.7931 20.7303C13.927 19.8213 12.4719 19.6116 11.3287 19.4717C9.83897 19.262 8.38392 19.3319 6.89422 19.4018C5.68167 19.4368 4.39983 19.5067 3.29122 19.9961C2.66762 20.2758 2.04403 20.7303 1.76688 21.3945C1.83616 21.3945 1.9401 21.4294 2.00939 21.4294C2.00939 21.3945 2.00939 21.3595 2.00939 21.3245C2.00939 21.1498 1.76688 21.1498 1.76688 21.3245C1.76688 21.3595 1.76688 21.3945 1.76688 21.4294C1.76688 21.5693 1.97474 21.6042 2.00939 21.4644C2.25189 20.8351 2.91013 20.4156 3.53373 20.1709C4.12268 19.9262 4.78092 19.8213 5.40452 19.7514C6.02811 19.6815 6.65171 19.6465 7.2753 19.6465C8.00283 19.6116 8.73036 19.5766 9.45789 19.6116C10.2547 19.6116 11.0862 19.6815 11.883 19.8213C12.5412 19.9262 13.2341 20.101 13.8577 20.3807C14.3427 20.6254 14.8624 20.94 15.001 21.4993C15.1395 22.0936 14.6199 22.653 14.1695 22.9676C13.3034 23.5619 12.1255 23.6668 11.0862 23.7717C9.7004 23.9115 8.31463 24.0164 6.89422 23.9115C5.82025 23.8416 4.74628 23.6318 3.70695 23.3871C3.08336 23.2123 1.83616 22.9326 1.80152 22.0936C1.69759 21.9188 1.45508 21.9188 1.45508 22.0936Z" fill="white"/>
</g>
<path opacity="0.1" d="M10.7398 19.7864C10.1854 19.3319 9.11148 19.4368 8.41859 19.4368C6.51316 19.4368 4.46916 19.5766 2.66766 20.2059C2.11335 20.4156 1.38582 20.7652 1.10867 21.3246C0.935449 21.5343 0.796872 21.814 0.831516 22.1286C0.86616 22.7928 1.62833 23.0375 2.148 23.2123C2.80624 23.457 3.53376 23.5969 4.192 23.4221C5.30062 23.1424 4.33058 22.653 4.43451 21.9189C4.57309 21.0449 6.33994 20.975 6.96354 20.9051C7.93358 20.8002 8.93826 20.6953 9.90829 20.6603C10.3933 20.6953 11.4326 20.3457 10.7398 19.7864Z" fill="white"/>
</g>
<defs>
<clipPath id="clip0_678_3973">
<rect width="37" height="38" fill="white"/>
</clipPath>
</defs>
</svg>
