<svg width="46" height="19" viewBox="0 0 46 19" fill="none" xmlns="http://www.w3.org/2000/svg">
<g clip-path="url(#clip0_678_4202)">
<path d="M0.268065 14.4119C0.428904 14.7898 0.643357 15.1136 0.911422 15.3295C2.14452 16.4091 4.5035 15.6534 6.00466 15.9233C7.55944 16.1932 8.95338 17.1648 10.4545 17.6506C10.7226 17.7585 10.9907 17.8125 11.2051 17.8665C12.5991 18.1364 13.6713 19 15.1725 18.946C16.9417 18.8381 18.4429 18.1903 20.1585 17.8125C21.7133 17.4347 23.1608 17.2727 24.7692 17.2188C26.3776 17.2188 27.5571 17.5426 29.0583 17.8665C29.4336 17.9205 29.7552 18.0284 30.1305 18.0824C32.7576 18.6222 35.4918 19 38.0653 18.0284C38.3333 17.9205 38.6014 17.8125 38.9231 17.7585C41.0676 17.0568 43.373 16.4091 44.7669 14.4659C45.0886 14.0341 45.303 13.5483 45.5175 13.0085C45.8928 11.983 46.0536 10.7415 46.0536 9.76989C46.0536 8.58239 45.6783 7.88068 45.0886 7.39489C44.4452 6.90909 43.5338 6.69318 42.4079 6.58523C41.4965 6.47727 40.6387 6.80114 39.7809 6.85511C39.2448 6.90909 38.7086 6.90909 38.1725 6.90909C35.7599 6.90909 33.2937 6.69318 30.9347 6.15341C29.4872 5.82955 28.1469 5.39773 26.8601 4.85796C23.6434 3.50852 20.1049 2.64489 16.6737 2.69886C15.0653 2.69886 13.3496 2.69886 11.7949 2.91477C10.9907 3.02273 10.2401 3.29261 9.48951 3.50852C9.06061 3.61648 8.68531 3.72443 8.25641 3.77841C6.54079 4.0483 5.09324 4.10227 3.6993 5.2358C2.8951 5.88352 1.93007 6.90909 1.44755 7.77273C0.482517 9.28409 -0.482517 12.4688 0.268065 14.4119Z" fill="#B0502E"/>
<path d="M29.9159 16.6251C29.9159 17.1109 29.9696 17.6507 30.1304 18.1365C32.7574 18.6762 35.4917 19.0541 38.0651 18.0825C38.3332 17.9745 38.6013 17.8666 38.9229 17.8126C39.4591 17.3808 39.9952 16.841 40.3705 16.2473C41.2283 14.8978 41.3891 13.2245 41.7108 11.6052C41.818 11.0654 41.9789 10.4717 41.8716 9.93192C41.7108 9.01431 40.9066 8.42056 40.1024 7.93476C39.4591 7.55692 38.8157 7.23306 38.1187 6.96317C36.4031 6.26147 34.5267 5.82965 32.6502 5.82965C32.0069 5.82965 31.3635 5.88363 30.8274 6.20749C30.7738 6.20749 30.7201 6.26147 30.7201 6.31545C29.9159 6.9092 29.8087 8.04272 29.8087 9.06829C29.7015 11.5512 29.7551 14.0882 29.9159 16.6251Z" fill="#C75A34"/>
<path d="M7.18385 11.1735C10.9904 11.3894 14.4752 13.5485 18.2818 13.3326C20.6407 13.2246 22.8925 12.1451 25.2515 12.1451C27.8249 12.1451 30.1839 13.2786 32.7037 13.4945C36.5638 13.8183 40.1559 11.9831 43.4263 10.2019C44.3913 9.6621 45.4636 9.01437 45.5172 8.04278C45.5172 7.34107 44.9811 6.69335 44.2305 6.31551C43.5335 5.93766 42.6757 5.82971 41.8715 5.66778C35.7596 4.4263 30.023 1.99732 23.8575 0.70187C21.1769 0.10812 18.3354 -0.215744 15.5475 0.162097C12.1163 0.647892 9.11392 2.26721 6.16521 3.77857C4.71765 4.53426 3.2701 5.34391 2.41229 6.53141C1.55448 7.77289 1.55448 9.55414 2.8412 10.4178C3.96707 11.2814 5.68269 11.1195 7.18385 11.1735Z" fill="#D8774A"/>
<path d="M23.9115 1.1336C21.1773 0.593823 18.3358 0.323936 15.5479 0.701777C12.1167 1.1336 9.11434 2.537 6.16562 3.94041C5.62949 4.2103 5.09336 4.42621 4.61084 4.69609C5.14697 4.37223 5.6831 4.10234 6.16562 3.83246C9.11434 2.26712 12.1167 0.6478 15.5479 0.162004C18.3358 -0.215836 21.1773 0.108027 23.8579 0.6478C28.415 1.61939 32.7041 3.18473 37.154 4.48019C32.7041 3.34666 28.415 1.94325 23.9115 1.1336Z" fill="#BF8E7D"/>
<path d="M2.78804 9.82401C3.96753 10.5257 5.68315 10.3638 7.18432 10.4178C10.9908 10.5797 14.4757 12.5229 18.2822 12.307C20.6412 12.199 22.8929 11.2814 25.2519 11.2274C27.8253 11.2274 30.1843 12.253 32.7041 12.4149C36.5643 12.6848 40.1563 11.0655 43.4804 9.50014C44.3918 9.06833 45.4104 8.47458 45.5177 7.66492C45.5177 7.77287 45.5713 7.82685 45.5177 7.9348C45.464 8.90639 44.3918 9.6081 43.4267 10.0939C40.1563 11.8751 36.5643 13.7104 32.7041 13.3865C30.1843 13.1706 27.8253 11.9831 25.2519 12.0371C22.8929 12.0371 20.6412 13.1166 18.2822 13.2246C14.4757 13.4405 10.9908 11.2814 7.18432 11.0655C5.68315 11.0115 3.96753 11.1734 2.78804 10.3638C2.03746 9.82401 1.71578 9.01435 1.7694 8.15071C1.82301 8.85242 2.14469 9.44617 2.78804 9.82401Z" fill="#BF8E7D"/>
<path d="M0.268066 14.412C0.428906 14.7899 0.643358 15.1137 0.911423 15.3296C2.14452 16.4092 4.5035 15.6535 6.00466 15.9234C7.82751 16.2473 9.4359 17.5427 11.2051 17.9206C12.5991 18.1904 13.6713 19.0541 15.1725 19.0001C16.9417 18.8921 18.4429 18.2444 20.1585 17.8666C21.7133 17.4887 23.1608 17.3268 24.7692 17.2728C26.3776 17.2728 27.5571 17.5967 29.0583 17.9206C32.007 18.5143 35.1702 19.162 38.0653 18.0825C40.4242 17.2728 43.1585 16.7331 44.7133 14.574C45.035 14.1421 45.2494 13.6563 45.4639 13.1166C41.6573 16.895 35.9744 18.6762 30.7203 17.6507C27.9324 17.1109 24.9837 16.5171 22.1422 17.0029C19.3007 17.4887 16.4592 18.2444 13.6177 17.8126C11.1515 17.4348 8.95338 16.1393 6.48718 15.6535C5.09324 15.3836 3.64569 15.3836 2.25175 15.1137C1.60839 14.9518 0.911423 14.7359 0.268066 14.412Z" fill="#6B301C"/>
<path d="M33.7764 4.96601C35.5456 5.18192 37.3684 5.4518 39.1377 5.72169C40.1563 5.88362 41.3358 6.15351 41.8183 7.07112C42.3008 7.98874 41.8183 9.23021 40.9605 9.87794C40.1027 10.5257 39.0304 10.6876 38.0118 10.7956C36.9395 10.9035 35.8673 10.9575 34.795 10.9575C34.4197 10.9575 34.098 10.9575 33.7227 10.9035C33.4011 10.8495 33.0794 10.7416 32.7577 10.6336C31.471 10.2558 30.1843 9.82396 28.8976 9.44612C28.4687 9.28419 27.9325 9.0143 27.9861 8.58248C28.0398 8.15067 28.5223 7.98874 28.8976 7.88078C30.1307 7.50294 31.2565 6.74726 32.1144 5.77567C32.3824 5.4518 32.6505 5.12794 33.0258 5.01999C33.2402 4.91203 33.5083 4.96601 33.7764 4.96601Z" fill="#C96F45"/>
<path d="M17.7994 9.87786C17.9067 8.90626 18.0139 7.98865 18.1211 7.01706C18.1747 6.58524 18.2283 6.15342 18.1211 5.72161C17.9603 4.96592 17.3169 4.37217 16.888 3.72445C16.4591 3.07672 16.191 2.10513 16.7808 1.51138C17.4241 0.863651 18.4964 1.24149 19.3542 1.56536C22.3029 2.75286 25.5733 2.6449 28.7365 2.91479C29.3799 2.96876 30.0768 3.07672 30.5593 3.50854C31.0419 3.94036 31.1491 4.85797 30.5593 5.23581C30.1304 5.5057 29.6479 5.34376 29.1654 5.39774C28.522 5.5057 28.0931 6.04547 27.7178 6.58524C27.0745 7.55683 26.2703 8.63638 26.2703 9.82388C25.1444 9.98581 24.0185 9.33808 22.8391 9.28411C21.1771 9.23013 19.4614 10.3637 17.7994 9.87786Z" fill="#C96F45"/>
<path d="M16.4058 10.0397C16.245 10.2017 15.9769 10.2556 15.7625 10.2556C13.2963 10.5255 10.9909 8.25847 8.52469 8.74427C7.66688 8.9062 6.80907 9.39199 6.00488 9.06813C5.62958 8.9062 5.36152 8.52836 5.09345 8.15052C4.82539 7.7187 4.61094 7.28688 4.39648 6.80109C5.62958 6.74711 6.80907 6.20734 8.04217 6.0454C9.54334 5.88347 10.9909 6.31529 12.4384 6.74711C12.9746 5.93745 12.2776 4.8579 12.2776 3.83234C12.2776 2.59086 13.6179 1.56529 14.7974 1.88915C14.3685 2.86075 15.1727 3.88631 15.7625 4.80393C16.5666 6.09938 16.8883 7.7187 16.6739 9.23006C16.6739 9.55393 16.6203 9.82381 16.4058 10.0397Z" fill="#C96F45"/>
<path d="M17.6922 2.21326C18.6573 2.21326 19.3543 2.5911 19.1934 2.86099C19.944 3.13087 19.944 3.45474 20.3729 3.7786C20.8018 4.10246 21.7132 4.2644 22.1421 4.58826C22.571 4.91212 22.3566 5.28996 22.7855 5.61383C23.268 5.99167 23.8577 6.1536 24.233 6.53144C25.0908 7.23315 25.895 7.98883 26.7529 8.69053C27.0745 8.96042 28.1468 9.33826 28.3076 9.66212C28.4685 9.93201 27.9323 10.04 27.9323 10.2559C27.9323 10.4718 28.4685 10.6877 28.5221 10.8496C27.7179 10.9036 27.1281 10.3638 26.7529 10.1479C26.1095 9.77008 26.3239 9.60815 26.0023 9.17633C25.7878 8.85246 24.8764 8.5286 24.4475 8.25872C24.0722 7.98883 23.9114 7.66496 23.6433 7.39508C23.0536 6.74735 21.8741 6.26156 21.2843 5.66781C21.0163 5.39792 20.8554 5.02008 20.4801 4.75019C19.8904 4.42633 19.1398 4.37235 18.979 3.88656C18.0675 3.83258 17.7995 3.23883 17.6386 2.91496C16.8881 2.80701 16.7272 2.48315 17.1025 2.21326C17.2633 2.15928 17.5314 2.21326 17.6922 2.21326Z" fill="#642917"/>
<path d="M12.0094 2.32118C12.4383 2.05129 13.8322 2.48311 14.0467 2.753C14.422 3.18481 13.6714 3.56266 14.5828 4.04845C15.3334 4.42629 16.6201 4.58822 17.2098 5.02004C17.6924 5.39788 17.5315 5.8297 18.014 6.26152C18.5502 6.63936 19.2471 6.96322 19.6224 7.39504C19.9977 7.88084 20.0513 8.25868 20.8555 8.6905C22.0886 9.33822 22.7856 10.2019 22.8928 11.0115C22.3031 10.7416 21.9814 10.3098 21.8206 9.98595C20.4266 9.878 19.5152 8.6905 18.9791 8.2047C18.2821 7.503 17.3707 6.90925 16.352 6.3155C15.7087 5.93766 16.0304 5.55981 15.5478 5.18197C15.0117 4.80413 14.1003 4.6422 13.6178 4.21038C13.1352 3.77856 12.9744 3.56266 12.8672 3.13084C12.7063 2.64504 12.1702 2.42913 11.7949 1.99731L12.0094 2.32118Z" fill="#642917"/>
<path d="M8.25613 3.29275C8.9531 3.29275 10.2398 4.48024 10.7759 4.80411C11.6874 5.39786 11.6874 6.15354 12.1699 6.80127C12.6524 7.449 14.1 8.04275 14.9042 8.63649C15.762 9.28422 16.3517 9.71604 16.3517 10.4717C16.4589 10.0939 14.6897 9.12229 14.1 8.79843C13.2421 8.31263 11.5265 7.82684 11.3657 7.17911C10.5615 7.07115 10.7223 6.42343 10.6151 6.15354C10.4007 5.61377 9.97175 5.45184 9.27478 5.07399C8.63143 4.80411 6.32606 3.23877 8.25613 3.29275Z" fill="#803018"/>
<path d="M24.6619 2.80689C26.9137 3.88644 27.2353 5.3978 29.4871 6.47734C30.1305 6.80121 30.2377 6.96314 30.6666 7.34098C31.0419 7.71882 31.8997 7.93473 32.3286 8.31257C32.6503 8.58246 32.6503 8.9603 33.0792 9.28416C33.4008 9.55405 33.937 9.71598 33.9906 9.98587C34.2587 9.98587 34.8484 9.93189 35.1165 9.87791C34.6339 9.28416 33.0792 8.79837 32.4894 8.20462C31.8461 7.55689 31.6852 6.80121 30.8274 6.15348C30.6666 6.04553 30.1305 5.99155 29.916 5.82962C29.7015 5.66769 29.8624 5.3978 29.7552 5.23587C29.4871 4.85803 28.8437 4.53416 28.3612 4.2103C27.4498 3.56257 26.4848 2.91484 24.7155 2.64496C24.3939 2.75291 24.3402 2.69894 24.6619 2.80689Z" fill="#7A2E17"/>
<path d="M32.9184 4.85815C32.972 4.80418 32.8111 4.69622 33.0256 4.69622C33.5081 5.28997 33.937 5.9377 34.4731 6.47747C35.0629 7.01724 35.6526 7.17918 36.4032 7.55702C37.0466 7.88088 37.3146 8.42065 37.7972 8.90645C38.0652 9.12236 38.1724 9.23031 38.4405 9.33826C38.655 9.44622 38.9766 9.28429 39.1911 9.55417C39.1911 9.55417 39.2983 9.39224 39.2983 9.44622C38.8158 8.90645 38.1188 8.63656 37.6363 8.09679C37.1538 7.55702 36.5641 7.1252 35.9207 6.6394C35.2237 6.04565 34.0442 3.72463 32.7039 3.99452C32.5431 4.53429 32.8648 4.7502 33.1864 5.12804L32.9184 4.85815Z" fill="#803018"/>
<path d="M41.925 8.58261C41.7641 8.20477 40.8527 7.71897 40.531 7.23318C40.3166 6.85534 40.2094 6.6934 39.8877 6.36954C39.566 5.9917 39.2443 5.88374 39.0835 5.39795C40.4774 6.20761 41.7641 7.1792 41.925 8.58261Z" fill="#732F1B"/>
<path d="M4.87861 5.12798C5.57558 5.61377 6.37978 6.42343 6.80868 7.07116C7.23759 7.77286 7.55927 8.58252 7.98817 9.23025C7.77372 8.85241 7.18397 8.74445 6.80868 8.47457C6.43339 8.1507 6.21894 7.71888 6.00449 7.34104C5.52197 6.47741 4.71777 5.93763 4.71777 5.02002C4.87861 4.96604 4.825 5.074 4.87861 5.12798Z" fill="#803018"/>
</g>
<defs>
<clipPath id="clip0_678_4202">
<rect width="46" height="19" fill="white"/>
</clipPath>
</defs>
</svg>
