<svg width="39" height="31" viewBox="0 0 39 31" fill="none" xmlns="http://www.w3.org/2000/svg">
<g clip-path="url(#clip0_677_3716)">
<path d="M15.27 4.88494C15.27 4.88494 19.3261 0.150819 26.4528 2.80082C26.4528 2.80082 22.3943 9.68347 15.27 4.88494Z" fill="#5C7732"/>
<path d="M15.27 4.88494C15.27 4.88494 19.3261 0.150819 26.4528 2.80082C26.4528 2.80082 19.6434 4.37886 15.27 4.88494Z" fill="#69893E"/>
<path d="M13.8501 9.23269L15.1528 0.679993L16.675 1.57943L14.585 9.46963C14.334 9.40906 14.0883 9.32984 13.8501 9.23269Z" fill="#69893E"/>
<path d="M26.3237 19.2461C26.3237 25.3651 17.4076 30.2326 10.4121 30.2326C3.41662 30.2326 0 24.8935 0 18.7746C0 12.6556 5.67368 7.69379 12.6715 7.69379C19.6694 7.69379 26.3237 13.1272 26.3237 19.2461Z" fill="#E87F18"/>
<path d="M11.9296 10.3781C13.5711 8.3239 17.8705 8.91509 20.2183 10.6588C22.566 12.4024 22.2821 15.0501 20.6406 17.0997C18.9991 19.1493 15.7614 19.4001 13.4137 17.6587C11.0659 15.9174 10.2834 12.4346 11.9296 10.3781Z" fill="#E89B34"/>
<path d="M26.8961 29.8805C24.5933 29.8805 22.3422 29.2221 20.4275 27.9886C18.5128 26.7551 17.0205 25.0019 16.1392 22.9507C15.258 20.8994 15.0274 18.6423 15.4767 16.4648C15.9259 14.2872 17.0348 12.287 18.6632 10.717C20.2915 9.14707 22.3661 8.07793 24.6247 7.64478C26.8832 7.21163 29.2243 7.43394 31.3518 8.28359C33.4793 9.13323 35.2978 10.5721 36.5771 12.4181C37.8565 14.2642 38.5394 16.4345 38.5394 18.6548C38.5362 21.6311 37.3085 24.4846 35.1257 26.5892C32.9428 28.6938 29.9832 29.8774 26.8961 29.8805Z" fill="#FFB506"/>
<path d="M26.8963 8.00446C24.6945 8.00446 22.5421 8.63396 20.7113 9.81336C18.8806 10.9928 17.4537 12.6691 16.6111 14.6304C15.7685 16.5917 15.548 18.7498 15.9776 20.8319C16.4071 22.914 17.4674 24.8265 19.0243 26.3276C20.5813 27.8287 22.5649 28.8509 24.7244 29.2651C26.884 29.6792 29.1224 29.4667 31.1566 28.6543C33.1908 27.8419 34.9295 26.4662 36.1528 24.7011C37.376 22.936 38.0289 20.8608 38.0289 18.7379C38.0258 15.8921 36.8519 13.1638 34.7648 11.1516C32.6777 9.13932 29.8479 8.0075 26.8963 8.00446ZM18.2546 14.2522C18.2856 14.1671 19.1373 12.0577 20.4878 11.6712C20.5894 11.6435 20.6946 11.6295 20.8003 11.6298C20.9585 11.6301 21.1147 11.6629 21.2587 11.726C21.4027 11.7891 21.5311 11.881 21.6354 11.9956L25.5697 17.3347C25.6127 17.3899 25.8322 17.6889 25.7368 17.8684C25.7134 17.9083 25.6782 17.9405 25.6357 17.961C25.5932 17.9815 25.5453 17.9893 25.4982 17.9834C25.3337 17.9716 25.1724 17.9335 25.021 17.8707L18.579 15.8003C18.4758 15.7707 18.3805 15.7198 18.2997 15.651C18.219 15.5823 18.1547 15.4975 18.1114 15.4024C17.9683 15.124 18.016 14.7307 18.2546 14.2522ZM17.4815 20.6932C16.625 19.6166 17.2238 17.429 17.2429 17.3347C17.429 16.38 17.9134 16.2351 18.1973 16.2351C18.2851 16.2355 18.3723 16.2503 18.455 16.2788L24.9303 18.2479C25.3264 18.3537 25.5125 18.4779 25.5149 18.6298C25.5149 18.846 25.126 18.9748 25.0377 19.0001L18.6101 21.0911C18.5245 21.108 18.4373 21.1165 18.35 21.1164C18.1811 21.1157 18.0147 21.0771 17.8639 21.0036C17.7132 20.9302 17.5823 20.8239 17.4815 20.6932ZM20.8003 25.8C20.6945 25.8006 20.5891 25.7859 20.4878 25.7563C19.1373 25.3721 18.2856 23.2627 18.2522 23.173C18.0136 22.6945 17.9683 22.3011 18.1114 22.0228C18.1591 21.9317 18.2263 21.8514 18.3086 21.7872C18.3908 21.7229 18.4863 21.6762 18.5886 21.6501L25.0305 19.5683C25.1821 19.5062 25.3434 19.4689 25.5077 19.4579C25.5548 19.452 25.6027 19.4598 25.6452 19.4803C25.6877 19.5007 25.7229 19.533 25.7463 19.5729C25.8417 19.7523 25.6222 20.0514 25.5793 20.1089L21.6425 25.4365C21.5374 25.5524 21.408 25.6456 21.2628 25.7098C21.1177 25.7741 20.96 25.8079 20.8003 25.8092V25.8ZM26.641 27.2492C26.6457 27.3413 26.6314 27.4335 26.5991 27.5203C26.5667 27.6072 26.5169 27.687 26.4525 27.7553C26.3356 27.8615 26.1968 27.9426 26.045 27.9933C25.8933 28.0441 25.7321 28.0633 25.5721 28.0497C25.4572 28.0484 25.3425 28.0407 25.2286 28.0267C25.1355 28.0267 22.7902 27.9163 21.9837 26.8052C21.8637 26.6375 21.7955 26.4404 21.787 26.2368C21.7786 26.0332 21.8303 25.8315 21.936 25.655L25.9348 20.3642C25.9753 20.3113 26.1734 20.0376 26.3786 20.0376C26.4059 20.0381 26.4328 20.0438 26.4578 20.0545C26.4828 20.0651 26.5054 20.0805 26.5241 20.0997C26.6172 20.1917 26.6529 20.3826 26.641 20.7024V27.2492ZM26.5241 17.3209C26.5052 17.3397 26.4826 17.3547 26.4576 17.365C26.4326 17.3753 26.4057 17.3806 26.3786 17.3807C26.1829 17.3807 25.9753 17.1092 25.9348 17.054L21.9503 11.7793C21.8442 11.6033 21.7918 11.4018 21.7994 11.1983C21.807 10.9947 21.8742 10.7974 21.9933 10.6292C22.7997 9.51809 25.1451 9.40997 25.2453 9.40767C25.3568 9.39346 25.4692 9.38578 25.5817 9.38467C25.7417 9.37107 25.9028 9.39028 26.0546 9.44103C26.2063 9.49178 26.3452 9.57291 26.4621 9.67911C26.527 9.74842 26.5771 9.82942 26.6094 9.91745C26.6418 10.0055 26.6558 10.0988 26.6506 10.1921V16.7297C26.6529 17.0471 26.6172 17.2427 26.5241 17.3301V17.3209ZM33.0758 11.616C33.1815 11.6156 33.2867 11.6295 33.3884 11.6574C34.7388 12.0439 35.5905 14.1533 35.6263 14.243C35.8649 14.7215 35.9079 15.1148 35.7647 15.3932C35.7176 15.485 35.6507 15.5659 35.5684 15.6306C35.486 15.6953 35.3903 15.7422 35.2875 15.7681L28.8456 17.8384C28.694 17.9006 28.5327 17.9379 28.3684 17.9489C28.3213 17.9548 28.2734 17.947 28.2309 17.9265C28.1884 17.906 28.1532 17.8738 28.1298 17.8338C28.0368 17.6544 28.2539 17.3554 28.2992 17.2979L32.236 11.9979C32.3403 11.8816 32.4693 11.7883 32.6141 11.724C32.7589 11.6597 32.9164 11.626 33.0758 11.6252V11.616ZM27.0657 16.8516L27.2089 10.3163C27.2344 10.1119 27.3197 9.91882 27.4549 9.75953C27.5901 9.60024 27.7696 9.48138 27.9723 9.41687C28.1595 9.36195 28.3542 9.3348 28.5497 9.33636C29.8143 9.33636 31.2673 10.3048 31.3293 10.3462C31.8065 10.6131 32.0689 10.9121 32.1191 11.2295C32.1339 11.3292 32.1266 11.4307 32.0979 11.5274C32.0691 11.6242 32.0194 11.7139 31.952 11.7908L27.8364 16.9988C27.6336 17.2795 27.4713 17.4106 27.3329 17.4106C27.3055 17.4106 27.2784 17.4051 27.2533 17.3944C27.2282 17.3837 27.2058 17.3681 27.1874 17.3485C27.0915 17.2002 27.0488 17.0256 27.0657 16.8516ZM32.1191 26.214C32.0689 26.5315 31.8017 26.8305 31.3222 27.102C31.2673 27.1388 29.8143 28.1072 28.5497 28.1072C28.3542 28.1088 28.1595 28.0816 27.9723 28.0267C27.7713 27.9634 27.593 27.8463 27.4583 27.6891C27.3235 27.5319 27.2379 27.3411 27.2112 27.1388L27.0657 20.5897C27.0491 20.4164 27.0918 20.2427 27.1874 20.0951C27.2058 20.0755 27.2282 20.0598 27.2533 20.0491C27.2784 20.0384 27.3055 20.0329 27.3329 20.033C27.4713 20.033 27.6336 20.1641 27.8387 20.447L31.9568 25.6573C32.0229 25.7339 32.0716 25.8231 32.0995 25.919C32.1275 26.0149 32.1341 26.1154 32.1191 26.214ZM35.6239 23.196C35.5905 23.2811 34.7388 25.3905 33.3907 25.7747C33.2886 25.8043 33.1825 25.819 33.0758 25.8184C32.9181 25.8176 32.7623 25.7845 32.6188 25.7215C32.4753 25.6585 32.3472 25.5668 32.2431 25.4526L28.3064 20.1135C28.2634 20.0583 28.0463 19.7592 28.1394 19.5798C28.1627 19.5399 28.1979 19.5076 28.2404 19.4872C28.2829 19.4667 28.3308 19.4589 28.378 19.4648C28.5424 19.4765 28.7037 19.5146 28.8551 19.5775L35.2971 21.6478C35.396 21.6753 35.4879 21.7224 35.5668 21.7862C35.6457 21.85 35.7099 21.929 35.7552 22.0182C35.9079 22.3034 35.8625 22.7037 35.6239 23.1868V23.196ZM35.5214 21.2913C35.4412 21.2901 35.3613 21.2816 35.2828 21.266L28.8408 19.1819C28.7645 19.1588 28.3636 19.0277 28.3756 18.8115C28.3756 18.6574 28.5664 18.5355 28.9625 18.4319L35.4426 16.4582C35.5191 16.4315 35.5998 16.4175 35.6812 16.4168C35.9532 16.4168 36.4399 16.5618 36.6356 17.5233C36.6594 17.6107 37.2583 19.7983 36.397 20.8772C36.2931 21.0051 36.1601 21.1081 36.0083 21.1783C35.8564 21.2486 35.6898 21.2841 35.5214 21.2821V21.2913Z" fill="#FFFFCF"/>
<path d="M26.8868 7.38092C20.4687 7.38092 15.1362 12.0046 15.1362 18.1926C15.1362 24.3805 19.8221 30.32 26.245 30.32C32.6679 30.32 39.0024 25.0039 39.0024 18.8183C39.0024 12.6326 33.3073 7.38092 26.8868 7.38092ZM26.8868 29.4643C24.6851 29.4625 22.5334 28.8312 20.7037 27.6504C18.8741 26.4696 17.4487 24.7922 16.6077 22.8304C15.7668 20.8685 15.5481 18.7103 15.9793 16.6287C16.4105 14.547 17.4723 12.6354 19.0303 11.1355C20.5883 9.63558 22.5727 8.61477 24.7324 8.20215C26.8921 7.78952 29.1302 8.0036 31.1638 8.81731C33.1973 9.63103 34.935 11.0078 36.1569 12.7736C37.3789 14.5395 38.0304 16.615 38.029 18.7377C38.0258 21.5835 36.8519 24.3118 34.7648 26.3241C32.6777 28.3363 29.8479 29.4681 26.8964 29.4712L26.8868 29.4643Z" fill="#F38E1C"/>
<path d="M26.4524 9.66984C26.3355 9.56364 26.1967 9.4825 26.0449 9.43175C25.8932 9.38101 25.732 9.3618 25.572 9.37539C25.4595 9.37651 25.3472 9.38419 25.2356 9.3984C25.1354 9.3984 22.7901 9.50881 21.9836 10.6199C21.8646 10.7881 21.7974 10.9854 21.7898 11.189C21.7822 11.3925 21.8345 11.594 21.9407 11.7701L25.9347 17.0609C25.9752 17.1161 26.1733 17.3875 26.3785 17.3875C26.4056 17.3874 26.4325 17.3821 26.4575 17.3718C26.4825 17.3616 26.5051 17.3466 26.524 17.3277C26.6171 17.2357 26.6528 17.0448 26.6409 16.7273V10.1828C26.6461 10.0896 26.6321 9.99622 26.5998 9.90818C26.5674 9.82014 26.5174 9.73914 26.4524 9.66984Z" fill="#FFB506"/>
<path d="M32.119 11.2294C32.0689 10.912 31.8017 10.6129 31.3293 10.3461C31.2672 10.3047 29.8142 9.33625 28.5497 9.33625C28.3541 9.33469 28.1594 9.36183 27.9723 9.41676C27.7696 9.48127 27.5901 9.60013 27.4549 9.75942C27.3197 9.91871 27.2343 10.1118 27.2088 10.3162L27.0656 16.8515C27.0487 17.0255 27.0914 17.2 27.1873 17.3484C27.2057 17.368 27.2282 17.3836 27.2532 17.3943C27.2783 17.405 27.3054 17.4105 27.3329 17.4105C27.4712 17.4105 27.6335 17.2793 27.8363 16.9987L31.952 11.7907C32.0193 11.7138 32.069 11.6241 32.0978 11.5273C32.1266 11.4306 32.1338 11.3291 32.119 11.2294Z" fill="#FFB506"/>
<path d="M35.6266 14.2521C35.5908 14.1623 34.7391 12.0529 33.3886 11.6665C33.1838 11.6102 32.9665 11.6115 32.7624 11.6702C32.5582 11.7288 32.3757 11.8425 32.2362 11.9977L28.309 17.3276C28.2637 17.3851 28.0466 17.6842 28.1396 17.8636C28.163 17.9035 28.1982 17.9358 28.2407 17.9563C28.2832 17.9768 28.3311 17.9845 28.3782 17.9786C28.5425 17.9676 28.7038 17.9303 28.8554 17.8682L35.2974 15.7979C35.4001 15.772 35.4959 15.7251 35.5782 15.6604C35.6605 15.5957 35.7275 15.5147 35.7745 15.4229C35.9081 15.1239 35.8628 14.7305 35.6266 14.2521Z" fill="#FFB506"/>
<path d="M25.5696 17.3299L21.6353 11.9908C21.531 11.8762 21.4026 11.7843 21.2586 11.7213C21.1146 11.6582 20.9583 11.6254 20.8002 11.6251C20.6945 11.6248 20.5893 11.6387 20.4876 11.6665C19.1372 12.0529 18.2855 14.1624 18.2544 14.2521C18.0158 14.7351 17.9681 15.1285 18.1113 15.416C18.1566 15.5055 18.2207 15.5848 18.2996 15.6489C18.3784 15.7131 18.4703 15.7607 18.5694 15.7887L25.0113 17.859C25.1628 17.9219 25.3241 17.96 25.4885 17.9717C25.5356 17.9776 25.5835 17.9699 25.626 17.9494C25.6685 17.9289 25.7037 17.8966 25.7271 17.8567C25.8321 17.6842 25.6126 17.3851 25.5696 17.3299Z" fill="#FFB506"/>
<path d="M26.641 27.2582V20.7069C26.641 20.3871 26.6171 20.1962 26.5241 20.1042C26.5053 20.085 26.4828 20.0696 26.4578 20.0589C26.4328 20.0483 26.4059 20.0425 26.3786 20.0421C26.1829 20.0421 25.9753 20.3158 25.9348 20.3687L21.936 25.6595C21.8302 25.8359 21.7786 26.0377 21.787 26.2413C21.7955 26.4449 21.8637 26.642 21.9837 26.8097C22.7901 27.9207 25.1355 28.0289 25.2285 28.0312C25.3425 28.0451 25.4572 28.0528 25.5721 28.0542C25.7321 28.0678 25.8933 28.0486 26.045 27.9978C26.1967 27.9471 26.3356 27.8659 26.4525 27.7597C26.5814 27.623 26.6491 27.4428 26.641 27.2582Z" fill="#FFB506"/>
<path d="M31.9566 25.648L27.8385 20.4377C27.6334 20.1548 27.4711 20.0237 27.3327 20.0237C27.3053 20.0236 27.2782 20.0291 27.2531 20.0398C27.228 20.0505 27.2056 20.0662 27.1872 20.0858C27.0917 20.2334 27.0489 20.4071 27.0655 20.5804L27.2111 27.1295C27.2377 27.3318 27.3233 27.5226 27.4581 27.6798C27.5928 27.837 27.7711 27.9541 27.9722 28.0174C28.1593 28.0723 28.354 28.0995 28.5495 28.0979C29.8141 28.0979 31.2671 27.1295 31.322 27.0927C31.7991 26.8212 32.0688 26.5222 32.1189 26.2047C32.1339 26.1061 32.1273 26.0056 32.0993 25.9097C32.0714 25.8138 32.0227 25.7246 31.9566 25.648Z" fill="#FFB506"/>
<path d="M35.7648 22.0203C35.7201 21.9316 35.6566 21.8529 35.5786 21.7891C35.5006 21.7254 35.4096 21.678 35.3115 21.6499L28.8696 19.5796C28.7181 19.5167 28.5569 19.4786 28.3924 19.4669C28.3453 19.461 28.2974 19.4688 28.2549 19.4893C28.2124 19.5097 28.1772 19.542 28.1538 19.5819C28.0608 19.7613 28.2779 20.0604 28.3208 20.1156L32.2576 25.4547C32.3617 25.5689 32.4897 25.6605 32.6333 25.7236C32.7768 25.7866 32.9325 25.8196 33.0903 25.8205C33.1969 25.8211 33.3031 25.8064 33.4052 25.7768C34.7532 25.3926 35.605 23.2832 35.6384 23.1981C35.8627 22.7035 35.908 22.3032 35.7648 22.0203Z" fill="#FFB506"/>
<path d="M36.6306 17.5139C36.4445 16.5523 35.9578 16.4074 35.6762 16.4074C35.5949 16.408 35.5142 16.422 35.4377 16.4488L28.9575 18.4225C28.5615 18.526 28.3754 18.6526 28.3706 18.8021C28.3706 19.0183 28.7595 19.1494 28.8359 19.1724L35.2778 21.2565C35.3563 21.2722 35.4362 21.2807 35.5164 21.2819C35.6856 21.2827 35.8527 21.2458 36.0046 21.174C36.1566 21.1021 36.2892 20.9973 36.392 20.8678C37.2533 19.7889 36.6545 17.6013 36.6306 17.5139Z" fill="#FFB506"/>
<path d="M25.7365 19.5704C25.7132 19.5305 25.678 19.4983 25.6355 19.4778C25.593 19.4573 25.5451 19.4495 25.498 19.4554C25.3336 19.4664 25.1724 19.5037 25.0208 19.5658L18.5788 21.6477C18.4765 21.6737 18.3811 21.7204 18.2988 21.7847C18.2166 21.8489 18.1494 21.9292 18.1016 22.0203C17.9585 22.3102 18.0062 22.7104 18.2424 23.1705C18.2758 23.2602 19.1276 25.3696 20.478 25.7538C20.5793 25.7834 20.6847 25.7981 20.7906 25.7975C20.9503 25.7962 21.1079 25.7624 21.2531 25.6981C21.3982 25.6339 21.5277 25.5408 21.6328 25.4248L25.56 20.0949C25.6125 20.0489 25.832 19.7499 25.7365 19.5704Z" fill="#FFB506"/>
<path d="M24.9256 18.2569L18.4503 16.2878C18.3676 16.2593 18.2804 16.2445 18.1926 16.2441C17.9206 16.2441 17.4363 16.3891 17.2382 17.3437C17.212 17.438 16.6131 19.6257 17.4768 20.7022C17.5793 20.8322 17.7118 20.9373 17.8638 21.0091C18.0158 21.081 18.1831 21.1177 18.3524 21.1163C18.439 21.1161 18.5253 21.1077 18.6101 21.091L25.0377 19.0207C25.1141 18.9954 25.5149 18.8665 25.5149 18.6503C25.5078 18.4847 25.3217 18.3628 24.9256 18.2569Z" fill="#FFB506"/>
</g>
<defs>
<clipPath id="clip0_677_3716">
<rect width="39" height="29.64" fill="white" transform="translate(0 0.679993)"/>
</clipPath>
</defs>
</svg>
