<svg width="38" height="33" viewBox="0 0 38 33" fill="none" xmlns="http://www.w3.org/2000/svg">
<g clip-path="url(#clip0_678_4152)">
<path d="M15.2783 28.7481C18.1248 29.3932 21.0618 29.403 23.9586 29.0218C28.2736 28.4549 30.4059 23.5576 31.5626 19.9214C32.0152 18.5138 34.4292 4.25225 32.9607 3.54846C31.7537 2.97174 28.7262 4.08608 27.3985 4.1936C25.2762 4.36955 23.1338 4.3891 21.0014 4.34022C15.9924 4.24248 11.0337 3.55823 6.08509 4.16428C5.66264 8.7096 6.97021 17.9762 8.80081 22.1598C10.0883 24.672 11.6674 27.5947 14.6245 28.5624C14.8358 28.6308 15.057 28.6895 15.2783 28.7481Z" fill="#F5D4A2"/>
<path d="M24.542 27.4286C21.6452 27.8098 18.7082 27.8 15.8617 27.1549C15.6304 27.106 15.4091 27.0473 15.1979 26.9691C12.2407 26.0014 10.6716 23.0787 9.37413 20.5666C7.7447 16.813 6.52765 8.9638 6.59806 4.10568C6.42707 4.12523 6.25608 4.14478 6.08509 4.16433C5.66264 8.70965 6.97021 17.9762 8.80081 22.1599C10.0883 24.672 11.6674 27.5947 14.6245 28.5624C14.8358 28.6309 15.057 28.6895 15.2884 28.7482C18.1349 29.3933 21.0719 29.4031 23.9686 29.0219C28.0523 28.4842 30.1846 24.066 31.3815 20.5079C30.0941 23.675 28.0322 26.9691 24.542 27.4286Z" fill="#CC9C62"/>
<path d="M25.0652 27.7609C22.0075 28.1519 18.9196 28.1519 15.9223 27.4774C15.6809 27.4285 15.4495 27.3601 15.2282 27.2917C9.43471 25.4247 8.03661 18.2597 7.11126 13.2452C6.55805 10.2541 6.22613 7.21409 6.13561 4.1741C6.02497 5.42529 5.98473 6.67647 6.03502 7.92766C4.70734 7.39981 3.11814 7.85923 2.08214 8.81717C-1.36783 12.0136 -0.0904383 17.1845 2.96726 20.156C3.73169 20.8989 4.61681 21.5343 5.59246 21.9839C6.09537 22.2088 6.60834 22.3945 7.15149 22.5216C7.54376 22.6095 8.48923 22.5118 8.79098 22.6877C9.6761 23.2058 10.4405 25.2096 11.1446 26.0503C12.07 27.1549 13.2267 28.103 14.6348 28.5624C14.846 28.6309 15.0673 28.6895 15.2987 28.7482C18.1451 29.3933 21.0821 29.4031 23.9789 29.0219C25.8598 28.7775 27.3283 27.7022 28.4749 26.2751C27.4993 27.0473 26.3728 27.5947 25.0652 27.7609ZM7.60411 18.7094C7.60411 18.8462 7.60411 18.9733 7.59405 19.1101C7.54376 19.8921 7.59405 20.0387 6.68881 20.0485C6.14567 20.0583 5.5824 19.8237 5.12978 19.55C3.20866 18.4161 1.84074 15.6009 2.06202 13.4407C2.25313 11.5541 3.73169 9.51119 5.90427 9.91196C6.59829 10.039 6.57817 12.9715 6.64858 13.4798C6.87992 15.1122 7.58399 17.0281 7.60411 18.7094Z" fill="#CC9C62"/>
<path d="M32.971 3.73417C32.9106 3.177 32.5787 2.61006 31.8746 2.08222C28.4347 -0.508129 4.83811 -1.80819 6.18591 5.11243C6.9604 9.04193 18.9397 8.25994 21.6052 8.12309C24.5422 7.97647 28.2134 7.8494 30.899 6.51024C30.899 6.51024 30.899 6.51024 30.909 6.51024C32.1261 5.89442 33.0917 4.83873 32.971 3.73417Z" fill="#F5D4A2"/>
<path d="M31.8141 3.69498C31.7638 3.24534 31.4621 2.77614 30.8183 2.34605C27.6701 0.234675 6.11533 -0.840563 7.35249 4.81909C8.05657 8.03503 18.9999 7.38989 21.434 7.28236C24.1196 7.16507 27.4689 7.05754 29.9232 5.96276C29.9232 5.96276 29.9232 5.96276 29.9332 5.96276C31.0296 5.46424 31.9147 4.60405 31.8141 3.69498Z" fill="#CC9C62"/>
<path d="M8.28809 6.01177C11.1346 7.84945 19.3622 7.37048 21.4241 7.28251C24.1097 7.16521 27.4591 7.05768 29.9133 5.9629C29.9133 5.9629 29.9133 5.9629 29.9233 5.9629C30.1547 5.85537 30.386 5.73808 30.5872 5.60123C27.3887 3.89062 12.3114 2.98156 8.28809 6.01177Z" fill="#45301C"/>
<path d="M17.3706 4.05683C22.279 4.2621 26.8857 5.17117 28.8973 6.35393C29.2494 6.23663 29.5913 6.10956 29.9233 5.96293C29.9233 5.96293 29.9233 5.96293 29.9333 5.96293C30.1647 5.85541 30.396 5.73811 30.5972 5.60126C28.7163 4.60423 22.7819 3.88088 17.3706 4.05683Z" fill="#362512"/>
<path d="M30.1548 6.5592C30.0139 6.6765 28.8673 6.90132 28.6158 6.97952C27.8011 7.23367 26.9361 7.39984 26.0912 7.54647C24.9848 7.73219 23.8684 7.83971 22.762 7.91791C22.1886 7.95701 21.6153 7.98634 21.042 8.02544C20.7704 8.04498 20.4989 8.06453 20.2273 8.08408C19.9658 8.11341 19.5232 8.26981 19.2919 8.15251C19.2818 8.15251 19.2717 8.15251 19.2717 8.16228C19.0706 8.78788 21.4644 8.57283 21.7762 8.56305C24.5121 8.45553 27.9922 8.39688 30.1548 6.5592Z" fill="#FDFFEB"/>
<path d="M16.7672 8.19161C16.043 8.10364 15.2886 8.13296 14.5644 8.08409C13.8302 8.03521 13.106 7.90814 12.3717 7.87881C12.2711 7.87881 12.2611 8.01566 12.3516 8.04499C13.0557 8.26004 13.8302 8.32846 14.5644 8.37733C15.2987 8.42621 16.0631 8.46531 16.7873 8.32846C16.8677 8.30891 16.8376 8.20139 16.7672 8.19161Z" fill="#FDFFEB"/>
<path d="M23.5663 4.07628C22.9427 3.91988 22.2587 3.94921 21.6251 3.91011C20.921 3.87101 20.2169 3.84168 19.5028 3.83191C18.1349 3.80258 16.7669 3.82213 15.4091 3.94921C13.0152 4.17403 10.4906 4.71165 8.4186 5.94328C8.30796 6.0117 8.40855 6.1681 8.51919 6.10945C9.95751 5.45454 11.416 4.96579 12.9348 4.63345C12.8845 4.66277 12.8543 4.72142 12.8543 4.78007C12.8543 4.87782 12.9347 4.96579 13.0454 4.96579C13.146 4.96579 13.2365 4.87782 13.2365 4.78007C13.2365 4.6921 13.1761 4.62367 13.0957 4.60412C13.1158 4.60412 13.1359 4.59435 13.146 4.59435C13.1761 4.67255 13.2667 4.7312 13.3572 4.6921C13.3974 4.67255 13.4377 4.66277 13.4678 4.63345C13.498 4.60412 13.5181 4.56502 13.5081 4.52592C14.2121 4.38908 14.9363 4.29133 15.6706 4.2229C16.948 4.1056 18.2254 4.08605 19.5028 4.1056C20.1767 4.11538 20.8506 4.1447 21.5245 4.17403C22.1883 4.20335 22.8823 4.31088 23.5462 4.2229C23.6266 4.21313 23.6568 4.09583 23.5663 4.07628Z" fill="#87602D"/>
<path d="M25.4473 4.40852C25.1053 4.30099 24.7432 4.2619 24.3911 4.2228C24.3308 4.21302 24.3107 4.32054 24.3811 4.33032C24.7331 4.39874 25.0852 4.47694 25.4473 4.47694C25.4774 4.47694 25.4774 4.41829 25.4473 4.40852Z" fill="#543B22"/>
<path d="M26.3122 5.60116C25.1153 5.24926 23.7474 5.23949 22.5203 5.18084C21.1926 5.11241 19.8649 5.11241 18.5372 5.16129C17.29 5.21016 16.0528 5.31769 14.8157 5.48386C13.7797 5.62071 12.623 5.75756 11.8183 6.47112C11.7781 6.51022 11.8284 6.57865 11.8787 6.54932C12.9247 5.9726 14.0412 5.80643 15.2281 5.66958C16.4552 5.53273 17.6823 5.43499 18.9194 5.39589C20.1164 5.35679 21.3234 5.36656 22.5203 5.42521C23.7675 5.48386 25.0449 5.73801 26.3022 5.71846C26.3726 5.72823 26.3826 5.62071 26.3122 5.60116Z" fill="#87602D"/>
<path d="M22.973 6.84249C22.802 6.50036 22.0979 6.53946 21.7761 6.51014C20.4685 6.36352 19.0201 6.30487 17.7326 6.60789C17.6924 6.61766 17.7025 6.67631 17.7427 6.67631C18.5373 6.65676 19.3319 6.57856 20.1265 6.59811C20.4987 6.60789 20.8608 6.62744 21.2329 6.66654C21.4642 6.68609 21.7056 6.71541 21.937 6.74474C22.0577 6.76429 22.1784 6.78384 22.2991 6.80339C22.4801 6.80339 22.6109 6.88159 22.7014 7.04776C22.5505 7.04776 22.5505 7.28236 22.7014 7.27258C22.9227 7.25303 23.0736 7.05753 22.973 6.84249Z" fill="#87602D"/>
<path d="M27.3684 5.67928C27.2377 5.64995 27.0264 5.65973 26.9862 5.80635C26.956 5.85522 26.9359 5.91387 26.9661 5.96275C26.9963 6.01162 27.0365 6.0214 27.0868 6.0214C27.1069 6.03117 27.127 6.03117 27.1572 6.03117C27.1773 6.03117 27.1974 6.03117 27.2075 6.03117C27.2176 6.03117 27.2377 6.03117 27.2477 6.03117H27.2578C27.2578 6.03117 27.2578 6.03117 27.2678 6.03117C27.3684 6.05072 27.4791 6.00185 27.4992 5.9041C27.5294 5.80635 27.4791 5.7086 27.3684 5.67928Z" fill="#87602D"/>
<path d="M25.2763 4.40868C25.2763 4.39891 25.2763 4.39891 25.2763 4.39891C25.2763 4.34026 25.2461 4.27184 25.1857 4.24251C25.0952 4.20341 24.9645 4.20341 24.9242 4.31094C24.894 4.39891 24.9142 4.48688 24.9846 4.54553C24.9846 4.54553 24.9846 4.54553 24.9846 4.55531C24.9846 4.55531 24.9946 4.56508 24.9946 4.57486C24.9946 4.58463 25.0047 4.59441 25.0047 4.59441C25.0047 4.59441 25.0147 4.61396 25.0147 4.62373C25.0147 4.64328 25.0147 4.65306 25.0248 4.67261C25.0349 4.70193 25.055 4.72148 25.0952 4.72148C25.1254 4.72148 25.1656 4.71171 25.1958 4.68238C25.1958 4.68238 25.226 4.65306 25.2059 4.67261C25.236 4.64328 25.2561 4.63351 25.2662 4.59441C25.2763 4.56508 25.2863 4.52598 25.2863 4.48688C25.2863 4.44778 25.2763 4.42823 25.2763 4.40868Z" fill="#543B22"/>
<path d="M25.2966 4.9169C25.2865 4.8387 25.2161 4.77027 25.1357 4.7605C25.0652 4.75072 24.9848 4.78005 24.9445 4.84847C24.9043 4.9169 24.9144 5.01465 24.9747 5.0733C24.9747 5.0733 24.9747 5.0733 24.9848 5.08307C25.0451 5.14172 25.1155 5.14172 25.196 5.11239H25.2061C25.2765 5.06352 25.3066 4.98532 25.2966 4.9169Z" fill="#422D16"/>
<path d="M26.9263 4.84859C26.8559 4.84859 26.7955 4.88769 26.7654 4.93656C26.7251 5.00499 26.7352 5.10274 26.7955 5.16139C26.8156 5.18094 26.8358 5.19071 26.8559 5.20049C26.8559 5.20049 26.8559 5.20049 26.8659 5.21026C26.9162 5.24936 26.9565 5.24936 27.0067 5.21026C27.0067 5.21026 27.0067 5.21026 27.0168 5.20049C27.0369 5.19071 27.057 5.17116 27.0772 5.16139C27.1777 5.05386 27.0872 4.83881 26.9263 4.84859Z" fill="#543B22"/>
<path d="M28.7868 5.54241C28.7767 5.42511 28.6057 5.42511 28.5956 5.54241C28.5956 5.56196 28.5956 5.57174 28.5856 5.59128C28.5755 5.64016 28.6359 5.68903 28.6862 5.68903C28.7365 5.68903 28.7968 5.64016 28.7868 5.59128C28.7868 5.57174 28.7868 5.55219 28.7868 5.54241Z" fill="#543B22"/>
<path d="M14.5744 4.42804C14.4638 4.37917 14.333 4.45737 14.333 4.58444V4.59421V4.58444C14.333 4.61376 14.3431 4.63331 14.3531 4.66264C14.4135 4.77016 14.5643 4.77016 14.6348 4.68219C14.7152 4.59421 14.675 4.46714 14.5744 4.42804Z" fill="#87602D"/>
<path d="M15.4594 6.3048C15.4091 6.24615 15.3387 6.24615 15.2683 6.24615C15.1677 6.24615 15.0771 6.33413 15.0771 6.43188C15.0771 6.52963 15.1576 6.6176 15.2683 6.6176C15.3387 6.6176 15.399 6.60782 15.4594 6.55895C15.5197 6.48075 15.5197 6.37323 15.4594 6.3048Z" fill="#87602D"/>
<path d="M16.4355 5.88459C16.3953 5.86504 16.345 5.84549 16.2947 5.84549C16.2846 5.84549 16.2746 5.84549 16.2645 5.84549C16.2343 5.84549 16.2343 5.84549 16.2645 5.84549C16.2444 5.84549 16.2343 5.84549 16.2142 5.85526C16.1941 5.86504 16.174 5.86504 16.1639 5.87481C16.1036 5.90414 16.0734 5.98234 16.0834 6.04099C16.0935 6.10941 16.1438 6.15829 16.2041 6.17783C16.2243 6.18761 16.2243 6.18761 16.1941 6.17783C16.2142 6.18761 16.2243 6.19738 16.2444 6.19738C16.2645 6.19738 16.2746 6.20716 16.2947 6.20716C16.3852 6.23648 16.4858 6.17783 16.516 6.09964C16.5461 6.03121 16.5159 5.92369 16.4355 5.88459Z" fill="#87602D"/>
<path d="M16.8376 6.52006C16.8275 6.51028 16.8275 6.51028 16.8175 6.50051C16.7873 6.47118 16.737 6.47118 16.7169 6.50051C16.7068 6.51028 16.7068 6.51028 16.6968 6.52006C16.6565 6.55916 16.6465 6.58848 16.6465 6.60803C16.6565 6.64713 16.7068 6.66668 16.7672 6.66668C16.8275 6.66668 16.8778 6.64713 16.8879 6.60803C16.8879 6.58848 16.8778 6.55916 16.8376 6.52006Z" fill="#87602D"/>
<path d="M17.4814 6.03128C17.3708 6.03128 17.3708 6.19745 17.4814 6.19745C17.5921 6.18768 17.5921 6.03128 17.4814 6.03128Z" fill="#87602D"/>
<path d="M29.5812 1.74986C28.3943 1.35886 27.0968 1.16336 25.8697 0.997191C24.6929 0.831018 23.4256 0.635521 22.2387 0.762594C22.1884 0.772369 22.1683 0.840793 22.2286 0.850568C23.4356 1.07539 24.6828 1.08517 25.8898 1.27089C27.1169 1.45661 28.3038 1.76941 29.5208 2.004C29.6818 2.02355 29.7421 1.79873 29.5812 1.74986Z" fill="#FDFFEB"/>
<path d="M5.31074 8.18186C3.75171 7.91794 2.22286 8.85633 1.35785 10.0586C0.442553 11.3294 -0.0402425 13.3821 0.764416 14.8092C0.834824 14.9265 0.995755 14.8581 1.00581 14.7408C1.08628 14.0663 1.04605 13.3723 1.11645 12.6881C1.19692 11.9452 1.42826 11.2121 1.84065 10.5669C2.59501 9.3744 3.86235 8.73903 5.26045 8.57286C5.47167 8.56308 5.57225 8.23074 5.31074 8.18186Z" fill="#F5D4A2"/>
<path d="M10.5511 7.55606C9.62576 7.37034 8.75069 7.22372 7.96615 6.6861C7.18161 6.15825 6.72899 5.43491 6.38701 4.5845C6.36689 4.53562 6.27637 4.53562 6.27637 4.59427C6.35683 6.51015 8.66017 7.81998 10.3701 8.18165C10.7925 8.25985 10.9635 7.63426 10.5511 7.55606Z" fill="#CC9C62"/>
<path d="M32.2681 24.5252C30.8901 24.6132 29.3814 25.2779 28.9991 26.5682C28.6169 27.878 29.6127 29.2758 30.9102 29.8037C32.1977 30.3315 33.6762 30.1654 35.0341 29.8721C36.3215 29.5886 38.5846 28.3766 37.8504 26.7246C37.1363 25.1313 33.8573 24.4275 32.2681 24.5252Z" fill="#6E4115"/>
<path d="M33.1118 28.4158C34.3691 28.5918 35.8175 28.7677 36.9641 28.103C38.151 27.409 37.3061 25.8352 36.3908 25.2487C35.5761 24.7209 34.5501 24.6036 33.5745 24.6329C32.6391 24.6622 29.8127 24.7698 29.5612 25.9916C29.2494 27.4285 32.106 28.279 33.1118 28.4158Z" fill="#915821"/>
<path d="M37.6786 27.2425C37.5378 27.1447 37.3769 27.0861 37.216 27.0274C37.1657 27.0079 37.1254 26.9883 37.0752 26.9688C36.9343 26.8906 36.7835 26.8417 36.6225 26.8319C36.5722 26.8221 36.532 26.8124 36.4817 26.7928C36.3409 26.7342 36.2504 26.6755 36.0894 26.6462C35.9788 26.6267 35.8581 26.6364 35.7374 26.6364C35.6066 26.6169 35.4759 26.5875 35.3351 26.568C35.315 26.5582 35.3049 26.5582 35.2848 26.5387C35.1339 26.4312 35.1741 26.3139 34.9327 26.2845C34.8623 26.2748 34.7316 26.2943 34.6612 26.3041C34.3997 26.3432 34.2287 26.353 33.9672 26.2845C33.595 26.177 33.253 26.0499 32.8608 26.0011C32.4685 25.9522 32.0963 26.1672 31.7342 26.1086C31.4023 26.0597 31.2816 25.8251 30.9396 25.8251C30.6077 25.8153 30.2557 25.8642 29.9137 25.9131C29.8835 25.8544 29.8332 25.8153 29.7427 25.8153L29.5516 25.8349C29.4711 25.8447 29.4309 25.8935 29.4208 25.9522C29.2398 26.0793 29.1191 26.2845 29.4007 26.4409C29.5717 26.5387 29.8533 26.4409 30.0344 26.4312C30.4267 26.4116 30.8189 26.4214 31.2112 26.4507C31.3923 26.4996 31.5632 26.568 31.7544 26.6462C32.4283 26.9297 33.1122 26.6853 33.7761 26.9394C33.9973 27.0274 34.1281 27.047 34.3695 27.0274C34.8221 26.9883 35.0635 27.0665 35.486 27.1936C35.7273 27.2718 35.9587 27.3011 36.2101 27.2718C36.8237 27.2034 37.0148 27.3989 37.3668 27.8192C37.4674 27.9365 37.6887 27.8778 37.6988 27.7117C37.7088 27.6041 37.6887 27.5064 37.6585 27.4282C37.7491 27.4086 37.7692 27.3011 37.6786 27.2425Z" fill="#6E4115"/>
<path d="M36.22 28.4057C36.1295 28.396 36.0289 28.4253 35.9585 28.4644C35.9283 28.4839 35.8881 28.5035 35.8579 28.523C35.8177 28.5524 35.8076 28.5817 35.7774 28.6208C35.7372 28.6599 35.7774 28.7381 35.8378 28.7088C35.8981 28.6794 35.9786 28.6697 36.0389 28.6501C36.1094 28.6306 36.1898 28.6208 36.2602 28.5915C36.3508 28.5621 36.3105 28.4057 36.22 28.4057Z" fill="#593511"/>
<path d="M37.1252 26.9007C36.7631 26.7248 36.3809 26.7443 35.9886 26.715C35.4857 26.6759 35.0733 26.4315 34.6006 26.3142C33.806 26.1089 32.9812 26.1774 32.1665 26.0698C31.4021 25.9721 30.6779 25.6006 29.9134 25.8743C29.833 25.9037 29.8732 26.0307 29.9637 26.021C30.6779 25.933 31.3618 26.2067 32.0558 26.3044C32.7096 26.3924 33.3735 26.3826 34.0373 26.4902C34.7112 26.6075 35.2845 26.9789 35.9685 27.0278C36.3708 27.0571 36.7329 27.0375 37.1051 27.2526C37.1855 27.3015 37.266 27.3797 37.3565 27.409C37.437 27.4285 37.4772 27.4481 37.4973 27.4579C37.4973 27.5067 37.5275 27.5556 37.5778 27.5752C37.5979 27.5849 37.608 27.5849 37.6281 27.5947C37.6683 27.6045 37.7287 27.6045 37.7689 27.5654C38.0807 27.2428 37.3364 26.9985 37.1252 26.9007Z" fill="#593511"/>
<path d="M36.4814 28.7969C35.9483 28.9827 35.4857 29.2661 34.9123 29.3932C34.4094 29.5007 33.9065 29.5203 33.3936 29.5496C33.3231 29.5496 33.3131 29.6669 33.3835 29.6767C34.3793 29.9113 35.8377 29.6962 36.6223 29.012C36.7429 28.9142 36.6223 28.7481 36.4814 28.7969Z" fill="#915821"/>
<path d="M36.924 28.4742L36.9139 28.484C36.7932 28.572 36.8938 28.7968 37.0447 28.7577C37.0547 28.7577 37.0547 28.7577 37.0648 28.7577C37.1654 28.7381 37.2358 28.6306 37.1855 28.5329C37.1352 28.4351 37.0145 28.4156 36.924 28.4742Z" fill="#915821"/>
<path d="M34.7917 29.9407C34.2686 29.8429 33.6953 29.97 33.1522 29.9602C32.5587 29.9407 31.9653 29.8625 31.402 29.6768C30.1247 29.2467 29.3803 28.3669 28.9881 27.1451C28.978 27.106 28.8975 27.0962 28.9076 27.1451C28.9478 28.2887 29.9738 29.3053 30.9695 29.7843C31.5529 30.058 32.1966 30.2144 32.8504 30.2632C33.464 30.3121 34.2586 30.3708 34.8118 30.0971C34.8922 30.0482 34.8621 29.9504 34.7917 29.9407Z" fill="#593511"/>
<path d="M28.7566 26.7442C27.439 26.2359 25.7392 26.2164 24.8038 27.2525C23.8583 28.2984 24.16 30.0286 25.1156 31.0647C26.0812 32.1009 27.5195 32.5798 28.9176 32.8829C30.2352 33.1663 32.8906 33.0002 32.9509 31.1527C33.0012 29.3834 30.2754 27.3307 28.7566 26.7442Z" fill="#6E4115"/>
<path d="M27.7809 30.7224C28.8672 31.4164 30.1345 32.1984 31.4924 32.0616C32.9106 31.9247 32.8301 30.1066 32.2468 29.1682C31.7237 28.3373 30.8285 27.79 29.9132 27.399C29.0382 27.0275 26.3627 25.923 25.5681 26.9493C24.6427 28.1516 26.9159 30.1653 27.7809 30.7224Z" fill="#915821"/>
<path d="M32.5588 31.5729C32.4783 31.4165 32.3576 31.2992 32.2168 31.1819C32.1866 31.1428 32.1464 31.1037 32.1062 31.0646C32.0156 30.9375 31.8949 30.83 31.7441 30.7421C31.7038 30.7127 31.6636 30.6834 31.6334 30.6541C31.5328 30.5368 31.4725 30.4488 31.3417 30.3511C31.2412 30.2826 31.1305 30.2435 31.0199 30.1947C30.9092 30.1165 30.7885 30.0383 30.6779 29.9601C30.6678 29.9503 30.6578 29.9307 30.6477 29.921C30.5572 29.7548 30.6477 29.6668 30.4365 29.5397C30.3762 29.5006 30.2454 29.4615 30.175 29.442C29.9135 29.3638 29.7525 29.3051 29.5413 29.1292C29.2396 28.8653 28.9881 28.6014 28.6361 28.3961C28.2941 28.1908 27.8515 28.2201 27.5397 28.0149C27.248 27.8291 27.248 27.5652 26.9362 27.4088C26.6244 27.2622 26.2824 27.1547 25.9405 27.0569C25.9405 26.9885 25.9103 26.9299 25.8298 26.9005L25.6488 26.8321C25.5683 26.8028 25.518 26.8321 25.4778 26.881C25.2465 26.9201 25.0553 27.0667 25.2364 27.3306C25.347 27.4968 25.6488 27.5261 25.8298 27.5945C26.202 27.7412 26.5641 27.9171 26.9161 28.1126C27.0569 28.2397 27.1977 28.3668 27.3285 28.5232C27.8214 29.0705 28.5757 29.139 29.0786 29.657C29.2496 29.833 29.3502 29.9112 29.5916 29.9894C30.0342 30.1458 30.2253 30.3217 30.5572 30.615C30.7483 30.7909 30.9394 30.918 31.1909 30.9962C31.7944 31.1917 31.8748 31.4556 32.0257 31.9932C32.0659 32.1496 32.2973 32.179 32.3878 32.0421C32.4381 31.9444 32.4683 31.8466 32.4783 31.7586C32.5387 31.7489 32.6091 31.6707 32.5588 31.5729Z" fill="#6E4115"/>
<path d="M30.6776 32.0325C30.5971 31.9836 30.4965 31.9738 30.406 31.9738C30.3658 31.9738 30.3256 31.9836 30.2853 31.9934C30.235 32.0032 30.2149 32.0325 30.1646 32.0423C30.1043 32.0618 30.1143 32.1498 30.1847 32.1498C30.2451 32.1498 30.3256 32.1693 30.396 32.1791C30.4764 32.1889 30.5468 32.2084 30.6273 32.2182C30.7279 32.2378 30.7581 32.0814 30.6776 32.0325Z" fill="#593511"/>
<path d="M32.1967 31.0158C31.9453 30.703 31.5731 30.5564 31.2311 30.3609C30.7785 30.1067 30.517 29.7157 30.1247 29.3931C29.481 28.8653 28.6763 28.5721 27.9723 28.1322C27.3084 27.7119 26.8055 27.057 25.9707 26.9983C25.8802 26.9885 25.8701 27.1254 25.9506 27.1547C26.6546 27.3697 27.1676 27.9269 27.7711 28.3081C28.3444 28.6698 28.968 28.9435 29.5212 29.3247C30.0945 29.7157 30.4566 30.312 31.0702 30.6443C31.4323 30.8496 31.7743 30.9865 32.0257 31.3384C32.076 31.4166 32.1163 31.5241 32.1867 31.5925C32.247 31.6511 32.2772 31.6805 32.2973 31.7C32.2772 31.7489 32.2772 31.8075 32.3174 31.8369C32.3275 31.8466 32.3375 31.8564 32.3577 31.876C32.3878 31.9053 32.4482 31.9248 32.4985 31.9151C32.931 31.7391 32.3476 31.2015 32.1967 31.0158Z" fill="#593511"/>
<path d="M30.7383 32.5114C30.155 32.4625 29.6018 32.5212 29.0184 32.4039C28.5054 32.2963 28.0226 32.0911 27.5398 31.9053C27.4795 31.876 27.4191 31.9835 27.4694 32.0226C28.2942 32.658 29.7426 33.0881 30.7786 32.7851C30.9294 32.7264 30.8892 32.5212 30.7383 32.5114Z" fill="#915821"/>
<path d="M31.3015 32.4038C31.2914 32.4038 31.2914 32.4038 31.2813 32.4038C31.1204 32.4331 31.1204 32.6775 31.2813 32.7166C31.2914 32.7166 31.2914 32.7166 31.3015 32.7166C31.4121 32.7361 31.5127 32.6677 31.5127 32.5602C31.5127 32.4527 31.402 32.3843 31.3015 32.4038Z" fill="#915821"/>
<path d="M28.6561 32.8535C28.2135 32.5407 27.6201 32.4136 27.1272 32.1693C26.5841 31.9053 26.0711 31.573 25.6386 31.1624C24.6529 30.2143 24.3511 29.0804 24.5422 27.7803C24.5523 27.7412 24.4819 27.7021 24.4618 27.751C23.979 28.8263 24.4819 30.2143 25.196 31.0745C25.6185 31.5828 26.1415 31.9933 26.7249 32.3257C27.268 32.6287 27.9822 33.0197 28.6259 33.0099C28.7064 32.9904 28.7164 32.8926 28.6561 32.8535Z" fill="#593511"/>
<path d="M26.3425 29.3444C26.1312 28.9436 25.739 28.7384 25.5981 28.2789C25.4573 27.8 25.5881 27.3797 25.7591 26.93C25.7792 26.8714 25.6887 26.8127 25.6384 26.8616C25.0349 27.5947 25.3366 29.0707 26.2821 29.4128C26.3324 29.4226 26.3525 29.3737 26.3425 29.3444Z" fill="#593511"/>
<path d="M25.357 28.543C25.3469 28.543 25.3469 28.543 25.3368 28.543C25.2061 28.5332 25.2061 28.7482 25.3368 28.7287C25.3469 28.7287 25.3469 28.7287 25.357 28.7287C25.4877 28.7287 25.4877 28.5625 25.357 28.543Z" fill="#593511"/>
</g>
<defs>
<clipPath id="clip0_678_4152">
<rect width="38" height="33" fill="white"/>
</clipPath>
</defs>
</svg>
