<svg width="36" height="34" viewBox="0 0 36 34" fill="none" xmlns="http://www.w3.org/2000/svg">
<g clip-path="url(#clip0_677_3695)">
<path d="M11.5545 1.48379C12.0831 1.43451 12.6084 1.39932 13.1383 1.38309C13.4348 1.36764 13.7344 1.36482 14.0339 1.36201C16.1082 1.30448 18.1851 1.39993 20.2476 1.64757C22.2742 1.90663 24.2559 2.45046 26.1339 3.26284C27.0431 3.65876 28.2064 4.72263 27.4635 5.79528C27.0921 6.23114 26.6194 6.56966 26.0861 6.78175C23.9487 7.90233 21.7194 8.84118 19.4217 9.5884C14.2514 11.0946 8.70649 10.7881 3.70681 8.71969C2.6893 8.2994 1.73743 7.73396 0.881174 7.04118C-0.0623006 6.25308 -0.252303 5.82368 0.848881 5.04802C4.06065 2.99365 7.73876 1.7691 11.5545 1.48379Z" fill="#D88121"/>
<path d="M24.7521 5.25857C24.0653 7.25904 22.7836 8.99947 21.0767 10.2492C19.3615 11.4878 17.306 12.176 15.1813 12.2228C12.8424 12.1977 10.5431 11.5849 8.49581 10.4412C7.5749 9.95682 6.68348 9.41807 5.82635 8.82786C4.93322 8.31813 4.09694 7.71446 3.33197 7.02727C2.5722 6.17055 3.83274 5.8649 4.48167 5.5678C5.35212 5.17407 6.24516 4.83124 7.15628 4.54104C10.8521 3.36781 14.7716 3.03961 18.6251 3.58068C19.1226 3.65192 24.875 4.91018 24.7521 5.25857Z" fill="white"/>
<path d="M25.2523 3.97404C25.528 3.86192 25.8285 3.82215 26.1252 3.85849C26.4218 3.89483 26.7049 4.00608 26.9473 4.18166C27.1898 4.35725 27.3836 4.59134 27.5104 4.8617C27.6372 5.13205 27.6928 5.42968 27.6718 5.7263C27.2717 11.641 26.8025 17.5452 26.4748 23.4565C26.4422 23.9293 26.4111 24.4083 26.3643 24.8778C26.1098 27.2496 25.5339 29.6693 23.9754 31.4926C22.5187 33.1014 20.5832 34.2038 18.448 34.6408C16.3257 35.0682 14.1604 35.2578 11.9922 35.2062C10.4044 35.1796 8.83873 34.8099 7.40324 34.1227C5.60667 33.243 4.74032 31.8021 3.99897 29.9401C2.49661 26.3005 1.82672 22.468 1.33342 18.5946C0.840118 14.7212 0.290358 11.0005 0.00244398 7.20579C-0.23224 4.12982 2.73244 5.79565 4.74502 6.10694C9.80179 6.94877 14.9677 6.7907 19.9476 5.64178C21.7483 5.19142 23.5196 4.63452 25.2523 3.97404Z" fill="#F4BC2F"/>
<path d="M27.9741 27.7275C27.5531 27.7517 27.1304 27.7059 26.7234 27.5921C25.9503 27.3532 25.2567 26.9069 24.7189 26.3024C24.1811 25.6979 23.82 24.9585 23.6753 24.1657C23.5547 23.4195 23.5953 22.6574 23.7945 21.9306C23.9938 21.2038 24.3469 20.529 24.8304 19.9514C25.9103 18.6315 27.3964 17.9483 28.8463 17.2801L29.5367 16.9408C30.5759 16.4842 31.532 15.8609 32.3671 15.0956C33.1173 14.4164 33.617 13.5058 33.7873 12.5075C33.8521 12.0819 33.8116 11.646 33.6693 11.2379C33.5269 10.8297 33.287 10.4616 32.9704 10.1654C32.5942 9.88889 32.1548 9.71109 31.6929 9.64853C31.2309 9.58597 30.7615 9.64067 30.3283 9.80756C29.3186 10.2124 28.4572 10.9121 27.8566 11.8154C27.1797 12.8391 26.6081 13.9287 26.1504 15.0678C26.102 15.2192 26.0223 15.3587 25.9164 15.4772C25.8105 15.5957 25.6807 15.6907 25.5354 15.756C25.3901 15.8214 25.2325 15.8556 25.0726 15.8566C24.9127 15.8576 24.7542 15.8253 24.607 15.7617C24.4599 15.6982 24.3275 15.6048 24.2183 15.4876C24.1091 15.3704 24.0255 15.2319 23.9729 15.0811C23.9203 14.9303 23.8998 14.7704 23.9127 14.6117C23.9257 14.453 23.9718 14.299 24.0481 14.1596C24.5601 12.8608 25.2071 11.6198 25.9786 10.4567C26.8547 9.15673 28.12 8.16642 29.5965 7.62512C30.4006 7.33325 31.2679 7.25145 32.116 7.38747C32.9642 7.5235 33.7651 7.87284 34.4428 8.40237C35.0642 8.9504 35.5393 9.64361 35.8248 10.4188C36.1103 11.194 36.1971 12.0266 36.0773 12.8406C35.838 14.3424 35.104 15.7184 33.9907 16.7525C32.9786 17.6963 31.8132 18.4627 30.5431 19.0197L29.8134 19.3615C28.5484 19.9404 27.3638 20.4939 26.6176 21.4309C26.3454 21.7477 26.1432 22.1184 26.0241 22.5191C25.9051 22.9197 25.8718 23.3414 25.9264 23.757C25.9873 24.135 26.1504 24.4901 26.3983 24.784C26.6462 25.0778 26.9694 25.2992 27.333 25.4244C27.6493 25.5091 27.9838 25.4904 28.2871 25.3711C28.5903 25.2518 28.8463 25.0381 29.0171 24.7617C29.0774 24.6235 29.1097 24.4747 29.1122 24.3236C29.1147 24.1726 29.0872 24.0223 29.0314 23.8814C28.9955 23.7621 28.9356 23.6513 28.8554 23.5556C28.7751 23.46 28.6762 23.3815 28.5647 23.3251C28.3048 23.1923 28.1046 22.9665 28.0045 22.6934C27.9044 22.4203 27.9118 22.1203 28.0254 21.8541C28.139 21.588 28.3502 21.3756 28.6162 21.2599C28.8822 21.1442 29.1832 21.1339 29.4582 21.2311C29.8569 21.4097 30.2153 21.6674 30.5113 21.9885C30.8072 22.3096 31.0345 22.6872 31.179 23.098C31.3459 23.5306 31.4221 23.992 31.4027 24.4537C31.3833 24.9154 31.2689 25.3674 31.0665 25.7818C30.7668 26.3469 30.3242 26.8234 29.782 27.1645C29.2398 27.5057 28.6167 27.6997 27.9741 27.7275Z" fill="#F4BC2F"/>
<path d="M21.201 31.1365C19.531 31.2308 19.1878 33.1264 20.0007 34.1222C21.0783 33.721 22.0786 33.1406 22.9594 32.4055C22.8649 32.0208 22.6357 31.6815 22.3133 31.4488C21.9908 31.216 21.5963 31.1053 21.201 31.1365Z" fill="white"/>
<path d="M20.7983 14.8858C18.487 15.0224 18.7234 18.6037 21.0362 18.4733C23.3491 18.3429 23.1174 14.7539 20.7983 14.8858Z" fill="white"/>
<path d="M26.4514 23.4203C26.4897 22.6675 26.5421 21.918 26.5757 21.173C26.4417 21.1555 26.3066 21.149 26.1718 21.1537C23.8831 21.2921 24.0949 24.7967 26.3687 24.7348C26.3993 24.3092 26.4238 23.8585 26.4514 23.4203Z" fill="white"/>
<path d="M17.7946 12.2195C20.1059 12.0828 19.8695 8.50154 17.5504 8.63338C15.2313 8.76523 15.4755 12.3514 17.7946 12.2195Z" fill="white"/>
<path d="M26.9908 6.20776C24.6732 6.33954 24.911 9.92515 27.2271 9.78709L27.4162 9.74327C27.5001 8.5811 27.582 7.41942 27.6618 6.25822C27.4427 6.20138 27.2154 6.18428 26.9908 6.20776Z" fill="white"/>
<path d="M18.8792 23.5069C16.5679 23.6436 16.8043 27.2249 19.1219 27.0868C21.4396 26.9486 21.1969 23.3688 18.8792 23.5069Z" fill="white"/>
<path d="M1.58502 20.4422L1.54095 20.4524C1.71083 21.6279 1.91369 22.8023 2.13694 23.9787C4.10994 23.5611 3.78146 20.3179 1.58502 20.4422Z" fill="white"/>
<path d="M13.0738 35.1729C13.2036 34.8937 13.2585 34.5852 13.2333 34.2775C13.208 33.9697 13.1034 33.673 12.9296 33.4162C12.7558 33.1594 12.5188 32.9511 12.2414 32.8116C11.964 32.6722 11.6556 32.6062 11.3463 32.6201C11.0752 32.6349 10.8117 32.7123 10.5767 32.8463C10.3417 32.9802 10.1415 33.1671 9.99214 33.392C9.84273 33.6169 9.74813 33.8737 9.71579 34.1422C9.68346 34.4107 9.71428 34.6835 9.80582 34.9391C10.5057 35.1019 11.221 35.186 11.9385 35.1899L13.0738 35.1729Z" fill="white"/>
<path d="M11.2458 15.4771C8.93446 15.6137 9.16457 19.1965 11.4822 19.0584C13.7998 18.9202 13.5634 15.3389 11.2458 15.4771Z" fill="white"/>
<path d="M0.980605 12.6496C0.834533 12.6673 0.69091 12.7006 0.552199 12.7489C0.700291 13.9167 0.856196 15.0893 1.00429 16.257L1.22909 16.2514C3.53303 16.096 3.29539 12.5116 0.980605 12.6496Z" fill="white"/>
<path d="M9.20311 24.7568C6.89179 24.8935 7.12821 28.4748 9.43953 28.3381C11.7508 28.2015 11.5207 24.6187 9.20311 24.7568Z" fill="white"/>
<path d="M7.16519 12.3866C9.48282 12.2485 9.24641 8.66719 6.92877 8.80533C4.61114 8.94347 4.85386 12.5233 7.16519 12.3866Z" fill="white"/>
<g style="mix-blend-mode:multiply">
<path d="M23.9724 31.4894C25.4999 29.673 26.0948 27.2482 26.3179 24.8831C26.3646 24.4135 26.3958 23.9343 26.4284 23.4614C26.7562 17.5485 27.2255 11.6427 27.6257 5.72634C27.6467 5.42963 27.5911 5.13192 27.4643 4.8615C27.3374 4.59107 27.1435 4.35691 26.901 4.18128C26.6585 4.00564 26.3754 3.89436 26.0787 3.85801C25.7819 3.82166 25.4813 3.86145 25.2055 3.97359C24.8343 4.11942 24.4728 4.24973 24.1175 4.37859C24.0972 5.56663 24.0989 6.76287 24.1053 7.95137C24.1135 9.64471 24.1201 11.3318 24.0481 13.0238C23.9045 17.3782 22.9975 21.9095 20.3568 25.3534C18.3398 27.9173 15.5235 29.7384 12.3462 30.5334C9.68705 31.1852 6.90342 31.1798 4.23659 30.5177C4.94298 32.0958 5.79412 33.3345 7.40798 34.1174C8.84389 34.8048 10.4101 35.1746 11.9983 35.2011C14.1671 35.2528 16.3331 35.0631 18.456 34.6356C20.5869 34.1968 22.5182 33.0953 23.9724 31.4894Z" fill="#E8E8E8"/>
</g>
</g>
<defs>
<clipPath id="clip0_677_3695">
<rect width="36" height="34" fill="white"/>
</clipPath>
</defs>
</svg>
