<svg width="242" height="242" viewBox="0 0 242 242" fill="none" xmlns="http://www.w3.org/2000/svg">
<path d="M208.48 111.038H213.77V129.478H207.67L208.48 111.038Z" fill="#FAAD18"/>
<path d="M213.77 111.038C213.77 111.038 216.21 115.788 216.21 119.858C216.21 123.928 213.77 129.488 213.77 129.488V111.048V111.038Z" fill="#364551"/>
<path d="M32.3703 111.038H27.0803V129.478H33.1903L32.3703 111.038Z" fill="#FAAD18"/>
<path d="M27.0803 111.038C27.0803 111.038 24.6403 115.788 24.6403 119.858C24.6403 123.928 27.0803 129.488 27.0803 129.488V111.048V111.038Z" fill="#364551"/>
<path d="M109.54 33.2682L106.42 14.4082H139.78L133.81 33.8082L109.54 33.2682Z" fill="#FAAD18"/>
<path d="M106.42 14.4082C106.42 14.4082 110.62 5.86823 122.69 5.86823C134.76 5.86823 139.78 14.4082 139.78 14.4082H106.42Z" fill="#CB8B2A"/>
<path d="M109.45 16.7183L112.61 28.9683L118.93 28.7683V16.7183H109.45Z" fill="#FCDB00"/>
<path d="M130.61 18.1582C130.2 17.7682 129.73 17.5882 129.17 17.5982C128.54 17.6082 127.91 17.8782 127.55 18.4182C127.5 18.4982 127.45 18.5682 127.4 18.6482C127.12 19.0682 126.93 19.6182 127.03 20.1382C127.12 20.5782 127.31 20.9582 127.63 21.2782C127.93 21.5682 128.34 21.7982 128.76 21.8382C128.94 21.8382 129.12 21.8382 129.3 21.8382C129.66 21.7882 129.98 21.6482 130.26 21.4182C130.34 21.3582 130.42 21.3082 130.5 21.2482C130.94 20.9482 131.17 20.3882 131.25 19.8882C131.35 19.2482 131.07 18.6082 130.62 18.1682L130.61 18.1582Z" fill="#364551"/>
<path d="M209.544 132.155C215.974 82.9836 181.326 37.9102 132.155 31.4804C82.9836 25.0505 37.9102 59.6991 31.4804 108.87C25.0505 158.041 59.6991 203.115 108.87 209.544C158.041 215.974 203.115 181.326 209.544 132.155Z" fill="#364551"/>
<path d="M180.758 180.758C214.034 147.481 214.034 93.5291 180.758 60.2526C147.481 26.976 93.5291 26.976 60.2526 60.2526C26.976 93.5291 26.976 147.481 60.2526 180.758C93.5291 214.034 147.481 214.034 180.758 180.758Z" fill="#425160"/>
<path d="M173.842 173.842C203.299 144.385 203.299 96.6253 173.842 67.1681C144.385 37.7108 96.6253 37.7108 67.1681 67.1681C37.7108 96.6253 37.7108 144.385 67.1681 173.842C96.6253 203.299 144.385 203.299 173.842 173.842Z" fill="#FAAD18"/>
<path d="M180.815 127.866C184.887 94.5522 161.182 64.244 127.868 60.1712C94.5539 56.0984 64.2457 79.8033 60.1729 113.118C56.1001 146.432 79.805 176.74 113.119 180.813C146.434 184.886 176.742 161.181 180.815 127.866Z" fill="#CB8B2A"/>
<path d="M162.437 162.437C185.595 139.278 185.595 101.732 162.437 78.5736C139.278 55.4155 101.732 55.4155 78.5737 78.5736C55.4156 101.732 55.4156 139.278 78.5737 162.436C101.732 185.595 139.278 185.595 162.437 162.437Z" fill="#208FCE"/>
<path d="M179.81 120.508C178.95 118.038 174.16 68.2482 121.88 66.8282C71.6503 65.4582 61.2103 120.508 61.2103 120.508C61.2103 87.7582 87.7603 61.2082 120.51 61.2082C153.26 61.2082 179.81 87.7582 179.81 120.508Z" fill="#1B7EC1"/>
<path d="M62.8702 77.2882L70.5602 82.2882C61.1302 94.3182 58.4102 106.358 58.4102 106.358L48.9202 106.628C48.9202 106.628 52.4702 91.9782 62.8702 77.2882Z" fill="#FCDB00"/>
<path d="M192.4 106.358C192.4 106.358 190.61 106.388 181.94 107.208C180.31 95.8182 161.66 57.5982 122.09 58.2882C105.83 58.5682 93.5503 63.0082 84.3503 69.2982L77.3203 61.8082C87.3403 53.7782 100.56 47.8682 117.83 47.7782C182.5 47.4682 192.42 106.368 192.42 106.368L192.4 106.358Z" fill="#FCDB00"/>
<path d="M191.86 135.788C191.86 135.788 188.4 153.488 179.86 161.008C172.94 155.518 172.54 155.008 172.54 155.008C172.54 155.008 180.47 142.908 181.08 134.358C187.39 135.378 191.86 135.778 191.86 135.778V135.788Z" fill="#FDE464"/>
<path d="M70.4103 157.968C70.4103 157.968 82.4103 185.228 121.88 186.448C156.46 184.618 170.09 158.168 170.09 158.168C170.09 158.168 151.78 182.378 121.67 181.768C91.5603 181.158 70.4103 157.968 70.4103 157.968Z" fill="#FCDB00"/>
<path d="M41.1202 97.1382C41.1202 97.1382 58.4102 36.7182 122.08 38.1482C185.75 39.5682 199.99 98.5682 202.23 104.668C195.52 93.0682 181.28 41.5882 120.05 42.0082C62.0702 42.4182 41.1202 97.1382 41.1202 97.1382Z" fill="#364551"/>
<path d="M83.4103 80.9882L93.2303 97.4582L88.9003 103.528L70.7003 97.4582C70.7003 97.4582 71.5703 89.9482 83.4103 80.9882Z" fill="white"/>
<path d="M121.85 178.748C121.24 178.768 120.62 178.768 120.02 178.768L120.05 172.698C120.59 172.698 121.14 172.698 121.69 172.678L121.85 178.738V178.748ZM138.02 176.008L136.17 170.228C136.69 170.058 137.21 169.888 137.72 169.708L139.76 175.418C139.19 175.618 138.6 175.818 138.03 176.008H138.02ZM103.8 176.378C103.21 176.208 102.63 176.018 102.05 175.828L103.96 170.068C104.48 170.238 105 170.408 105.53 170.558L103.8 176.368V176.378ZM154.27 167.768L150.7 162.858C151.14 162.538 151.58 162.208 152.01 161.878L155.73 166.668C155.25 167.038 154.76 167.408 154.27 167.758V167.768ZM87.3902 168.478C86.8902 168.128 86.3902 167.768 85.9002 167.408L89.5102 162.538C89.9502 162.858 90.3902 163.178 90.8402 163.488L87.3802 168.468L87.3902 168.478ZM167.15 154.898L162.24 151.328C162.56 150.888 162.87 150.438 163.18 149.988L168.2 153.398C167.86 153.908 167.5 154.408 167.15 154.898ZM74.2402 155.888C73.8702 155.398 73.5102 154.908 73.1602 154.418L78.1002 150.908C78.4202 151.348 78.7402 151.788 79.0702 152.228L74.2402 155.898V155.888ZM175.4 138.668L169.63 136.808C169.8 136.288 169.96 135.768 170.11 135.238L175.94 136.908C175.77 137.498 175.59 138.088 175.4 138.668ZM65.6402 139.838C65.4402 139.258 65.2502 138.678 65.0702 138.098L70.8602 136.308C71.0202 136.828 71.1902 137.348 71.3702 137.858L65.6402 139.838ZM178.17 120.668L172.1 120.698C172.1 120.158 172.09 119.608 172.07 119.058L178.13 118.838C178.15 119.448 178.16 120.058 178.17 120.668ZM68.5502 121.808L62.4902 121.908C62.4802 121.298 62.4802 120.688 62.4902 120.078L68.5602 120.158C68.5602 120.698 68.5602 121.248 68.5602 121.798L68.5502 121.808ZM170.07 106.528C169.92 106.008 169.76 105.478 169.59 104.968L175.36 103.098C175.55 103.678 175.73 104.258 175.9 104.848L170.07 106.528ZM70.8302 105.668L65.0302 103.878C65.2102 103.298 65.4002 102.708 65.6002 102.138L71.3402 104.108C71.1602 104.628 70.9902 105.148 70.8302 105.668ZM163.12 91.7783C162.81 91.3283 162.5 90.8783 162.18 90.4383L167.08 86.8583C167.44 87.3483 167.79 87.8483 168.13 88.3483L163.12 91.7683V91.7783ZM78.0402 91.0383L73.0902 87.5283C73.4402 87.0283 73.8102 86.5383 74.1702 86.0483L79.0102 89.7083C78.6802 90.1383 78.3602 90.5883 78.0402 91.0283V91.0383ZM151.93 79.9183C151.5 79.5883 151.06 79.2583 150.62 78.9383L154.17 74.0183C154.66 74.3783 155.15 74.7383 155.64 75.1083L151.93 79.9083V79.9183ZM89.4302 79.3683L85.8102 74.5083C86.3002 74.1483 86.7902 73.7883 87.2902 73.4383L90.7602 78.4183C90.3102 78.7283 89.8702 79.0483 89.4302 79.3783V79.3683ZM137.62 72.1083C137.11 71.9283 136.59 71.7483 136.07 71.5883L137.92 65.8083C138.5 65.9983 139.09 66.1883 139.66 66.3983L137.63 72.1183L137.62 72.1083ZM103.87 71.8183L101.95 66.0683C102.53 65.8783 103.11 65.6883 103.69 65.5183L105.43 71.3283C104.91 71.4883 104.39 71.6483 103.87 71.8183ZM121.59 69.1683C121.05 69.1583 120.5 69.1483 119.95 69.1583L119.9 63.0883C120.51 63.0883 121.13 63.0883 121.73 63.0983L121.58 69.1583L121.59 69.1683Z" fill="#2A3A4D"/>
<g style="mix-blend-mode:multiply">
<path d="M148.86 125.868L168.84 120.168L148.69 115.088C147.78 110.798 145.89 106.878 143.26 103.568L149.44 91.9983L138.07 98.5283C134.68 95.9983 130.7 94.2283 126.38 93.4483L120.68 73.4683L115.6 93.6183C111.31 94.5283 107.39 96.4283 104.08 99.0483L92.5102 92.8683L99.0402 104.238C96.5102 107.628 94.7402 111.608 93.9602 115.928L73.9802 121.628L94.1302 126.708C95.0402 130.998 96.9302 134.918 99.5602 138.228L93.3802 149.798L104.75 143.268C108.14 145.798 112.12 147.568 116.44 148.348L122.14 168.328L127.22 148.178C131.51 147.268 135.43 145.378 138.74 142.748L150.31 148.928L143.78 137.558C146.31 134.168 148.08 130.188 148.86 125.868ZM121.73 141.578C110.31 141.758 100.91 132.638 100.73 121.218C100.55 109.798 109.67 100.398 121.09 100.218C132.51 100.038 141.91 109.158 142.09 120.578C142.27 131.998 133.15 141.398 121.73 141.578Z" fill="#246FA0"/>
</g>
<g style="mix-blend-mode:multiply">
<path d="M133.34 88.6382L133.65 125.028L108.84 152.258L133.34 88.6382Z" fill="#246FA0"/>
</g>
<path d="M129.06 123.518L128.98 123.628L108.84 152.258L108.9 151.858L113.76 117.628L133.34 88.6382L129.06 123.518Z" fill="white"/>
<path d="M128.98 123.628L108.84 152.258L108.9 151.858L113.76 117.628L128.98 123.628Z" fill="#ED3435"/>
<path d="M129.06 123.518L128.98 123.638L120.83 120.418C127.04 104.518 133.34 88.6382 133.34 88.6382L129.06 123.518Z" fill="#DDE6F4"/>
<path d="M128.98 123.628L108.84 152.258C108.84 152.258 108.82 152.128 108.9 151.858C109.62 149.288 115.18 134.848 120.83 120.418L128.98 123.638V123.628Z" fill="#F05B63"/>
<path opacity="0.36" d="M72.5502 143.928C72.5502 143.928 86.1402 173.898 120.58 174.088C155.16 174.278 166.36 149.088 169.75 140.548C141.8 130.528 87.3302 135.258 72.5502 143.938V143.928Z" fill="white"/>
<path opacity="0.43" d="M158.74 140.388C158.74 140.388 149.97 166.628 121.41 170.728C131.19 170.918 153.72 168.868 166.19 142.058C163.21 139.638 158.74 140.378 158.74 140.378V140.388Z" fill="white"/>
<path d="M155.92 143.378L163.14 149.448L166.19 142.058L158.74 140.388L155.92 143.378Z" fill="white"/>
</svg>
