<svg width="75" height="70" viewBox="0 0 75 70" fill="none" xmlns="http://www.w3.org/2000/svg">
<path d="M2 68H73.5M7.5 2V68M46 2V68M68 18.5V68M18.5 15.75H21.25M18.5 26.75H21.25M18.5 37.75H21.25M32.25 15.75H35M32.25 26.75H35M32.25 37.75H35M18.5 68V55.625C18.5 53.348 20.348 51.5 22.625 51.5H30.875C33.152 51.5 35 53.348 35 55.625V68M4.75 2H48.75M46 18.5H70.75M57 32.25H57.0293V32.2793H57V32.25ZM57 43.25H57.0293V43.2793H57V43.25ZM57 54.25H57.0293V54.2793H57V54.25Z" stroke="#B6B6B6" stroke-width="3" stroke-linecap="round" stroke-linejoin="round"/>
</svg>
