<svg width="315" height="361" viewBox="0 0 315 361" fill="none" xmlns="http://www.w3.org/2000/svg">
<path d="M109.679 168.973C105.419 167.613 98.9386 159.033 98.7986 154.743C98.6986 151.753 100.109 149.683 102.849 148.683C105.509 147.713 107.899 148.613 109.469 150.823C111.559 153.763 113.379 156.893 115.209 160.003C116.879 162.833 115.209 165.163 113.249 168.163C124.549 164.433 135.069 160.873 145.659 157.523C148.179 156.723 146.959 155.813 146.209 154.713C140.469 146.253 134.719 137.803 128.999 129.333C127.749 127.483 126.359 125.653 127.009 123.173C127.629 120.813 129.039 119.093 131.399 118.523C134.239 117.833 136.539 118.923 138.179 121.333C143.309 128.843 148.439 136.363 153.569 143.883C154.689 145.523 155.829 147.153 157.279 149.223C160.229 144.963 163.049 140.933 165.819 136.873C170.669 129.773 175.489 122.653 180.329 115.553C184.619 109.253 189.019 107.633 196.329 109.993C231.249 121.253 266.149 132.543 301.039 143.903C311.069 147.173 313.829 155.253 307.979 164.083C300.969 174.683 293.899 185.243 286.679 195.703C284.989 198.153 284.679 199.793 286.529 202.463C295.129 214.853 303.469 227.423 311.819 239.973C317.229 248.113 314.329 256.283 304.979 259.423C298.859 261.483 292.759 263.603 286.559 265.383C283.829 266.173 282.899 267.353 282.939 270.263C283.119 283.113 283.009 295.963 283.009 308.813C283.009 318.583 278.199 325.083 268.899 327.863C248.839 333.863 228.789 339.873 208.719 345.853C193.409 350.423 178.079 354.953 162.769 359.523C159.219 360.583 155.629 360.703 152.119 359.653C116.179 348.883 80.2486 338.083 44.3286 327.223C36.4086 324.833 31.5486 318.143 31.5286 309.953C31.4986 296.603 31.4486 283.253 31.5886 269.913C31.6186 267.313 30.7986 266.243 28.3286 265.513C21.7986 263.573 15.3386 261.373 8.89857 259.153C0.438574 256.233 -2.53143 248.033 2.35857 240.613C10.7286 227.933 19.2286 215.343 27.8486 202.823C29.5986 200.273 30.0186 198.593 28.0086 195.763C20.5186 185.183 13.3986 174.353 6.19857 163.573C0.838574 155.543 3.81857 147.013 13.0386 144.023C32.7286 137.633 52.4286 131.283 72.1386 124.943C76.9086 123.403 80.0086 124.633 81.3286 128.463C82.4986 131.853 80.5086 134.913 76.0086 136.383C57.0286 142.593 38.0486 148.823 19.0186 154.893C16.1786 155.793 15.9586 156.533 17.6386 158.963C24.6586 169.113 31.4886 179.393 38.3586 189.643C39.4286 191.233 40.3086 191.943 42.5586 191.203C64.4586 183.973 86.4286 176.943 108.369 169.843C108.809 169.703 109.179 169.313 109.659 168.993L109.679 168.973ZM156.869 249.513C148.129 262.423 139.819 274.653 131.569 286.913C126.389 294.623 122.139 296.083 113.209 293.163C91.4286 286.043 69.6486 278.953 47.8586 271.873C43.5286 270.463 43.5086 270.493 43.5086 275.163C43.5086 285.633 43.5086 296.103 43.5186 306.583C43.5186 313.673 44.1686 314.653 50.8086 316.653C84.9386 326.913 119.089 337.113 153.199 347.443C156.319 348.383 156.769 347.673 156.759 344.623C156.689 321.313 156.819 298.003 156.869 274.693C156.889 266.633 156.869 258.573 156.869 249.533V249.513ZM147.539 241.613C147.009 241.333 146.719 241.123 146.399 241.023C111.679 229.713 76.9586 218.443 42.2686 207.063C40.1386 206.363 39.3886 207.283 38.4086 208.733C30.2986 220.833 22.1986 232.953 13.9486 244.963C12.3286 247.313 13.0686 247.923 15.3386 248.653C47.2786 258.943 79.1986 269.293 111.129 279.623C119.799 282.423 119.849 282.433 124.869 275.063C132.439 263.973 139.939 252.833 147.539 241.623V241.613ZM302.219 247.583C301.539 246.453 301.019 245.483 300.409 244.573C292.609 233.003 284.689 221.523 277.079 209.823C275.199 206.943 273.559 206.603 270.469 207.623C242.219 216.903 213.909 226.013 185.619 235.193C179.459 237.193 173.319 239.293 166.949 241.423C175.709 254.343 184.259 266.743 192.539 279.323C194.239 281.903 195.689 282.343 198.519 281.413C218.989 274.633 239.509 268.013 260.009 261.333C274.009 256.773 287.999 252.213 302.219 247.573V247.583ZM298.739 156.253C298.149 155.933 297.939 155.783 297.709 155.713C262.979 144.413 228.249 133.133 193.539 121.773C191.689 121.173 190.829 121.693 189.869 123.113C182.709 133.753 175.529 144.373 168.259 154.933C167.079 156.653 167.579 157.133 169.269 157.673C174.689 159.403 180.079 161.273 185.489 163.033C214.219 172.373 242.959 181.693 271.689 191.023C273.219 191.523 274.469 192.233 275.789 190.233C283.289 178.933 290.949 167.733 298.729 156.253H298.739ZM256.779 199.383C255.839 198.823 255.579 198.603 255.269 198.503C238.189 192.943 221.119 187.393 204.039 181.863C189.319 177.093 174.579 172.403 159.879 167.563C157.879 166.903 157.249 167.103 157.249 169.303C157.289 189.253 157.279 209.203 157.219 229.153C157.219 231.513 158.099 231.433 159.899 230.813C164.699 229.163 169.569 227.693 174.399 226.123C201.619 217.293 228.839 208.453 256.769 199.393L256.779 199.383Z" fill="#B6B6B6"/>
<path d="M182.108 25.5726C185.468 25.5726 187.908 25.5126 190.348 25.5826C194.078 25.6926 196.528 28.1626 196.488 31.6526C196.448 34.8426 193.898 37.3526 190.468 37.4926C188.108 37.5926 185.748 37.5926 183.388 37.6526C183.318 37.6526 183.248 37.8226 182.958 38.2026C185.118 41.0326 187.598 43.8026 189.148 47.1626C190.958 51.0926 192.548 55.2126 189.358 59.0626C186.198 62.8926 181.698 63.4826 177.098 62.6126C164.178 60.1726 155.878 52.4426 151.868 40.0226C151.388 38.5226 150.918 37.6226 149.038 37.2726C146.248 36.7526 144.588 34.7026 144.528 31.6526C144.468 28.6426 145.918 26.2626 148.708 25.8226C151.018 25.4626 151.428 24.2326 151.948 22.6026C155.668 10.8326 163.648 3.59263 175.518 0.512633C178.098 -0.157367 180.758 -0.127367 183.298 0.352633C189.838 1.59263 192.488 6.55263 190.318 12.9026C188.758 17.4626 185.878 21.1726 182.118 25.5726H182.108Z" fill="#B6B6B6"/>
<path d="M212.849 25.7027C219.569 27.0827 225.609 31.3327 229.729 38.1227C231.359 40.8127 230.289 43.5027 227.859 45.3327C225.369 47.2127 222.479 47.2527 220.439 44.9227C217.159 41.1827 213.509 38.4227 208.699 36.8427C205.659 35.8427 204.509 32.8227 205.429 29.7727C206.279 26.9427 208.469 25.3027 212.849 25.7027Z" fill="#B6B6B6"/>
<path d="M236.648 61.1427C236.628 66.1827 235.398 70.9627 233.308 75.5027C231.748 78.9027 228.398 80.3727 225.368 79.1727C222.188 77.9127 220.878 74.4727 222.228 70.7327C223.578 66.9927 224.618 63.2027 224.678 59.1827C224.748 54.9627 226.868 52.5327 230.478 52.5027C234.278 52.4727 236.588 54.9927 236.648 59.2627C236.648 59.8827 236.648 60.5027 236.648 61.1327V61.1427Z" fill="#B6B6B6"/>
<path d="M200.908 100.023C197.798 99.7727 195.688 98.2527 194.908 95.5127C194.118 92.7227 195.078 90.0427 197.738 88.8627C202.728 86.6627 207.758 84.5927 212.648 82.1227C215.298 80.7827 217.848 82.1727 219.388 84.5827C220.928 86.9927 220.798 89.5527 218.868 91.8027C216.698 94.3427 203.958 100.063 200.908 100.023Z" fill="#B6B6B6"/>
<path d="M176.098 91.4727C178.328 91.4727 180.578 91.3427 182.798 91.5027C186.168 91.7427 187.888 93.8327 188.198 97.0527C188.488 100.103 186.168 103.073 183.118 103.333C178.548 103.723 173.958 103.973 169.378 104.023C165.528 104.063 162.718 101.413 162.598 98.0627C162.478 94.7627 164.818 92.2127 168.658 91.8427C171.118 91.6027 173.618 91.8027 176.098 91.8027C176.098 91.6927 176.098 91.5827 176.098 91.4727Z" fill="#B6B6B6"/>
<path d="M143.309 91.4727C149.569 91.1627 152.719 93.1127 152.759 97.0527C152.799 100.943 149.799 103.063 143.979 103.413C141.519 103.563 139.069 104.103 136.609 104.193C133.139 104.323 130.699 102.253 130.359 99.1827C129.969 95.7227 132.039 92.7327 135.579 92.2827C138.259 91.9427 140.919 91.0527 143.309 91.4827V91.4727Z" fill="#B6B6B6"/>
<path d="M93.7786 131.733C94.0986 130.153 94.5086 127.323 95.2686 124.593C96.2786 120.983 99.4086 119.183 102.669 120.033C105.689 120.813 107.829 123.963 107.029 127.283C106.469 129.603 106.409 131.943 105.919 134.253C105.029 138.453 102.709 140.773 99.4086 140.483C95.9086 140.173 93.6686 137.213 93.7686 131.743L93.7786 131.733Z" fill="#B6B6B6"/>
<path d="M122.849 105.713C122.919 106.693 122.869 107.863 122.059 108.733C119.349 111.673 116.209 114.203 112.629 115.853C110.279 116.943 107.739 116.013 106.089 113.663C104.469 111.343 104.429 108.923 106.109 106.743C108.419 103.743 111.529 101.523 114.899 99.9827C118.749 98.2227 122.849 101.313 122.849 105.723V105.713Z" fill="#B6B6B6"/>
</svg>
