<svg width="189" height="42" viewBox="0 0 189 42" fill="none" xmlns="http://www.w3.org/2000/svg">
<path d="M27.7328 14.3286C25.7625 12.3583 22.8517 11.6387 19.5364 12.3015C18.008 12.607 16.4723 13.1961 15.0006 14.0268C15.0006 14.0268 15.0018 14.0268 15.0018 14.028C13.5301 13.1961 11.9932 12.6082 10.4648 12.3027C7.14955 11.6399 4.23875 12.3595 2.26844 14.3298C0.296921 16.2989 -0.422629 19.2097 0.240178 22.5249C0.849863 25.5746 2.58716 28.6556 5.13094 31.2006C7.78821 33.8578 11.3123 35.845 14.9994 36.2724C18.6865 35.8438 22.2106 33.8578 24.8679 31.2006C27.4116 28.6568 29.1489 25.5758 29.7586 22.5249C30.4238 19.2097 29.7031 16.2989 27.7328 14.3286ZM22.3168 28.6483C20.1292 30.836 17.4744 32.2799 14.9994 32.6348C12.5244 32.2799 9.86959 30.836 7.68196 28.6483C3.71599 24.6824 2.40486 19.293 4.81825 16.8796C5.62835 16.0695 6.80064 15.6723 8.16126 15.6723C9.24421 15.6723 10.4455 15.9246 11.6757 16.4208C11.3992 16.6683 11.1264 16.9267 10.8608 17.1923C9.48084 18.5722 8.3339 20.1224 7.47672 21.7402C7.86789 23.0272 8.67074 24.3818 9.76093 25.5951C10.3839 23.5511 11.6612 21.4951 13.413 19.7445C17.379 15.7785 22.7684 14.4674 25.1818 16.8808C27.5951 19.293 26.2828 24.6824 22.3168 28.6483Z" fill="white"/>
<path d="M25.043 0.087311C21.1893 -0.411303 17.2318 1.28978 15.0019 4.72816C12.8312 1.37671 8.90143 -0.429413 4.95718 0.087311C4.87992 0.594376 4.83887 1.11351 4.83887 1.6411C4.83887 7.25263 9.38797 11.8017 14.9995 11.8017C20.611 11.8017 25.1601 7.25263 25.1601 1.6411C25.1613 1.11351 25.1215 0.594376 25.043 0.087311ZM8.25673 3.47137C10.6448 4.11003 12.5318 5.97289 13.1765 8.39232C10.7884 7.744 8.90384 5.8594 8.25673 3.47137ZM16.8261 8.39111C17.4732 5.97893 19.3651 4.11486 21.7447 3.47378C21.0963 5.86061 19.213 7.744 16.8261 8.39111Z" fill="white"/>
<path d="M44.8617 35.432C42.0537 35.432 38.9577 34.172 37.1937 32.228C36.6177 31.652 36.2937 31.04 36.2937 30.356C36.3297 29.06 37.3737 28.196 38.5257 28.196C38.9577 28.196 39.4257 28.34 39.7857 28.664C40.7577 29.672 42.4497 31.112 44.8617 31.112C46.9857 31.112 48.2457 30.104 48.2457 28.484C48.2457 27.116 47.4177 26.54 45.2217 25.532L42.6657 24.38C38.8857 22.652 36.9057 20.6 36.9057 17.54C36.9057 13.544 40.2897 10.808 44.7897 10.808C48.3537 10.808 50.4417 12.464 51.4497 13.616C51.9537 14.156 52.0977 14.696 52.0977 15.164C52.0977 16.388 50.9817 17.324 49.8657 17.324C49.4337 17.324 48.9657 17.18 48.5337 16.82C47.5617 15.956 46.4817 15.128 44.7897 15.128C43.0617 15.128 41.8377 15.956 41.8377 17.432C41.8377 18.62 42.4857 19.196 44.6097 20.168L47.3097 21.356C51.2697 23.12 53.1777 25.064 53.1777 28.304C53.1777 32.696 49.6137 35.432 44.8617 35.432ZM59.3311 35.432C57.9271 35.432 56.8831 34.352 56.8831 32.948V10.052C56.8831 8.648 57.9271 7.568 59.3311 7.568C60.6991 7.568 61.7431 8.648 61.7431 10.052V32.948C61.7431 34.352 60.6991 35.432 59.3311 35.432ZM68.7591 7.748C70.3791 7.748 71.7831 9.044 71.7831 10.7C71.7831 12.32 70.3791 13.616 68.7591 13.616C67.0671 13.616 65.6991 12.32 65.6991 10.7C65.6991 9.044 67.0671 7.748 68.7591 7.748ZM68.7231 35.432C67.3551 35.432 66.3111 34.352 66.3111 32.948V19.232C66.3111 17.828 67.3551 16.784 68.7591 16.784C70.1271 16.784 71.1711 17.828 71.1711 19.232V32.948C71.1711 34.352 70.1271 35.432 68.7231 35.432ZM96.475 16.784C100.615 16.784 103.207 19.556 103.207 23.948V32.948C103.207 34.388 102.163 35.432 100.795 35.432C99.391 35.432 98.347 34.352 98.347 32.948V24.632C98.347 22.508 97.123 21.176 95.179 21.176C93.235 21.176 91.903 22.544 91.903 24.524V32.948C91.903 34.388 90.859 35.432 89.491 35.432C88.087 35.432 87.043 34.352 87.043 32.948V24.632C87.043 22.508 85.783 21.176 83.875 21.176C81.895 21.176 80.599 22.544 80.599 24.632V32.948C80.599 34.388 79.555 35.432 78.187 35.432C76.783 35.432 75.739 34.352 75.739 32.948V19.232C75.739 17.828 76.783 16.784 78.151 16.784C79.267 16.784 80.131 17.504 80.419 18.584C81.643 17.432 83.299 16.784 85.243 16.784C87.547 16.784 89.383 17.684 90.535 19.34C91.939 17.756 94.099 16.784 96.475 16.784ZM115.445 35.432C112.637 35.432 109.541 34.172 107.777 32.228C107.201 31.652 106.877 31.04 106.877 30.356C106.913 29.06 107.957 28.196 109.109 28.196C109.541 28.196 110.009 28.34 110.369 28.664C111.341 29.672 113.033 31.112 115.445 31.112C117.569 31.112 118.829 30.104 118.829 28.484C118.829 27.116 118.001 26.54 115.805 25.532L113.249 24.38C109.469 22.652 107.489 20.6 107.489 17.54C107.489 13.544 110.873 10.808 115.373 10.808C118.937 10.808 121.025 12.464 122.033 13.616C122.537 14.156 122.681 14.696 122.681 15.164C122.681 16.388 121.565 17.324 120.449 17.324C120.017 17.324 119.549 17.18 119.117 16.82C118.145 15.956 117.065 15.128 115.373 15.128C113.645 15.128 112.421 15.956 112.421 17.432C112.421 18.62 113.069 19.196 115.193 20.168L117.893 21.356C121.853 23.12 123.761 25.064 123.761 28.304C123.761 32.696 120.197 35.432 115.445 35.432ZM134.702 16.784C139.598 16.784 142.406 19.556 142.406 24.416V32.984C142.406 34.388 141.398 35.396 140.066 35.396C138.878 35.396 137.942 34.604 137.726 33.524C136.43 34.748 134.63 35.432 132.506 35.432C128.834 35.432 126.35 33.272 126.35 30.104C126.35 26.9 128.906 24.92 133.082 24.92H137.546V24.128C137.546 22.148 136.358 20.996 134.198 20.996C132.938 20.996 131.822 21.428 130.778 22.328C130.202 22.76 129.806 22.904 129.338 22.904C128.15 22.904 127.25 22.004 127.25 20.924C127.25 20.24 127.61 19.592 128.258 18.98C129.77 17.576 132.11 16.784 134.702 16.784ZM133.802 31.868C135.926 31.868 137.546 30.356 137.546 28.34V28.124H133.73C132.11 28.124 131.246 28.736 131.246 29.924C131.246 31.112 132.218 31.868 133.802 31.868ZM162.359 16.784C163.727 16.784 164.735 17.828 164.735 19.232V33.02C164.735 38.636 161.315 41.912 155.519 41.912C152.603 41.912 149.903 41.048 147.851 39.428C147.203 38.96 146.843 38.312 146.843 37.664C146.843 36.44 147.815 35.468 149.039 35.468C149.471 35.468 149.903 35.648 150.335 35.936C151.883 37.016 153.395 37.52 155.123 37.52C158.111 37.52 159.875 35.972 159.875 33.308V32.336C158.615 33.704 156.743 34.46 154.439 34.46C149.435 34.46 145.907 30.788 145.907 25.604C145.907 20.42 149.435 16.784 154.439 16.784C156.851 16.784 158.759 17.612 159.983 19.052C160.055 17.756 161.099 16.784 162.359 16.784ZM155.447 30.356C158.147 30.356 159.947 28.412 159.947 25.532C159.947 22.76 158.183 20.924 155.447 20.924C152.747 20.924 150.839 22.832 150.839 25.568C150.839 28.34 152.783 30.356 155.447 30.356ZM177.558 16.784C182.418 16.784 186.018 20.312 186.018 25.136V25.244C186.018 26.756 184.938 27.728 183.354 27.728H173.202C173.778 29.96 175.578 31.256 178.206 31.256C179.502 31.256 180.834 30.896 181.914 30.212C182.274 29.996 182.598 29.888 182.958 29.888C184.074 29.888 184.938 30.716 184.938 31.832C184.938 32.624 184.578 33.2 183.714 33.776C182.094 34.856 180.15 35.432 178.062 35.432C172.446 35.432 168.306 31.436 168.306 26.108C168.306 20.816 172.302 16.784 177.558 16.784ZM177.45 20.708C175.326 20.708 173.742 22.112 173.202 24.308H181.302C181.23 22.184 179.718 20.708 177.45 20.708Z" fill="white"/>
</svg>
