<svg width="13" height="10" viewBox="0 0 13 10" fill="none" xmlns="http://www.w3.org/2000/svg">
<path d="M0 4.9971C0 4.79818 0.0790175 4.60742 0.21967 4.46676C0.360322 4.32611 0.551088 4.2471 0.75 4.2471H9.537L6.25 1.3061C6.10307 1.17313 6.01474 0.987427 6.00429 0.789545C5.99384 0.591663 6.06213 0.397688 6.19424 0.249993C6.32635 0.102297 6.51154 0.0128845 6.70935 0.00128682C6.90717 -0.0103109 7.10154 0.0568487 7.25 0.188095L12 4.4381C12.0786 4.50844 12.1416 4.59459 12.1846 4.69092C12.2277 4.78725 12.25 4.89158 12.25 4.9971C12.25 5.10261 12.2277 5.20694 12.1846 5.30327C12.1416 5.39959 12.0786 5.48575 12 5.5561L7.25 9.8061C7.1767 9.87243 7.09101 9.92362 6.99786 9.95672C6.90471 9.98981 6.80593 10.0042 6.70721 9.99896C6.60849 9.99375 6.51177 9.96907 6.42262 9.92634C6.33347 9.88362 6.25365 9.82369 6.18774 9.75001C6.12183 9.67633 6.07115 9.59034 6.03859 9.497C6.00603 9.40365 5.99225 9.30479 5.99804 9.20611C6.00382 9.10742 6.02906 9.01085 6.0723 8.92195C6.11555 8.83305 6.17593 8.75357 6.25 8.6881L9.537 5.7471H0.75C0.551088 5.7471 0.360322 5.66808 0.21967 5.52742C0.0790175 5.38677 0 5.19601 0 4.9971Z" fill="white"/>
</svg>
