<svg width="73" height="73" viewBox="0 0 73 73" fill="none" xmlns="http://www.w3.org/2000/svg">
<path d="M66.527 2.75464H6.47878C4.42199 2.75464 2.75464 4.42199 2.75464 6.47878V66.527C2.75464 68.5838 4.42199 70.2511 6.47878 70.2511H66.527C68.5838 70.2511 70.2511 68.5838 70.2511 66.527V6.47878C70.2511 4.42199 68.5838 2.75464 66.527 2.75464Z" fill="#3D5A98"/>
<path d="M49.3206 70.2454V44.108H58.092L59.4037 33.9222H49.3206V27.4206C49.3206 24.4721 50.1419 22.4589 54.3679 22.4589H59.763V13.3339C57.1505 13.0616 54.5251 12.9322 51.8984 12.9461C44.1308 12.9461 38.7812 17.6797 38.7812 26.4112V33.9222H30.0098V44.108H38.7812V70.2454H49.3206Z" fill="white"/>
</svg>
