<svg width="30" height="36" viewBox="0 0 30 36" fill="none" xmlns="http://www.w3.org/2000/svg">
<path d="M24.9957 34.5556C23.0573 36.4554 20.9409 36.1554 18.9036 35.2555C16.7476 34.3357 14.7696 34.2957 12.495 35.2555C9.64671 36.4954 8.14345 36.1354 6.4424 34.5556C-3.21009 24.4969 -1.78595 9.17884 9.17199 8.61891C11.8423 8.75889 13.7015 10.0987 15.2641 10.2187C17.5981 9.73877 19.8332 8.35895 22.3255 8.53892C25.3122 8.77889 27.5671 9.97874 29.0506 12.1385C22.8793 15.878 24.343 24.097 30 26.3967C28.8726 29.3963 27.4089 32.3759 24.976 34.5756L24.9957 34.5556ZM15.0663 8.49893C14.7696 4.03949 18.3498 0.359955 22.4639 0C23.0376 5.15935 17.8355 8.99886 15.0663 8.49893Z" fill="black"/>
</svg>
