<svg width="548" height="481" viewBox="0 0 548 481" fill="none" xmlns="http://www.w3.org/2000/svg">
<g clip-path="url(#clip0_1103_412)">
<path d="M437.35 355.34C422.88 361.26 408.47 367.38 393.03 370.49C386.92 371.72 380.84 371.53 374.59 371.39C364.67 371.17 356.13 367.9 347.68 363.54C345.64 362.49 343.69 361.25 341.7 360.1C334.32 353.91 326.94 347.74 321.12 339.95C316.73 334.08 311.84 328.55 308.84 321.73C310.89 318.26 314.68 317.06 317.81 315.1C324.87 310.67 331.35 305.25 339.27 302.25C344.03 307.24 349.43 311.39 355.41 314.83C360.89 317.98 366.38 320.58 372.73 317.23C380.27 315.49 386.83 311.34 393.95 308.58C400.08 306.2 404.5 301.98 407.91 296.45C414.86 285.19 421.94 274.01 428.97 262.8C429.15 265.37 428.46 267.69 427.29 270C423.99 276.56 420.83 283.19 417.66 289.82C414.23 297 413.35 303.97 418.61 310.9C421.27 314.4 424.44 317.21 427.76 319.97C434.27 325.38 441.69 328.48 450.13 329.12C450.16 331.51 452.05 330.54 453.24 330.83C457.2 332.03 461.18 331.99 465.17 330.96C472.58 330.87 479.76 329.15 486.98 327.77C498.37 325.6 509.66 323.04 520.59 319.08C517.96 322.43 513.76 323.04 510.23 324.56C486.26 334.84 462.14 344.8 438.08 354.86C437.83 354.97 437.61 355.15 437.38 355.3L437.35 355.34Z" fill="#265751"/>
<path d="M286.92 392.11C286.9 392.63 286.88 393.15 286.86 393.67C286.11 394.46 286.2 395.4 286.42 396.35C286.01 399.63 285.61 402.92 285.2 406.2C283.79 410.36 282.81 414.72 279.6 418.03C270.18 421.89 261.47 427.28 251.9 430.84C250.56 430.72 249.53 431.55 248.38 432.02C234.62 437.74 221 443.87 206.36 447.12C204.9 447.44 202.82 448.28 202.05 447.64C200.65 446.48 202.6 444.99 202.9 443.58C203.24 441.95 203.65 440.33 204.01 438.7C207.17 424.12 207.2 409.44 204.71 394.81C203.72 389.02 203.16 382.96 199.74 377.82L199.92 376.93C204.82 379.08 209.42 377.21 213.46 375.02C225.65 368.4 236.47 359.89 244.88 348.75C252.73 338.35 260.46 327.82 266.29 316.08C266.99 314.66 267.72 313.64 269.41 314.84C274.18 322.43 276.15 331.16 279.4 339.37C279.46 340.9 279.67 342.37 280.15 343.86C282.56 351.36 284.34 359.03 285.77 366.77C286.14 371.26 286.52 375.75 286.89 380.24C286.04 381.41 286.04 382.57 286.95 383.71C286.96 385.08 286.98 386.44 286.99 387.81C285.98 389.23 286.01 390.66 286.94 392.1L286.92 392.11ZM246.88 405.59C242.24 406.38 237.9 406.87 235.15 410.91C233.09 413.93 233.87 416.74 237.43 417.5C242.58 418.61 245.89 414.88 249.57 412.31C251.16 411.2 251.43 409.47 250.68 407.82C249.91 406.14 248.22 405.7 246.89 405.59H246.88ZM231.39 387.89C226.98 387.98 223.23 390.27 223.32 392.74C223.42 395.39 225.24 395.42 227.15 395.41C230.77 395.38 233.91 392.91 234.12 389.99C234.27 387.83 232.86 387.85 231.39 387.89ZM249.36 371.08C252.96 371.03 257.03 368.21 256.8 365.96C256.57 363.74 254.7 363.3 253.08 363.63C250.32 364.19 246.45 363.6 246.44 368.18C246.44 370.09 247.31 371.41 249.36 371.08Z" fill="#51BEA0"/>
<path d="M251.9 430.84C261.46 427.28 270.17 421.89 279.6 418.03C278.43 419.35 277.26 420.67 276.08 421.99C258.53 432.51 240.92 442.91 223.46 453.57C206.8 463.74 189.83 473.12 170.41 477C161.41 479.28 152.43 481.59 143.11 478.6C142.22 478.31 141.18 478.5 140.21 478.46C139.51 477.21 138.19 477.17 137.02 476.79C130.01 474.53 123.19 471.83 116.7 468.29C106.43 462.68 97.65 455.15 88.97 447.47C75.19 433.81 64.1 418.24 56.33 400.47C50.83 387.89 46.97 374.83 45.24 361.07C42.89 342.36 46.31 324.67 53 307.37C53.52 306.77 54.03 306.17 54.55 305.56C54.99 308.83 53.93 311.78 52.89 314.82C50.16 322.74 47.28 330.65 47.04 339.18C46.62 346.47 47.67 353.64 48.37 360.87C49.15 368.88 52.32 376.33 53.05 384.31C53.14 385.29 53.5 386.8 54.98 386.55C56.05 386.37 56.22 385.18 56.23 384.15C56.23 383.17 56.15 382.18 56.26 381.22C57.09 373.69 57.45 366.23 61.93 359.43C70.46 346.49 82.31 340.06 97.54 339.29C91.41 346.71 83.52 352.31 76.93 359.25C63.27 368.23 59.42 378.52 69.29 392.75C73.65 399.03 78.41 404.98 82.94 411.11C89.1 419.45 94.76 428.45 105.78 431.35C109.02 433.37 112.25 435.38 115.49 437.4C115.94 438.17 116.64 438.4 117.47 438.34H117.41C118.07 439.83 119.41 440.33 120.82 440.74L120.89 440.79C122.74 442.78 124.9 444.27 127.55 444.99C127.82 445.8 128.4 446.05 129.2 445.92L129.18 445.84C129.15 446.47 129.62 446.6 130.08 446.74C135.62 450.04 140 447.11 144.35 444.08C151.01 439.71 158.32 436.39 164.58 431.39C164.84 431.15 165.11 430.92 165.37 430.68C167.39 429.06 167.95 426.92 167.92 424.41C167.85 419.55 167.33 414.7 167.19 409.88C166.87 398.78 164.86 387.77 165.45 376.64C165.53 375.08 164.58 374.53 163.79 373.68C165.99 370.35 163.68 368.67 161.35 366.99C157.66 364.34 154 361.64 150.27 359.05C145.44 355.7 141.96 350.99 137.85 346.91C134.42 343.51 130.94 340.17 127.49 336.8C129.86 336.3 131.82 336.82 133.49 338.74C135.67 341.24 138.64 342.57 141.77 343.34C143.77 343.83 145.44 344.69 146.73 346.21C150.99 351.23 156.63 354.7 161.63 358.79C167.59 363.66 169.87 369.25 170.5 376.51C171.46 387.55 173.35 398.51 174.3 409.54C174.85 416 175.45 422.55 173.11 428.99C171.26 434.07 166.83 436.71 163.54 440.41C160.59 443.72 160.66 444.69 164.93 445.97C171.33 447.88 177.79 449.52 184.59 449.19C188.91 448.98 193.25 449.22 197.58 449.11C200.36 449.04 201.18 450.12 200.12 452.66C199.26 454.72 198.3 456.74 197.55 458.83C197.08 460.14 196.8 461.7 197.79 462.82C198.8 463.97 200.15 463.22 201.27 462.71C208.1 459.65 215.13 456.84 221.16 452.38C229.44 446.26 237.27 439.57 247.24 436.11C249.36 435.38 252.06 434.1 251.89 430.84H251.9Z" fill="#265751"/>
<path d="M95.86 267.13C105.09 261.72 114.32 256.32 124.15 252.06C124.45 251.95 124.74 251.84 125.04 251.73C127.53 254.6 131.15 254.56 134.43 255.23C146.37 257.67 158.53 259.07 170.21 262.68C184.68 267.15 198.04 274.04 210.45 282.59C219.86 289.07 228.29 296.76 234.01 306.94C237.45 313.05 237.84 319.33 235.03 325.77C234.47 327.05 233.88 328.3 232.09 328.28C220.26 328.16 208.53 329.63 196.81 330.89C191.49 331.46 186.9 329.46 182.04 328.31C175.88 320.98 169.85 313.62 162.59 307.19C143.65 290.46 122.91 277.13 98.38 270.24C96.83 269.8 95.38 269.24 95.87 267.13H95.86ZM205.35 313.97C208.28 313.97 210.29 314.26 212.18 313.91C215.68 313.25 219.09 312.05 219.91 307.96C220.81 303.47 218.88 300.1 214.47 298.39C208.96 296.25 203.3 296.16 197.81 298.37C194.3 299.78 192.28 302.73 192.34 306.52C192.41 310.32 194.67 312.48 198.42 313.46C201.07 314.16 203.69 313.8 205.34 313.97H205.35ZM153.78 280.44C155.76 280.25 158.4 280.71 161.03 280.06C164.12 279.29 165.87 277.48 166.16 274.31C166.45 271.13 165.55 268.73 162.39 267.16C157.34 264.65 152.03 264.92 146.84 265.67C142.1 266.35 138.89 270.62 139.33 274.27C139.77 277.85 143.38 280.29 148.51 280.44C150.04 280.48 151.58 280.44 153.76 280.44H153.78Z" fill="#8BD0C1"/>
<path d="M70.6 91.47C79.83 78.17 90.1 65.79 102.76 55.55C103.82 54.69 104.89 53.84 105.96 52.99C106.39 57.87 108.14 62.01 112.49 64.71C111.44 66.22 111.24 68.1 110.69 69.76C108.97 74.96 106.91 80.07 107.85 85.92C109.85 98.35 121.14 103.8 132.09 105.02C142.69 106.2 150.21 100.26 157.66 93.92C170.67 82.85 184.78 73.46 201.37 68.65C215.84 64.45 230.8 63.16 245.78 62.21C254.31 61.67 262.75 63.35 271.26 63.01C273.4 64.63 275.53 66.25 277.67 67.86C276.83 68.28 275.99 68.7 275.15 69.11C269.59 67.86 263.98 66.83 258.25 67.34C250.11 68.08 241.96 68.65 233.83 69.66C218.87 71.52 204.59 75.36 191.38 82.67C179.04 89.5 168.22 98.14 159.15 109.11C151.92 117.86 145.93 127.18 141.83 137.74C140.87 138.14 140.44 138.99 139.96 139.84C137.81 143.64 135.62 147.42 133.44 151.21C131.35 149.82 129.19 148.53 127.2 147.03C117.73 139.88 108.95 131.91 99.9 124.25C90.38 116.19 81.72 107.64 74.86 97.22C73.57 95.27 73.12 92.56 70.62 91.46L70.6 91.47Z" fill="#51BEA0"/>
<path d="M70.6 91.47C73.1 92.56 73.55 95.27 74.84 97.23C81.7 107.65 90.36 116.2 99.88 124.26C108.93 131.92 117.7 139.89 127.18 147.04C129.18 148.55 131.34 149.83 133.42 151.22C132.72 153.02 131.97 154.8 131.34 156.62C127.35 168.25 123.45 179.91 122.43 192.28C121.08 194.38 122.06 196.78 121.61 198.99C121.38 199.03 121.15 199.04 120.92 199.04C109.2 195.12 99.4 188.02 90.47 179.82C80.83 170.96 71.46 161.71 63.58 151.23C57.75 143.48 52.36 135.21 54.52 124.56C54.71 123.63 54.69 122.59 53.87 121.83C57.5 112.65 62.23 104.09 68.05 96.11C69.08 94.7 69.76 93.03 70.6 91.48V91.47Z" fill="#237063"/>
<path d="M53.88 121.82C54.71 122.58 54.72 123.63 54.53 124.55C52.37 135.2 57.76 143.47 63.59 151.22C71.48 161.7 80.84 170.96 90.48 179.81C99.41 188.01 109.21 195.11 120.93 199.03C121.18 203.8 120.09 208.64 121.55 213.36C121.69 223.88 124.45 233.78 128.58 243.37C129.39 245.24 130.57 247.07 129.95 249.29C128.1 249.66 126.51 250.56 125.04 251.71C124.74 251.82 124.45 251.93 124.15 252.04C117.44 246.8 110.69 241.62 104.04 236.31C95.96 229.85 87.9199 223.34 79.9599 216.74C70.3599 208.77 59.58 201.97 53.7 190.27C47.48 177.87 44.04 165.09 45.93 150.96C47.08 142.33 48.4 133.88 51.98 125.9C52.6 124.53 53.25 123.17 53.88 121.81V121.82Z" fill="#265751"/>
<path d="M271.25 63.01C262.74 63.35 254.3 61.67 245.77 62.21C230.79 63.16 215.83 64.45 201.36 68.65C184.77 73.46 170.67 82.85 157.65 93.92C150.2 100.26 142.68 106.2 132.08 105.02C121.13 103.8 109.83 98.35 107.84 85.92C106.9 80.07 108.96 74.96 110.68 69.76C111.23 68.1 111.43 66.22 112.48 64.71C126.91 69.88 141.74 72.16 157.11 71.56C167.37 71.16 175.96 68.32 181.25 58.84C188.95 61.15 196.83 61.12 204.62 59.93C207.9 59.43 209.67 56.72 210.04 52.94C210.5 48.29 205.66 44.39 201.37 43.04C197.02 41.66 192.54 42.14 188.09 42.18C188.62 38.78 189.15 35.39 189.67 31.99C205.52 32.57 221.14 35.04 236.7 37.92C238.82 38.97 240.48 41.16 243.27 40.52C252.82 47.73 262.38 54.93 271.23 63L271.25 63.01Z" fill="#6FC7B3"/>
<path d="M520.57 319.12C509.64 323.07 498.35 325.64 486.96 327.81C479.74 329.18 472.57 330.91 465.15 331C461.17 330.95 457.2 330.91 453.22 330.87C452.03 330.58 450.15 331.55 450.11 329.16C455.07 322.47 458.02 314.81 460.78 307.07C465.03 295.18 465.78 282.6 467.97 270.31C471.25 268.97 470.29 266.75 469.17 264.5C469.3 263.13 469.42 261.77 469.55 260.4C471.9 260.44 471.14 257.11 473.29 256.93C474.57 263.99 476.94 270.65 481.13 276.5C491.46 290.96 506.96 289.63 519.58 283.77C523.13 284.04 525.23 281.29 527.27 279.32C531.55 275.17 536.43 271.27 538.02 265.03C539.46 262.1 541.76 259.58 542.31 256.21C543.4 255.02 543.56 253.44 544.1 252.01C544.57 251.99 543.64 237.02 544.1 237C544.97 238.06 547.24 253.97 547.32 255.55C548.52 280.08 540.84 301.11 522.71 318.01C522.14 318.54 521.28 318.76 520.56 319.13L520.57 319.12ZM478.58 306.41C481.08 305.97 484.75 305.23 486.48 301.24C487.32 299.3 486.92 298.02 484.42 298C481.46 297.98 478.62 298.62 475.86 299.49C473.63 300.19 472.48 301.98 472.97 304.36C473.47 306.79 475.5 306.51 478.58 306.4V306.41Z" fill="#51BEA0"/>
<path d="M545.52 251.94C545.05 251.96 544.58 251.98 544.12 252C544.07 250.32 544 248.65 543.99 246.97C543.97 244.3 544.14 241.57 541.23 240.06C536.97 229.55 529.18 223.69 517.93 222.41C515.85 218.26 511.74 217.23 507.86 215.86C505.9 215.51 503.94 215.15 501.98 214.8C502.15 206.73 502.2 198.64 501.09 190.64C500.05 183.11 499.38 175.35 495.17 168.7C488.12 157.56 478.75 148.54 468.55 140.32C469.33 137.21 471.22 134.39 470.96 131.02C472.68 127.73 475.02 124.76 476.08 121.13C477.15 119.86 478.23 118.58 479.3 117.31C479.42 119.49 481.28 120.25 482.68 121.3C506.9 139.56 524.01 163.12 534.35 191.5C539.45 205.52 542.62 220.08 544.14 234.99C544.72 240.64 544.87 246.31 545.54 251.94H545.52Z" fill="#6FC7B3"/>
<path d="M128.19 37.81C128.47 33.77 125.35 30.61 125.78 26.27C127.27 11.53 139.23 -0.900004 152.45 0.0499965C158.29 0.469996 164.08 -0.280004 169.89 2.13C176.15 4.72 179.86 9.42 183.44 14.58C184.29 15.81 184.68 17.44 186.38 17.94C187 22.64 187.62 27.35 188.24 32.05C187.62 35.62 187.01 39.18 186.39 42.75C185.35 43.47 183.94 43.8 183.64 45.32C180.37 47 178.22 50.06 175.26 52.12C167.78 55.4 160.18 57.14 152.21 53.81C151.6 53.53 151 53.21 150.38 52.98C141.75 49.73 133.77 45.55 128.2 37.83L128.19 37.81ZM156.91 30.39C158.88 29.97 161.72 31.14 161.68 28.17C161.65 25.8 158.96 26.5 157.36 26.14C156.43 25.93 155.42 26.07 154.45 26.12C153.43 26.17 152.45 26.48 152.3 27.67C152.16 28.8 152.97 29.55 153.89 29.87C154.91 30.23 156.05 30.26 156.92 30.4L156.91 30.39Z" fill="#C8DB51"/>
<path d="M453.23 68.17C453.82 68.26 454.41 68.35 454.99 68.44C458.23 71.32 462.45 71.24 466.33 72.22C467.69 73.77 470.93 73.6 470.53 76.76C469.45 77.73 470.23 78.78 470.4 79.81C470.84 82.54 470.91 85.4 471.79 87.99C473.49 93.02 466.85 96.75 469.91 101.84C466.47 106.95 464.53 113.13 459.22 116.91C459.26 114.56 459.15 112.34 455.85 112.61C460.85 103.36 464.29 93.86 461.78 83.04C460.38 77.01 457.49 72.93 451.01 71.96C448.81 71.63 445.89 70.54 444.79 72.21C443.71 73.85 446.68 75.15 447.94 76.48C457.54 86.64 458.8 100.4 451.08 111.84C449.85 113.66 448.13 115.24 448.11 117.68C442.45 121.27 436.04 122.1 429.57 122.66C427.03 122.88 424.83 122.04 422.43 120.99C414.87 117.67 412.62 110.35 408.8 104.18C404.33 96.95 409.91 86.96 415.39 83.68C422.72 79.3 430.71 76.42 438.55 73.19C439.48 72.81 440.65 72.51 440.28 71.3C439.99 70.37 438.74 69.68 437.88 70.12C434.24 71.98 430.08 71.87 426.33 73.51C420.76 75.94 415.48 79.06 409.57 80.7C409.87 80.17 410.17 79.64 410.47 79.12C411.87 77.92 413.27 76.73 414.67 75.53C419.48 74.49 424.15 73.12 428.03 69.89C429.97 68.94 431.93 68.07 434.15 68.06C436.05 67.97 438.1 68.89 439.75 67.19C442 67.04 444.24 66.9 446.49 66.75C447.39 69.05 449.34 67.84 450.87 68.07C451.65 68.31 452.39 69.45 453.23 68.16V68.17ZM419.75 88.45C419.21 88.33 418.98 88.57 419.02 89.1C420.24 92.12 423.07 92.63 427.29 90.59C427.83 90.7 428.04 90.48 427.93 89.94C427.92 89.4 427.91 88.85 427.89 88.31C428.05 87.01 427.67 86.54 426.44 87.35C426 87.29 425.56 87.24 425.12 87.18C424.04 85.49 422.96 86.27 421.88 87.18C421.68 87.11 421.52 87.17 421.41 87.34C421.08 87.63 420.76 87.91 420.43 88.2C420.18 88.22 419.95 88.3 419.74 88.45H419.75ZM439.73 95.88C438.62 95.99 437.46 96.22 437.37 97.6C437.29 98.87 438.36 99.09 439.36 99.11C440.37 99.12 441.35 98.89 441.5 97.67C441.65 96.44 440.84 96 439.73 95.88Z" fill="#95C83F"/>
<path d="M10.08 303.96C-5.03997 290.74 -2.24997 271.16 12.52 258.7C20.4 252.05 29.39 250.57 39.21 252.95C42.05 257.55 45.03 262.08 46.75 267.26C47.6 269.81 49.18 270.87 51.84 270.04C52.19 272.09 52.79 274.14 52.84 276.19C53.06 286.23 44.63 300.85 31.04 305.59C26.69 305.97 22.22 307.7 18.03 305.51C15.43 304.15 12.87 303.79 10.09 303.95L10.08 303.96ZM23.48 264.07C23.4 263.01 23.74 261.82 22.29 261.28C20.2 260.5 14.09 263.43 12.46 265.88C11.75 266.95 11.95 267.64 12.75 268.41C12.85 268.51 12.95 268.6 13.06 268.69C15.66 270.65 18.16 268.62 20.61 268.25C22.34 267.99 23.43 266.11 23.49 264.07H23.48ZM30.97 269.53C33.05 269.53 34.95 268.76 35.13 266.18C35.26 264.33 33.56 264.61 32.36 264.59C30.16 264.56 27.96 264.86 27.73 267.61C27.56 269.66 29.33 269.46 30.96 269.54L30.97 269.53Z" fill="#6FC7B3"/>
<path d="M152.21 53.8C160.18 57.13 167.77 55.39 175.26 52.11C177.32 54.37 180.13 50.7 182.19 52.98C182.58 55.05 181.31 56.85 181.26 58.85C175.97 68.33 167.38 71.17 157.12 71.57C141.75 72.17 126.93 69.89 112.49 64.72C108.14 62.02 106.39 57.88 105.96 53C108.95 50.18 111.66 47.01 115.6 45.39C117.69 45.44 119.79 45.65 121.76 44.68C125.67 42.76 129.4 43.98 132.33 46.33C136.1 49.36 140.48 50.97 144.65 53.11C147.08 54.36 149.57 54.95 152.22 53.8H152.21Z" fill="#237063"/>
<path d="M95.86 267.13C95.37 269.24 96.82 269.81 98.37 270.24C122.9 277.13 143.64 290.46 162.58 307.19C169.85 313.61 175.87 320.97 182.04 328.31C186.17 335.22 190.42 342.08 193.75 349.44C193.88 352.44 194.02 355.45 194.15 358.45C193.7 359.37 192.81 359.42 191.96 359.56C191.21 358.44 190.4 357.35 189.72 356.18C185.43 348.71 181.51 341.02 176.3 334.11L176.33 334.16C176.04 333.85 175.76 333.55 175.47 333.24L175.53 333.29C175.45 332.79 175.26 332.39 174.66 332.37L174.79 332.34C173.84 330.03 172.08 328.33 170.44 326.53L170.48 326.59C170.18 326.29 169.89 325.99 169.59 325.69L169.64 325.74C169.34 325.44 169.05 325.15 168.75 324.85L168.8 324.9C168.51 324.6 168.21 324.31 167.92 324.01L167.96 324.05C167.9 323.53 167.65 323.19 167.08 323.17L167.12 323.21C167.09 322.65 166.83 322.33 166.24 322.34L166.27 322.37C166.27 321.77 165.87 321.59 165.39 321.5L165.43 321.54C165.14 321.24 164.84 320.95 164.55 320.65L164.6 320.68C163.76 318.55 162.13 317.13 160.3 315.9C160.04 315.8 159.77 315.71 159.51 315.61L159.57 315.67C159.27 315.37 158.97 315.07 158.67 314.77L158.73 314.82L157.83 313.93L157.88 313.98C157.58 313.69 157.29 313.39 156.99 313.1L157.03 313.14C156.94 312.65 156.77 312.25 156.17 312.26L156.19 312.28C156.2 311.69 155.89 311.43 155.32 311.42L155.35 311.45C155.35 310.88 155.03 310.62 154.48 310.59L154.51 310.62C154.48 310.07 154.16 309.81 153.64 309.75L153.67 309.78C153.38 309.49 153.08 309.2 152.79 308.91L152.83 308.94C152.33 307.84 151.44 307.32 150.26 307.22L150.32 307.27C150.22 306.78 150.04 306.38 149.44 306.38L149.47 306.41C149.47 305.83 149.11 305.6 148.59 305.54L148.63 305.58C148.34 305.29 148.04 305 147.75 304.7L147.79 304.73C147.28 303.65 146.34 303.2 145.23 303.01L145.27 303.07C144.98 302.77 144.68 302.47 144.39 302.17L144.43 302.21C144.39 301.65 144.05 301.41 143.54 301.32L143.59 301.38L142.68 300.48L142.75 300.55C142.17 300.2 141.59 299.85 141.01 299.49C138.14 295.95 133.41 295.17 130.2 292.14C121.19 285.94 111.31 281.63 100.83 278.62C94.34 275.53 87.35 276.5 80.53 276.09C85.15 272.27 90.41 269.54 95.84 267.11L95.86 267.13Z" fill="#D0E6E5"/>
<path d="M459.22 116.91C464.53 113.12 466.47 106.95 469.91 101.84C466.85 96.75 473.5 93.02 471.79 87.99C470.91 85.4 470.84 82.55 470.4 79.81C470.23 78.78 469.45 77.72 470.53 76.76C470.58 76.43 470.77 76.31 471.1 76.39C471.41 78.33 472.91 78.18 474.31 78.21L474.27 78.17C474.63 80.75 476.39 82.13 478.56 83.16V83.17C478.53 83.44 478.54 83.71 478.59 83.97C478.83 84.5 479.08 85.02 479.32 85.55C479.23 88.78 479.86 91.9 480.76 94.99C480.61 100.43 479.55 105.7 477.24 110.61C475.32 114.69 472.96 118.56 470.8 122.53L470.86 122.58C470.58 122.88 470.31 123.17 470.03 123.47L470.04 123.46C469.77 123.75 469.51 124.04 469.24 124.33L469.22 124.35C468.96 124.62 468.7 124.9 468.44 125.17L468.38 125.23C468.12 125.49 467.87 125.75 467.61 126.01L467.54 126.08C467.28 126.34 467.01 126.6 466.75 126.85C463.61 129.39 460.46 131.94 457.32 134.48C450.06 136.29 443.04 138.29 435.17 137.15C426.5 135.9 419 132.82 412.05 127.83C412.09 126.96 412.13 126.1 412.18 125.23C413.83 125.27 415.66 124.86 417.07 125.45C419.27 126.38 421.03 128.37 423.76 127.81C428.06 132.31 432.8 129.01 437.38 128.58C445.57 126.41 453.31 123.4 459.2 116.92L459.22 116.91Z" fill="#EFEE91"/>
<path d="M31.03 305.6C44.62 300.86 53.05 286.24 52.83 276.2C52.78 274.14 52.18 272.1 51.83 270.05C51.85 269.69 51.87 269.33 51.88 268.96C51.69 268.57 51.51 268.18 51.32 267.79C50.24 263.19 47.61 259.34 45.35 255.31C47.31 255.21 48.84 256.21 50.23 257.38C58.58 264.4 65.01 272.46 64.62 284.19C64.59 285.01 64.59 285.88 65.46 286.38C61.94 291.87 58.27 297.28 55.54 303.23C55 303.94 54.45 304.65 54.51 305.62L54.53 305.57C54.01 306.17 53.5 306.77 52.98 307.38C51.96 305.62 51.1 307.18 50.29 307.59C47.82 308.86 45.5 310.42 42.97 311.54C31.92 316.45 22.3 312.62 13.11 306.44C14.57 306.21 15.85 306.75 17.1 307.38C22.14 309.9 26.71 308.83 31.01 305.62L31.03 305.6Z" fill="#81A887"/>
<path d="M236.72 37.94C221.16 35.05 205.54 32.58 189.69 32C189.71 29.06 189.56 26.12 189.8 23.2C189.95 21.39 189.88 18.92 192.52 18.72C201.36 18.07 210.14 18.03 218.02 23.07C219.92 24.28 221.85 25.35 224.2 25.27L224.16 25.24C224.2 25.79 224.51 26.07 225.05 26.12L225.01 26.07C225.14 26.73 225.38 26.91 225.8 26.24C229.17 28.92 232.54 31.6 235.91 34.28C235.68 35.61 236.14 36.78 236.73 37.93L236.72 37.94Z" fill="#51BEA0"/>
<path d="M333.22 120.27C338.1 115.19 344.71 113.42 350.98 111C350.56 112.79 351.68 113.49 353.09 114.04C355.33 114.92 357.65 115.27 360.04 115.18C360.58 116.56 361.96 116.57 363.06 117.08C375.26 122.73 387.77 127.79 398.8 135.68C398.72 139.68 394.48 138.31 392.84 140.3C390.87 139.2 388.91 138.1 386.94 137C381.41 134.32 376.24 130.86 370.22 129.25C362.57 125.53 354.45 123.4 346.17 121.59C341.84 120.64 337.39 121.95 333.21 120.28L333.22 120.27Z" fill="#D0E6E5"/>
<path d="M360.05 115.17C357.66 115.26 355.34 114.9 353.1 114.03C351.69 113.48 350.57 112.79 350.99 110.99C361.45 106.72 371.94 102.52 382.66 98.94C382.74 100.96 384.29 101.63 385.78 102.35C389.23 104.01 392.59 105.81 395.37 108.5C394.64 109.35 393.54 108.98 392.67 109.3C388.53 110.84 383.87 111.39 380.92 115.28C378.32 114.99 375.67 114.67 373.11 114.52C368.8 114.27 364.3 113.24 360.05 115.16V115.17Z" fill="#8BD0C1"/>
<path d="M275.14 69.12C275.98 68.7 276.82 68.28 277.66 67.87C290.39 76.61 303.1 85.38 306.86 101.81C308.44 108.73 308.93 115.77 308.93 122.87C308.93 124.53 307.96 126.54 309.92 127.87C310.01 129.94 307.71 129.71 306.95 130.97C305.95 131.32 304.95 131.67 303.95 132.02C303.9 130.55 303.86 129.09 303.81 127.62C303.83 127.09 303.85 126.57 303.87 126.04C304.94 125.29 304.97 124.46 304.06 123.56C304.02 118.51 303.98 113.45 303.94 108.4C305.11 107.37 304.35 106.98 303.37 106.65C301.91 96.06 298.86 86.28 289.63 79.64C284.79 76.15 279.97 72.64 275.14 69.14V69.12Z" fill="#6FC7B3"/>
<path d="M412.19 125.22C412.15 126.09 412.11 126.95 412.06 127.82C408.37 127.95 406.25 124.52 402.94 123.79C402.74 123.59 402.5 123.49 402.21 123.51L402.11 123.21C402.6 117.59 399.86 113.1 396.99 108.65C396.91 105.73 396.83 102.81 396.75 99.89C398.86 97.96 397.33 95.42 397.87 93.23L397.82 93.28C398.09 92.99 398.36 92.7 398.64 92.41C400.32 89.86 401.99 87.31 403.67 84.76C404.25 84.76 404.84 84.76 405.42 84.75C402.59 88.19 402.88 92.51 402.33 96.5C400.99 106.31 400.47 116 410.04 122.69C410.92 123.3 411.48 124.37 412.19 125.22Z" fill="#95C83F"/>
<path d="M306.95 130.95C307.71 129.7 310.01 129.92 309.92 127.85C312.98 127.91 315.48 126.24 318.13 125.11C323.02 123.02 327.84 120.78 333.22 120.26C337.4 121.94 341.85 120.62 346.18 121.57C354.46 123.39 362.58 125.51 370.23 129.23C370.19 129.58 370.14 129.94 370.1 130.29C364.88 128.53 359.5 127.4 354.27 125.52C345.61 122.4 336.6 120.98 327.42 124.35C320.7 126.82 313.78 128.77 306.95 130.95Z" fill="#237063"/>
<path d="M152.21 53.8C149.56 54.94 147.08 54.36 144.64 53.11C140.48 50.97 136.09 49.37 132.32 46.33C129.39 43.97 125.66 42.76 121.75 44.68C119.78 45.64 117.68 45.44 115.59 45.39C115.94 45.13 116.29 44.86 116.64 44.6C116.94 44.38 117.23 44.15 117.53 43.93C121.01 41.77 123.83 38.45 128.19 37.82C133.76 45.54 141.74 49.73 150.37 52.97C151 53.21 151.59 53.52 152.2 53.8H152.21Z" fill="#265751"/>
<path d="M470.81 122.52C472.97 118.55 475.34 114.68 477.25 110.6C479.55 105.69 480.62 100.42 480.77 94.99C481.5 93.91 482.36 95.08 483.14 94.85C484.08 102.32 483.75 109.55 479.38 116.09C479.18 116.39 479.31 116.9 479.28 117.31C478.21 118.58 477.13 119.85 476.06 121.13C475.22 119.98 474.31 119.87 473.47 121.06C472.8 122.01 472.08 122.73 470.81 122.53V122.52Z" fill="#95C83F"/>
<path d="M396.76 99.89C396.84 102.81 396.92 105.73 397 108.65C396.46 108.6 395.92 108.56 395.37 108.51C392.58 105.82 389.23 104.01 385.78 102.35C384.29 101.63 382.73 100.96 382.66 98.94C386.56 97.53 390.47 96.12 394.37 94.7C394.25 96.85 396.1 98.09 396.76 99.88V99.89Z" fill="#6FC7B3"/>
<path d="M224.19 25.27C221.84 25.34 219.91 24.28 218.01 23.07C210.13 18.02 201.35 18.06 192.51 18.72C189.87 18.92 189.94 21.39 189.79 23.2C189.55 26.12 189.7 29.07 189.68 32C189.2 32.01 188.71 32.03 188.23 32.04C187.61 27.34 186.99 22.63 186.37 17.93C188.32 17.82 190.27 17.71 192.23 17.61C196.72 17.63 201.21 17.65 205.7 17.68C212.77 18 219.04 20.27 224.18 25.28L224.19 25.27Z" fill="#1A9079"/>
<path d="M51.89 268.95C51.87 269.31 51.86 269.68 51.84 270.04C49.18 270.87 47.6 269.81 46.75 267.26C45.03 262.08 42.05 257.54 39.21 252.95C41.51 253.09 43.69 253.54 45.37 255.3C47.64 259.33 50.27 263.18 51.34 267.78C51.53 268.17 51.71 268.56 51.9 268.95H51.89Z" fill="#D0E6E5"/>
<path d="M55.55 303.22C58.28 297.27 61.9501 291.86 65.4701 286.37C67.7601 284.74 69.3901 282.23 72.2201 281.31H72.2301C72.2801 282.62 72.0201 283.89 70.8601 284.6C64.6801 288.39 63.16 295.39 59.59 300.96C58.65 302.42 58.32 304.35 56.21 304.73L55.55 303.22Z" fill="#237063"/>
<path d="M31.0299 305.6C26.7299 308.81 22.1599 309.89 17.1199 307.36C15.8699 306.74 14.5899 306.19 13.1299 306.42C11.9799 305.76 10.7799 305.16 10.0699 303.95C12.8499 303.79 15.4099 304.14 18.0099 305.51C22.1999 307.7 26.6699 305.98 31.0199 305.59L31.0299 305.6Z" fill="#51BEA0"/>
<path d="M80.55 276.11C87.37 276.52 94.36 275.55 100.85 278.64C100.79 278.98 100.73 279.32 100.67 279.66C93.54 277.83 86.35 276.47 78.93 277.11L78.87 277.04C79.1 276.13 79.97 276.39 80.55 276.11Z" fill="#237063"/>
<path d="M483.14 94.85C482.36 95.08 481.5 93.92 480.77 94.99C479.87 91.91 479.24 88.78 479.33 85.55C483.52 87.45 482.23 91.6 483.14 94.84V94.85Z" fill="#C8DB51"/>
<path d="M428.03 69.89C424.14 73.12 419.47 74.49 414.67 75.53C418.43 72 423.2 70.88 428.03 69.89Z" fill="#C8DB51"/>
<path d="M236.72 37.94C236.13 36.8 235.67 35.62 235.9 34.29C238.52 36.18 241.11 38.12 243.29 40.54C240.5 41.18 238.84 38.99 236.72 37.94Z" fill="#1A9079"/>
<path d="M466.33 72.22C462.46 71.24 458.23 71.33 454.99 68.44C458.96 69.12 463.02 69.55 466.33 72.22Z" fill="#C8DB51"/>
<path d="M396.76 99.89C396.1 98.1 394.25 96.86 394.37 94.71C395.5 94.12 396.47 93.15 397.88 93.23C397.35 95.42 398.88 97.96 396.76 99.89Z" fill="#51BEA0"/>
<path d="M405.42 84.74C404.84 84.74 404.25 84.74 403.67 84.75C405.43 82.26 406.67 79.15 410.47 79.11C410.17 79.64 409.87 80.17 409.57 80.69C407.93 81.77 406.52 83.1 405.42 84.74Z" fill="#8BD0C1"/>
<path d="M205.7 17.68C201.21 17.66 196.72 17.64 192.23 17.61C196.73 16.52 201.22 16.25 205.7 17.68Z" fill="#6FC7B3"/>
<path d="M439.76 67.2C438.11 68.9 436.05 67.98 434.16 68.07C435.68 65.55 437.72 66.35 439.76 67.2Z" fill="#EFEE91"/>
<path d="M478.56 83.15C476.39 82.12 474.63 80.74 474.27 78.16C476.09 79.49 478.01 80.74 478.56 83.15Z" fill="#B3C6CC"/>
<path d="M450.88 68.07C449.36 67.84 447.4 69.06 446.5 66.75C448.07 66.38 449.63 66.01 450.82 67.6C450.86 67.75 450.88 67.91 450.88 68.07Z" fill="#EFEE91"/>
<path d="M474.31 78.2C472.91 78.18 471.42 78.32 471.1 76.38C472.44 76.5 473.76 76.66 474.31 78.2Z" fill="#B3C6CC"/>
<path d="M450.88 68.07C450.88 67.91 450.86 67.75 450.82 67.6C451.76 67.23 452.64 67.1 453.24 68.16C452.4 69.44 451.66 68.31 450.88 68.07Z" fill="#C8DB51"/>
<path d="M73.72 280.28C74.34 279.37 75.18 278.81 76.28 278.66L76.42 278.8C76.32 280.48 75.11 280.49 73.89 280.49L73.72 280.29V280.28Z" fill="#237063"/>
<path d="M77.2 277.9C77.42 276.96 78.21 277.14 78.86 277.04L78.92 277.11C78.58 277.83 77.93 277.93 77.25 277.95L77.2 277.89V277.9Z" fill="#237063"/>
<path d="M72.22 281.31C72.5 280.64 73.07 280.39 73.72 280.28L73.89 280.48C73.55 281.18 72.88 281.23 72.23 281.32H72.22V281.31Z" fill="#237063"/>
<path d="M225.04 26.12C224.51 26.07 224.19 25.79 224.15 25.24C224.68 25.29 225.06 25.5 225.04 26.12Z" fill="#1A9079"/>
<path d="M398.64 92.4C398.37 92.69 398.1 92.98 397.82 93.27C398.09 92.98 398.36 92.69 398.64 92.4Z" fill="#51BEA0"/>
<path d="M478.6 83.97C478.54 83.7 478.53 83.44 478.57 83.17C478.67 83.36 478.79 83.54 478.86 83.75C478.87 83.79 478.69 83.9 478.6 83.98V83.97Z" fill="#B3C6CC"/>
<path d="M76.28 278.65C76.59 278.4 76.89 278.15 77.2 277.9L77.25 277.96C76.97 278.24 76.7 278.51 76.42 278.79L76.28 278.65Z" fill="#237063"/>
<path d="M225.79 26.25C225.37 26.92 225.13 26.74 225 26.08C225.26 26.14 225.53 26.19 225.79 26.25Z" fill="#1A9079"/>
<path d="M286.92 392.11C285.99 390.67 285.96 389.24 286.97 387.82C286.95 389.25 286.94 390.68 286.92 392.11Z" fill="#8BD0C1"/>
<path d="M286.93 383.72C286.02 382.58 286.01 381.42 286.87 380.25C286.89 381.41 286.91 382.56 286.93 383.72Z" fill="#8BD0C1"/>
<path d="M286.42 396.36C286.2 395.4 286.12 394.47 286.86 393.68C287.13 394.64 287.19 395.57 286.42 396.36Z" fill="#8BD0C1"/>
<path d="M468 270.29C465.8 282.58 465.05 295.16 460.81 307.05C458.04 314.79 455.09 322.46 450.14 329.14C441.7 328.5 434.28 325.4 427.77 319.99C424.45 317.23 421.27 314.42 418.62 310.92C413.36 303.99 414.24 297.02 417.67 289.84C420.84 283.21 424 276.58 427.3 270.02C428.46 267.71 429.16 265.39 428.98 262.82V262.84C429.68 262.5 429.76 261.85 429.83 261.19C429.78 260.88 429.74 260.56 429.69 260.25C430.08 258.88 430.46 257.5 430.85 256.13C433.81 253.16 431.62 250.88 429.82 248.55L429.66 248.4L429.75 248.2C429.75 246.67 430.08 245.05 429.68 243.63C426.79 233.52 421.64 224.65 415.61 216.03C410.45 208.66 404.62 201.73 400.28 193.78C398.61 190.72 397.03 187.44 393.66 185.7C393.41 184.62 394.57 182.56 391.9 183.19C388.19 178.51 383.5 176.29 377.44 177.22C375.68 177.49 373.86 177.4 372.06 177.47C370.8 175.79 368.97 176.33 367.42 176.52C354.4 178.11 341.37 179.69 328.38 181.52C323.82 182.16 318.85 182.24 315.66 186.55L315.71 186.51C315.4 186.74 315.1 186.97 314.79 187.2C314.6 187.33 314.38 187.39 314.14 187.36C310.37 186.86 307.49 188.19 305.57 191.5H305.55C305 191.75 304.44 191.99 303.89 192.24C296.62 195.61 289.76 199.55 288.92 208.58C288.3 215.16 290.27 221.47 292.36 227.66C288.24 230.82 283.04 231.94 278.77 234.93C275.99 236.88 272.95 238.68 269.56 239.59C266.56 234.55 265.33 229.1 265.28 223.25C265.19 213.5 265.48 203.77 266.15 194.05C266.38 193.76 266.6 193.47 266.83 193.17C266.71 189.02 268.86 185.38 269.43 181.38C272.42 173.35 275.31 165.29 279.73 157.89C280.43 158.07 281.29 158.42 281.05 159.2C279.93 162.85 279.88 166.83 276.96 169.89C273.62 173.4 274.45 175.48 279.07 176.65C280.74 177.07 282.36 177.2 284.03 177.2C297.87 177.21 311.71 177.31 325.55 177.17C331.25 177.11 336.98 176.82 342.63 176.13C355.19 174.6 367.7 172.5 380.41 173.09C387.16 173.41 393.47 175.71 398.09 180.62C404.17 187.09 409.13 194.54 414.57 201.57C426.16 216.55 437.88 231.46 453.2 243.01C454.68 244.12 456.06 245.07 457.63 243.68C459.19 242.31 460.85 240.63 459.33 238.32C458.59 237.19 458.4 236.01 458.19 234.8C456.29 223.69 450.64 214.08 445.52 204.36C441.79 197.27 436.77 190.87 432.45 184.08C425.91 173.78 418.07 164.52 409.12 156.35C404.33 151.98 399.8 147.18 394.25 143.65C393.43 143.13 392.83 142.3 392.83 141.21L393.03 141.01C393.65 141.24 394.37 141.36 394.89 141.73C402.5 147.14 409.53 153.24 416.31 159.64C429.05 173.7 440.43 188.77 449.3 205.57C456.62 219.42 461.62 234.02 462.7 249.87C463.03 254.7 463.28 259.52 463.42 264.36C463.47 266.17 463.97 267.9 465.87 268.77C466.59 269.28 467.32 269.79 468.04 270.3L468 270.29Z" fill="#237063"/>
<path d="M372.72 317.24C366.37 320.59 360.87 317.99 355.4 314.84C349.42 311.4 344.02 307.25 339.26 302.26C341.86 300.45 344.66 298.86 347.01 296.78C352.65 291.79 358.65 287.01 360.95 279.33C362.17 278.54 361.72 277.4 361.57 276.33C361.58 274.06 361.6 271.79 361.61 269.51C361.61 268.98 361.59 268.44 361.58 267.91C361.56 267.3 361.54 266.7 361.52 266.09C361.68 265.87 361.68 265.65 361.5 265.44C361.74 263.62 361.57 261.85 361.3 260.03C360.43 254.05 356.94 249.38 353.93 244.4C346.21 231.61 325.58 217.56 307.29 227.69C303.35 227.59 299.4 227.49 295.46 227.39C295.46 225.29 295.46 223.2 295.46 221.1C295.5 210.18 297.85 206.79 307.84 202.93C311.4 201.55 315.22 201.73 318.86 200.83C320.05 200.53 321.33 201.29 321.29 202.54C321.2 205.29 323.02 207.38 323.34 210.08C324.25 217.89 327.03 219.95 334.73 220.04C348.45 220.2 360.16 225.39 370.09 234.67C374.96 239.22 379.72 243.92 383.59 249.41C383.94 250.18 384.29 250.95 384.64 251.73C384.92 260.3 384.37 268.79 382.35 277.15C381.85 279.21 381.13 281.72 382.51 283.11C383.63 284.24 385.19 281.78 386.76 281.37C387.29 281.23 387.75 280.86 388.27 280.65C389.76 280.05 391.29 278.71 392.77 280.56C393.94 282.03 393.82 283.6 392.96 285.26C388.69 293.45 384.34 301.55 378.55 308.86C376.47 311.49 373.63 313.77 372.7 317.26L372.72 317.24Z" fill="#7FC242"/>
<path d="M361.53 266.09C361.55 266.7 361.57 267.3 361.59 267.91C360.94 268.45 360.98 268.99 361.62 269.52C361.61 271.79 361.59 274.06 361.58 276.33C360.74 277.2 361.06 278.31 360.96 279.33C358.65 287.01 352.66 291.79 347.02 296.78C344.66 298.86 341.86 300.45 339.27 302.26C331.35 305.26 324.87 310.68 317.81 315.11C314.68 317.07 310.89 318.28 308.84 321.74C308.27 321.62 307.69 321.49 307.12 321.37C310.34 308.07 309.88 295.25 302.69 283.1C293.64 267.79 281.42 257.68 262.66 257.86H262.74C262.42 257.57 262.11 257.29 261.79 257.01C257.88 255.69 254.46 253.08 250.24 252.6C250.49 251.08 251.87 250.38 252.68 249.26C254.62 250.85 257.07 250.69 259.07 250.14C264.82 248.57 270.35 250.04 275.83 251.07C284.13 252.63 290.74 257.65 297.13 262.87C300.31 266.38 303.64 269.8 306 273.95C308.34 278.07 310.64 282.23 312.74 286.48C313.99 289.03 314.78 290.43 317.61 287.72C320.04 285.39 322.5 283.11 324.39 280.36C330.96 270.83 333.31 260.57 329.13 249.36C325.7 240.41 319.11 234.49 310.81 230.17C309.56 229.52 307.61 229.73 307.34 227.68C325.62 217.54 346.26 231.6 353.98 244.38C356.99 249.36 360.47 254.03 361.35 260.01C361.62 261.83 361.79 263.6 361.55 265.42C361.49 265.48 361.36 265.56 361.37 265.61C361.41 265.77 361.5 265.92 361.56 266.07L361.53 266.09Z" fill="#757781"/>
<path d="M372.72 317.24C373.65 313.75 376.48 311.47 378.57 308.84C384.36 301.53 388.71 293.43 392.98 285.24C393.84 283.59 393.96 282.01 392.79 280.54C391.31 278.7 389.78 280.03 388.29 280.63C387.77 280.84 387.31 281.22 386.78 281.35C385.21 281.76 383.65 284.21 382.53 283.09C381.14 281.7 381.87 279.18 382.37 277.13C384.39 268.77 384.93 260.28 384.65 251.72C389.54 256.58 392.03 262.78 393.57 269.24C394.98 275.15 396.46 281.14 396.19 287.34C396.13 288.61 396.21 290.12 397.88 290.18C398.93 290.22 398.71 288.96 398.84 288.18C402.19 283.37 403.19 277.8 403.99 272.16C411.02 268.15 418.14 264.28 425.03 260.05C426.94 258.88 428.16 258.89 429.66 260.22C429.71 260.53 429.75 260.85 429.8 261.16C429.52 261.71 429.23 262.26 428.95 262.81V262.79C421.92 274 414.85 285.18 407.89 296.44C404.48 301.97 400.05 306.19 393.93 308.57C386.81 311.34 380.25 315.48 372.71 317.22L372.72 317.24Z" fill="#95C83F"/>
<path d="M453.24 330.85C457.22 330.89 461.19 330.94 465.17 330.98C461.18 332 457.21 332.04 453.24 330.85Z" fill="#1A9079"/>
<path d="M76.42 278.79C76.7 278.51 76.97 278.24 77.25 277.96C77.94 277.94 78.59 277.84 78.92 277.12C86.34 276.48 93.5301 277.84 100.66 279.67C109.69 283.06 118.5 286.94 127.05 291.41C128.05 291.93 129.07 292.32 130.22 292.17C133.43 295.2 138.17 295.99 141.03 299.52C141.27 300.44 142.01 300.53 142.77 300.58L142.7 300.51C143 300.81 143.31 301.11 143.61 301.41L143.56 301.35C143.6 301.9 143.9 302.2 144.45 302.24L144.41 302.2C144.45 302.75 144.75 303.04 145.29 303.1L145.25 303.04C145.29 304.82 146.47 304.9 147.81 304.76L147.77 304.73C147.75 305.34 148.04 305.63 148.65 305.61L148.61 305.57C148.59 306.17 148.89 306.45 149.49 306.44L149.46 306.41C149.45 307.01 149.75 307.29 150.34 307.3L150.28 307.25C150.67 308.52 151.47 309.17 152.85 308.97L152.81 308.94C152.77 309.56 153.06 309.86 153.69 309.81L153.66 309.78C153.62 310.4 153.9 310.7 154.53 310.65L154.5 310.62C154.46 311.24 154.75 311.53 155.37 311.48L155.34 311.45C155.3 312.07 155.59 312.36 156.21 312.31L156.19 312.29C156.14 312.91 156.45 313.19 157.05 313.17L157.01 313.13C157.01 313.71 157.32 314 157.9 314.01L157.85 313.96C157.89 314.52 158.2 314.81 158.75 314.85L158.69 314.8C158.99 315.1 159.29 315.4 159.59 315.7L159.53 315.64C159.8 316 160.07 316.35 160.34 316.71C160.94 318.93 162.22 320.42 164.63 320.71L164.58 320.68C164.87 320.98 165.17 321.27 165.46 321.57L165.42 321.53C165.71 321.82 166.01 322.11 166.3 322.4L166.27 322.37C166.56 322.66 166.85 322.95 167.15 323.24L167.11 323.2C167.4 323.49 167.7 323.79 167.99 324.08L167.95 324.04C168.24 324.34 168.54 324.63 168.83 324.93L168.78 324.88C169.08 325.18 169.37 325.47 169.67 325.77L169.62 325.72C169.92 326.02 170.21 326.32 170.51 326.62L170.47 326.56C170.36 329.67 170.36 332.68 174.82 332.37L174.69 332.4C174.98 332.71 175.27 333.01 175.56 333.32L175.5 333.27C175.79 333.58 176.07 333.88 176.36 334.19L176.33 334.14C176.09 337.33 176.95 340.25 178.77 342.81C182.12 347.54 185.06 352.48 187.92 357.53C189.78 360.82 191.11 364.84 194.82 366.9C196.53 370.26 198.24 373.62 199.95 376.98C199.89 377.28 199.83 377.57 199.77 377.87C198.66 377.81 197.42 378.04 196.45 377.63C185.73 373.07 174.89 368.78 166.83 359.67C163.18 355.54 158.8 352.03 154.73 348.27C147.69 341.75 138.54 338.29 130.72 332.84C127.67 330.72 124.45 328.77 120.92 327.47C118.06 325.71 115.45 323.24 111.64 324.08C110.16 324.44 108.63 324.65 107.22 325.18C96.9401 329.08 87.18 333.95 78.56 340.88C77.45 341.77 76.4601 342.65 74.9001 342.57C69.7801 342.33 64.68 342.72 59.5201 342.05C55.2101 341.49 51.39 339.26 47.05 339.21C47.29 330.68 50.1801 322.77 52.9001 314.85C53.9501 311.81 55.0001 308.86 54.5601 305.59L54.5401 305.64C55.1001 305.35 55.67 305.05 56.23 304.76C58.34 304.38 58.6701 302.45 59.6101 300.99C63.1901 295.42 64.7 288.43 70.88 284.63C72.04 283.92 72.3 282.65 72.25 281.34C72.9 281.25 73.5701 281.2 73.9101 280.5C75.1301 280.5 76.3401 280.49 76.4401 278.81L76.42 278.79Z" fill="#1A9079"/>
<path d="M199.91 376.94C198.2 373.58 196.49 370.22 194.78 366.86C193.84 364.42 192.89 361.98 191.95 359.54C192.79 359.4 193.69 359.35 194.14 358.43C194.5 358.62 195.09 358.72 195.2 359.01C197.08 363.77 197.19 370 204.59 370.07C204.68 370.07 204.77 370.27 204.85 370.39C206.16 372.35 207.83 371.98 209.66 371.24C216.39 368.53 223.56 367.03 229.01 361.34C231.63 358.6 233.34 356.87 230.84 353.48C230.84 351.11 231.01 348.72 230.8 346.36C230.22 339.82 224.92 334.23 219.63 335.11C211.65 336.44 204.58 339.9 198.99 345.97C197.64 344.42 196.4 345.08 195.86 346.52C195.39 347.77 194.45 348.46 193.73 349.42C190.4 342.06 186.16 335.21 182.03 328.29C186.9 329.44 191.49 331.44 196.8 330.87C208.52 329.61 220.25 328.15 232.08 328.26C233.87 328.28 234.46 327.03 235.02 325.75C237.84 319.31 237.44 313.03 234 306.92C228.28 296.74 219.85 289.05 210.44 282.57C198.03 274.02 184.67 267.13 170.2 262.66C158.52 259.05 146.36 257.65 134.42 255.21C131.14 254.54 127.52 254.58 125.03 251.71C126.5 250.56 128.09 249.66 129.94 249.29C142.04 242.52 154.87 238.14 168.83 237.56C169.46 237.85 170.06 238.32 170.71 238.39C185.07 239.81 197.62 246.18 210.29 252.4C216.03 255.22 220.63 259.86 226.69 262.06C226.46 263.78 227.83 264.52 228.83 265.39C234.72 270.49 240.66 275.52 246.58 280.57C249.66 284.53 252.84 288.41 255.81 292.45C261.01 299.49 266.38 306.44 269.36 314.84C267.67 313.64 266.95 314.66 266.24 316.08C260.41 327.82 252.69 338.35 244.83 348.75C236.42 359.89 225.61 368.4 213.41 375.02C209.37 377.21 204.77 379.08 199.87 376.93L199.91 376.94Z" fill="#6FC7B3"/>
<path d="M120.89 327.43C124.42 328.74 127.65 330.68 130.69 332.8C138.51 338.25 147.66 341.71 154.7 348.23C158.76 351.99 163.14 355.5 166.8 359.63C174.85 368.74 185.69 373.03 196.42 377.59C197.38 378 198.63 377.76 199.74 377.83C203.17 382.97 203.73 389.03 204.71 394.82C207.2 409.45 207.17 424.13 204.01 438.71C203.66 440.34 203.24 441.96 202.9 443.59C202.6 445 200.65 446.49 202.05 447.65C202.82 448.29 204.9 447.45 206.36 447.13C221 443.87 234.62 437.74 248.38 432.03C249.52 431.55 250.55 430.73 251.9 430.85C252.07 434.11 249.36 435.38 247.25 436.12C237.27 439.58 229.45 446.27 221.17 452.39C215.13 456.85 208.11 459.66 201.28 462.72C200.16 463.22 198.81 463.98 197.8 462.83C196.81 461.7 197.1 460.14 197.56 458.84C198.31 456.74 199.26 454.72 200.13 452.67C201.2 450.13 200.37 449.05 197.59 449.12C193.26 449.23 188.92 448.99 184.6 449.2C177.79 449.53 171.34 447.89 164.94 445.98C160.67 444.7 160.6 443.73 163.55 440.42C166.84 436.72 171.28 434.09 173.12 429C175.46 422.56 174.86 416.01 174.31 409.55C173.36 398.51 171.47 387.55 170.51 376.52C169.88 369.26 167.6 363.68 161.64 358.8C156.64 354.71 151 351.24 146.74 346.22C145.45 344.7 143.78 343.84 141.78 343.35C138.65 342.58 135.68 341.24 133.5 338.75C131.83 336.83 129.87 336.31 127.5 336.81L127.55 336.74C127.67 335.5 127.14 334.91 125.87 335.07H125.89C125.61 334.78 125.32 334.5 125.04 334.21V334.23C124.77 333.94 124.48 333.66 124.19 333.37L124.22 333.39C123.93 333.1 123.65 332.81 123.36 332.53L123.38 332.55C123.09 332.26 122.81 331.98 122.52 331.69L122.54 331.71C122.26 331.43 121.97 331.14 121.69 330.86C121.4 330.59 121.11 330.3 120.83 330.02V330.04C120.85 329.18 120.87 328.32 120.89 327.46V327.43Z" fill="#237063"/>
<path d="M269.39 314.85C266.41 306.46 261.03 299.51 255.84 292.46C252.86 288.42 249.69 284.54 246.61 280.58C250.19 280.06 252.49 283.5 255.88 283.55C256.48 285.45 258.32 285.67 259.78 286.3C268.19 289.92 276.8 293 285.56 295.64C288.84 296.63 291.98 298.28 295.57 297.98C300.6 306.35 300.12 315.91 301.42 325.09C294.07 329.85 286.72 334.61 279.37 339.37C276.13 331.16 274.15 322.43 269.38 314.84L269.39 314.85Z" fill="#757781"/>
<path d="M246.88 405.59C248.22 405.7 249.91 406.14 250.67 407.82C251.42 409.47 251.15 411.2 249.56 412.31C245.88 414.87 242.57 418.61 237.42 417.5C233.87 416.74 233.09 413.92 235.14 410.91C237.9 406.87 242.23 406.38 246.87 405.59H246.88Z" fill="#1A9079"/>
<path d="M231.4 387.89C232.88 387.85 234.29 387.82 234.13 389.98C233.92 392.9 230.78 395.37 227.16 395.4C225.25 395.41 223.43 395.38 223.33 392.73C223.23 390.26 226.99 387.97 231.39 387.89H231.4Z" fill="#1A9079"/>
<path d="M249.37 371.08C247.31 371.42 246.44 370.09 246.45 368.18C246.45 363.6 250.33 364.2 253.09 363.63C254.71 363.3 256.57 363.74 256.81 365.96C257.05 368.21 252.98 371.03 249.37 371.08Z" fill="#D0E6E5"/>
<path d="M164.58 431.38C158.32 436.38 151.01 439.7 144.35 444.07C144.08 444.01 143.67 444.03 143.56 443.86C139.44 437.62 134.12 432.68 127.48 429.27C124.14 427.55 123.75 425.23 125.2 422.08C125.75 420.89 126.73 419.33 125.06 418.39C123.68 417.62 122.59 418.98 122.02 419.96C120.22 423.04 118.1 422.3 115.69 420.92C109.89 417.61 104.33 414.07 99.2099 409.64C90.7199 402.29 85.4199 393.49 83.9099 382.36C83.6399 380.34 83.8599 377.46 80.4299 377.84C77.5399 378.16 75.7199 379.41 75.4799 382.84C74.9499 390.36 78.4299 396.22 82.5299 401.96C85.9999 406.82 89.6799 411.56 92.6899 416.69C94.1099 419.11 95.5299 421.06 98.0499 422.16C102.14 423.95 104.06 427.55 105.78 431.32C94.7699 428.41 89.1099 419.42 82.9399 411.08C78.4099 404.95 73.6399 399 69.2899 392.72C59.4199 378.49 63.2599 368.2 76.9299 359.22C79.5599 360.96 83.0599 359.82 85.5899 361.86C85.2499 365.31 85.3299 368.88 84.4399 372.18C83.4499 375.86 84.5099 377.39 87.9399 378.75C99.1799 383.2 109.71 388.7 116.43 399.54C119.02 403.71 121.35 407.96 123.42 412.39C125.02 415.82 126.44 416 128.71 413.02C129.76 411.65 130.51 410.14 132.61 410.55C135.98 418.62 139.11 426.78 140.14 435.55C140.34 437.28 141.09 438.76 142.78 438.7C144.63 438.63 144.43 436.76 144.38 435.4C144.28 432.63 144.26 429.87 143.89 427.08C142.79 418.72 140.42 410.56 139.98 402.1C141.74 401.39 142.77 399.86 144.02 398.56C149.91 392.42 154.51 385.31 159.21 378.28C159.73 377.51 160.03 376.22 161.22 376.54C162.45 376.88 162.03 378.18 162 379.07C161.67 392.43 162.64 405.65 165.24 418.79C165.99 422.59 167.3 426.68 165.39 430.64C165.13 430.88 164.86 431.11 164.6 431.35L164.58 431.38Z" fill="#95C83F"/>
<path d="M165.38 430.67C167.29 426.71 165.99 422.62 165.23 418.82C162.63 405.68 161.66 392.46 161.99 379.1C162.01 378.2 162.43 376.9 161.21 376.57C160.02 376.25 159.72 377.53 159.2 378.31C154.5 385.34 149.9 392.45 144.01 398.59C142.77 399.89 141.74 401.42 139.98 402.13C139.45 400.28 138.85 398.44 138.4 396.57C136.03 386.52 130.72 378.49 122.19 372.58C113.11 366.28 103.56 360.82 93.5499 356.19C90.5199 354.79 89.9399 353.45 92.6199 351.16C98.5399 346.08 104.42 341.05 107.89 333.71C109.35 330.63 112.6 331.09 115.23 332.48C116.93 333.37 118.39 334.78 119.81 336.11C131.94 347.43 143.55 359.39 157.53 368.53C159.87 370.06 160.69 373.25 163.8 373.69C164.59 374.54 165.54 375.09 165.46 376.65C164.88 387.78 166.88 398.79 167.2 409.89C167.34 414.71 167.86 419.56 167.93 424.42C167.96 426.94 167.41 429.08 165.38 430.69V430.67Z" fill="#C8DB51"/>
<path d="M163.79 373.66C160.68 373.22 159.86 370.03 157.52 368.5C143.54 359.36 131.93 347.41 119.8 336.08C118.38 334.75 116.92 333.34 115.22 332.45C112.59 331.07 109.33 330.6 107.88 333.68C104.41 341.02 98.53 346.05 92.61 351.13C89.94 353.42 90.51 354.76 93.54 356.16C103.55 360.8 113.1 366.26 122.18 372.55C130.71 378.46 136.02 386.49 138.39 396.54C138.83 398.41 139.44 400.25 139.97 402.1C140.4 410.56 142.78 418.71 143.87 427.08C144.24 429.87 144.25 432.62 144.36 435.4C144.41 436.75 144.61 438.62 142.76 438.7C141.07 438.77 140.33 437.28 140.12 435.55C139.08 426.78 135.96 418.63 132.59 410.55C126.81 391.96 115.34 377.83 98.67 367.97C94.55 365.53 90.71 362.23 85.58 361.86C83.04 359.83 79.54 360.96 76.92 359.22C83.51 352.28 91.4 346.68 97.53 339.26L97.42 339.22C97.98 339.2 98.27 338.91 98.29 338.35L98.26 338.38C98.82 338.36 99.11 338.07 99.13 337.51L99.1 337.54C99.66 337.52 99.95 337.23 99.97 336.67L99.93 336.7C100.3 336.42 100.67 336.14 101.03 335.86C104.51 333.24 106.72 329.17 110.84 327.26C114.6 326.58 118.02 327.19 120.84 329.98V329.96C120.9 330.48 121.17 330.78 121.7 330.82V330.81C121.98 331.09 122.27 331.38 122.55 331.66L122.53 331.64C122.82 331.93 123.1 332.21 123.39 332.5L123.37 332.48C123.66 332.77 123.94 333.06 124.23 333.34L124.2 333.32C124.49 333.61 124.77 333.89 125.06 334.18L125.05 334.16C125.33 334.45 125.62 334.73 125.9 335.02H125.88C126.1 335.92 126.7 336.44 127.56 336.69L127.51 336.76C130.97 340.13 134.44 343.48 137.87 346.87C141.98 350.94 145.46 355.66 150.29 359.01C154.02 361.6 157.68 364.3 161.37 366.95C163.7 368.62 166 370.31 163.81 373.64L163.79 373.66Z" fill="#EFEE91"/>
<path d="M105.77 431.35C104.04 427.58 102.13 423.97 98.0401 422.19C95.5201 421.09 94.1001 419.14 92.6801 416.72C89.6701 411.59 85.9901 406.85 82.5201 401.99C78.4201 396.25 74.9401 390.39 75.4701 382.87C75.7101 379.44 77.5301 378.19 80.4201 377.87C83.8501 377.49 83.6301 380.36 83.9001 382.39C85.4101 393.52 90.7101 402.32 99.2001 409.67C104.32 414.1 109.87 417.64 115.68 420.95C118.09 422.33 120.22 423.07 122.01 419.99C122.58 419.01 123.67 417.64 125.05 418.42C126.72 419.36 125.74 420.92 125.19 422.11C123.75 425.25 124.13 427.58 127.47 429.3C134.11 432.71 139.44 437.65 143.55 443.89C143.66 444.06 144.07 444.03 144.34 444.1C139.98 447.14 135.61 450.07 130.07 446.76C129.77 446.46 129.47 446.16 129.17 445.86L129.19 445.94C128.95 445.08 128.29 444.98 127.54 445.02C126 442.54 123.88 440.98 120.88 440.82L120.81 440.77C120.58 438.68 119.03 438.46 117.4 438.37H117.46C117.12 437.37 116.28 437.45 115.48 437.43C112.24 435.41 109.01 433.4 105.77 431.38V431.35Z" fill="#7FC242"/>
<path d="M110.83 327.29C106.72 329.19 104.51 333.27 101.02 335.89C100.65 336.17 100.28 336.45 99.92 336.73L99.96 336.7C99.67 336.99 99.38 337.28 99.09 337.57L99.12 337.54C98.83 337.83 98.54 338.12 98.25 338.41L98.28 338.38C97.99 338.67 97.7 338.96 97.41 339.25L97.52 339.29C82.29 340.06 70.44 346.48 61.91 359.43C57.43 366.23 57.07 373.69 56.24 381.22C56.13 382.19 56.22 383.17 56.21 384.15C56.21 385.17 56.04 386.37 54.96 386.55C53.47 386.8 53.11 385.29 53.03 384.31C52.31 376.33 49.14 368.88 48.35 360.87C47.64 353.64 46.59 346.47 47.02 339.18C51.37 339.22 55.19 341.46 59.49 342.02C64.65 342.69 69.75 342.3 74.87 342.54C76.42 342.61 77.42 341.74 78.53 340.85C87.15 333.92 96.91 329.05 107.19 325.15C108.6 324.62 110.13 324.41 111.61 324.05C111.35 325.14 111.09 326.22 110.83 327.3V327.29Z" fill="#237063"/>
<path d="M120.88 440.8C123.88 440.96 126 442.52 127.54 445C124.89 444.29 122.72 442.8 120.88 440.8Z" fill="#95C83F"/>
<path d="M117.4 438.35C119.04 438.43 120.58 438.66 120.81 440.75C119.4 440.34 118.05 439.84 117.4 438.35Z" fill="#95C83F"/>
<path d="M115.47 437.4C116.27 437.42 117.12 437.34 117.45 438.34C116.61 438.39 115.91 438.16 115.47 437.4Z" fill="#95C83F"/>
<path d="M127.55 445C128.29 444.96 128.96 445.06 129.2 445.92C128.4 446.06 127.82 445.81 127.55 445Z" fill="#95C83F"/>
<path d="M129.18 445.84C129.48 446.14 129.78 446.44 130.08 446.74C129.62 446.6 129.15 446.47 129.18 445.84Z" fill="#95C83F"/>
<path d="M205.35 313.96C203.7 313.79 201.08 314.15 198.43 313.45C194.68 312.47 192.42 310.3 192.35 306.51C192.28 302.71 194.31 299.77 197.82 298.36C203.31 296.15 208.96 296.24 214.48 298.38C218.88 300.09 220.81 303.46 219.92 307.95C219.1 312.04 215.69 313.25 212.19 313.9C210.3 314.25 208.29 313.96 205.36 313.96H205.35Z" fill="#D0E6E5"/>
<path d="M153.78 280.43C151.59 280.43 150.06 280.47 148.53 280.43C143.39 280.28 139.78 277.84 139.35 274.26C138.91 270.61 142.11 266.34 146.86 265.66C152.04 264.91 157.36 264.64 162.41 267.15C165.57 268.72 166.47 271.12 166.18 274.3C165.89 277.47 164.13 279.28 161.05 280.05C158.42 280.71 155.77 280.25 153.8 280.43H153.78Z" fill="#D0E6E5"/>
<path d="M122.44 192.28C123.46 179.91 127.36 168.25 131.35 156.62C131.97 154.8 132.73 153.02 133.43 151.22C135.61 147.43 137.8 143.66 139.95 139.85C140.43 139 140.86 138.15 141.82 137.75C146.62 139.54 149.87 138.63 153.74 132.97C161.03 122.31 169.79 113.1 179.53 104.7C187.86 97.5 196.87 91.4 207.01 87.07C217.91 82.41 229.06 79.04 241.06 77.88C252.05 76.82 262.7 77.24 273.07 80.69C282.3 83.76 289.14 89.71 292.13 99.44C295.03 108.87 295.56 118.52 295.48 128.3C295.46 131.43 294.68 134.71 296.34 137.71C292.71 141.23 289.14 144.82 285.41 148.22C283.74 149.75 283.3 152.57 280.51 152.92C279.3 153.06 278.17 152.89 277.19 152.09C266.68 144.02 255.61 136.78 244.31 129.88C243.01 129.08 241.61 128.41 240.02 128.39C239.31 125.17 236.66 125.4 234.27 125.14C232.21 123.95 229.99 123.48 227.61 123.52C216.82 123.7 207.05 127.06 198.07 132.91C191.05 137.41 185.13 143.07 179.95 149.6C176.06 154.5 173.43 160.12 170.2 165.39C155.93 169.03 143.85 176.89 131.85 184.99C128.53 187.23 126.58 191.16 122.44 192.27V192.28Z" fill="#6FC7B3"/>
<path d="M296.34 137.71C294.67 134.71 295.45 131.43 295.48 128.3C295.55 118.53 295.02 108.87 292.13 99.44C289.14 89.71 282.31 83.76 273.07 80.69C262.7 77.24 252.06 76.82 241.06 77.88C229.07 79.04 217.91 82.41 207.01 87.07C196.88 91.4 187.87 97.5 179.53 104.7C169.8 113.11 161.04 122.32 153.74 132.97C149.87 138.63 146.61 139.55 141.82 137.75C145.92 127.19 151.91 117.86 159.14 109.12C168.21 98.15 179.03 89.51 191.37 82.68C204.58 75.37 218.86 71.53 233.82 69.67C241.95 68.66 250.1 68.09 258.24 67.35C263.97 66.83 269.58 67.87 275.14 69.12C279.97 72.62 284.79 76.13 289.63 79.62C298.85 86.27 301.9 96.04 303.36 106.63C303.08 107.37 303.2 107.97 303.93 108.38C303.97 113.43 304.01 118.49 304.05 123.54C302.82 124.28 302.82 125.11 303.86 126.02C303.84 126.55 303.82 127.07 303.8 127.6C300.16 128.54 301.77 131.51 301.43 133.73C299.94 135.33 298.39 136.85 296.32 137.7L296.34 137.71Z" fill="#D0E6E5"/>
<path d="M122.44 192.28C126.58 191.17 128.53 187.24 131.85 185C143.86 176.9 155.93 169.03 170.2 165.4C169.19 170.46 167.4 175.36 167.04 180.55C166.51 180.99 166.29 181.54 166.49 182.22C166.38 182.78 166.26 183.34 166.15 183.9C164.87 184.81 165.67 186.17 165.4 187.31C163.32 192.94 162.44 198.83 162.06 204.76C161.33 216.28 164.08 227.15 168.83 237.57C154.86 238.15 142.04 242.53 129.93 249.3C130.55 247.08 129.37 245.25 128.56 243.38C124.43 233.79 121.68 223.89 121.54 213.37C121.56 208.58 121.58 203.79 121.6 198.99C122.05 196.77 121.07 194.38 122.42 192.28H122.44Z" fill="#51BEA0"/>
<path d="M121.62 198.99C121.6 203.78 121.58 208.57 121.56 213.37C120.1 208.65 121.19 203.82 120.94 199.04C121.17 199.04 121.4 199.04 121.63 198.99H121.62Z" fill="#1A9079"/>
<path d="M181.26 58.84C181.31 56.84 182.58 55.04 182.19 52.97C183.62 50.59 182.81 47.79 183.64 45.3C183.94 43.78 185.35 43.46 186.39 42.73C187.09 42.96 187.7 42.88 188.1 42.17C192.55 42.13 197.02 41.65 201.38 43.03C205.66 44.39 210.51 48.29 210.05 52.93C209.67 56.71 207.91 59.42 204.63 59.92C196.84 61.1 188.95 61.13 181.26 58.83V58.84Z" fill="#D0E6E5"/>
<path d="M188.1 42.19C187.7 42.89 187.09 42.97 186.39 42.75C187.01 39.18 187.62 35.61 188.24 32.05C188.72 32.04 189.21 32.02 189.69 32.01C189.16 35.41 188.63 38.8 188.11 42.2L188.1 42.19Z" fill="#51BEA0"/>
<path d="M517.92 222.4C529.17 223.68 536.96 229.54 541.22 240.05C541.22 245.46 542.83 250.75 542.33 256.19C541.78 259.56 539.48 262.07 538.04 265.01C532.24 271.64 524.34 274.07 516.11 274.39C506.75 274.75 498.33 272.25 492.12 263.94C487.63 257.94 484.91 251.92 485.89 244.44C486.32 236.95 493.04 228.55 499.96 225.6C505.79 223.11 511.73 222.31 517.92 222.4Z" fill="#ED8A82"/>
<path d="M465.83 268.75C463.93 267.88 463.43 266.15 463.38 264.34C463.24 259.5 462.99 254.68 462.66 249.85C461.58 234 456.58 219.4 449.26 205.55C440.39 188.75 429.01 173.68 416.27 159.62C419.58 158.4 417.31 155.48 418.15 153.5C420.54 153.48 422.3 155.6 424.72 155.46C439.04 170.36 450.55 187.19 459.21 205.94C461.22 210.29 462.43 215 464.88 219.17C465.27 220.92 465.54 222.71 466.06 224.42C468.8 233.47 470.71 242.6 470.16 252.16C470 254.9 468.77 257.58 469.57 260.38C469.44 261.75 469.32 263.11 469.19 264.48C467.5 265.46 469.81 269.59 465.82 268.76L465.83 268.75Z" fill="#D0E6E5"/>
<path d="M485.89 244.44C484.91 251.92 487.63 257.94 492.12 263.94C498.33 272.24 506.75 274.74 516.11 274.39C524.34 274.07 532.23 271.65 538.04 265.01C536.45 271.26 531.58 275.15 527.29 279.3C525.26 281.27 523.16 284.02 519.6 283.75C519.27 283.52 518.9 283.04 518.61 283.08C509.01 284.4 500.37 281.99 492.46 276.56C490.7 275.35 488.46 275.17 487.11 272.94C485.15 269.7 484.24 266.42 484.33 262.69C484.4 259.83 484.97 256.8 482.66 254.39C484.14 252.4 484.38 250.11 484.41 247.72C484.42 246.49 483.79 244.78 485.9 244.44H485.89Z" fill="#265751"/>
<path d="M482.65 254.39C484.96 256.8 484.39 259.83 484.32 262.69C484.23 266.42 485.14 269.7 487.1 272.94C488.45 275.17 490.69 275.35 492.45 276.56C500.36 281.99 509.01 284.4 518.6 283.08C518.89 283.04 519.26 283.51 519.59 283.75C506.97 289.62 491.47 290.94 481.14 276.48C476.96 270.63 474.58 263.97 473.31 256.91C473.4 255.83 473.5 254.74 473.59 253.66C476.65 253.3 479.64 253.91 482.64 254.39H482.65Z" fill="#237063"/>
<path d="M473.6 253.66C473.51 254.74 473.41 255.83 473.32 256.91C471.17 257.09 471.93 260.42 469.58 260.38C468.78 257.58 470.01 254.91 470.17 252.16C470.72 242.6 468.82 233.47 466.07 224.42C465.55 222.71 465.28 220.92 464.89 219.17C466.57 218.96 467.69 219.87 468.93 220.87C471.83 223.18 474.64 225.71 478.37 226.69C474.7 235.31 473.6 244.39 473.59 253.66H473.6Z" fill="#6FC7B3"/>
<path d="M478.58 306.41C475.5 306.52 473.47 306.79 472.97 304.37C472.48 301.99 473.62 300.2 475.86 299.5C478.62 298.63 481.47 297.99 484.42 298.01C486.92 298.03 487.32 299.31 486.48 301.25C484.75 305.24 481.09 305.97 478.58 306.42V306.41Z" fill="#1A9079"/>
<path d="M542.33 256.19C542.84 250.75 541.22 245.46 541.22 240.05C544.13 241.56 543.96 244.29 543.98 246.96C543.99 248.64 544.07 250.31 544.11 251.99C543.57 253.42 543.41 255 542.32 256.19H542.33Z" fill="#8BD0C1"/>
<path d="M465.83 268.75C469.82 269.58 467.51 265.45 469.2 264.47C470.32 266.72 471.28 268.94 468 270.28C467.28 269.77 466.56 269.26 465.83 268.74V268.75Z" fill="#6FC7B3"/>
<path d="M478.38 226.69C474.65 225.71 471.84 223.18 468.94 220.87C467.69 219.87 466.58 218.96 464.9 219.17C462.45 215 461.24 210.29 459.23 205.94C450.57 187.19 439.05 170.36 424.74 155.46C430.65 155.92 436.43 157.3 442.46 157.1C454.64 156.7 463.97 152.31 468.55 140.31C478.75 148.53 488.13 157.54 495.17 168.69C499.38 175.34 500.05 183.1 501.09 190.63C502.19 198.63 502.15 206.72 501.98 214.79C497.57 214.62 493.49 215.9 489.52 217.64C484.74 219.34 481.43 222.85 478.39 226.68L478.38 226.69ZM470.48 158.6C468.83 158.74 467.11 158.63 465.53 159.05C461.84 160.04 460.01 164.82 462.46 167.23C464.5 169.23 467.2 169.86 470.14 169.72C474.74 169.51 479.04 166.79 479.07 163.8C479.11 160.7 475.75 158.71 470.48 158.59V158.6Z" fill="#8BD0C1"/>
<path d="M478.38 226.69C481.42 222.85 484.73 219.35 489.51 217.65C490.09 218.48 491.02 218.55 491.75 218.22C496.09 216.24 500.68 216.71 505.22 216.68C506.17 216.68 507.19 216.84 507.84 215.86C511.73 217.23 515.84 218.26 517.91 222.41C511.72 222.32 505.79 223.12 499.95 225.61C493.03 228.56 486.31 236.96 485.88 244.45C483.76 244.79 484.4 246.5 484.39 247.73C484.36 250.12 484.12 252.41 482.64 254.4C479.64 253.92 476.66 253.31 473.59 253.67C473.59 244.4 474.7 235.33 478.37 226.7L478.38 226.69Z" fill="#1A9079"/>
<path d="M468.54 140.32C463.96 152.32 454.63 156.71 442.45 157.11C436.42 157.31 430.64 155.92 424.73 155.47C422.3 155.61 420.55 153.49 418.16 153.51C417.9 153.24 417.63 152.97 417.36 152.7C417.22 149.79 413.17 149.89 412.99 147.03C424.09 149.94 435.15 150.36 446.02 146.17C453.65 143.23 461.3 140.23 466.7 133.58L466.73 133.55C467.86 133.68 468.36 133.03 468.57 132.04C469.25 131.43 469.99 131 470.94 131.02C471.21 134.4 469.32 137.22 468.53 140.32H468.54Z" fill="#1A9079"/>
<path d="M470.95 131.01C470 130.98 469.25 131.42 468.58 132.03C467.52 132 466.78 132.34 466.74 133.54L466.71 133.57C463.84 133.77 461.4 135.93 458.37 135.39C458.03 135.09 457.69 134.78 457.35 134.48C460.49 131.94 463.64 129.39 466.78 126.85C467.04 126.59 467.31 126.33 467.57 126.08L467.64 126.01C467.9 125.75 468.15 125.49 468.41 125.23L468.47 125.17C468.73 124.9 468.99 124.62 469.25 124.35L469.27 124.33C469.54 124.04 469.8 123.75 470.07 123.46L470.06 123.47C470.34 123.17 470.61 122.88 470.89 122.58L470.83 122.53C472.1 122.73 472.82 122.01 473.49 121.06C474.34 119.86 475.25 119.98 476.08 121.13C475.03 124.76 472.69 127.73 470.96 131.02L470.95 131.01Z" fill="#7FC242"/>
<path d="M507.84 215.86C507.19 216.84 506.17 216.67 505.22 216.68C500.68 216.71 496.08 216.24 491.75 218.22C491.03 218.55 490.1 218.48 489.51 217.65C493.48 215.91 497.56 214.62 501.97 214.8C503.93 215.15 505.89 215.51 507.85 215.86H507.84Z" fill="#237063"/>
<path d="M156.91 30.39C156.04 30.25 154.9 30.22 153.88 29.86C152.96 29.54 152.15 28.79 152.29 27.66C152.44 26.48 153.42 26.17 154.44 26.11C155.41 26.06 156.43 25.92 157.35 26.13C158.95 26.49 161.64 25.79 161.67 28.16C161.71 31.13 158.86 29.96 156.9 30.38L156.91 30.39Z" fill="#EFEE91"/>
<path d="M183.64 45.31C182.81 47.8 183.61 50.6 182.19 52.98C180.13 50.7 177.32 54.37 175.26 52.11C178.22 50.05 180.37 46.99 183.64 45.31Z" fill="#265751"/>
<path d="M405.42 84.74C406.52 83.1 407.92 81.78 409.57 80.69C415.47 79.05 420.76 75.93 426.33 73.5C430.08 71.86 434.24 71.97 437.88 70.11C438.74 69.67 440 70.36 440.28 71.29C440.65 72.49 439.48 72.79 438.55 73.18C430.71 76.41 422.72 79.29 415.39 83.67C409.9 86.95 404.33 96.94 408.8 104.17C412.62 110.34 414.86 117.66 422.43 120.98C424.83 122.03 427.03 122.87 429.57 122.65C436.04 122.09 442.45 121.25 448.11 117.67C451.96 117.93 453.62 114.83 455.85 112.61C459.15 112.34 459.26 114.57 459.22 116.91C453.33 123.39 445.59 126.4 437.4 128.57C432.87 128.24 428.27 128.96 423.78 127.8C421.05 128.37 419.28 126.37 417.09 125.44C415.68 124.84 413.84 125.26 412.2 125.22C411.49 124.37 410.93 123.3 410.05 122.69C400.48 116 401 106.31 402.34 96.5C402.89 92.5 402.6 88.18 405.43 84.75L405.42 84.74Z" fill="#7FC242"/>
<path d="M455.84 112.61C453.61 114.83 451.95 117.93 448.1 117.67C448.12 115.23 449.84 113.65 451.07 111.83C458.79 100.39 457.53 86.63 447.93 76.47C446.68 75.14 443.71 73.84 444.78 72.2C445.88 70.53 448.8 71.62 451 71.95C457.48 72.93 460.37 77.01 461.77 83.03C464.28 93.86 460.84 103.35 455.84 112.6V112.61Z" fill="#C8DB51"/>
<path d="M427.29 90.59C423.07 92.63 420.24 92.12 419.02 89.1C419.26 88.88 419.51 88.67 419.75 88.45C419.96 88.31 420.19 88.22 420.44 88.2C420.77 87.91 421.09 87.63 421.41 87.34C421.52 87.16 421.68 87.11 421.88 87.18C422.96 87.18 424.04 87.18 425.12 87.18C425.56 87.24 426 87.29 426.44 87.35C426.69 88.03 427.23 88.26 427.89 88.31C427.9 88.85 427.91 89.4 427.93 89.94C427.72 90.16 427.51 90.37 427.29 90.59Z" fill="#B3C6CC"/>
<path d="M439.72 95.87C440.83 95.99 441.64 96.43 441.49 97.66C441.34 98.87 440.36 99.11 439.35 99.1C438.35 99.09 437.28 98.86 437.36 97.59C437.44 96.21 438.61 95.98 439.72 95.87Z" fill="#EFEE91"/>
<path d="M425.12 87.17C424.04 87.17 422.96 87.17 421.88 87.17C422.96 86.25 424.04 85.48 425.12 87.17Z" fill="#8BD0C1"/>
<path d="M427.89 88.3C427.23 88.25 426.69 88.01 426.44 87.34C427.68 86.53 428.06 87.01 427.89 88.3Z" fill="#8BD0C1"/>
<path d="M427.29 90.59C427.5 90.37 427.71 90.15 427.93 89.94C428.05 90.48 427.84 90.7 427.29 90.59Z" fill="#8BD0C1"/>
<path d="M419.75 88.44C419.51 88.66 419.26 88.87 419.02 89.09C418.99 88.56 419.21 88.32 419.75 88.44Z" fill="#8BD0C1"/>
<path d="M23.48 264.08C23.43 266.11 22.33 267.99 20.61 268.25C18.16 268.62 15.67 270.65 13.06 268.69C12.95 268.61 12.85 268.51 12.75 268.41C11.95 267.65 11.75 266.96 12.46 265.88C14.09 263.43 20.2 260.5 22.29 261.28C23.74 261.82 23.4 263.01 23.48 264.08Z" fill="#D0E6E5"/>
<path d="M30.97 269.53C29.34 269.45 27.56 269.65 27.74 267.6C27.97 264.86 30.16 264.55 32.37 264.58C33.57 264.6 35.26 264.32 35.14 266.17C34.97 268.75 33.06 269.53 30.98 269.52L30.97 269.53Z" fill="#D0E6E5"/>
<path d="M230.83 353.48C233.33 356.87 231.62 358.6 229 361.34C223.55 367.03 216.38 368.53 209.65 371.24C207.82 371.98 206.15 372.35 204.84 370.39C204.76 370.27 204.67 370.07 204.58 370.07C197.17 369.99 197.06 363.77 195.19 359.01C195.08 358.72 194.49 358.62 194.13 358.43C194 355.43 193.86 352.42 193.73 349.42C194.44 348.47 195.39 347.78 195.86 346.53C196.4 345.08 197.64 344.43 198.99 345.98C200.88 353.23 203.2 360.27 208.36 366.01C209.78 367.58 211.12 367.9 213.1 366.92C219.88 363.55 226.18 359.61 230.84 353.48H230.83Z" fill="#51BEA0"/>
<path d="M191.94 359.54C192.88 361.98 193.83 364.42 194.77 366.86C191.06 364.8 189.73 360.78 187.87 357.49C185.01 352.44 182.07 347.5 178.72 342.77C176.9 340.21 176.04 337.28 176.28 334.1C181.49 341.01 185.41 348.7 189.7 356.17C190.37 357.34 191.19 358.42 191.94 359.55V359.54Z" fill="#237063"/>
<path d="M130.22 292.16C129.07 292.3 128.05 291.92 127.05 291.4C118.5 286.93 109.69 283.05 100.66 279.66C100.72 279.32 100.78 278.98 100.84 278.64C111.32 281.65 121.2 285.97 130.22 292.16Z" fill="#265751"/>
<path d="M174.78 332.34C170.32 332.65 170.32 329.64 170.43 326.53C172.07 328.33 173.83 330.03 174.78 332.34Z" fill="#237063"/>
<path d="M164.6 320.68C162.2 320.39 160.92 318.9 160.31 316.68C160.29 316.42 160.29 316.16 160.29 315.9C162.12 317.14 163.75 318.56 164.59 320.68H164.6Z" fill="#237063"/>
<path d="M147.8 304.75C146.47 304.89 145.29 304.81 145.24 303.03C146.35 303.22 147.28 303.67 147.8 304.75Z" fill="#265751"/>
<path d="M152.83 308.94C151.45 309.15 150.65 308.49 150.26 307.22C151.43 307.32 152.32 307.84 152.83 308.94Z" fill="#265751"/>
<path d="M142.78 300.57C142.01 300.52 141.28 300.43 141.04 299.51C141.62 299.86 142.2 300.21 142.78 300.57Z" fill="#265751"/>
<path d="M149.49 306.42C148.9 306.43 148.59 306.15 148.61 305.55C149.13 305.61 149.49 305.84 149.49 306.42Z" fill="#265751"/>
<path d="M153.68 309.78C153.05 309.83 152.76 309.54 152.8 308.91C153.09 309.2 153.39 309.49 153.68 309.78Z" fill="#265751"/>
<path d="M154.52 310.62C153.89 310.67 153.61 310.38 153.65 309.75C154.17 309.8 154.49 310.06 154.52 310.62Z" fill="#265751"/>
<path d="M155.36 311.45C154.74 311.5 154.45 311.21 154.49 310.59C155.03 310.62 155.35 310.88 155.36 311.45Z" fill="#265751"/>
<path d="M156.2 312.29C155.58 312.33 155.29 312.04 155.33 311.43C155.9 311.43 156.21 311.7 156.2 312.29Z" fill="#265751"/>
<path d="M157.04 313.15C156.43 313.17 156.13 312.89 156.18 312.27C156.78 312.25 156.95 312.66 157.04 313.15Z" fill="#265751"/>
<path d="M157.88 313.99C157.3 313.98 157 313.69 156.99 313.11C157.29 313.4 157.58 313.7 157.88 313.99Z" fill="#265751"/>
<path d="M158.72 314.83C158.17 314.78 157.86 314.49 157.82 313.94C158.12 314.24 158.42 314.53 158.72 314.83Z" fill="#265751"/>
<path d="M160.3 315.9C160.3 316.16 160.3 316.42 160.32 316.68C160.05 316.33 159.78 315.97 159.51 315.61C159.77 315.71 160.04 315.8 160.3 315.9Z" fill="#265751"/>
<path d="M148.64 305.59C148.03 305.62 147.74 305.32 147.76 304.71C148.05 305 148.35 305.29 148.64 305.59Z" fill="#265751"/>
<path d="M166.27 322.37C165.98 322.08 165.68 321.79 165.39 321.5C165.88 321.6 166.28 321.77 166.27 322.37Z" fill="#237063"/>
<path d="M167.12 323.21C166.83 322.92 166.54 322.63 166.24 322.34C166.83 322.34 167.09 322.66 167.12 323.21Z" fill="#237063"/>
<path d="M167.96 324.05C167.67 323.76 167.37 323.46 167.08 323.17C167.65 323.19 167.9 323.53 167.96 324.05Z" fill="#237063"/>
<path d="M145.29 303.08C144.75 303.03 144.45 302.73 144.41 302.18C144.7 302.48 145 302.78 145.29 303.08Z" fill="#265751"/>
<path d="M144.45 302.23C143.9 302.19 143.6 301.89 143.56 301.34C144.07 301.42 144.42 301.67 144.45 302.23Z" fill="#265751"/>
<path d="M175.52 333.29C175.23 332.98 174.94 332.68 174.65 332.37C175.24 332.39 175.44 332.79 175.52 333.29Z" fill="#237063"/>
<path d="M150.33 307.28C149.74 307.28 149.44 306.99 149.45 306.39C150.04 306.39 150.23 306.79 150.33 307.28Z" fill="#265751"/>
<path d="M457.34 134.47C457.68 134.77 458.02 135.08 458.36 135.38C454.85 137.82 450.7 138.31 446.68 138.58C432.92 139.49 420.04 136.61 408.54 128.65C406.66 127.35 404.54 126.82 402.28 126.75L402.1 124.33L402.96 123.78C406.27 124.51 408.39 127.94 412.08 127.81C419.03 132.8 426.53 135.88 435.2 137.13C443.07 138.27 450.09 136.27 457.35 134.46L457.34 134.47Z" fill="#265751"/>
<path d="M423.78 127.8C428.27 128.96 432.86 128.24 437.4 128.57C432.82 129 428.08 132.29 423.78 127.8Z" fill="#C8DB51"/>
<path d="M467.56 126.07C467.3 126.33 467.03 126.59 466.77 126.84C467.03 126.58 467.3 126.32 467.56 126.07Z" fill="#95C83F"/>
<path d="M468.4 125.22C468.14 125.48 467.88 125.74 467.63 126C467.89 125.74 468.14 125.48 468.4 125.22Z" fill="#95C83F"/>
<path d="M56.21 304.73C55.65 305.02 55.08 305.32 54.52 305.61C54.45 304.64 55.01 303.93 55.55 303.22C55.77 303.72 55.99 304.23 56.21 304.73Z" fill="#265751"/>
<path d="M402.09 124.34C402.15 125.15 402.21 125.95 402.26 126.76C402.2 130.43 402.15 134.09 402.09 137.76C401.54 137.48 401 137.2 400.45 136.92C400.15 136.69 399.85 136.46 399.55 136.23C399.3 136.05 399.06 135.86 398.81 135.68C387.77 127.79 375.27 122.73 363.07 117.08C361.96 116.57 360.59 116.56 360.05 115.18C364.3 113.27 368.8 114.3 373.11 114.54C375.67 114.69 378.32 115 380.92 115.3C388.27 117.19 394.93 120.91 402.12 123.22C402.12 123.22 402.22 123.52 402.21 123.52C402.17 123.8 402.13 124.07 402.08 124.35L402.09 124.34Z" fill="#1A9079"/>
<path d="M398.81 135.67C399.06 135.85 399.3 136.04 399.55 136.22C399.85 136.45 400.15 136.68 400.45 136.91C401 137.19 401.54 137.47 402.09 137.75C402.69 139.13 403.28 140.5 403.88 141.88C406.47 147.86 410.9 151.53 417.36 152.69C417.62 152.96 417.89 153.23 418.15 153.5C417.31 155.48 419.58 158.4 416.27 159.62C409.49 153.22 402.46 147.12 394.85 141.71C394.32 141.34 393.61 141.22 392.99 140.99C392.95 140.76 392.9 140.52 392.85 140.29C394.49 138.3 398.73 139.67 398.81 135.67Z" fill="white"/>
<path d="M370.1 130.3C370.14 129.95 370.19 129.59 370.23 129.24C376.26 130.85 381.42 134.31 386.95 136.99C386.65 137.3 386.35 137.62 386.05 137.93C380.73 135.39 375.41 132.84 370.09 130.3H370.1Z" fill="#265751"/>
<path d="M386.05 137.93C386.35 137.62 386.65 137.3 386.95 136.99C388.92 138.09 390.88 139.19 392.85 140.29C392.9 140.52 392.95 140.76 392.99 140.99C392.99 140.99 392.79 141.19 392.79 141.18C389.82 141.59 387.69 140.26 386.04 137.92L386.05 137.93Z" fill="#237063"/>
<path d="M402.12 123.21C394.93 120.9 388.26 117.18 380.92 115.29C383.87 111.4 388.53 110.85 392.67 109.31C393.54 108.99 394.64 109.36 395.37 108.51C395.91 108.56 396.45 108.6 397 108.65C399.88 113.09 402.61 117.58 402.12 123.21Z" fill="#D0E6E5"/>
<path d="M386.05 137.93C387.69 140.27 389.83 141.59 392.8 141.19C392.8 142.28 393.4 143.11 394.22 143.63C399.78 147.16 404.3 151.96 409.09 156.33C418.05 164.5 425.88 173.76 432.42 184.06C436.73 190.85 441.75 197.25 445.49 204.34C450.61 214.06 456.26 223.67 458.16 234.78C458.37 235.99 458.56 237.17 459.3 238.3C460.82 240.62 459.16 242.29 457.6 243.66C456.03 245.05 454.64 244.1 453.17 242.99C437.85 231.45 426.13 216.53 414.54 201.55C409.1 194.52 404.14 187.07 398.06 180.6C393.44 175.69 387.13 173.38 380.38 173.07C367.67 172.48 355.16 174.58 342.6 176.11C336.95 176.8 331.22 177.09 325.52 177.15C311.68 177.29 297.84 177.2 284 177.18C282.33 177.18 280.71 177.05 279.04 176.63C274.42 175.45 273.59 173.38 276.93 169.87C279.85 166.8 279.9 162.82 281.02 159.18C281.26 158.39 280.4 158.05 279.7 157.87C279.64 157.37 279.58 156.88 279.52 156.38C279.85 155.23 280.18 154.08 280.51 152.93C283.3 152.59 283.73 149.76 285.41 148.23C289.14 144.82 292.71 141.23 296.34 137.72C298.41 136.87 299.96 135.35 301.45 133.75C302.57 133.59 303.33 132.91 303.95 132.02C304.95 131.67 305.95 131.32 306.95 130.97C313.78 128.79 320.69 126.84 327.42 124.37C336.6 121 345.62 122.42 354.27 125.54C359.5 127.43 364.88 128.56 370.1 130.31C375.42 132.85 380.74 135.4 386.06 137.94L386.05 137.93Z" fill="#1A9079"/>
<path d="M303.95 132C303.33 132.89 302.57 133.57 301.45 133.73C301.79 131.51 300.17 128.54 303.82 127.6C303.86 129.07 303.91 130.53 303.96 132H303.95Z" fill="#8BD0C1"/>
<path d="M303.87 126.02C302.83 125.11 302.83 124.28 304.06 123.54C304.97 124.44 304.94 125.27 303.87 126.02Z" fill="#8BD0C1"/>
<path d="M303.94 108.38C303.21 107.98 303.08 107.37 303.37 106.63C304.35 106.95 305.11 107.35 303.94 108.38Z" fill="#8BD0C1"/>
<path d="M402.09 124.34C402.13 124.06 402.17 123.79 402.22 123.51C402.51 123.49 402.75 123.58 402.95 123.79C402.66 123.97 402.38 124.16 402.09 124.34Z" fill="#237063"/>
<path d="M301.43 325.1C300.13 315.92 300.61 306.36 295.58 297.99C295.1 296.57 294.76 295.07 294.1 293.73C290.32 286.06 285.53 279.08 279.54 272.95C275.04 266.66 268.34 262.82 262.66 257.85C281.42 257.68 293.63 267.78 302.69 283.09C309.88 295.24 310.34 308.06 307.12 321.36C305.22 322.6 303.33 323.85 301.44 325.09L301.43 325.1Z" fill="#265751"/>
<path d="M429.66 260.22C428.16 258.88 426.94 258.88 425.03 260.05C418.13 264.28 411.02 268.15 403.99 272.16C404.79 264.86 405.51 257.57 403.71 250.3C401.69 242.14 397.67 234.85 393.68 227.57C389.39 219.74 384.75 212.06 378.19 205.92C370.88 199.09 363.49 192.24 353.97 188.4C353.12 188.06 351.93 187.68 352.13 186.44C352.31 185.31 353.5 185.08 354.4 184.89C359.83 183.69 365.31 182.74 370.7 181.41C379.29 179.29 385.06 183.25 389.95 189.7C394.39 195.56 396.16 202.79 399.92 208.92C408.01 222.1 417.75 234.22 425.03 247.94C426.15 250.05 427.79 252.18 430.52 252.75C431.78 253.76 430.35 255.01 430.83 256.09C430.44 257.46 430.06 258.84 429.67 260.21L429.66 260.22Z" fill="#C8DB51"/>
<path d="M430.51 252.76C427.78 252.19 426.14 250.06 425.02 247.95C417.73 234.23 408 222.1 399.91 208.93C396.14 202.8 394.38 195.57 389.94 189.71C385.05 183.27 379.28 179.31 370.69 181.42C365.3 182.75 359.82 183.7 354.39 184.9C353.5 185.1 352.3 185.33 352.12 186.45C351.92 187.69 353.11 188.06 353.96 188.41C363.49 192.25 370.87 199.09 378.18 205.93C384.75 212.07 389.38 219.75 393.67 227.58C397.66 234.86 401.69 242.15 403.7 250.31C405.49 257.57 404.78 264.87 403.98 272.17C403.18 277.8 402.18 283.37 398.83 288.18C397.05 286.09 397.71 283.6 398.09 281.38C399.7 271.84 398.93 262.32 396 253.36C391.76 240.39 385.89 228.12 378.22 216.59C371.17 205.99 361.33 199.47 350.46 194.26C343.46 190.9 335.65 189.63 327.69 189.78C322.82 189.87 317.98 190.27 313.13 190.59C313.11 190.34 313.04 190.11 312.92 189.9C312.96 189.57 313 189.23 313.03 188.9L313 188.93C313.27 188.66 313.53 188.4 313.8 188.13C313.9 187.87 314 187.61 314.1 187.35C314.34 187.38 314.55 187.32 314.75 187.19C315.29 187.27 315.53 186.95 315.67 186.5L315.62 186.54C325.08 184.51 334.67 183.27 344.29 182.33C353.67 181.41 362.95 180.04 372.02 177.46C373.81 177.39 375.63 177.48 377.4 177.21C383.46 176.29 388.15 178.5 391.86 183.18C391.97 184.35 392.46 185.25 393.62 185.68C395.09 188.91 396.36 192.24 398.05 195.35C407.92 213.37 418.89 230.73 429.71 248.19L429.62 248.39L429.78 248.54C429.85 249.98 431.05 251.23 430.5 252.78L430.51 252.76Z" fill="#EFEE91"/>
<path d="M297.11 262.87C290.71 257.66 284.11 252.63 275.81 251.07C270.34 250.04 264.81 248.57 259.05 250.14C257.05 250.69 254.61 250.85 252.66 249.26C252.97 248.75 253.27 248.25 253.58 247.74C259.21 245.63 264.63 243.09 269.53 239.56C272.92 238.65 275.96 236.85 278.74 234.9C283.01 231.91 288.21 230.79 292.33 227.63C293.38 227.55 294.42 227.47 295.47 227.39C299.41 227.49 303.36 227.59 307.3 227.69C307.57 229.74 309.53 229.53 310.78 230.18C319.08 234.5 325.67 240.42 329.1 249.37C322.82 252.21 316.6 255.2 310.23 257.82C305.9 259.6 301.85 262.15 297.11 262.87Z" fill="white"/>
<path d="M295.48 227.39C294.43 227.47 293.39 227.55 292.34 227.63C290.25 221.44 288.29 215.13 288.9 208.55C289.75 199.52 296.6 195.58 303.88 192.21C304.43 191.97 304.99 191.72 305.54 191.48H305.56C307.86 191.48 309.77 190.15 311.91 189.62C312.25 189.71 312.6 189.8 312.94 189.9C313.06 190.12 313.13 190.35 313.15 190.59C313.46 191.68 314.27 192.32 315.3 192.25C318.02 192.05 319.24 193.66 319.45 195.92C319.79 199.46 321.83 199.73 324.85 200.02C334.44 200.96 344.32 201.14 352.75 206.79C360.99 212.31 369.8 216.98 374.74 226.5C378.56 233.87 383.79 240.54 383.59 249.4C379.72 243.91 374.96 239.22 370.09 234.66C360.17 225.39 348.45 220.19 334.73 220.03C327.02 219.94 324.24 217.88 323.34 210.07C323.03 207.36 321.2 205.28 321.29 202.53C321.33 201.28 320.05 200.52 318.86 200.82C315.22 201.72 311.4 201.54 307.84 202.92C297.86 206.78 295.51 210.18 295.46 221.09C295.46 223.19 295.46 225.28 295.46 227.38L295.48 227.39Z" fill="#95C83F"/>
<path d="M269.54 239.56C264.63 243.09 259.22 245.63 253.59 247.74C252.47 246.08 251.25 244.52 249.3 243.76C246.37 243.41 243.95 242 241.76 240.12C242.04 236.6 241.25 233.19 240.37 229.85C237.25 217.96 241.24 207.24 245.62 196.55C252.46 195.7 259.29 194.86 266.13 194.01C265.46 203.73 265.17 213.46 265.26 223.21C265.31 229.06 266.54 234.52 269.54 239.55V239.56Z" fill="#757781"/>
<path d="M429.72 248.16C418.9 230.71 407.93 213.34 398.06 195.32C396.36 192.22 395.09 188.88 393.63 185.65C397 187.39 398.58 190.67 400.25 193.73C404.59 201.69 410.42 208.62 415.58 215.98C421.62 224.6 426.76 233.47 429.65 243.58C430.05 244.99 429.72 246.62 429.72 248.15V248.16Z" fill="#265751"/>
<path d="M266.12 194.01C259.28 194.86 252.45 195.7 245.61 196.55C247.37 191.06 250.36 186.22 253.41 181.4C258.73 181.38 264.06 181.36 269.38 181.35C268.81 185.34 266.66 188.99 266.78 193.14C266.55 193.43 266.33 193.73 266.1 194.02L266.12 194.01Z" fill="#B3C6CC"/>
<path d="M269.39 181.35C264.07 181.37 258.74 181.39 253.42 181.4C254.77 179.02 256.55 176.94 258.05 174.69C262.24 168.44 268.95 164.96 273.99 159.67C276.28 159.33 277.13 156.57 279.51 156.38C279.57 156.88 279.63 157.37 279.69 157.87C275.26 165.26 272.37 173.33 269.39 181.36V181.35Z" fill="white"/>
<path d="M372.04 177.43C362.96 180.01 353.69 181.38 344.31 182.3C334.7 183.25 325.11 184.48 315.64 186.51C318.83 182.19 323.8 182.12 328.36 181.48C341.35 179.65 354.37 178.07 367.4 176.48C368.95 176.29 370.78 175.75 372.04 177.43Z" fill="#265751"/>
<path d="M311.91 189.61C309.77 190.14 307.86 191.47 305.56 191.47C307.48 188.16 310.37 186.83 314.13 187.33C314.03 187.59 313.93 187.85 313.83 188.11C313.56 188.38 313.3 188.64 313.03 188.91L313.06 188.88C312.68 189.12 312.3 189.36 311.92 189.61H311.91Z" fill="#265751"/>
<path d="M430.51 252.76C431.06 251.21 429.87 249.96 429.79 248.52C431.59 250.85 433.78 253.13 430.82 256.1C430.35 255.02 431.77 253.77 430.51 252.76Z" fill="#265751"/>
<path d="M393.64 185.65C392.48 185.22 392 184.32 391.88 183.15C394.55 182.52 393.39 184.58 393.64 185.65Z" fill="#265751"/>
<path d="M428.95 262.82C429.23 262.27 429.52 261.72 429.8 261.17C429.73 261.83 429.65 262.49 428.95 262.82Z" fill="#265751"/>
<path d="M315.7 186.47C315.56 186.93 315.32 187.25 314.78 187.16C315.09 186.93 315.39 186.7 315.7 186.47Z" fill="#265751"/>
<path d="M383.61 249.39C383.8 240.52 378.58 233.86 374.76 226.49C369.82 216.97 361.01 212.3 352.77 206.78C344.34 201.13 334.46 200.95 324.87 200.01C321.85 199.71 319.81 199.45 319.47 195.91C319.25 193.65 318.03 192.04 315.32 192.24C314.29 192.32 313.48 191.67 313.17 190.58C318.02 190.26 322.85 189.86 327.73 189.77C335.69 189.62 343.49 190.89 350.5 194.25C361.37 199.46 371.21 205.98 378.26 216.58C385.93 228.11 391.8 240.38 396.04 253.35C398.97 262.31 399.74 271.83 398.13 281.37C397.76 283.59 397.09 286.08 398.87 288.17C398.75 288.95 398.96 290.21 397.92 290.17C396.25 290.11 396.17 288.6 396.23 287.33C396.5 281.13 395.03 275.14 393.61 269.23C392.06 262.76 389.57 256.57 384.69 251.71C384.34 250.94 383.99 250.16 383.65 249.39H383.61Z" fill="#C8DB51"/>
<path d="M360.96 279.32C361.06 278.3 360.74 277.19 361.58 276.32C361.73 277.39 362.18 278.53 360.96 279.32Z" fill="#237063"/>
<path d="M361.62 269.51C360.98 268.98 360.94 268.45 361.59 267.9C361.59 268.44 361.61 268.97 361.62 269.51Z" fill="#237063"/>
<path d="M361.53 266.09C361.46 265.94 361.37 265.79 361.34 265.63C361.33 265.58 361.46 265.5 361.52 265.44C361.69 265.65 361.7 265.87 361.54 266.09H361.53Z" fill="#237063"/>
<path d="M262.65 257.85C268.33 262.82 275.03 266.65 279.53 272.94C275.95 274.34 272.24 275.5 268.81 277.22C264.52 279.37 259.72 280.5 255.87 283.55C252.48 283.5 250.18 280.05 246.6 280.58C240.67 275.53 234.73 270.49 228.84 265.4C227.84 264.53 226.46 263.78 226.7 262.07C232 260.08 236.8 257.12 241.68 254.31C244.54 253.78 247.23 252.42 250.23 252.59C254.46 253.07 257.87 255.68 261.78 257C262.1 257.28 262.41 257.56 262.73 257.84H262.65V257.85Z" fill="white"/>
<path d="M297.11 262.87C301.85 262.15 305.91 259.6 310.23 257.82C316.6 255.19 322.82 252.2 329.1 249.37C333.29 260.58 330.93 270.83 324.36 280.37C322.47 283.12 320.01 285.4 317.58 287.73C314.75 290.44 313.96 289.03 312.71 286.49C310.62 282.24 308.32 278.08 305.97 273.96C303.61 269.81 300.29 266.39 297.1 262.88L297.11 262.87Z" fill="#B3C6CC"/>
<path d="M250.23 252.6C247.23 252.42 244.54 253.79 241.68 254.32C241.71 252.47 242.21 251.1 243.93 249.84C246.07 248.26 248.04 246.26 249.29 243.77C251.25 244.53 252.46 246.09 253.58 247.75C253.27 248.26 252.97 248.76 252.66 249.27C251.85 250.38 250.48 251.09 250.22 252.61L250.23 252.6Z" fill="#51BEA0"/>
<path d="M110.83 327.29C111.09 326.21 111.35 325.12 111.61 324.04C115.42 323.21 118.02 325.68 120.89 327.43C120.87 328.29 120.85 329.15 120.83 330.01C118.01 327.23 114.6 326.61 110.83 327.29Z" fill="#265751"/>
<path d="M249.29 243.76C248.04 246.25 246.07 248.25 243.93 249.83C242.22 251.09 241.72 252.46 241.68 254.31C236.8 257.11 232 260.08 226.7 262.07C220.64 259.86 216.04 255.23 210.3 252.41C197.63 246.19 185.07 239.82 170.72 238.4C170.07 238.34 169.46 237.86 168.84 237.57C164.1 227.15 161.34 216.28 162.07 204.76C162.45 198.83 163.32 192.94 165.41 187.31C165.98 188.73 167.25 188.95 168.54 189.12C168.62 192.22 170.09 194.69 172.11 196.89C177.84 203.12 185.28 206.44 193.08 209.13L193.04 209.07C193.29 209.33 193.53 209.59 193.78 209.85C195.37 210.72 196.92 211.67 198.54 212.45C211.89 218.92 222.45 229.77 235.87 236.11C237.83 237.44 239.8 238.77 241.76 240.1C243.95 241.99 246.37 243.39 249.3 243.74L249.29 243.76Z" fill="#1A9079"/>
<path d="M230.83 353.48C226.17 359.61 219.86 363.55 213.09 366.92C211.11 367.9 209.77 367.58 208.35 366.01C203.19 360.27 200.88 353.23 198.98 345.98C204.57 339.91 211.64 336.46 219.62 335.12C224.91 334.24 230.21 339.83 230.79 346.37C231 348.72 230.83 351.11 230.83 353.49V353.48Z" fill="white"/>
<path d="M127.54 336.72C126.68 336.46 126.08 335.95 125.86 335.05C127.13 334.89 127.66 335.49 127.54 336.72Z" fill="#265751"/>
<path d="M121.68 330.84C121.15 330.8 120.87 330.51 120.82 329.98C121.11 330.27 121.4 330.55 121.68 330.84Z" fill="#265751"/>
<path d="M255.88 283.55C259.73 280.5 264.53 279.37 268.82 277.22C272.25 275.5 275.95 274.35 279.54 272.94C285.53 279.07 290.32 286.05 294.1 293.72C294.76 295.06 295.09 296.56 295.58 297.98C291.99 298.28 288.85 296.63 285.57 295.64C276.8 293 268.19 289.92 259.79 286.3C258.32 285.67 256.49 285.45 255.89 283.55H255.88Z" fill="#B3C6CC"/>
<path d="M85.57 361.88C90.7 362.25 94.54 365.55 98.66 367.99C115.33 377.85 126.8 391.98 132.58 410.57C130.49 410.16 129.73 411.66 128.68 413.04C126.41 416.02 125 415.85 123.39 412.41C121.32 407.98 118.99 403.73 116.4 399.56C109.68 388.73 99.16 383.23 87.91 378.77C84.48 377.41 83.42 375.88 84.41 372.2C85.3 368.9 85.21 365.33 85.56 361.88H85.57Z" fill="#C8DB51"/>
<path d="M99.92 336.73C100.29 336.45 100.66 336.17 101.02 335.89C100.65 336.17 100.28 336.45 99.92 336.73Z" fill="#265751"/>
<path d="M99.08 337.58C99.37 337.29 99.66 337 99.95 336.71C99.93 337.27 99.64 337.56 99.08 337.58Z" fill="#265751"/>
<path d="M98.25 338.41C98.54 338.12 98.83 337.83 99.12 337.54C99.1 338.1 98.81 338.39 98.25 338.41Z" fill="#265751"/>
<path d="M97.41 339.25C97.7 338.96 97.99 338.67 98.28 338.38C98.26 338.94 97.97 339.23 97.41 339.25Z" fill="#265751"/>
<path d="M235.87 236.13C222.45 229.79 211.89 218.94 198.54 212.47C196.91 211.68 195.36 210.74 193.78 209.87C193.53 209.61 193.29 209.35 193.04 209.09L193.08 209.15C192.8 206.36 190.36 205.82 188.45 204.82C180.08 200.47 176.01 193.7 176.13 184.2C176.24 175.51 181.02 168.69 184.88 161.57C187.36 156.99 190.86 152.97 193.9 148.7L193.92 148.67C194.19 148.4 194.46 148.13 194.73 147.86L194.76 147.83C195.03 147.56 195.3 147.29 195.57 147.02L195.6 146.99C195.87 146.72 196.14 146.45 196.41 146.18L196.44 146.15L197.25 145.34L197.28 145.31C197.55 145.04 197.82 144.77 198.09 144.5L198.12 144.47C199.59 144.54 200.27 143.07 201.53 142.72C205.81 144.38 209.23 147.83 213.89 148.72C213.99 149.52 214.09 150.31 214.19 151.11C211.73 156.02 211.17 161.46 210.03 166.72C209.51 169.1 208.31 171.55 209.19 174.06C212 182.11 216.48 188.96 223.99 193.86C227 186.43 230.1 179.15 234.66 172.59C236.22 170.35 238.84 168.83 239.36 165.86C240.69 165.65 241.49 164.66 242.45 163.86C251.28 156.58 261.02 151.83 272.89 152.82C274.29 152.94 275.96 153.51 277.18 152.08C278.15 152.88 279.29 153.04 280.5 152.91C280.17 154.06 279.84 155.21 279.51 156.36C277.13 156.55 276.28 159.31 273.99 159.65C265 160.58 256.03 162.41 249 168.19C232.94 181.38 226.33 198.29 230.31 219.17C231.45 225.16 234.48 230.33 235.87 236.13Z" fill="#757781"/>
<path d="M214.19 151.12C214.09 150.32 213.99 149.53 213.89 148.73C216.61 142.64 219.77 136.79 223.48 131.24C223.7 130.96 223.93 130.69 224.16 130.41C225.55 129.74 226.94 129.08 228.33 128.41C229.52 128.38 230.83 129.01 231.78 127.75L231.75 127.8C234.5 128.03 237.2 129.08 240.01 128.38C241.61 128.4 243 129.07 244.3 129.87C255.6 136.77 266.67 144 277.18 152.08C275.96 153.5 274.29 152.93 272.89 152.82C261.02 151.83 251.28 156.58 242.45 163.86C241.49 164.65 240.69 165.65 239.36 165.85C237.91 162.82 234.77 161.92 232.17 160.53C226.2 157.35 220.92 152.83 214.19 151.1V151.12Z" fill="white"/>
<path d="M193.91 148.7C190.87 152.97 187.37 156.99 184.89 161.57C181.03 168.69 176.25 175.51 176.14 184.2C176.02 193.71 180.09 200.47 188.46 204.82C190.37 205.81 192.81 206.36 193.09 209.15C185.29 206.46 177.85 203.14 172.12 196.91C170.1 194.71 168.63 192.24 168.55 189.14C168.27 187.16 168.28 185.06 166.16 183.92C166.27 183.36 166.39 182.8 166.5 182.24C166.68 181.68 166.86 181.12 167.05 180.57C167.41 175.37 169.2 170.48 170.21 165.42C173.44 160.14 176.07 154.53 179.96 149.63C185.14 143.1 191.06 137.45 198.08 132.94C198.26 135.16 196.74 136.27 195.37 137.74C191.44 141.96 186.2 144.91 183.4 150.22C182.75 151.45 181.37 152.79 182.64 153.89C183.97 155.05 185.11 153.15 186.1 152.47C188.53 150.78 190.21 147.71 193.93 148.72L193.91 148.7Z" fill="#265751"/>
<path d="M193.91 148.7C190.19 147.69 188.51 150.76 186.08 152.45C185.1 153.13 183.96 155.03 182.62 153.87C181.36 152.77 182.74 151.43 183.38 150.2C186.18 144.89 191.42 141.94 195.35 137.72C196.72 136.25 198.24 135.14 198.06 132.92C207.04 127.07 216.81 123.71 227.6 123.53C229.98 123.49 232.2 123.96 234.26 125.15C232.65 125.3 231.6 126 231.75 127.81L231.78 127.76C230.6 127.82 229.31 127.29 228.33 128.42C226.94 129.09 225.55 129.75 224.16 130.42C223.92 130.32 223.68 130.26 223.42 130.23C221.89 130.58 219.63 129.07 219.1 131.94L219.13 131.92C216.49 131.83 213.85 131.61 211.47 133.19C207.56 135.78 203.6 138.3 199.7 140.9C198.47 141.72 197.82 142.93 198.13 144.49L198.1 144.52C197.83 144.79 197.56 145.06 197.29 145.33L197.26 145.36C196.99 145.63 196.72 145.9 196.45 146.17L196.42 146.2C196.15 146.47 195.88 146.74 195.61 147.01L195.58 147.04C195.31 147.31 195.04 147.58 194.77 147.85L194.74 147.88C194.47 148.15 194.2 148.42 193.93 148.69L193.91 148.72V148.7Z" fill="#237063"/>
<path d="M231.75 127.81C231.61 126 232.65 125.3 234.26 125.15C236.64 125.4 239.3 125.18 240.01 128.4C237.19 129.1 234.5 128.05 231.75 127.82V127.81Z" fill="#265751"/>
<path d="M166.16 183.91C168.28 185.04 168.27 187.15 168.55 189.13C167.26 188.95 165.99 188.74 165.41 187.32C165.68 186.19 164.87 184.82 166.16 183.91Z" fill="#237063"/>
<path d="M167.04 180.56C166.86 181.12 166.68 181.68 166.49 182.23C166.29 181.55 166.5 181 167.04 180.56Z" fill="#237063"/>
<path d="M470.47 158.61C475.74 158.72 479.09 160.72 479.06 163.82C479.03 166.81 474.74 169.52 470.13 169.74C467.19 169.88 464.49 169.25 462.45 167.25C460 164.85 461.83 160.06 465.52 159.07C467.1 158.65 468.81 158.75 470.47 158.62V158.61Z" fill="#D0E6E5"/>
<path d="M403.88 141.88C403.28 140.5 402.69 139.13 402.09 137.75C402.15 134.08 402.2 130.42 402.26 126.75C404.52 126.82 406.65 127.35 408.53 128.65C420.03 136.61 432.91 139.49 446.67 138.58C450.69 138.32 454.84 137.83 458.35 135.38C461.38 135.92 463.82 133.76 466.69 133.56C461.29 140.21 453.64 143.21 446.01 146.15C435.14 150.34 424.07 149.92 412.98 147.01C409.75 145.65 407.86 141.9 403.88 141.88Z" fill="#237063"/>
<path d="M403.88 141.88C407.87 141.9 409.75 145.65 412.98 147.01C413.17 149.88 417.22 149.77 417.35 152.68C410.9 151.52 406.46 147.85 403.87 141.87L403.88 141.88Z" fill="#51BEA0"/>
<path d="M466.73 133.54C466.77 132.34 467.52 132 468.57 132.03C468.36 133.02 467.86 133.67 466.73 133.54Z" fill="#237063"/>
<path d="M313.03 188.92C313.3 188.65 313.56 188.38 313.83 188.12C313.56 188.39 313.3 188.65 313.03 188.92Z" fill="#C8DB51"/>
<path d="M311.91 189.61C312.29 189.37 312.67 189.13 313.05 188.88C313.01 189.21 312.98 189.55 312.94 189.88C312.6 189.79 312.25 189.7 311.91 189.6V189.61Z" fill="#C8DB51"/>
<path d="M235.87 236.13C234.48 230.34 231.45 225.16 230.31 219.17C226.33 198.29 232.95 181.38 249 168.19C256.03 162.41 265 160.58 273.99 159.65C268.95 164.94 262.24 168.42 258.05 174.67C256.54 176.92 254.77 179.01 253.42 181.38C250.37 186.2 247.37 191.04 245.62 196.53C241.24 207.21 237.25 217.94 240.37 229.83C241.25 233.18 242.04 236.58 241.76 240.1C239.8 238.77 237.83 237.44 235.87 236.11V236.13Z" fill="#265751"/>
<path d="M193.04 209.08C193.29 209.34 193.54 209.6 193.78 209.86C193.53 209.6 193.28 209.34 193.04 209.08Z" fill="#265751"/>
<path d="M214.19 151.12C220.92 152.84 226.2 157.37 232.17 160.55C234.77 161.94 237.91 162.83 239.36 165.87C238.85 168.84 236.22 170.36 234.66 172.6C230.1 179.16 227 186.43 223.99 193.87C216.47 188.97 212 182.12 209.19 174.07C208.31 171.56 209.51 169.12 210.03 166.73C211.17 161.47 211.73 156.03 214.19 151.12Z" fill="#B3C6CC"/>
<path d="M223.49 131.25C219.78 136.8 216.62 142.65 213.9 148.74C209.24 147.85 205.83 144.4 201.54 142.74C206.75 138.06 213.22 135.44 219.14 131.92L219.11 131.94C220.44 131.58 221.77 131.22 223.11 130.86C223.24 130.99 223.36 131.12 223.49 131.25Z" fill="#B3C6CC"/>
<path d="M219.14 131.91C213.22 135.43 206.75 138.05 201.54 142.73C200.29 143.08 199.61 144.55 198.13 144.48C197.82 142.92 198.47 141.71 199.7 140.89C203.6 138.29 207.56 135.77 211.47 133.18C213.85 131.61 216.49 131.82 219.13 131.91H219.14Z" fill="#265751"/>
<path d="M228.34 128.42C229.32 127.29 230.61 127.82 231.79 127.76C230.84 129.02 229.53 128.39 228.34 128.42Z" fill="#265751"/>
<path d="M223.43 130.23C223.68 130.26 223.93 130.33 224.17 130.42C223.94 130.69 223.72 130.97 223.49 131.25C223.36 131.12 223.24 130.99 223.11 130.86C223.19 130.64 223.3 130.43 223.43 130.23Z" fill="#B3C6CC"/>
<path d="M223.43 130.23C223.29 130.43 223.19 130.64 223.11 130.86C221.78 131.22 220.45 131.58 219.11 131.94C219.64 129.07 221.9 130.58 223.43 130.23Z" fill="#265751"/>
</g>
<defs>
<clipPath id="clip0_1103_412">
<rect width="547.46" height="480.02" fill="white"/>
</clipPath>
</defs>
</svg>
