<svg width="66" height="91" viewBox="0 0 66 91" fill="none" xmlns="http://www.w3.org/2000/svg">
<path d="M39.9536 58.87C39.8036 58.99 39.6635 59.13 39.5135 59.26C38.0535 55.19 35.7935 51.8 33.0135 49.51C30.2535 51.79 27.9936 55.16 26.5336 59.21C26.4036 59.09 26.2836 58.98 26.1536 58.87C23.0736 61.41 20.9935 66.15 20.9935 71.59C20.9935 77.03 23.0736 81.76 26.1536 84.31C26.6236 83.93 27.0636 83.48 27.4736 83.01C28.8936 86.05 30.7835 88.6 33.0135 90.43C35.2535 88.58 37.1535 86.01 38.5735 82.95C39.0035 83.45 39.4635 83.91 39.9435 84.31C43.0235 81.77 45.1036 77.03 45.1036 71.59C45.1036 66.15 43.0235 61.41 39.9435 58.87H39.9536Z" fill="#E13017"/>
<path d="M38.3536 61.45C38.2436 61.54 38.1235 61.65 38.0135 61.75C36.8935 58.62 35.1536 56.02 33.0236 54.26C30.9036 56.01 29.1736 58.6 28.0536 61.71C27.9536 61.62 27.8635 61.53 27.7635 61.45C25.3935 63.4 23.8036 67.04 23.8036 71.22C23.8036 75.4 25.4035 79.03 27.7635 80.99C28.1235 80.69 28.4636 80.36 28.7836 79.99C29.8736 82.32 31.3236 84.28 33.0336 85.69C34.7536 84.27 36.2136 82.3 37.3036 79.94C37.6336 80.33 37.9836 80.68 38.3536 80.99C40.7236 79.04 42.3135 75.4 42.3135 71.22C42.3135 67.04 40.7136 63.41 38.3536 61.45Z" fill="#F2B00A"/>
<path d="M36.9736 59.59C36.8936 59.66 36.8036 59.74 36.7236 59.81C35.8936 57.49 34.6036 55.57 33.0336 54.26C31.4636 55.56 30.1836 57.47 29.3536 59.78C29.2836 59.71 29.2135 59.65 29.1335 59.59C27.3835 61.04 26.2036 63.73 26.2036 66.82C26.2036 69.91 27.3835 72.61 29.1335 74.05C29.4035 73.83 29.6535 73.58 29.8835 73.31C30.6935 75.04 31.7636 76.49 33.0336 77.53C34.3036 76.48 35.3935 75.02 36.1935 73.27C36.4435 73.56 36.6936 73.82 36.9736 74.05C38.7236 72.6 39.9036 69.91 39.9036 66.82C39.9036 63.73 38.7236 61.03 36.9736 59.59Z" fill="#FEDC7A"/>
<path d="M17.0735 61.88H7.90356L7.90356 69.97H17.0735V61.88Z" fill="#C4423F"/>
<path d="M10.3235 61.88H7.90356L7.90356 69.97H10.3235V61.88Z" fill="#B53633"/>
<path d="M17.1536 61.88H14.7336V69.97H17.1536V61.88Z" fill="#B53633"/>
<path d="M17.1636 66.85H7.90356V68.11H17.1636V66.85Z" fill="#EFEFEF"/>
<path d="M18.4036 72.96H6.66357L7.90356 69.97H17.1536L18.4036 72.96Z" fill="#EAC257"/>
<path d="M7.90356 69.97L6.66357 72.96H9.11359L10.3536 69.97H7.90356Z" fill="#C99D3A"/>
<path d="M17.1835 69.97L18.4335 72.96H15.9736L14.7336 69.97H17.1835Z" fill="#F7DC9F"/>
<path d="M15.9435 59.77H9.11359L7.90356 61.88H17.1536L15.9435 59.77Z" fill="#EAC257"/>
<path d="M15.9435 59.77L17.1536 61.88H14.7036L13.4935 59.77H15.9435Z" fill="#F7DC9F"/>
<path d="M9.11359 59.77L7.90356 61.88H10.3536L11.5635 59.77H9.11359Z" fill="#C99D3A"/>
<path d="M16.1436 58.04H7.89355L7.89355 38.71C7.89355 36.43 9.74355 34.59 12.0135 34.59C14.2935 34.59 16.1335 36.44 16.1335 38.71V58.04H16.1436Z" fill="#EAC257"/>
<path d="M13.1536 34.75C12.7936 34.65 12.4136 34.59 12.0236 34.59C9.74356 34.59 7.90356 36.44 7.90356 38.71L7.90356 58.04H10.1636L10.1636 38.71C10.1636 36.82 11.4336 35.24 13.1636 34.75H13.1536Z" fill="#CEA03A"/>
<path d="M20.6636 62.81H4.62354C1.70354 62.81 -0.486428 60.13 0.0935718 57.27C0.343572 56.05 1.07354 54.98 2.12354 54.3C7.51354 50.84 24.4036 39.06 24.4036 27.15L25.2736 58.06C25.3436 60.66 23.2636 62.81 20.6536 62.81H20.6636Z" fill="#D55049"/>
<path d="M2.12351 58.56C7.51351 55.1 24.4035 43.32 24.4035 31.41L25.1835 59.1C25.2535 58.76 25.2835 58.42 25.2735 58.06L24.4035 27.15C24.4035 39.06 7.51351 50.84 2.12351 54.3C1.07351 54.97 0.343546 56.04 0.0935458 57.27C-0.126454 58.36 0.0535385 59.42 0.523539 60.32C0.893539 59.61 1.43351 59 2.12351 58.56Z" fill="#BC3C39"/>
<path d="M48.8236 69.97H57.9936V61.88H48.8236V69.97Z" fill="#C4423F"/>
<path d="M55.5736 69.97H57.9936V61.88H55.5736V69.97Z" fill="#B53633"/>
<path d="M48.7435 69.97H51.1635V61.88H48.7435V69.97Z" fill="#B53633"/>
<path d="M48.7336 68.1H57.9935V66.84H48.7336V68.1Z" fill="#EFEFEF"/>
<path d="M47.4935 72.96H59.2336L57.9935 69.97H48.7336L47.4935 72.96Z" fill="#EAC257"/>
<path d="M57.9935 69.97L59.2336 72.96H56.7836L55.5436 69.97H57.9935Z" fill="#C99D3A"/>
<path d="M48.7036 69.97L47.4636 72.96H49.9136L51.1536 69.97H48.7036Z" fill="#F7DC9F"/>
<path d="M49.9435 59.77H56.7836L57.9935 61.88H48.7336L49.9435 59.77Z" fill="#EAC257"/>
<path d="M49.9435 59.77L48.7336 61.88H51.1835L52.4036 59.77H49.9435Z" fill="#F7DC9F"/>
<path d="M56.7836 59.77L57.9935 61.88H55.5436L54.3336 59.77H56.7836Z" fill="#C99D3A"/>
<path d="M49.7435 58.04H57.9935V38.71C57.9935 36.43 56.1435 34.59 53.8735 34.59C51.5935 34.59 49.7535 36.44 49.7535 38.71V58.04H49.7435Z" fill="#EAC257"/>
<path d="M52.7435 34.75C53.1035 34.65 53.4835 34.59 53.8735 34.59C56.1535 34.59 57.9935 36.44 57.9935 38.71V58.04H55.7336V38.71C55.7336 36.82 54.4636 35.24 52.7336 34.75H52.7435Z" fill="#CEA03A"/>
<path d="M45.2336 62.81H61.2736C64.1936 62.81 66.3836 60.13 65.8036 57.27C65.5536 56.05 64.8236 54.98 63.7736 54.3C58.3836 50.84 41.4935 39.06 41.4935 27.15L40.6235 58.06C40.5535 60.66 42.6335 62.81 45.2435 62.81H45.2336Z" fill="#D55049"/>
<path d="M63.7735 58.56C58.3835 55.1 41.4935 43.32 41.4935 31.41L40.7135 59.1C40.6435 58.76 40.6135 58.42 40.6235 58.06L41.4935 27.15C41.4935 39.06 58.3835 50.84 63.7735 54.3C64.8235 54.97 65.5536 56.04 65.8036 57.27C66.0236 58.36 65.8435 59.42 65.3735 60.32C65.0035 59.61 64.4635 59 63.7735 58.56Z" fill="#BC3C39"/>
<path d="M33.0536 0C33.0536 0 20.2236 7.03002 20.2236 24.3L20.2236 62.81H45.8835V24.3C45.8835 7.03002 33.0536 0 33.0536 0Z" fill="#C1DDF3"/>
<path d="M33.0536 0C33.0536 0 20.2236 7.03002 20.2236 24.3L20.2236 62.81H24.4036L24.4036 24.3C24.4036 7.03002 33.0536 0 33.0536 0Z" fill="#82A2D1"/>
<path d="M33.0536 0C33.0536 0 45.8835 7.03002 45.8835 24.3C45.8835 41.57 45.8835 62.81 45.8835 62.81H41.7036C41.7036 62.81 41.7036 41.57 41.7036 24.3C41.7036 7.03002 33.0536 0 33.0536 0Z" fill="#DEF2FF"/>
<g style="mix-blend-mode:soft-light">
<path d="M20.2236 39.52H45.8835V36.32H20.2236V39.52Z" fill="white"/>
</g>
<g style="mix-blend-mode:soft-light">
<path d="M20.2236 49.51H45.8835V46.31H20.2236V49.51Z" fill="white"/>
</g>
<g style="mix-blend-mode:multiply">
<path d="M34.6436 62.81H28.4136V46.27C28.4136 44.55 29.8136 43.15 31.5336 43.15C33.2536 43.15 34.6536 44.55 34.6536 46.27V62.81H34.6436Z" fill="#82A2D1"/>
</g>
<path d="M36.1736 62.81H29.9435V46.27C29.9435 44.55 31.3435 43.15 33.0635 43.15C34.7835 43.15 36.1835 44.55 36.1835 46.27V62.81H36.1736Z" fill="#DEF2FF"/>
<path d="M33.1036 43.15V62.81H36.1736V46.27C36.1736 44.56 34.8036 43.18 33.1036 43.16V43.15Z" fill="#EDF5F9"/>
<path d="M33.0536 12.79C33.0536 12.79 22.6136 15.48 22.6136 24.71C22.6136 24.71 28.2936 21.22 33.0536 21.22C37.8136 21.22 43.4935 24.71 43.4935 24.71C43.4935 15.48 33.0536 12.79 33.0536 12.79Z" fill="#4C6DA0"/>
<path d="M35.3336 13.63C34.0036 13.04 33.0536 12.79 33.0536 12.79C33.0536 12.79 22.6136 15.48 22.6136 24.71C22.6136 24.71 24.7036 23.43 27.4036 22.42C28.4336 17.47 32.6536 14.84 35.3336 13.63Z" fill="#3B5D7F"/>
</svg>
