<svg width="94" height="89" viewBox="0 0 94 89" fill="none" xmlns="http://www.w3.org/2000/svg">
<path d="M13.3088 77.66L7.96875 63.94L16.2488 55.7H24.4288V59.29H17.7288L12.1688 64.82L16.6588 76.35L13.3088 77.66Z" fill="#2B91AD"/>
<path d="M10.0683 70.46C6.71828 70.46 3.98828 67.73 3.98828 64.38C3.98828 61.03 6.71828 58.3 10.0683 58.3C13.4183 58.3 16.1483 61.03 16.1483 64.38C16.1483 67.73 13.4183 70.46 10.0683 70.46Z" fill="#2B91AD"/>
<path d="M14.0869 64.38C14.0869 66.6 12.2869 68.4 10.0669 68.4C7.84687 68.4 6.04688 66.6 6.04688 64.38C6.04688 62.16 7.84687 60.36 10.0669 60.36C12.2869 60.36 14.0869 62.16 14.0869 64.38Z" fill="#83B7C2"/>
<path d="M14.9869 74.19C10.8769 74.19 7.54688 77.52 7.54688 81.63C7.54688 84.8 9.53688 87.51 12.3369 88.58V82.04C12.3369 80.59 13.5069 79.42 14.9569 79.42C16.4069 79.42 17.5769 80.59 17.5769 82.04V88.6C20.4069 87.55 22.4269 84.83 22.4269 81.63C22.4269 77.52 19.0969 74.19 14.9869 74.19Z" fill="#83B7C2"/>
<path d="M80.0184 77.66L76.6784 76.35L81.1684 64.82L75.6084 59.29H68.8984V55.7H77.0884L85.3584 63.94L80.0184 77.66Z" fill="#2B91AD"/>
<path d="M83.2675 70.46C79.9175 70.46 77.1875 67.73 77.1875 64.38C77.1875 61.03 79.9175 58.3 83.2675 58.3C86.6175 58.3 89.3475 61.03 89.3475 64.38C89.3475 67.73 86.6175 70.46 83.2675 70.46Z" fill="#2B91AD"/>
<path d="M79.25 64.38C79.25 66.6 81.05 68.4 83.27 68.4C85.49 68.4 87.29 66.6 87.29 64.38C87.29 62.16 85.49 60.36 83.27 60.36C81.05 60.36 79.25 62.16 79.25 64.38Z" fill="#83B7C2"/>
<path d="M78.3502 74.19C82.4602 74.19 85.7902 77.52 85.7902 81.63C85.7902 84.8 83.8002 87.51 81.0002 88.58V82.04C81.0002 80.59 79.8301 79.42 78.3801 79.42C76.9301 79.42 75.7602 80.59 75.7602 82.04V88.6C72.9302 87.55 70.9102 84.83 70.9102 81.63C70.9102 77.52 74.2402 74.19 78.3502 74.19Z" fill="#83B7C2"/>
<path d="M29.51 65.99H63.82V67.98C63.82 77.45 56.13 85.14 46.66 85.14C37.19 85.14 29.5 77.45 29.5 67.98V65.99H29.51Z" fill="#55ABBE"/>
<path d="M63.8195 65.99V67.98C63.8195 77.45 56.1495 85.13 46.6695 85.13C45.3295 85.13 44.0195 84.98 42.7695 84.69C50.3495 82.92 56.0095 76.11 56.0095 67.98V65.99H63.8295H63.8195Z" fill="#2B91AD"/>
<path d="M69.9916 72.94C55.1716 79.68 38.1516 79.68 23.3416 72.94C22.0916 72.35 21.1016 70.78 21.1016 69.5V48.21C21.1016 46.93 22.0916 45.36 23.3416 44.77C38.1616 38.03 55.1816 38.03 69.9916 44.77C71.2416 45.36 72.2316 46.93 72.2316 48.21V69.5C72.2316 70.78 71.2416 72.35 69.9916 72.94Z" fill="#DFC465"/>
<path d="M72.2288 48.2V69.49C72.2288 70.77 71.2387 72.34 69.9987 72.93C57.5887 78.58 43.6287 79.5 30.7188 75.68L63.9688 42.43C66.0187 43.08 68.0288 43.87 70.0088 44.76C71.2588 45.35 72.2387 46.92 72.2387 48.2H72.2288Z" fill="#F1DC6B"/>
<path d="M66.2092 61.62C53.8092 67.33 39.5292 67.33 27.1292 61.62C26.1992 61.17 25.4492 60 25.4492 59.04V45.02C25.4492 44.06 26.1892 42.89 27.1292 42.44C39.5292 36.73 53.8092 36.73 66.2092 42.44C67.1392 42.89 67.8892 44.06 67.8892 45.02C67.8892 49.69 67.8892 54.37 67.8892 59.04C67.8892 60 67.1492 61.17 66.2092 61.62Z" fill="#3A3B74"/>
<path d="M78.6408 50.72C58.2608 59.59 35.0808 59.59 14.7008 50.72C12.2408 49.59 10.3008 46.5 10.3008 44.03V23.09C10.3008 20.61 12.2408 17.53 14.7008 16.4C35.0808 7.53 58.2608 7.53 78.6408 16.4C81.1008 17.53 83.0408 20.62 83.0408 23.09V44.03C83.0408 46.51 81.1008 49.59 78.6408 50.72Z" fill="#83B7C2"/>
<path d="M69.4591 13.06L27.4791 55.03C23.1291 53.96 18.8591 52.53 14.6891 50.71C12.2391 49.58 10.2891 46.49 10.2891 44.02V23.09C10.2891 20.61 12.2391 17.53 14.6891 16.4C32.0691 8.83997 51.4791 7.71997 69.4491 13.06H69.4591Z" fill="#55ABBE"/>
<path d="M46.6691 54.22C36.6091 54.22 26.8791 52.09 17.7491 47.88C15.7491 46.88 14.2891 44.59 14.2891 42.53V36.72C14.2891 34.66 15.7491 32.38 17.6891 31.4C26.8791 27.17 36.6091 25.04 46.6691 25.04C56.7291 25.04 66.4591 27.17 75.5891 31.38C77.5891 32.38 79.0491 34.67 79.0491 36.73V42.54C79.0491 44.6 77.5891 46.88 75.6491 47.86C66.4591 52.09 56.7291 54.22 46.6691 54.22Z" fill="#2B91AD"/>
<path d="M74.8381 46.25C56.9581 54.48 36.3681 54.48 18.4981 46.25C17.1581 45.58 16.0781 43.88 16.0781 42.53V36.72C16.0781 35.37 17.1481 33.68 18.4981 33C36.3781 24.77 56.9681 24.77 74.8381 33C76.1781 33.68 77.2581 35.37 77.2581 36.72V42.53C77.2581 43.87 76.1881 45.57 74.8381 46.25Z" fill="#3A3B74"/>
<path d="M33.1806 39.63C33.1806 42.13 31.1506 44.15 28.6606 44.15C26.1706 44.15 24.1406 42.12 24.1406 39.63C24.1406 37.14 26.1706 35.11 28.6606 35.11C31.1506 35.11 33.1806 37.14 33.1806 39.63Z" fill="#F1DC6B"/>
<path d="M64.6919 44.15C67.1882 44.15 69.2119 42.1263 69.2119 39.63C69.2119 37.1337 67.1882 35.11 64.6919 35.11C62.1956 35.11 60.1719 37.1337 60.1719 39.63C60.1719 42.1263 62.1956 44.15 64.6919 44.15Z" fill="#F1DC6B"/>
<path d="M88.1581 47.46H86.7481V31.71H88.1581C91.0081 31.71 93.3281 34.03 93.3281 36.88V42.29C93.3281 45.14 91.0081 47.46 88.1581 47.46Z" fill="#F1DC6B"/>
<path d="M5.17 31.72H6.58V47.47H5.17C2.32 47.47 0 45.15 0 42.3V36.89C0 34.04 2.32 31.72 5.17 31.72Z" fill="#DFC465"/>
<path d="M47.5014 70.85L47.5314 67.7L44.1914 72.85L45.8414 72.86L45.8114 76.01L49.1514 70.86L47.5014 70.85Z" fill="white"/>
<path d="M52.6697 17.11C52.6697 18.42 49.9797 19.48 46.6697 19.48C45.8697 19.48 45.0997 19.42 44.4097 19.3C42.2197 18.95 40.6797 18.1 40.6797 17.11C40.6797 15.8 43.3597 14.73 46.6697 14.73C46.9497 14.73 47.2197 14.73 47.4897 14.76C50.4197 14.91 52.6697 15.91 52.6697 17.11Z" fill="#F1DC6B"/>
<path d="M47.6197 16.08L44.4097 19.29C42.2197 18.94 40.6797 18.09 40.6797 17.1C40.6797 15.79 43.3597 14.72 46.6697 14.72C46.9497 14.72 47.2197 14.72 47.4897 14.75L47.6197 16.08Z" fill="#DFC465"/>
<path d="M48.018 7.28003V15.52C48.018 15.78 47.848 16 47.618 16.08C46.958 16.3 46.228 16.3 45.568 16.08C45.318 16 45.168 15.77 45.168 15.52V7.28003H48.028H48.018Z" fill="#F1DC6B"/>
<path d="M40.9688 1.35L43.4987 3.01L42.2287 0L40.9688 1.35Z" fill="#F1DC6B"/>
<path d="M52.2097 1.35L49.6797 3.01L50.9397 0L52.2097 1.35Z" fill="#F1DC6B"/>
<path d="M48.0202 7.28003V7.48003L47.9202 8.03003L45.1602 10.79V7.28003H48.0202Z" fill="#DFC465"/>
<path d="M49.2784 5.70001C49.2784 7.19001 48.0784 8.39001 46.5884 8.39001C45.0984 8.39001 43.8984 7.19001 43.8984 5.70001C43.8984 4.21001 45.0984 3.01001 46.5884 3.01001C48.0784 3.01001 49.2784 4.22001 49.2784 5.70001Z" fill="#F1DC6B"/>
<path d="M17.1108 39.05H15.0508V40.6H17.1108V39.05Z" fill="white"/>
<path d="M17.1511 36.39L15.1211 36.02C15.3111 34.96 15.9311 33.84 16.7811 33.01L18.2211 34.48C17.6711 35.01 17.2611 35.75 17.1511 36.39ZM20.3811 33.3L19.5611 31.41C20.4511 31.03 21.3511 30.66 22.2511 30.32L22.9911 32.25C22.1211 32.58 21.2511 32.94 20.3811 33.31V33.3ZM25.6311 31.29L24.9811 29.33C25.9011 29.02 26.8211 28.74 27.7511 28.47L28.3211 30.45C27.4211 30.71 26.5211 30.99 25.6311 31.28V31.29Z" fill="white"/>
<path d="M31.0525 29.73L30.5625 27.73C31.0725 27.61 31.5825 27.49 32.0925 27.38L32.5325 29.4C32.0325 29.51 31.5425 29.62 31.0525 29.74V29.73Z" fill="white"/>
<path d="M82.0088 23.08C82.0088 20.95 80.2287 18.26 78.2087 17.33C73.6487 15.34 68.8488 13.78 63.9688 12.68L64.4187 10.67C69.4187 11.79 74.3488 13.4 79.0488 15.45C81.8188 16.73 84.0687 20.15 84.0687 23.09H82.0088V23.08Z" fill="#3A3B74"/>
<path d="M84.0717 23.08H82.0117V24.63H84.0717V23.08Z" fill="#3A3B74"/>
<path d="M84.0717 28.26H82.0117V31.88H84.0717V28.26Z" fill="#3A3B74"/>
<path d="M84.0717 35.5H82.0117V37.05H84.0717V35.5Z" fill="#3A3B74"/>
</svg>
