<svg width="71" height="100" viewBox="0 0 71 100" fill="none" xmlns="http://www.w3.org/2000/svg">
<path d="M26.4108 96.4C22.0108 96.4 18.4308 92.82 18.4308 88.42V79.66C18.4308 72.86 15.2008 63.96 10.7608 58.52L10.6908 58.43C10.2908 57.92 9.8508 57.44 9.4008 56.98L9.1408 56.72L8.9108 56.44C3.8408 50.29 1.0508 42.51 1.0508 34.53C1.0308 15.49 16.5208 0 35.5608 0C54.6008 0 70.0908 15.49 70.0908 34.53C70.0908 42.67 67.2008 50.57 61.9408 56.77L61.8208 56.91L61.5308 57.21L59.0908 60.23C55.2508 65.8 52.6808 73.58 52.6808 79.67V88.43C52.6808 92.83 49.1008 96.41 44.7008 96.41H26.4008L26.4108 96.4Z" fill="#55ABBE"/>
<path d="M70.0806 34.53C70.0806 43.1 66.9506 50.96 61.7606 56.97C61.7206 57.01 61.7006 57.02 61.7006 57.05C61.3006 57.44 60.9306 57.85 60.5806 58.27C60.5506 58.3 60.5206 58.32 60.5206 58.33C56.0206 63.74 52.7006 72.82 52.7006 79.65H43.6406C43.6406 60.76 67.1706 54.15 70.0906 34.52" fill="#7DB5C1"/>
<path d="M30.1914 92.82H40.9314V96.31C40.9314 98.34 39.2814 99.99 37.2514 99.99H33.8714C31.8414 99.99 30.1914 98.34 30.1914 96.31V92.82Z" fill="#55ABBE"/>
<path d="M35.5602 63.92C19.3502 63.92 6.16016 50.73 6.16016 34.52C6.16016 18.31 19.3502 5.12 35.5602 5.12C51.7702 5.12 64.9602 18.31 64.9602 34.52C64.9602 50.73 51.7702 63.92 35.5602 63.92Z" fill="#2B91AD"/>
<path d="M38.8107 61.1415C53.5135 59.3441 63.9753 45.9679 62.1779 31.2651C60.3804 16.5623 47.0043 6.10047 32.3015 7.89793C17.5987 9.69539 7.13682 23.0715 8.93428 37.7743C10.7317 52.4771 24.1079 62.939 38.8107 61.1415Z" fill="#3A3B74"/>
<path d="M18.4297 79.66H52.6897V88.42C52.6897 92.82 49.1197 96.4 44.7097 96.4H26.4097C22.0097 96.4 18.4297 92.83 18.4297 88.42V79.66Z" fill="#3A3B74"/>
<path d="M9.91094 59.11C9.61094 58.73 9.29094 58.36 8.96094 58.02L10.4509 56.59C10.8309 56.99 11.1909 57.41 11.5309 57.84L9.91094 59.11Z" fill="#3A3B74"/>
<path d="M6.74156 55.34C6.07156 54.42 5.44156 53.45 4.86156 52.46L6.64156 51.42C7.19156 52.35 7.78156 53.26 8.41156 54.13L6.74156 55.34ZM3.27156 49.41C2.79156 48.38 2.36156 47.3 1.98156 46.22L3.93156 45.54C4.29156 46.56 4.69156 47.57 5.14156 48.54L3.27156 49.41ZM1.00156 42.92C0.731562 41.81 0.511562 40.67 0.351562 39.54L2.39156 39.25C2.54156 40.31 2.75156 41.38 3.00156 42.43L1.00156 42.92Z" fill="#3A3B74"/>
<path d="M0.04 36.12C0.02 35.59 0 35.06 0 34.53H2.06C2.06 35.03 2.07 35.53 2.09 36.03L0.03 36.12H0.04Z" fill="#3A3B74"/>
<path d="M19.4619 79.66H17.4019C17.4019 73.15 14.1919 64.32 9.92188 59.12L11.5219 57.81C16.1219 63.42 19.4619 72.61 19.4619 79.66Z" fill="#3A3B74"/>
<path d="M63.4086 34.52H61.3486C61.3486 34.02 61.3386 33.52 61.3086 33.03L63.3686 32.91C63.3986 33.44 63.4186 33.98 63.4186 34.52H63.4086Z" fill="white"/>
<path d="M60.9797 30.16C60.8197 29.22 60.5997 28.27 60.3397 27.35L62.3197 26.78C62.6097 27.78 62.8397 28.8 63.0197 29.82L60.9797 30.17V30.16ZM59.3797 24.62C59.0097 23.73 58.5897 22.86 58.1197 22.02L59.9197 21.02C60.4197 21.92 60.8797 22.87 61.2797 23.83L59.3697 24.62H59.3797ZM56.5897 19.58C56.0297 18.8 55.4297 18.04 54.7897 17.32L56.3297 15.94C57.0197 16.71 57.6797 17.53 58.2697 18.37L56.5897 19.57V19.58ZM52.7497 15.28C52.0397 14.64 51.2797 14.04 50.4997 13.48L51.6997 11.8C52.5397 12.4 53.3597 13.06 54.1297 13.74L52.7497 15.28ZM48.0597 11.94C47.2197 11.47 46.3497 11.05 45.4597 10.68L46.2497 8.77C47.2097 9.17 48.1497 9.62 49.0497 10.13L48.0497 11.93L48.0597 11.94ZM42.7397 9.73C41.8197 9.46 40.8697 9.25 39.9297 9.09L40.2797 7.06C41.2997 7.23 42.3197 7.47 43.3197 7.76L42.7497 9.74L42.7397 9.73Z" fill="white"/>
<path d="M37.0486 8.76998C36.5586 8.73998 36.0586 8.72998 35.5586 8.72998V6.66998C36.0986 6.66998 36.6286 6.68998 37.1686 6.71998L37.0486 8.77998V8.76998Z" fill="white"/>
<path d="M54.9109 84.83V86.98C54.9109 88.77 53.5309 90.25 51.7509 90.39L46.0609 90.83L19.8909 92.84C17.9009 92.99 16.2109 91.42 16.2109 89.43V87.8L46.0609 85.51L54.9109 84.83Z" fill="#55ABBE"/>
<path d="M54.9109 76.52V81.84L46.0609 82.52L16.2109 84.83V79.5L46.0609 77.2L54.9109 76.52Z" fill="#55ABBE"/>
<path d="M54.9086 76.52V81.84L46.0586 82.52V77.2L54.9086 76.52Z" fill="#83B7C2"/>
<path d="M46.0586 85.51L54.9086 84.83V86.98C54.9086 88.77 53.5286 90.25 51.7486 90.39L46.0586 90.83V85.51Z" fill="#83B7C2"/>
<path d="M54.9086 76.52V81.84L46.0586 82.52V77.2L54.9086 76.52Z" fill="#7DB5C1"/>
<path d="M46.0586 85.51L54.9086 84.83V86.98C54.9086 88.77 53.5286 90.25 51.7486 90.39L46.0586 90.83V85.51Z" fill="#7DB5C1"/>
<path d="M37.9122 58.3295C51.0646 57.0329 60.6757 45.3197 59.3791 32.1673C58.0825 19.0149 46.3693 9.40379 33.2169 10.7003C20.0645 11.9969 10.4534 23.7101 11.75 36.8625C13.0465 50.015 24.7597 59.626 37.9122 58.3295Z" fill="#F1DC6B"/>
<path d="M59.4789 34.52C59.4789 47.74 48.7689 58.45 35.5489 58.45C28.9389 58.45 22.9589 55.77 18.6289 51.44L52.4689 17.6C56.7989 21.93 59.4789 27.92 59.4789 34.52Z" fill="#DFC465"/>
<path d="M51.2798 37.25V31.79L47.2598 30.64C47.1698 30.4 47.0798 30.15 46.9898 29.92C46.8598 29.61 46.7298 29.3 46.5798 28.99L48.6198 25.33L44.7498 21.46L41.0898 23.51C40.5598 23.24 40.0098 23.01 39.4398 22.83L38.2898 18.8H32.8298L31.6798 22.83C31.1098 23.01 30.5598 23.24 30.0298 23.51L26.3698 21.46L22.4998 25.33L24.5398 28.99C24.2698 29.53 24.0498 30.09 23.8598 30.64L19.8398 31.79V37.25L23.8598 38.4C24.0498 38.97 24.2698 39.52 24.5398 40.06L22.4998 43.71L26.3698 47.58L30.0298 45.54C30.3298 45.69 30.6398 45.84 30.9598 45.95C31.1898 46.05 31.4398 46.14 31.6798 46.22L32.8298 50.25H38.2898L39.4398 46.22C40.0098 46.03 40.5598 45.81 41.0898 45.54L44.7498 47.58L48.6198 43.71L46.5798 40.06C46.8498 39.52 47.0698 38.96 47.2598 38.4L51.2798 37.25ZM41.2998 40.25C39.4098 42.14 36.8298 42.9 34.3798 42.53C32.7198 42.3 31.1098 41.53 29.8298 40.25C26.6598 37.08 26.6598 31.95 29.8298 28.78C32.9998 25.61 38.1298 25.61 41.2998 28.78C42.5798 30.06 43.3498 31.67 43.5798 33.33C43.9498 35.78 43.1898 38.35 41.2998 40.25Z" fill="#3A3B74"/>
</svg>
