<svg width="77" height="97" viewBox="0 0 77 97" fill="none" xmlns="http://www.w3.org/2000/svg">
<path d="M74.9898 78.16H45.0898V95.63H74.9898V78.16Z" fill="#2B91AD"/>
<path d="M74.9898 78.16H45.0898V95.63H74.9898V78.16Z" fill="#2B91AD"/>
<path d="M54.5898 78.16H45.0898V95.63H54.5898V78.16Z" fill="#83B7C2"/>
<path d="M56.1281 94.6H54.5781V96.66H56.1281V94.6Z" fill="#3A3B74"/>
<path d="M69.9877 96.66H66.5277V94.6H69.9877V96.66ZM63.0577 96.66H59.5977V94.6H63.0577V96.66Z" fill="#3A3B74"/>
<path d="M74.9992 94.6H73.4492V96.66H74.9992V94.6Z" fill="#3A3B74"/>
<path d="M75 32.99V86.71H18.04L9.02 56.49H0L17.25 0H42.01C60.23 0 75 14.77 75 32.99Z" fill="#55ABBE"/>
<path d="M34.97 86.71H18.04L9.02 56.48H0L17.24 0H34.18L16.93 56.48H25.95L34.97 86.71Z" fill="#83B7C2"/>
<path d="M23.3595 79.84L14.3395 49.62H9.26953L22.3295 6.85999H42.0095C56.4195 6.85999 68.1395 18.58 68.1395 32.99V79.85H23.3595V79.84Z" fill="#2B91AD"/>
<path d="M24.8819 77.8801L15.8619 47.6601H11.9219L23.7819 8.82007H42.0119C55.3319 8.82007 66.1819 19.6601 66.1819 32.9901V77.8801H24.8819Z" fill="#3A3B74"/>
<path d="M66.1805 32.9899V77.8799H24.8805L22.9805 71.4899L65.7805 28.6899C66.0405 30.0799 66.1705 31.5199 66.1705 32.9899H66.1805Z" fill="#32335F"/>
<path d="M76.0316 32.99H73.9716C73.9716 20.67 66.7616 9.31 55.6016 4.06L56.4816 2.19C68.3616 7.78 76.0316 19.87 76.0316 32.99Z" fill="#3A3B74"/>
<path d="M76.0209 32.99H73.9609V34.54H76.0209V32.99Z" fill="#3A3B74"/>
<path d="M76.0327 49.07H73.9727V45.44H76.0327V49.07ZM76.0327 41.8H73.9727V38.17H76.0327V41.8Z" fill="#3A3B74"/>
<path d="M76.0209 52.7H73.9609V54.25H76.0209V52.7Z" fill="#3A3B74"/>
<path d="M67.2006 76.34H65.1406V77.89H67.2006V76.34Z" fill="white"/>
<path d="M67.2006 73.2001H65.1406V70.0701H67.2006V73.2001ZM67.2006 66.9401H65.1406V63.8101H67.2006V66.9401Z" fill="white"/>
<path d="M67.2006 59.13H65.1406V60.68H67.2006V59.13Z" fill="white"/>
<path d="M56.7894 24.1699H28.8594V52.0999H56.7894V24.1699Z" fill="#2B91AD"/>
<path d="M48.8094 24.1699L28.8594 44.1299V24.1699H48.8094Z" fill="#7DB5C1"/>
<path d="M52.8303 28.1199H32.8203V48.1299H52.8303V28.1199Z" fill="white"/>
<path d="M49.9597 30.9899H35.6797V45.2699H49.9597V30.9899Z" fill="#3A3B74"/>
<path d="M32.9677 18.47H31.8477V23.58H32.9677V18.47Z" fill="#F1DC6B"/>
<path d="M33.5987 22.02H31.2188V25.16H33.5987V22.02Z" fill="#F1DC6B"/>
<path d="M37.1317 18.47H36.0117V23.58H37.1317V18.47Z" fill="#F1DC6B"/>
<path d="M37.7706 22.02H35.3906V25.16H37.7706V22.02Z" fill="#F1DC6B"/>
<path d="M41.2958 18.47H40.1758V23.58H41.2958V18.47Z" fill="#F1DC6B"/>
<path d="M41.9269 22.02H39.5469V25.16H41.9269V22.02Z" fill="#F1DC6B"/>
<path d="M45.4677 18.47H44.3477V23.58H45.4677V18.47Z" fill="#F1DC6B"/>
<path d="M46.0987 22.02H43.7188V25.16H46.0987V22.02Z" fill="#F1DC6B"/>
<path d="M49.6395 18.47H48.5195V23.58H49.6395V18.47Z" fill="#F1DC6B"/>
<path d="M50.2706 22.02H47.8906V25.16H50.2706V22.02Z" fill="#F1DC6B"/>
<path d="M53.7958 18.47H52.6758V23.58H53.7958V18.47Z" fill="#F1DC6B"/>
<path d="M54.4269 22.02H52.0469V25.16H54.4269V22.02Z" fill="#F1DC6B"/>
<path d="M32.9677 52.6799H31.8477V64.8999H32.9677V52.6799Z" fill="#F1DC6B"/>
<path d="M33.5987 51.11H31.2188V54.25H33.5987V51.11Z" fill="#F1DC6B"/>
<path d="M37.1317 52.6799H36.0117V64.8999H37.1317V52.6799Z" fill="#F1DC6B"/>
<path d="M37.7706 51.11H35.3906V54.25H37.7706V51.11Z" fill="#F1DC6B"/>
<path d="M41.2958 52.6799H40.1758V64.8999H41.2958V52.6799Z" fill="#F1DC6B"/>
<path d="M41.9269 51.11H39.5469V54.25H41.9269V51.11Z" fill="#F1DC6B"/>
<path d="M45.4677 52.6799H44.3477V64.8999H45.4677V52.6799Z" fill="#F1DC6B"/>
<path d="M46.0987 51.11H43.7188V54.25H46.0987V51.11Z" fill="#F1DC6B"/>
<path d="M49.6395 52.6799H48.5195V64.8999H49.6395V52.6799Z" fill="#F1DC6B"/>
<path d="M50.2706 51.11H47.8906V54.25H50.2706V51.11Z" fill="#F1DC6B"/>
<path d="M53.7958 52.6799H52.6758V64.8999H53.7958V52.6799Z" fill="#F1DC6B"/>
<path d="M54.4269 51.11H52.0469V54.25H54.4269V51.11Z" fill="#F1DC6B"/>
<path d="M32.9677 61.8099H31.8477V78.1699H32.9677V61.8099Z" fill="#F1DC6B"/>
<path d="M33.5987 76.59H31.2188V79.73H33.5987V76.59Z" fill="#F1DC6B"/>
<path d="M37.1317 61.8099H36.0117V78.1699H37.1317V61.8099Z" fill="#F1DC6B"/>
<path d="M37.7706 76.59H35.3906V79.73H37.7706V76.59Z" fill="#F1DC6B"/>
<path d="M41.2958 61.8099H40.1758V78.1699H41.2958V61.8099Z" fill="#F1DC6B"/>
<path d="M41.9269 76.59H39.5469V79.73H41.9269V76.59Z" fill="#F1DC6B"/>
<path d="M45.4677 61.8099H44.3477V78.1699H45.4677V61.8099Z" fill="#F1DC6B"/>
<path d="M46.0987 76.59H43.7188V79.73H46.0987V76.59Z" fill="#F1DC6B"/>
<path d="M49.6395 61.8099H48.5195V78.1699H49.6395V61.8099Z" fill="#F1DC6B"/>
<path d="M50.2706 76.59H47.8906V79.73H50.2706V76.59Z" fill="#F1DC6B"/>
<path d="M53.7958 61.8099H52.6758V78.1699H53.7958V61.8099Z" fill="#F1DC6B"/>
<path d="M54.4269 76.59H52.0469V79.73H54.4269V76.59Z" fill="#F1DC6B"/>
<path d="M62.4844 28.28V27.16H57.3744V28.28H62.4844Z" fill="#F1DC6B"/>
<path d="M58.9531 28.9V26.52H55.8131V28.9H58.9531Z" fill="#F1DC6B"/>
<path d="M62.4811 31.3201H57.3711V32.4401H62.4811V31.3201Z" fill="#F1DC6B"/>
<path d="M58.9408 30.6901H55.8008V33.0701H58.9408V30.6901Z" fill="#F1DC6B"/>
<path d="M62.4811 35.49H57.3711V36.61H62.4811V35.49Z" fill="#F1DC6B"/>
<path d="M58.9408 34.86H55.8008V37.24H58.9408V34.86Z" fill="#F1DC6B"/>
<path d="M62.4811 39.65H57.3711V40.77H62.4811V39.65Z" fill="#F1DC6B"/>
<path d="M58.9408 39.03H55.8008V41.41H58.9408V39.03Z" fill="#F1DC6B"/>
<path d="M62.4811 43.8201H57.3711V44.9401H62.4811V43.8201Z" fill="#F1DC6B"/>
<path d="M58.9408 43.1901H55.8008V45.5701H58.9408V43.1901Z" fill="#F1DC6B"/>
<path d="M62.4922 49.11V47.99H57.3822V49.11H62.4922Z" fill="#F1DC6B"/>
<path d="M58.9414 49.74V47.36H55.8014V49.74H58.9414Z" fill="#F1DC6B"/>
<path d="M28.2812 28.27V27.15H23.1712V28.27H28.2812Z" fill="#F1DC6B"/>
<path d="M29.8516 28.91V26.53H26.7116V28.91H29.8516Z" fill="#F1DC6B"/>
<path d="M28.2702 31.3201H23.1602V32.4401H28.2702V31.3201Z" fill="#F1DC6B"/>
<path d="M29.8509 30.6901H26.7109V33.0701H29.8509V30.6901Z" fill="#F1DC6B"/>
<path d="M28.2702 35.49H23.1602V36.61H28.2702V35.49Z" fill="#F1DC6B"/>
<path d="M29.8509 34.86H26.7109V37.24H29.8509V34.86Z" fill="#F1DC6B"/>
<path d="M28.2702 39.65H23.1602V40.77H28.2702V39.65Z" fill="#F1DC6B"/>
<path d="M29.8509 39.03H26.7109V41.41H29.8509V39.03Z" fill="#F1DC6B"/>
<path d="M28.2702 43.8201H23.1602V44.9401H28.2702V43.8201Z" fill="#F1DC6B"/>
<path d="M29.8509 43.1901H26.7109V45.5701H29.8509V43.1901Z" fill="#F1DC6B"/>
<path d="M28.2812 49.11V47.99H23.1713V49.11H28.2812Z" fill="#F1DC6B"/>
<path d="M29.8516 49.74V47.36H26.7116V49.74H29.8516Z" fill="#F1DC6B"/>
</svg>
