<svg width="106" height="80" viewBox="0 0 106 80" fill="none" xmlns="http://www.w3.org/2000/svg">
<path d="M39.32 76.5101C34.53 76.5101 30.07 73.9301 27.68 69.7901L14.31 46.6301C11.92 42.4801 11.92 37.3301 14.31 33.1901L27.68 10.0301C30.07 5.88006 34.53 3.31006 39.32 3.31006H66.07C70.86 3.31006 75.32 5.89006 77.71 10.0301L91.08 33.1901C93.47 37.3401 93.47 42.4901 91.08 46.6301L77.71 69.7901C75.32 73.9401 70.86 76.5101 66.07 76.5101H39.32Z" fill="#2B91AD"/>
<path d="M87.37 44.48L74 67.65C72.37 70.47 69.33 72.22 66.07 72.22H39.33C36.07 72.22 33.03 70.47 31.4 67.65L23.92 54.69L18.03 44.48C16.4 41.66 16.4 38.16 18.03 35.33L31.4 12.17C33.03 9.33997 36.07 7.58997 39.33 7.58997H66.07C67.48 7.58997 68.86 7.91997 70.09 8.52997C71.7 9.30997 73.08 10.57 74 12.17L87.37 35.33C89 38.16 89 41.66 87.37 44.48Z" fill="#55ABBE"/>
<path d="M70.09 8.52997L23.91 54.69L18.02 44.48C16.39 41.66 16.39 38.16 18.02 35.33L31.39 12.17C33.02 9.33997 36.06 7.58997 39.32 7.58997H66.06C67.47 7.58997 68.85 7.91997 70.08 8.52997H70.09Z" fill="#83B7C2"/>
<path d="M52.69 65.74C38.45 65.74 26.86 54.15 26.86 39.91C26.86 25.67 38.45 14.08 52.69 14.08C66.93 14.08 78.53 25.67 78.53 39.91C78.53 54.15 66.94 65.74 52.69 65.74Z" fill="#2B91AD"/>
<path d="M74.6 31.64C79.17 43.74 73.06 57.25 60.97 61.81C48.87 66.38 35.36 60.27 30.8 48.18C26.23 36.08 32.34 22.57 44.43 18.01C56.53 13.44 70.04 19.55 74.6 31.64Z" fill="#F1DC6B"/>
<path d="M60.96 61.82C51.73 65.31 41.68 62.57 35.42 55.7L68.5 22.62C71.13 25.02 73.26 28.07 74.6 31.63C79.17 43.73 73.06 57.23 60.96 61.81V61.82Z" fill="#DFC465"/>
<path d="M67.3093 43.511C69.3003 35.4354 64.3678 27.2748 56.2923 25.2838C48.2167 23.2927 40.0561 28.2252 38.065 36.3008C36.074 44.3764 41.0065 52.537 49.0821 54.528C57.1577 56.5191 65.3183 51.5866 67.3093 43.511Z" fill="#3A3B74"/>
<path d="M58.43 39.08C61.1417 39.08 63.34 36.8817 63.34 34.17C63.34 31.4583 61.1417 29.26 58.43 29.26C55.7183 29.26 53.52 31.4583 53.52 34.17C53.52 36.8817 55.7183 39.08 58.43 39.08Z" fill="white"/>
<path d="M44.7901 18.97L44.0601 17.04C44.5701 16.85 45.0801 16.67 45.5901 16.52L46.1901 18.49C45.7201 18.63 45.2601 18.79 44.7901 18.97Z" fill="white"/>
<path d="M71.6801 28.04C71.1701 27.21 70.5901 26.42 69.9801 25.67L71.5701 24.36C72.2401 25.18 72.8701 26.05 73.4301 26.95L71.6801 28.04ZM67.9701 23.54C67.2601 22.88 66.5001 22.26 65.7101 21.69L66.9101 20.01C67.7801 20.63 68.6101 21.31 69.3801 22.03L67.9701 23.54ZM63.2201 20.15C62.3601 19.69 61.4701 19.29 60.5501 18.95L61.2801 17.02C62.2701 17.39 63.2501 17.84 64.1901 18.33L63.2201 20.15ZM57.7601 18.1C56.8101 17.88 55.8401 17.72 54.8701 17.62L55.0701 15.57C56.1301 15.67 57.1901 15.85 58.2201 16.09L57.7501 18.1H57.7601ZM49.0401 17.82L48.7001 15.78C49.7501 15.6 50.8201 15.5 51.8801 15.46L51.9501 17.52C50.9801 17.55 50.0001 17.65 49.0401 17.81V17.82Z" fill="white"/>
<path d="M73.6301 31.9999C73.4501 31.5299 73.2601 31.0799 73.0601 30.6299L74.9401 29.7799C75.1601 30.2699 75.3701 30.7599 75.5601 31.2699L73.6301 31.9999Z" fill="white"/>
<path d="M16.38 8.59H13.29V0.5H21.38V3.6H16.38V8.59Z" fill="white"/>
<path d="M21.38 79.32H13.29V71.23H16.38V76.22H21.38V79.32Z" fill="white"/>
<path d="M92.1 8.59H89.01V3.6H84V0.5H92.1V8.59Z" fill="white"/>
<path d="M92.1 79.32H84V76.22H89.01V71.23H92.1V79.32Z" fill="white"/>
<path d="M37.64 38.88H36.09V40.94H37.64V38.88Z" fill="white"/>
<path d="M34.05 40.94H30.99V38.88H34.05V40.94ZM28.95 40.94H25.89V38.88H28.95V40.94ZM23.85 40.94H20.79V38.88H23.85V40.94ZM18.75 40.94H15.69V38.88H18.75V40.94ZM13.65 40.94H10.59V38.88H13.65V40.94ZM8.54999 40.94H5.48999V38.88H8.54999V40.94Z" fill="white"/>
<path d="M3.47004 38.88H1.92004V40.94H3.47004V38.88Z" fill="white"/>
<path d="M2.02 37.89C0.91 37.89 0 38.79 0 39.91C0 41.03 0.9 41.93 2.02 41.93C3.14 41.93 4.04 41.03 4.04 39.91C4.04 38.79 3.14 37.89 2.02 37.89Z" fill="white"/>
<path d="M77.67 38.88H76.12V40.94H77.67V38.88Z" fill="#DFC465"/>
<path d="M99.72 40.94H96.41V38.88H99.72V40.94ZM94.21 40.94H90.9V38.88H94.21V40.94ZM88.7 40.94H85.39V38.88H88.7V40.94ZM83.19 40.94H79.88V38.88H83.19V40.94Z" fill="#DFC465"/>
<path d="M103.47 38.88H101.92V40.94H103.47V38.88Z" fill="#DFC465"/>
<path d="M103.37 41.93C104.486 41.93 105.39 41.0256 105.39 39.91C105.39 38.7944 104.486 37.89 103.37 37.89C102.254 37.89 101.35 38.7944 101.35 39.91C101.35 41.0256 102.254 41.93 103.37 41.93Z" fill="#DFC465"/>
<path d="M23.4201 30.36H15.5701L13.3001 25.97H9.7301V23.91H14.5501L16.8201 28.29H23.4201V30.36Z" fill="#83B7C2"/>
<path d="M9.83006 22.92C8.72006 22.92 7.81006 23.82 7.81006 24.94C7.81006 26.06 8.71006 26.96 9.83006 26.96C10.9501 26.96 11.8501 26.06 11.8501 24.94C11.8501 23.82 10.9501 22.92 9.83006 22.92Z" fill="#83B7C2"/>
<path d="M14.5501 55.9101H9.7301V53.8401H13.3001L15.5701 49.4601H23.4201V51.5201H16.8201L14.5501 55.9101Z" fill="#83B7C2"/>
<path d="M9.83006 52.8601C8.72006 52.8601 7.81006 53.7601 7.81006 54.8801C7.81006 56.0001 8.71006 56.9001 9.83006 56.9001C10.9501 56.9001 11.8501 56.0001 11.8501 54.8801C11.8501 53.7601 10.9501 52.8601 9.83006 52.8601Z" fill="#83B7C2"/>
<path d="M89.8201 30.36H81.9701V28.29H88.5601L90.8301 23.91H95.6501V25.97H92.0901L89.8201 30.36Z" fill="#55ABBE"/>
<path d="M95.55 26.96C96.66 26.96 97.57 26.06 97.57 24.94C97.57 23.82 96.67 22.92 95.55 22.92C94.43 22.92 93.53 23.82 93.53 24.94C93.53 26.06 94.43 26.96 95.55 26.96Z" fill="#55ABBE"/>
<path d="M95.6501 55.9101H90.8301L88.5601 51.5201H81.9701V49.4601H89.8201L92.0901 53.8401H95.6501V55.9101Z" fill="#55ABBE"/>
<path d="M95.55 56.8901C96.66 56.8901 97.57 55.9901 97.57 54.8701C97.57 53.7501 96.67 52.8501 95.55 52.8501C94.43 52.8501 93.53 53.7501 93.53 54.8701C93.53 55.9901 94.43 56.8901 95.55 56.8901Z" fill="#55ABBE"/>
<path d="M67.75 39.91C67.75 48.23 61.02 54.96 52.7 54.96C51.37 54.96 50.07 54.79 48.84 54.46L67.26 36.04C67.59 37.28 67.76 38.57 67.76 39.9L67.75 39.91Z" fill="#32335F"/>
</svg>
