<?xml version="1.0" encoding="UTF-8"?>
<svg id="Layer_2" data-name="Layer 2" xmlns="http://www.w3.org/2000/svg" viewBox="0 0 76.03 96.66">
  <defs>
    <style>
      .cls-1 {
        fill: #fff;
      }

      .cls-2 {
        fill: #f1dc6b;
      }

      .cls-3 {
        fill: #7db5c1;
      }

      .cls-4 {
        fill: #2b91ad;
      }

      .cls-5 {
        fill: #55abbe;
      }

      .cls-6 {
        fill: #32335f;
      }

      .cls-7 {
        fill: #3a3b74;
      }

      .cls-8 {
        fill: #83b7c2;
      }
    </style>
  </defs>
  <g id="OBJECTS">
    <g>
      <rect class="cls-4" x="45.09" y="78.16" width="29.9" height="17.47"/>
      <rect class="cls-4" x="45.09" y="78.16" width="29.9" height="17.47"/>
      <rect class="cls-8" x="45.09" y="78.16" width="9.5" height="17.47"/>
      <g>
        <rect class="cls-7" x="54.58" y="94.6" width="1.55" height="2.06"/>
        <path class="cls-7" d="m69.99,96.66h-3.46v-2.06h3.46v2.06Zm-6.93,0h-3.46v-2.06h3.46v2.06Z"/>
        <rect class="cls-7" x="73.45" y="94.6" width="1.55" height="2.06"/>
      </g>
      <path class="cls-5" d="m75,32.99v53.72H18.04l-9.02-30.22H0L17.25,0h24.76c18.22,0,32.99,14.77,32.99,32.99Z"/>
      <polygon class="cls-8" points="34.97 86.71 18.04 86.71 9.02 56.48 0 56.48 17.24 0 34.18 0 16.93 56.48 25.95 56.48 34.97 86.71"/>
      <path class="cls-4" d="m23.36,79.84l-9.02-30.22h-5.07L22.33,6.86h19.68c14.41,0,26.13,11.72,26.13,26.13v46.86H23.36Z"/>
      <path class="cls-7" d="m24.88,77.88l-9.02-30.22h-3.94L23.78,8.82h18.23c13.32,0,24.17,10.84,24.17,24.17v44.89H24.88Z"/>
      <path class="cls-6" d="m66.18,32.99v44.89H24.88l-1.9-6.39,42.8-42.8c.26,1.39.39,2.83.39,4.3Z"/>
      <path class="cls-7" d="m76.03,32.99h-2.06c0-12.32-7.21-23.68-18.37-28.93l.88-1.87c11.88,5.59,19.55,17.68,19.55,30.8Z"/>
      <g>
        <rect class="cls-7" x="73.96" y="32.99" width="2.06" height="1.55"/>
        <path class="cls-7" d="m76.03,49.07h-2.06v-3.63h2.06v3.63Zm0-7.27h-2.06v-3.63h2.06v3.63Z"/>
        <rect class="cls-7" x="73.96" y="52.7" width="2.06" height="1.55"/>
      </g>
      <g>
        <rect class="cls-1" x="65.14" y="76.34" width="2.06" height="1.55"/>
        <path class="cls-1" d="m67.2,73.2h-2.06v-3.13h2.06v3.13Zm0-6.26h-2.06v-3.13h2.06v3.13Z"/>
        <rect class="cls-1" x="65.14" y="59.13" width="2.06" height="1.55"/>
      </g>
      <g>
        <g>
          <rect class="cls-4" x="28.86" y="24.17" width="27.93" height="27.93"/>
          <polygon class="cls-3" points="48.81 24.17 28.86 44.13 28.86 24.17 48.81 24.17"/>
          <rect class="cls-1" x="32.82" y="28.12" width="20.01" height="20.01"/>
          <rect class="cls-7" x="35.68" y="30.99" width="14.28" height="14.28"/>
        </g>
        <g>
          <g>
            <g>
              <g>
                <rect class="cls-2" x="31.85" y="18.47" width="1.12" height="5.11"/>
                <rect class="cls-2" x="31.22" y="22.02" width="2.38" height="3.14"/>
              </g>
              <g>
                <rect class="cls-2" x="36.01" y="18.47" width="1.12" height="5.11"/>
                <rect class="cls-2" x="35.39" y="22.02" width="2.38" height="3.14"/>
              </g>
              <g>
                <rect class="cls-2" x="40.18" y="18.47" width="1.12" height="5.11"/>
                <rect class="cls-2" x="39.55" y="22.02" width="2.38" height="3.14"/>
              </g>
              <g>
                <rect class="cls-2" x="44.35" y="18.47" width="1.12" height="5.11"/>
                <rect class="cls-2" x="43.72" y="22.02" width="2.38" height="3.14"/>
              </g>
              <g>
                <rect class="cls-2" x="48.52" y="18.47" width="1.12" height="5.11"/>
                <rect class="cls-2" x="47.89" y="22.02" width="2.38" height="3.14"/>
              </g>
              <g>
                <rect class="cls-2" x="52.68" y="18.47" width="1.12" height="5.11"/>
                <rect class="cls-2" x="52.05" y="22.02" width="2.38" height="3.14"/>
              </g>
            </g>
            <g>
              <g>
                <g>
                  <rect class="cls-2" x="31.85" y="52.68" width="1.12" height="12.22"/>
                  <rect class="cls-2" x="31.22" y="51.11" width="2.38" height="3.14"/>
                </g>
                <g>
                  <rect class="cls-2" x="36.01" y="52.68" width="1.12" height="12.22"/>
                  <rect class="cls-2" x="35.39" y="51.11" width="2.38" height="3.14"/>
                </g>
                <g>
                  <rect class="cls-2" x="40.18" y="52.68" width="1.12" height="12.22"/>
                  <rect class="cls-2" x="39.55" y="51.11" width="2.38" height="3.14"/>
                </g>
                <g>
                  <rect class="cls-2" x="44.35" y="52.68" width="1.12" height="12.22"/>
                  <rect class="cls-2" x="43.72" y="51.11" width="2.38" height="3.14"/>
                </g>
                <g>
                  <rect class="cls-2" x="48.52" y="52.68" width="1.12" height="12.22"/>
                  <rect class="cls-2" x="47.89" y="51.11" width="2.38" height="3.14"/>
                </g>
                <g>
                  <rect class="cls-2" x="52.68" y="52.68" width="1.12" height="12.22"/>
                  <rect class="cls-2" x="52.05" y="51.11" width="2.38" height="3.14"/>
                </g>
              </g>
              <g>
                <g>
                  <rect class="cls-2" x="31.85" y="61.81" width="1.12" height="16.36"/>
                  <rect class="cls-2" x="31.22" y="76.59" width="2.38" height="3.14"/>
                </g>
                <g>
                  <rect class="cls-2" x="36.01" y="61.81" width="1.12" height="16.36"/>
                  <rect class="cls-2" x="35.39" y="76.59" width="2.38" height="3.14"/>
                </g>
                <g>
                  <rect class="cls-2" x="40.18" y="61.81" width="1.12" height="16.36"/>
                  <rect class="cls-2" x="39.55" y="76.59" width="2.38" height="3.14"/>
                </g>
                <g>
                  <rect class="cls-2" x="44.35" y="61.81" width="1.12" height="16.36"/>
                  <rect class="cls-2" x="43.72" y="76.59" width="2.38" height="3.14"/>
                </g>
                <g>
                  <rect class="cls-2" x="48.52" y="61.81" width="1.12" height="16.36"/>
                  <rect class="cls-2" x="47.89" y="76.59" width="2.38" height="3.14"/>
                </g>
                <g>
                  <rect class="cls-2" x="52.68" y="61.81" width="1.12" height="16.36"/>
                  <rect class="cls-2" x="52.05" y="76.59" width="2.38" height="3.14"/>
                </g>
              </g>
            </g>
          </g>
          <g>
            <g>
              <g>
                <rect class="cls-2" x="59.37" y="25.16" width="1.12" height="5.11" transform="translate(87.64 -32.21) rotate(90)"/>
                <rect class="cls-2" x="56.18" y="26.14" width="2.38" height="3.14" transform="translate(85.09 -29.66) rotate(90)"/>
              </g>
              <g>
                <rect class="cls-2" x="57.37" y="31.32" width="5.11" height="1.12"/>
                <rect class="cls-2" x="55.8" y="30.69" width="3.14" height="2.38"/>
              </g>
              <g>
                <rect class="cls-2" x="57.37" y="35.49" width="5.11" height="1.12"/>
                <rect class="cls-2" x="55.8" y="34.86" width="3.14" height="2.38"/>
              </g>
              <g>
                <rect class="cls-2" x="57.37" y="39.65" width="5.11" height="1.12"/>
                <rect class="cls-2" x="55.8" y="39.03" width="3.14" height="2.38"/>
              </g>
              <g>
                <rect class="cls-2" x="57.37" y="43.82" width="5.11" height="1.12"/>
                <rect class="cls-2" x="55.8" y="43.19" width="3.14" height="2.38"/>
              </g>
              <g>
                <rect class="cls-2" x="59.37" y="45.99" width="1.12" height="5.11" transform="translate(108.48 -11.38) rotate(90)"/>
                <rect class="cls-2" x="56.18" y="46.98" width="2.38" height="3.14" transform="translate(105.92 -8.82) rotate(90)"/>
              </g>
            </g>
            <g>
              <g>
                <rect class="cls-2" x="25.16" y="25.16" width="1.12" height="5.11" transform="translate(53.44 1.99) rotate(90)"/>
                <rect class="cls-2" x="27.09" y="26.14" width="2.38" height="3.14" transform="translate(55.99 -.56) rotate(90)"/>
              </g>
              <g>
                <rect class="cls-2" x="23.16" y="31.32" width="5.11" height="1.12"/>
                <rect class="cls-2" x="26.71" y="30.69" width="3.14" height="2.38"/>
              </g>
              <g>
                <rect class="cls-2" x="23.16" y="35.49" width="5.11" height="1.12"/>
                <rect class="cls-2" x="26.71" y="34.86" width="3.14" height="2.38"/>
              </g>
              <g>
                <rect class="cls-2" x="23.16" y="39.65" width="5.11" height="1.12"/>
                <rect class="cls-2" x="26.71" y="39.03" width="3.14" height="2.38"/>
              </g>
              <g>
                <rect class="cls-2" x="23.16" y="43.82" width="5.11" height="1.12"/>
                <rect class="cls-2" x="26.71" y="43.19" width="3.14" height="2.38"/>
              </g>
              <g>
                <rect class="cls-2" x="25.16" y="45.99" width="1.12" height="5.11" transform="translate(74.27 22.83) rotate(90)"/>
                <rect class="cls-2" x="27.09" y="46.98" width="2.38" height="3.14" transform="translate(76.83 20.27) rotate(90)"/>
              </g>
            </g>
          </g>
        </g>
      </g>
    </g>
  </g>
</svg>