<?xml version="1.0" encoding="UTF-8"?>
<svg id="Layer_2" data-name="Layer 2" xmlns="http://www.w3.org/2000/svg" viewBox="0 0 105.39 78.82">
  <defs>
    <style>
      .cls-1 {
        fill: #fff;
      }

      .cls-2 {
        fill: #f1dc6b;
      }

      .cls-3 {
        fill: #2b91ad;
      }

      .cls-4 {
        fill: #dfc465;
      }

      .cls-5 {
        fill: #55abbe;
      }

      .cls-6 {
        fill: #32335f;
      }

      .cls-7 {
        fill: #3a3b74;
      }

      .cls-8 {
        fill: #83b7c2;
      }
    </style>
  </defs>
  <g id="OBJECTS">
    <g>
      <path class="cls-3" d="m39.32,76.01c-4.79,0-9.25-2.58-11.64-6.72l-13.37-23.16c-2.39-4.15-2.39-9.3,0-13.44l13.37-23.16c2.39-4.15,6.85-6.72,11.64-6.72h26.75c4.79,0,9.25,2.58,11.64,6.72l13.37,23.16c2.39,4.15,2.39,9.3,0,13.44l-13.37,23.16c-2.39,4.15-6.85,6.72-11.64,6.72h-26.75Z"/>
      <path class="cls-5" d="m87.37,43.98l-13.37,23.17c-1.63,2.82-4.67,4.57-7.93,4.57h-26.74c-3.26,0-6.3-1.75-7.93-4.57l-7.48-12.96-5.89-10.21c-1.63-2.82-1.63-6.32,0-9.15l13.37-23.16c1.63-2.83,4.67-4.58,7.93-4.58h26.74c1.41,0,2.79.33,4.02.94,1.61.78,2.99,2.04,3.91,3.64l13.37,23.16c1.63,2.83,1.63,6.33,0,9.15Z"/>
      <path class="cls-8" d="m70.09,8.03L23.91,54.19l-5.89-10.21c-1.63-2.82-1.63-6.32,0-9.15l13.37-23.16c1.63-2.83,4.67-4.58,7.93-4.58h26.74c1.41,0,2.79.33,4.02.94Z"/>
      <path class="cls-3" d="m52.69,65.24c-14.24,0-25.83-11.59-25.83-25.83s11.59-25.83,25.83-25.83,25.84,11.59,25.84,25.83-11.59,25.83-25.84,25.83Z"/>
      <path class="cls-2" d="m74.6,31.14c4.57,12.1-1.54,25.61-13.63,30.17-12.1,4.57-25.61-1.54-30.17-13.63-4.57-12.1,1.54-25.61,13.63-30.17,12.1-4.57,25.61,1.54,30.17,13.63Z"/>
      <path class="cls-4" d="m60.96,61.32c-9.23,3.49-19.28.75-25.54-6.12l33.08-33.08c2.63,2.4,4.76,5.45,6.1,9.01,4.57,12.1-1.54,25.6-13.64,30.18Z"/>
      <circle class="cls-7" cx="52.69" cy="39.41" r="15.06" transform="translate(1.81 81.13) rotate(-76.15)"/>
      <circle class="cls-1" cx="58.43" cy="33.67" r="4.91"/>
      <g>
        <path class="cls-1" d="m44.79,18.47l-.73-1.93c.51-.19,1.02-.37,1.53-.52l.6,1.97c-.47.14-.93.3-1.4.48Z"/>
        <path class="cls-1" d="m71.68,27.54c-.51-.83-1.09-1.62-1.7-2.37l1.59-1.31c.67.82,1.3,1.69,1.86,2.59l-1.75,1.09Zm-3.71-4.5c-.71-.66-1.47-1.28-2.26-1.85l1.2-1.68c.87.62,1.7,1.3,2.47,2.02l-1.41,1.51Zm-4.75-3.39c-.86-.46-1.75-.86-2.67-1.2l.73-1.93c.99.37,1.97.82,2.91,1.31l-.97,1.82Zm-5.46-2.05c-.95-.22-1.92-.38-2.89-.48l.2-2.05c1.06.1,2.12.28,3.15.52l-.47,2.01Zm-8.72-.28l-.34-2.04c1.05-.18,2.12-.28,3.18-.32l.07,2.06c-.97.03-1.95.13-2.91.29Z"/>
        <path class="cls-1" d="m73.63,31.5c-.18-.47-.37-.92-.57-1.37l1.88-.85c.22.49.43.98.62,1.49l-1.93.73Z"/>
      </g>
      <g>
        <polygon class="cls-7" points="16.38 8.09 13.29 8.09 13.29 0 21.38 0 21.38 3.1 16.38 3.1 16.38 8.09"/>
        <polygon class="cls-7" points="21.38 78.82 13.29 78.82 13.29 70.73 16.38 70.73 16.38 75.72 21.38 75.72 21.38 78.82"/>
        <polygon class="cls-7" points="92.1 8.09 89.01 8.09 89.01 3.1 84 3.1 84 0 92.1 0 92.1 8.09"/>
        <polygon class="cls-7" points="92.1 78.82 84 78.82 84 75.72 89.01 75.72 89.01 70.73 92.1 70.73 92.1 78.82"/>
      </g>
      <g>
        <g>
          <rect class="cls-7" x="36.09" y="38.38" width="1.55" height="2.06"/>
          <path class="cls-7" d="m34.05,40.44h-3.06v-2.06h3.06v2.06Zm-5.1,0h-3.06v-2.06h3.06v2.06Zm-5.1,0h-3.06v-2.06h3.06v2.06Zm-5.1,0h-3.06v-2.06h3.06v2.06Zm-5.1,0h-3.06v-2.06h3.06v2.06Zm-5.1,0h-3.06v-2.06h3.06v2.06Z"/>
          <rect class="cls-7" x="1.92" y="38.38" width="1.55" height="2.06"/>
          <path class="cls-7" d="m2.02,37.39c-1.11,0-2.02.9-2.02,2.02s.9,2.02,2.02,2.02,2.02-.9,2.02-2.02-.9-2.02-2.02-2.02Z"/>
        </g>
        <g>
          <rect class="cls-4" x="76.12" y="38.38" width="1.55" height="2.06"/>
          <path class="cls-4" d="m99.72,40.44h-3.31v-2.06h3.31v2.06Zm-5.51,0h-3.31v-2.06h3.31v2.06Zm-5.51,0h-3.31v-2.06h3.31v2.06Zm-5.51,0h-3.31v-2.06h3.31v2.06Z"/>
          <rect class="cls-4" x="101.92" y="38.38" width="1.55" height="2.06"/>
          <circle class="cls-4" cx="103.37" cy="39.41" r="2.02"/>
        </g>
      </g>
      <g>
        <g>
          <g>
            <polygon class="cls-8" points="23.42 29.86 15.57 29.86 13.3 25.47 9.73 25.47 9.73 23.41 14.55 23.41 16.82 27.79 23.42 27.79 23.42 29.86"/>
            <path class="cls-8" d="m9.83,22.42c-1.11,0-2.02.9-2.02,2.02s.9,2.02,2.02,2.02,2.02-.9,2.02-2.02-.9-2.02-2.02-2.02Z"/>
          </g>
          <g>
            <polygon class="cls-8" points="14.55 55.41 9.73 55.41 9.73 53.34 13.3 53.34 15.57 48.96 23.42 48.96 23.42 51.02 16.82 51.02 14.55 55.41"/>
            <path class="cls-8" d="m9.83,52.36c-1.11,0-2.02.9-2.02,2.02s.9,2.02,2.02,2.02,2.02-.9,2.02-2.02-.9-2.02-2.02-2.02Z"/>
          </g>
        </g>
        <g>
          <g>
            <polygon class="cls-5" points="89.82 29.86 81.97 29.86 81.97 27.79 88.56 27.79 90.83 23.41 95.65 23.41 95.65 25.47 92.09 25.47 89.82 29.86"/>
            <path class="cls-5" d="m95.55,26.46c1.11,0,2.02-.9,2.02-2.02s-.9-2.02-2.02-2.02-2.02.9-2.02,2.02.9,2.02,2.02,2.02Z"/>
          </g>
          <g>
            <polygon class="cls-5" points="95.65 55.41 90.83 55.41 88.56 51.02 81.97 51.02 81.97 48.96 89.82 48.96 92.09 53.34 95.65 53.34 95.65 55.41"/>
            <path class="cls-5" d="m95.55,56.39c1.11,0,2.02-.9,2.02-2.02s-.9-2.02-2.02-2.02-2.02.9-2.02,2.02.9,2.02,2.02,2.02Z"/>
          </g>
        </g>
      </g>
      <path class="cls-6" d="m67.75,39.41c0,8.32-6.73,15.05-15.05,15.05-1.33,0-2.63-.17-3.86-.5l18.42-18.42c.33,1.24.5,2.53.5,3.86Z"/>
    </g>
  </g>
</svg>