<?xml version="1.0" encoding="UTF-8"?>
<svg id="Layer_2" data-name="Layer 2" xmlns="http://www.w3.org/2000/svg" viewBox="0 0 86.83 85.69">
  <defs>
    <style>
      .cls-1 {
        fill: #efe0a8;
      }

      .cls-2 {
        fill: #fff;
      }

      .cls-3 {
        fill: #f1dc6b;
      }

      .cls-4 {
        fill: none;
        opacity: .26;
      }

      .cls-5 {
        fill: #7db5c1;
      }

      .cls-6 {
        fill: #2b91ad;
      }

      .cls-7 {
        fill: #dfc465;
      }

      .cls-8 {
        fill: #55abbe;
      }

      .cls-9 {
        fill: #32335f;
      }

      .cls-10 {
        fill: #3a3b74;
      }
    </style>
  </defs>
  <g id="OBJECTS">
    <g>
      <path class="cls-8" d="m74.29,24.01v33.5c0,3.6-1.17,7.1-3.34,9.97l-11.07,14.67c-1.69,2.23-4.32,3.55-7.12,3.55h-18.69c-2.8,0-5.43-1.31-7.12-3.55l-11.07-14.67c-2.17-2.87-3.34-6.37-3.34-9.97V24.01h61.76Z"/>
      <path class="cls-6" d="m59.13,58.66h-9.78v20.81c0,3.43-2.78,6.21-6.21,6.21h-9.08c-2.8,0-5.43-1.31-7.12-3.55l-11.07-14.67c-2.17-2.87-3.34-6.37-3.34-9.97V24.01h38.18l8.42,34.66Z"/>
      <ellipse class="cls-2" cx="43.42" cy="37.49" rx="31.83" ry="10.49"/>
      <g>
        <polygon class="cls-3" points="17.86 56.78 15.8 56.78 15.8 50.33 20.74 48.14 20.74 37.25 22.8 37.25 22.8 49.49 17.86 51.67 17.86 56.78"/>
        <path class="cls-3" d="m14.81,56.68c0,1.11.9,2.02,2.02,2.02s2.02-.9,2.02-2.02-.9-2.02-2.02-2.02-2.02.9-2.02,2.02Z"/>
      </g>
      <g>
        <rect class="cls-3" x="26.73" y="40.23" width="2.06" height="9.9"/>
        <path class="cls-3" d="m25.74,50.03c0,1.11.9,2.02,2.02,2.02s2.02-.9,2.02-2.02-.9-2.02-2.02-2.02-2.02.9-2.02,2.02Z"/>
      </g>
      <g>
        <path class="cls-10" d="m71.84,48.04c0,.61-.49,1.1-1.1,1.1s-1.1-.49-1.1-1.1.49-1.1,1.1-1.1,1.1.49,1.1,1.1Z"/>
        <path class="cls-10" d="m71.84,54.35c0,.61-.49,1.1-1.1,1.1s-1.1-.49-1.1-1.1.49-1.1,1.1-1.1,1.1.49,1.1,1.1Z"/>
        <path class="cls-10" d="m71.84,60.66c0,.61-.49,1.1-1.1,1.1s-1.1-.49-1.1-1.1.49-1.1,1.1-1.1,1.1.49,1.1,1.1Z"/>
      </g>
      <g>
        <path class="cls-8" d="m32.98,77.76c-3.6,0-6.52-2.93-6.52-6.52s2.93-6.52,6.52-6.52h20.88c3.6,0,6.52,2.93,6.52,6.52s-2.93,6.52-6.52,6.52h-20.88Z"/>
        <path class="cls-10" d="m53.85,75.69h-20.88c-2.46,0-4.46-2-4.46-4.46h0c0-2.46,2-4.46,4.46-4.46h20.88c2.46,0,4.46,2,4.46,4.46h0c0,2.46-2,4.46-4.46,4.46Z"/>
        <g>
          <path class="cls-3" d="m27.49,71.24h-2.06c0-.6.07-1.2.21-1.78l2,.48c-.1.42-.15.86-.15,1.29Z"/>
          <path class="cls-3" d="m28.53,68.02l-1.67-1.21c.58-.8,1.29-1.47,2.13-1.99l1.09,1.75c-.61.38-1.13.86-1.55,1.45Zm3.53-2.2l-.35-2.04c.41-.07.84-.11,1.26-.11h1.43v2.06h-1.43c-.31,0-.62.03-.92.08Z"/>
          <rect class="cls-3" x="36.95" y="63.68" width="1.55" height="2.06"/>
        </g>
        <g>
          <rect class="cls-2" x="33.21" y="70.2" width="1.55" height="2.06"/>
          <path class="cls-2" d="m48.61,72.27h-3.46v-2.06h3.46v2.06Zm-6.93,0h-3.46v-2.06h3.46v2.06Z"/>
          <rect class="cls-2" x="52.08" y="70.2" width="1.55" height="2.06"/>
        </g>
      </g>
      <path class="cls-3" d="m77.45,26.19c0-14.46-11.72-26.19-26.19-26.19h-15.36C21.44,0,9.71,11.72,9.71,26.19v2.84c0,.07.02.14.02.21,0,.11-.02.22-.02.33,0,7.34,15.16,13.29,33.87,13.29s33.87-5.95,33.87-13.29c0-.11-.01-.22-.02-.33,0-.07.02-.14.02-.21v-2.84Z"/>
      <path class="cls-7" d="m43.58,40.7c-18.68,0-31.7-5.86-31.7-11.12l.03-.33v-.22s-.03-.1-.03-.1v-2.74c0-13.24,10.77-24.02,24.02-24.02h15.36c13.24,0,24.02,10.77,24.02,24.02v2.74l-.02.31.02.31c0,5.29-13.01,11.15-31.69,11.15Z"/>
      <path class="cls-9" d="m75.25,29.56c0,5.12-9.86,9.43-23.31,10.73-2.71.27-5.57.41-8.53.41-17.58,0-31.83-4.99-31.83-11.14s14.25-11.14,31.83-11.14c10.61,0,20.01,1.82,25.79,4.61,3.8,1.84,6.05,4.1,6.05,6.53Z"/>
      <path class="cls-10" d="m75.25,29.56c0,5.12-9.86,9.43-23.31,10.73l17.26-17.26c3.8,1.84,6.05,4.1,6.05,6.53Z"/>
      <g>
        <path class="cls-2" d="m62.23,23.58c0-2.6-1.6-4.82-3.86-5.75.24-.59.38-1.23.38-1.91,0-2.77-2.24-5.01-5.01-5.01-.5,0-.98.08-1.44.21-.32-1.56-1.7-2.73-3.35-2.73-1.89,0-3.42,1.53-3.42,3.42v15.56c0,3.43,2.78,6.21,6.21,6.21,2.64,0,4.9-1.65,5.79-3.98,2.7-.68,4.69-3.11,4.69-6.02Z"/>
        <path class="cls-2" d="m24.8,23.58c0-2.6,1.6-4.82,3.86-5.75-.24-.59-.38-1.23-.38-1.91,0-2.77,2.24-5.01,5.01-5.01.5,0,.98.08,1.44.21.32-1.56,1.7-2.73,3.35-2.73,1.89,0,3.42,1.53,3.42,3.42v15.56c0,3.43-2.78,6.21-6.21,6.21-2.64,0-4.9-1.65-5.79-3.98-2.7-.68-4.69-3.11-4.69-6.02Z"/>
      </g>
      <g>
        <rect class="cls-6" x="36.51" y="14.43" width="14.01" height="14.01"/>
        <polygon class="cls-5" points="46.52 14.43 36.51 24.44 36.51 14.43 46.52 14.43"/>
        <rect class="cls-2" x="38.5" y="16.42" width="10.04" height="10.04"/>
        <rect class="cls-10" x="39.94" y="17.85" width="7.16" height="7.16"/>
      </g>
      <g>
        <g>
          <g>
            <rect class="cls-3" x="51.81" y="14.93" width=".56" height="2.56" transform="translate(68.3 -35.89) rotate(90)"/>
            <rect class="cls-3" x="50.22" y="15.42" width="1.19" height="1.57" transform="translate(67.02 -34.6) rotate(90)"/>
          </g>
          <g>
            <rect class="cls-3" x="50.81" y="18.02" width="2.56" height=".56"/>
            <rect class="cls-3" x="50.03" y="17.7" width="1.57" height="1.19"/>
          </g>
          <g>
            <rect class="cls-3" x="50.81" y="20.11" width="2.56" height=".56"/>
            <rect class="cls-3" x="50.03" y="19.79" width="1.57" height="1.19"/>
          </g>
          <g>
            <rect class="cls-3" x="50.81" y="22.2" width="2.56" height=".56"/>
            <rect class="cls-3" x="50.03" y="21.88" width="1.57" height="1.19"/>
          </g>
          <g>
            <rect class="cls-3" x="50.81" y="24.29" width="2.56" height=".56"/>
            <rect class="cls-3" x="50.03" y="23.97" width="1.57" height="1.19"/>
          </g>
          <g>
            <rect class="cls-3" x="51.81" y="25.38" width=".56" height="2.56" transform="translate(78.75 -25.44) rotate(90)"/>
            <rect class="cls-3" x="50.22" y="25.87" width="1.19" height="1.57" transform="translate(77.47 -24.16) rotate(90)"/>
          </g>
        </g>
        <g>
          <g>
            <rect class="cls-3" x="34.66" y="14.93" width=".56" height="2.56" transform="translate(51.15 -18.73) rotate(90)"/>
            <rect class="cls-3" x="35.63" y="15.42" width="1.19" height="1.57" transform="translate(52.43 -20.01) rotate(90)"/>
          </g>
          <g>
            <rect class="cls-3" x="33.66" y="18.02" width="2.56" height=".56"/>
            <rect class="cls-3" x="35.44" y="17.7" width="1.57" height="1.19"/>
          </g>
          <g>
            <rect class="cls-3" x="33.66" y="20.11" width="2.56" height=".56"/>
            <rect class="cls-3" x="35.44" y="19.79" width="1.57" height="1.19"/>
          </g>
          <g>
            <rect class="cls-3" x="33.66" y="22.2" width="2.56" height=".56"/>
            <rect class="cls-3" x="35.44" y="21.88" width="1.57" height="1.19"/>
          </g>
          <g>
            <rect class="cls-3" x="33.66" y="24.29" width="2.56" height=".56"/>
            <rect class="cls-3" x="35.44" y="23.97" width="1.57" height="1.19"/>
          </g>
          <g>
            <rect class="cls-3" x="34.66" y="25.38" width=".56" height="2.56" transform="translate(61.6 -8.28) rotate(90)"/>
            <rect class="cls-3" x="35.63" y="25.87" width="1.19" height="1.57" transform="translate(62.88 -9.57) rotate(90)"/>
          </g>
        </g>
      </g>
      <g>
        <path class="cls-10" d="m52.74,3.25c-.49-.03-.99-.05-1.48-.05V1.14c.54,0,1.08.02,1.61.05l-.13,2.06Z"/>
        <path class="cls-10" d="m70.28,13.29c-.49-.72-1.02-1.42-1.59-2.07l1.56-1.35c.62.72,1.2,1.48,1.73,2.26l-1.7,1.16Zm-3.41-3.96c-.64-.59-1.32-1.15-2.01-1.67l1.22-1.66c.76.56,1.5,1.17,2.19,1.81l-1.4,1.51Zm-4.2-3.09c-.76-.43-1.54-.83-2.34-1.17l.82-1.89c.87.37,1.72.8,2.55,1.28l-1.03,1.79Zm-4.79-2.07c-.83-.25-1.68-.45-2.54-.61l.36-2.03c.94.17,1.87.39,2.77.66l-.6,1.97Z"/>
        <path class="cls-10" d="m72.27,16.86c-.2-.45-.42-.9-.65-1.33l1.83-.96c.25.48.48.96.7,1.45l-1.88.84Z"/>
      </g>
      <g class="cls-4">
        <path class="cls-1" d="m50.01,42.63c-2.07.15-4.23.24-6.43.24-18.7,0-33.87-5.95-33.87-13.3,0-.1.02-.22.02-.33,0-.07-.02-.13-.02-.21v-2.85C9.71,11.72,21.44,0,35.9,0h12.86C34.3,0,22.57,11.72,22.57,26.18v2.85c0,.07.02.13.02.21,0,.11-.02.23-.02.33,0,6.48,11.8,11.87,27.43,13.06Z"/>
      </g>
      <polygon class="cls-7" points="43.85 21.04 43.86 19.8 42.54 21.82 43.19 21.83 43.18 23.07 44.5 21.04 43.85 21.04"/>
      <g>
        <polygon class="cls-10" points="66.1 61.14 64.03 61.14 64.03 51.95 61.1 49.64 61.1 35.97 63.16 35.97 63.16 48.63 66.1 50.95 66.1 61.14"/>
        <path class="cls-10" d="m63.05,61.04c0,1.11.9,2.02,2.02,2.02s2.02-.9,2.02-2.02-.9-2.02-2.02-2.02-2.02.9-2.02,2.02Z"/>
      </g>
      <g>
        <rect class="cls-10" x="6.02" y="43.87" width="2.06" height="5.19"/>
        <rect class="cls-10" y="40.88" width="2.06" height="11.18"/>
        <rect class="cls-10" x="78.75" y="43.87" width="2.06" height="5.19"/>
        <rect class="cls-10" x="84.77" y="40.88" width="2.06" height="11.18"/>
      </g>
    </g>
  </g>
</svg>