<?xml version="1.0" encoding="UTF-8"?>
<svg id="Layer_2" data-name="Layer 2" xmlns="http://www.w3.org/2000/svg" viewBox="0 0 101.19 85.87">
  <defs>
    <style>
      .cls-1 {
        fill: #fff;
      }

      .cls-2 {
        fill: #f1dc6b;
      }

      .cls-3 {
        fill: #2b91ad;
      }

      .cls-4 {
        fill: #55abbe;
      }

      .cls-5 {
        fill: #3a3b74;
      }

      .cls-6 {
        fill: #83b7c2;
      }
    </style>
  </defs>
  <g id="OBJECTS">
    <g>
      <rect class="cls-4" x="21.87" y="10.29" width="23.33" height="42.11"/>
      <circle class="cls-3" cx="28.39" cy="52.4" r="16.82"/>
      <circle class="cls-4" cx="23" cy="14.6" r="13.57" transform="translate(-3.82 9.82) rotate(-22.3)"/>
      <circle class="cls-4" cx="16.82" cy="42.15" r="16.82" transform="translate(-27.47 52.03) rotate(-80.83)"/>
      <path class="cls-3" d="m16.82,55.87c-7.57,0-13.72-6.15-13.72-13.72s6.16-13.72,13.72-13.72,13.72,6.16,13.72,13.72-6.16,13.72-13.72,13.72Z"/>
      <path class="cls-2" d="m16.82,53.8c-6.43,0-11.66-5.23-11.66-11.66s5.23-11.66,11.66-11.66,11.66,5.23,11.66,11.66-5.23,11.66-11.66,11.66Z"/>
      <path class="cls-1" d="m16.82,50c-4.33,0-7.85-3.52-7.85-7.85s3.52-7.85,7.85-7.85,7.85,3.52,7.85,7.85-3.52,7.85-7.85,7.85Z"/>
      <circle class="cls-6" cx="14.82" cy="25.33" r="13.56"/>
      <circle class="cls-6" cx="35.95" cy="10.29" r="9.25"/>
      <g>
        <path class="cls-2" d="m5.41,17.06l-1.55-1.36c.36-.41.76-.81,1.17-1.19l1.39,1.53c-.35.32-.69.66-1,1.02Z"/>
        <path class="cls-2" d="m22.25,15.23c-.77-.57-1.6-1.04-2.48-1.42l.81-1.9c1.02.44,1.99,1,2.89,1.66l-1.22,1.66Zm-13.52-.86l-1.01-1.8c.97-.54,2-.97,3.07-1.28l.57,1.98c-.92.26-1.81.63-2.64,1.1Zm8.31-1.38c-.94-.17-1.91-.22-2.86-.18l-.1-2.06c1.1-.05,2.23.02,3.32.21l-.36,2.03Z"/>
        <path class="cls-2" d="m25.22,18.32c-.27-.39-.56-.78-.87-1.14l1.57-1.34c.36.42.7.86,1.01,1.32l-1.71,1.15Z"/>
      </g>
      <path class="cls-5" d="m16.82,59.99c-3.83,0-7.48-1.19-10.55-3.45l1.22-1.66c2.72,2,5.95,3.05,9.33,3.05v2.06Z"/>
      <path class="cls-5" d="m31.53,36.45c-.25-.65-.55-1.31-.94-2.01-2.79-4.98-8.07-8.08-13.78-8.08v-2.06c6.45,0,12.42,3.5,15.58,9.14.44.79.79,1.54,1.07,2.29l-1.93.73Z"/>
      <path class="cls-5" d="m28.92,29.9l-1.95-.69c.68-1.91,1.91-3.55,3.56-4.74l1.2,1.68c-1.31.94-2.29,2.24-2.82,3.75Z"/>
      <path class="cls-5" d="m35.95,20.57v-2.06c4.53,0,8.22-3.69,8.22-8.22s-3.69-8.22-8.22-8.22V0c5.67,0,10.28,4.61,10.28,10.28s-4.61,10.28-10.28,10.28Z"/>
      <g>
        <path class="cls-5" d="m12.76,39.78C5.62,38.77.23,32.56.23,25.33h2.06c0,6.21,4.63,11.54,10.76,12.41l-.29,2.04Z"/>
        <path class="cls-5" d="m12.98,36.72c1.11.09,1.94,1.07,1.85,2.18-.09,1.11-1.07,1.94-2.18,1.85-1.11-.09-1.94-1.07-1.84-2.18s1.07-1.94,2.18-1.85Z"/>
      </g>
      <path class="cls-5" d="m29.61,3.95c-1.97-1.23-4.25-1.88-6.61-1.88V0c2.75,0,5.41.76,7.71,2.2l-1.1,1.75Z"/>
      <path class="cls-5" d="m27.73,10.29h-2.06C25.67,4.62,30.28,0,35.95,0v2.06c-4.53,0-8.22,3.69-8.22,8.22Z"/>
      <path class="cls-5" d="m28.38,70.25c-7.32,0-14.01-4.59-16.65-11.42l1.92-.74c2.34,6.04,8.26,10.1,14.73,10.1,3.63,0,7.17-1.26,9.97-3.55l1.3,1.6c-3.17,2.59-7.17,4.01-11.28,4.01Z"/>
      <g>
        <path class="cls-2" d="m46.23,71.74h-2.06v-19.35c0-8.7-7.08-15.78-15.78-15.78-.58,0-2.09.04-3.46.39l-.51-2c1.54-.39,3.15-.45,3.98-.45,9.84,0,17.85,8.01,17.85,17.85v19.35Z"/>
        <path class="cls-2" d="m47.22,71.64c0,1.11-.9,2.02-2.02,2.02s-2.02-.9-2.02-2.02.9-2.02,2.02-2.02,2.02.9,2.02,2.02Z"/>
      </g>
      <rect class="cls-5" x="44.17" y="26.6" width="2.06" height="9.49"/>
      <g>
        <polygon class="cls-5" points="40.04 82.92 37.97 82.92 37.97 78.62 29.42 74.66 29.41 69.21 31.48 69.21 31.48 73.34 40.04 77.3 40.04 82.92"/>
        <circle class="cls-5" cx="39.01" cy="82.82" r="2.02"/>
      </g>
      <g>
        <path class="cls-1" d="m33.79,47.67l-1.96-.64c.15-.46.28-.93.38-1.4l2.01.45c-.12.53-.27,1.07-.44,1.59Z"/>
        <path class="cls-1" d="m27.28,56.61l-1.21-1.67c.67-.48,1.3-1.03,1.89-1.61l1.46,1.46c-.66.66-1.38,1.27-2.14,1.82Zm3.96-3.95l-1.67-1.22c.49-.67.93-1.38,1.3-2.11l1.84.94c-.42.83-.92,1.63-1.47,2.39Z"/>
        <path class="cls-1" d="m23.38,58.75l-.76-1.92c.46-.18.9-.38,1.33-.6l.93,1.84c-.48.24-.98.47-1.5.67Z"/>
      </g>
      <rect class="cls-4" x="55.99" y="10.29" width="23.33" height="42.11"/>
      <circle class="cls-3" cx="72.81" cy="52.4" r="16.82"/>
      <circle class="cls-4" cx="78.19" cy="14.6" r="13.57" transform="translate(12.58 59.57) rotate(-45)"/>
      <circle class="cls-4" cx="84.38" cy="42.15" r="16.82" transform="translate(-7.39 20.36) rotate(-13.19)"/>
      <circle class="cls-6" cx="86.37" cy="25.33" r="13.56"/>
      <path class="cls-3" d="m86.37,35.8c-5.77,0-10.47-4.7-10.47-10.47s4.7-10.47,10.47-10.47,10.47,4.7,10.47,10.47-4.7,10.47-10.47,10.47Z"/>
      <path class="cls-5" d="m86.37,33.74c-4.63,0-8.41-3.77-8.41-8.41s3.77-8.4,8.41-8.4,8.41,3.77,8.41,8.4-3.77,8.41-8.41,8.41Z"/>
      <circle class="cls-6" cx="65.24" cy="10.29" r="9.25"/>
      <g>
        <path class="cls-2" d="m95.79,17.06c-.31-.36-.65-.7-1-1.02l1.39-1.53c.41.37.8.77,1.17,1.19l-1.55,1.36Z"/>
        <path class="cls-2" d="m78.95,15.23l-1.22-1.66c.9-.66,1.87-1.22,2.89-1.66l.81,1.9c-.87.38-1.71.85-2.48,1.42Zm13.52-.86c-.83-.46-1.72-.83-2.64-1.1l.57-1.98c1.07.31,2.1.74,3.07,1.28l-1.01,1.8Zm-8.31-1.38l-.36-2.03c1.09-.19,2.22-.26,3.32-.21l-.1,2.06c-.94-.05-1.92.01-2.86.18Z"/>
        <path class="cls-2" d="m75.98,18.33l-1.71-1.16c.31-.46.65-.91,1.01-1.32l1.57,1.34c-.31.36-.6.74-.87,1.14Z"/>
      </g>
      <path class="cls-5" d="m69.66,36.45l-1.93-.73c.28-.75.63-1.49,1.06-2.28,3.16-5.64,9.13-9.15,15.58-9.15v2.06c-5.71,0-10.99,3.1-13.78,8.09-.38.69-.69,1.35-.94,2Z"/>
      <path class="cls-5" d="m72.27,29.9c-.53-1.51-1.51-2.81-2.82-3.75l1.2-1.68c1.66,1.19,2.89,2.83,3.56,4.74l-1.95.69Z"/>
      <g>
        <path class="cls-5" d="m63.12,20.35c-4.73-.99-8.16-5.22-8.16-10.06C54.96,4.62,59.57,0,65.24,0v2.06c-4.53,0-8.22,3.69-8.22,8.22,0,3.87,2.74,7.25,6.52,8.05l-.42,2.02Z"/>
        <path class="cls-5" d="m63.01,21.32c1.11.12,2.1-.67,2.23-1.78.12-1.11-.67-2.1-1.78-2.23-1.11-.12-2.1.67-2.23,1.78-.12,1.11.67,2.1,1.78,2.23Z"/>
      </g>
      <path class="cls-5" d="m86.37,39.93v-2.06c6.91,0,12.53-5.62,12.53-12.53h2.06c0,8.05-6.55,14.6-14.6,14.6Z"/>
      <path class="cls-5" d="m71.58,3.95l-1.1-1.75c2.3-1.44,4.96-2.2,7.71-2.2v2.06c-2.36,0-4.64.65-6.61,1.88Z"/>
      <path class="cls-5" d="m75.53,10.29h-2.06c0-4.53-3.69-8.22-8.22-8.22V0c5.67,0,10.28,4.61,10.28,10.28Z"/>
      <g>
        <path class="cls-5" d="m57.02,67.42h-2.06v-15.02c0-9.84,8.01-17.85,17.85-17.85v2.06c-8.7,0-15.78,7.08-15.78,15.78v15.02Z"/>
        <path class="cls-5" d="m53.97,67.32c0,1.11.9,2.02,2.02,2.02s2.02-.9,2.02-2.02-.9-2.02-2.02-2.02-2.02.9-2.02,2.02Z"/>
      </g>
      <g>
        <rect class="cls-5" x="54.96" y="21.43" width="2.06" height="1.55"/>
        <rect class="cls-5" x="54.96" y="25.51" width="2.06" height="2.53"/>
        <rect class="cls-5" x="54.96" y="30.56" width="2.06" height="1.55"/>
      </g>
      <g>
        <path class="cls-5" d="m60.12,83.95h-2.06v-9.33l11.66-2.92v-3.78s1.17.14,1.17.14c.63.08,1.28.12,1.94.12,6.47,0,12.39-4.06,14.73-10.1l1.92.74c-2.64,6.83-9.34,11.42-16.65,11.42-.35,0-.69-.01-1.04-.03v3.1s-11.66,2.92-11.66,2.92v7.72Z"/>
        <circle class="cls-5" cx="59.08" cy="83.85" r="2.02"/>
      </g>
      <g>
        <path class="cls-2" d="m84.38,59.99c-1.48,0-2.96-.18-4.39-.54l.51-2c1.26.32,2.57.48,3.88.48,3.16,0,6.21-.93,8.82-2.69l1.16,1.71c-2.95,1.99-6.4,3.05-9.98,3.05Z"/>
        <path class="cls-2" d="m79.76,60.39c-1.07-.32-1.67-1.45-1.34-2.52.32-1.07,1.45-1.67,2.52-1.34,1.07.32,1.67,1.45,1.34,2.52s-1.45,1.67-2.52,1.34Z"/>
      </g>
      <path class="cls-1" d="m86.37,29.74c-2.43,0-4.41-1.98-4.41-4.41s1.98-4.41,4.41-4.41,4.41,1.98,4.41,4.41-1.98,4.41-4.41,4.41Z"/>
    </g>
  </g>
</svg>