<?xml version="1.0" encoding="UTF-8"?>
<svg id="Layer_2" data-name="Layer 2" xmlns="http://www.w3.org/2000/svg" viewBox="0 0 86.01 85.92">
  <defs>
    <style>
      .cls-1 {
        fill: #fff;
      }

      .cls-2 {
        fill: #f1dc6b;
      }

      .cls-3 {
        fill: #ece0f0;
      }

      .cls-4 {
        fill: #7db5c1;
      }

      .cls-5 {
        fill: #2b91ad;
      }

      .cls-6 {
        fill: #dfc465;
      }

      .cls-7 {
        fill: #55abbe;
      }

      .cls-8 {
        fill: #3a3b74;
      }

      .cls-9 {
        fill: #83b7c2;
      }
    </style>
  </defs>
  <g id="OBJECTS">
    <g>
      <g>
        <path class="cls-5" d="m84.98,6.52v4.24c0-2.19-1.77-3.96-3.96-3.96H3.96c-2.19,0-3.96,1.77-3.96,3.96v-4.24c0-2.19,1.77-3.96,3.96-3.96h77.07c2.19,0,3.96,1.77,3.96,3.96Z"/>
        <path class="cls-5" d="m6.81,69.45h25.44v1.31c0,2.46-1.99,4.45-4.45,4.45H11.26c-2.46,0-4.45-1.99-4.45-4.45v-1.31h0Z"/>
        <path class="cls-7" d="m3.95,6.81h77.08c2.18,0,3.95,1.77,3.95,3.95v56.72c0,2.18-1.77,3.95-3.95,3.95H3.95c-2.18,0-3.95-1.77-3.95-3.95V10.76c0-2.18,1.77-3.95,3.95-3.95Z"/>
        <rect class="cls-7" y="82.35" width="84.98" height="3.57" rx=".93" ry=".93"/>
        <path class="cls-4" d="m45.24,6.81L0,52.06V10.76c0-2.19,1.77-3.96,3.96-3.96h41.28Z"/>
        <rect class="cls-5" x="19.23" y="-.12" width="46.51" height="71.36" transform="translate(78.05 -6.93) rotate(90)"/>
        <rect class="cls-3" x="9.06" y="14.56" width="66.85" height="42.01"/>
        <polygon class="cls-1" points="75.92 14.56 75.92 18.51 37.86 56.57 9.06 56.57 9.06 14.56 75.92 14.56"/>
        <g>
          <polygon class="cls-9" points="59.24 30.7 55.23 30.7 52.22 8.29 62.25 8.29 59.24 30.7"/>
          <g>
            <path class="cls-9" d="m46.34,45.29l-4.07-9.62,14.65-7.16,1.54,3.14-11.68,5.71,4.14,9.79h0c-1.78.75-3.83-.08-4.58-1.86Z"/>
            <path class="cls-9" d="m68.13,45.29l4.07-9.62-14.65-7.16-1.54,3.14,11.68,5.71-4.14,9.79h0c1.78.75,3.83-.08,4.58-1.86Z"/>
          </g>
          <g>
            <circle class="cls-8" cx="57.23" cy="29.41" r="6.89"/>
            <path class="cls-6" d="m57.23,33.69c-2.36,0-4.28-1.92-4.28-4.28s1.92-4.28,4.28-4.28,4.28,1.92,4.28,4.28-1.92,4.28-4.28,4.28Z"/>
            <path class="cls-2" d="m60.12,29.41c0,1.59-1.29,2.89-2.89,2.89s-2.89-1.29-2.89-2.89,1.29-2.89,2.89-2.89,2.89,1.29,2.89,2.89Z"/>
          </g>
          <g>
            <path class="cls-2" d="m57.23,16.57c-4.57,0-8.29-3.72-8.29-8.29S52.67,0,57.23,0s8.29,3.72,8.29,8.29-3.72,8.29-8.29,8.29Z"/>
            <path class="cls-8" d="m64.12,8.29c0,3.8-3.08,6.89-6.89,6.89s-6.89-3.08-6.89-6.89,3.08-6.89,6.89-6.89,6.89,3.08,6.89,6.89Z"/>
            <path class="cls-2" d="m57.23,12.57c-2.36,0-4.28-1.92-4.28-4.28s1.92-4.28,4.28-4.28,4.28,1.92,4.28,4.28-1.92,4.28-4.28,4.28Z"/>
            <path class="cls-1" d="m60.12,8.29c0,1.59-1.29,2.89-2.89,2.89s-2.89-1.29-2.89-2.89,1.29-2.89,2.89-2.89,2.89,1.29,2.89,2.89Z"/>
          </g>
        </g>
        <g>
          <rect class="cls-8" x="83.95" y="10.32" width="2.06" height="12.49"/>
          <g>
            <rect class="cls-8" x="83.95" y="8.78" width="2.06" height="1.55"/>
            <path class="cls-8" d="m83.89,5.91c-.16-.74-.61-1.41-1.25-1.83l1.14-1.72c1.1.73,1.86,1.84,2.13,3.13l-2.02.43Zm-3.63-2.31h-3.08V1.53h3.08v2.06Z"/>
            <rect class="cls-8" x="72.53" y="1.53" width="1.55" height="2.06"/>
          </g>
        </g>
        <rect class="cls-8" x="6.81" y="62.26" width="13.15" height="6.01"/>
        <rect class="cls-2" x="14.51" y="19.23" width="17.74" height="10.47" rx="1.78" ry="1.78"/>
        <rect class="cls-8" x="14.51" y="33.85" width="8.11" height="2.06"/>
        <rect class="cls-8" x="28.26" y="39.94" width="7.61" height="2.06"/>
        <g>
          <rect class="cls-8" x="14.76" y="39.94" width="1.55" height="2.06"/>
          <rect class="cls-8" x="18.79" y="39.94" width="2.48" height="2.06"/>
          <rect class="cls-8" x="23.75" y="39.94" width="1.55" height="2.06"/>
        </g>
        <g>
          <rect class="cls-8" x="14.51" y="46.02" width="1.55" height="2.06"/>
          <path class="cls-8" d="m34.37,48.09h-3.05v-2.06h3.05v2.06Zm-6.1,0h-3.05v-2.06h3.05v2.06Zm-6.1,0h-3.05v-2.06h3.05v2.06Z"/>
          <rect class="cls-8" x="37.42" y="46.02" width="1.55" height="2.06"/>
        </g>
        <g>
          <rect class="cls-8" x="26.71" y="33.85" width="1.55" height="2.06"/>
          <rect class="cls-8" x="31.5" y="33.85" width="1.55" height="2.06"/>
        </g>
        <g>
          <polygon class="cls-2" points="11.85 77.2 12.5 77.2 12.5 80.78 11.85 80.78 11.85 84.02 14.31 84.02 14.31 80.78 13.66 80.78 13.66 77.2 14.31 77.2 14.31 73.96 11.85 73.96 11.85 77.2"/>
          <polygon class="cls-2" points="16.15 77.2 16.8 77.2 16.8 75.22 16.8 78.06 16.8 80.78 16.15 80.78 16.15 84.02 18.61 84.02 18.61 80.78 17.96 80.78 17.96 78.06 17.96 75.22 17.96 77.2 18.61 77.2 18.61 73.96 16.15 73.96 16.15 77.2"/>
          <polygon class="cls-2" points="20.45 77.2 21.1 77.2 21.1 75.22 21.1 78.06 21.1 80.78 20.45 80.78 20.45 84.02 22.91 84.02 22.91 80.78 22.26 80.78 22.26 78.06 22.26 75.22 22.26 77.2 22.91 77.2 22.91 73.96 20.45 73.96 20.45 77.2"/>
          <polygon class="cls-2" points="24.76 77.2 25.4 77.2 25.4 75.22 25.4 78.06 25.4 80.78 24.76 80.78 24.76 84.02 27.21 84.02 27.21 80.78 26.56 80.78 26.56 78.06 26.56 75.22 26.56 77.2 27.21 77.2 27.21 73.96 24.76 73.96 24.76 77.2"/>
        </g>
        <g>
          <rect class="cls-8" x="37.98" y="81.32" width="1.55" height="2.06"/>
          <path class="cls-8" d="m60.48,83.39h-3.49v-2.06h3.49v2.06Zm-6.98,0h-3.49v-2.06h3.49v2.06Zm-6.98,0h-3.49v-2.06h3.49v2.06Z"/>
          <rect class="cls-8" x="63.97" y="81.32" width="1.55" height="2.06"/>
        </g>
        <g>
          <path class="cls-1" d="m60.45,65.27c0,.79-.64,1.42-1.42,1.42s-1.42-.64-1.42-1.42.64-1.42,1.42-1.42,1.42.64,1.42,1.42Z"/>
          <path class="cls-1" d="m66.95,65.27c0,.79-.64,1.42-1.42,1.42s-1.42-.64-1.42-1.42.64-1.42,1.42-1.42,1.42.64,1.42,1.42Z"/>
          <path class="cls-2" d="m73.44,65.27c0,.79-.64,1.42-1.42,1.42s-1.42-.64-1.42-1.42.64-1.42,1.42-1.42,1.42.64,1.42,1.42Z"/>
        </g>
        <g>
          <polygon class="cls-9" points="57.23 53.07 53.47 50.9 53.47 46.59 57.23 48.76 57.23 53.07"/>
          <polygon class="cls-2" points="61 50.9 57.23 53.07 57.23 48.76 61 46.59 61 50.9"/>
          <polygon class="cls-8" points="57.23 48.76 53.47 46.59 57.21 44.43 60.97 46.6 57.23 48.76"/>
        </g>
      </g>
      <g>
        <rect class="cls-2" x="8.03" y="34.75" width="2.06" height="1.55"/>
        <path class="cls-2" d="m10.1,31.95h-2.06v-2.79h2.06v2.79Zm0-5.59h-2.06v-2.79h2.06v2.79Z"/>
        <rect class="cls-2" x="8.03" y="19.23" width="2.06" height="1.55"/>
      </g>
    </g>
  </g>
</svg>