<?xml version="1.0" encoding="UTF-8"?>
<svg id="Layer_2" data-name="Layer 2" xmlns="http://www.w3.org/2000/svg" viewBox="0 0 77.99 92.76">
  <defs>
    <style>
      .cls-1 {
        fill: #fff;
      }

      .cls-2 {
        fill: #f1dc6b;
      }

      .cls-3 {
        fill: #2b91ad;
      }

      .cls-4 {
        fill: #dfc465;
      }

      .cls-5 {
        fill: #55abbe;
      }

      .cls-6 {
        fill: #32335f;
      }

      .cls-7 {
        fill: #3a3b74;
      }

      .cls-8 {
        fill: #83b7c2;
      }
    </style>
  </defs>
  <g id="OBJECTS">
    <g>
      <path class="cls-8" d="m76.96,23v44.39l-19.15,25.37h-30.9l-19.15-25.37V23C7.76,10.3,18.05,0,30.75,0h23.21c12.7,0,23,10.3,23,23Z"/>
      <polygon class="cls-5" points="76.96 45.59 76.96 67.38 57.81 92.76 29.79 92.76 76.96 45.59"/>
      <path class="cls-3" d="m63.7,64.9h-11.19l-6.12,27.85h-19.49l-19.14-25.37V23C7.76,10.3,18.05,0,30.75,0h23.45c2.57,1.9,4.39,4.76,4.89,8.06v.17s4.61,56.67,4.61,56.67Z"/>
      <path class="cls-7" d="m70.2,29.91q-3.46-4.84-12.12-4.84v-2.06c9.35,0,9.72,0,13.8,5.71l-1.68,1.2Z"/>
      <path class="cls-7" d="m61.06,62.47h-10.51l-2.18,9.91-2.14,9.73-2.34,10.64h-16.99l-19.14-25.37V23C7.76,10.3,18.05,0,30.75,0h16.13C51.78,0,55.95,3.59,56.68,8.43l2.35,28.99.35,4.33h0s.74,9.2.74,9.2l.36,4.4.57,7.13Z"/>
      <path class="cls-6" d="m28.86,88.84l-17.18-22.76V23C11.68,12.48,20.24,3.92,30.75,3.92h16.13c2.9,0,5.42,2.13,5.91,4.98l3.43,42.36.37,4.41.23,2.88h-9.41l-6.65,30.29h-11.88Z"/>
      <path class="cls-2" d="m7.76,67.39h2.83c6.87,0,12.74,4.93,13.93,11.7l2.4,13.67"/>
      <path class="cls-4" d="m76.96,67.39h-2.83c-6.87,0-12.74,4.93-13.93,11.7l-2.4,13.67"/>
      <path class="cls-7" d="m6.1,26.67h1.66v18.56h-1.66c-3.36,0-6.1-2.73-6.1-6.1v-6.37c0-3.36,2.73-6.1,6.1-6.1Z"/>
      <g>
        <path class="cls-7" d="m62.13,2.6c-.46-.18-.92-.35-1.39-.5l.63-1.96c.52.17,1.03.35,1.53.55l-.77,1.92Z"/>
        <path class="cls-7" d="m75.53,18.8c-.18-.9-.41-1.79-.69-2.65l1.96-.64c.31.94.56,1.92.75,2.9l-2.02.39Zm-1.7-5.19c-.39-.82-.83-1.63-1.32-2.4l1.74-1.11c.54.84,1.02,1.72,1.45,2.62l-1.87.88Zm-2.93-4.61c-.58-.7-1.21-1.37-1.87-2l1.41-1.5c.73.68,1.41,1.42,2.05,2.18l-1.59,1.31Zm-3.98-3.75c-.74-.54-1.51-1.04-2.31-1.48l1-1.8c.87.48,1.72,1.02,2.52,1.61l-1.22,1.67Z"/>
        <path class="cls-7" d="m77.99,23h-2.06c0-.5-.02-.99-.05-1.48l2.06-.13c.03.53.05,1.07.05,1.61Z"/>
      </g>
      <rect class="cls-7" x="75.93" y="23" width="2.06" height="16.24"/>
      <polygon class="cls-1" points="48.38 72.38 46.23 82.11 33.2 82.11 30.97 72.38 48.38 72.38"/>
      <g>
        <polygon class="cls-8" points="61.06 14.11 48.66 14.11 46.22 10.27 33.77 10.27 33.77 8.2 47.35 8.2 49.79 12.04 61.06 12.04 61.06 14.11"/>
        <circle class="cls-8" cx="33.87" cy="9.24" r="2.02"/>
      </g>
      <g>
        <rect class="cls-2" x="12.91" y="53.94" width="2.06" height="15.51"/>
        <path class="cls-2" d="m15.96,54.04c0-1.11-.9-2.02-2.02-2.02s-2.02.9-2.02,2.02.9,2.02,2.02,2.02,2.02-.9,2.02-2.02Z"/>
      </g>
      <path class="cls-6" d="m51.73,78.28h-22.08v-2.06h22.08c2.02,0,3.89-1.1,4.87-2.87l.57-1.02,1.8,1-.57,1.02c-1.34,2.42-3.9,3.93-6.67,3.93Z"/>
      <path class="cls-2" d="m60.13,50.94c-.47.07-.96.07-1.44,0-.95-.13-1.86-.57-2.59-1.3-.89-.89-1.34-2.07-1.35-3.24-.01-1.19.44-2.38,1.35-3.3.56-.56,1.23-.95,1.95-1.16.44-.15.89-.21,1.34-.21l-.35-4.33h-1.22l-.66,2.3c-.33.11-.64.23-.94.39l-2.08-1.17-2.21,2.2,1.17,2.09c-.07.15-.15.3-.22.46-.06.16-.12.32-.17.47l-2.3.66v3.11l2.3.64c.01.06.02.1.05.15.1.28.21.55.34.8l-1.17,2.08,2.2,2.2,2.09-1.16c.17.09.34.17.52.23.13.06.28.11.41.16l.66,2.3h2.68l-.36-4.4Z"/>
      <path class="cls-4" d="m59.7,41.77c-.1-.01-.22-.01-.32-.01-.45,0-.9.06-1.34.19-.72.21-1.39.6-1.95,1.16-.91.91-1.36,2.1-1.35,3.3,0,.11,0,.21.01.32l-2.01,2.01s-.04-.09-.05-.15l-2.3-.64v-3.11l2.3-.66c.05-.16.11-.32.17-.47.06-.16.13-.32.21-.46l-1.16-2.09,2.21-2.2,2.08,1.17c.29-.16.61-.28.94-.39l.66-2.3h1.22l.35,4.33c.11,0,.22,0,.32.02Z"/>
      <g>
        <g>
          <circle class="cls-2" cx="34.8" cy="31.67" r="11.89" transform="translate(-9.52 15.86) rotate(-22.67)"/>
          <path class="cls-4" d="m34.8,40.88c-5.08,0-9.21-4.13-9.21-9.21s4.13-9.21,9.21-9.21,9.21,4.13,9.21,9.21-4.13,9.21-9.21,9.21Z"/>
          <path class="cls-1" d="m41.57,31.67c0,3.74-3.03,6.77-6.77,6.77s-6.77-3.03-6.77-6.77,3.03-6.77,6.77-6.77,6.77,3.03,6.77,6.77Z"/>
        </g>
        <g>
          <path class="cls-1" d="m23.94,31.67h-2.06c0-.56.04-1.12.11-1.68l2.05.26c-.06.47-.09.94-.09,1.41Z"/>
          <path class="cls-1" d="m24.77,27.52l-1.91-.79c.43-1.04,1-2.02,1.69-2.92l1.64,1.26c-.58.75-1.06,1.58-1.42,2.45Zm3.43-4.46l-1.26-1.64c.9-.69,1.88-1.26,2.92-1.69l.79,1.91c-.87.36-1.7.84-2.45,1.42Z"/>
          <path class="cls-1" d="m33.39,20.91l-.27-2.05c.55-.07,1.12-.11,1.68-.11v2.06c-.47,0-.95.03-1.41.09Z"/>
        </g>
        <g>
          <rect class="cls-1" x="33.77" y="35" width="2.06" height="28.06"/>
          <circle class="cls-1" cx="34.8" cy="62.96" r="2.02"/>
        </g>
        <g>
          <polygon class="cls-1" points="27.65 57.41 25.59 57.41 25.59 49.9 34.46 46.8 35.14 48.75 27.65 51.36 27.65 57.41"/>
          <path class="cls-1" d="m24.6,57.31c0,1.11.9,2.02,2.02,2.02s2.02-.9,2.02-2.02-.9-2.02-2.02-2.02-2.02.9-2.02,2.02Z"/>
        </g>
      </g>
    </g>
  </g>
</svg>