<?xml version="1.0" encoding="UTF-8"?>
<svg id="Layer_2" data-name="Layer 2" xmlns="http://www.w3.org/2000/svg" viewBox="0 0 106.42 80.28">
  <defs>
    <style>
      .cls-1 {
        fill: #fff;
      }

      .cls-2 {
        fill: #f1dc6b;
      }

      .cls-3 {
        fill: #2b91ad;
      }

      .cls-4 {
        fill: #dfc465;
      }

      .cls-5 {
        fill: #55abbe;
      }

      .cls-6 {
        fill: #32335f;
      }

      .cls-7 {
        fill: #3a3b74;
      }

      .cls-8 {
        fill: #83b7c2;
      }
    </style>
  </defs>
  <g id="OBJECTS">
    <g>
      <circle class="cls-5" cx="11.69" cy="46.43" r="11.69" transform="translate(-36.18 47.19) rotate(-76.78)"/>
      <circle class="cls-5" cx="92.16" cy="44.88" r="13.23" transform="translate(-4.74 78.31) rotate(-45)"/>
      <path class="cls-7" d="m106.42,44.88h-2.06c0-6.73-5.47-12.2-12.2-12.2v-2.06c7.86,0,14.26,6.4,14.26,14.26Z"/>
      <circle class="cls-5" cx="33.53" cy="31.65" r="21.7" transform="translate(-11.59 22.16) rotate(-31.47)"/>
      <circle class="cls-5" cx="66.63" cy="29.06" r="29.06"/>
      <rect class="cls-5" x="11.69" y="46.53" width="80.47" height="11.58"/>
      <g>
        <g>
          <path class="cls-8" d="m79.05,2.79L23.73,58.11h-12.05c-6.45,0-11.68-5.23-11.68-11.68s5.23-11.68,11.68-11.68c.13,0,.24,0,.36.01-.15-1.01-.22-2.04-.22-3.11,0-11.99,9.72-21.7,21.7-21.7,3.41,0,6.63.78,9.5,2.18C48.28,4.79,56.9,0,66.64,0c4.45,0,8.65.99,12.41,2.78Z"/>
          <circle class="cls-3" cx="66.63" cy="29.06" r="24.29" transform="translate(-2.53 6.69) rotate(-5.64)"/>
        </g>
        <path class="cls-8" d="m104.46,73.86c0,1.76-.71,3.37-1.89,4.53-1.16,1.18-2.77,1.89-4.53,1.89H6.42c-3.54,0-6.42-2.88-6.42-6.42,0-1.78.71-3.39,1.89-4.55,1.16-1.16,2.77-1.87,4.53-1.87h91.61c3.54,0,6.42,2.87,6.42,6.42Z"/>
        <path class="cls-5" d="m104.46,73.86c0,1.76-.71,3.37-1.89,4.53-1.16,1.18-2.77,1.89-4.53,1.89h-63.9l12.84-12.84h51.06c3.54,0,6.42,2.87,6.42,6.42Z"/>
        <path class="cls-3" d="m6.42,77.85c-2.2,0-3.99-1.79-3.99-3.99,0-1.07.41-2.07,1.16-2.81.76-.76,1.76-1.17,2.82-1.17h91.61c2.2,0,3.99,1.79,3.99,3.99,0,1.06-.41,2.06-1.16,2.8-.76.77-1.76,1.19-2.82,1.19H6.42Z"/>
        <circle class="cls-7" cx="66.63" cy="29.06" r="22.06" transform="translate(-6.04 27.51) rotate(-22.34)"/>
        <path class="cls-6" d="m88.69,29.06c0,12.19-9.87,22.06-22.06,22.06-6.09,0-11.61-2.47-15.6-6.46l31.19-31.19c3.99,3.99,6.46,9.52,6.46,15.6Z"/>
        <g>
          <rect class="cls-7" x="21.51" y="28.02" width="25.67" height="2.06"/>
          <g>
            <rect class="cls-7" x="21.51" y="29.06" width="2.06" height="1.55"/>
            <path class="cls-7" d="m23.58,70.72h-2.06v-3.01h2.06v3.01Zm0-5.02h-2.06v-3.01h2.06v3.01Zm0-5.02h-2.06v-3.01h2.06v3.01Zm0-5.01h-2.06v-3.01h2.06v3.01Zm0-5.02h-2.06v-3.01h2.06v3.01Zm0-5.02h-2.06v-3.01h2.06v3.01Zm0-5.01h-2.06v-3.01h2.06v3.01Zm0-5.02h-2.06v-3.01h2.06v3.01Z"/>
            <rect class="cls-7" x="21.51" y="72.73" width="2.06" height="1.55"/>
            <circle class="cls-7" cx="22.55" cy="74.18" r="2.02"/>
          </g>
          <g>
            <rect class="cls-7" x="34.86" y="29.06" width="2.06" height="18.58"/>
            <path class="cls-7" d="m33.88,47.53c0,1.11.9,2.02,2.02,2.02s2.02-.9,2.02-2.02-.9-2.02-2.02-2.02-2.02.9-2.02,2.02Z"/>
          </g>
          <g>
            <rect class="cls-7" x="28.45" y="20.1" width="2.06" height="8.94"/>
            <path class="cls-7" d="m31.5,20.21c0-1.11-.9-2.02-2.02-2.02s-2.02.9-2.02,2.02.9,2.02,2.02,2.02,2.02-.9,2.02-2.02Z"/>
          </g>
          <g>
            <rect class="cls-7" x="10.12" y="46.04" width="7.09" height="2.06"/>
            <circle class="cls-7" cx="10.22" cy="47.07" r="2.02"/>
          </g>
        </g>
        <path class="cls-2" d="m81.83,31.69v-5.28l-3.89-1.11c-.09-.24-.17-.47-.26-.7-.12-.3-.25-.6-.4-.9l1.97-3.54-3.74-3.74-3.54,1.98c-.51-.26-1.05-.49-1.59-.66l-1.11-3.9h-5.28l-1.11,3.9c-.55.17-1.08.4-1.59.66l-3.54-1.98-3.74,3.74,1.97,3.54c-.26.52-.47,1.06-.66,1.59l-3.89,1.11v5.28l3.89,1.11c.19.55.4,1.08.66,1.61l-1.97,3.53,3.74,3.74,3.54-1.97c.29.15.59.29.9.4.22.1.46.19.7.26l1.11,3.9h5.28l1.11-3.9c.55-.19,1.08-.4,1.59-.66l3.54,1.97,3.74-3.74-1.97-3.53c.26-.52.47-1.06.66-1.61l3.89-1.11Zm-9.66,2.9c-1.83,1.83-4.32,2.57-6.69,2.21-1.61-.22-3.16-.97-4.4-2.21-3.06-3.06-3.06-8.02,0-11.09,3.06-3.07,8.02-3.07,11.09,0,1.23,1.23,1.98,2.79,2.21,4.4.36,2.37-.37,4.86-2.21,6.69Z"/>
        <g>
          <path class="cls-7" d="m106.32,46.55l-2.05-.24c.05-.47.08-.95.08-1.43h2.06c0,.56-.03,1.12-.1,1.66Z"/>
          <path class="cls-7" d="m97.51,58.1l-.77-1.91c1.01-.41,1.96-.95,2.82-1.61l1.25,1.64c-1.01.77-2.12,1.41-3.3,1.88Zm5.99-4.57l-1.64-1.25c.66-.87,1.2-1.82,1.61-2.82l1.91.77c-.48,1.18-1.11,2.29-1.88,3.3Z"/>
          <path class="cls-7" d="m92.16,59.14v-2.06c.47,0,.95-.03,1.43-.08l.24,2.05c-.56.06-1.12.1-1.66.1Z"/>
        </g>
        <g>
          <path class="cls-1" d="m86.32,21.65c-.17-.46-.36-.91-.57-1.36l1.87-.86c.23.49.43.99.63,1.49l-1.93.73Z"/>
          <path class="cls-1" d="m80.35,47.62l-1.23-1.66c.73-.54,1.43-1.13,2.08-1.76l1.43,1.49c-.71.69-1.48,1.34-2.28,1.93Zm4.29-4.13l-1.61-1.29c.57-.7,1.09-1.45,1.56-2.23l1.76,1.08c-.52.85-1.1,1.67-1.72,2.44Zm3.11-5.09l-1.89-.84c.37-.83.68-1.69.94-2.55l1.98.59c-.28.95-.63,1.89-1.03,2.8Zm1.69-5.72l-2.04-.32c.14-.89.23-1.8.25-2.71l2.06.06c-.03,1-.12,2-.28,2.97Zm-1.88-5.75c-.09-.9-.24-1.8-.45-2.68l2.01-.47c.23.97.39,1.96.49,2.95l-2.05.21Z"/>
          <path class="cls-1" d="m76.38,49.99l-.88-1.87c.45-.21.88-.43,1.31-.67l1,1.8c-.47.26-.95.51-1.44.74Z"/>
        </g>
        <path class="cls-4" d="m70.61,17.83l-3.41,3.41c-2.2-.17-4.44.59-6.11,2.27-1.68,1.68-2.43,3.92-2.27,6.11l-3.41,3.41c-.03-.08-.06-.15-.08-.24l-3.89-1.11v-5.29l3.89-1.11c.18-.53.41-1.08.66-1.6l-1.96-3.54,3.74-3.74,3.54,1.97c.5-.25,1.04-.48,1.59-.66l1.11-3.89h5.27l1.12,3.89c.07.03.15.06.22.08Z"/>
        <g>
          <polygon class="cls-2" points="55.67 59.59 56.26 59.59 56.26 65.96 55.67 65.96 55.67 68.92 57.92 68.92 57.92 65.96 57.32 65.96 57.32 59.59 57.92 59.59 57.92 56.63 55.67 56.63 55.67 59.59"/>
          <polygon class="cls-2" points="59.61 59.59 60.2 59.59 60.2 57.77 60.2 60.38 60.2 65.96 59.61 65.96 59.61 68.92 61.85 68.92 61.85 65.96 61.26 65.96 61.26 60.38 61.26 57.77 61.26 59.59 61.85 59.59 61.85 56.63 59.61 56.63 59.61 59.59"/>
          <polygon class="cls-2" points="63.54 59.59 64.14 59.59 64.14 57.77 64.14 60.38 64.14 65.96 63.54 65.96 63.54 68.92 65.79 68.92 65.79 65.96 65.19 65.96 65.19 60.38 65.19 57.77 65.19 59.59 65.79 59.59 65.79 56.63 63.54 56.63 63.54 59.59"/>
          <polygon class="cls-2" points="67.48 59.59 68.07 59.59 68.07 57.77 68.07 60.38 68.07 65.96 67.48 65.96 67.48 68.92 69.72 68.92 69.72 65.96 69.13 65.96 69.13 60.38 69.13 57.77 69.13 59.59 69.72 59.59 69.72 56.63 67.48 56.63 67.48 59.59"/>
          <polygon class="cls-2" points="71.41 59.59 72.01 59.59 72.01 57.77 72.01 60.38 72.01 65.96 71.41 65.96 71.41 68.92 73.66 68.92 73.66 65.96 73.07 65.96 73.07 60.38 73.07 57.77 73.07 59.59 73.66 59.59 73.66 56.63 71.41 56.63 71.41 59.59"/>
          <polygon class="cls-2" points="77 59.59 77.6 59.59 77.6 56.63 75.35 56.63 75.35 59.59 75.94 59.59 75.94 65.96 75.35 65.96 75.35 68.92 77.6 68.92 77.6 65.96 77 65.96 77 59.59"/>
        </g>
        <g>
          <rect class="cls-2" x="35.16" y="72.83" width="1.55" height="2.06"/>
          <path class="cls-2" d="m64.92,74.89h-2.82v-2.06h2.82v2.06Zm-5.64,0h-2.82v-2.06h2.82v2.06Zm-5.64,0h-2.82v-2.06h2.82v2.06Zm-5.64,0h-2.82v-2.06h2.82v2.06Zm-5.64,0h-2.82v-2.06h2.82v2.06Z"/>
          <rect class="cls-2" x="67.75" y="72.83" width="1.55" height="2.06"/>
        </g>
      </g>
    </g>
  </g>
</svg>