<?xml version="1.0" encoding="UTF-8"?>
<svg id="Layer_2" data-name="Layer 2" xmlns="http://www.w3.org/2000/svg" viewBox="0 0 70.08 99.99">
  <defs>
    <style>
      .cls-1 {
        fill: #fff;
      }

      .cls-2 {
        fill: #f1dc6b;
      }

      .cls-3 {
        fill: #7db5c1;
      }

      .cls-4 {
        fill: #2b91ad;
      }

      .cls-5 {
        fill: #dfc465;
      }

      .cls-6 {
        fill: #55abbe;
      }

      .cls-7 {
        fill: #3a3b74;
      }

      .cls-8 {
        fill: #83b7c2;
      }
    </style>
  </defs>
  <g id="OBJECTS">
    <g>
      <path class="cls-6" d="m26.41,96.4c-4.4,0-7.98-3.58-7.98-7.98v-8.76c0-6.8-3.23-15.7-7.67-21.14l-.07-.09c-.4-.51-.84-.99-1.29-1.45l-.26-.26-.23-.28c-5.07-6.15-7.86-13.93-7.86-21.91C1.03,15.49,16.52,0,35.56,0s34.53,15.49,34.53,34.53c0,8.14-2.89,16.04-8.15,22.24l-.12.14-.29.3-2.44,3.02c-3.84,5.57-6.41,13.35-6.41,19.44v8.76c0,4.4-3.58,7.98-7.98,7.98h-18.3Z"/>
      <path class="cls-3" d="m70.08,34.53c0,8.57-3.13,16.43-8.32,22.44-.04.04-.06.05-.06.08-.4.39-.77.8-1.12,1.22-.03.03-.06.05-.06.06-4.5,5.41-7.82,14.49-7.82,21.32h-9.06c0-18.89,23.53-25.5,26.45-45.13"/>
      <path class="cls-6" d="m30.19,92.82h10.74v3.49c0,2.03-1.65,3.68-3.68,3.68h-3.38c-2.03,0-3.68-1.65-3.68-3.68v-3.49h0Z"/>
      <path class="cls-4" d="m35.56,63.92c-16.21,0-29.4-13.19-29.4-29.4S19.35,5.12,35.56,5.12s29.4,13.19,29.4,29.4-13.19,29.4-29.4,29.4Z"/>
      <circle class="cls-7" cx="35.56" cy="34.52" r="26.82" transform="translate(-3.93 4.57) rotate(-6.97)"/>
      <path class="cls-7" d="m18.43,79.66h34.26v8.76c0,4.4-3.57,7.98-7.98,7.98h-18.3c-4.4,0-7.98-3.57-7.98-7.98v-8.76h0Z"/>
      <g>
        <path class="cls-7" d="m9.91,59.11c-.3-.38-.62-.75-.95-1.09l1.49-1.43c.38.4.74.82,1.08,1.25l-1.62,1.27Z"/>
        <path class="cls-7" d="m6.74,55.34c-.67-.92-1.3-1.89-1.88-2.88l1.78-1.04c.55.93,1.14,1.84,1.77,2.71l-1.67,1.21Zm-3.47-5.93c-.48-1.03-.91-2.11-1.29-3.19l1.95-.68c.36,1.02.76,2.03,1.21,3l-1.87.87Zm-2.27-6.49c-.27-1.11-.49-2.25-.65-3.38l2.04-.29c.15,1.06.36,2.13.61,3.18l-2,.49Z"/>
        <path class="cls-7" d="m.04,36.12c-.02-.53-.04-1.06-.04-1.59h2.06c0,.5.01,1,.03,1.5l-2.06.09Z"/>
      </g>
      <path class="cls-7" d="m19.46,79.66h-2.06c0-6.51-3.21-15.34-7.48-20.54l1.6-1.31c4.6,5.61,7.94,14.8,7.94,21.85Z"/>
      <g>
        <path class="cls-1" d="m63.41,34.52h-2.06c0-.5-.01-1-.04-1.49l2.06-.12c.03.53.05,1.07.05,1.61Z"/>
        <path class="cls-1" d="m60.98,30.16c-.16-.94-.38-1.89-.64-2.81l1.98-.57c.29,1,.52,2.02.7,3.04l-2.04.35Zm-1.6-5.54c-.37-.89-.79-1.76-1.26-2.6l1.8-1c.5.9.96,1.85,1.36,2.81l-1.91.79Zm-2.79-5.04c-.56-.78-1.16-1.54-1.8-2.26l1.54-1.38c.69.77,1.35,1.59,1.94,2.43l-1.68,1.2Zm-3.84-4.3c-.71-.64-1.47-1.24-2.25-1.8l1.2-1.68c.84.6,1.66,1.26,2.43,1.94l-1.38,1.54Zm-4.69-3.34c-.84-.47-1.71-.89-2.6-1.26l.79-1.91c.96.4,1.9.85,2.8,1.36l-1,1.8Zm-5.32-2.21c-.92-.27-1.87-.48-2.81-.64l.35-2.03c1.02.17,2.04.41,3.04.7l-.57,1.98Z"/>
        <path class="cls-1" d="m37.05,8.77c-.49-.03-.99-.04-1.49-.04v-2.06c.54,0,1.07.02,1.61.05l-.12,2.06Z"/>
      </g>
      <path class="cls-6" d="m54.91,84.83v2.15c0,1.79-1.38,3.27-3.16,3.41l-5.69.44-26.17,2.01c-1.99.15-3.68-1.42-3.68-3.41v-1.63l29.85-2.29,8.85-.68Z"/>
      <polygon class="cls-6" points="54.91 76.52 54.91 81.84 46.06 82.52 16.21 84.83 16.21 79.5 46.06 77.2 54.91 76.52"/>
      <g>
        <g>
          <polygon class="cls-8" points="54.91 76.52 54.91 81.84 46.06 82.52 46.06 77.2 54.91 76.52"/>
          <path class="cls-8" d="m46.06,85.51l8.85-.68v2.15c0,1.79-1.38,3.27-3.16,3.41l-5.69.44v-5.32Z"/>
        </g>
        <g>
          <polygon class="cls-3" points="54.91 76.52 54.91 81.84 46.06 82.52 46.06 77.2 54.91 76.52"/>
          <path class="cls-3" d="m46.06,85.51l8.85-.68v2.15c0,1.79-1.38,3.27-3.16,3.41l-5.69.44v-5.32Z"/>
        </g>
      </g>
      <g>
        <circle class="cls-2" cx="35.56" cy="34.52" r="23.93" transform="translate(-3.21 3.65) rotate(-5.63)"/>
        <path class="cls-5" d="m59.48,34.52c0,13.22-10.71,23.93-23.93,23.93-6.61,0-12.59-2.68-16.92-7.01L52.47,17.6c4.33,4.33,7.01,10.32,7.01,16.92Z"/>
        <path class="cls-7" d="m51.28,37.25v-5.46l-4.02-1.15c-.09-.24-.18-.49-.27-.72-.13-.31-.26-.62-.41-.93l2.04-3.66-3.87-3.87-3.66,2.05c-.53-.27-1.08-.5-1.65-.68l-1.15-4.03h-5.46l-1.15,4.03c-.57.18-1.12.41-1.65.68l-3.66-2.05-3.87,3.87,2.04,3.66c-.27.54-.49,1.1-.68,1.65l-4.02,1.15v5.46l4.02,1.15c.19.57.41,1.12.68,1.66l-2.04,3.65,3.87,3.87,3.66-2.04c.3.15.61.3.93.41.23.1.48.19.72.27l1.15,4.03h5.46l1.15-4.03c.57-.19,1.12-.41,1.65-.68l3.66,2.04,3.87-3.87-2.04-3.65c.27-.54.49-1.1.68-1.66l4.02-1.15Zm-9.98,3c-1.89,1.89-4.47,2.65-6.92,2.28-1.66-.23-3.27-1-4.55-2.28-3.17-3.17-3.17-8.3,0-11.47s8.3-3.17,11.47,0c1.28,1.28,2.05,2.89,2.28,4.55.37,2.45-.39,5.02-2.28,6.92Z"/>
      </g>
    </g>
  </g>
</svg>