<svg width="245" height="245" viewBox="0 0 245 245" fill="none" xmlns="http://www.w3.org/2000/svg">
<mask id="mask0_1141_430" style="mask-type:luminance" maskUnits="userSpaceOnUse" x="0" y="0" width="245" height="245">
<path d="M224.925 2H20.075C15.2812 2 10.6838 3.90433 7.29405 7.29405C3.90433 10.6838 2 15.2812 2 20.075V224.925C2 229.719 3.90433 234.316 7.29405 237.706C10.6838 241.096 15.2812 243 20.075 243H224.925C229.719 243 234.316 241.096 237.706 237.706C241.096 234.316 243 229.719 243 224.925V20.075C243 15.2812 241.096 10.6838 237.706 7.29405C234.316 3.90433 229.719 2 224.925 2Z" fill="white" stroke="white" stroke-width="4" stroke-linejoin="round"/>
<path d="M50.2 92.7001C70.2331 68.6001 94.3331 56.55 122.5 56.55C150.667 56.55 174.767 68.6001 194.8 92.7001" stroke="black" stroke-width="4" stroke-linecap="round"/>
<path d="M122.5 164.675C127.294 164.675 131.891 162.771 135.281 159.381C138.671 155.991 140.575 151.394 140.575 146.6C140.575 141.806 138.671 137.209 135.281 133.819C131.891 130.429 127.294 128.525 122.5 128.525C117.706 128.525 113.109 130.429 109.719 133.819C106.329 137.209 104.425 141.806 104.425 146.6C104.425 151.394 106.329 155.991 109.719 159.381C113.109 162.771 117.706 164.675 122.5 164.675Z" fill="black"/>
<path d="M92.375 104.425L122.548 146.6" stroke="black" stroke-width="4" stroke-linecap="round"/>
</mask>
<g mask="url(#mask0_1141_430)">
<path d="M-22.1 -22.1H267.1V267.1H-22.1V-22.1Z" fill="#B6B6B6"/>
</g>
</svg>
